<svg width="48" height="48" viewBox="0 0 48 48" fill="none" xmlns="http://www.w3.org/2000/svg">
<path d="M6.90912 14.7689L15.0909 17.109V37.0002L6.90912 34.6601V14.7689Z" fill="#333333"/>
<path fill-rule="evenodd" clip-rule="evenodd" d="M6 32.8396V13.1221H8V32.8396C8 33.5246 8.58477 34.3096 10.1955 34.9774C11.7307 35.6139 13.8455 35.9741 16.0114 35.9988C18.179 36.0235 20.2859 35.711 21.8105 35.0905C23.3821 34.4509 24 33.6481 24 32.8396H26C26 34.9065 24.3679 36.209 22.5645 36.9429C20.7141 37.696 18.321 38.0253 15.9886 37.9986C13.6545 37.972 11.2693 37.5877 9.42952 36.8249C7.66523 36.0935 6 34.8246 6 32.8396ZM24 20V13.1221H26V20H24Z" fill="#333333"/>
<path fill-rule="evenodd" clip-rule="evenodd" d="M22.1766 14.7467C23.7737 13.9482 24 13.2151 24 13C24 12.7849 23.7737 12.0518 22.1766 11.2533C20.6992 10.5146 18.5183 10 16 10C13.4817 10 11.3008 10.5146 9.82336 11.2533C8.22632 12.0518 8 12.7849 8 13C8 13.2151 8.22632 13.9482 9.82336 14.7467C11.3008 15.4854 13.4817 16 16 16C18.5183 16 20.6992 15.4854 22.1766 14.7467ZM16 18C21.5228 18 26 15.7614 26 13C26 10.2386 21.5228 8 16 8C10.4772 8 6 10.2386 6 13C6 15.7614 10.4772 18 16 18Z" fill="#333333"/>
<path fill-rule="evenodd" clip-rule="evenodd" d="M32.1875 8C31.0064 8 30 9.09586 30 10.4483C30 11.9426 31.1478 13.3196 32.6046 14.4255C33.3014 14.9544 34.0042 15.3715 34.5357 15.657C34.708 15.7496 34.8611 15.8277 34.9885 15.8906C35.1177 15.8237 35.2734 15.7406 35.4488 15.6423C35.9826 15.3434 36.6884 14.91 37.3885 14.369C38.8615 13.2306 40 11.8552 40 10.4483C40 9.09604 38.9937 8 37.8125 8C36.9892 8 36.3332 8.45808 35.8745 9.28527L35 10.8624L34.1255 9.28528C33.6667 8.45803 33.0108 8 32.1875 8ZM35 17C34.6079 17.9199 34.6073 17.9197 34.6073 17.9197L34.6048 17.9186L34.5994 17.9163L34.5824 17.9089C34.5682 17.9027 34.5484 17.894 34.5234 17.8828C34.4735 17.8604 34.4027 17.828 34.314 17.786C34.1368 17.702 33.8872 17.579 33.5893 17.4189C32.9958 17.1001 32.1986 16.6282 31.3954 16.0185C29.8522 14.847 28 12.9481 28 10.4483C28 8.22234 29.6842 6 32.1875 6C33.3501 6 34.2913 6.46363 35 7.15655C35.7087 6.46365 36.6499 6 37.8125 6C40.3161 6 42 8.22273 42 10.4483C42 12.8708 40.1385 14.7713 38.6115 15.9514C37.8116 16.5696 37.0174 17.0562 36.4262 17.3873C36.1294 17.5535 35.8809 17.6822 35.7045 17.7702C35.6163 17.8143 35.5459 17.8483 35.4964 17.8718C35.4717 17.8835 35.4521 17.8927 35.4381 17.8992L35.4213 17.9069L35.4162 17.9093L35.4144 17.9101C35.4144 17.9101 35.4132 17.9107 35 17ZM35 17L35.4132 17.9107L35.0126 18.0924L34.6073 17.9197L35 17Z" fill="#333333"/>
<path fill-rule="evenodd" clip-rule="evenodd" d="M35.9621 31.5882C35.6445 35.3763 34.7048 38.4164 31.8974 40.0607C29.1355 41.6785 25.0557 42.2864 21.677 41.8754C19.9809 41.6691 18.362 41.1952 17.1377 40.3774C15.8861 39.5414 15 38.3023 15 36.6607H17C17 37.4745 17.4051 38.1509 18.2486 38.7143C19.1193 39.2959 20.3993 39.7053 21.9184 39.89C24.9701 40.2612 28.5863 39.6823 30.8866 38.335C32.7981 37.2154 33.6624 35.0795 33.9691 31.4211C34.1705 29.0185 34.1215 26.159 34.0636 22.7831C34.033 21.002 34 19.0773 34 17H36C36 18.9692 36.0318 20.8415 36.0617 22.6031C36.1203 26.0579 36.1718 29.0872 35.9621 31.5882Z" fill="#333333"/>
<path fill-rule="evenodd" clip-rule="evenodd" d="M25 31C27.7614 31 30 28.7614 30 26C30 23.2386 27.7614 21 25 21C22.2386 21 20 23.2386 20 26C20 28.7614 22.2386 31 25 31ZM25 33C28.866 33 32 29.866 32 26C32 22.134 28.866 19 25 19C21.134 19 18 22.134 18 26C18 29.866 21.134 33 25 33Z" fill="#333333"/>
<path d="M23.5 26.5L25 21.5L26.5 26.5L25 28.5L23.5 26.5Z" fill="#333333"/>
</svg>
