<svg width="48" height="48" viewBox="0 0 48 48" fill="none" xmlns="http://www.w3.org/2000/svg">
<path fill-rule="evenodd" clip-rule="evenodd" d="M39 9H30V12H39V9ZM28 7V14H41V7H28Z" fill="#333333"/>
<path fill-rule="evenodd" clip-rule="evenodd" d="M29 28.0001L14 28.0001C12.8954 28.0001 12 28.8955 12 30.0001V37.0001C12 38.1046 12.8954 39.0001 14 39.0001H38C39.1046 39.0001 40 38.1046 40 37.0001V16.0001C40 14.8955 39.1046 14.0001 38 14.0001H31C29.8954 14.0001 29 14.8955 29 16.0001V28.0001ZM27 16.0001C27 13.7909 28.7908 12.0001 31 12.0001H38C40.2091 12.0001 42 13.7909 42 16.0001V37.0001C42 39.2092 40.2091 41.0001 38 41.0001H14C11.7908 41.0001 9.99998 39.2092 9.99998 37.0001V30.0001C9.99998 27.7909 11.7908 26.0001 14 26.0001L27 26.0001V16.0001Z" fill="#333333"/>
<path fill-rule="evenodd" clip-rule="evenodd" d="M14.7887 26.1995C15.2665 25.9224 15.8784 26.0852 16.1554 26.563L23.3651 38.9984C23.6421 39.4762 23.4794 40.0881 23.0016 40.3651C22.5238 40.6421 21.9119 40.4794 21.6349 40.0016L14.4252 27.5661C14.1482 27.0884 14.3109 26.4765 14.7887 26.1995Z" fill="#333333"/>
<path fill-rule="evenodd" clip-rule="evenodd" d="M21.7887 26.1995C22.2665 25.9224 22.8784 26.0852 23.1554 26.563L30.3651 38.9984C30.6421 39.4762 30.4794 40.0881 30.0016 40.3651C29.5238 40.6421 28.9119 40.4794 28.6349 40.0016L21.4252 27.5661C21.1482 27.0884 21.3109 26.4765 21.7887 26.1995Z" fill="#333333"/>
<path fill-rule="evenodd" clip-rule="evenodd" d="M27.3574 26.3574C27.7479 25.9669 28.3811 25.9669 28.7716 26.3574L40.2071 37.7928C40.5977 38.1834 40.5977 38.8165 40.2071 39.207C39.8166 39.5976 39.1834 39.5976 38.7929 39.2071L27.3574 27.7716C26.9669 27.3811 26.9668 26.7479 27.3574 26.3574Z" fill="#333333"/>
<path fill-rule="evenodd" clip-rule="evenodd" d="M27.1158 22.1031C27.2904 21.5792 27.8568 21.296 28.3807 21.4707L40.5743 25.5352C41.0982 25.7098 41.3814 26.2762 41.2067 26.8001C41.0321 27.324 40.4657 27.6072 39.9418 27.4326L27.7483 23.368C27.2243 23.1934 26.9411 22.6271 27.1158 22.1031Z" fill="#333333"/>
<path fill-rule="evenodd" clip-rule="evenodd" d="M41.4605 15.2217C41.6142 15.7521 41.3088 16.3068 40.7783 16.4605L28.9235 19.896C28.393 20.0497 27.8384 19.7443 27.6846 19.2138C27.5309 18.6834 27.8363 18.1287 28.3668 17.975L40.2216 14.5395C40.7521 14.3858 41.3067 14.6912 41.4605 15.2217Z" fill="#333333"/>
<path fill-rule="evenodd" clip-rule="evenodd" d="M16.4309 27.8221L11.4786 24.3938C11.0584 24.1029 10.4832 24.1972 10.178 24.6072C9.88656 24.9987 9.93986 25.5476 10.3012 25.8757L12.1947 27.595L10.8502 29.0756L8.95675 27.3564C7.83334 26.3363 7.66764 24.6301 8.57377 23.4129C9.52256 22.1384 11.3106 21.845 12.617 22.7494L17.5693 26.1777L16.4309 27.8221Z" fill="#333333"/>
<path fill-rule="evenodd" clip-rule="evenodd" d="M11.1644 28.9864L8.47959 29.4339C8.20284 29.48 8 29.7194 8 30C8 30.2806 8.20284 30.52 8.47959 30.5661L11.1644 31.0136L10.8356 32.9864L8.15079 32.5389C6.90967 32.3321 6 31.2582 6 30C6 28.7418 6.90967 27.6679 8.15079 27.4611L10.8356 27.0136L11.1644 28.9864Z" fill="#333333"/>
<path fill-rule="evenodd" clip-rule="evenodd" d="M11.1644 32.9864L8.47959 33.4339C8.20284 33.48 8 33.7194 8 34C8 34.2806 8.20284 34.52 8.47959 34.5661L11.1644 35.0136L10.8356 36.9864L8.15079 36.5389C6.90967 36.3321 6 35.2582 6 34C6 32.7418 6.90967 31.6679 8.15079 31.4611L10.8356 31.0136L11.1644 32.9864Z" fill="#333333"/>
<path fill-rule="evenodd" clip-rule="evenodd" d="M11.6065 36.989L8.45027 37.4609C8.19149 37.4996 8 37.7219 8 37.9835C8 38.2521 8.19804 38.4712 8.4557 38.5015C10.1678 38.703 12.8536 39 13.688 39V41C12.704 41 9.86327 40.681 8.22197 40.4878C6.94811 40.3379 6 39.2571 6 37.9835C6 36.7315 6.91628 35.6681 8.15452 35.4829L11.3108 35.011L11.6065 36.989Z" fill="#333333"/>
</svg>
