<svg width="48" height="48" viewBox="0 0 48 48" fill="none" xmlns="http://www.w3.org/2000/svg">
<path fill-rule="evenodd" clip-rule="evenodd" d="M22 9V11.6875C22 12.3406 21.5826 12.8962 21 13.1021V39C21 40.6569 22.3431 42 24 42C25.6569 42 27 40.6569 27 39V13.1021C26.4174 12.8962 26 12.3406 26 11.6875V9H28V11.2729C28.5826 11.4788 29 12.0344 29 12.6875V39C29 41.7614 26.7614 44 24 44C21.2386 44 19 41.7614 19 39V12.6875C19 12.0344 19.4174 11.4788 20 11.2729V9H22Z" fill="#333333"/>
<path fill-rule="evenodd" clip-rule="evenodd" d="M21.7219 19.7066L27.222 25.2073L28.6362 23.7931L23.1363 18.2926L21.7219 19.7066Z" fill="#333333"/>
<path fill-rule="evenodd" clip-rule="evenodd" d="M19.4439 22.4292L27.222 30.2073L28.6362 28.7931L20.8581 21.015L19.4439 22.4292Z" fill="#333333"/>
<path fill-rule="evenodd" clip-rule="evenodd" d="M19.4439 27.4292L27.222 35.2073L28.6362 33.7931L20.8581 26.015L19.4439 27.4292Z" fill="#333333"/>
<path fill-rule="evenodd" clip-rule="evenodd" d="M19.4439 32.4292L27.222 40.2073L28.6362 38.7931L20.8581 31.015L19.4439 32.4292Z" fill="#333333"/>
<path fill-rule="evenodd" clip-rule="evenodd" d="M19.4439 37.4291L24.7215 42.7068L26.1357 41.2926L20.8581 36.0149L19.4439 37.4291Z" fill="#333333"/>
<path fill-rule="evenodd" clip-rule="evenodd" d="M25.7216 19.7068L27.2221 21.2073L28.6363 19.7931L27.1358 18.2926L25.7216 19.7068Z" fill="#333333"/>
<path fill-rule="evenodd" clip-rule="evenodd" d="M20 6V8H28V6H20ZM19 4C18.4477 4 18 4.44772 18 5V9C18 9.55228 18.4477 10 19 10H29C29.5523 10 30 9.55228 30 9V5C30 4.44772 29.5523 4 29 4H19Z" fill="#333333"/>
<path fill-rule="evenodd" clip-rule="evenodd" d="M28 20H20V18H28V20Z" fill="#333333"/>
</svg>
