<svg width="48" height="48" viewBox="0 0 48 48" fill="none" xmlns="http://www.w3.org/2000/svg">
<path fill-rule="evenodd" clip-rule="evenodd" d="M34.8431 23.9622C34.8431 23.9622 34.8437 23.9632 34 24.5L34.8437 23.9632L35.2743 24.6399L17.7071 42.2071L16.2929 40.7929L32.6898 24.396C32.5128 24.1702 32.288 23.8988 32.0188 23.6034C31.2605 22.7715 30.1768 21.7799 28.8429 21.0704C27.5183 20.3658 25.9701 19.9501 24.2372 20.2151C22.5032 20.4803 20.4697 21.4446 18.2072 23.7071L7.20741 34.7068L5.79291 33.2929L16.793 22.2929C19.2805 19.8054 21.6844 18.5822 23.9348 18.2381C26.1863 17.8937 28.1693 18.4468 29.7822 19.3047C31.3857 20.1576 32.6458 21.3224 33.4969 22.2561C33.9251 22.7259 34.2566 23.1447 34.483 23.4491C34.5963 23.6014 34.6837 23.7256 34.7441 23.8138C34.7743 23.8579 34.7978 23.893 34.8144 23.9182L34.8342 23.9485L34.8403 23.9578L34.8423 23.961L34.8431 23.9622Z" fill="#333333"/>
<path fill-rule="evenodd" clip-rule="evenodd" d="M23.221 32.1807C22.9773 33.3494 23.2235 34.4059 24.1689 35.2567L22.831 36.7433C21.2763 35.3441 20.8975 33.5256 21.2632 31.7724C21.6187 30.0677 22.6682 28.4175 23.9803 27.1054C25.2955 25.7903 26.9595 24.7291 28.656 24.2761C30.3642 23.8199 32.2143 23.9638 33.6642 25.2526L32.3355 26.7474C31.5355 26.0363 30.448 25.8676 29.1719 26.2084C27.8841 26.5523 26.5168 27.3973 25.3945 28.5196C24.2691 29.6451 23.4749 30.9636 23.221 32.1807Z" fill="#333333"/>
<path fill-rule="evenodd" clip-rule="evenodd" d="M33.104 9.11164C33.104 9.11164 33.1011 9.11677 33.0921 9.12679C33.099 9.11662 33.104 9.11164 33.104 9.11164ZM32.5602 9.5C32.2332 9.32063 31.7756 9.12313 31.1717 8.93098C29.4259 8.37548 26.89 8 24 8C21.11 8 18.5741 8.37548 16.8282 8.93098C16.2243 9.12313 15.7668 9.32063 15.4397 9.5C15.7668 9.67937 16.2243 9.87687 16.8282 10.069C18.5741 10.6245 21.11 11 24 11C26.89 11 29.4259 10.6245 31.1717 10.069C31.7756 9.87687 32.2332 9.67938 32.5602 9.5ZM14.8959 9.11164C14.8959 9.11164 14.901 9.11662 14.9079 9.1268C14.8988 9.11676 14.8959 9.11164 14.8959 9.11164ZM14.8959 9.88836C14.8959 9.88836 14.8988 9.88324 14.9079 9.8732C14.901 9.88338 14.8959 9.88836 14.8959 9.88836ZM33.0921 9.87321C33.1012 9.88324 33.104 9.88836 33.104 9.88836C33.104 9.88836 33.099 9.88339 33.0921 9.87321ZM24 13C30.0751 13 35 11.433 35 9.5C35 7.567 30.0751 6 24 6C17.9248 6 13 7.567 13 9.5C13 11.433 17.9248 13 24 13Z" fill="#333333"/>
<path fill-rule="evenodd" clip-rule="evenodd" d="M15 9.19995C15 12.8692 18.8097 16.2 24 16.2C29.1903 16.2 33 12.8692 33 9.19995H35C35 14.3672 29.8554 18.2 24 18.2C18.1446 18.2 13 14.3672 13 9.19995H15Z" fill="#333333"/>
</svg>
