<svg width="48" height="48" viewBox="0 0 48 48" fill="none" xmlns="http://www.w3.org/2000/svg">
<path fill-rule="evenodd" clip-rule="evenodd" d="M30 20.0714H18V40.7087C18.1725 40.8473 18.5037 41.0456 19.0454 41.2487C20.2159 41.6877 21.9672 42 24 42C26.0328 42 27.784 41.6877 28.9546 41.2487C29.4963 41.0456 29.8275 40.8473 30 40.7087V20.0714ZM30 41C30 41 30 41 30 41V41ZM32 18.0714V41C32 42.6569 28.4182 44 24 44C19.5817 44 16 42.6569 16 41V18.0714H32Z" fill="#333333"/>
<path d="M20 27C23.031 27.6293 24.7953 27.6109 28 27V33.1649C24.8815 34.1656 23.0938 34.0655 20 33.1649V27Z" fill="#333333"/>
<path fill-rule="evenodd" clip-rule="evenodd" d="M19.0225 15.6513L20.1111 19.0001H27.8889L29.0966 15.6875C30.87 16.2378 32 17.0694 32 18C32 19.6569 28.4182 21 24 21C19.5817 21 16 19.6569 16 18C16 17.0488 17.1807 16.2009 19.0225 15.6513Z" fill="#333333"/>
<path fill-rule="evenodd" clip-rule="evenodd" d="M29.0667 6.07056C27.3791 5.68525 25.4822 5.73264 23.9872 7.09272C21.84 9.04602 19.6278 9.07078 17.982 8.5665C17.9019 8.54195 17.8231 8.51619 17.7459 8.48943L20.8375 18.0001H27.1891L31.2602 6.83397C31.2301 6.81986 31.1991 6.80554 31.1674 6.79103C30.6367 6.54853 29.9001 6.26085 29.0667 6.07056ZM32.5 6.35301L33.0205 5.49917C33.4274 5.74721 33.6027 6.24787 33.4395 6.69556L28.8284 19.3426C28.6844 19.7374 28.3091 20.0001 27.8889 20.0001H20.1111C19.6779 20.0001 19.294 19.7212 19.1601 19.3092L15.049 6.66216C14.9083 6.22941 15.0775 5.75627 15.4607 5.51088C15.8428 5.26621 16.3415 5.3095 16.6757 5.61588L16.6774 5.61738M16.6757 5.61588L16.6774 5.61738L16.6954 5.63316C16.7139 5.64919 16.745 5.67547 16.7878 5.70967C16.8735 5.77825 17.0047 5.87754 17.1745 5.98936C17.5174 6.21516 17.9994 6.48006 18.5679 6.65426C19.6579 6.98823 21.1028 7.01298 22.6413 5.61331C24.832 3.62041 27.528 3.6678 29.5118 4.12073C30.5141 4.34956 31.3829 4.69057 31.9986 4.97197C32.308 5.11333 32.5572 5.24137 32.7317 5.33567C32.8191 5.38287 32.888 5.42175 32.9367 5.44981C32.9611 5.46384 32.9804 5.47518 32.9944 5.48351L33.0115 5.49371L33.017 5.49705L33.019 5.49826L33.0205 5.49917C33.0209 5.49939 33.0205 5.49917 32.5 6.35301" fill="#333333"/>
<path fill-rule="evenodd" clip-rule="evenodd" d="M27.8846 8.57696C28.3944 8.78937 28.6355 9.37485 28.423 9.88465L25.923 15.8846C25.7106 16.3945 25.1252 16.6355 24.6154 16.4231C24.1056 16.2107 23.8645 15.6252 24.0769 15.1154L26.5769 9.11542C26.7893 8.60562 27.3748 8.36454 27.8846 8.57696Z" fill="#333333"/>
</svg>
