<svg width="48" height="48" viewBox="0 0 48 48" fill="none" xmlns="http://www.w3.org/2000/svg">
<path fill-rule="evenodd" clip-rule="evenodd" d="M27.0305 29.4311C27.1315 30.1371 26.849 30.8433 26.289 31.2849C24.8913 32.3869 24 34.0888 24 36C24 39.3137 26.6863 42 30 42C33.3137 42 36 39.3137 36 36C36 34.0888 35.1087 32.3869 33.711 31.2849C33.151 30.8433 32.8685 30.1371 32.9695 29.4311C32.9895 29.2914 33 29.1475 33 29V9C33 7.34315 31.6569 6 30 6C28.3431 6 27 7.34315 27 9V29C27 29.1475 27.0105 29.2914 27.0305 29.4311ZM25 9C25 6.23858 27.2386 4 30 4C32.7614 4 35 6.23858 35 9V29C35 29.2425 34.9827 29.4811 34.9494 29.7144C36.8073 31.1793 38 33.4504 38 36C38 40.4183 34.4183 44 30 44C25.5817 44 22 40.4183 22 36C22 33.4504 23.1927 31.1793 25.0506 29.7144C25.0173 29.4811 25 29.2425 25 29V9Z" fill="#333333"/>
<path d="M30 11C30 10.4477 30.4477 10 31 10H33V12H31C30.4477 12 30 11.5523 30 11Z" fill="#333333"/>
<path d="M30 15C30 14.4477 30.4477 14 31 14H33V16H31C30.4477 16 30 15.5523 30 15Z" fill="#333333"/>
<path d="M30 19C30 18.4477 30.4477 18 31 18H33V20H31C30.4477 20 30 19.5523 30 19Z" fill="#333333"/>
<path fill-rule="evenodd" clip-rule="evenodd" d="M25.3076 30.2932L35.3076 40.2931L36.7218 38.8789L26.7218 28.8789L25.3076 30.2932Z" fill="#333333"/>
<path fill-rule="evenodd" clip-rule="evenodd" d="M25.3076 26.2932L36.3076 37.2931L37.7218 35.8788L26.7218 24.8789L25.3076 26.2932Z" fill="#333333"/>
<path fill-rule="evenodd" clip-rule="evenodd" d="M25.7219 22.7074L33.2219 30.2074L34.6361 28.7932L27.1361 21.2932L25.7219 22.7074Z" fill="#333333"/>
<path fill-rule="evenodd" clip-rule="evenodd" d="M30.7221 23.7073L33.222 26.2072L34.6362 24.793L32.1364 22.2931L30.7221 23.7073Z" fill="#333333"/>
<path fill-rule="evenodd" clip-rule="evenodd" d="M27.3342 23.0821C26.8035 22.9842 26.4639 22.9807 26.2403 23.036L25.7599 21.0946C26.4037 20.9352 27.0835 21.0021 27.6973 21.1154C28.188 21.206 28.7253 21.3454 29.2532 21.4824C29.3878 21.5174 29.5219 21.5522 29.6544 21.586C31.0133 21.9324 32.4111 22.2259 33.8565 22.0163L34.1436 23.9956C32.2733 24.2669 30.5386 23.8754 29.1603 23.524C29.0042 23.4842 28.8546 23.4454 28.7106 23.4081C28.1932 23.2739 27.7478 23.1585 27.3342 23.0821Z" fill="#333333"/>
<path fill-rule="evenodd" clip-rule="evenodd" d="M24.0147 33.0003L34.0147 43.0003L35.4289 41.5861L25.4289 31.5861L24.0147 33.0003Z" fill="#333333"/>
<path fill-rule="evenodd" clip-rule="evenodd" d="M22.7218 35.7074L30.7218 43.7074L32.136 42.2932L24.136 34.2932L22.7218 35.7074Z" fill="#333333"/>
<path fill-rule="evenodd" clip-rule="evenodd" d="M14 29L14 18H16L16 29L14 29Z" fill="#333333"/>
<path fill-rule="evenodd" clip-rule="evenodd" d="M15 13.3199L12.5927 18H17.4073L15 13.3199ZM15.8122 10.5263C15.4512 9.82456 14.5488 9.82456 14.1878 10.5263L10.127 18.4211C9.76608 19.1228 10.2173 20 10.9392 20H19.0608C19.7827 20 20.2339 19.1228 19.873 18.4211L15.8122 10.5263Z" fill="#333333"/>
</svg>
