<svg width="48" height="48" viewBox="0 0 48 48" fill="none" xmlns="http://www.w3.org/2000/svg">
<path fill-rule="evenodd" clip-rule="evenodd" d="M8 26C8 23.2386 10.2386 21 13 21H35C37.7614 21 40 23.2386 40 26V29C40 33.4183 36.4183 37 32 37C28.3931 37 25.3462 34.6138 24.3468 31.3362C24.312 31.2222 24.247 31.13 24.177 31.072C24.1108 31.0172 24.0508 31 24 31C23.9492 31 23.8892 31.0172 23.823 31.072C23.753 31.13 23.688 31.2222 23.6532 31.3362C22.6538 34.6138 19.6069 37 16 37C11.5817 37 8 33.4183 8 29V26ZM13 23C11.3431 23 10 24.3431 10 26V29C10 32.3137 12.6863 35 16 35C18.7025 35 20.9902 33.2125 21.7402 30.7529C22.0205 29.8335 22.8589 29 24 29C25.1411 29 25.9795 29.8335 26.2598 30.7529C27.0098 33.2125 29.2975 35 32 35C35.3137 35 38 32.3137 38 29V26C38 24.3431 36.6569 23 35 23H13Z" fill="#333333"/>
<path fill-rule="evenodd" clip-rule="evenodd" d="M4 22C4 14.8203 9.8203 9 17 9H31C38.1797 9 44 14.8203 44 22C44 24.7614 41.7614 27 39 27V25C40.6569 25 42 23.6569 42 22C42 15.9249 37.0751 11 31 11H17C10.9249 11 6 15.9249 6 22C6 23.6569 7.34315 25 9 25V27C6.23858 27 4 24.7614 4 22Z" fill="#333333"/>
</svg>
