<svg width="48" height="48" viewBox="0 0 48 48" fill="none" xmlns="http://www.w3.org/2000/svg">
<path fill-rule="evenodd" clip-rule="evenodd" d="M11 14C11 12.3431 12.3431 11 14 11H34C35.6569 11 37 12.3431 37 14V37.5352L33.4299 39.9153C27.7196 43.7221 20.2804 43.7221 14.5701 39.9152L11 37.5352V14ZM14 13C13.4477 13 13 13.4477 13 14V36.4648L15.6795 38.2511C20.718 41.6101 27.282 41.6101 32.3205 38.2512L35 36.4648V14C35 13.4477 34.5523 13 34 13H14Z" fill="#333333"/>
<path fill-rule="evenodd" clip-rule="evenodd" d="M36 17H12V15H36V17Z" fill="#333333"/>
<path fill-rule="evenodd" clip-rule="evenodd" d="M9.92077 10.4128C9.23408 11.0216 9 11.5603 9 12C9 12.4049 9.19673 12.8902 9.76358 13.4414C10.3333 13.9953 11.2128 14.5478 12.391 15.0484L11.609 16.8891C10.2978 16.332 9.17729 15.6609 8.36933 14.8753C7.55855 14.087 7 13.1167 7 12C7 10.7829 7.66135 9.74312 8.59395 8.91627C9.52772 8.08839 10.8218 7.38853 12.3352 6.82103C15.3692 5.68327 19.4936 5 24 5C28.5064 5 32.6308 5.68327 35.6648 6.82103C37.1782 7.38853 38.4723 8.08839 39.406 8.91627C40.3386 9.74312 41 10.7829 41 12C41 13.1167 40.4415 14.087 39.6307 14.8753C38.8227 15.6609 37.7022 16.332 36.391 16.8891L35.609 15.0484C36.7872 14.5478 37.6667 13.9953 38.2364 13.4414C38.8033 12.8902 39 12.4049 39 12C39 11.5603 38.7659 11.0216 38.0792 10.4128C37.3937 9.80501 36.3447 9.21198 34.9626 8.69369C32.2057 7.65987 28.3301 7 24 7C19.6699 7 15.7943 7.65987 13.0374 8.69369C11.6553 9.21198 10.6063 9.80501 9.92077 10.4128Z" fill="#333333"/>
<path fill-rule="evenodd" clip-rule="evenodd" d="M30.8285 28.7574L23.7574 35.8284L22.3432 34.4142L29.4143 27.3432L30.8285 28.7574Z" fill="#333333"/>
<path fill-rule="evenodd" clip-rule="evenodd" d="M32.9498 32.2929L27.2929 37.9498L25.8787 36.5356L31.5356 30.8787L32.9498 32.2929Z" fill="#333333"/>
</svg>
