<svg width="48" height="48" viewBox="0 0 48 48" fill="none" xmlns="http://www.w3.org/2000/svg">
<path fill-rule="evenodd" clip-rule="evenodd" d="M19 38.2792V15H17V39.7207L20.5215 40.8945C22.7794 41.6472 25.2206 41.6472 27.4785 40.8945L31 39.7207V15H29V38.2792L26.8461 38.9972C24.9986 39.613 23.0014 39.613 21.1539 38.9972L19 38.2792Z" fill="#333333"/>
<path fill-rule="evenodd" clip-rule="evenodd" d="M20.0499 5.9635L20.3418 6.62104C20.9649 8.02442 22.3696 8.99996 24 8.99996C25.6304 8.99996 27.0351 8.02442 27.6582 6.62104L27.9501 5.9635L28.6663 6.03125C32.2203 6.36744 35 9.35845 35 12.9999V24.9999C35 26.6567 33.6569 27.9999 32 27.9999H30V25.9999H32C32.5523 25.9999 33 25.5522 33 24.9999V12.9999C33 10.6244 31.3428 8.63504 29.122 8.12609C28.0686 9.84843 26.1697 11 24 11C21.8303 11 19.9313 9.84843 18.878 8.12609C16.6572 8.63504 15 10.6244 15 12.9999V24.9999C15 25.5522 15.4477 25.9999 16 25.9999H18V27.9999H16C14.3431 27.9999 13 26.6567 13 24.9999V12.9999C13 9.35845 15.7797 6.36744 19.3337 6.03125L20.0499 5.9635Z" fill="#333333"/>
<path fill-rule="evenodd" clip-rule="evenodd" d="M30 24H18V22H30V24Z" fill="#333333"/>
</svg>
