<svg width="48" height="48" viewBox="0 0 48 48" fill="none" xmlns="http://www.w3.org/2000/svg">
<path fill-rule="evenodd" clip-rule="evenodd" d="M24.4252 25.3815C22.4335 25.3815 20.8189 26.9961 20.8189 28.9878C20.8189 30.9795 22.4335 32.5941 24.4252 32.5941C26.4169 32.5941 28.0315 30.9795 28.0315 28.9878C28.0315 26.9961 26.4169 25.3815 24.4252 25.3815ZM18.8189 28.9878C18.8189 25.8915 21.3289 23.3815 24.4252 23.3815C27.5215 23.3815 30.0315 25.8915 30.0315 28.9878C30.0315 32.0841 27.5215 34.5941 24.4252 34.5941C21.3289 34.5941 18.8189 32.0841 18.8189 28.9878Z" fill="#333333"/>
<path d="M25.3466 27.145C25.3466 27.6538 24.9341 28.0663 24.4253 28.0663C23.9165 28.0663 23.5041 27.6538 23.5041 27.145C23.5041 26.6362 23.9165 26.2237 24.4253 26.2237C24.9341 26.2237 25.3466 26.6362 25.3466 27.145Z" fill="#333333"/>
<path d="M25.3466 30.8301C25.3466 31.3389 24.9341 31.7514 24.4253 31.7514C23.9165 31.7514 23.5041 31.3389 23.5041 30.8301C23.5041 30.3213 23.9165 29.9089 24.4253 29.9089C24.9341 29.9089 25.3466 30.3213 25.3466 30.8301Z" fill="#333333"/>
<path d="M27.189 28.9873C27.189 29.4961 26.7766 29.9086 26.2678 29.9086C25.759 29.9086 25.3465 29.4961 25.3465 28.9873C25.3465 28.4785 25.759 28.0661 26.2678 28.0661C26.7766 28.0661 27.189 28.4785 27.189 28.9873Z" fill="#333333"/>
<path d="M23.504 28.9873C23.504 29.4961 23.0916 29.9086 22.5828 29.9086C22.074 29.9086 21.6615 29.4961 21.6615 28.9873C21.6615 28.4785 22.074 28.0661 22.5828 28.0661C23.0916 28.0661 23.504 28.4785 23.504 28.9873Z" fill="#333333"/>
<path fill-rule="evenodd" clip-rule="evenodd" d="M18.8189 36.3581C18.8189 35.8058 19.2666 35.3581 19.8189 35.3581H29.0315C29.5838 35.3581 30.0315 35.8058 30.0315 36.3581C30.0315 36.9103 29.5838 37.3581 29.0315 37.3581H19.8189C19.2666 37.3581 18.8189 36.9103 18.8189 36.3581Z" fill="#333333"/>
<path fill-rule="evenodd" clip-rule="evenodd" d="M21.0328 17.7227C21.9618 16.7728 23.1074 16.0112 24.4251 16.0112C25.7428 16.0112 26.8884 16.7728 27.8174 17.7227C28.763 18.6895 29.6205 19.9885 30.3709 21.3707C31.8749 24.1414 33.0508 27.4392 33.678 29.6341C33.8297 30.1652 33.5222 30.7186 32.9912 30.8704C32.4601 31.0221 31.9066 30.7146 31.7549 30.1836C31.1537 28.0793 30.0264 24.9283 28.6132 22.3249C27.9049 21.0202 27.1502 19.9009 26.3876 19.1211C25.6085 18.3245 24.9499 18.0112 24.4251 18.0112C23.9003 18.0112 23.2417 18.3245 22.4626 19.1211C21.7 19.9009 20.9453 21.0202 20.237 22.3249C18.8238 24.9283 17.6965 28.0793 17.0953 30.1836C16.9436 30.7146 16.3901 31.0221 15.859 30.8704C15.328 30.7186 15.0205 30.1652 15.1722 29.6341C15.7994 27.4392 16.9753 24.1414 18.4793 21.3707C19.2297 19.9885 20.0872 18.6895 21.0328 17.7227Z" fill="#333333"/>
<path fill-rule="evenodd" clip-rule="evenodd" d="M22.6944 19.5439C23.1348 19.1326 23.7183 18.7752 24.4252 18.7752C25.1322 18.7752 25.7157 19.1326 26.1561 19.5439C26.6006 19.9591 26.9932 20.5141 27.341 21.1196C27.6161 21.5985 27.4509 22.2097 26.972 22.4848C26.4931 22.7599 25.8819 22.5947 25.6068 22.1158C25.3085 21.5967 25.0317 21.2304 24.7909 21.0055C24.546 20.7767 24.4281 20.7752 24.4252 20.7752C24.4223 20.7752 24.3045 20.7767 24.0595 21.0055C23.8188 21.2304 23.5419 21.5967 23.2437 22.1158C22.9686 22.5947 22.3574 22.7599 21.8785 22.4848C21.3996 22.2097 21.2344 21.5985 21.5095 21.1196C21.8573 20.5141 22.2498 19.9591 22.6944 19.5439Z" fill="#333333"/>
<path fill-rule="evenodd" clip-rule="evenodd" d="M24.5 8C20.9102 8 18 10.9101 18 14.5V27H16V14.5C16 9.80558 19.8056 6 24.5 6C29.1944 6 33 9.80558 33 14.5V27H31V14.5C31 10.9101 28.0899 8 24.5 8Z" fill="#333333"/>
<path fill-rule="evenodd" clip-rule="evenodd" d="M24.5 12C20.9102 12 18 14.9101 18 18.5V31C18 31.5523 17.5523 32 17 32C16.4477 32 16 31.5523 16 31V18.5C16 13.8056 19.8056 10 24.5 10C29.1944 10 33 13.8056 33 18.5V31C33 31.5523 32.5523 32 32 32C31.4477 32 31 31.5523 31 31V18.5C31 14.9101 28.0899 12 24.5 12Z" fill="#333333"/>
<path fill-rule="evenodd" clip-rule="evenodd" d="M36.0459 39.1584C36.9303 38.4967 37.9207 37.3685 38.76 35.9148C39.5993 34.4611 40.0812 33.0393 40.212 31.9425C40.2776 31.3922 40.2489 30.9734 40.171 30.69C40.0946 30.4124 39.9945 30.3358 39.9569 30.3141C39.9193 30.2924 39.8029 30.244 39.5243 30.3167C39.2399 30.3909 38.8628 30.5754 38.4191 30.9074C37.5346 31.5691 36.5443 32.6973 35.705 34.151C34.8657 35.6047 34.3838 37.0265 34.253 38.1233C34.1873 38.6736 34.2161 39.0924 34.294 39.3758C34.3703 39.6534 34.4705 39.73 34.5081 39.7517C34.5457 39.7734 34.6621 39.8218 34.9407 39.7491C35.2251 39.6749 35.6021 39.4904 36.0459 39.1584ZM35.4456 41.6844C34.8251 41.8462 34.1314 41.8437 33.5081 41.4838C32.8847 41.1239 32.5356 40.5244 32.3656 39.9061C32.1972 39.2937 32.1823 38.5968 32.2671 37.8864C32.437 36.4617 33.0315 34.7817 33.973 33.151C34.9144 31.5203 36.0721 30.1655 37.221 29.306C37.7939 28.8774 38.4048 28.5418 39.0194 28.3814C39.6399 28.2196 40.3336 28.2222 40.9569 28.582C41.5802 28.9419 41.9293 29.5414 42.0994 30.1597C42.2678 30.7721 42.2826 31.469 42.1979 32.1794C42.028 33.6041 41.4335 35.2841 40.492 36.9148C39.5505 38.5455 38.3928 39.9003 37.244 40.7598C36.6711 41.1884 36.0602 41.524 35.4456 41.6844Z" fill="#333333"/>
<path fill-rule="evenodd" clip-rule="evenodd" d="M33.5081 41.4838L30.3167 39.6414C29.6934 39.2815 29.3443 38.682 29.1743 38.0637C29.0058 37.4513 28.991 36.7544 29.0757 36.044C29.2456 34.6193 29.8401 32.9393 30.7816 31.3086C31.7231 29.6779 32.8808 28.3231 34.0296 27.4636C34.6025 27.035 35.2134 26.6994 35.828 26.539C36.4485 26.3772 37.1422 26.3798 37.7656 26.7396L40.9569 28.582L39.9569 30.3141L36.7656 28.4717C36.7279 28.45 36.6115 28.4016 36.333 28.4743C36.0485 28.5485 35.6715 28.733 35.2277 29.065C34.3433 29.7267 33.353 30.8549 32.5137 32.3086C31.6744 33.7623 31.1924 35.1841 31.0616 36.2809C30.996 36.8312 31.0247 37.25 31.1027 37.5334C31.179 37.811 31.2791 37.8876 31.3167 37.9093L34.5081 39.7517L33.5081 41.4838Z" fill="#333333"/>
<path fill-rule="evenodd" clip-rule="evenodd" d="M8.63842 31.9427C8.76923 33.0395 9.25114 34.4612 10.0904 35.9149C10.9297 37.3687 11.9201 38.4969 12.8045 39.1586C13.2483 39.4906 13.6253 39.6751 13.9097 39.7493C14.1883 39.822 14.3047 39.7736 14.3423 39.7519C14.3799 39.7302 14.4801 39.6535 14.5564 39.3759C14.6343 39.0925 14.6631 38.6737 14.5974 38.1234C14.4666 37.0266 13.9847 35.6049 13.1454 34.1512C12.3061 32.6974 11.3158 31.5692 10.4313 30.9076C9.98758 30.5756 9.61052 30.391 9.32611 30.3168C9.04754 30.2441 8.93113 30.2925 8.89351 30.3142C8.8559 30.336 8.75578 30.4126 8.67944 30.6902C8.6015 30.9736 8.57279 31.3924 8.63842 31.9427ZM6.75104 30.1598C6.92108 29.5415 7.27018 28.9421 7.89351 28.5822C8.51684 28.2223 9.21054 28.2197 9.83101 28.3816C10.4456 28.542 11.0565 28.8775 11.6294 29.3061C12.7783 30.1656 13.936 31.5205 14.8774 33.1512C15.8189 34.7819 16.4134 36.4619 16.5833 37.8866C16.6681 38.597 16.6532 39.2938 16.4848 39.9063C16.3148 40.5246 15.9657 41.124 15.3423 41.4839C14.719 41.8438 14.0253 41.8464 13.4048 41.6845C12.7902 41.5242 12.1793 41.1886 11.6064 40.76C10.4576 39.9005 9.29988 38.5456 8.35839 36.9149C7.4169 35.2842 6.82241 33.6042 6.65249 32.1795C6.56776 31.4691 6.5826 30.7723 6.75104 30.1598Z" fill="#333333"/>
<path fill-rule="evenodd" clip-rule="evenodd" d="M7.89351 28.5822L11.0847 26.7397C11.7081 26.3799 12.4018 26.3773 13.0222 26.5391C13.6369 26.6995 14.2478 27.0351 14.8206 27.4637C15.9695 28.3232 17.1272 29.678 18.0687 31.3087C19.0102 32.9394 19.6046 34.6194 19.7746 36.0441C19.8593 36.7545 19.8445 37.4514 19.676 38.0638C19.506 38.6821 19.1569 39.2816 18.5336 39.6415L15.3423 41.4839L14.3423 39.7519L17.5336 37.9094C17.5712 37.8877 17.6713 37.8111 17.7476 37.5335C17.8256 37.2501 17.8543 36.8313 17.7886 36.281C17.6578 35.1842 17.1759 33.7624 16.3366 32.3087C15.4973 30.855 14.507 29.7268 13.6226 29.0651C13.1788 28.7331 12.8017 28.5486 12.5173 28.4744C12.2388 28.4017 12.1224 28.4501 12.0847 28.4718L8.89351 30.3142L7.89351 28.5822Z" fill="#333333"/>
</svg>
