<svg width="48" height="48" viewBox="0 0 48 48" fill="none" xmlns="http://www.w3.org/2000/svg">
<rect width="48" height="48" fill="white"/>
<path fill-rule="evenodd" clip-rule="evenodd" d="M14.5557 19.4092L19.9091 14.0557L34.0403 28.1872C35.5186 29.6656 35.5186 32.0624 34.0403 33.5408C32.562 35.0191 30.1652 35.0191 28.6869 33.5408L26.824 31.6778C26.7047 32.457 26.5256 33.2238 26.2891 33.9713L27.2727 34.955C29.532 37.2144 33.1952 37.2144 35.4545 34.955C37.7138 32.6956 37.7138 29.0324 35.4545 26.773L19.9091 11.2272L11.7273 19.4092L14.3181 22H17.1464L14.5557 19.4092Z" fill="#333333"/>
<path fill-rule="evenodd" clip-rule="evenodd" d="M12.5455 9.96394L10.4649 12.0447L15.0001 16.58L17.0808 14.4993L12.5455 9.96394ZM7.63647 12.0447L15.0001 19.4085L19.9092 14.4993L12.5455 7.13548L7.63647 12.0447Z" fill="#333333"/>
<path d="M6.81818 14.5002C6.36631 14.0483 6.36631 13.3157 6.81818 12.8638L13.3636 6.31822C13.8155 5.86634 14.5481 5.86634 15 6.31822C15.4518 6.7701 15.4518 7.50274 15 7.95462L8.45454 14.5002C8.00267 14.9521 7.27005 14.9521 6.81818 14.5002Z" fill="#333333"/>
<path fill-rule="evenodd" clip-rule="evenodd" d="M6.81818 12.8638C6.36631 13.3157 6.36631 14.0483 6.81818 14.5002C7.27005 14.9521 8.00267 14.9521 8.45454 14.5002L15 7.95462C15.4518 7.50274 15.4518 6.7701 15 6.31822C14.5481 5.86634 13.8155 5.86634 13.3636 6.31822L6.81818 12.8638Z" fill="#333333"/>
<path d="M36.7735 37.9098C36.3217 37.4579 36.3217 36.7253 36.7735 36.2734C37.2254 35.8215 37.958 35.8215 38.4099 36.2734L41.1818 39.0454C41.6337 39.4973 41.6337 40.23 41.1818 40.6818C40.73 41.1337 39.9974 41.1337 39.5455 40.6818L36.7735 37.9098Z" fill="#333333"/>
<path fill-rule="evenodd" clip-rule="evenodd" d="M36.7735 36.2734C36.3217 36.7253 36.3217 37.4579 36.7735 37.9098L39.5455 40.6818C39.9974 41.1337 40.73 41.1337 41.1818 40.6818C41.6337 40.23 41.6337 39.4973 41.1818 39.0454L38.4099 36.2734C37.958 35.8215 37.2254 35.8215 36.7735 36.2734Z" fill="#333333"/>
<path fill-rule="evenodd" clip-rule="evenodd" d="M35.4544 34.5106L35.01 34.9549L36.0504 35.9953C36.1731 36.118 36.372 36.118 36.4947 35.9953C36.6174 35.8726 36.6174 35.6737 36.4947 35.551L35.4544 34.5106ZM32.1816 34.9549L34.6362 37.4095C35.5399 38.3133 37.0052 38.3133 37.9089 37.4095C38.8126 36.5058 38.8126 35.0405 37.9089 34.1367L35.4544 31.6821L32.1816 34.9549Z" fill="#333333"/>
<path d="M25.1328 32.8142L33.156 24.7909L34.7923 26.4273L26.7692 34.4506L25.1328 32.8142Z" fill="#333333"/>
<path fill-rule="evenodd" clip-rule="evenodd" d="M25.1328 32.8142L26.7692 34.4506L34.7923 26.4273L33.156 24.7909L25.1328 32.8142Z" fill="#333333"/>
<path d="M10.0909 22.6811C9.63902 22.2293 9.63902 21.4966 10.0909 21.0447L21.5454 9.58995C21.9973 9.13808 22.7299 9.13807 23.1818 9.58995C23.6336 10.0418 23.6336 10.7745 23.1818 11.2264L11.7272 22.6811C11.2754 23.133 10.5428 23.133 10.0909 22.6811Z" fill="#333333"/>
<path fill-rule="evenodd" clip-rule="evenodd" d="M10.0909 21.0447C9.63902 21.4966 9.63902 22.2293 10.0909 22.6811C10.5428 23.133 11.2754 23.133 11.7272 22.6811L23.1818 11.2264C23.6336 10.7745 23.6336 10.0418 23.1818 9.58995C22.7299 9.13807 21.9973 9.13808 21.5454 9.58995L10.0909 21.0447Z" fill="#333333"/>
<path fill-rule="evenodd" clip-rule="evenodd" d="M23 30.0027L23 29.9984L23 26.3997C23 26.2869 22.9554 26.1829 22.8828 26.1096C22.811 26.0369 22.718 26 22.6256 26H8.37441C8.282 26 8.18904 26.0369 8.11716 26.1096C8.04456 26.1829 8.00003 26.2869 8.00003 26.3997V30.0027C7.99493 32.3475 8.78229 34.6211 10.2279 36.4476C11.5784 38.1539 13.427 39.3736 15.4993 39.9395C17.5719 39.3738 19.4208 38.1542 20.7716 36.4479C22.2174 34.6214 23.005 32.3476 23 30.0027ZM15.4992 42C12.8 41.3922 10.3871 39.8713 8.65965 37.6888C6.93225 35.5063 5.99395 32.7932 6.00003 29.9984V26.3997C6.00003 25.7633 6.25019 25.1529 6.69547 24.7029C7.14076 24.2528 7.74469 24 8.37441 24H22.6256C23.2553 24 23.8592 24.2528 24.3045 24.7029C24.7498 25.1529 25 25.7633 25 26.3997V29.9984C25.006 32.7934 24.0674 35.5067 22.3397 37.6892C20.612 39.8717 18.1987 41.3926 15.4992 42Z" fill="#333333"/>
<path fill-rule="evenodd" clip-rule="evenodd" d="M16 28C16.5523 28 17 28.4477 17 29V35C17 35.5523 16.5523 36 16 36C15.4477 36 15 35.5523 15 35V29C15 28.4477 15.4477 28 16 28Z" fill="#333333"/>
<path fill-rule="evenodd" clip-rule="evenodd" d="M12 32C12 31.4477 12.4477 31 13 31H19C19.5523 31 20 31.4477 20 32C20 32.5523 19.5523 33 19 33H13C12.4477 33 12 32.5523 12 32Z" fill="#333333"/>
</svg>
