<svg width="48" height="48" viewBox="0 0 48 48" fill="none" xmlns="http://www.w3.org/2000/svg">
<path fill-rule="evenodd" clip-rule="evenodd" d="M17.5076 22.8165C15.9949 22.9052 14.6531 23.8448 14.0583 25.2531L9.33122 36.4438C8.2173 39.0808 10.1533 42.0002 13.016 42.0002H34.9841C37.8468 42.0002 39.7828 39.0808 38.6689 36.4438L33.9418 25.2531C33.3469 23.8447 32.0052 22.9052 30.4925 22.8165C30.4589 23.5155 30.315 24.1855 30.0777 24.8096H30.2571C31.0609 24.8096 31.7867 25.2908 32.0995 26.0313L36.8265 37.222C37.3835 38.5405 36.4155 40.0002 34.9841 40.0002H13.016C11.5846 40.0002 10.6166 38.5405 11.1736 37.222L15.9006 26.0313C16.2134 25.2908 16.9392 24.8096 17.743 24.8096H17.9223C17.685 24.1855 17.5411 23.5155 17.5076 22.8165Z" fill="#333333"/>
<path fill-rule="evenodd" clip-rule="evenodd" d="M20.8189 30C19.4188 30 18.1535 30.8344 17.6019 32.1212L15.1213 37.9091C14.795 38.6705 15.1477 39.5524 15.9091 39.8787C16.4583 40.1141 17.0719 39.9971 17.4947 39.6235C17.823 39.3336 18.3018 39.291 18.6761 39.5185C18.8656 39.6336 19.0059 39.8043 19.0846 40H28.9155C28.9941 39.8044 29.1345 39.6337 29.3239 39.5185C29.6982 39.291 30.177 39.3336 30.5053 39.6236C30.9281 39.9971 31.5417 40.1141 32.0908 39.8787C32.8523 39.5524 33.205 38.6705 32.8787 37.9091L30.398 32.1212C29.8465 30.8344 28.5811 30 27.181 30H20.8189ZM30.5135 41.8581C31.2668 42.0798 32.0995 42.051 32.8787 41.717C34.6554 40.9555 35.4784 38.8979 34.7169 37.1212L32.2363 31.3334C31.3696 29.3112 29.3812 28 27.181 28H20.8189C18.6188 28 16.6304 29.3112 15.7637 31.3334L13.283 37.1212C12.5216 38.8979 13.3446 40.9555 15.1213 41.717C15.9005 42.051 16.7332 42.0798 17.4865 41.8581C17.6398 41.9498 17.8169 42 18 42H30C30.1832 42 30.3602 41.9498 30.5135 41.8581Z" fill="#333333"/>
<path fill-rule="evenodd" clip-rule="evenodd" d="M20.8714 34.0715C21.3842 34.2766 21.6336 34.8586 21.4285 35.3714L19.0571 41.2999L17.2001 40.5571L19.5715 34.6286C19.7766 34.1158 20.3586 33.8664 20.8714 34.0715Z" fill="#333333"/>
<path fill-rule="evenodd" clip-rule="evenodd" d="M27.1286 34.0715C26.6158 34.2766 26.3664 34.8586 26.5715 35.3714L28.9429 41.2999L30.7999 40.5571L28.4285 34.6286C28.2234 34.1158 27.6414 33.8664 27.1286 34.0715Z" fill="#333333"/>
<path fill-rule="evenodd" clip-rule="evenodd" d="M24 19C22.3431 19 21 20.3431 21 22C21 23.6569 22.3431 25 24 25C25.6569 25 27 23.6569 27 22C27 20.3431 25.6569 19 24 19ZM19 22C19 19.2386 21.2386 17 24 17C26.7614 17 29 19.2386 29 22C29 24.7614 26.7614 27 24 27C21.2386 27 19 24.7614 19 22Z" fill="#333333"/>
<path fill-rule="evenodd" clip-rule="evenodd" d="M38.2141 31.3529C39.3553 29.1513 40 26.6509 40 24C40 15.1634 32.8366 8 24 8C15.1634 8 8 15.1634 8 24C8 26.651 8.6447 29.1513 9.78587 31.3529L8.73034 33.5354C7.00013 30.7706 6 27.5021 6 24C6 14.0589 14.0589 6 24 6C33.9411 6 42 14.0589 42 24C42 27.5021 40.9999 30.7706 39.2697 33.5354L38.2141 31.3529ZM24 15C19.5817 15 16 18.5817 16 23C16 23.6906 16.0875 24.3608 16.252 25H16C15.2862 25 14.7024 25.0111 14.2153 25.0738C14.0742 24.4048 14 23.711 14 23C14 17.4772 18.4772 13 24 13C29.5228 13 34 17.4772 34 23C34 23.7301 33.9218 24.442 33.7732 25.1276C33.1975 25.0275 32.525 25.0041 31.7478 25.0005C31.9124 24.3611 32 23.6908 32 23C32 18.5817 28.4183 15 24 15Z" fill="#333333"/>
<path fill-rule="evenodd" clip-rule="evenodd" d="M23.9747 11.5003C22.3989 11.4892 20.8363 11.7886 19.3762 12.3814L18.6238 10.5283C20.3273 9.83673 22.1503 9.48742 23.9888 9.50035C25.8272 9.51327 27.6451 9.88819 29.3387 10.6037L28.5604 12.446C27.1087 11.8327 25.5505 11.5114 23.9747 11.5003Z" fill="#333333"/>
</svg>
