<svg width="48" height="48" viewBox="0 0 48 48" fill="none" xmlns="http://www.w3.org/2000/svg">
<path fill-rule="evenodd" clip-rule="evenodd" d="M21.013 29.511C21.1146 30.2168 20.8327 30.9234 20.2731 31.3653C18.8763 32.4685 17.9864 34.1711 17.9879 36.0823C17.9907 39.396 20.6791 42.0801 23.9929 42.0774C27.3066 42.0747 29.9906 39.3862 29.9879 36.0725C29.9864 34.1613 29.0936 32.4601 27.6951 31.3593C27.1348 30.9182 26.8517 30.2121 26.9521 29.5061C26.9719 29.3663 26.9823 29.2225 26.9822 29.075L26.9658 9.07497C26.9645 7.41812 25.6202 6.07607 23.9634 6.07743C22.3065 6.07879 20.9645 7.42303 20.9658 9.07989L20.9822 29.0799C20.9823 29.2274 20.9929 29.3712 21.013 29.511ZM18.9658 9.08153C18.9636 6.3201 21.2003 4.07969 23.9617 4.07743C26.7232 4.07517 28.9636 6.31191 28.9658 9.07334L28.9822 29.0733C28.9824 29.3159 28.9653 29.5544 28.9321 29.7877C30.7913 31.2512 31.9858 33.5212 31.9879 36.0709C31.9916 40.4891 28.4128 44.0738 23.9945 44.0774C19.5762 44.081 15.9916 40.5023 15.9879 36.084C15.9859 33.5343 17.1767 31.2623 19.0334 29.7958C18.9999 29.5626 18.9824 29.3241 18.9822 29.0815L18.9658 9.08153Z" fill="#333333"/>
<path d="M23.9674 11.0774C23.967 10.5251 24.4143 10.077 24.9666 10.0766L26.9666 10.0749L26.9683 12.0749L24.9683 12.0766C24.416 12.077 23.9679 11.6297 23.9674 11.0774Z" fill="#333333"/>
<path d="M23.9707 15.0774C23.9703 14.5251 24.4176 14.077 24.9699 14.0766L26.9699 14.0749L26.9715 16.0749L24.9715 16.0766C24.4193 16.077 23.9712 15.6297 23.9707 15.0774Z" fill="#333333"/>
<path d="M23.974 19.0774C23.9736 18.5251 24.4209 18.077 24.9732 18.0766L26.9732 18.0749L26.9748 20.0749L24.9748 20.0766C24.4226 20.077 23.9745 19.6297 23.974 19.0774Z" fill="#333333"/>
<path fill-rule="evenodd" clip-rule="evenodd" d="M19.2908 30.3741L29.299 40.3658L30.712 38.9504L20.7038 28.9587L19.2908 30.3741Z" fill="#333333"/>
<path fill-rule="evenodd" clip-rule="evenodd" d="M19.2875 26.3742L30.2965 37.3651L31.7096 35.9497L20.7006 24.9588L19.2875 26.3742Z" fill="#333333"/>
<path fill-rule="evenodd" clip-rule="evenodd" d="M20.6997 23.7872L27.205 30.2818L28.6181 28.8665L22.1128 22.3718L20.6997 23.7872Z" fill="#333333"/>
<path fill-rule="evenodd" clip-rule="evenodd" d="M24.6999 23.784L27.2019 26.2818L28.6149 24.8665L26.113 22.3686L24.6999 23.784Z" fill="#333333"/>
<path fill-rule="evenodd" clip-rule="evenodd" d="M19.9764 22.0808L27.9765 22.0742L27.9781 24.0742L19.978 24.0808L19.9764 22.0808Z" fill="#333333"/>
<path fill-rule="evenodd" clip-rule="evenodd" d="M18.0001 33.0823L28.0083 43.0741L29.4214 41.6587L19.4132 31.6669L18.0001 33.0823Z" fill="#333333"/>
<path fill-rule="evenodd" clip-rule="evenodd" d="M16.7094 35.7906L24.716 43.784L26.129 42.3686L18.1224 34.3752L16.7094 35.7906Z" fill="#333333"/>
</svg>
