<svg width="48" height="48" viewBox="0 0 48 48" fill="none" xmlns="http://www.w3.org/2000/svg">
<path fill-rule="evenodd" clip-rule="evenodd" d="M26 28.581V25H29V25.4424C29.0834 25.3486 29.1953 25.2198 29.3272 25.0609C29.6401 24.684 30.0564 24.1486 30.4696 23.5174C31.3453 22.1801 32 20.7231 32 19.5296V7.64258H10V19.5296C10 20.7231 10.6547 22.1801 11.5304 23.5174C11.9436 24.1486 12.3599 24.684 12.6728 25.0609C12.8047 25.2198 12.9166 25.3486 13 25.4424V25H16V28.581L16.4016 29H11.7143C10.7675 29 10 29.7675 10 30.7143V32.1894C10.2142 32.3136 10.4284 32.4238 10.6426 32.5198C12.7723 33.4748 14.9019 33.0396 17.0316 31.2142C19.8279 33.6111 22.6242 33.6111 25.4205 31.2142C27.5502 33.0403 29.6798 33.4746 31.8095 32.5195C31.873 32.4911 31.9365 32.4613 32 32.4304V30.7143C32 29.7675 31.2325 29 30.2857 29H25.5984L26 28.581ZM29 40.2024V41.9999H31V40.0763C32.7252 39.6323 34 38.0662 34 36.2023V33.0119H35.5059C36.0582 33.0119 36.5059 33.4596 36.5059 34.0119V35.7084H41V34.5178C41 31.5807 38.8896 29.1365 36.1025 28.6189H39.2024V26.6189H34.7083V28.5178H33.2813C33.0323 28.1789 32.7272 27.8837 32.3797 27.6461C31.7835 27.2384 31.0625 27 30.2857 27C30.2857 27 30.969 26.2871 31.7494 25.1892C32.7886 23.7273 34 21.5828 34 19.5296V5.64258H8V19.5296C8 21.5828 9.2114 23.7273 10.2506 25.1892C11.031 26.2871 11.7143 27 11.7143 27C10.9375 27 10.2165 27.2384 9.62029 27.6461C8.64201 28.3151 8 29.4397 8 30.7143V36.2023C8 38.0662 9.27477 39.6323 11 40.0763V41.9999H13V40.2024H29ZM29.8262 38.2023C30.9231 38.1933 31.8095 37.3014 31.8095 36.2024V34.6602C31.1028 34.8886 30.3709 35.0117 29.6153 35.0118C28.1203 35.0121 26.7177 34.5308 25.4204 33.7038C24.1233 34.5305 22.7209 35.0119 21.2261 35.0119C19.7312 35.0119 18.3287 34.5304 17.0316 33.7037C15.7345 34.5304 14.332 35.0119 12.8371 35.0119C12.0815 35.0119 11.3494 34.8888 10.6426 34.6604V36.2024C10.6426 37.3014 11.529 38.1933 12.6259 38.2023H29.8262ZM20 25V29H18V25H20ZM24 29V25H22V29H24ZM39.5 42C40.3284 42 41 41.186 41 40.1818C41 38.5909 39.5 37 39.5 37C39.5 37 38 38.5909 38 40.1818C38 41.186 38.6716 42 39.5 42Z" fill="#333333"/>
<path fill-rule="evenodd" clip-rule="evenodd" d="M32.7043 16.4789C23.3877 18.4234 18.1044 18.3575 8.80218 16.4802L9.19782 14.5198C18.2494 16.3465 23.2587 16.4072 32.2957 14.5211L32.7043 16.4789Z" fill="#333333"/>
<path fill-rule="evenodd" clip-rule="evenodd" d="M30.5 25.5H11V23.5H30.5V25.5Z" fill="#333333"/>
</svg>
