<svg width="48" height="48" viewBox="0 0 48 48" fill="none" xmlns="http://www.w3.org/2000/svg">
<path d="M16 40.5C16 41.3284 15.3284 42 14.5 42C13.6716 42 13 41.3284 13 40.5C13 39.6716 13.6716 39 14.5 39C15.3284 39 16 39.6716 16 40.5Z" fill="#333333"/>
<path d="M35 40.5C35 41.3284 34.3284 42 33.5 42C32.6716 42 32 41.3284 32 40.5C32 39.6716 32.6716 39 33.5 39C34.3284 39 35 39.6716 35 40.5Z" fill="#333333"/>
<path fill-rule="evenodd" clip-rule="evenodd" d="M38 38H10V36H38V38Z" fill="#333333"/>
<path fill-rule="evenodd" clip-rule="evenodd" d="M31 8H17V18H31V8ZM15 6V20H33V6H15Z" fill="#333333"/>
<path fill-rule="evenodd" clip-rule="evenodd" d="M20 31.8293V36H22V32H21C20.6494 32 20.3128 31.9398 20 31.8293ZM20 25.1707C20.3128 25.0602 20.6494 25 21 25H22V19H20V25.1707ZM26 32V36H28V31.8293C27.6872 31.9398 27.3506 32 27 32H26ZM28 25.1707C27.6872 25.0602 27.3506 25 27 25H26V19H28V25.1707Z" fill="#333333"/>
<path fill-rule="evenodd" clip-rule="evenodd" d="M24.6835 9.20703L26.9351 13.2444L28.4562 11.4285H31V13.4285H29.3899L26.6032 16.7554L24.3933 12.7928L23.2099 14.2856H16.4388V12.2856H22.2431L24.6835 9.20703Z" fill="#333333"/>
<path fill-rule="evenodd" clip-rule="evenodd" d="M8.5 30.5V21H10.5V30.5C10.5 31.0171 10.6663 31.3146 10.8321 31.4804C11.0073 31.6556 11.2474 31.75 11.5 31.75C11.7527 31.75 11.9927 31.6556 12.1679 31.4804C12.3337 31.3146 12.5 31.0171 12.5 30.5C12.5 28.7527 13.1018 27.522 14.1953 26.793C15.2035 26.1208 16.4584 26 17.5 26H19.9997L20 28H17.5C16.5416 28 15.7965 28.1292 15.3047 28.457C14.8983 28.728 14.5 29.2473 14.5 30.5C14.5 31.4829 14.1663 32.3104 13.5821 32.8946C13.0073 33.4694 12.2474 33.75 11.5 33.75C10.7527 33.75 9.99272 33.4694 9.41792 32.8946C8.83371 32.3104 8.50001 31.4829 8.5 30.5Z" fill="#333333"/>
<path fill-rule="evenodd" clip-rule="evenodd" d="M18 26C18 24.3431 19.3431 23 21 23H27C28.6569 23 30 24.3431 30 26V28C30 29.6569 28.6569 31 27 31H21C19.3431 31 18 29.6569 18 28V26ZM27 27C27 27.5523 26.5523 28 26 28C25.4477 28 25 27.5523 25 27C25 26.4477 25.4477 26 26 26C26.5523 26 27 26.4477 27 27ZM22 28C22.5523 28 23 27.5523 23 27C23 26.4477 22.5523 26 22 26C21.4477 26 21 26.4477 21 27C21 27.5523 21.4477 28 22 28Z" fill="#333333"/>
<path fill-rule="evenodd" clip-rule="evenodd" d="M39.5 29.7022V18H37.5V29.7021C37.5 30.063 37.3348 30.3473 36.9661 30.5842C36.5688 30.8396 35.9743 31 35.3214 31C34.6685 31 34.074 30.8396 33.6767 30.5843C33.308 30.3473 33.1428 30.0631 33.1428 29.7021C33.1428 28.7953 32.9467 28.0378 32.5395 27.4427C32.127 26.8397 31.5641 26.5002 31.0112 26.3168C30.474 26.1386 29.9296 26.1013 29.4962 26.0991C29.276 26.098 29.0701 26.1061 28.8996 26.1136C28.8752 26.1147 28.8518 26.1157 28.8295 26.1167C28.6851 26.1231 28.5837 26.1277 28.5 26.1277V28.1277C28.6325 28.1277 28.7858 28.1207 28.9238 28.1145C28.9455 28.1135 28.9668 28.1126 28.9876 28.1116C29.1531 28.1044 29.3177 28.0982 29.4859 28.0991C29.8293 28.1008 30.1331 28.1327 30.3815 28.2151C30.6143 28.2923 30.7746 28.405 30.8889 28.572C31.0085 28.7468 31.1428 29.0771 31.1428 29.7021C31.1428 30.8731 31.7722 31.7378 32.5955 32.2668C33.3902 32.7775 34.385 33 35.3214 33C36.2578 33 37.2526 32.7775 38.0473 32.2668C38.8705 31.7378 39.5 30.8731 39.5 29.7022Z" fill="#333333"/>
<path fill-rule="evenodd" clip-rule="evenodd" d="M40 15.5V11.5C40 10.6716 39.3284 10 38.5 10C37.6716 10 37 10.6716 37 11.5V15.5C37 16.3284 37.6716 17 38.5 17C39.3284 17 40 16.3284 40 15.5ZM38.5 8C36.567 8 35 9.567 35 11.5V15.5C35 17.433 36.567 19 38.5 19C40.433 19 42 17.433 42 15.5V11.5C42 9.567 40.433 8 38.5 8Z" fill="#333333"/>
<path fill-rule="evenodd" clip-rule="evenodd" d="M11 19.5V15.5C11 14.6716 10.3284 14 9.5 14C8.67157 14 8 14.6716 8 15.5V19.5C8 20.3284 8.67157 21 9.5 21C10.3284 21 11 20.3284 11 19.5ZM9.5 12C7.567 12 6 13.567 6 15.5V19.5C6 21.433 7.567 23 9.5 23C11.433 23 13 21.433 13 19.5V15.5C13 13.567 11.433 12 9.5 12Z" fill="#333333"/>
<path fill-rule="evenodd" clip-rule="evenodd" d="M11.5 19.5H7.5V17.5H11.5V19.5Z" fill="#333333"/>
</svg>
