<svg width="48" height="48" viewBox="0 0 48 48" fill="none" xmlns="http://www.w3.org/2000/svg">
<path fill-rule="evenodd" clip-rule="evenodd" d="M24 12C25.6569 12 27 10.6569 27 9C27 7.34315 25.6569 6 24 6C22.3431 6 21 7.34315 21 9C21 10.6569 22.3431 12 24 12ZM24 14C26.7614 14 29 11.7614 29 9C29 6.23858 26.7614 4 24 4C21.2386 4 19 6.23858 19 9C19 11.7614 21.2386 14 24 14Z" fill="#333333"/>
<path fill-rule="evenodd" clip-rule="evenodd" d="M16.9998 34V41C16.9998 42.6569 18.3429 44 19.9998 44H20.0865C21.4549 44 22.6242 43.0798 22.9776 41.8025C23.0101 41.6851 23.0357 41.5647 23.0539 41.4417C23.0622 41.3856 23.069 41.3288 23.0742 41.2716L23.7353 34H21.727L21.0824 41.0905C21.0356 41.6056 20.6037 42 20.0865 42H19.9998C19.4475 42 18.9998 41.5523 18.9998 41V34H16.9998ZM26.2725 34L26.9171 41.0905C26.9639 41.6056 27.3958 42 27.913 42H27.9998C28.552 42 28.9998 41.5523 28.9998 41V34H30.9998V41C30.9998 42.6569 29.6566 44 27.9998 44H27.913C26.5446 44 25.3753 43.0798 25.0219 41.8025C24.9894 41.6851 24.9638 41.5647 24.9456 41.4417C24.9373 41.3856 24.9305 41.3288 24.9253 41.2716L24.2642 34H26.2725Z" fill="#333333"/>
<path fill-rule="evenodd" clip-rule="evenodd" d="M12 17V30H36V17H12ZM11 15C10.4477 15 10 15.4477 10 16V31C10 31.5523 10.4477 32 11 32H37C37.5523 32 38 31.5523 38 31V16C38 15.4477 37.5523 15 37 15H11Z" fill="#333333"/>
<path fill-rule="evenodd" clip-rule="evenodd" d="M23 26.6678V17H25V26.6391C25.6989 26.8257 26.3675 27.1785 26.9007 27.5663C27.3054 27.8606 27.6803 28.2092 27.9641 28.5875C28.2324 28.9452 28.5 29.4379 28.5 30H26.5C26.5 30.0145 26.5005 30.0219 26.5005 30.0219C26.5005 30.0219 26.4818 29.9445 26.3641 29.7875C26.2259 29.6033 26.0071 29.3894 25.7243 29.1837C25.1478 28.7645 24.4937 28.5117 24.032 28.5004C23.4877 28.5464 22.8052 28.8252 22.2449 29.227C21.9657 29.4272 21.7556 29.6307 21.6252 29.8038C21.5159 29.949 21.4994 30.0204 21.4994 30.0204C21.4994 30.0204 21.5 30.0135 21.5 30H19.5C19.5 29.4424 19.7591 28.9572 20.0276 28.6006C20.3086 28.2276 20.6796 27.8883 21.0794 27.6016C21.6252 27.2103 22.2986 26.865 23 26.6678Z" fill="#333333"/>
<path fill-rule="evenodd" clip-rule="evenodd" d="M18.5531 19.6054C18.5531 19.6054 18.5528 19.6056 19 20.5C19.4472 21.3944 19.447 21.3945 19.447 21.3945L19.4487 21.3937L19.4613 21.3875C19.4732 21.3817 19.4922 21.3725 19.5176 21.3605C19.5685 21.3363 19.6449 21.3007 19.7421 21.2576C19.937 21.1709 20.212 21.0552 20.5292 20.9398C21.1909 20.6992 21.9309 20.5 22.5 20.5H25.75C26.4443 20.5 27.1193 20.7011 27.6432 20.9216C27.9003 21.0299 28.1092 21.1378 28.2509 21.2169C28.3215 21.2564 28.3747 21.2882 28.408 21.3087C28.4247 21.3189 28.4363 21.3263 28.4427 21.3304L28.4477 21.3337L28.4468 21.333L28.4457 21.3323C28.4457 21.3323 28.4453 21.3321 29 20.5C29.5547 19.6679 29.5542 19.6676 29.5542 19.6676L29.5527 19.6666L29.5501 19.6649L29.5432 19.6604L29.5228 19.6472C29.5063 19.6366 29.484 19.6225 29.4562 19.6054C29.4007 19.5712 29.323 19.5249 29.2256 19.4706C29.0315 19.3622 28.7559 19.2201 28.4193 19.0784C27.7557 18.7989 26.8057 18.5 25.75 18.5H22.5C21.5691 18.5 20.5591 18.8008 19.8458 19.0602C19.4755 19.1948 19.1567 19.3291 18.9298 19.4299C18.816 19.4805 18.7245 19.5231 18.6601 19.5536C18.6279 19.5689 18.6025 19.5812 18.5844 19.59L18.5629 19.6006L18.5564 19.6038L18.5531 19.6054Z" fill="#333333"/>
<path fill-rule="evenodd" clip-rule="evenodd" d="M17.3601 24.7315C17.3601 24.7315 17.3598 24.7318 18 25.5C18.6402 26.2682 18.6399 26.2684 18.6399 26.2684L18.6426 26.2663L18.6582 26.2535C18.673 26.2415 18.6961 26.2228 18.727 26.1984C18.7888 26.1495 18.8812 26.0778 18.9984 25.9911C19.2337 25.8167 19.5638 25.5852 19.9433 25.3552C20.7535 24.8642 21.5973 24.5 22.2 24.5H26.1C26.8489 24.5 27.6186 24.8663 28.2631 25.3186C28.5735 25.5364 28.8285 25.7556 29.0048 25.9197C29.0925 26.0012 29.1594 26.0679 29.2026 26.1122C29.2241 26.1343 29.2397 26.1507 29.2488 26.1605L29.2574 26.1697C29.2574 26.1697 29.2567 26.169 30 25.5C30.7433 24.831 30.7429 24.8306 30.7429 24.8306L30.7414 24.829L30.7389 24.8262L30.7318 24.8184L30.7097 24.7946C30.6915 24.7751 30.6663 24.7485 30.6346 24.716C30.5711 24.6509 30.4809 24.5613 30.367 24.4553C30.1403 24.2444 29.814 23.9636 29.4119 23.6814C28.6314 23.1337 27.4511 22.5 26.1 22.5H22.2C21.0027 22.5 19.7465 23.1358 18.9067 23.6448C18.4612 23.9148 18.0788 24.1833 17.8079 24.3839C17.6719 24.4847 17.5627 24.5693 17.4863 24.6297C17.448 24.66 17.4179 24.6843 17.3966 24.7016L17.3713 24.7223L17.3638 24.7285L17.3614 24.7305L17.3601 24.7315Z" fill="#333333"/>
</svg>
