<svg width="48" height="48" viewBox="0 0 48 48" fill="none" xmlns="http://www.w3.org/2000/svg">
<path fill-rule="evenodd" clip-rule="evenodd" d="M26.2893 25.6197L21.4789 28.1775C20.5036 28.696 20.1333 29.907 20.6519 30.8823L21.6232 32.7091L29.9655 28.2734L28.9942 26.4466C28.4756 25.4714 27.2646 25.1011 26.2893 25.6197ZM20.5399 26.4116C18.5894 27.4487 17.8489 29.8707 18.886 31.8212L20.7963 35.4139L32.6703 29.1003L30.7601 25.5077C29.7229 23.5571 27.3009 22.8167 25.3504 23.8538L20.5399 26.4116Z" fill="#333333"/>
<path fill-rule="evenodd" clip-rule="evenodd" d="M31.4075 26.7255L19.5334 33.0391L24.0282 44.3571L27.7739 42.3655L24.7287 36.3461L26.5133 35.4432L29.5401 41.4263L38.2771 36.7808L31.4075 26.7255Z" fill="#333333"/>
<path fill-rule="evenodd" clip-rule="evenodd" d="M22.5469 35.2085L27.3951 32.7558L30.4034 38.7022L35.3651 36.064L30.7658 29.3318L22.0529 33.9646L22.5469 35.2085ZM24.8659 41.0479L25.0622 41.5421L25.1046 41.5196L24.8659 41.0479ZM24.0282 44.3571L19.5334 33.0391L31.4075 26.7255L38.2771 36.7808L29.5401 41.4263L26.5133 35.4432L24.7287 36.3461L27.7739 42.3655L24.0282 44.3571Z" fill="#333333"/>
<path fill-rule="evenodd" clip-rule="evenodd" d="M23.4145 26.0156C22.9269 26.2749 22.3214 26.0897 22.0621 25.6021L11.3291 5.4162C11.0698 4.92856 11.2549 4.32307 11.7426 4.06378C12.2302 3.8045 12.8357 3.98962 13.095 4.47726L23.828 24.6632C24.0873 25.1508 23.9022 25.7563 23.4145 26.0156Z" fill="#333333"/>
<path fill-rule="evenodd" clip-rule="evenodd" d="M16.3603 35.2314C16.7846 34.8783 17.4148 34.9358 17.7682 35.3599C18.1218 35.7842 18.0645 36.4147 17.6402 36.7683L17 36.0001C17.6402 36.7683 17.6405 36.7681 17.6402 36.7683L17.639 36.7693L17.6375 36.7705L17.634 36.7735L17.6241 36.7815L17.5938 36.8058C17.5689 36.8256 17.5346 36.8523 17.4912 36.885C17.4045 36.9503 17.2811 37.0395 17.1235 37.1446C16.8086 37.3545 16.3544 37.6294 15.7799 37.9029C14.6334 38.4489 12.9856 39.0001 11 39.0001C10.4477 39.0001 10 38.5524 10 38.0001C10 37.4478 10.4477 37.0001 11 37.0001C12.6144 37.0001 13.9666 36.5513 14.9201 36.0972C15.3956 35.8708 15.7664 35.6456 16.0141 35.4805C16.1377 35.3981 16.2299 35.3311 16.2885 35.287C16.3177 35.265 16.3385 35.2488 16.3505 35.2392L16.3619 35.2301L16.3603 35.2314Z" fill="#333333"/>
<path fill-rule="evenodd" clip-rule="evenodd" d="M19.832 40.4454C20.1384 40.9049 20.0142 41.5258 19.5547 41.8321L19 41.0001C19.5547 41.8321 19.5549 41.832 19.5547 41.8321L19.5526 41.8335L19.5495 41.8356L19.5399 41.8419L19.5077 41.8628C19.4806 41.8803 19.4423 41.9047 19.3935 41.9351C19.296 41.9957 19.1564 42.0803 18.9805 42.1808C18.6295 42.3814 18.1304 42.6476 17.5311 42.9139C16.3502 43.4388 14.7016 44.0001 13 44.0001C12.4477 44.0001 12 43.5524 12 43.0001C12 42.4478 12.4477 42.0001 13 42.0001C14.2984 42.0001 15.6498 41.5614 16.7189 41.0863C17.2446 40.8526 17.683 40.6187 17.9882 40.4443C18.1405 40.3573 18.2587 40.2857 18.3369 40.2369C18.376 40.2126 18.4051 40.1941 18.4234 40.1822L18.4427 40.1697L18.4453 40.168C18.4454 40.1679 18.4452 40.1681 18.4453 40.168M19.832 40.4454C19.5258 39.986 18.9048 39.862 18.4453 40.168L19.832 40.4454Z" fill="#333333"/>
</svg>
