<svg width="48" height="48" viewBox="0 0 48 48" fill="none" xmlns="http://www.w3.org/2000/svg">
<path d="M21.1199 23.2178C21.1199 27.6361 17.762 31.2178 13.6199 31.2178C9.47774 31.2178 6.11987 27.6361 6.11987 23.2178C14.3891 23.218 12.6583 23.2178 21.1199 23.2178Z" fill="#333333"/>
<path fill-rule="evenodd" clip-rule="evenodd" d="M13.6199 29.2178C15.9361 29.2178 18.0407 27.603 18.8102 25.2178C16.8599 25.2178 15.6229 25.2178 14.573 25.2178C12.8201 25.2179 11.5886 25.2179 8.42957 25.2178C9.19907 27.603 11.3037 29.2178 13.6199 29.2178ZM6.35616 25.2178C6.20191 24.5785 6.11987 23.9084 6.11987 23.2178C6.86227 23.2178 7.52407 23.2178 8.11987 23.2178C11.5179 23.2179 12.7695 23.2179 14.5852 23.2178C15.687 23.2178 16.9967 23.2178 19.1199 23.2178C19.7176 23.2178 20.3797 23.2178 21.1199 23.2178L21.1199 23.2207C21.1196 23.9102 21.0376 24.5794 20.8836 25.2178C20.051 28.6682 17.1146 31.2178 13.6199 31.2178C10.1252 31.2178 7.18874 28.6682 6.35616 25.2178Z" fill="#333333"/>
<path d="M42 17C42 21.4183 38.6422 25 34.5 25C30.3579 25 27 21.4183 27 17C35.2693 17.0002 33.5385 17 42 17Z" fill="#333333"/>
<path fill-rule="evenodd" clip-rule="evenodd" d="M34.5 23C36.8163 23 38.9209 21.3852 39.6903 19C37.7401 19 36.5031 19 35.4532 19.0001C33.7002 19.0001 32.4688 19.0001 29.3097 19.0001C30.0792 21.3852 32.1838 23 34.5 23ZM27.2363 19C27.0821 18.3608 27 17.6906 27 17C27.7424 17 28.4042 17 29 17.0001C32.398 17.0001 33.6496 17.0001 35.4653 17.0001C36.5672 17 37.8768 17 40 17C40.5977 17 41.2599 17 42 17V17.0029C41.9998 17.6925 41.9178 18.3617 41.7637 19C40.9312 22.4505 37.9947 25 34.5 25C31.0053 25 28.0689 22.4505 27.2363 19Z" fill="#333333"/>
<path fill-rule="evenodd" clip-rule="evenodd" d="M23 39V6H25V39H23Z" fill="#333333"/>
<path d="M14 40H34V42H14V40Z" fill="#333333"/>
<path d="M20 38H28V40H20V38Z" fill="#333333"/>
<path fill-rule="evenodd" clip-rule="evenodd" d="M35.4659 9.74087C35.609 10.2743 35.2926 10.8227 34.7592 10.9658L15.5858 16.1099L20.3396 23.4567C20.6396 23.9204 20.507 24.5395 20.0433 24.8396C19.5796 25.1396 18.9605 25.0069 18.6605 24.5433L13.964 17.2851L8.817 24.5767C8.49851 25.0279 7.87455 25.1355 7.42335 24.817C6.97215 24.4985 6.86457 23.8745 7.18306 23.4233L13.1831 14.9233C13.3178 14.7324 13.5152 14.5947 13.7409 14.5342L34.2409 9.03416C34.7743 8.89104 35.3228 9.20745 35.4659 9.74087Z" fill="#333333"/>
<path fill-rule="evenodd" clip-rule="evenodd" d="M34.5219 9.00024C34.8588 9.0076 35.1694 9.1842 35.348 9.47L40.348 17.47L38.652 18.53L34.4602 11.8231L29.8241 18.5665L28.176 17.4335L33.676 9.43347C33.8669 9.15574 34.1849 8.99288 34.5219 9.00024Z" fill="#333333"/>
<path d="M27 13C27 14.6569 25.6569 16 24 16C22.3432 16 21 14.6569 21 13C21 11.3431 22.3432 10 24 10C25.6569 10 27 11.3431 27 13Z" fill="#333333"/>
</svg>
