<svg width="48" height="48" viewBox="0 0 48 48" fill="none" xmlns="http://www.w3.org/2000/svg">
<path fill-rule="evenodd" clip-rule="evenodd" d="M20.2933 6.29289C20.6838 5.90237 21.317 5.90237 21.7075 6.29289L27.7071 12.2925C28.0976 12.683 28.0976 13.3162 27.7071 13.7067C27.3166 14.0973 26.6834 14.0973 26.2929 13.7067L20.2933 7.70711C19.9027 7.31658 19.9027 6.68342 20.2933 6.29289Z" fill="#333333"/>
<path fill-rule="evenodd" clip-rule="evenodd" d="M27.707 6.29289C28.0975 6.68342 28.0975 7.31658 27.707 7.70711L21.7074 13.7067C21.3168 14.0973 20.6837 14.0973 20.2931 13.7067C19.9026 13.3162 19.9026 12.683 20.2931 12.2925L26.2928 6.29289C26.6833 5.90237 27.3165 5.90237 27.707 6.29289Z" fill="#333333"/>
<path fill-rule="evenodd" clip-rule="evenodd" d="M23 31.6401C22.0855 32.7454 20.5767 33.1878 19.1975 32.7281L11 29.9956V37.5L23 42.0231L23 31.6401Z" fill="#333333"/>
<path fill-rule="evenodd" clip-rule="evenodd" d="M37 37.5L25 42.0231V31.6401C25.9145 32.7454 27.4234 33.1878 28.8025 32.7281L37 29.9956V37.5ZM33.3162 35.4487C33.8402 35.274 34.1233 34.7077 33.9487 34.1838C33.774 33.6598 33.2077 33.3767 32.6838 33.5513L28.1838 35.0513C27.6598 35.226 27.3767 35.7923 27.5513 36.3162C27.726 36.8402 28.2923 37.1233 28.8162 36.9487L33.3162 35.4487Z" fill="#333333"/>
<path fill-rule="evenodd" clip-rule="evenodd" d="M23.6729 15.055C23.8848 14.9817 24.1152 14.9817 24.3271 15.055L37.3271 19.555C37.849 19.7357 38.1257 20.3052 37.945 20.8271C37.7643 21.349 37.1948 21.6256 36.6729 21.445L24 17.0582L11.3271 21.445C10.8052 21.6256 10.2357 21.349 10.055 20.8271C9.87437 20.3052 10.151 19.7357 10.6729 19.555L23.6729 15.055Z" fill="#333333"/>
<path d="M20.5 30L7.00001 25.5L11 20.5L24 25L20.5 30Z" fill="#333333"/>
<path fill-rule="evenodd" clip-rule="evenodd" d="M10.2191 19.8753C10.4835 19.5449 10.9272 19.4166 11.3271 19.555L24.3271 24.055C24.6235 24.1576 24.8546 24.3933 24.9513 24.6917C25.048 24.9901 24.9991 25.3165 24.8192 25.5735L21.3192 30.5735C21.0655 30.936 20.6036 31.0886 20.1838 30.9487L6.68378 26.4487C6.3736 26.3453 6.13356 26.0968 6.04096 25.7832C5.94836 25.4697 6.01489 25.1306 6.21914 24.8753L10.2191 19.8753ZM11.3399 21.6759L8.67677 25.0048L20.1086 28.8154L22.4212 25.5117L11.3399 21.6759Z" fill="#333333"/>
<path d="M27.5 30L41 25.5L37 20.5L24 25L27.5 30Z" fill="#333333"/>
<path fill-rule="evenodd" clip-rule="evenodd" d="M37.7809 19.8753C37.5165 19.5449 37.0728 19.4166 36.6729 19.555L23.6729 24.055C23.3765 24.1576 23.1454 24.3933 23.0487 24.6917C22.952 24.9901 23.0009 25.3165 23.1808 25.5735L26.6808 30.5735C26.9346 30.936 27.3964 31.0886 27.8162 30.9487L41.3162 26.4487C41.6264 26.3453 41.8665 26.0968 41.9591 25.7832C42.0517 25.4697 41.9851 25.1306 41.7809 24.8753L37.7809 19.8753ZM36.6601 21.6759L39.3232 25.0048L27.8915 28.8154L25.5789 25.5117L36.6601 21.6759Z" fill="#333333"/>
</svg>
