<svg width="48" height="48" viewBox="0 0 48 48" fill="none" xmlns="http://www.w3.org/2000/svg">
<mask id="path-1-inside-1" fill="white">
<path fill-rule="evenodd" clip-rule="evenodd" d="M7 42L7 6L9 6L9 42H7Z"/>
<path fill-rule="evenodd" clip-rule="evenodd" d="M17 11V7L19 7V11H17Z"/>
<path fill-rule="evenodd" clip-rule="evenodd" d="M25 7C25 7.55228 24.5523 8 24 8H12C11.4477 8 11 7.55228 11 7C11 6.44772 11.4477 6 12 6H24C24.5523 6 25 6.44772 25 7Z"/>
<path d="M12 11H25V24H12V11Z"/>
<path d="M28 30V24H42V30H28Z"/>
<path d="M6 12H10V23H6V12Z"/>
<path d="M27 21V11H30C35.5228 11 40 15.4772 40 21V24H30V23C30 21.8954 29.1046 21 28 21H27Z"/>
<path d="M39 38.3636C39 40.3719 37.433 42 35.5 42C33.567 42 32 40.3719 32 38.3636C32 35.1818 35.5 32 35.5 32C35.5 32 39 35.1818 39 38.3636Z"/>
</mask>
<path fill-rule="evenodd" clip-rule="evenodd" d="M7 42L7 6L9 6L9 42H7Z" fill="#333333"/>
<path fill-rule="evenodd" clip-rule="evenodd" d="M17 11V7L19 7V11H17Z" fill="#333333"/>
<path fill-rule="evenodd" clip-rule="evenodd" d="M25 7C25 7.55228 24.5523 8 24 8H12C11.4477 8 11 7.55228 11 7C11 6.44772 11.4477 6 12 6H24C24.5523 6 25 6.44772 25 7Z" fill="#333333"/>
<path d="M12 11H25V24H12V11Z" fill="#333333"/>
<path d="M28 30V24H42V30H28Z" fill="#333333"/>
<path d="M6 12H10V23H6V12Z" fill="#333333"/>
<path d="M27 21V11H30C35.5228 11 40 15.4772 40 21V24H30V23C30 21.8954 29.1046 21 28 21H27Z" fill="#333333"/>
<path d="M39 38.3636C39 40.3719 37.433 42 35.5 42C33.567 42 32 40.3719 32 38.3636C32 35.1818 35.5 32 35.5 32C35.5 32 39 35.1818 39 38.3636Z" fill="#333333"/>
<path d="M7 6L7 4H5L5 6L7 6ZM7 42H5L5 44H7V42ZM9 6L11 6V4H9V6ZM9 42V44H11L11 42H9ZM17 7V5L15 5V7H17ZM17 11H15V13H17V11ZM19 7H21V5L19 5V7ZM19 11V13H21V11H19ZM12 11V9H10V11H12ZM25 11H27V9H25V11ZM25 24V26H27V24H25ZM12 24H10V26H12V24ZM28 30H26V32H28V30ZM28 24V22H26V24H28ZM42 24H44V22H42V24ZM42 30V32H44V30H42ZM6 12V10H4V12H6ZM10 12H12V10H10V12ZM10 23V25H12V23H10ZM6 23H4V25H6V23ZM27 11V9H25V11H27ZM27 21H25V23H27V21ZM30 24H28V26H30V24ZM40 24V26H42V24H40ZM35.5 32L36.8453 30.5201L35.5 29.2971L34.1547 30.5201L35.5 32ZM5 6L5 42H9L9 6L5 6ZM9 4L7 4L7 8H9V4ZM11 42L11 6L7 6L7 42H11ZM7 44H9V40H7V44ZM15 7V11H19V7H15ZM19 5L17 5V9H19V5ZM21 11V7H17V11H21ZM17 13H19V9H17V13ZM24 10C25.6569 10 27 8.65685 27 7H23C23 6.44772 23.4477 6 24 6V10ZM12 10H24V6H12V10ZM9 7C9 8.65685 10.3431 10 12 10V6C12.5523 6 13 6.44772 13 7H9ZM12 4C10.3431 4 9 5.34315 9 7H13C13 7.55228 12.5523 8 12 8V4ZM24 4H12V8H24V4ZM27 7C27 5.34315 25.6569 4 24 4V8C23.4477 8 23 7.55228 23 7H27ZM12 13H25V9H12V13ZM23 11V24H27V11H23ZM25 22H12V26H25V22ZM14 24V11H10V24H14ZM30 30V24H26V30H30ZM28 26H42V22H28V26ZM40 24V30H44V24H40ZM42 28H28V32H42V28ZM6 14H10V10H6V14ZM8 12V23H12V12H8ZM10 21H6V25H10V21ZM8 23V12H4V23H8ZM25 11V21H29V11H25ZM27 23H28V19H27V23ZM28 23V24H32V23H28ZM30 26H40V22H30V26ZM42 24V21H38V24H42ZM30 9H27V13H30V9ZM42 21C42 14.3726 36.6274 9 30 9V13C34.4183 13 38 16.5817 38 21H42ZM28 23H32C32 20.7909 30.2091 19 28 19V23ZM37 38.3636C37 39.3401 36.2571 40 35.5 40V44C38.6089 44 41 41.4038 41 38.3636H37ZM35.5 40C34.7429 40 34 39.3401 34 38.3636H30C30 41.4038 32.3911 44 35.5 44V40ZM34 38.3636C34 37.4318 34.5524 36.2765 35.3628 35.1714C35.74 34.657 36.1212 34.2234 36.4083 33.9189C36.5508 33.7678 36.6674 33.6513 36.7451 33.5756C36.7839 33.5379 36.8127 33.5105 36.83 33.4942C36.8387 33.4861 36.8444 33.4808 36.8471 33.4783C36.8484 33.4771 36.8489 33.4766 36.8486 33.4769C36.8485 33.477 36.8481 33.4773 36.8476 33.4778C36.8473 33.4781 36.847 33.4784 36.8466 33.4787C36.8464 33.4789 36.8461 33.4792 36.846 33.4793C36.8457 33.4796 36.8453 33.4799 35.5 32C34.1547 30.5201 34.1543 30.5205 34.1539 30.5208C34.1537 30.5209 34.1533 30.5213 34.1531 30.5216C34.1525 30.5221 34.1518 30.5227 34.1511 30.5233C34.1497 30.5246 34.1481 30.5261 34.1463 30.5277C34.1427 30.5311 34.1382 30.5352 34.1329 30.5401C34.1222 30.5499 34.1083 30.5629 34.0913 30.5788C34.0574 30.6107 34.0111 30.6548 33.9541 30.7102C33.8404 30.821 33.6836 30.978 33.4979 31.1748C33.1288 31.5664 32.635 32.1271 32.1372 32.8059C31.1976 34.0872 30 36.1137 30 38.3636H34ZM35.5 32C34.1547 33.4799 34.1543 33.4796 34.154 33.4793C34.1539 33.4792 34.1536 33.4789 34.1534 33.4787C34.153 33.4784 34.1527 33.4781 34.1524 33.4778C34.1519 33.4773 34.1515 33.477 34.1514 33.4769C34.1511 33.4766 34.1516 33.4771 34.1529 33.4783C34.1556 33.4808 34.1613 33.4861 34.17 33.4942C34.1873 33.5105 34.2161 33.5379 34.2549 33.5756C34.3326 33.6513 34.4492 33.7678 34.5917 33.9189C34.8788 34.2234 35.26 34.657 35.6372 35.1714C36.4476 36.2765 37 37.4318 37 38.3636H41C41 36.1137 39.8024 34.0872 38.8628 32.8059C38.365 32.1271 37.8712 31.5664 37.5021 31.1748C37.3164 30.978 37.1596 30.821 37.0459 30.7102C36.9889 30.6548 36.9426 30.6107 36.9087 30.5788C36.8917 30.5629 36.8778 30.5499 36.8671 30.5401C36.8618 30.5352 36.8573 30.5311 36.8537 30.5277C36.8519 30.5261 36.8503 30.5246 36.8489 30.5233C36.8482 30.5227 36.8475 30.5221 36.8469 30.5216C36.8467 30.5213 36.8463 30.5209 36.8461 30.5208C36.8457 30.5205 36.8453 30.5201 35.5 32Z" fill="#333333" mask="url(#path-1-inside-1)"/>
</svg>
