<svg width="48" height="48" viewBox="0 0 48 48" fill="none" xmlns="http://www.w3.org/2000/svg">
<path fill-rule="evenodd" clip-rule="evenodd" d="M15.23 5.80745L19.0001 19.8683V36.7501L17.3467 39.8486L9.62842 11.0438L15.23 5.80745ZM11.8709 11.6853L17.0001 30.8279V20.1317L14.1613 9.54423L11.8709 11.6853Z" fill="#333333"/>
<path fill-rule="evenodd" clip-rule="evenodd" d="M24.0001 6.64833V38H17.0001V8.78977L24.0001 6.64833ZM19.0001 10.2694V36H22.0001V9.35167L19.0001 10.2694Z" fill="#333333"/>
<path fill-rule="evenodd" clip-rule="evenodd" d="M38.3442 4L34.8032 15.8031L27.5835 17.9691L31.2276 4L38.3442 4ZM32.7727 6L30.4169 15.031L33.197 14.1969L35.6561 6L32.7727 6Z" fill="#333333"/>
<path fill-rule="evenodd" clip-rule="evenodd" d="M37.3418 12.7784L29.0755 43.6288L22.7754 41.9407L30.093 14.6311L37.3418 12.7784ZM31.722 16.2791L25.2249 40.5265L27.6613 41.1793L34.5253 15.5626L31.722 16.2791Z" fill="#333333"/>
<path fill-rule="evenodd" clip-rule="evenodd" d="M30.0858 7.62947L27.9208 39.4989L21.4358 39.0584L23.3519 10.8518L30.0858 7.62947ZM25.2682 12.152L23.5667 37.1985L26.061 37.368L27.8582 10.9127L25.2682 12.152Z" fill="#333333"/>
<path d="M10.1824 21.4583C10.0856 20.6839 10.6894 20 11.4698 20C11.8097 20 12.1404 20.1385 12.3849 20.3748C21.456 29.1419 26.6752 29.1784 35.6151 20.3819C35.8596 20.1414 36.1928 20 36.5357 20C37.3133 20 37.9149 20.6815 37.8185 21.4532L35.2191 42.2481C35.094 43.2489 34.2432 44 33.2346 44H14.7657C13.757 44 12.9062 43.2489 12.7811 42.2481L10.1824 21.4583Z" fill="#333333"/>
</svg>
