<svg width="48" height="48" viewBox="0 0 48 48" fill="none" xmlns="http://www.w3.org/2000/svg">
<path fill-rule="evenodd" clip-rule="evenodd" d="M10 7C10 6.44772 10.4477 6 11 6H17C17.5523 6 18 6.44772 18 7V10.3333C18 10.8856 17.5523 11.3333 17 11.3333H15V13H17.673H19C19.5523 13 20 13.4477 20 14C20 14.5523 19.5523 15 19 15H18.9375L21.8323 21.6167C21.9429 21.8695 22 22.1424 22 22.4184V41C22 41.5523 21.5523 42 21 42H7C6.44772 42 6 41.5523 6 41V22.4184C6 22.1424 6.05709 21.8695 6.16769 21.6167L9.0625 15H9C8.44772 15 8 14.5523 8 14C8 13.4477 8.44772 13 9 13H10.327H13V11.3333H11C10.4477 11.3333 10 10.8856 10 10.3333V7ZM8 22.4184L11.2455 15H16.7545L20 22.4184V40H8V22.4184ZM15.3333 8.66667C15.3333 9.40305 14.7364 10 14 10C13.2636 10 12.6667 9.40305 12.6667 8.66667C12.6667 7.93029 13.2636 7.33333 14 7.33333C14.7364 7.33333 15.3333 7.93029 15.3333 8.66667ZM17 29C17 27.3431 15.6569 26 14 26C13.5369 26 13.0982 26.1049 12.7066 26.2924L16.7076 30.2934C16.8951 29.9018 17 29.4631 17 29ZM11 29C11 28.5368 11.105 28.0982 11.2924 27.7066L15.2934 31.7076C14.9018 31.895 14.4632 32 14 32C12.3431 32 11 30.6569 11 29ZM19 29C19 26.2386 16.7614 24 14 24C11.2386 24 9 26.2386 9 29C9 31.7614 11.2386 34 14 34C16.7614 34 19 31.7614 19 29ZM36.2412 30.1407C36.733 30.392 36.928 30.9944 36.6767 31.4862L35.604 33.5859L36.8952 34.3314C37.3873 34.6155 37.6766 35.1532 37.6425 35.7203L37.5048 38.0148C37.5656 38.0183 37.6261 38.0225 37.6862 38.0272L39.5391 36.3157L38.5958 34.7288C38.3673 34.3444 38.3616 33.8672 38.5808 33.4773L40.0034 30.9481C40.2742 30.4668 40.8839 30.296 41.3652 30.5668C41.8466 30.8375 42.0173 31.4472 41.7466 31.9286L40.5367 34.0798L41.4652 35.6419C41.8271 36.2507 41.7138 37.0296 41.1936 37.5102L40.0644 38.5532C41.2421 38.9985 42 39.6121 42 40C42 41.1046 41.375 42 37 42C33.5054 42 32.4034 41.4287 32.1014 40.6359C31.7375 41.1525 31.0586 41.5849 30.2254 41.7666C29.516 41.9214 28.8326 41.8643 28.3082 41.6475C27.4892 42.0951 26.4326 42.1635 25.5304 41.5794C24.5283 40.9306 24 39.6674 24 38C24 37.4477 24.4477 37 25 37C25.5523 37 26 37.4477 26 38C26 39.2996 26.4035 39.7621 26.6173 39.9005C26.8317 40.0393 27.14 40.0435 27.4306 39.8422C27.4439 39.833 27.4573 39.8241 27.4709 39.8156C27.7708 39.1893 28.5302 38.6404 29.4975 38.4294C30.8303 38.1387 32.0712 38.5956 32.3386 39.4546C32.5623 39.2491 32.8891 39.0321 33.2964 38.8303L31.2298 36.4375H30.0836C29.6324 36.4375 29.2162 36.1943 28.9946 35.8012L27.1288 32.491C26.8577 32.0099 27.0279 31.4 27.509 31.1288C27.9901 30.8576 28.6 31.0278 28.8711 31.509L30.5218 34.4375H31.4587C31.8946 34.4375 32.309 34.6271 32.5939 34.957L34.8193 37.5339C34.9896 37.731 35.0692 37.9756 35.0621 38.2169C35.203 38.1851 35.3471 38.1563 35.4943 38.1307L35.6276 35.9089L34.1926 35.0805C33.5011 34.6812 33.2436 33.8101 33.6069 33.099L34.8957 30.5763C35.147 30.0844 35.7494 29.8894 36.2412 30.1407ZM40 9.77143H34V10.4667C34.6156 10.8043 35 11.4513 35 12.1558V19.8442C35 20.5487 34.6156 21.1957 34 21.5333V22.2285H40V21.5333C39.3844 21.1957 39 20.5487 39 19.8442V12.1558C39 11.4513 39.3844 10.8043 40 10.4667V9.77143ZM32 21.4891V22.2285V23V25.9999H32.7143H41.2857H42V23V22.2285V21.4891C42 20.7847 41.6156 20.1377 41 19.8001V12.1999C41.6156 11.8623 42 11.2153 42 10.5109V9.77143V9V6H32V9V9.77143V10.5109C32 11.2153 32.3844 11.8623 33 12.1999V19.8001C32.3844 20.1377 32 20.7847 32 21.4891Z" fill="#333333"/>
</svg>
