<svg width="48" height="48" viewBox="0 0 48 48" fill="none" xmlns="http://www.w3.org/2000/svg">
<path d="M13.0955 8.98238C13.9653 7.55884 16.1307 7.71335 16.7782 9.24516L21.842 21.2243C22.4261 22.6062 21.3127 24.1036 19.7823 23.9944L7.9159 23.1477C6.38547 23.0385 5.50809 21.399 6.29281 20.1148L13.0955 8.98238Z" fill="#333333"/>
<path fill-rule="evenodd" clip-rule="evenodd" d="M34 22C38.4183 22 42 18.4183 42 14C42 9.58172 38.4183 6 34 6C29.5817 6 26 9.58172 26 14C26 18.4183 29.5817 22 34 22ZM37.0837 15.7352C37.6219 15.859 38.1586 15.523 38.2823 14.9847C38.4061 14.4465 38.07 13.9098 37.5318 13.7861L30.9161 12.2652C30.3779 12.1414 29.8413 12.4775 29.7175 13.0157C29.5938 13.5539 29.9298 14.0906 30.468 14.2143L37.0837 15.7352Z" fill="#333333"/>
<path fill-rule="evenodd" clip-rule="evenodd" d="M31.1587 27.2961L20.283 32.3675C18.2808 33.3012 17.4146 35.6811 18.3482 37.6832C19.2819 39.6854 21.6618 40.5516 23.664 39.618L34.5396 34.5466C36.5418 33.613 37.408 31.233 36.4744 29.2309C35.5408 27.2287 33.1609 26.3625 31.1587 27.2961ZM19.4378 30.5549C16.4345 31.9554 15.1352 35.5252 16.5356 38.5285C17.9361 41.5317 21.5059 42.8311 24.5092 41.4306L35.3849 36.3592C38.3881 34.9588 39.6875 31.3889 38.287 28.3856C36.8866 25.3824 33.3167 24.0831 30.3135 25.4835L19.4378 30.5549Z" fill="#333333"/>
<path d="M16.5356 38.5285C15.1352 35.5252 16.4345 31.9554 19.4378 30.5549L25.7168 27.6279L30.7882 38.5036L24.5092 41.4306C21.5059 42.8311 17.9361 41.5317 16.5356 38.5285Z" fill="#333333"/>
<path fill-rule="evenodd" clip-rule="evenodd" d="M31.1587 27.2961L20.283 32.3675C18.2808 33.3012 17.4146 35.6811 18.3482 37.6832C19.2819 39.6854 21.6618 40.5516 23.664 39.618L34.5396 34.5466C36.5418 33.613 37.408 31.233 36.4744 29.2309C35.5408 27.2287 33.1609 26.3625 31.1587 27.2961ZM19.4378 30.5549C16.4345 31.9554 15.1352 35.5252 16.5356 38.5285C17.9361 41.5317 21.5059 42.8311 24.5092 41.4306L35.3849 36.3592C38.3881 34.9588 39.6875 31.3889 38.287 28.3856C36.8866 25.3824 33.3167 24.0831 30.3135 25.4835L19.4378 30.5549Z" fill="#333333"/>
<path fill-rule="evenodd" clip-rule="evenodd" d="M24.7494 30.2858L20.283 32.3675C18.2808 33.3012 17.4146 35.6811 18.3482 37.6832C19.2819 39.6854 21.6618 40.5516 23.664 39.618L28.1304 37.5362L24.7494 30.2858ZM25.7168 27.6279L30.7882 38.5036L24.5092 41.4306C21.5059 42.8311 17.9361 41.5317 16.5356 38.5285C15.1352 35.5252 16.4345 31.9554 19.4378 30.5549L25.7168 27.6279Z" fill="#333333"/>
</svg>
