<svg width="48" height="48" viewBox="0 0 48 48" fill="none" xmlns="http://www.w3.org/2000/svg">
<path fill-rule="evenodd" clip-rule="evenodd" d="M17.4842 10.205C17.9232 9.86993 18.5507 9.95419 18.8858 10.3932L20.3954 12.3711C21.2307 13.4654 20.7364 15.0567 19.4282 15.4852L14.0662 17.2414C12.8336 17.6452 12 18.7954 12 20.0924V38.9999C12 40.6568 13.3431 41.9999 15 41.9999H33C34.6569 41.9999 36 40.6568 36 38.9999V20.0924C36 18.7954 35.1664 17.6452 33.9338 17.2414L28.5718 15.4852C27.2636 15.0567 26.7693 13.4654 27.6046 12.3711L29.1142 10.3932C29.4493 9.95419 30.0768 9.86993 30.5158 10.205C30.9548 10.5401 31.0391 11.1676 30.704 11.6067L29.1944 13.5845L34.5564 15.3408C36.6107 16.0137 38 17.9306 38 20.0924V38.9999C38 41.7614 35.7614 43.9999 33 43.9999H15C12.2386 43.9999 10 41.7614 10 38.9999V20.0924C10 17.9306 11.3893 16.0137 13.4436 15.3408L18.8056 13.5845L17.296 11.6067C16.9609 11.1676 17.0452 10.5401 17.4842 10.205Z" fill="#333333"/>
<path fill-rule="evenodd" clip-rule="evenodd" d="M24 36C28.4183 36 32 32.4183 32 28C32 23.5817 28.4183 20 24 20C19.5817 20 16 23.5817 16 28C16 32.4183 19.5817 36 24 36ZM24 38C29.5228 38 34 33.5228 34 28C34 22.4772 29.5228 18 24 18C18.4772 18 14 22.4772 14 28C14 33.5228 18.4772 38 24 38Z" fill="#333333"/>
<path fill-rule="evenodd" clip-rule="evenodd" d="M29.2929 34.7071L25.7929 31.2071L27.2071 29.7929L30.7071 33.2929L29.2929 34.7071Z" fill="#333333"/>
<path fill-rule="evenodd" clip-rule="evenodd" d="M30 10V7.33446L26.9734 6.1397C26.7396 6.04739 26.4905 6 26.2391 6H21.7609C21.5095 6 21.2604 6.04739 21.0266 6.1397L18 7.33446V10H30ZM17.2656 5.47416C16.5019 5.77566 16 6.51335 16 7.33446V12H32V7.33446C32 6.51335 31.4981 5.77566 30.7344 5.47416L27.7078 4.2794C27.2401 4.09479 26.7418 4 26.2391 4H21.7609C21.2582 4 20.7599 4.09479 20.2922 4.2794L17.2656 5.47416Z" fill="#333333"/>
<path fill-rule="evenodd" clip-rule="evenodd" d="M21.7929 27.2071L17.2929 22.7071L18.7071 21.2929L23.2071 25.7929L21.7929 27.2071Z" fill="#333333"/>
<path d="M25.3038 23.3228C26.2953 22.2005 27.7693 21.8828 28.5963 22.6133C29.4232 23.3438 29.2898 24.8458 28.2984 25.9681C27.3069 27.0905 25.8329 27.4081 25.006 26.6776C24.179 25.9472 24.3124 24.4452 25.3038 23.3228Z" fill="#333333"/>
<path fill-rule="evenodd" clip-rule="evenodd" d="M27.9492 24.486C28.2428 24.9538 28.1017 25.571 27.6339 25.8646C26.783 26.3988 26.2514 26.7293 26.0462 27.0736C25.8393 27.4208 25.7437 27.8365 25.6616 28.2497C25.6587 28.2643 25.6557 28.2793 25.6527 28.2948C25.5778 28.675 25.4728 29.1794 24.9805 29.6894C24.4761 30.2118 23.5489 30.3964 22.5819 30.5613C21.941 30.6705 21.609 30.7742 21.4472 30.8421C21.096 30.9893 20.7664 32.7963 19.5159 33.8996C19.4056 32.9067 19.7182 31.1782 19.8953 30.245C20.0199 29.9324 20.2322 29.6836 20.5013 29.4917C20.9742 29.1544 21.6758 28.9603 22.5819 28.8059C23.416 28.6637 23.6403 28.485 23.6956 28.4277C23.743 28.3786 23.7823 28.318 23.8704 27.8746C23.8734 27.8593 23.8765 27.8437 23.8796 27.8278C23.9598 27.4224 24.0783 26.8225 24.4658 26.1723C24.8703 25.4937 25.5205 24.83 26.5705 24.1708C27.0383 23.8771 27.6555 24.0183 27.9492 24.486Z" fill="#333333"/>
</svg>
