<svg width="48" height="48" viewBox="0 0 48 48" fill="none" xmlns="http://www.w3.org/2000/svg">
<path fill-rule="evenodd" clip-rule="evenodd" d="M29.6559 8.44265L8.44265 29.6559C7.6616 30.4369 7.6616 31.7032 8.44265 32.4843L15.5137 39.5553C16.2948 40.3364 17.5611 40.3364 18.3421 39.5553L39.5554 18.3421C40.3364 17.5611 40.3364 16.2948 39.5554 15.5137L32.4843 8.44265C31.7032 7.6616 30.4369 7.6616 29.6559 8.44265ZM7.02844 28.2416C5.46634 29.8037 5.46634 32.3364 7.02844 33.8985L14.0995 40.9696C15.6616 42.5317 18.1943 42.5317 19.7564 40.9696L40.9696 19.7564C42.5317 18.1943 42.5317 15.6616 40.9696 14.0995L33.8985 7.02844C32.3364 5.46634 29.8037 5.46634 28.2416 7.02844L7.02844 28.2416Z" fill="#333333"/>
<circle cx="16.0441" cy="25.5898" r="1.25" transform="rotate(-45 16.0441 25.5898)" fill="#333333"/>
<circle cx="18.5189" cy="23.115" r="1.25" transform="rotate(-45 18.5189 23.115)" fill="#333333"/>
<circle cx="20.9938" cy="20.6401" r="1.25" transform="rotate(-45 20.9938 20.6401)" fill="#333333"/>
<circle cx="23.4687" cy="18.1653" r="1.25" transform="rotate(-45 23.4687 18.1653)" fill="#333333"/>
<circle cx="25.9435" cy="15.6904" r="1.25" transform="rotate(-45 25.9435 15.6904)" fill="#333333"/>
<circle cx="28.4184" cy="13.2156" r="1.25" transform="rotate(-45 28.4184 13.2156)" fill="#333333"/>
<circle cx="31.6004" cy="16.3975" r="1.25" transform="rotate(-45 31.6004 16.3975)" fill="#333333"/>
<circle cx="13.5692" cy="28.0647" r="1.25" transform="rotate(-45 13.5692 28.0647)" fill="#333333"/>
<path d="M11.6246 30.0094L11.0943 32.3075L9.32651 30.5397L11.6246 30.0094Z" fill="#333333"/>
<circle cx="22.408" cy="31.9539" r="1.25" transform="rotate(-45 22.408 31.9539)" fill="#333333"/>
<circle cx="24.8829" cy="29.479" r="1.25" transform="rotate(-45 24.8829 29.479)" fill="#333333"/>
<circle cx="27.3577" cy="27.0042" r="1.25" transform="rotate(-45 27.3577 27.0042)" fill="#333333"/>
<circle cx="29.8326" cy="24.5293" r="1.25" transform="rotate(-45 29.8326 24.5293)" fill="#333333"/>
<circle cx="32.3075" cy="22.0544" r="1.25" transform="rotate(-45 32.3075 22.0544)" fill="#333333"/>
<circle cx="34.7824" cy="19.5796" r="1.25" transform="rotate(-45 34.7824 19.5796)" fill="#333333"/>
<circle cx="30.8933" cy="10.7407" r="1.25" transform="rotate(-45 30.8933 10.7407)" fill="#333333"/>
<circle cx="37.2573" cy="17.1047" r="1.25" transform="rotate(-45 37.2573 17.1047)" fill="#333333"/>
<circle cx="34.0753" cy="13.9226" r="1.25" transform="rotate(-45 34.0753 13.9226)" fill="#333333"/>
<circle cx="19.9331" cy="34.4287" r="1.25" transform="rotate(-45 19.9331 34.4287)" fill="#333333"/>
<circle cx="17.4583" cy="36.9036" r="1.25" transform="rotate(-45 17.4583 36.9036)" fill="#333333"/>
<circle cx="14.2763" cy="33.7217" r="1.25" transform="rotate(-45 14.2763 33.7217)" fill="#333333"/>
<circle cx="16.7512" cy="31.2468" r="1.25" transform="rotate(-45 16.7512 31.2468)" fill="#333333"/>
</svg>
