<svg width="48" height="48" viewBox="0 0 48 48" fill="none" xmlns="http://www.w3.org/2000/svg">
<path fill-rule="evenodd" clip-rule="evenodd" d="M32 21H16C14.8954 21 14 21.8954 14 23V40C14 41.1046 14.8954 42 16 42H32C33.1046 42 34 41.1046 34 40V23C34 21.8954 33.1046 21 32 21ZM16 19C13.7909 19 12 20.7909 12 23V40C12 42.2091 13.7909 44 16 44H32C34.2091 44 36 42.2091 36 40V23C36 20.7909 34.2091 19 32 19H16Z" fill="#333333"/>
<path fill-rule="evenodd" clip-rule="evenodd" d="M24 35C26.2091 35 28 33.2091 28 31C28 28.7909 26.2091 27 24 27C21.7909 27 20 28.7909 20 31C20 33.2091 21.7909 35 24 35ZM24 37C27.3137 37 30 34.3137 30 31C30 27.6863 27.3137 25 24 25C20.6863 25 18 27.6863 18 31C18 34.3137 20.6863 37 24 37Z" fill="#333333"/>
<path fill-rule="evenodd" clip-rule="evenodd" d="M23 26V21H25V26H23Z" fill="#333333"/>
<path fill-rule="evenodd" clip-rule="evenodd" d="M23 39V36H25V39H23Z" fill="#333333"/>
<path d="M22 19H26V21C26 21.5523 25.5523 22 25 22H23C22.4477 22 22 21.5523 22 21V19Z" fill="#333333"/>
<path fill-rule="evenodd" clip-rule="evenodd" d="M23 6L25 4V11H23V6ZM23 19H19V17H21V12C21 11.4477 21.4477 11 22 11H23V19ZM25 19H29V17H27V12C27 11.4477 26.5523 11 26 11H25V19Z" fill="#333333"/>
</svg>
