<svg width="48" height="48" viewBox="0 0 48 48" fill="none" xmlns="http://www.w3.org/2000/svg">
<path fill-rule="evenodd" clip-rule="evenodd" d="M0 0H48V48H0V0ZM18.6944 17.8459C18.6914 17.8399 18.6882 17.8329 18.6849 17.8248C18.6623 17.7707 18.6154 17.6272 18.6154 17.3476C18.6154 15.8638 17.9578 14.9175 17.6472 14.4705C17.5959 14.3966 17.554 14.3364 17.5262 14.2896C17.3526 13.9981 17 13.3589 17 11.243C17 9.54155 17.7561 8.31011 18.9761 7.4374C20.2554 6.52225 22.0739 6 24 6C25.9261 6 27.7446 6.52225 29.0239 7.4374C30.2439 8.31011 31 9.54155 31 11.243C31 13.3589 30.6474 13.9981 30.4738 14.2896C30.446 14.3364 30.4041 14.3966 30.3528 14.4705C30.0422 14.9175 29.3846 15.8638 29.3846 17.3476C29.3846 17.548 29.3431 17.641 29.3254 17.6752C29.3039 17.7168 29.2721 17.7559 29.2224 17.7958C29.1685 17.8392 29.1078 17.8716 29.0621 17.891L29.0558 17.8937C28.6558 17.9932 28.3971 18.1892 28.3236 18.2453C28.1647 18.3664 28.0596 18.4847 28.0136 18.5384C27.9154 18.6532 27.8512 18.755 27.8285 18.7913C27.7731 18.8801 27.7324 18.9598 27.7126 18.9993C27.6662 19.092 27.6217 19.1923 27.5828 19.2847C27.5021 19.4764 27.4077 19.7243 27.3169 19.9999C27.2377 20.2402 27.1431 20.5546 27.0664 20.9038C26.2706 20.9969 25.1836 21 24 21C22.8542 21 21.7989 20.9971 21.0107 20.9125C20.9837 20.6761 20.947 20.438 20.8986 20.21C20.8347 19.9096 20.7214 19.4825 20.4964 19.0817C20.3246 18.7757 19.7743 17.9517 18.6944 17.8459ZM16.6154 17.3476C16.6154 19.3825 18 19.8347 18.4615 19.8347C18.6356 19.8347 18.7659 20.0275 18.8606 20.3163C19.0172 20.7934 19.0769 21.5323 19.0769 22.0956C19.0769 22.6015 19.8952 22.8244 21.0201 22.9226C21.6189 22.9749 22.3046 22.9919 23 22.9974V24.5H16.5C13.6079 24.5 12.2324 26.6465 11.6175 28.4229C11.3047 29.3265 11.1523 30.2159 11.0769 30.8698C11.0389 31.1992 11.0197 31.4751 11.01 31.6713C11.0052 31.7695 11.0027 31.8482 11.0014 31.9039C11.0007 31.9318 11.0004 31.9541 11.0002 31.9702L11 31.9898L11 31.9961L11 31.9983C11 31.9987 11 32 12 32H11C11 32.5523 11.4477 33 12 33C12.552 33 12.9995 32.5528 13 32.001L13.0001 31.9925C13.0002 31.9841 13.0004 31.9698 13.0008 31.9501C13.0017 31.9106 13.0036 31.8496 13.0076 31.7701C13.0154 31.6108 13.0314 31.3789 13.0637 31.099C13.1289 30.5341 13.2578 29.7985 13.5075 29.0771C14.0176 27.6035 14.8921 26.5 16.5 26.5H23V28.7089C22.1658 28.7564 21.3505 28.8647 20.6352 29.0389C20.1357 29.1605 19.6558 29.3212 19.2429 29.5336C18.842 29.7397 18.4234 30.0359 18.152 30.4701C17.8593 30.9384 18.0017 31.5554 18.47 31.8481C18.9383 32.1408 19.5553 31.9984 19.848 31.5301C19.848 31.5301 19.8634 31.5066 19.914 31.4654C19.9662 31.4227 20.0449 31.3701 20.1576 31.3121C20.3861 31.1946 20.7047 31.0804 21.1083 30.9821C21.6562 30.8487 22.3075 30.7574 23 30.7126V32.6058C22.1471 32.6448 21.3113 32.7524 20.5806 32.9404C20.0765 33.0701 19.5888 33.2466 19.1713 33.4878C18.7597 33.7257 18.349 34.066 18.1056 34.5528C17.8586 35.0468 18.0588 35.6475 18.5528 35.8945C19.0468 36.1415 19.6475 35.9412 19.8944 35.4472C19.901 35.4341 19.9559 35.3444 20.1721 35.2195C20.3823 35.098 20.6846 34.9788 21.079 34.8773C21.6279 34.7361 22.2904 34.6454 23 34.6082V37H19C17.9305 37 17.1083 37.4612 16.5223 38.1123C15.9621 38.7347 15.626 39.5165 15.4172 40.2127C15.2052 40.9193 15.1025 41.6122 15.0518 42.1192C15.0262 42.3752 15.0133 42.5896 15.0068 42.7423C15.0035 42.8188 15.0018 42.8801 15.0009 42.9239C15.0005 42.9457 15.0003 42.9632 15.0001 42.976L15 42.9916L15 42.9967L15 42.9986C15 42.9989 15 43 16 43H15C15 43.5523 15.4477 44 16 44C16.5521 44 16.9997 43.5526 17 43.0005L17 42.9953L17.0005 42.9638C17.0011 42.9343 17.0024 42.8882 17.0049 42.828C17.0101 42.7072 17.0206 42.5311 17.0419 42.3183C17.085 41.8878 17.1698 41.3307 17.3328 40.7873C17.499 40.2335 17.7254 39.7653 18.0089 39.4502C18.2667 39.1638 18.5695 39 19 39H29C29.4305 39 29.7333 39.1638 29.9911 39.4502C30.2746 39.7653 30.501 40.2335 30.6672 40.7873C30.8302 41.3307 30.915 41.8878 30.9581 42.3183C30.9794 42.5311 30.9899 42.7072 30.9951 42.828C30.9967 42.8658 30.9978 42.8981 30.9985 42.9242C30.9989 42.9396 30.9992 42.9529 30.9995 42.9638L31 42.9953L31 43V43.0013C31.0007 43.553 31.4481 44 32 44C32.5523 44 33 43.5523 33 43H32C33 43 33 43.0003 33 43V42.9986L33 42.9967L33 42.9916L32.9999 42.976L32.9997 42.9598L32.9991 42.9239C32.9982 42.8801 32.9965 42.8188 32.9932 42.7423C32.9867 42.5896 32.9738 42.3752 32.9482 42.1192C32.8975 41.6122 32.7948 40.9193 32.5828 40.2127C32.374 39.5165 32.0379 38.7347 31.4777 38.1123C30.8917 37.4612 30.0695 37 29 37H25V34.6414C25.6789 34.6988 26.3191 34.802 26.8608 34.944C27.269 35.0509 27.5937 35.1728 27.8279 35.2968C27.9436 35.358 28.0255 35.4136 28.0805 35.4591C28.1342 35.5034 28.1513 35.529 28.152 35.53C28.4447 35.9984 29.0617 36.1408 29.53 35.848C29.9983 35.5553 30.1407 34.9384 29.848 34.47C29.5788 34.0393 29.1625 33.7403 28.7634 33.5291C28.3512 33.3109 27.8705 33.141 27.3678 33.0093C26.6521 32.8217 25.836 32.6972 25 32.6351V30.7126C25.6925 30.7574 26.3438 30.8487 26.8917 30.9821C27.2953 31.0804 27.6139 31.1946 27.8424 31.3121C27.9551 31.3701 28.0338 31.4227 28.086 31.4654C28.1117 31.4863 28.1283 31.5027 28.1384 31.5137C28.1385 31.5138 28.1384 31.5136 28.1384 31.5137C28.1473 31.5234 28.1513 31.5291 28.152 31.53C28.4447 31.9983 29.0617 32.1408 29.53 31.8481C29.9983 31.5554 30.1407 30.9384 29.848 30.4701C29.5766 30.0359 29.158 29.7397 28.7571 29.5336C28.3442 29.3212 27.8643 29.1605 27.3648 29.0389C26.9028 28.9264 26.399 28.8414 25.8754 28.7825C25.8754 28.7825 25.8754 28.7825 25.8754 28.7825C25.5884 28.7502 25.2954 28.7257 25 28.7089V26.5H31.5C33.1079 26.5 33.9824 27.6035 34.4925 29.0771C34.7422 29.7985 34.8711 30.5341 34.9363 31.099C34.9686 31.3789 34.9846 31.6108 34.9924 31.7701C34.9964 31.8496 34.9983 31.9106 34.9992 31.9501C34.9996 31.9698 34.9998 31.9841 34.9999 31.9925L35 32V32.0013C35.0007 32.5529 35.4482 33 36 33C36.5523 33 37 32.5523 37 32H36C37 32 37 32.0004 37 32V31.9983L37 31.9898L36.9998 31.9702C36.9996 31.9541 36.9993 31.9318 36.9986 31.9039C36.9973 31.8482 36.9949 31.7695 36.99 31.6713C36.9803 31.4751 36.9611 31.1992 36.9231 30.8698C36.8477 30.2159 36.6953 29.3265 36.3825 28.4229C35.7676 26.6465 34.3921 24.5 31.5 24.5H25V22.9974C27.002 22.9815 28.9231 22.8707 28.9231 22.0956C28.9231 21.1912 29.5 19.8347 29.5385 19.8347C29.5769 19.8347 31.3846 19.3825 31.3846 17.3476C31.3846 16.5425 31.6375 16.1622 31.9431 15.7024C32.41 15.0001 33 14.1125 33 11.243C33 1.58566 15 1.58566 15 11.243C15 14.1125 15.59 15.0001 16.0569 15.7024C16.3625 16.1622 16.6154 16.5425 16.6154 17.3476ZM21 16C22.1046 16 23 15.1046 23 14C23 12.8954 22.1046 12 21 12C19.8954 12 19 12.8954 19 14C19 15.1046 19.8954 16 21 16ZM29.0695 14.1067C29.0705 15.2702 28.1281 16.2142 26.9645 16.2151C25.801 16.2161 24.857 15.2737 24.8561 14.1101C24.8551 12.9466 25.7976 12.0026 26.9611 12.0017C28.1246 12.0007 29.0686 12.9432 29.0695 14.1067Z" fill="#333333"/>
</svg>
