<svg width="48" height="48" viewBox="0 0 48 48" fill="none" xmlns="http://www.w3.org/2000/svg">
<path d="M20 28.9999C23.031 29.6291 24.7953 29.6107 28 28.9999V35.1647C24.8815 36.1654 23.0938 36.0653 20 35.1647V28.9999Z" fill="#333333"/>
<path d="M22.3276 5.88037L22.3291 5.8792L25.8942 6.04527L25.8916 6.04596L22.3276 5.88037Z" fill="#333333"/>
<path d="M16.6781 5.6179L22.3276 5.88037C20.9072 7.00813 19.5835 6.9654 18.568 6.65422C17.9994 6.48002 17.5174 6.21513 17.1746 5.98933C17.0047 5.8775 16.8735 5.77822 16.7878 5.70964C16.7451 5.67544 16.714 5.64916 16.6954 5.63313L16.6781 5.6179Z" fill="#333333"/>
<path d="M29.6409 6.22015L32.5 6.35298L29.6394 6.21973C29.4549 6.16582 29.2635 6.11546 29.0667 6.07052C28.0407 5.83628 26.9375 5.76196 25.8942 6.04527L29.6394 6.21973L29.6409 6.22015Z" fill="#333333"/>
<path fill-rule="evenodd" clip-rule="evenodd" d="M29.6409 6.22015L25.8916 6.04596C25.2197 6.22881 24.5726 6.56011 23.9872 7.09269C21.8401 9.04599 19.6278 9.07074 17.982 8.56647C17.9019 8.54191 17.8232 8.51616 17.746 8.48939L20.8376 18H27.1891L31.2603 6.83393C31.2301 6.81983 31.1991 6.8055 31.1674 6.79099C30.7624 6.6059 30.2373 6.39448 29.6409 6.22015ZM28.4231 9.88461C28.6355 9.37481 28.3944 8.78934 27.8846 8.57692C27.3748 8.36451 26.7893 8.60558 26.5769 9.11539L24.0769 15.1154C23.8645 15.6252 24.1056 16.2107 24.6154 16.4231C25.1252 16.6355 25.7107 16.3944 25.9231 15.8846L28.4231 9.88461Z" fill="#333333"/>
<path fill-rule="evenodd" clip-rule="evenodd" d="M48 0H0V48H48V0ZM31 21.5707C29.1962 22.4548 26.7255 23 24 23C21.2745 23 18.8038 22.4548 17 21.5707V40.9999C17 42.6568 20.134 44 24 44C27.866 44 31 42.6569 31 41V21.5707ZM18.1904 16.326C17.4387 16.8041 17 17.3801 17 18C17 19.6569 20.134 21 24 21C27.866 21 31 19.6569 31 18C31 17.4069 30.5984 16.854 29.9054 16.3886L33.4395 6.69552C33.6027 6.24784 33.4274 5.74717 33.0205 5.49914L32.5 6.35298C33.0205 5.49914 33.0209 5.49935 33.0205 5.49914L33.019 5.49823L33.017 5.49701L33.0115 5.49367L32.9944 5.48347C32.9804 5.47514 32.9611 5.46381 32.9367 5.44977C32.8881 5.42172 32.8191 5.38283 32.7318 5.33563C32.5572 5.24133 32.308 5.1133 31.9987 4.97194C31.3829 4.69054 30.5141 4.34953 29.5119 4.1207C27.528 3.66776 24.832 3.62038 22.6414 5.61327C22.5368 5.70838 22.4327 5.7969 22.3291 5.8792L16.6758 5.61586C16.3416 5.30948 15.8428 5.26618 15.4607 5.51085C15.0775 5.75623 14.9083 6.22938 15.049 6.66212L18.1904 16.326Z" fill="#333333"/>
</svg>
