<svg width="48" height="48" viewBox="0 0 48 48" fill="none" xmlns="http://www.w3.org/2000/svg">
<path fill-rule="evenodd" clip-rule="evenodd" d="M32 6H16C14.8954 6 14 6.89543 14 8V40C14 41.1046 14.8954 42 16 42H32C33.1046 42 34 41.1046 34 40V8C34 6.89543 33.1046 6 32 6ZM16 4C13.7909 4 12 5.79086 12 8V40C12 42.2091 13.7909 44 16 44H32C34.2091 44 36 42.2091 36 40V8C36 5.79086 34.2091 4 32 4H16Z" fill="#333333"/>
<ellipse cx="24.6" cy="43.403" rx="0.597016" ry="0.6" transform="rotate(-90 24.6 43.403)" fill="#333333"/>
<ellipse cx="24.6" cy="40.4179" rx="0.597016" ry="0.6" transform="rotate(-90 24.6 40.4179)" fill="#333333"/>
<ellipse cx="24.6" cy="37.4328" rx="0.597016" ry="0.6" transform="rotate(-90 24.6 37.4328)" fill="#333333"/>
<ellipse cx="24.6" cy="34.4479" rx="0.597016" ry="0.6" transform="rotate(-90 24.6 34.4479)" fill="#333333"/>
<ellipse cx="24.6" cy="31.4628" rx="0.597016" ry="0.6" transform="rotate(-90 24.6 31.4628)" fill="#333333"/>
<ellipse cx="24.6" cy="28.4777" rx="0.597016" ry="0.6" transform="rotate(-90 24.6 28.4777)" fill="#333333"/>
<ellipse cx="24.6" cy="25.4926" rx="0.597016" ry="0.6" transform="rotate(-90 24.6 25.4926)" fill="#333333"/>
<ellipse cx="24.6" cy="22.5075" rx="0.597016" ry="0.6" transform="rotate(-90 24.6 22.5075)" fill="#333333"/>
<ellipse cx="24.6" cy="19.5224" rx="0.597016" ry="0.6" transform="rotate(-90 24.6 19.5224)" fill="#333333"/>
<ellipse cx="24.6" cy="16.5373" rx="0.597016" ry="0.6" transform="rotate(-90 24.6 16.5373)" fill="#333333"/>
<ellipse cx="24.6" cy="13.5522" rx="0.597016" ry="0.6" transform="rotate(-90 24.6 13.5522)" fill="#333333"/>
<ellipse cx="24.6" cy="10.5673" rx="0.597016" ry="0.6" transform="rotate(-90 24.6 10.5673)" fill="#333333"/>
<ellipse cx="24.6" cy="7.58218" rx="0.597016" ry="0.6" transform="rotate(-90 24.6 7.58218)" fill="#333333"/>
<ellipse cx="24.6" cy="4.59708" rx="0.597016" ry="0.6" transform="rotate(-90 24.6 4.59708)" fill="#333333"/>
<rect x="19.6765" y="7" width="2.36396" height="4.72791" rx="1.18198" transform="rotate(45 19.6765 7)" fill="#333333"/>
<rect x="19.6765" y="11.8335" width="2.36396" height="4.72791" rx="1.18198" transform="rotate(45 19.6765 11.8335)" fill="#333333"/>
<rect x="19.6765" y="16.667" width="2.36396" height="4.72791" rx="1.18198" transform="rotate(45 19.6765 16.667)" fill="#333333"/>
<rect x="19.6765" y="21.5005" width="2.36396" height="4.72791" rx="1.18198" transform="rotate(45 19.6765 21.5005)" fill="#333333"/>
<rect x="19.6765" y="26.334" width="2.36396" height="4.72791" rx="1.18198" transform="rotate(45 19.6765 26.334)" fill="#333333"/>
<rect x="19.6765" y="31.1675" width="2.36396" height="4.72791" rx="1.18198" transform="rotate(45 19.6765 31.1675)" fill="#333333"/>
<rect x="19.6765" y="36.001" width="2.36396" height="4.72791" rx="1.18198" transform="rotate(45 19.6765 36.001)" fill="#333333"/>
<rect x="30.6765" y="7" width="2.36396" height="4.72791" rx="1.18198" transform="rotate(45 30.6765 7)" fill="#333333"/>
<rect x="30.6765" y="11.8335" width="2.36396" height="4.72791" rx="1.18198" transform="rotate(45 30.6765 11.8335)" fill="#333333"/>
<rect x="30.6765" y="16.667" width="2.36396" height="4.72791" rx="1.18198" transform="rotate(45 30.6765 16.667)" fill="#333333"/>
<rect x="30.6765" y="21.5005" width="2.36396" height="4.72791" rx="1.18198" transform="rotate(45 30.6765 21.5005)" fill="#333333"/>
<rect x="30.6765" y="26.334" width="2.36396" height="4.72791" rx="1.18198" transform="rotate(45 30.6765 26.334)" fill="#333333"/>
<rect x="30.6765" y="31.1675" width="2.36396" height="4.72791" rx="1.18198" transform="rotate(45 30.6765 31.1675)" fill="#333333"/>
<rect x="30.6765" y="36.001" width="2.36396" height="4.72791" rx="1.18198" transform="rotate(45 30.6765 36.001)" fill="#333333"/>
</svg>
