<svg width="48" height="48" viewBox="0 0 48 48" fill="none" xmlns="http://www.w3.org/2000/svg">
<rect x="13" y="5" width="22" height="38" rx="3" stroke="#333333" stroke-width="2"/>
<circle cx="14" cy="24" r="1" fill="#333333"/>
<circle cx="18" cy="24" r="1" fill="#333333"/>
<circle cx="22" cy="24" r="1" fill="#333333"/>
<circle cx="26" cy="24" r="1" fill="#333333"/>
<circle cx="30" cy="24" r="1" fill="#333333"/>
<circle cx="34" cy="24" r="1" fill="#333333"/>
<circle cx="16.5" cy="10.5" r="1.5" fill="#333333"/>
<circle cx="21.5" cy="10.5" r="1.5" fill="#333333"/>
<circle cx="26.5" cy="10.5" r="1.5" fill="#333333"/>
<circle cx="31.5" cy="10.5" r="1.5" fill="#333333"/>
<circle cx="16.5" cy="15.5" r="1.5" fill="#333333"/>
<circle cx="21.5" cy="15.5" r="1.5" fill="#333333"/>
<circle cx="26.5" cy="15.5" r="1.5" fill="#333333"/>
<circle cx="31.5" cy="15.5" r="1.5" fill="#333333"/>
<circle cx="16.5" cy="31.5" r="1.5" fill="#333333"/>
<circle cx="21.5" cy="31.5" r="1.5" fill="#333333"/>
<circle cx="26.5" cy="31.5" r="1.5" fill="#333333"/>
<circle cx="31.5" cy="31.5" r="1.5" fill="#333333"/>
<circle cx="16.5" cy="36.5" r="1.5" fill="#333333"/>
<circle cx="21.5" cy="36.5" r="1.5" fill="#333333"/>
<circle cx="26.5" cy="36.5" r="1.5" fill="#333333"/>
<circle cx="31.5" cy="36.5" r="1.5" fill="#333333"/>
</svg>
