<svg width="48" height="48" viewBox="0 0 48 48" fill="none" xmlns="http://www.w3.org/2000/svg">
<path fill-rule="evenodd" clip-rule="evenodd" d="M32 6H16C14.8954 6 14 6.89543 14 8V40C14 41.1046 14.8954 42 16 42H32C33.1046 42 34 41.1046 34 40V8C34 6.89543 33.1046 6 32 6ZM16 4C13.7909 4 12 5.79086 12 8V40C12 42.2091 13.7909 44 16 44H32C34.2091 44 36 42.2091 36 40V8C36 5.79086 34.2091 4 32 4H16Z" fill="#333333"/>
<path d="M17.5074 9.83578C17.9689 9.37419 18.7173 9.37419 19.1789 9.83578C19.6405 10.2974 19.6405 11.0458 19.1789 11.5074L17.5074 13.1789C17.0458 13.6405 16.2974 13.6405 15.8358 13.1789C15.3742 12.7173 15.3742 11.9689 15.8358 11.5074L17.5074 9.83578Z" fill="#333333"/>
<path d="M21.8407 9.83578C22.3023 9.37419 23.0507 9.37419 23.5123 9.83578C23.9739 10.2974 23.9739 11.0458 23.5123 11.5074L21.8407 13.1789C21.3791 13.6405 20.6308 13.6405 20.1692 13.1789C19.7076 12.7173 19.7076 11.9689 20.1692 11.5074L21.8407 9.83578Z" fill="#333333"/>
<path d="M26.174 9.83578C26.6356 9.37419 27.384 9.37419 27.8456 9.83578C28.3071 10.2974 28.3071 11.0458 27.8456 11.5074L26.174 13.1789C25.7124 13.6405 24.964 13.6405 24.5024 13.1789C24.0408 12.7173 24.0408 11.9689 24.5024 11.5074L26.174 9.83578Z" fill="#333333"/>
<path d="M30.5074 9.83578C30.9689 9.37419 31.7173 9.37419 32.1789 9.83578C32.6405 10.2974 32.6405 11.0458 32.1789 11.5074L30.5074 13.1789C30.0458 13.6405 29.2974 13.6405 28.8358 13.1789C28.3742 12.7173 28.3742 11.9689 28.8358 11.5074L30.5074 9.83578Z" fill="#333333"/>
<path d="M17.5074 15.8358C17.9689 15.3742 18.7173 15.3742 19.1789 15.8358C19.6405 16.2974 19.6405 17.0458 19.1789 17.5074L17.5074 19.1789C17.0458 19.6405 16.2974 19.6405 15.8358 19.1789C15.3742 18.7173 15.3742 17.9689 15.8358 17.5074L17.5074 15.8358Z" fill="#333333"/>
<path d="M21.8407 15.8358C22.3023 15.3742 23.0507 15.3742 23.5123 15.8358C23.9739 16.2974 23.9739 17.0458 23.5123 17.5074L21.8407 19.1789C21.3791 19.6405 20.6308 19.6405 20.1692 19.1789C19.7076 18.7173 19.7076 17.9689 20.1692 17.5074L21.8407 15.8358Z" fill="#333333"/>
<path d="M26.174 15.8358C26.6356 15.3742 27.384 15.3742 27.8456 15.8358C28.3071 16.2974 28.3071 17.0458 27.8456 17.5074L26.174 19.1789C25.7124 19.6405 24.964 19.6405 24.5024 19.1789C24.0408 18.7173 24.0408 17.9689 24.5024 17.5074L26.174 15.8358Z" fill="#333333"/>
<path d="M30.5074 15.8358C30.9689 15.3742 31.7173 15.3742 32.1789 15.8358C32.6405 16.2974 32.6405 17.0458 32.1789 17.5074L30.5074 19.1789C30.0458 19.6405 29.2974 19.6405 28.8358 19.1789C28.3742 18.7173 28.3742 17.9689 28.8358 17.5074L30.5074 15.8358Z" fill="#333333"/>
<path d="M17.5074 28.8358C17.9689 28.3742 18.7173 28.3742 19.1789 28.8358C19.6405 29.2974 19.6405 30.0458 19.1789 30.5074L17.5074 32.1789C17.0458 32.6405 16.2974 32.6405 15.8358 32.1789C15.3742 31.7173 15.3742 30.9689 15.8358 30.5074L17.5074 28.8358Z" fill="#333333"/>
<path d="M21.8407 28.8358C22.3023 28.3742 23.0507 28.3742 23.5123 28.8358C23.9739 29.2974 23.9739 30.0458 23.5123 30.5074L21.8407 32.1789C21.3791 32.6405 20.6308 32.6405 20.1692 32.1789C19.7076 31.7173 19.7076 30.9689 20.1692 30.5074L21.8407 28.8358Z" fill="#333333"/>
<path d="M26.174 28.8358C26.6356 28.3742 27.384 28.3742 27.8456 28.8358C28.3071 29.2974 28.3071 30.0458 27.8456 30.5074L26.174 32.1789C25.7124 32.6405 24.964 32.6405 24.5024 32.1789C24.0408 31.7173 24.0408 30.9689 24.5024 30.5074L26.174 28.8358Z" fill="#333333"/>
<path d="M30.5074 28.8358C30.9689 28.3742 31.7173 28.3742 32.1789 28.8358C32.6405 29.2974 32.6405 30.0458 32.1789 30.5074L30.5074 32.1789C30.0458 32.6405 29.2974 32.6405 28.8358 32.1789C28.3742 31.7173 28.3742 30.9689 28.8358 30.5074L30.5074 28.8358Z" fill="#333333"/>
<path d="M17.5074 34.8358C17.9689 34.3742 18.7173 34.3742 19.1789 34.8358C19.6405 35.2974 19.6405 36.0458 19.1789 36.5074L17.5074 38.1789C17.0458 38.6405 16.2974 38.6405 15.8358 38.1789C15.3742 37.7173 15.3742 36.9689 15.8358 36.5074L17.5074 34.8358Z" fill="#333333"/>
<path d="M21.8407 34.8358C22.3023 34.3742 23.0507 34.3742 23.5123 34.8358C23.9739 35.2974 23.9739 36.0458 23.5123 36.5074L21.8407 38.1789C21.3791 38.6405 20.6308 38.6405 20.1692 38.1789C19.7076 37.7173 19.7076 36.9689 20.1692 36.5074L21.8407 34.8358Z" fill="#333333"/>
<path d="M26.174 34.8358C26.6356 34.3742 27.384 34.3742 27.8456 34.8358C28.3071 35.2974 28.3071 36.0458 27.8456 36.5074L26.174 38.1789C25.7124 38.6405 24.964 38.6405 24.5024 38.1789C24.0408 37.7173 24.0408 36.9689 24.5024 36.5074L26.174 34.8358Z" fill="#333333"/>
<path d="M30.5074 34.8358C30.9689 34.3742 31.7173 34.3742 32.1789 34.8358C32.6405 35.2974 32.6405 36.0458 32.1789 36.5074L30.5074 38.1789C30.0458 38.6405 29.2974 38.6405 28.8358 38.1789C28.3742 37.7173 28.3742 36.9689 28.8358 36.5074L30.5074 34.8358Z" fill="#333333"/>
<path d="M15 24C15 24.5523 14.5523 25 14 25C13.4477 25 13 24.5523 13 24C13 23.4477 13.4477 23 14 23C14.5523 23 15 23.4477 15 24Z" fill="#333333"/>
<path d="M19 24C19 24.5523 18.5523 25 18 25C17.4477 25 17 24.5523 17 24C17 23.4477 17.4477 23 18 23C18.5523 23 19 23.4477 19 24Z" fill="#333333"/>
<path d="M23 24C23 24.5523 22.5523 25 22 25C21.4477 25 21 24.5523 21 24C21 23.4477 21.4477 23 22 23C22.5523 23 23 23.4477 23 24Z" fill="#333333"/>
<path d="M27 24C27 24.5523 26.5523 25 26 25C25.4477 25 25 24.5523 25 24C25 23.4477 25.4477 23 26 23C26.5523 23 27 23.4477 27 24Z" fill="#333333"/>
<path d="M31 24C31 24.5523 30.5523 25 30 25C29.4477 25 29 24.5523 29 24C29 23.4477 29.4477 23 30 23C30.5523 23 31 23.4477 31 24Z" fill="#333333"/>
<path d="M35 24C35 24.5523 34.5523 25 34 25C33.4477 25 33 24.5523 33 24C33 23.4477 33.4477 23 34 23C34.5523 23 35 23.4477 35 24Z" fill="#333333"/>
</svg>
