<svg width="48" height="48" viewBox="0 0 48 48" fill="none" xmlns="http://www.w3.org/2000/svg">
<path d="M16 9.5C16 11.433 17.567 13 19.5 13C21.433 13 23 11.433 23 9.5C23 7.567 21.433 6 19.5 6C17.567 6 16 7.567 16 9.5Z" fill="#333333"/>
<path fill-rule="evenodd" clip-rule="evenodd" d="M19.5 11C18.6716 11 18 10.3284 18 9.5C18 8.67157 18.6716 8 19.5 8C20.3284 8 21 8.67157 21 9.5C21 10.3284 20.3284 11 19.5 11ZM19.5 13C17.567 13 16 11.433 16 9.5C16 7.567 17.567 6 19.5 6C21.433 6 23 7.567 23 9.5C23 11.433 21.433 13 19.5 13Z" fill="#333333"/>
<path fill-rule="evenodd" clip-rule="evenodd" d="M32 16C33.1046 16 34 16.8954 34 18C34 19.1046 33.1046 20 32 20H25V40C25 41.1046 24.1046 42 23 42C21.8954 42 21 41.1046 21 40L21 31H18L18 40C18 41.1046 17.1046 42 16 42C14.8954 42 14 41.1046 14 40V27.917C11.1623 27.441 9 24.973 9 22C9 18.6863 11.6863 16 15 16H32ZM12 22C12 20.8954 12.8954 20 14 20V24C12.8954 24 12 23.1046 12 22Z" fill="#333333"/>
<path fill-rule="evenodd" clip-rule="evenodd" d="M31 6V12C31 12.5523 31.4477 13 32 13H36C36.5523 13 37 12.5523 37 12V6H39V12C39 13.6569 37.6569 15 36 15H32C30.3431 15 29 13.6569 29 12V6H31Z" fill="#333333"/>
<path fill-rule="evenodd" clip-rule="evenodd" d="M34 14C34.5523 14 35 14.4477 35 15V41C35 41.5523 34.5523 42 34 42C33.4477 42 33 41.5523 33 41V15C33 14.4477 33.4477 14 34 14Z" fill="#333333"/>
<path fill-rule="evenodd" clip-rule="evenodd" d="M33 13V6H35V13H33Z" fill="#333333"/>
</svg>
