<svg width="48" height="48" viewBox="0 0 48 48" fill="none" xmlns="http://www.w3.org/2000/svg">
<path fill-rule="evenodd" clip-rule="evenodd" d="M16.0015 19.1535C16.0833 23.5009 19.633 27 24 27C28.367 27 31.9168 23.5009 31.9986 19.1535C31.3681 19.3051 30.6909 19.4392 29.9748 19.5535C29.6955 22.6077 27.1271 25 24 25C20.8729 25 18.3045 22.6077 18.0252 19.5535C17.3091 19.4392 16.632 19.3051 16.0015 19.1535Z" fill="#333333"/>
<path fill-rule="evenodd" clip-rule="evenodd" d="M17.1974 35C16.4875 36.2271 15.3556 37.1795 14.0001 37.6586V41C14.0001 41.3506 13.9399 41.6872 13.8293 42H36.0001V36C36.0001 35.4477 35.5523 35 35.0001 35H30.0001C30.0001 35 27.5001 36 24.0001 36C20.5001 36 18.0001 35 18.0001 35H17.1974Z" fill="#333333"/>
<path fill-rule="evenodd" clip-rule="evenodd" d="M13.8293 42C13.9399 41.6872 14.0001 41.3506 14.0001 41V40H40.0001V36C40.0001 35.4942 39.7524 34.9085 38.8353 34.2233C37.8956 33.5212 36.4723 32.898 34.7026 32.3916C31.184 31.3846 26.8802 31 24.0001 31C22.334 31 20.1914 31.1287 18.0001 31.4321V29.4139C20.2048 29.1219 22.3329 29 24.0001 29C30.0076 29 42.0001 30.5833 42.0001 36V42H13.8293Z" fill="#333333"/>
<path fill-rule="evenodd" clip-rule="evenodd" d="M18 36V31H20V36H18Z" fill="#333333"/>
<path fill-rule="evenodd" clip-rule="evenodd" d="M7 24C7.55228 24 8 24.4477 8 25V32C8 33.1046 8.89543 34 10 34V25C10 24.4477 10.4477 24 11 24C11.5523 24 12 24.4477 12 25V34C13.1046 34 14 33.1046 14 32V25C14 24.4477 14.4477 24 15 24C15.5523 24 16 24.4477 16 25V32C16 34.2091 14.2091 36 12 36V41C12 41.5523 11.5523 42 11 42C10.4477 42 10 41.5523 10 41V36C7.79086 36 6 34.2091 6 32V25C6 24.4477 6.44772 24 7 24Z" fill="#333333"/>
<path fill-rule="evenodd" clip-rule="evenodd" d="M30 8C30 6.89543 27.0125 6 24 6C20.9875 6 18 6.89543 18 8L17.1476 10.8414C17.5012 10.8954 17.8895 10.9524 18.301 11.0095C20.0968 11.2582 22.2905 11.5 24 11.5C25.7095 11.5 27.9032 11.2582 29.699 11.0095C30.1105 10.9524 30.4988 10.8954 30.8524 10.8414L30 8ZM31.5866 12.7514C31.1185 12.8252 30.5701 12.9079 29.9734 12.9905C28.16 13.2418 25.8537 13.5 24 13.5C22.1463 13.5 19.84 13.2418 18.0266 12.9905C17.4299 12.9079 16.8815 12.8252 16.4134 12.7514C13.1348 13.4776 11 14.6621 11 16C11 18.2091 16.8203 20 24 20C31.1797 20 37 18.2091 37 16C37 14.6621 34.8652 13.4776 31.5866 12.7514Z" fill="#333333"/>
<path d="M30 31H33V36H30V31Z" fill="#333333"/>
</svg>
