<svg width="48" height="48" viewBox="0 0 48 48" fill="none" xmlns="http://www.w3.org/2000/svg">
<path d="M24 8C24 10.2091 22.2091 12 20 12C17.7909 12 16 10.2091 16 8C16 5.79086 17.7909 4 20 4C22.2091 4 24 5.79086 24 8Z" fill="#333333"/>
<path fill-rule="evenodd" clip-rule="evenodd" d="M14.6002 21.019L18.2493 23.9383C19.1118 24.6283 19.2516 25.8869 18.5616 26.7494C17.8716 27.6119 16.613 27.7518 15.7505 27.0617L10.7505 23.0617C9.9931 22.4558 9.77964 21.3938 10.2441 20.5423L11.9999 21.5C10.2441 20.5423 10.244 20.5425 10.2441 20.5423L10.2479 20.5354L10.256 20.5206L10.2849 20.4683C10.3096 20.4237 10.3451 20.36 10.3904 20.2799C10.4808 20.1199 10.6104 19.8937 10.7702 19.6232C11.0882 19.085 11.5339 18.3582 12.0349 17.6233C12.5268 16.9018 13.1139 16.1105 13.7172 15.4784C14.0172 15.1641 14.3718 14.8354 14.7665 14.5722C15.1272 14.3317 15.736 14 16.4999 14H18.4994C18.9221 14 19.3344 14.1339 19.6762 14.3825L18.4999 16C19.6762 14.3825 19.6759 14.3823 19.6762 14.3825L19.6799 14.3852L19.6856 14.3894L19.7029 14.4021L19.7606 14.445C19.809 14.4812 19.877 14.5327 19.9624 14.5986C20.1332 14.7304 20.3738 14.9206 20.6665 15.1631C21.2507 15.6471 22.0487 16.3454 22.9141 17.2108C24.6141 18.9108 26.7092 21.3881 27.8568 24.2572C28.5216 25.9191 28.5381 27.4778 28.0045 28.8499C27.4916 30.1688 26.5525 31.1052 25.6762 31.7425C24.7954 32.383 23.8686 32.8021 23.192 33.0581C22.8473 33.1885 22.5514 33.2827 22.3361 33.3455C22.2281 33.3771 22.1395 33.4011 22.074 33.418C22.0412 33.4265 22.0141 33.4333 21.9933 33.4384L21.9666 33.4448L21.9569 33.4471L21.9512 33.4484C21.9504 33.4486 21.9496 33.4488 21.4999 31.5L21.9496 33.4488C20.8733 33.6972 19.7995 33.026 19.5511 31.9497C19.3033 30.8759 19.9708 29.8045 21.0428 29.5529C21.0445 29.5525 21.0461 29.5522 21.0478 29.5518L21.0452 29.5524L21.0428 29.5529L21.0708 29.5458C21.0996 29.5384 21.1486 29.5253 21.2144 29.506C21.3468 29.4673 21.5431 29.4052 21.7765 29.3169C22.2562 29.1354 22.8293 28.867 23.3235 28.5075C23.8223 28.1448 24.1332 27.7687 24.2765 27.4001C24.3992 27.0847 24.4782 26.5809 24.1429 25.7428C23.2906 23.6119 21.6356 21.5892 20.0857 20.0392C19.3261 19.2796 18.624 18.6654 18.1145 18.2432C18.0056 18.1529 17.9058 18.0717 17.8164 18H16.8591C16.7951 18.0558 16.7121 18.1341 16.6107 18.2403C16.2296 18.6395 15.7854 19.2232 15.3398 19.8767C15.0739 20.2668 14.8222 20.6598 14.6002 21.019ZM17.0077 17.8869C17.0076 17.8873 17.0014 17.8914 16.9894 17.8977C17.0018 17.8896 17.0078 17.8864 17.0077 17.8869Z" fill="#333333"/>
<path fill-rule="evenodd" clip-rule="evenodd" d="M19 37.5C20.1046 37.5 21 38.3954 21 39.5V42C21 43.1046 20.1046 44 19 44C17.8954 44 17 43.1046 17 42V39.5C17 38.3954 17.8954 37.5 19 37.5Z" fill="#333333"/>
<path d="M15 17L21 18L27 26.2391L23 30.4783L21 41H17C16.5 29.5 18.5 25.5 15 17Z" fill="#333333"/>
<path fill-rule="evenodd" clip-rule="evenodd" d="M32 16C34.2091 16 36 14.2091 36 12C36 9.79086 34.2091 8 32 8C29.7909 8 28 9.79086 28 12C28 14.2091 29.7909 16 32 16ZM32 18C35.3137 18 38 15.3137 38 12C38 8.68629 35.3137 6 32 6C28.6863 6 26 8.68629 26 12C26 15.3137 28.6863 18 32 18Z" fill="#333333"/>
<path fill-rule="evenodd" clip-rule="evenodd" d="M32 9C32.5523 9 33 9.44772 33 10V11.6972L33.8321 12.9453C34.1384 13.4048 34.0142 14.0257 33.5547 14.3321C33.0952 14.6384 32.4743 14.5142 32.1679 14.0547L31 12.3028V10C31 9.44772 31.4477 9 32 9Z" fill="#333333"/>
</svg>
