<svg width="48" height="48" viewBox="0 0 48 48" fill="none" xmlns="http://www.w3.org/2000/svg">
<path d="M32.9999 18C36.3138 18 39 15.3138 39 12.0001C39 8.68635 36.3138 6 32.9999 6C29.6862 6 27 8.68635 27 12.0001C27 15.3138 29.6862 18 32.9999 18Z" fill="#333333"/>
<path fill-rule="evenodd" clip-rule="evenodd" d="M12 20C14.2091 20 16 18.2091 16 16C16 13.7909 14.2091 12 12 12C9.79086 12 8 13.7909 8 16C8 18.2091 9.79086 20 12 20ZM12 22C15.3137 22 18 19.3137 18 16C18 12.6863 15.3137 10 12 10C8.68629 10 6 12.6863 6 16C6 19.3137 8.68629 22 12 22Z" fill="#333333"/>
<path fill-rule="evenodd" clip-rule="evenodd" d="M21.7071 7.70711L16.7071 12.7071L15.2929 11.2929L20.2929 6.2929L21.7071 7.70711Z" fill="#333333"/>
<path fill-rule="evenodd" clip-rule="evenodd" d="M16 7C16 6.44772 16.4477 6 17 6H21C21.5523 6 22 6.44772 22 7V11C22 11.5523 21.5523 12 21 12C20.4477 12 20 11.5523 20 11V8H17C16.4477 8 16 7.55228 16 7Z" fill="#333333"/>
<path fill-rule="evenodd" clip-rule="evenodd" d="M24 16.447V34.0413C24 37.4522 26.8125 42 33 42C39.1875 42 42 38.0207 42 34.0413V33.1867C40.556 29.5157 37.5648 25.8432 33.9861 22.7526C31.9581 21.0013 29.7695 19.461 27.615 18.2307C27.4277 18.1285 27.2384 18.0226 27.0469 17.913C26.0121 17.3466 24.9892 16.8543 24 16.447ZM34.0324 20.1913C34.4587 20.532 34.8794 20.8815 35.2933 21.2389C37.893 23.484 40.2616 26.0782 42 28.8309V17C38.9579 19.1783 36.49 20.186 34.0324 20.1913Z" fill="#333333"/>
</svg>
