<svg width="48" height="48" viewBox="0 0 48 48" fill="none" xmlns="http://www.w3.org/2000/svg">
<path fill-rule="evenodd" clip-rule="evenodd" d="M12 20C14.2091 20 16 18.2091 16 16C16 13.7909 14.2091 12 12 12C9.79086 12 8 13.7909 8 16C8 18.2091 9.79086 20 12 20ZM12 22C15.3137 22 18 19.3137 18 16C18 12.6863 15.3137 10 12 10C8.68629 10 6 12.6863 6 16C6 19.3137 8.68629 22 12 22Z" fill="#333333"/>
<path fill-rule="evenodd" clip-rule="evenodd" d="M21.7072 7.70718L16.7072 12.7072L15.293 11.293L20.293 6.29297L21.7072 7.70718Z" fill="#333333"/>
<path fill-rule="evenodd" clip-rule="evenodd" d="M16 7C16 6.44772 16.4477 6 17 6H21C21.5523 6 22 6.44772 22 7V11C22 11.5523 21.5523 12 21 12C20.4477 12 20 11.5523 20 11V8H17C16.4477 8 16 7.55228 16 7Z" fill="#333333"/>
<path fill-rule="evenodd" clip-rule="evenodd" d="M17.8 32.5999C19.1255 33.594 19.3941 35.4744 18.4 36.7999L15.4 40.7999C14.8334 41.5553 13.9443 41.9999 13 41.9999H9C7.34315 41.9999 6 40.6568 6 38.9999C6 37.3431 7.34315 35.9999 9 35.9999H11.5L13.6 33.1999C14.5941 31.8744 16.4745 31.6058 17.8 32.5999Z" fill="#333333"/>
<path d="M39.474 36.3934H36.2699L35.7002 36.1313C34.2406 34.5093 31.8761 30.9827 29.895 29.772C29.0572 29.2597 28.1152 28.994 27.1587 29.0001H27.154H21.5L22.0859 42H26.8148H26.8159C27.5967 41.9986 28.3694 41.8231 29.0878 41.4836C29.8066 41.1442 30.4566 40.6477 30.999 40.0237L31.5685 39.3686C32.2876 40.1678 32.9516 42 34.0189 42H39.6078C40.2779 42 40.7864 41.7047 41.2603 41.179C41.7339 40.6532 42.0001 39.9401 42.0001 39.1967C42.0001 38.4533 41.7339 37.7402 41.2603 37.2146C40.7864 36.6887 40.144 36.3934 39.474 36.3934Z" fill="#333333"/>
<path d="M40 21.5C40 25.0899 37.0899 28 33.5 28C29.9101 28 27 25.0899 27 21.5C27 17.9101 29.9101 15 33.5 15C37.0899 15 40 17.9101 40 21.5Z" fill="#333333"/>
<path fill-rule="evenodd" clip-rule="evenodd" d="M33.5 26C35.9853 26 38 23.9853 38 21.5C38 19.0147 35.9853 17 33.5 17C31.0147 17 29 19.0147 29 21.5C29 23.9853 31.0147 26 33.5 26ZM33.5 28C37.0899 28 40 25.0899 40 21.5C40 17.9101 37.0899 15 33.5 15C29.9101 15 27 17.9101 27 21.5C27 25.0899 29.9101 28 33.5 28Z" fill="#333333"/>
</svg>
