<svg width="48" height="49" viewBox="0 0 48 49" fill="none" xmlns="http://www.w3.org/2000/svg">
<path fill-rule="evenodd" clip-rule="evenodd" d="M24 17.75C27.0375 17.75 29.5 15.2876 29.5 12.25C29.5 9.21243 27.0375 6.75 24 6.75C20.9624 6.75 18.5 9.21243 18.5 12.25C18.5 15.2876 20.9624 17.75 24 17.75Z" fill="#333333"/>
<path fill-rule="evenodd" clip-rule="evenodd" d="M18.9999 25.75V22.75H28.9999V25.75H18.9999ZM18.9999 27.75V29.6904C18.9999 30.3236 19.5703 31.9502 21.3205 32.7296C21.5208 32.8188 21.746 32.9306 21.9483 33.0311L22.0673 33.0901C22.316 33.213 22.5566 33.3292 22.7999 33.4323C23.3074 33.6473 23.7033 33.75 23.9999 33.75C24.2966 33.75 24.6924 33.6473 25.1999 33.4323C25.4433 33.3292 25.6839 33.213 25.9325 33.0901L26.0516 33.0311C26.2539 32.9306 26.4791 32.8188 26.6793 32.7296C28.4295 31.9502 28.9999 30.3236 28.9999 29.6904V27.75H18.9999Z" fill="#333333"/>
<path fill-rule="evenodd" clip-rule="evenodd" d="M17.9809 32.4495C18.4585 33.257 19.2526 34.0691 20.4348 34.6064C20.2572 34.7742 20.0873 34.9688 19.9266 35.2079C19.4264 35.9527 18.9965 36.8727 18.9965 37.7395C18.9965 38.5319 19.3216 39.2136 19.5679 39.73L19.5859 39.7677C19.8577 40.3384 20.0295 40.7223 20.0295 41.1283C20.0295 42.0409 19.2452 42.75 18.3186 42.75C17.4551 42.75 16.7719 42.1749 16.263 41.0617C15.766 39.9747 15.5748 38.6334 15.5748 37.7395C15.5748 35.4984 16.4293 33.8001 17.9809 32.4495Z" fill="#333333"/>
<path fill-rule="evenodd" clip-rule="evenodd" d="M27.5652 34.6062C28.7473 34.069 29.5414 33.2569 30.0191 32.4494C31.5707 33.7999 32.4253 35.4983 32.4253 37.7395C32.4253 38.6334 32.234 39.9747 31.7371 41.0617C31.2282 42.1749 30.5449 42.75 29.6814 42.75C28.7548 42.75 27.9705 42.0409 27.9705 41.1283C27.9705 40.7223 28.1423 40.3384 28.4142 39.7677L28.4322 39.73C28.6784 39.2136 29.0035 38.5319 29.0035 37.7395C29.0035 36.8727 28.5737 35.9527 28.0734 35.2079C27.9127 34.9687 27.7427 34.7741 27.5652 34.6062Z" fill="#333333"/>
<path fill-rule="evenodd" clip-rule="evenodd" d="M35.9414 19.7573C36.2067 20.8295 35.5525 21.9138 34.4802 22.179C30.4816 23.1682 27.2606 23.6644 23.9921 23.6519C20.7294 23.6395 17.5161 23.1204 13.5415 22.1843C12.4663 21.9311 11.8 20.8542 12.0532 19.7791C12.3064 18.7039 13.3833 18.0376 14.4584 18.2908C18.2944 19.1942 21.1755 19.6412 24.0074 19.652C26.8335 19.6627 29.7071 19.2392 33.5197 18.2961C34.592 18.0308 35.6762 18.685 35.9414 19.7573Z" fill="#333333"/>
</svg>
