<svg width="48" height="48" viewBox="0 0 48 48" fill="none" xmlns="http://www.w3.org/2000/svg">
<path fill-rule="evenodd" clip-rule="evenodd" d="M30 17C33.0376 17 35.5 14.5376 35.5 11.5C35.5 8.46243 33.0376 6 30 6C26.9624 6 24.5 8.46243 24.5 11.5C24.5 14.5376 26.9624 17 30 17Z" fill="#333333"/>
<path fill-rule="evenodd" clip-rule="evenodd" d="M25 25V22H35V25H25ZM25 27V28.9404C25 29.5737 25.5704 31.2003 27.3206 31.9796C27.5208 32.0688 27.746 32.1806 27.9483 32.2811L28.0674 32.3401C28.316 32.463 28.5567 32.5792 28.8 32.6823C29.3075 32.8973 29.7033 33 30 33C30.2967 33 30.6925 32.8973 31.2 32.6823C31.4433 32.5792 31.684 32.463 31.9326 32.3401L32.0517 32.2811C32.254 32.1806 32.4792 32.0688 32.6794 31.9796C34.4296 31.2003 35 29.5737 35 28.9404V27H25Z" fill="#333333"/>
<path fill-rule="evenodd" clip-rule="evenodd" d="M23.9808 31.6995C24.4584 32.5069 25.2525 33.319 26.4347 33.8563C26.2571 34.0241 26.0872 34.2187 25.9265 34.4578C25.4263 35.2026 24.9965 36.1226 24.9965 36.9894C24.9965 37.7818 25.3215 38.4635 25.5678 38.9799L25.5858 39.0177C25.8576 39.5883 26.0294 39.9722 26.0294 40.3782C26.0294 41.2908 25.2451 41.9999 24.3186 41.9999C23.4551 41.9999 22.7718 41.4249 22.2629 40.3116C21.766 39.2246 21.5747 37.8833 21.5747 36.9894C21.5747 34.7483 22.4292 33.05 23.9808 31.6995Z" fill="#333333"/>
<path fill-rule="evenodd" clip-rule="evenodd" d="M33.5652 33.8563C34.7473 33.319 35.5414 32.5069 36.0191 31.6995C37.5707 33.05 38.4253 34.7483 38.4253 36.9895C38.4253 37.8835 38.234 39.2247 37.7371 40.3118C37.2282 41.425 36.5449 42.0001 35.6814 42.0001C34.7549 42.0001 33.9706 41.291 33.9706 40.3783C33.9706 39.9724 34.1424 39.5884 34.4142 39.0178L34.4322 38.98C34.6785 38.4637 35.0035 37.7819 35.0035 36.9895C35.0035 36.1227 34.5737 35.2027 34.0735 34.458C33.9128 34.2187 33.7428 34.0241 33.5652 33.8563Z" fill="#333333"/>
<path fill-rule="evenodd" clip-rule="evenodd" d="M41.9414 19.0073C42.2067 20.0795 41.5525 21.1638 40.4802 21.429C36.4816 22.4181 33.2606 22.9143 29.9921 22.9019C26.7294 22.8895 23.5161 22.3703 19.5415 21.4343C18.4663 21.1811 17.8 20.1042 18.0532 19.0291C18.3064 17.9539 19.3833 17.2876 20.4584 17.5408C24.2944 18.4442 27.1755 18.8912 30.0074 18.9019C32.8335 18.9127 35.7071 18.4891 39.5197 17.546C40.592 17.2808 41.6762 17.935 41.9414 19.0073Z" fill="#333333"/>
<path fill-rule="evenodd" clip-rule="evenodd" d="M11 18C12.6569 18 14 16.6569 14 15C14 13.3431 12.6569 12 11 12C9.34315 12 8 13.3431 8 15C8 16.6569 9.34315 18 11 18ZM11 20C13.7614 20 16 17.7614 16 15C16 12.2386 13.7614 10 11 10C8.23858 10 6 12.2386 6 15C6 17.7614 8.23858 20 11 20Z" fill="#333333"/>
<path fill-rule="evenodd" clip-rule="evenodd" d="M19.793 8.20738L14.4645 13.5358L13.0503 12.1216L18.3788 6.79315L19.793 8.20738Z" fill="#333333"/>
<path fill-rule="evenodd" clip-rule="evenodd" d="M14 7C14 6.44772 14.4477 6 15 6H19.5C20.0523 6 20.5 6.44772 20.5 7V12C20.5 12.5523 20.0523 13 19.5 13C18.9477 13 18.5 12.5523 18.5 12V8H15C14.4477 8 14 7.55228 14 7Z" fill="#333333"/>
</svg>
