<svg width="48" height="48" viewBox="0 0 48 48" fill="none" xmlns="http://www.w3.org/2000/svg">
<path d="M6 30.0007C6 29.4484 6.44772 29.0007 7 29.0007H10C10.5523 29.0007 11 29.4484 11 30.0007V40.9961C11 41.5484 10.5523 41.9961 10 41.9961H7C6.44772 41.9961 6 41.5484 6 40.9961V30.0007Z" fill="#333333"/>
<path d="M20.9148 29.1888C20.9148 29.1888 18.6371 28.764 17.7052 29.1888C17.0113 29.5051 14.3259 30.4693 13 30.941L13 39.8015C13.7674 39.7566 15.2933 39.6759 15.9451 39.7022C19.701 39.8535 21.6183 41.4359 25.3668 41.7199C27.4636 41.8788 29.3011 42.2509 30.7506 41.7199C32.2001 41.1889 40.4829 37.1535 41.5183 36.0915C42.5536 35.0296 42.0359 32.1623 38.8263 32.6933C35.6168 33.2242 31.3718 35.773 29.6117 35.6668C27.8517 35.5606 23.1926 34.711 23.1926 34.711L28.542 34.7757C28.542 34.7757 29.2977 34.8159 30.3365 34.0738C31.3753 33.3318 32.3037 31.2065 30.7506 31.2065C29.1976 31.2065 27.5411 30.6755 27.5411 30.6755L20.9148 29.1888Z" fill="#333333"/>
<path fill-rule="evenodd" clip-rule="evenodd" d="M20.726 16.7306C21.7612 17.7599 21.7659 19.4335 20.7366 20.4687L18.7959 22.4756C17.8538 23.4498 16.5568 23.9999 15.2017 23.9999C14.1039 23.9999 12.8993 23.9999 12.4411 23.9999C10.9813 23.9999 9.79785 22.8165 9.79785 21.3566C9.79785 19.8968 10.9813 18.7133 12.4411 18.7133H15.0269L16.9878 16.7412C18.0172 15.706 19.6908 15.7012 20.726 16.7306Z" fill="#333333"/>
<path d="M32.7409 14.9984C35.2258 14.9984 37.2401 12.9841 37.2401 10.4992C37.2401 8.01442 35.2258 6 32.7409 6C30.2561 6 28.2417 8.01442 28.2417 10.4992C28.2417 12.9841 30.2561 14.9984 32.7409 14.9984Z" fill="#333333"/>
<path d="M37.2988 21.3243C37.2988 19.8513 36.1046 18.6572 34.6316 18.6572H32.6753L29.9189 15.8441C29.1666 15.0762 28.1368 14.6436 27.0618 14.6436H22.104L22.5718 23.9945H25.6547C26.2787 23.9936 26.8962 23.8673 27.4704 23.6229C28.0445 23.3785 28.5637 23.0211 28.9969 22.572L29.7178 23.294C29.9383 23.521 30.2035 23.6997 30.4965 23.8192C30.7896 23.9386 31.1043 23.996 31.4205 23.9877C31.4476 23.9877 31.4714 23.9945 31.4985 23.9945C31.9661 23.9945 33.3415 23.9929 34.6356 23.9913C36.1072 23.9894 37.2988 22.7959 37.2988 21.3243Z" fill="#333333"/>
</svg>
