<svg width="48" height="48" viewBox="0 0 48 48" fill="none" xmlns="http://www.w3.org/2000/svg">
<path d="M29.9591 28.2615C30.0619 28.0523 30.2884 27.9484 30.5 28C32.8722 28.5786 36.4408 29.2818 38.192 30.4317C39.9547 31.5891 41 32.9535 41 34.5V41H25.5H7V34.5C7 32.9535 8.04534 31.5891 9.808 30.4317C11.5592 29.2818 15.1278 28.5786 17.5 28C17.7116 27.9484 17.9381 28.0523 18.0409 28.2615L22.874 40.9998L7 41H25.5L29.9591 28.2615Z" fill="#333333"/>
<path d="M21.3106 29.2425C21.1528 28.6114 21.6302 28 22.2808 28H25.7192C26.3698 28 26.8472 28.6114 26.6894 29.2425L26.1894 31.2425C26.0781 31.6877 25.6781 32 25.2192 32H22.7808C22.3219 32 21.9219 31.6877 21.8106 31.2425L21.3106 29.2425Z" fill="#333333"/>
<path d="M22 36L23 29H25L26 36V41H22V36Z" fill="#333333"/>
<path fill-rule="evenodd" clip-rule="evenodd" d="M24 24C28.4183 24 32 20.4183 32 16C32 11.5817 28.4183 8 24 8C19.5817 8 16 11.5817 16 16C16 20.4183 19.5817 24 24 24ZM24 26C29.5228 26 34 21.5228 34 16C34 10.4772 29.5228 6 24 6C18.4772 6 14 10.4772 14 16C14 21.5228 18.4772 26 24 26Z" fill="#333333"/>
</svg>
