<svg width="48" height="48" viewBox="0 0 48 48" fill="none" xmlns="http://www.w3.org/2000/svg">
<path d="M30.0281 15.992C30.0281 15.992 29 19 31.5 21C32.9077 22.1262 33.8336 17.4017 33.8336 13.8108C33.8337 7.06355 25.295 5.53929 22.3418 5.14555C17.5 4.50003 17.8097 8.94693 17.4321 9.07166C11.2815 14.0573 17 21 17 21C17 21 17.4722 20.9353 18 19C18.4164 17.473 17.6674 12.9017 19.0002 11.5C24.9889 15.4885 30.0281 15.992 30.0281 15.992Z" fill="#333333"/>
<path fill-rule="evenodd" clip-rule="evenodd" d="M16.0353 18C16.0119 18.2489 16 18.5011 16 18.7561C16 23.1743 19.5817 26.7561 24 26.7561C28.4183 26.7561 32 23.1743 32 18.7561C32 18.5011 31.9881 18.2489 31.9647 18C31.3574 18.1348 30.695 18.2545 29.9869 18.3566C29.9956 18.4886 30 18.6218 30 18.7561C30 22.0698 27.3137 24.7561 24 24.7561C20.6863 24.7561 18 22.0698 18 18.7561C18 18.6218 18.0044 18.4886 18.0131 18.3566C17.305 18.2545 16.6426 18.1348 16.0353 18Z" fill="#333333"/>
<path fill-rule="evenodd" clip-rule="evenodd" d="M14.4326 33.4416C13.5732 33.9692 13 34.9177 13 36C13 37.6569 14.3431 39 16 39C17.6569 39 19 37.6569 19 36C19 34.476 17.8636 33.2174 16.3919 33.0254C16.3591 32.9079 16.3249 32.7725 16.2901 32.6206C16.1703 32.0972 16.056 31.4332 15.9709 30.7512C15.8856 30.0679 15.8327 29.3904 15.8292 28.8375C15.8279 28.6348 15.8334 28.4582 15.8446 28.3101C16.2293 28.1997 16.6151 28.1003 17 28.0126C17.4413 27.9121 17.7025 28.433 17.9141 28.8551C17.9436 28.9139 17.9721 28.9707 18 29.0237H22.0639C22.9797 29.0235 23.4324 29.0236 23.8903 29.0237C24.3376 29.0238 24.7906 29.0239 25.6851 29.0237H29.7493C29.9775 28.5902 30.4972 27.8981 31 28.0126C31.5363 28.1348 32.0745 28.2798 32.6089 28.4456L32.6056 28.4472C32.6044 28.4449 32.6045 28.4453 32.6057 28.4487C32.6104 28.4627 32.6324 28.5281 32.6542 28.6699C32.6791 28.8313 32.6964 29.0411 32.7035 29.2937C32.7177 29.798 32.6894 30.411 32.6297 31.0287C32.5699 31.6456 32.4811 32.2429 32.3811 32.7144C32.359 32.8188 32.3369 32.9141 32.3152 33H31C30.6212 33 30.275 33.214 30.1056 33.5528L29.1056 35.5528C29.0361 35.6916 29 35.8448 29 36V38C29 38.5523 29.4477 39 30 39H32V37H31V36.2361L31.618 35H34.382L35 36.2361V37H34V39H36C36.5523 39 37 38.5523 37 38V36C37 35.8448 36.9639 35.6916 36.8944 35.5528L35.8944 33.5528C35.725 33.214 35.3788 33 35 33H34.3643C34.4711 32.4673 34.56 31.8448 34.6203 31.2213C34.6856 30.5473 34.7198 29.8478 34.7027 29.2376L34.7019 29.2101C38.6895 30.8949 42 33.6661 42 36.5699V42H6V36.5699C6 33.5376 9.60993 30.6499 13.831 28.993C13.8424 29.6146 13.9013 30.3182 13.9862 30.9988C14.0779 31.7335 14.2029 32.4653 14.3406 33.0669C14.3701 33.1958 14.4008 33.3213 14.4326 33.4416ZM16 37.0147C16.5384 37.0147 17 36.5742 17 36C17 35.4258 16.5384 34.9853 16 34.9853C15.4616 34.9853 15 35.4258 15 36C15 36.5742 15.4616 37.0147 16 37.0147Z" fill="#333333"/>
</svg>
