<svg width="48" height="48" viewBox="0 0 48 48" fill="none" xmlns="http://www.w3.org/2000/svg">
<g clip-path="url(#clip0)">
<path d="M13 9.50049C13 11.4335 14.567 13.0005 16.5 13.0005C18.433 13.0005 20 11.4335 20 9.50049C20 7.56749 18.433 6.00049 16.5 6.00049C14.567 6.00049 13 7.56749 13 9.50049Z" fill="#333333"/>
<path fill-rule="evenodd" clip-rule="evenodd" d="M16.5 11.0005C15.6716 11.0005 15 10.3289 15 9.50049C15 8.67206 15.6716 8.00049 16.5 8.00049C17.3284 8.00049 18 8.67206 18 9.50049C18 10.3289 17.3284 11.0005 16.5 11.0005ZM16.5 13.0005C14.567 13.0005 13 11.4335 13 9.50049C13 7.56749 14.567 6.00049 16.5 6.00049C18.433 6.00049 20 7.56749 20 9.50049C20 11.4335 18.433 13.0005 16.5 13.0005Z" fill="#333333"/>
<path fill-rule="evenodd" clip-rule="evenodd" d="M31 18.0005C31 16.8959 30.1046 16.0005 29 16.0005H20V28.0005H13V16.0005H12C8.68629 16.0005 6 18.6868 6 22.0005C6 24.9735 8.16229 27.4415 11 27.9175V40.0005C11 41.1051 11.8954 42.0005 13 42.0005C14.1046 42.0005 15 41.1051 15 40.0005L15 31.0005H18L18 40.0005C18 41.1051 18.8954 42.0005 20 42.0005C21.1046 42.0005 22 41.1051 22 40.0005V20.0005H29C30.1046 20.0005 31 19.1051 31 18.0005ZM15 19.0005H18V16.0005H15V19.0005ZM11 20.0005C9.89543 20.0005 9 20.8959 9 22.0005C9 23.1051 9.89543 24.0005 11 24.0005V20.0005Z" fill="#333333"/>
<path fill-rule="evenodd" clip-rule="evenodd" d="M34.6547 29.7089L32.7059 30.1588C31.6297 30.4072 30.9586 31.4812 31.2071 32.5574L37.0533 31.2077C36.8048 30.1314 35.7309 29.4604 34.6547 29.7089ZM32.256 28.21C30.1035 28.707 28.7614 30.8548 29.2583 33.0073L29.7082 34.9561L39.4519 32.7065L39.002 30.7578C38.5051 28.6053 36.3573 27.2632 34.2048 27.7601L32.256 28.21Z" fill="#333333"/>
<path fill-rule="evenodd" clip-rule="evenodd" d="M39.002 30.7578L29.2583 33.0073L30.3086 42.0016L33.1323 41.3497L32.1025 36.435L34.06 36.0249L35.0815 40.8997L42.001 39.3022L39.002 30.7578Z" fill="#333333"/>
<path fill-rule="evenodd" clip-rule="evenodd" d="M29.2583 33.0073L39.002 30.7578L42.001 39.3022L35.0815 40.8997L34.06 36.0249L32.1025 36.435L33.1323 41.3497L30.3086 42.0016L29.2583 33.0073ZM36.6204 38.4918L35.6073 33.6572L32.6502 34.2768L37.7078 33.1092L39.3738 37.8561L36.6204 38.4918Z" fill="#333333"/>
<path fill-rule="evenodd" clip-rule="evenodd" d="M33.4553 28.9594C32.9172 29.0837 32.3803 28.7482 32.256 28.21L28.4318 11.6457C28.3076 11.1076 28.6431 10.5706 29.1813 10.4464C29.7194 10.3222 30.2563 10.6577 30.3806 11.1958L34.2048 27.7601C34.329 28.2983 33.9935 28.8352 33.4553 28.9594Z" fill="#333333"/>
</g>
<defs>
<clipPath id="clip0">
<rect width="48" height="48" fill="white"/>
</clipPath>
</defs>
</svg>
