<svg width="48" height="48" viewBox="0 0 48 48" fill="none" xmlns="http://www.w3.org/2000/svg">
<path fill-rule="evenodd" clip-rule="evenodd" d="M22 11C22 13.2091 20.2091 15 18 15C15.7909 15 14 13.2091 14 11C14 8.79086 15.7909 7 18 7C20.2091 7 22 8.79086 22 11ZM13 20.3993C12.8393 20.5632 12.6775 20.7418 12.5161 20.9354C11.4594 22.2022 10.8034 23.653 10.7175 24.5548C10.6389 25.3795 9.90672 25.9844 9.08202 25.9059C8.25733 25.8273 7.65245 25.0951 7.73098 24.2704C7.89441 22.5543 8.93198 20.5488 10.2123 19.0138C11.4565 17.522 13.3311 16 15.434 16H18.0608H18.7592H18.939H18.9847H18.9961H18.999H18.9994H18.9996H18.9997H18.9999H18.9999H19L19 17.5L19 19H19H23L23 29L23 31L23 38C23 39.0616 22.1706 39.9382 21.1106 39.9969C20.0506 40.0556 19.1295 39.276 19.0123 38.2209L18.2099 31H17.7901L16.9878 38.2209C16.8706 39.276 15.9494 40.0556 14.8894 39.9969C13.8294 39.9382 13 39.0616 13 38V31V29V20.3993ZM19 19C19.8284 19 20.5 18.3284 20.5 17.5C20.5 16.6716 19.8284 16 19 16V17.5V19Z" fill="#333333"/>
<path fill-rule="evenodd" clip-rule="evenodd" d="M26.5306 18.9746C25.1845 17.4696 23.2095 16 21.0482 16H17.2241L17.2241 17.5L17.2241 19H21.0482C21.9136 19 23.1345 19.6777 24.2945 20.9746C25.4339 22.2484 26.1259 23.6904 26.2152 24.565C26.2993 25.3892 27.0357 25.989 27.8598 25.9049C28.6839 25.8207 29.2838 25.0844 29.1996 24.2602C29.0216 22.5168 27.8973 20.5026 26.5306 18.9746ZM15.7241 17.5C15.7241 18.3284 16.3957 19 17.2241 19L17.2241 17.5L17.2241 16C16.3957 16 15.7241 16.6716 15.7241 17.5Z" fill="#333333"/>
<path fill-rule="evenodd" clip-rule="evenodd" d="M6 28.5C6 27.1193 7.11929 26 8.5 26C9.88071 26 11 27.1193 11 28.5V39C11 39.5523 10.5523 40 10 40C9.44772 40 9 39.5523 9 39V28.5C9 28.2239 8.77614 28 8.5 28C8.22386 28 8 28.2239 8 28.5V29.5128C8 30.0651 7.55228 30.5128 7 30.5128C6.44772 30.5128 6 30.0651 6 29.5128V28.5Z" fill="#333333"/>
<path fill-rule="evenodd" clip-rule="evenodd" d="M34.5001 11C34.5001 13.2091 32.7092 15 30.5001 15C28.291 15 26.5001 13.2091 26.5001 11C26.5001 8.79086 28.291 7 30.5001 7C32.7092 7 34.5001 8.79086 34.5001 11ZM34.5001 19.7516C34.8908 20.0529 35.3004 20.4464 35.7082 20.9354C36.7648 22.2022 37.4209 23.653 37.5068 24.5548C37.5853 25.3795 38.3176 25.9844 39.1422 25.9059C39.9669 25.8273 40.5718 25.0951 40.4933 24.2704C40.3299 22.5543 39.2923 20.5488 38.012 19.0138C36.7678 17.522 34.8932 16 32.7903 16H30.1635H29.4651H29.2852H29.2396H29.2281H29.2252H29.2248H29.2247H29.2245H29.2244H29.2243H29.2243L29.2243 17L29.2243 16C28.5712 16 28.0156 16.4174 27.8096 17H26.5001V23.0872C26.264 23.4752 26.1288 23.8179 26.1288 24.0719C26.1288 25.6611 24.783 31.9221 24.2316 34.421C24.107 34.9855 24.4844 35.537 25.0572 35.6155C28.75 36.1216 31.9406 36.121 35.6027 35.6554C36.2864 35.5685 36.6851 34.8112 36.4373 34.1681C35.7 32.2554 34.5001 28.2816 34.5001 22.6778L34.5001 22.6573V19.7516ZM37.0001 28.5C37.0001 27.1193 38.1194 26 39.5001 26C40.8808 26 42.0001 27.1193 42.0001 28.5V39C42.0001 39.5523 41.5524 40 41.0001 40C40.4478 40 40.0001 39.5523 40.0001 39V28.5C40.0001 28.2239 39.7762 28 39.5001 28C39.224 28 39.0001 28.2239 39.0001 28.5V29.5128C39.0001 30.0651 38.5524 30.5128 38.0001 30.5128C37.4478 30.5128 37.0001 30.0651 37.0001 29.5128V28.5Z" fill="#333333"/>
<path fill-rule="evenodd" clip-rule="evenodd" d="M22.6649 18.9725C24.0166 17.467 25.9971 16 28.1618 16H32.0001L32.0002 17.5L32.0001 19H28.1618C27.2884 19 26.0611 19.6804 24.8972 20.9767C23.7533 22.2509 23.0593 23.6925 22.9698 24.5656C22.8854 25.3897 22.1488 25.9893 21.3247 25.9048C20.5006 25.8203 19.901 25.0838 19.9855 24.2597C20.1643 22.5148 21.2934 20.5001 22.6649 18.9725ZM33.5002 17.5C33.5002 18.3284 32.8286 19 32.0001 19L32.0002 17.5L32.0001 16C32.8286 16 33.5002 16.6716 33.5002 17.5Z" fill="#333333"/>
<path fill-rule="evenodd" clip-rule="evenodd" d="M25.5 37.1515V39.3877C25.5 40.1392 26.0561 40.7747 26.8009 40.8744C27.5457 40.9742 28.2494 40.5074 28.4471 39.7824L29.0877 37.4336C27.9265 37.4031 26.75 37.3096 25.5 37.1515ZM31.899 37.3848L32.5529 39.7824C32.7506 40.5074 33.4543 40.9742 34.1991 40.8744C34.9439 40.7747 35.5 40.1392 35.5 39.3877V37C34.2327 37.187 33.0507 37.3157 31.899 37.3848Z" fill="#333333"/>
</svg>
