<svg width="48" height="48" viewBox="0 0 48 48" fill="none" xmlns="http://www.w3.org/2000/svg">
<path fill-rule="evenodd" clip-rule="evenodd" d="M22.707 16.8708C23.0736 16.7369 23.2693 16.7916 23.4029 16.8606C23.5855 16.955 23.8945 17.216 24.187 17.8441C24.3983 18.2977 24.6011 18.7376 24.7967 19.1619C25.2989 20.2511 25.7535 21.2372 26.1805 22.0855C26.7768 23.2705 27.3956 24.3469 28.157 25.2339C28.9506 26.1584 29.8838 26.8608 31.0673 27.323C32.2121 27.77 33.4952 27.9546 34.9401 27.9979C36.0442 28.031 36.966 27.1628 36.9992 26.0588C37.0323 24.9547 36.1641 24.0328 35.06 23.9997C33.8572 23.9636 33.0782 23.8141 32.5225 23.597C32.0055 23.3952 31.5998 23.1034 31.1921 22.6285C30.7523 22.1161 30.3073 21.3877 29.7535 20.2873C29.3593 19.504 28.9486 18.6132 28.4607 17.5551C28.2594 17.1184 28.0449 16.6532 27.8131 16.1554C27.2624 14.9731 26.4214 13.9182 25.2398 13.3074C24.0105 12.6718 22.6301 12.6321 21.3034 13.1251L21.2797 13.1341C16.0701 15.1454 12.965 19.5312 11.0948 25.3907C10.7589 26.4429 11.3396 27.5682 12.3919 27.9041C13.4442 28.24 14.5695 27.6592 14.9053 26.607C16.5636 21.4119 19.0445 18.2901 22.707 16.8708Z" fill="#333333"/>
<path fill-rule="evenodd" clip-rule="evenodd" d="M21.4751 15.0127C22.5727 15.1369 23.3618 16.1273 23.2375 17.2249L22.3469 25.0953L30.8857 33.5207C31.0848 33.7172 31.2405 33.9533 31.3427 34.2137L34.112 41.2693C34.5155 42.2975 34.0091 43.4582 32.9809 43.8617C31.9527 44.2653 30.7921 43.7589 30.3885 42.7307L27.7743 36.07L18.8455 27.2598C18.4087 26.8288 18.1939 26.2211 18.2629 25.6113L19.2629 16.7751C19.3871 15.6775 20.3776 14.8885 21.4751 15.0127Z" fill="#333333"/>
<path fill-rule="evenodd" clip-rule="evenodd" d="M25.2094 18.9567C25.478 17.8853 24.8271 16.799 23.7557 16.5305C22.6843 16.2619 21.598 16.9128 21.3294 17.9842L20.8627 19.8465C22.3465 20.1414 23.3998 21.5141 23.2622 23.0552L22.9624 26.4137L23.2671 26.706L25.2094 18.9567ZM21.5778 33.3994L18.2627 30.2198L17.7944 32.0881L16.3987 36.7981L11.7668 40.4266C10.8972 41.1078 10.7445 42.3649 11.4257 43.2344C12.1069 44.1039 13.364 44.2566 14.2335 43.5755L19.3681 39.5531C19.6952 39.297 19.9343 38.9453 20.0524 38.547L21.5778 33.3994Z" fill="#333333"/>
<path d="M31.2502 8C31.2502 10.2091 29.4594 12 27.2502 12C25.0411 12 23.2502 10.2091 23.2502 8C23.2502 5.79086 25.0411 4 27.2502 4C29.4594 4 31.2502 5.79086 31.2502 8Z" fill="#333333"/>
<path d="M27.2502 21.2143L24.6947 33L19.2502 27.4853L19.6947 18.3309L24.6947 18L27.2502 21.2143Z" fill="#333333"/>
</svg>
