<svg width="48" height="48" viewBox="0 0 48 48" fill="none" xmlns="http://www.w3.org/2000/svg">
<path fill-rule="evenodd" clip-rule="evenodd" d="M24.7542 17.1059C24.4665 16.9775 23.9898 16.8976 23.1442 16.9915C20.9125 17.2396 19.634 17.8287 18.6751 18.6362C17.6442 19.5043 16.8134 20.7569 15.6892 22.7241C15.1412 23.6831 13.9195 24.0163 12.9604 23.4683C12.0014 22.9202 11.6682 21.6985 12.2163 20.7395C13.3348 18.7822 14.4662 16.9511 16.0985 15.5766C17.8027 14.1414 19.8882 13.3288 22.7024 13.016C23.878 12.8854 25.1713 12.9117 26.3845 13.4532C27.6583 14.0218 28.5876 15.0406 29.2217 16.4023C30.0755 18.2358 30.7107 19.3274 31.2195 19.9595C31.464 20.2633 31.6352 20.4042 31.7318 20.4673C31.8089 20.5176 31.8413 20.5214 31.8538 20.5228L31.8552 20.523C31.9423 20.5336 32.2236 20.5226 33.0524 20.1563C33.4129 19.9969 33.8074 19.8042 34.2889 19.5689C34.3268 19.5504 34.3652 19.5317 34.4042 19.5126C34.9254 19.2581 35.5219 18.9686 36.1882 18.6724C37.1975 18.2238 38.3794 18.6784 38.8281 19.6877C39.2767 20.6971 38.8221 21.879 37.8128 22.3277C37.2175 22.5922 36.6766 22.8544 36.1596 23.1069C36.116 23.1281 36.0725 23.1494 36.0289 23.1707C35.5679 23.3961 35.1041 23.6228 34.6694 23.8149C33.7688 24.2129 32.6181 24.6454 31.3717 24.4937C30.0011 24.3268 28.9573 23.5283 28.1035 22.4676C27.277 21.4408 26.4766 19.9827 25.5956 18.0909C25.2842 17.4222 24.9814 17.2073 24.7542 17.1059Z" fill="#333333"/>
<path fill-rule="evenodd" clip-rule="evenodd" d="M24.7597 14.2573C25.7913 14.6522 26.3074 15.8086 25.9125 16.8401L22.9489 24.5812L29.2532 32.7852C29.4787 33.0786 29.6183 33.4287 29.6566 33.7967L30.4893 41.7929C30.6037 42.8915 29.8058 43.8749 28.7072 43.9893C27.6085 44.1037 26.6252 43.3058 26.5108 42.2072L25.7368 34.7738L19.0948 26.1306C18.6709 25.579 18.5641 24.8466 18.8129 24.1969L22.1769 15.41C22.5718 14.3784 23.7282 13.8623 24.7597 14.2573Z" fill="#333333"/>
<path fill-rule="evenodd" clip-rule="evenodd" d="M18.4321 29.0071L16.9603 32.9677L11.1591 32.5063C10.058 32.4188 9.09445 33.2404 9.00689 34.3415C8.91932 35.4426 9.74095 36.4062 10.842 36.4938L18.15 37.0749C19.0415 37.1458 19.8717 36.6162 20.1833 35.7779L21.3084 32.7501L18.4321 29.0071ZM23.3638 27.2191L27.0622 17.2668C27.4469 16.2314 26.9195 15.0801 25.8841 14.6954C25.232 14.453 24.5339 14.5726 24.0103 14.953C24.3368 15.5687 24.4055 16.3169 24.1368 17.0189L21.2733 24.4986L23.3638 27.2191Z" fill="#333333"/>
<path d="M35 8.5C35 10.9853 32.9853 13 30.5 13C28.0147 13 26 10.9853 26 8.5C26 6.01472 28.0147 4 30.5 4C32.9853 4 35 6.01472 35 8.5Z" fill="#333333"/>
<path d="M28.53 21.972L23.4218 31.8236L20.1201 25.0957L22.3005 17.6174L25.6645 18.3677L28.53 21.972Z" fill="#333333"/>
</svg>
