<svg width="48" height="48" viewBox="0 0 48 48" fill="none" xmlns="http://www.w3.org/2000/svg">
<path fill-rule="evenodd" clip-rule="evenodd" d="M16.0353 19.244C16.0119 19.4928 16 19.745 16 20C16 24.4183 19.5817 28 24 28C28.4183 28 32 24.4183 32 20C32 19.745 31.9881 19.4928 31.9647 19.244C31.3574 19.3788 30.695 19.4984 29.9869 19.6005C29.9956 19.7326 30 19.8658 30 20C30 23.3137 27.3137 26 24 26C20.6863 26 18 23.3137 18 20C18 19.8658 18.0044 19.7326 18.0131 19.6005C17.305 19.4984 16.6426 19.3788 16.0353 19.244Z" fill="#333333"/>
<path fill-rule="evenodd" clip-rule="evenodd" d="M21 40V33.2004L17.8517 30.7517C15.3356 31.2968 12.8274 32.1101 10.9258 33.118C9.86246 33.6816 9.08395 34.2565 8.59368 34.7989C8.1146 35.329 8 35.7218 8 36V40L21 40ZM6 42V36C6 32.3389 12.52 29.7274 18.3533 28.6081L23 32.2223V40H24V42L6 42Z" fill="#333333"/>
<path fill-rule="evenodd" clip-rule="evenodd" d="M17.0602 29.1583L14.4748 36.268L22.1644 34.9864L21.8356 33.0136L17.5251 33.732L18.9398 29.8417L17.0602 29.1583Z" fill="#333333"/>
<path d="M16 35L22 34L18 29.5L16 35Z" fill="#333333"/>
<path fill-rule="evenodd" clip-rule="evenodd" d="M22.7004 35.7861C22.3445 35.436 21.7749 35.3995 21.3753 35.7191C20.944 36.0641 20.8741 36.6934 21.2191 37.1247L22 36.5C21.2191 37.1247 21.2203 37.1262 21.2203 37.1262L21.2215 37.1277L21.224 37.1307L21.2291 37.1369L21.2399 37.1498C21.2473 37.1586 21.2554 37.1678 21.2641 37.1773C21.2814 37.1964 21.301 37.2169 21.3232 37.2385C21.3677 37.2817 21.422 37.329 21.4875 37.3781C21.619 37.4768 21.7918 37.5799 22.0154 37.6731C22.4619 37.8591 23.0976 38 24 38C24.9024 38 25.5381 37.8591 25.9846 37.6731C26.2082 37.5799 26.381 37.4768 26.5125 37.3781C26.578 37.329 26.6323 37.2817 26.6768 37.2385C26.699 37.2169 26.7186 37.1964 26.736 37.1773C26.7446 37.1678 26.7527 37.1586 26.7601 37.1498L26.7709 37.1369L26.776 37.1307L26.7785 37.1277L26.7797 37.1262C26.7797 37.1262 26.7809 37.1247 26 36.5L26.7809 37.1247C27.1259 36.6934 27.056 36.0641 26.6247 35.7191C26.2251 35.3995 25.6555 35.436 25.2996 35.7861C25.2848 35.7948 25.2576 35.8093 25.2154 35.8269C25.0619 35.8909 24.6976 36 24 36C23.3024 36 22.9381 35.8909 22.7846 35.8269C22.7424 35.8093 22.7152 35.7948 22.7004 35.7861Z" fill="#333333"/>
<path fill-rule="evenodd" clip-rule="evenodd" d="M33.7737 26.4618C33.9501 25.6553 33.1481 25.0608 32.5704 25.6506C31.5989 26.6425 31 28.0007 31 29.4988C31 31.4649 32.0317 33.1901 33.5832 34.1625C33.8617 34.3371 34 34.6714 34 35V40C34 41.1046 34.8954 42 36 42H37C38.1046 42 39 41.1046 39 40V35C39 34.6714 39.1383 34.3371 39.4168 34.1625C40.9683 33.1901 42 31.4649 42 29.4988C42 28.0007 41.4011 26.6425 40.4296 25.6506C39.8519 25.0608 39.0499 25.6553 39.2263 26.4617L39.2521 26.5796C39.6364 28.3365 38.2984 29.9988 36.5 29.9988C34.7016 29.9988 33.3636 28.3365 33.7479 26.5796L33.7737 26.4618Z" fill="#333333"/>
<path fill-rule="evenodd" clip-rule="evenodd" d="M11 41V31H13V41H11Z" fill="#333333"/>
<path d="M25 32L27 30.5V42H25V32Z" fill="#333333"/>
<path d="M22 37H26V42H22V37Z" fill="#333333"/>
<path fill-rule="evenodd" clip-rule="evenodd" d="M20 8.30808C17.7285 9.28313 16.0016 11.0627 15.319 13.2152C15.6496 13.4615 16.1758 13.7433 16.9085 14.0106C18.4256 14.564 20.6753 15 23.4737 15C27.3604 15 29.8625 14.5549 31.3547 14.0106C32.0244 13.7662 32.453 13.5155 32.7094 13.3068C32.0472 11.1133 30.3036 9.29693 28 8.30808V11C28 11.5523 27.5523 12 27 12C26.4477 12 26 11.5523 26 11V7C26 6.44772 25.5523 6 25 6H23C22.4477 6 22 6.44772 22 7V11C22 11.5523 21.5523 12 21 12C20.4477 12 20 11.5523 20 11V8.30808ZM34.1189 14.7324C33.6225 15.1784 32.9253 15.5665 32.0401 15.8894C30.2428 16.5451 27.4817 17 23.4737 17C20.4826 17 17.9954 16.536 16.2231 15.8894C15.3418 15.5679 14.5982 15.1871 14.0539 14.7657C14.0168 14.7369 13.9792 14.7069 13.9415 14.6757C13.3363 15.2333 13 15.8506 13 16.5C13 18.9853 17.9249 21 24 21C30.0751 21 35 18.9853 35 16.5C35 15.8725 34.686 15.275 34.1189 14.7324Z" fill="#333333"/>
</svg>
