<svg width="48" height="48" viewBox="0 0 48 48" fill="none" xmlns="http://www.w3.org/2000/svg">
<path d="M4 20.0694C4 14.5082 8.50824 10 14.0694 10H21.9306C27.4918 10 32 14.5082 32 20.0694C32 25.6306 27.4918 30.1389 21.9306 30.1389H16V35C16 35 4 32.5694 4 20.0694Z" fill="#333333"/>
<path fill-rule="evenodd" clip-rule="evenodd" d="M24.4775 31.867C25.9251 33.2569 27.8908 34.1111 30.056 34.1111H33.0005V38C33.0005 38 44.0005 36.0556 44.0005 26.0556C44.0005 21.6066 40.3939 18 35.9449 18H33.7354C33.908 18.6562 34 19.3451 34 20.0556C34 25.8503 29.9209 30.6923 24.4775 31.867Z" fill="#333333"/>
</svg>
