<svg width="48" height="48" viewBox="0 0 48 48" fill="none" xmlns="http://www.w3.org/2000/svg">
<path fill-rule="evenodd" clip-rule="evenodd" d="M14.5 13C16.433 13 18 11.433 18 9.5C18 7.567 16.433 6 14.5 6C12.567 6 11 7.567 11 9.5C11 11.433 12.567 13 14.5 13ZM19.6486 20C19.6984 20.3524 19.7424 20.7287 19.7806 21.1216C19.9992 23.3666 20 25.8009 20 26.4998C20 27.3282 20.6716 27.9998 21.5 27.9998C22.3284 27.9998 23 27.3282 23 26.4998V26.493C23 25.7857 23 23.2288 22.7665 20.8308C22.6508 19.6418 22.4698 18.4015 22.1696 17.4252C22.0223 16.9462 21.8147 16.4227 21.499 15.9892C21.1824 15.5547 20.59 15 19.6886 15H9.31135C8.41 15 7.81755 15.5547 7.50104 15.9892C7.18529 16.4227 6.9777 16.9462 6.83042 17.4252C6.53022 18.4015 6.34925 19.6418 6.23348 20.8308C5.99999 23.2288 6 25.7857 6 26.493V26.4998C6 27.3282 6.67157 27.9998 7.5 27.9998C8.32843 27.9998 9 27.3282 9 26.4998C9 25.8009 9.00076 23.3666 9.21936 21.1216C9.25761 20.7287 9.30161 20.3524 9.35144 20H10L9.99999 40.4999C9.99999 41.305 10.6356 41.9666 11.4401 41.9987C12.2446 42.0308 12.931 41.4221 12.9952 40.6195L13.8448 30H15.1552L16.0048 40.6196C16.069 41.4222 16.7554 42.0309 17.5599 41.9988C18.3644 41.9667 19 41.3051 19 40.5V20H19.6486Z" fill="#333333"/>
<path fill-rule="evenodd" clip-rule="evenodd" d="M27 12C27 9.79086 28.7909 8 31 8H35C37.2091 8 39 9.79086 39 12H37C37 10.8954 36.1046 10 35 10H31C29.8954 10 29 10.8954 29 12C29 13.1046 29.8954 14 31 14H35C37.2091 14 39 15.7909 39 18C39 20.2091 37.2091 22 35 22H31C28.7909 22 27 20.2091 27 18H29C29 19.1046 29.8954 20 31 20H35C36.1046 20 37 19.1046 37 18C37 16.8954 36.1046 16 35 16H31C28.7909 16 27 14.2091 27 12Z" fill="#333333"/>
<path fill-rule="evenodd" clip-rule="evenodd" d="M32 24V6H34L34 24H32Z" fill="#333333"/>
<path fill-rule="evenodd" clip-rule="evenodd" d="M24 35C24 33.3431 25.3431 32 27 32H39C40.6569 32 42 33.3431 42 35V39H24V35ZM27 34C26.4477 34 26 34.4477 26 35V37H40V35C40 34.4477 39.5523 34 39 34H27Z" fill="#333333"/>
<path fill-rule="evenodd" clip-rule="evenodd" d="M24 42V38H26V42H24Z" fill="#333333"/>
<path fill-rule="evenodd" clip-rule="evenodd" d="M40 42V38H42V42H40Z" fill="#333333"/>
<path fill-rule="evenodd" clip-rule="evenodd" d="M38 33V26H40V33H38Z" fill="#333333"/>
<path fill-rule="evenodd" clip-rule="evenodd" d="M30 32V28H32V32H30Z" fill="#333333"/>
<path fill-rule="evenodd" clip-rule="evenodd" d="M34 32V28H36V32H34Z" fill="#333333"/>
<path fill-rule="evenodd" clip-rule="evenodd" d="M26 33V26H28V33H26Z" fill="#333333"/>
<path fill-rule="evenodd" clip-rule="evenodd" d="M40 29L26 29V27L40 27V29Z" fill="#333333"/>
</svg>
