<svg width="48" height="48" viewBox="0 0 48 48" fill="none" xmlns="http://www.w3.org/2000/svg">
<path fill-rule="evenodd" clip-rule="evenodd" d="M29 14H19L18 15V42C18 43.0747 18.8493 43.9573 19.9232 43.9985C20.9972 44.0398 21.9117 43.2249 21.9941 42.1534L22.9941 29.1534C22.998 29.1022 23 29.051 23 29H25C25 29.051 25.002 29.1022 25.0059 29.1534L26.0059 42.1534C26.0883 43.2249 27.0028 44.0398 28.0768 43.9985C29.1507 43.9573 30 43.0747 30 42V15L29 14Z" fill="#333333"/>
<path d="M28 8C28 10.2091 26.2091 12 24 12C21.7909 12 20 10.2091 20 8C20 5.79086 21.7909 4 24 4C26.2091 4 28 5.79086 28 8Z" fill="#333333"/>
<path fill-rule="evenodd" clip-rule="evenodd" d="M17 26C17 27.1046 16.1046 28 15 28C13.8954 28 13 27.1046 13 26C13 25.227 13.026 22.5687 13.5082 20.06C13.7458 18.8236 14.1243 17.4534 14.773 16.3428C15.4241 15.2281 16.595 14 18.4444 14H20C21.1046 14 22 14.8954 22 16C22 17.1046 21.1046 18 20 18H18.4963C18.4474 18.0404 18.3561 18.1392 18.227 18.3603C17.9173 18.8904 17.6431 19.7389 17.4363 20.815C17.0295 22.9313 17 25.273 17 26ZM18.5377 17.976C18.5375 17.9736 18.5267 17.9766 18.5058 17.9924C18.5274 17.9864 18.5379 17.9784 18.5377 17.976ZM31 26C31 27.1046 31.8954 28 33 28C34.1046 28 35 27.1046 35 26C35 25.227 34.974 22.5687 34.4918 20.06C34.2542 18.8236 33.8757 17.4534 33.227 16.3428C32.5759 15.2281 31.405 14 29.5556 14H28C26.8954 14 26 14.8954 26 16C26 17.1046 26.8954 18 28 18H29.5037C29.5526 18.0404 29.6439 18.1392 29.773 18.3603C30.0827 18.8904 30.3569 19.7389 30.5637 20.815C30.9705 22.9313 31 25.273 31 26ZM29.4623 17.976C29.4625 17.9736 29.4733 17.9766 29.4942 17.9924C29.4726 17.9864 29.4621 17.9784 29.4623 17.976Z" fill="#333333"/>
</svg>
