<svg width="48" height="48" viewBox="0 0 48 48" fill="none" xmlns="http://www.w3.org/2000/svg">
<path fill-rule="evenodd" clip-rule="evenodd" d="M27.2871 19.7049C27.4248 19.3293 27.5 18.9234 27.5 18.5C27.5 18.2185 27.4668 17.9449 27.404 17.6826C28.5096 17.5627 29.5582 17.3823 30.4921 17.1415C31.0192 17.0056 31.5582 17.3162 31.7048 17.8404C31.8974 18.5285 32 19.2531 32 20C32 24.4183 28.4183 28 24 28C19.5817 28 16 24.4183 16 20C16 19.2531 16.1026 18.5285 16.2952 17.8404C16.4418 17.3162 16.9808 17.0056 17.5079 17.1415C18.4418 17.3823 19.4904 17.5627 20.596 17.6826C20.5332 17.9449 20.5 18.2185 20.5 18.5C20.5 18.9234 20.5752 19.3293 20.7129 19.7049C19.7814 19.6141 18.881 19.4837 18.0387 19.3137C18.0132 19.5387 18 19.7677 18 20C18 23.3137 20.6863 26 24 26C27.3137 26 30 23.3137 30 20C30 19.7677 29.9868 19.5387 29.9613 19.3137C29.119 19.4837 28.2186 19.6141 27.2871 19.7049Z" fill="#333333"/>
<path fill-rule="evenodd" clip-rule="evenodd" d="M28 7.88184V12.4805C28 13.0327 28.4477 13.4805 29 13.4805C29.5523 13.4805 30 13.0327 30 12.4805V9.13118C30.9947 9.96602 31.6972 10.9599 32.0991 11.9492C32.1928 11.9941 32.2718 12.0349 32.335 12.0708C32.5512 12.8737 32.5466 13.6127 32.3516 14.1693C32.169 14.6906 32.4434 15.2611 32.9647 15.4437C33.4859 15.6264 34.0565 15.3519 34.2391 14.8306C34.2994 14.6583 34.3492 14.4816 34.3886 14.3013C36.9667 17.886 30.9466 19.7373 24.6437 19.8552C25.15 19.6143 25.5 19.098 25.5 18.5C25.5 17.6716 24.8284 17 24 17C23.1716 17 22.5 17.6716 22.5 18.5C22.5 19.098 22.85 19.6143 23.3563 19.8552C17.0603 19.7375 11.0466 17.8901 13.6028 14.3132C13.641 14.494 13.6901 14.6693 13.7506 14.8378C13.9372 15.3576 14.5098 15.6278 15.0296 15.4412C15.5494 15.2546 15.8196 14.682 15.633 14.1621C15.4612 13.6835 15.4355 12.9214 15.6783 12.0113C15.7702 11.9251 15.8642 11.842 15.9603 11.7619C16.3648 10.7779 17.0396 9.78034 18 8.95421V12.4805C18 13.0327 18.4477 13.4805 19 13.4805C19.5523 13.4805 20 13.0327 20 12.4805V7.70959C20.8677 7.3368 21.8662 7.08854 23 7.01954V10.4805C23 11.0327 23.4477 11.4805 24 11.4805C24.5523 11.4805 25 11.0327 25 10.4805V7.07488C26.1235 7.20249 27.1243 7.48713 28 7.88184ZM24 6C24.5523 6 25 6.44771 25 6.99999L23 6.99999C23 6.44771 23.4477 6 24 6Z" fill="#333333"/>
<path fill-rule="evenodd" clip-rule="evenodd" d="M24 20C24.8284 20 25.5 19.3284 25.5 18.5C25.5 17.6716 24.8284 17 24 17C23.1716 17 22.5 17.6716 22.5 18.5C22.5 19.3284 23.1716 20 24 20ZM24 22C25.933 22 27.5 20.433 27.5 18.5C27.5 16.567 25.933 15 24 15C22.067 15 20.5 16.567 20.5 18.5C20.5 20.433 22.067 22 24 22Z" fill="#333333"/>
<path fill-rule="evenodd" clip-rule="evenodd" d="M16 42H32V29.1345C30.8136 28.8304 29.616 28.5844 28.4663 28.4003L25 31L23 31L19.5337 28.4003C18.384 28.5844 17.1864 28.8304 16 29.1345V42ZM14 29.7083C13.3134 29.9278 12.6426 30.167 12 30.4254V42H14V29.7083ZM34 42H36V30.4254C35.3574 30.167 34.6866 29.9278 34 29.7083V42ZM6 36C6 34.1667 7.63499 32.5965 10 31.3451V42H6V36ZM38 42V31.3451C40.365 32.5965 42 34.1667 42 36V42H38ZM24 39C25.1046 39 26 38.1046 26 37C26 35.8954 25.1046 35 24 35C22.8954 35 22 35.8954 22 37C22 38.1046 22.8954 39 24 39Z" fill="#333333"/>
</svg>
