<svg width="48" height="48" viewBox="0 0 48 48" fill="none" xmlns="http://www.w3.org/2000/svg">
<path fill-rule="evenodd" clip-rule="evenodd" d="M15.5 13C17.433 13 19 11.433 19 9.5C19 7.567 17.433 6 15.5 6C13.567 6 12 7.567 12 9.5C12 11.433 13.567 13 15.5 13ZM10 20H9.78902C9.70344 20.3841 9.62326 20.7973 9.54918 21.2295C9.16231 23.4866 9 25.9007 9 26.4998C9 27.3282 8.32843 27.9998 7.5 27.9998C6.67157 27.9998 6 27.3282 6 26.4998C6 25.7023 6.18201 23.1164 6.5923 20.7227C6.79669 19.5302 7.07231 18.2949 7.44557 17.3264C7.62933 16.8497 7.87179 16.3431 8.20554 15.9298C8.53042 15.5275 9.12379 14.9998 10 14.9998H11.1886L11.2139 15H20V15.023C20.6591 15.1209 21.1502 15.512 21.4463 15.8035C21.8197 16.1711 22.1426 16.6368 22.4181 17.1034C22.9749 18.0464 23.4938 19.2632 23.9321 20.4605C24.3752 21.6705 24.7582 22.9223 25.0321 23.9681C25.1691 24.4909 25.2817 24.9738 25.3613 25.3822C25.4346 25.7582 25.5 26.1686 25.5 26.4998C25.5 27.3282 24.8284 27.9998 24 27.9998C23.1716 27.9998 22.5 27.3282 22.5 26.4998C22.5001 26.5021 22.5 26.5015 22.5 26.4998C22.4995 26.4905 22.4968 26.4459 22.4848 26.3569C22.4711 26.2545 22.4489 26.1209 22.4167 25.9561C22.3526 25.6267 22.2558 25.2083 22.13 24.7282C21.8786 23.7682 21.5234 22.6073 21.115 21.4919C20.9219 20.9644 20.7216 20.4603 20.52 20H20V40.5C20 41.3051 19.3644 41.9667 18.5599 41.9988C17.7554 42.0309 17.069 41.4222 17.0048 40.6196L16.1552 30H13.8448L12.9952 40.6195C12.931 41.4221 12.2446 42.0308 11.4401 41.9987C10.6356 41.9666 9.99999 41.305 9.99999 40.4999L10 20Z" fill="#333333"/>
<path fill-rule="evenodd" clip-rule="evenodd" d="M32.5 13C30.567 13 29 11.433 29 9.5C29 7.567 30.567 6 32.5 6C34.433 6 36 7.567 36 9.5C36 11.433 34.433 13 32.5 13ZM38 20H38.211C38.2966 20.3841 38.3767 20.7973 38.4508 21.2295C38.8377 23.4866 39 25.9007 39 26.4998C39 27.3282 39.6716 27.9998 40.5 27.9998C41.3284 27.9998 42 27.3282 42 26.4998C42 25.7023 41.818 23.1164 41.4077 20.7227C41.2033 19.5302 40.9277 18.2949 40.5544 17.3264C40.3707 16.8497 40.1282 16.3431 39.7945 15.9298C39.4696 15.5275 38.8762 14.9998 38 14.9998H37L36.9748 15H28V15.023C27.3409 15.1209 26.8498 15.512 26.5537 15.8035C26.1803 16.1711 25.8574 16.6368 25.5819 17.1034C25.0251 18.0464 24.5062 19.2632 24.0679 20.4605C23.6248 21.6705 23.2418 22.9223 22.9679 23.9681C22.8309 24.4909 22.7183 24.9738 22.6387 25.3822C22.5654 25.7582 22.5 26.1686 22.5 26.4998C22.5 27.3282 23.1716 27.9998 24 27.9998C24.8284 27.9998 25.5 27.3282 25.5 26.4998C25.4999 26.5021 25.5 26.5015 25.5 26.4998C25.5005 26.4905 25.5032 26.4459 25.5152 26.3569C25.5289 26.2545 25.5511 26.1209 25.5833 25.9561C25.6474 25.6267 25.7442 25.2083 25.87 24.7282C26.1214 23.7682 26.4766 22.6073 26.885 21.4919C27.0781 20.9644 27.2784 20.4603 27.48 20H28V40.5C28 41.3051 28.6356 41.9667 29.4401 41.9988C30.2446 42.0309 30.931 41.4222 30.9952 40.6196L31.8448 30H34.1552L35.0048 40.6195C35.069 41.4221 35.7554 42.0308 36.5599 41.9987C37.3644 41.9666 38 41.305 38 40.4999L38 20Z" fill="#333333"/>
</svg>
