<svg width="48" height="48" viewBox="0 0 48 48" fill="none" xmlns="http://www.w3.org/2000/svg">
<path d="M26.5 8.5C26.5 10.9853 24.4853 13 22 13C19.5147 13 17.5 10.9853 17.5 8.5C17.5 6.01472 19.5147 4 22 4C24.4853 4 26.5 6.01472 26.5 8.5Z" fill="#333333"/>
<path fill-rule="evenodd" clip-rule="evenodd" d="M32 28C32 26.3431 33.3431 25 35 25C36.6569 25 38 26.3431 38 28V42.9456C38 43.4979 37.5523 43.9456 37 43.9456C36.4477 43.9456 36 43.4979 36 42.9456V28C36 27.4477 35.5523 27 35 27C34.4477 27 34 27.4477 34 28V28.343C34 28.8953 33.5523 29.343 33 29.343C32.4477 29.343 32 28.8953 32 28.343V28Z" fill="#333333"/>
<path fill-rule="evenodd" clip-rule="evenodd" d="M16 18H28V42C28 43.0658 27.1642 43.9444 26.0996 43.9975C25.0351 44.0506 24.116 43.2596 24.0099 42.199L23.0099 32.199C23.0033 32.1326 23 32.0662 23 32H21C21 32.0662 20.9967 32.1326 20.9901 32.199L19.9901 42.199C19.884 43.2596 18.9649 44.0506 17.9004 43.9975C16.8359 43.9444 16 43.0658 16 42V18Z" fill="#333333"/>
<path fill-rule="evenodd" clip-rule="evenodd" d="M11.9188 17.0013C13.211 15.7416 15.0496 15 17.2549 15H24.5759C29.5475 15 32.5189 16.722 34.1944 18.7586C34.9985 19.736 35.4437 20.7139 35.6894 21.4539C35.8353 21.8933 35.9494 22.3475 35.9975 22.8073L35.9989 22.8218L35.9995 22.8281L35.9998 22.8311C36.0046 23.1051 35.9975 22.8073 36 22.8339C36.0953 23.9347 35.2453 24.9014 34.1014 24.9931C32.9668 25.0841 31.9693 24.2802 31.86 23.193L31.8598 23.1915C31.8583 23.1802 31.854 23.1506 31.8453 23.1051C31.8277 23.0137 31.7932 22.8623 31.7297 22.6711C31.6019 22.2861 31.3651 21.764 30.9352 21.2414C30.1426 20.278 28.4376 19 24.5759 19H17.2549C16.0542 19 15.316 19.3834 14.8772 19.8112C14.4158 20.261 14.1634 20.8781 14.157 21.5192C14.1506 22.1589 14.3889 22.7593 14.8314 23.1934C15.2529 23.607 15.9936 24 17.2549 24C18.4028 24 19.3333 24.8954 19.3333 26C19.3333 27.1046 18.4028 28 17.2549 28C15.0204 28 13.1617 27.268 11.8635 25.9941C10.5862 24.7407 9.98424 23.0911 10.0003 21.4808C10.0164 19.8719 10.6491 18.239 11.9188 17.0013Z" fill="#333333"/>
</svg>
