<svg width="48" height="48" viewBox="0 0 48 48" fill="none" xmlns="http://www.w3.org/2000/svg">
<path fill-rule="evenodd" clip-rule="evenodd" d="M10 24C11.1046 24 12 24.8954 12 26V40C12 41.1046 11.1046 42 10 42C8.89543 42 8 41.1046 8 40V26C8 24.8954 8.89543 24 10 24Z" fill="#333333"/>
<path d="M14.5 17C12.6429 19.2704 9.84968 24.6428 9.84968 31C9.84968 31 8 27.8001 8 25.9716C8 21.5392 10.7857 17 14.5 17Z" fill="#333333"/>
<path fill-rule="evenodd" clip-rule="evenodd" d="M8.20889 18.6908C9.59795 16.6697 11.7643 15 14.5 15C15.4129 15 16.2099 15.6182 16.4371 16.5023L17.9083 22.2288H21.5C22.6046 22.2288 23.5 23.1242 23.5 24.2288C23.5 25.3334 22.6046 26.2288 21.5 26.2288H16.3571C15.4442 26.2288 14.6472 25.6106 14.42 24.7265L13.7632 22.1696C12.7189 24.5439 11.8497 27.622 11.8497 31C11.8497 31.905 11.2419 32.6973 10.3678 32.9317C9.4937 33.1662 8.57106 32.7844 8.11815 32.0009L9.84968 31C8.11815 32.0009 8.11828 32.0011 8.11815 32.0009L8.11485 31.9952L8.10888 31.9848L8.08929 31.9504C8.07293 31.9216 8.05011 31.881 8.02175 31.83C7.96508 31.7279 7.88598 31.5832 7.7919 31.405C7.60461 31.0501 7.35359 30.554 7.10071 29.9916C6.64476 28.9774 6 27.363 6 25.9716C6 23.3668 6.81023 20.7259 8.20889 18.6908Z" fill="#333333"/>
<path fill-rule="evenodd" clip-rule="evenodd" d="M21.9348 10.7234C21.5943 12.5872 19.9621 14 18 14C15.7909 14 14 12.2091 14 10C14 9.73628 14.0255 9.47852 14.0742 9.22906C15.6003 10.1551 16.9291 10.6771 18.314 10.8666C19.4897 11.0276 20.6533 10.9406 21.9348 10.7234ZM14.9456 7.41715C15.6793 6.55032 16.7754 6 18 6C19.7608 6 21.2559 7.13777 21.7902 8.71824C20.5293 8.94283 19.5397 9.01578 18.5852 8.88512C17.5055 8.73733 16.3934 8.31698 14.9456 7.41715Z" fill="#333333"/>
<path d="M41 14C41 16.2091 39.2091 18 37 18C34.7909 18 33 16.2091 33 14C33 11.7909 34.7909 10 37 10C39.2091 10 41 11.7909 41 14Z" fill="#333333"/>
<path fill-rule="evenodd" clip-rule="evenodd" d="M31.2217 18.0448C32.1441 17.8462 33.0798 18.3191 33.4668 19.1796L36.1148 25.0667H40C41.1046 25.0667 42 25.9621 42 27.0667C42 28.1712 41.1046 29.0667 40 29.0667H34.8214C34.0343 29.0667 33.3203 28.605 32.9974 27.8871L30.7793 22.9557C30.0335 23.8423 29.0651 25.6649 29.0031 29.2956C29.0586 29.3383 29.1325 29.3908 29.2291 29.4515C29.7335 29.7691 30.4995 30.0976 31.4063 30.41C32.2896 30.7144 33.1994 30.968 33.9421 31.1672C34.0678 31.201 34.193 31.2343 34.3134 31.2663C34.5332 31.3247 34.7373 31.379 34.8998 31.424C35.0276 31.4594 35.1602 31.4974 35.2773 31.5351C35.2794 31.5357 35.2823 31.5366 35.2859 31.5378C35.3472 31.5571 35.6139 31.641 35.8613 31.7916C36.183 31.9874 36.4074 32.2549 36.453 32.3093C36.4555 32.3122 36.4574 32.3146 36.4588 32.3162C36.5523 32.4257 36.6455 32.5469 36.7299 32.6606C36.9017 32.8923 37.1055 33.1866 37.3204 33.5061C37.7536 34.15 38.2833 34.9727 38.7914 35.7738C39.3013 36.5778 39.7972 37.3725 40.1652 37.9653C40.3493 38.2619 40.5017 38.5086 40.6082 38.6812L40.7757 38.9534C40.7758 38.9535 40.776 38.9538 39.0714 40L37.3669 41.0462L37.2036 40.7809C37.0988 40.611 36.9484 40.3676 36.7666 40.0747C36.4026 39.4883 35.914 38.7054 35.4134 37.9161C34.911 37.1238 34.4042 36.3373 34.0015 35.7388C33.8671 35.5389 33.7497 35.3682 33.6516 35.2297C33.5511 35.2026 33.4402 35.1731 33.3169 35.1403C33.193 35.1074 33.0566 35.0711 32.9056 35.0306C32.1428 34.8259 31.1232 34.5432 30.1032 34.1918C29.1066 33.8484 27.9952 33.4014 27.0981 32.8366C26.6494 32.5541 26.1655 32.1878 25.7761 31.7156C25.3792 31.2344 25 30.5401 25 29.6667C25 24.9641 26.268 22.0449 27.8129 20.2701C28.573 19.397 29.3563 18.8533 29.9857 18.522C30.299 18.357 30.5726 18.2454 30.7848 18.1714C30.891 18.1344 30.9822 18.1066 31.0557 18.0862C31.0925 18.076 31.125 18.0676 31.1527 18.0608C31.1666 18.0574 31.1793 18.0544 31.1908 18.0517L31.2072 18.048L31.2147 18.0464L31.2183 18.0456C31.22 18.0452 31.2217 18.0448 31.6429 20L31.2217 18.0448ZM34.0893 35.3557C34.0883 35.3557 34.076 35.3517 34.0551 35.3437C34.0798 35.3517 34.0902 35.3557 34.0893 35.3557ZM33.4264 34.9252C33.393 34.8899 33.388 34.8797 33.4166 34.9132C33.4185 34.9156 33.4218 34.9195 33.4264 34.9252ZM39.0714 40L37.3669 41.0462C37.9447 41.9876 39.1762 42.2823 40.1176 41.7046C41.059 41.1268 41.3535 39.8948 40.7757 38.9534L39.0714 40Z" fill="#333333"/>
<path fill-rule="evenodd" clip-rule="evenodd" d="M32.36 20.774C33.0371 21.2514 33.199 22.1872 32.7217 22.8643C31.5647 24.5054 30.9333 25.7719 30.6142 27.121C30.291 28.4869 30.2595 30.0558 30.4883 32.3512C30.5705 33.1756 29.9688 33.9104 29.1445 33.9926C28.3201 34.0748 27.5853 33.4731 27.5031 32.6488C27.2609 30.2195 27.2599 28.2682 27.6948 26.4303C28.1336 24.5755 28.9877 22.9543 30.2697 21.1357C30.747 20.4586 31.6829 20.2967 32.36 20.774Z" fill="#333333"/>
<path d="M15 32H30V35H15V32Z" fill="#333333"/>
<path d="M15 42V34H17V42H15Z" fill="#333333"/>
<path d="M28 42V34H30V42H28Z" fill="#333333"/>
<path d="M25 9.5C25 10.8807 24.3284 12 23.5 12C22.6716 12 22 10.8807 22 9.5C22 8.11929 22.6716 7 23.5 7C24.3284 7 25 8.11929 25 9.5Z" fill="#333333"/>
</svg>
