<svg width="48" height="48" viewBox="0 0 48 48" fill="none" xmlns="http://www.w3.org/2000/svg">
<path fill-rule="evenodd" clip-rule="evenodd" d="M24 24C28.4183 24 32 20.4183 32 16C32 11.5817 28.4183 8 24 8C19.5817 8 16 11.5817 16 16C16 20.4183 19.5817 24 24 24ZM24 26C29.5228 26 34 21.5228 34 16C34 10.4772 29.5228 6 24 6C18.4772 6 14 10.4772 14 16C14 21.5228 18.4772 26 24 26Z" fill="#333333"/>
<path fill-rule="evenodd" clip-rule="evenodd" d="M36 25.5C36.5523 25.5 37 25.9477 37 26.5V41C37 41.5523 36.5523 42 36 42C35.4477 42 35 41.5523 35 41V26.5C35 25.9477 35.4477 25.5 36 25.5Z" fill="#333333"/>
<path d="M37.4382 29.3839C38.8215 28.6105 40.6013 29.1839 41.4723 29.5559C41.8051 29.698 42.0008 30.0324 41.9602 30.3919C41.8575 31.3007 41.4901 33.0122 40.1752 33.6232C38.9039 34.2139 37.411 33.9815 36.6226 33.7862C36.2757 33.7002 36.0322 33.4068 36.0119 33.05C35.9569 32.0853 36.0394 30.166 37.4382 29.3839Z" fill="#333333"/>
<path d="M37.4382 35.3839C38.8215 34.6105 40.6013 35.1839 41.4723 35.5559C41.8051 35.698 42.0008 36.0324 41.9602 36.3919C41.8575 37.3007 41.4901 39.0122 40.1752 39.6232C38.9039 40.2139 37.411 39.9815 36.6226 39.7862C36.2757 39.7002 36.0322 39.4068 36.0119 39.05C35.9569 38.0853 36.0394 36.166 37.4382 35.3839Z" fill="#333333"/>
<path d="M33 24C33 22.0969 34.7385 20.7733 35.5686 20.2497C35.8348 20.0818 36.1652 20.0818 36.4314 20.2497C37.2615 20.7733 39 22.0969 39 24C39 26.5 36 28 36 28C36 28 33 26.5 33 24Z" fill="#333333"/>
<path d="M34.5618 29.3839C33.1785 28.6105 31.3987 29.1839 30.5277 29.5559C30.1949 29.698 29.9992 30.0324 30.0398 30.3919C30.1425 31.3007 30.5099 33.0122 31.8248 33.6232C33.0961 34.2139 34.589 33.9815 35.3774 33.7862C35.7243 33.7002 35.9678 33.4068 35.9881 33.05C36.0431 32.0853 35.9606 30.166 34.5618 29.3839Z" fill="#333333"/>
<path d="M34.5618 35.3839C33.1785 34.6105 31.3987 35.1839 30.5277 35.5559C30.1949 35.698 29.9992 36.0324 30.0398 36.3919C30.1425 37.3007 30.5099 39.0122 31.8248 39.6232C33.0961 40.2139 34.589 39.9815 35.3774 39.7862C35.7243 39.7002 35.9678 39.4068 35.9881 39.05C36.0431 38.0853 35.9606 36.166 34.5618 35.3839Z" fill="#333333"/>
<path fill-rule="evenodd" clip-rule="evenodd" d="M14 34.9999V29.2286C9.68906 30.3375 6 32.303 6 35.5383V41.9998H12V39.9999V35.9999C12 35.4476 12.4477 34.9999 13 34.9999L14 34.9999ZM16 34.9999L18 34.9999C18 34.9999 20.5 35.9999 24 35.9999C25.1599 35.9999 26.21 35.89 27.0957 35.7432C27.2952 34.9741 27.7961 34.3024 28.5024 33.896C28.394 33.7428 28.3003 33.5952 28.2199 33.459C27.8735 32.873 27.6381 32.2719 27.4794 31.7898C27.4415 31.6748 27.4066 31.5621 27.3744 31.4528C27.016 31.7919 26.5323 31.9998 26 31.9998H22C20.8954 31.9998 20 31.1044 20 29.9998V28.2061C18.7099 28.3318 17.3478 28.5194 16 28.7804V34.9999ZM28 36.7831V36.7832C28.2584 36.746 28.5856 36.699 29 36.6394L28 36.7831ZM27.191 37.7534C26.2622 37.8968 25.1834 37.9999 24 37.9999C22.0634 37.9999 20.4068 37.7237 19.2294 37.4467C18.639 37.3078 18.1639 37.1674 17.8283 37.0586C17.7643 37.0378 17.7053 37.0182 17.6514 36.9999H14V39.9999H27.9709C27.7559 39.5676 27.5967 39.1462 27.4794 38.7898C27.3526 38.4048 27.2586 38.0459 27.191 37.7534ZM28 29.7833V29.7831L29 29.6394V29.6394L28 29.7833ZM29.7967 28.9999L29.5437 28.3829L29.5437 28.3829L29.7967 28.9999Z" fill="#333333"/>
</svg>
