<svg width="48" height="48" viewBox="0 0 48 48" fill="none" xmlns="http://www.w3.org/2000/svg">
<path fill-rule="evenodd" clip-rule="evenodd" d="M8 16C6.89543 16 6 16.8954 6 18C6 19.1046 6.89543 20 8 20H15V40C15 41.1046 15.8954 42 17 42C18.1046 42 19 41.1046 19 40L19 31H22V40C22 41.1046 22.8954 42 24 42C25.1046 42 26 41.1046 26 40V27.917C28.8377 27.441 31 24.973 31 22C31 18.6863 28.3137 16 25 16H8ZM28 22C28 20.8954 27.1046 20 26 20V24C27.1046 24 28 23.1046 28 22Z" fill="#333333"/>
<path d="M24 9.5C24 11.433 22.433 13 20.5 13C18.567 13 17 11.433 17 9.5C17 7.567 18.567 6 20.5 6C22.433 6 24 7.567 24 9.5Z" fill="#333333"/>
<path fill-rule="evenodd" clip-rule="evenodd" d="M20.5 11C21.3284 11 22 10.3284 22 9.5C22 8.67157 21.3284 8 20.5 8C19.6716 8 19 8.67157 19 9.5C19 10.3284 19.6716 11 20.5 11ZM20.5 13C22.433 13 24 11.433 24 9.5C24 7.567 22.433 6 20.5 6C18.567 6 17 7.567 17 9.5C17 11.433 18.567 13 20.5 13Z" fill="#333333"/>
<path fill-rule="evenodd" clip-rule="evenodd" d="M36 17C36.5522 17 37 17.4477 37 18V40.9999C37 41.5522 36.5522 41.9999 36 41.9999C35.4477 41.9999 35 41.5522 35 40.9999V18C35 17.4477 35.4477 17 36 17Z" fill="#333333"/>
<path d="M33.5 14.5C33.5 12.6226 36 10.5 36 10.5C36 10.5 38.5 12.6226 38.5 14.5C38.5 16.3774 36 18.5 36 18.5C36 18.5 33.5 16.3774 33.5 14.5Z" fill="#333333"/>
<path d="M37.8774 34.8153C39.032 33.6725 41.9601 34.0651 41.9601 34.0651C41.9601 34.0651 42.2773 37.0419 41.1226 38.1847C39.968 39.3275 37.0399 38.9349 37.0399 38.9349C37.0399 38.9349 36.7227 35.9581 37.8774 34.8153Z" fill="#333333"/>
<path d="M37.8774 20.8153C39.032 19.6725 41.9601 20.0651 41.9601 20.0651C41.9601 20.0651 42.2773 23.0419 41.1226 24.1847C39.968 25.3275 37.0399 24.9349 37.0399 24.9349C37.0399 24.9349 36.7227 21.9581 37.8774 20.8153Z" fill="#333333"/>
<path d="M34.1226 27.8153C35.2773 28.9581 34.9601 31.9349 34.9601 31.9349C34.9601 31.9349 32.032 32.3275 30.8774 31.1847C29.7227 30.0419 30.0399 27.0651 30.0399 27.0651C30.0399 27.0651 32.968 26.6725 34.1226 27.8153Z" fill="#333333"/>
<path fill-rule="evenodd" clip-rule="evenodd" d="M5 35C5 33.3431 6.34315 32 8 32C9.65685 32 11 33.3431 11 35V41H9V35C9 34.4477 8.55228 34 8 34C7.44772 34 7 34.4477 7 35V41H5V35Z" fill="#333333"/>
<path d="M6 34H10V37H6V34Z" fill="#333333"/>
<path fill-rule="evenodd" clip-rule="evenodd" d="M9 13V33H7V13H9Z" fill="#333333"/>
</svg>
