<svg width="48" height="48" viewBox="0 0 48 48" fill="none" xmlns="http://www.w3.org/2000/svg">
<path fill-rule="evenodd" clip-rule="evenodd" d="M10.0485 36.9807C10.1672 37.0796 10.2 37.1783 10.2 37.25C10.2 37.3257 10.1623 37.4356 10.0217 37.5404C10.0138 37.5463 10.006 37.5524 9.99827 37.5586L6.49827 40.3769C6.23401 40.5897 6.13271 40.946 6.24553 41.266C6.35834 41.586 6.66072 41.8 7.00001 41.8H11C11.4418 41.8 11.8 41.4418 11.8 41C11.8 40.5582 11.4418 40.2 11 40.2H9.26908L10.9915 38.8131C11.4579 38.4597 11.8 37.9085 11.8 37.25C11.8 35.9874 10.6275 35.2 9.50001 35.2H8.50001C7.58498 35.2 6.70177 35.6889 6.34887 36.521C6.17635 36.9277 6.36623 37.3973 6.77298 37.5698C7.17974 37.7423 7.64933 37.5525 7.82185 37.1457C7.88078 37.0068 8.10881 36.8 8.50001 36.8H9.50001C9.73682 36.8 9.92816 36.8804 10.0485 36.9807Z" fill="#333333"/>
<path fill-rule="evenodd" clip-rule="evenodd" d="M35.8685 35.2109C35.4327 35.2835 35.1383 35.6957 35.2109 36.1315L36.0442 41.1315C36.0998 41.4653 36.3594 41.7279 36.6925 41.7875C37.0255 41.8471 37.3601 41.6907 37.5279 41.3969L38.5 39.6958L39.4721 41.3969C39.6399 41.6907 39.9745 41.8471 40.3075 41.7875C40.6406 41.7279 40.9002 41.4653 40.9558 41.1315L41.7891 36.1315C41.8618 35.6957 41.5673 35.2835 41.1315 35.2109C40.6957 35.1383 40.2835 35.4327 40.2109 35.8685L39.7468 38.6528L39.1946 37.6864C39.0522 37.4372 38.7871 37.2833 38.5 37.2833C38.2129 37.2833 37.9478 37.4372 37.8054 37.6864L37.2532 38.6528L36.7891 35.8685C36.7165 35.4327 36.3043 35.1383 35.8685 35.2109Z" fill="#333333"/>
<path fill-rule="evenodd" clip-rule="evenodd" d="M25.5485 36.9807C25.6672 37.0796 25.7 37.1783 25.7 37.25C25.7 37.3257 25.6623 37.4356 25.5217 37.5404C25.5138 37.5463 25.506 37.5524 25.4983 37.5586L21.9983 40.3769C21.734 40.5897 21.6327 40.946 21.7455 41.266C21.8583 41.586 22.1607 41.8 22.5 41.8H26.5C26.9418 41.8 27.3 41.4418 27.3 41C27.3 40.5582 26.9418 40.2 26.5 40.2H24.7691L26.4915 38.8131C26.9579 38.4597 27.3 37.9085 27.3 37.25C27.3 35.9874 26.1275 35.2 25 35.2H24C23.085 35.2 22.2018 35.6889 21.8489 36.521C21.6763 36.9277 21.8662 37.3973 22.273 37.5698C22.6797 37.7423 23.1493 37.5525 23.3219 37.1457C23.3808 37.0068 23.6088 36.8 24 36.8H25C25.2368 36.8 25.4282 36.8804 25.5485 36.9807Z" fill="#333333"/>
<path fill-rule="evenodd" clip-rule="evenodd" d="M16.753 35.2411C17.0797 35.3499 17.3 35.6557 17.3 36V39.2H17.5C17.9418 39.2 18.3 39.5582 18.3 40C18.3 40.4418 17.9418 40.8 17.5 40.8H17.3V41C17.3 41.4418 16.9418 41.8 16.5 41.8C16.0582 41.8 15.7 41.4418 15.7 41V40.8H13.5C13.197 40.8 12.92 40.6288 12.7845 40.3578C12.649 40.0867 12.6782 39.7624 12.86 39.52L15.86 35.52C16.0666 35.2445 16.4263 35.1322 16.753 35.2411ZM15.7 39.2V38.4L15.1 39.2H15.7Z" fill="#333333"/>
<path fill-rule="evenodd" clip-rule="evenodd" d="M18.7 39C18.7 38.5582 19.0582 38.2 19.5 38.2H20.5C20.9418 38.2 21.3 38.5582 21.3 39C21.3 39.4418 20.9418 39.8 20.5 39.8H19.5C19.0582 39.8 18.7 39.4418 18.7 39Z" fill="#333333"/>
<path fill-rule="evenodd" clip-rule="evenodd" d="M31.1805 36.8C31.4323 36.8 31.6149 36.9508 31.6754 37.113C31.8298 37.5269 32.2906 37.7373 32.7046 37.5829C33.1185 37.4284 33.3289 36.9676 33.1745 36.5537C32.8727 35.7448 32.0777 35.2 31.1805 35.2H30.3195C29.1903 35.2 28.2 36.0776 28.2 37.25V39.75C28.2 40.9224 29.1903 41.8 30.3195 41.8H31.1805C32.3097 41.8 33.3 40.9224 33.3 39.75C33.3 38.5776 32.3097 37.7 31.1805 37.7H30.3195C30.1418 37.7 29.9675 37.7217 29.8 37.7629V37.25C29.8 37.0417 29.9913 36.8 30.3195 36.8H31.1805ZM29.8 39.75C29.8 39.5417 29.9913 39.3 30.3195 39.3H31.1805C31.5088 39.3 31.7 39.5417 31.7 39.75C31.7 39.9583 31.5088 40.2 31.1805 40.2H30.3195C29.9913 40.2 29.8 39.9583 29.8 39.75Z" fill="#333333"/>
<path fill-rule="evenodd" clip-rule="evenodd" d="M38.9846 32.0909C39.4851 32.3243 40.0801 32.1077 40.3135 31.6072C41.5892 28.8715 42.1564 25.859 41.963 22.8467C41.7696 19.8344 40.8218 16.9191 39.2067 14.3691C37.5917 11.819 35.3613 9.71601 32.7207 8.2536C30.0801 6.79119 27.1142 6.01631 24.0958 6.00025C21.0773 5.9842 18.1033 6.72747 15.4473 8.16171C12.7913 9.59594 10.5387 11.6751 8.89659 14.2078C7.2545 16.7406 6.27572 19.6456 6.05028 22.6556C5.82484 25.6657 6.35998 28.6841 7.60649 31.4332C7.83456 31.9362 8.4272 32.1591 8.93019 31.931C9.43319 31.7029 9.65606 31.1103 9.42799 30.6073C8.31999 28.1637 7.8443 25.4806 8.04469 22.805C8.24508 20.1294 9.11512 17.5472 10.5747 15.2958C12.0344 13.0445 14.0367 11.1964 16.3976 9.92151C18.7585 8.64664 21.4021 7.98595 24.0851 8.00022C26.7682 8.0145 29.4046 8.70328 31.7517 10.0032C34.0989 11.3031 36.0815 13.1724 37.5171 15.4392C38.9527 17.7059 39.7952 20.2973 39.9671 22.9748C40.139 25.6524 39.6348 28.3303 38.5009 30.762C38.2675 31.2625 38.484 31.8575 38.9846 32.0909Z" fill="#333333"/>
<path fill-rule="evenodd" clip-rule="evenodd" d="M28.1054 21.992C29.0047 21.8588 29.8807 22.3488 30.2378 23.1849C30.6613 24.1763 30.5824 25.2509 30.3143 26.1405C30.0366 27.0615 29.5075 27.9666 28.7725 28.7507C27.2737 30.3494 24.8949 31.4768 21.8182 31.3227C21.0601 31.2848 20.3888 30.8209 20.0852 30.1251L18.5827 26.6819L16.8512 27.2486C15.8014 27.5921 14.6719 27.0196 14.3284 25.9698C13.9848 24.9201 14.5573 23.7905 15.6071 23.447L19.0666 22.3148C20.0464 21.9942 21.1094 22.4708 21.5217 23.4157L23.2094 27.2833C24.1528 27.1575 24.8688 26.8239 25.3879 26.4325C24.4795 26.497 23.6326 25.9358 23.3462 25.0576L22.0966 21.227C21.7541 20.1769 22.3277 19.0479 23.3778 18.7054C24.4279 18.3628 25.5569 18.9364 25.8994 19.9865L26.6252 22.2114L28.1054 21.992Z" fill="#333333"/>
<path d="M34.9423 19.8092C33.9628 21.6769 31.6547 22.397 29.787 21.4175C27.9193 20.438 27.1992 18.1299 28.1787 16.2622C29.1581 14.3945 31.4662 13.6744 33.334 14.6539C35.2017 15.6333 35.9218 17.9414 34.9423 19.8092Z" fill="#333333"/>
<path fill-rule="evenodd" clip-rule="evenodd" d="M18.0281 15.0043C17.9535 15.7964 17.5409 16.4779 16.8576 17.04L16.1104 17.6548C15.8484 17.8703 15.7732 18.0621 15.7547 18.1842C15.7354 18.3118 15.764 18.4539 15.8607 18.5957C16.0509 18.8745 16.5451 19.171 17.3008 18.9696C17.8017 18.8361 18.4636 18.6885 19.0662 19.0152C19.3643 19.1768 19.5594 19.4064 19.6925 19.5945C19.8108 19.7618 19.9231 19.961 20.0212 20.135C20.0278 20.1467 20.0343 20.1583 20.0408 20.1697L20.0629 20.209L21.6986 23.8353L19.8755 24.6576L18.2769 21.1136C18.2049 20.9862 18.1548 20.8986 18.1145 20.8332C18.0451 20.8456 17.9486 20.8668 17.8157 20.9022C16.322 21.3002 14.9233 20.7704 14.2086 19.7228C13.8528 19.2014 13.6759 18.5554 13.7772 17.8854C13.8792 17.2101 14.2504 16.5951 14.8397 16.1103L15.587 15.4955C15.9493 15.1974 16.0223 14.9726 16.037 14.8168C16.0556 14.6194 15.9973 14.3289 15.7688 13.8944C15.5422 13.4638 15.2027 12.991 14.784 12.446C14.6773 12.3072 14.5647 12.1627 14.449 12.0142C14.13 11.6049 13.7867 11.1645 13.4761 10.7249L15.1096 9.57086C15.391 9.96921 15.6899 10.3526 15.9989 10.7492C16.1211 10.906 16.2449 11.0648 16.3699 11.2275C16.7927 11.7777 17.2256 12.3679 17.5388 12.9634C17.8501 13.5551 18.0988 14.254 18.0281 15.0043Z" fill="#333333"/>
</svg>
