<svg width="48" height="48" viewBox="0 0 48 48" fill="none" xmlns="http://www.w3.org/2000/svg">
<path fill-rule="evenodd" clip-rule="evenodd" d="M27 14.5858L31.4142 19L24.1213 26.2929C22.9497 27.4645 21.0503 27.4645 19.8787 26.2929L19.7071 26.1213C18.5355 24.9498 18.5355 23.0503 19.7071 21.8787L27 14.5858ZM27 17.4142L21.1213 23.2929C20.7308 23.6834 20.7308 24.3166 21.1213 24.7071L21.2929 24.8787C21.6834 25.2692 22.3166 25.2692 22.7071 24.8787L28.5858 19L27 17.4142Z" fill="#333333"/>
<path fill-rule="evenodd" clip-rule="evenodd" d="M33.7071 13.7071L29.2071 18.2071L27.7929 16.7929L32.2929 12.2929L33.7071 13.7071Z" fill="#333333"/>
<path fill-rule="evenodd" clip-rule="evenodd" d="M34.2929 15.7071L30.2929 11.7071L31.7071 10.2929L35.7071 14.2929L34.2929 15.7071Z" fill="#333333"/>
<path fill-rule="evenodd" clip-rule="evenodd" d="M31.2929 21.7071L24.2929 14.7071L25.7071 13.2929L32.7071 20.2929L31.2929 21.7071Z" fill="#333333"/>
<path d="M20.5 22.9571L23.5 19.9571L26.5 22.9571L23.5 25.9571C22.6716 26.7855 21.3284 26.7855 20.5 25.9571C19.6716 25.1286 19.6716 23.7855 20.5 22.9571Z" fill="#333333"/>
<path fill-rule="evenodd" clip-rule="evenodd" d="M12.5858 32.0001H15.4142L20.7071 26.7072L19.2929 25.293L12.5858 32.0001Z" fill="#333333"/>
<path fill-rule="evenodd" clip-rule="evenodd" d="M34 26H37.5C38.6046 26 39.5 26.8954 39.5 28V32H38.5C37.9477 32 37.5 31.5523 37.5 31V29.5H35.5V31C35.5 32.6569 36.8431 34 38.5 34H41.5V28H42C43.1046 28 44 28.8954 44 30V36C44 37.1046 43.1046 38 42 38H33C31.8954 38 31 37.1046 31 36H15.8913C14.6603 36 13.4591 35.6214 12.4506 34.9154L8.32691 32.0289L15.7035 24.264L18.1998 27.0932L14.3536 30.9395L15.4142 32.0001L17.5356 32L21.5356 28H31L34 26ZM16.5356 33H16.4141L16.4749 33.0608L16.5356 33ZM14.3751 22.7585L4 11V29L6.67008 30.8691L14.3751 22.7585Z" fill="#333333"/>
</svg>
