<svg width="48" height="48" viewBox="0 0 48 48" fill="none" xmlns="http://www.w3.org/2000/svg">
<path d="M6 24C6 21.7909 7.79086 20 10 20H11C13.2091 20 15 21.7909 15 24V30C15 32.2091 13.2091 34 11 34H10C7.79086 34 6 32.2091 6 30V24Z" fill="#333333"/>
<path fill-rule="evenodd" clip-rule="evenodd" d="M11 22H10C8.89543 22 8 22.8954 8 24V30C8 31.1046 8.89543 32 10 32H11C12.1046 32 13 31.1046 13 30V24C13 22.8954 12.1046 22 11 22ZM10 20C7.79086 20 6 21.7909 6 24V30C6 32.2091 7.79086 34 10 34H11C13.2091 34 15 32.2091 15 30V24C15 21.7909 13.2091 20 11 20H10Z" fill="#333333"/>
<path fill-rule="evenodd" clip-rule="evenodd" d="M23 10H30V18H26C24.3431 18 23 16.6569 23 15V10ZM25 12V15C25 15.5523 25.4477 16 26 16H28V12H25Z" fill="#333333"/>
<path fill-rule="evenodd" clip-rule="evenodd" d="M19 12C19 9.79086 20.7909 8 23 8C24.4806 8 25.7733 8.8044 26.4649 10H28.6586C27.8349 7.66962 25.6124 6 23 6C19.6863 6 17 8.68629 17 12C17 15.3137 19.6863 18 23 18C24.777 18 26.3736 17.2275 27.4722 16H25C24.707 16 24.4287 15.937 24.1779 15.8238C23.8055 15.9383 23.41 16 23 16C20.7909 16 19 14.2091 19 12Z" fill="#333333"/>
<path fill-rule="evenodd" clip-rule="evenodd" d="M32 12L19 12V10L32 10V12Z" fill="#333333"/>
<path fill-rule="evenodd" clip-rule="evenodd" d="M36.4653 30.8472L29.9778 34.3783L29.0217 32.6216L35.5091 29.0906L36.4653 30.8472Z" fill="#333333"/>
<path fill-rule="evenodd" clip-rule="evenodd" d="M7.5 19C7.5 18.4477 7.94772 18 8.5 18H12.5C13.0523 18 13.5 18.4477 13.5 19C13.5 19.5523 13.0523 20 12.5 20H8.5C7.94772 20 7.5 19.5523 7.5 19Z" fill="#333333"/>
<path fill-rule="evenodd" clip-rule="evenodd" d="M14.4485 38.0788C15.9876 39.2928 18.1716 40 20.6594 40C24.9194 40 28.1204 38.2699 29.0378 35.0294L30.9622 35.5742C29.6966 40.0446 25.3611 42 20.6594 42C17.8124 42 15.1667 41.1925 13.2099 39.6491C11.2332 38.0901 10 35.8061 10 33H12C12 35.1645 12.9292 36.8805 14.4485 38.0788Z" fill="#333333"/>
<path fill-rule="evenodd" clip-rule="evenodd" d="M23 24C24.1046 24 25 24.8954 25 26V29.614L31.7022 32.1273C32.7365 32.5152 33.2605 33.668 32.8727 34.7022C32.4848 35.7365 31.332 36.2605 30.2978 35.8727L22.2978 32.8727C21.5171 32.5799 21 31.8337 21 31V26C21 24.8954 21.8954 24 23 24Z" fill="#333333"/>
<path fill-rule="evenodd" clip-rule="evenodd" d="M40.152 24.47L41.848 25.53L40.3042 28H42V30H36.6958L40.152 24.47Z" fill="#333333"/>
<path fill-rule="evenodd" clip-rule="evenodd" d="M18 20C16.8954 20 16 20.8954 16 22V31.5C16 34.5376 18.4624 37 21.5 37C22.7195 37 23.8464 36.6031 24.7584 35.9314L21.5955 34.7453C20.0343 34.1599 19 32.6674 19 31V26C19 23.7909 20.7909 22 23 22C25.2091 22 27 23.7909 27 26V23C27 21.3431 25.6569 20 24 20H18ZM27 30.364V31.5C27 32.5392 26.7118 33.5111 26.2109 34.3401L22.2978 32.8727C21.5171 32.5799 21 31.8337 21 31V26C21 24.8954 21.8954 24 23 24C24.1046 24 25 24.8954 25 26V28.921C25 29.3378 25.2586 29.711 25.6489 29.8573L27 30.364Z" fill="#333333"/>
<path d="M19 11H24V17H23C20.7909 17 19 15.2091 19 13V11Z" fill="#333333"/>
</svg>
