<svg width="48" height="48" viewBox="0 0 48 48" fill="none" xmlns="http://www.w3.org/2000/svg">
<path fill-rule="evenodd" clip-rule="evenodd" d="M30 17H18V31H30V26.4649C29.4117 26.8052 28.7286 27 28 27C25.7909 27 24 25.2091 24 23C24 20.7909 25.7909 19 28 19C28.7286 19 29.4117 19.1948 30 19.5351V17Z" fill="#333333"/>
<path fill-rule="evenodd" clip-rule="evenodd" d="M28 25C29.1046 25 30 24.1046 30 23C30 21.8954 29.1046 21 28 21C26.8954 21 26 21.8954 26 23C26 24.1046 26.8954 25 28 25ZM28 27C30.2091 27 32 25.2091 32 23C32 20.7909 30.2091 19 28 19C25.7909 19 24 20.7909 24 23C24 25.2091 25.7909 27 28 27Z" fill="#333333"/>
<path d="M28.5 8.5C28.5 10.9853 26.4853 13 24 13C21.5147 13 19.5 10.9853 19.5 8.5C19.5 6.01472 21.5147 4 24 4C26.4853 4 28.5 6.01472 28.5 8.5Z" fill="#333333"/>
<path fill-rule="evenodd" clip-rule="evenodd" d="M42 24C42 29.7603 39.2942 34.8886 35.0843 38.1833L36.288 39.781C40.9816 36.1211 44 30.413 44 24C44 15.2703 38.407 7.84686 30.6088 5.11769L29.9479 7.00592C36.9663 9.46218 42 16.1432 42 24ZM24 42C25.5416 42 27.0379 41.8062 28.466 41.4416L28.9416 43.3849C27.3611 43.7865 25.7055 44 24 44C22.3284 44 20.7046 43.7949 19.1526 43.4085L19.6282 41.4654C21.0278 41.8146 22.4922 42 24 42ZM12.9787 38.2324C8.7328 34.9397 6 29.789 6 24C6 16.1432 11.0337 9.46218 18.0521 7.00592L17.3912 5.11769C9.59303 7.84686 4 15.2703 4 24C4 30.4417 7.04544 36.1721 11.7751 39.83L12.9787 38.2324ZM24.0194 4.00001L24 4L23.9806 4.00001H24.0194Z" fill="#333333"/>
<path fill-rule="evenodd" clip-rule="evenodd" d="M19.4649 20C19.8052 19.4117 20 18.7286 20 18C20 17.2714 19.8052 16.5883 19.4649 16H36C37.1046 16 38 16.8954 38 18C38 19.1046 37.1046 20 36 20H19.4649ZM12.5351 20H12C10.8954 20 10 19.1046 10 18C10 16.8954 10.8954 16 12 16H12.5351C12.1948 16.5883 12 17.2714 12 18C12 18.7286 12.1948 19.4117 12.5351 20Z" fill="#333333"/>
<path fill-rule="evenodd" clip-rule="evenodd" d="M16 20C17.1046 20 18 19.1046 18 18C18 16.8954 17.1046 16 16 16C14.8954 16 14 16.8954 14 18C14 19.1046 14.8954 20 16 20ZM16 22C18.2091 22 20 20.2091 20 18C20 15.7909 18.2091 14 16 14C13.7909 14 12 15.7909 12 18C12 20.2091 13.7909 22 16 22Z" fill="#333333"/>
<path fill-rule="evenodd" clip-rule="evenodd" d="M19.9999 24C18.8954 24 17.9999 24.8954 17.9999 26V29C17.9999 28.9936 17.9995 28.9963 17.9977 29.0092C17.991 29.055 17.9657 29.2287 17.8732 29.5781C17.7678 29.9761 17.6095 30.4791 17.4068 31.0645C17.3711 31.1679 17.3341 31.2731 17.2962 31.38C17.8131 31.1363 18.3906 31 19 31C20.877 31 22.4521 32.2929 22.8832 34.0366L25.632 30.156C26.0002 29.6362 26.0988 28.9719 25.8973 28.3675L24.8973 25.3675C24.6251 24.5509 23.8608 24 22.9999 24H19.9999ZM19.3801 38.9822C19.255 38.994 19.1282 39 19 39C17.3129 39 15.8698 37.9556 15.2819 36.478C14.9465 37.2745 14.6309 38.0072 14.3694 38.6077C14.1605 39.0873 13.9866 39.4816 13.8652 39.7553C13.8044 39.8922 13.7569 39.9989 13.7246 40.071L13.6761 40.1793C13.2535 41.1183 13.6131 42.2248 14.5069 42.7361C15.4008 43.2474 16.5368 42.9963 17.132 42.156L19.3801 38.9822Z" fill="#333333"/>
<path fill-rule="evenodd" clip-rule="evenodd" d="M19 37C20.1046 37 21 36.1046 21 35C21 33.8954 20.1046 33 19 33C17.8954 33 17 33.8954 17 35C17 36.1046 17.8954 37 19 37ZM19 39C21.2091 39 23 37.2091 23 35C23 32.7909 21.2091 31 19 31C16.7909 31 15 32.7909 15 35C15 37.2091 16.7909 39 19 39Z" fill="#333333"/>
<path d="M32.5 41C32.5 41 28 31 28 29C26.2767 29.0002 25.8363 28.9999 24 29L32.5 41Z" fill="#333333"/>
<path fill-rule="evenodd" clip-rule="evenodd" d="M25.905 27C25.3916 27 24.843 27 23.9999 27C23.2522 27 22.5669 27.4172 22.2235 28.0814C21.88 28.7456 21.9357 29.5459 22.368 30.156L30.868 42.156C31.4632 42.9963 32.5992 43.2473 33.493 42.7361C34.3869 42.2248 34.7464 41.1183 34.3239 40.1793C34.3239 40.1793 34.3238 40.1793 34.3239 40.1793L34.2753 40.071C34.2431 39.9989 34.1955 39.8922 34.1348 39.7553C34.0133 39.4816 33.8394 39.0873 33.6305 38.6077C33.2124 37.6475 32.6561 36.3495 32.1011 34.9927C31.5441 33.6312 30.9974 32.2325 30.5931 31.0645C30.3905 30.4791 30.2321 29.9761 30.1268 29.5781C30.0343 29.2287 30.009 29.055 30.0023 29.0092C30.0004 28.9963 30 28.9936 30 29C30 28.4695 29.7893 27.9608 29.4142 27.5857C29.039 27.2106 28.5305 27 28 27C27.0672 27.0001 26.5105 27.0001 25.905 27Z" fill="#333333"/>
</svg>
