<svg width="48" height="48" viewBox="0 0 48 48" fill="none" xmlns="http://www.w3.org/2000/svg">
<path fill-rule="evenodd" clip-rule="evenodd" d="M30.0001 28C30.0001 26.3431 31.3432 25 33.0001 25C34.6569 25 36.0001 26.3431 36.0001 28V43C36.0001 43.5523 35.5524 44 35.0001 44C34.4478 44 34.0001 43.5523 34.0001 43V28C34.0001 27.4477 33.5524 27 33.0001 27C32.4478 27 32.0001 27.4477 32.0001 28V28.8333C32.0001 29.3856 31.5524 29.8333 31.0001 29.8333C30.4478 29.8333 30.0001 29.3856 30.0001 28.8333V28Z" fill="#333333"/>
<path fill-rule="evenodd" clip-rule="evenodd" d="M25.0859 16H16.0001V17.6455C16.6305 17.8328 17.2154 18.1997 17.6719 18.7392L19.8145 21.2713L25.0859 16ZM16.0001 27.8663C16.0493 27.8379 16.0966 27.8049 16.1414 27.7673L17.8282 29.7608C18.6191 30.6954 19.7949 31.1119 20.9258 30.9744L19.9932 42.1661C19.9041 43.2346 18.9883 44.0428 17.917 43.9983C16.8456 43.9537 16.0001 43.0722 16.0001 42V27.8663ZM21.1109 22.8034L27.9143 16H28.0001V42C28.0001 43.0722 27.1545 43.9537 26.0832 43.9983C25.0119 44.0428 24.096 43.2346 24.007 42.1661L23.007 30.1661C23.0024 30.1106 23.0001 30.0552 23.0001 30H22.9498C24.25 28.7286 24.3651 26.6493 23.1719 25.2392L21.1109 22.8034Z" fill="#333333"/>
<path fill-rule="evenodd" clip-rule="evenodd" d="M26.0567 15.0292C25.7154 15.0099 25.3633 15 25.0001 15H17.0001C16.1217 15 15.3009 15.0764 14.587 15.2862C13.8741 15.4958 13.0905 15.8929 12.5605 16.6617C12.0082 17.4628 11.9502 18.3459 12.0694 19.0665C12.1829 19.7534 12.4701 20.4024 12.7789 20.9638C13.3964 22.0866 14.3771 23.3422 15.4262 24.6057C15.5827 24.7942 15.7431 24.9856 15.9064 25.1794L18.7455 22.3404C18.6638 22.2429 18.5832 22.1463 18.5037 22.0506C17.4512 20.7828 16.6975 19.7884 16.2838 19.0362L16.2799 19.0292C16.4736 19.0114 16.7113 19 17.0001 19H22.0859L26.0567 15.0292ZM20.0442 23.8701L17.2072 26.7071C17.7824 27.3799 18.3718 28.0702 18.9637 28.7804C19.6708 29.6289 20.9319 29.7436 21.7805 29.0364C22.629 28.3293 22.7437 27.0682 22.0365 26.2196C21.4022 25.4584 20.7731 24.7225 20.1779 24.0264L20.1669 24.0135C20.1259 23.9656 20.0849 23.9176 20.0442 23.8701ZM24.9143 19L28.5477 15.3666C31.2728 15.9784 33.0901 17.2863 34.2557 18.7586C35.0295 19.736 35.4579 20.7139 35.6943 21.4539C35.8129 21.8252 35.8851 22.1426 35.9288 22.3793C35.9507 22.4979 35.9656 22.5971 35.9756 22.6737C36.0182 23.0004 35.9756 22.7246 35.9932 22.8339C36.0849 23.9347 35.2669 24.9014 34.1662 24.9931C33.0744 25.0841 32.1145 24.2801 32.0094 23.193L32.0092 23.1915C32.0078 23.1802 32.0036 23.1506 31.9952 23.1051C31.9783 23.0137 31.9451 22.8623 31.884 22.6711C31.761 22.2861 31.5332 21.764 31.1195 21.2414C30.3568 20.278 28.7161 19 25.0001 19H24.9143Z" fill="#333333"/>
<path d="M26.0001 8C26.0001 10.2091 24.2092 12 22.0001 12C19.7909 12 18.0001 10.2091 18.0001 8C18.0001 5.79086 19.7909 4 22.0001 4C24.2092 4 26.0001 5.79086 26.0001 8Z" fill="#333333"/>
</svg>
