<svg width="48" height="48" viewBox="0 0 48 48" fill="none" xmlns="http://www.w3.org/2000/svg">
<path fill-rule="evenodd" clip-rule="evenodd" d="M23.9999 6C19.4999 6 16.9999 7.2 16.9999 7.2V12L13.4712 15.5288C12.8783 16.1217 13.2349 17.1168 14.0713 17.1765C16.0883 17.3204 19.5054 17.5 24 17.5C28.4945 17.5 31.9116 17.3204 33.9286 17.1765C34.765 17.1168 35.1216 16.1217 34.5287 15.5288L30.9999 12V7.2C30.9999 7.2 28.4999 6 23.9999 6Z" fill="#333333"/>
<path fill-rule="evenodd" clip-rule="evenodd" d="M18.9999 12.8284L16.5082 15.3201C18.4382 15.4174 20.9695 15.5 24 15.5C27.0304 15.5 29.5617 15.4174 31.4917 15.3201L28.9999 12.8284V8.61908C28.9049 8.59275 28.804 8.56598 28.6976 8.53908C27.6562 8.27599 26.0709 8 23.9999 8C21.929 8 20.3437 8.27599 19.3023 8.53908C19.1958 8.56598 19.095 8.59275 18.9999 8.61908V12.8284ZM16.9999 7.2V12L13.4712 15.5288C12.8783 16.1217 13.2349 17.1168 14.0713 17.1765C16.0883 17.3204 19.5054 17.5 24 17.5C28.4945 17.5 31.9116 17.3204 33.9286 17.1765C34.765 17.1168 35.1216 16.1217 34.5287 15.5288L30.9999 12V7.2C30.9999 7.2 28.4999 6 23.9999 6C19.4999 6 16.9999 7.2 16.9999 7.2ZM30.1458 9.00843L30.1472 9.00907L30.1483 9.00959C30.1483 9.00959 30.1474 9.0092 30.1458 9.00843Z" fill="#333333"/>
<path fill-rule="evenodd" clip-rule="evenodd" d="M16.1797 17.3059C16.062 17.852 16 18.4187 16 19C16 23.4183 19.5817 27 24 27C28.4183 27 32 23.4183 32 19C32 18.4187 31.938 17.852 31.8203 17.3059C31.2033 17.3381 30.5232 17.369 29.7833 17.3963C29.9245 17.9068 30 18.4446 30 19C30 22.3137 27.3137 25 24 25C20.6863 25 18 22.3137 18 19C18 18.4446 18.0755 17.9068 18.2167 17.3963C17.4768 17.369 16.7967 17.3381 16.1797 17.3059Z" fill="#333333"/>
<path fill-rule="evenodd" clip-rule="evenodd" d="M24.2881 28.0424L31.2853 30.1249C31.7093 30.2511 32 30.6409 32 31.0833V41C32 41.5523 31.5523 42 31 42H17C16.4477 42 16 41.5523 16 41V31.0833C16 30.6409 16.2907 30.2511 16.7147 30.1249L23.7119 28.0424C23.7254 28.0383 23.7389 28.0346 23.7525 28.0311C23.8342 28.0102 23.9173 28 24 28C24.0827 28 24.1658 28.0102 24.2475 28.0311C24.2611 28.0346 24.2746 28.0383 24.2881 28.0424ZM23 40V30.341L18 31.8291V40H23ZM25 40H30V31.8291L25 30.341V40Z" fill="#333333"/>
<path d="M34 37C34 35.3431 35.3431 34 37 34H39C40.6569 34 42 35.3431 42 37V42H37C35.3431 42 34 40.6569 34 39V37Z" fill="#333333"/>
<path fill-rule="evenodd" clip-rule="evenodd" d="M10.5281 26.1183C10.8533 25.9443 11.2478 25.9634 11.5547 26.168L17.5547 30.168C17.8329 30.3534 18 30.6656 18 31V41C18 41.5523 17.5523 42 17 42H15.2361C15.7111 41.4692 16 40.7684 16 40V31.5352L12 28.8685V32H10V27C10 26.6312 10.203 26.2923 10.5281 26.1183ZM37.4676 26.1161C37.7951 26.2893 38 26.6295 38 27V32H36V28.8902L32 31.6124V40C32 40.7684 32.2889 41.4692 32.7639 42H31C30.4477 42 30 41.5523 30 41V31.0833C30 30.7524 30.1638 30.4428 30.4374 30.2566L36.4374 26.1733C36.7437 25.9648 37.1401 25.9428 37.4676 26.1161Z" fill="#333333"/>
<path d="M6 37C6 35.3431 7.34315 34 9 34H11C12.6569 34 14 35.3431 14 37V39C14 40.6569 12.6569 42 11 42H6V37Z" fill="#333333"/>
</svg>
