<svg width="48" height="48" viewBox="0 0 48 48" fill="none" xmlns="http://www.w3.org/2000/svg">
<path fill-rule="evenodd" clip-rule="evenodd" d="M48 0H0V48H48V0ZM7.02826 28.2416C5.46617 29.8037 5.46617 32.3364 7.02826 33.8985L14.0993 40.9696C15.6614 42.5317 18.1941 42.5317 19.7562 40.9696L40.9694 19.7564C42.5315 18.1943 42.5315 15.6616 40.9694 14.0995L33.8983 7.02845C32.3362 5.46635 29.8036 5.46635 28.2415 7.02845L7.02826 28.2416ZM16.9279 26.4739C17.4161 25.9857 17.4161 25.1942 16.9279 24.7061C16.4397 24.2179 15.6483 24.2179 15.1601 24.7061C14.672 25.1942 14.672 25.9857 15.1601 26.4739C15.6483 26.962 16.4397 26.962 16.9279 26.4739ZM19.4028 22.2312C19.8909 22.7194 19.8909 23.5108 19.4028 23.999C18.9146 24.4872 18.1231 24.4872 17.635 23.999C17.1468 23.5108 17.1468 22.7194 17.635 22.2312C18.1231 21.7431 18.9146 21.7431 19.4028 22.2312ZM21.8776 21.5241C22.3658 21.036 22.3658 20.2445 21.8776 19.7564C21.3895 19.2682 20.598 19.2682 20.1098 19.7564C19.6217 20.2445 19.6217 21.036 20.1098 21.5241C20.598 22.0123 21.3895 22.0123 21.8776 21.5241ZM24.3525 17.2815C24.8406 17.7696 24.8406 18.5611 24.3525 19.0492C23.8643 19.5374 23.0728 19.5374 22.5847 19.0492C22.0965 18.5611 22.0965 17.7696 22.5847 17.2815C23.0728 16.7933 23.8643 16.7933 24.3525 17.2815ZM26.8273 16.5744C27.3155 16.0862 27.3155 15.2948 26.8273 14.8066C26.3392 14.3185 25.5477 14.3185 25.0595 14.8066C24.5714 15.2948 24.5714 16.0862 25.0595 16.5744C25.5477 17.0625 26.3392 17.0625 26.8273 16.5744ZM29.3022 12.3318C29.7903 12.8199 29.7903 13.6114 29.3022 14.0995C28.814 14.5877 28.0226 14.5877 27.5344 14.0995C27.0462 13.6114 27.0462 12.8199 27.5344 12.3318C28.0226 11.8436 28.814 11.8436 29.3022 12.3318ZM32.4841 17.2815C32.9722 16.7933 32.9722 16.0019 32.4841 15.5137C31.9959 15.0255 31.2044 15.0255 30.7163 15.5137C30.2281 16.0019 30.2281 16.7933 30.7163 17.2815C31.2044 17.7696 31.9959 17.7696 32.4841 17.2815ZM14.453 27.181C14.9412 27.6692 14.9412 28.4606 14.453 28.9488C13.9649 29.4369 13.1734 29.4369 12.6853 28.9488C12.1971 28.4606 12.1971 27.6692 12.6853 27.181C13.1734 26.6929 13.9649 26.6929 14.453 27.181ZM11.0942 32.3075L11.6245 30.0094L9.32639 30.5398L11.0942 32.3075ZM23.2917 31.0701C23.7798 31.5583 23.7798 32.3497 23.2917 32.8379C22.8035 33.326 22.0121 33.326 21.5239 32.8379C21.0357 32.3497 21.0357 31.5583 21.5239 31.0701C22.0121 30.5819 22.8035 30.5819 23.2917 31.0701ZM25.7668 30.363C26.2549 29.8748 26.2549 29.0833 25.7668 28.5952C25.2786 28.107 24.4872 28.107 23.999 28.5952C23.5108 29.0833 23.5108 29.8748 23.999 30.363C24.4872 30.8511 25.2786 30.8511 25.7668 30.363ZM28.2416 26.1203C28.7298 26.6085 28.7298 27.3999 28.2416 27.8881C27.7535 28.3763 26.962 28.3763 26.4739 27.8881C25.9857 27.3999 25.9857 26.6085 26.4739 26.1203C26.962 25.6322 27.7535 25.6322 28.2416 26.1203ZM30.7165 25.4132C31.2046 24.9251 31.2046 24.1336 30.7165 23.6455C30.2283 23.1573 29.4369 23.1573 28.9487 23.6455C28.4606 24.1336 28.4606 24.9251 28.9487 25.4132C29.4369 25.9014 30.2283 25.9014 30.7165 25.4132ZM33.1913 21.1706C33.6795 21.6587 33.6795 22.4502 33.1913 22.9383C32.7032 23.4265 31.9117 23.4265 31.4236 22.9383C30.9354 22.4502 30.9354 21.6587 31.4236 21.1706C31.9117 20.6824 32.7032 20.6824 33.1913 21.1706ZM35.6662 20.4635C36.1543 19.9753 36.1543 19.1839 35.6662 18.6957C35.178 18.2076 34.3866 18.2076 33.8984 18.6957C33.4103 19.1839 33.4103 19.9753 33.8984 20.4635C34.3866 20.9516 35.178 20.9516 35.6662 20.4635ZM31.7771 9.85685C32.2652 10.345 32.2652 11.1365 31.7771 11.6246C31.2889 12.1128 30.4975 12.1128 30.0093 11.6246C29.5212 11.1365 29.5212 10.345 30.0093 9.85685C30.4975 9.3687 31.2889 9.3687 31.7771 9.85685ZM38.141 17.9886C38.6292 17.5004 38.6292 16.709 38.141 16.2208C37.6529 15.7327 36.8614 15.7327 36.3733 16.2208C35.8851 16.709 35.8851 17.5004 36.3733 17.9886C36.8614 18.4767 37.6529 18.4767 38.141 17.9886ZM34.9591 13.0388C35.4472 13.527 35.4472 14.3184 34.9591 14.8066C34.4709 15.2948 33.6794 15.2948 33.1913 14.8066C32.7031 14.3184 32.7031 13.527 33.1913 13.0388C33.6794 12.5507 34.4709 12.5507 34.9591 13.0388ZM20.8168 35.3127C21.305 34.8246 21.305 34.0331 20.8168 33.545C20.3287 33.0568 19.5372 33.0568 19.0491 33.545C18.5609 34.0331 18.5609 34.8246 19.0491 35.3127C19.5372 35.8009 20.3287 35.8009 20.8168 35.3127ZM18.342 36.0198C18.8301 36.508 18.8301 37.2994 18.342 37.7876C17.8538 38.2757 17.0624 38.2757 16.5742 37.7876C16.086 37.2994 16.086 36.508 16.5742 36.0198C17.0624 35.5317 17.8538 35.5317 18.342 36.0198ZM15.1601 34.6056C15.6482 34.1175 15.6482 33.326 15.1601 32.8379C14.6719 32.3497 13.8805 32.3497 13.3923 32.8379C12.9042 33.326 12.9042 34.1175 13.3923 34.6056C13.8805 35.0938 14.6719 35.0938 15.1601 34.6056ZM17.6349 30.363C18.1231 30.8511 18.1231 31.6426 17.6349 32.1307C17.1468 32.6189 16.3553 32.6189 15.8672 32.1307C15.379 31.6426 15.379 30.8511 15.8672 30.363C16.3553 29.8748 17.1468 29.8748 17.6349 30.363Z" fill="#333333"/>
</svg>
