<svg width="48" height="48" viewBox="0 0 48 48" fill="none" xmlns="http://www.w3.org/2000/svg">
<path fill-rule="evenodd" clip-rule="evenodd" d="M29.5912 4.67461C28.7898 4.21665 27.8913 4 26.9236 4H21.676C19.8516 4 18.0072 4.84975 16.8973 6.38697C16.8603 6.43373 16.824 6.48089 16.7885 6.52844L14.4521 9.55709L13.6408 10.639L13.6393 10.641C11.1084 13.9837 11.1089 18.6379 13.6408 21.98L13.6467 21.9878L23.4239 34.3903L30 42.7749C30.7147 43.6861 32.0515 43.8018 32.9121 43.0268L36.978 39.3654C37.757 38.6639 37.8622 37.4799 37.219 36.6521L29.7889 27.0891L24.9969 21.0313L18.4809 12.6149L18.4759 12.6086C17.9075 11.898 17.6094 10.9479 17.6094 10.0667C17.6094 9.25167 17.8656 8.43472 18.3831 7.73584L18.4981 7.5867L18.5088 7.57171C19.2103 6.58966 20.4331 6 21.676 6H26.9236C27.5846 6 28.1337 6.14525 28.5989 6.4111C29.1809 6.74365 29.6703 7.1096 30.0004 7.57171L31.6279 6.40924C31.0532 5.60468 30.2759 5.06587 29.5912 4.67461ZM15.7169 11.2043C15.8931 12.14 16.2871 13.0717 16.909 13.8515L23.425 22.2681L28.2203 28.3299L35.6397 37.8792L31.5737 41.5406L24.9962 33.1543L15.2293 20.7648C13.2437 18.1368 13.2456 14.4728 15.235 11.8467L15.2379 11.8429L15.7169 11.2043Z" fill="#333333"/>
<path fill-rule="evenodd" clip-rule="evenodd" d="M12.4129 38.2918L20.2021 28.3249L18.6263 27.0934L10.8371 37.0602C10.1497 37.9398 10.3154 39.2118 11.2052 39.8859L15.5837 43.2029C16.4537 43.862 17.6915 43.7019 18.3651 42.843L24.9963 34.3882L23.4226 33.1539L16.7914 41.6087L12.4129 38.2918Z" fill="#333333"/>
<path fill-rule="evenodd" clip-rule="evenodd" d="M31.6268 6.4332C31.587 6.37991 31.5463 6.32715 31.5045 6.27495L29.9319 7.51045L30.032 7.64017C31.0974 9.0794 31.0677 11.1117 29.9428 12.5178L29.9378 12.524L23.4187 20.9446L25.0001 22.169L31.5097 13.7607C32.1352 12.9766 32.5349 12.0671 32.7089 11.1228L33.1837 11.7559C35.174 14.3831 35.1751 18.049 33.1869 20.6774L28.2141 27.0968L29.7952 28.3216L34.7779 21.8893C37.3099 18.5471 37.3103 13.8928 34.7794 10.5502L33.9584 9.45545L31.6268 6.4332Z" fill="#333333"/>
<path fill-rule="evenodd" clip-rule="evenodd" d="M21.5856 13.5093C20.5462 13.5093 19.5466 13.8816 18.8546 14.5736L17.4404 13.1594C18.558 12.0418 20.0917 11.5093 21.5856 11.5093H26.8332C28.3712 11.5093 29.8708 12.1607 30.9403 13.1232L29.6024 14.6098C28.8623 13.9438 27.8286 13.5093 26.8332 13.5093H21.5856Z" fill="#333333"/>
</svg>
