<svg width="48" height="48" viewBox="0 0 48 48" fill="none" xmlns="http://www.w3.org/2000/svg">
<path fill-rule="evenodd" clip-rule="evenodd" d="M24 40C32.8366 40 40 32.8366 40 24C40 15.1634 32.8366 8 24 8C15.1634 8 8 15.1634 8 24C8 32.8366 15.1634 40 24 40ZM24 42C33.9411 42 42 33.9411 42 24C42 14.0589 33.9411 6 24 6C14.0589 6 6 14.0589 6 24C6 33.9411 14.0589 42 24 42Z" fill="#333333"/>
<path d="M31.1096 32.8759C29.6418 31.7507 26.9988 31 23.9824 31C20.737 31 17.9239 31.8691 16.5415 33.1386C15.9452 33.6862 15.3756 35.3447 17.5497 34.9359C23.878 33.6758 24.4931 33.7222 30.6988 34.9359C32.2848 35.276 32.1457 34.0519 31.7107 33.4262C31.5552 33.2025 31.3258 33.0417 31.1096 32.8759Z" fill="#333333"/>
<path fill-rule="evenodd" clip-rule="evenodd" d="M17.5 28C18.8807 28 20 26.2091 20 24C20 21.7909 18.8807 20 17.5 20C16.1193 20 15 21.7909 15 24C15 26.2091 16.1193 28 17.5 28ZM30.5 28C31.8807 28 33 26.2091 33 24C33 21.7909 31.8807 20 30.5 20C29.1193 20 28 21.7909 28 24C28 26.2091 29.1193 28 30.5 28Z" fill="#333333"/>
<path fill-rule="evenodd" clip-rule="evenodd" d="M16.439 20.3567C14.7999 19.8158 13.1581 19.4658 12.1051 19.311L12.3959 17.3323C13.5552 17.5027 15.3099 17.878 17.0658 18.4575C18.7979 19.0292 20.6477 19.8367 21.9034 20.9218L20.5956 22.4351C19.6454 21.6139 18.1019 20.9056 16.439 20.3567Z" fill="#333333"/>
<path fill-rule="evenodd" clip-rule="evenodd" d="M31.061 20.3567C32.7001 19.8158 34.3419 19.4658 35.3949 19.311L35.1041 17.3323C33.9448 17.5027 32.1901 17.878 30.4342 18.4575C28.7021 19.0292 26.8523 19.8367 25.5966 20.9218L26.9044 22.4351C27.8546 21.6139 29.3981 20.9056 31.061 20.3567Z" fill="#333333"/>
</svg>
