<svg width="48" height="48" viewBox="0 0 48 48" fill="none" xmlns="http://www.w3.org/2000/svg">
<path fill-rule="evenodd" clip-rule="evenodd" d="M31.4245 38.1768C29.2056 39.3412 26.6798 40 24 40C15.1634 40 8 32.8366 8 24C8 15.1634 15.1634 8 24 8C32.8366 8 40 15.1634 40 24C40 24.1673 39.9974 24.334 39.9923 24.5H41.9932C41.9977 24.3339 42 24.1672 42 24C42 14.0589 33.9411 6 24 6C14.0589 6 6 14.0589 6 24C6 33.9411 14.0589 42 24 42C27.0254 42 29.8764 41.2536 32.379 39.935L31.4245 38.1768Z" fill="#333333"/>
<path d="M14.2364 23.4299C16.2602 24.1812 18.4845 23.6906 20.3968 21.8753C20.7296 22.8645 19.8456 24.9463 17.664 25.2684C15.4824 25.5904 14.0892 24.3416 14.2364 23.4299Z" fill="#333333"/>
<path fill-rule="evenodd" clip-rule="evenodd" d="M14.8073 25.2328C14.1242 24.7954 13.6237 24.0879 13.7428 23.3502C13.7667 23.2025 13.8554 23.0732 13.9847 22.9979C14.114 22.9225 14.2702 22.909 14.4105 22.9611C16.2287 23.6362 18.2567 23.2174 20.0526 21.5127C20.1764 21.3951 20.3517 21.3489 20.5174 21.39C20.6831 21.4312 20.8163 21.5541 20.8707 21.7159C21.1024 22.4047 20.8948 23.3341 20.3905 24.0976C19.8685 24.8878 18.983 25.5791 17.737 25.763C16.5386 25.9399 15.521 25.69 14.8073 25.2328ZM15.3466 24.3907C15.838 24.7055 16.6078 24.9189 17.591 24.7737C18.5267 24.6356 19.1739 24.1249 19.5561 23.5464C19.6813 23.3569 19.7739 23.1674 19.8391 22.9871C18.3332 24.0699 16.6736 24.4691 15.0663 24.1755C15.1434 24.2474 15.2361 24.3199 15.3466 24.3907Z" fill="#333333"/>
<path d="M33.325 23.4299C31.3013 24.1812 29.077 23.6906 27.1646 21.8753C26.8319 22.8645 27.7159 24.9463 29.8975 25.2684C32.0791 25.5904 33.4722 24.3416 33.325 23.4299Z" fill="#333333"/>
<path fill-rule="evenodd" clip-rule="evenodd" d="M32.7542 25.2328C33.4373 24.7954 33.9377 24.0879 33.8187 23.3502C33.7948 23.2025 33.7061 23.0732 33.5768 22.9979C33.4475 22.9225 33.2913 22.909 33.151 22.9611C31.3327 23.6362 29.3048 23.2174 27.5089 21.5127C27.3851 21.3951 27.2098 21.3489 27.0441 21.39C26.8784 21.4312 26.7452 21.5541 26.6907 21.7159C26.459 22.4047 26.6666 23.3341 27.171 24.0976C27.693 24.8878 28.5785 25.5791 29.8244 25.763C31.0229 25.9399 32.0404 25.69 32.7542 25.2328ZM32.2149 24.3907C31.7235 24.7055 30.9537 24.9189 29.9705 24.7737C29.0348 24.6356 28.3875 24.1249 28.0054 23.5464C27.8802 23.3569 27.7875 23.1674 27.7224 22.9871C29.2283 24.0699 30.8879 24.4691 32.4951 24.1755C32.418 24.2474 32.3254 24.3199 32.2149 24.3907Z" fill="#333333"/>
<path d="M40 32C40 34.2091 38.2091 36 36 36C33.7909 36 32 34.2091 32 32C32 28.5 36 25 36 25C36 25 40 28.5 40 32Z" fill="#333333"/>
<path fill-rule="evenodd" clip-rule="evenodd" d="M27.2 33.6C25.6 31.4667 22.4 31.4667 20.8 33.6C20.4686 34.0418 19.8418 34.1314 19.4 33.8C18.9582 33.4686 18.8686 32.8418 19.2 32.4C21.6 29.2 26.4 29.2 28.8 32.4C29.1314 32.8418 29.0418 33.4686 28.6 33.8C28.1582 34.1314 27.5314 34.0418 27.2 33.6Z" fill="#333333"/>
</svg>
