<svg width="48" height="48" viewBox="0 0 48 48" fill="none" xmlns="http://www.w3.org/2000/svg">
<mask id="path-1-inside-1" fill="white">
<path fill-rule="evenodd" clip-rule="evenodd" d="M40 24C40 32.8366 32.8366 40 24 40C15.1634 40 8 32.8366 8 24C8 15.1634 15.1634 8 24 8C32.8366 8 40 15.1634 40 24ZM42 24C42 33.9411 33.9411 42 24 42C14.0589 42 6 33.9411 6 24C6 14.0589 14.0589 6 24 6C33.9411 6 42 14.0589 42 24ZM28.7071 17.2929C28.3166 16.9024 27.6834 16.9024 27.2929 17.2929C26.9024 17.6834 26.9024 18.3166 27.2929 18.7071L29.0858 20.5L27.2929 22.2929C26.9024 22.6834 26.9024 23.3166 27.2929 23.7071C27.6834 24.0976 28.3166 24.0976 28.7071 23.7071L30.5 21.9142L32.2929 23.7071C32.6834 24.0976 33.3166 24.0976 33.7071 23.7071C34.0976 23.3166 34.0976 22.6834 33.7071 22.2929L31.9142 20.5L33.7071 18.7071C34.0976 18.3166 34.0976 17.6834 33.7071 17.2929C33.3166 16.9024 32.6834 16.9024 32.2929 17.2929L30.5 19.0858L28.7071 17.2929ZM15.7071 17.2929C15.3166 16.9024 14.6834 16.9024 14.2929 17.2929C13.9024 17.6834 13.9024 18.3166 14.2929 18.7071L16.0858 20.5L14.2929 22.2929C13.9024 22.6834 13.9024 23.3166 14.2929 23.7071C14.6834 24.0976 15.3166 24.0976 15.7071 23.7071L17.5 21.9142L19.2929 23.7071C19.6834 24.0976 20.3166 24.0976 20.7071 23.7071C21.0976 23.3166 21.0976 22.6834 20.7071 22.2929L18.9142 20.5L20.7071 18.7071C21.0976 18.3166 21.0976 17.6834 20.7071 17.2929C20.3166 16.9024 19.6834 16.9024 19.2929 17.2929L17.5 19.0858L15.7071 17.2929ZM24 36C27.866 36 31 35.3137 31 32C31 28.6863 27.866 26 24 26C20.134 26 17 28.6863 17 32C17 35.3137 20.134 36 24 36Z"/>
</mask>
<path fill-rule="evenodd" clip-rule="evenodd" d="M40 24C40 32.8366 32.8366 40 24 40C15.1634 40 8 32.8366 8 24C8 15.1634 15.1634 8 24 8C32.8366 8 40 15.1634 40 24ZM42 24C42 33.9411 33.9411 42 24 42C14.0589 42 6 33.9411 6 24C6 14.0589 14.0589 6 24 6C33.9411 6 42 14.0589 42 24ZM28.7071 17.2929C28.3166 16.9024 27.6834 16.9024 27.2929 17.2929C26.9024 17.6834 26.9024 18.3166 27.2929 18.7071L29.0858 20.5L27.2929 22.2929C26.9024 22.6834 26.9024 23.3166 27.2929 23.7071C27.6834 24.0976 28.3166 24.0976 28.7071 23.7071L30.5 21.9142L32.2929 23.7071C32.6834 24.0976 33.3166 24.0976 33.7071 23.7071C34.0976 23.3166 34.0976 22.6834 33.7071 22.2929L31.9142 20.5L33.7071 18.7071C34.0976 18.3166 34.0976 17.6834 33.7071 17.2929C33.3166 16.9024 32.6834 16.9024 32.2929 17.2929L30.5 19.0858L28.7071 17.2929ZM15.7071 17.2929C15.3166 16.9024 14.6834 16.9024 14.2929 17.2929C13.9024 17.6834 13.9024 18.3166 14.2929 18.7071L16.0858 20.5L14.2929 22.2929C13.9024 22.6834 13.9024 23.3166 14.2929 23.7071C14.6834 24.0976 15.3166 24.0976 15.7071 23.7071L17.5 21.9142L19.2929 23.7071C19.6834 24.0976 20.3166 24.0976 20.7071 23.7071C21.0976 23.3166 21.0976 22.6834 20.7071 22.2929L18.9142 20.5L20.7071 18.7071C21.0976 18.3166 21.0976 17.6834 20.7071 17.2929C20.3166 16.9024 19.6834 16.9024 19.2929 17.2929L17.5 19.0858L15.7071 17.2929ZM24 36C27.866 36 31 35.3137 31 32C31 28.6863 27.866 26 24 26C20.134 26 17 28.6863 17 32C17 35.3137 20.134 36 24 36Z" fill="#333333"/>
<path d="M27.2929 17.2929L25.8787 15.8787L25.8787 15.8787L27.2929 17.2929ZM28.7071 17.2929L27.2929 18.7071L27.2929 18.7071L28.7071 17.2929ZM27.2929 18.7071L25.8787 20.1213L25.8787 20.1213L27.2929 18.7071ZM29.0858 20.5L30.5 21.9142L31.9142 20.5L30.5 19.0858L29.0858 20.5ZM27.2929 22.2929L25.8787 20.8787L25.8787 20.8787L27.2929 22.2929ZM27.2929 23.7071L25.8787 25.1213L25.8787 25.1213L27.2929 23.7071ZM28.7071 23.7071L30.1213 25.1213L30.1213 25.1213L28.7071 23.7071ZM30.5 21.9142L31.9142 20.5L30.5 19.0858L29.0858 20.5L30.5 21.9142ZM32.2929 23.7071L33.7071 22.2929L32.2929 23.7071ZM33.7071 22.2929L32.2929 23.7071L32.2929 23.7071L33.7071 22.2929ZM31.9142 20.5L30.5 19.0858L29.0858 20.5L30.5 21.9142L31.9142 20.5ZM33.7071 17.2929L35.1213 15.8787L35.1213 15.8787L33.7071 17.2929ZM32.2929 17.2929L30.8787 15.8787L30.8787 15.8787L32.2929 17.2929ZM30.5 19.0858L29.0858 20.5L30.5 21.9142L31.9142 20.5L30.5 19.0858ZM15.7071 17.2929L14.2929 18.7071L14.2929 18.7071L15.7071 17.2929ZM14.2929 18.7071L12.8787 20.1213L12.8787 20.1213L14.2929 18.7071ZM16.0858 20.5L17.5 21.9142L18.9142 20.5L17.5 19.0858L16.0858 20.5ZM14.2929 22.2929L12.8787 20.8787L12.8787 20.8787L14.2929 22.2929ZM14.2929 23.7071L12.8787 25.1213L12.8787 25.1213L14.2929 23.7071ZM15.7071 23.7071L17.1213 25.1213H17.1213L15.7071 23.7071ZM17.5 21.9142L18.9142 20.5L17.5 19.0858L16.0858 20.5L17.5 21.9142ZM19.2929 23.7071L20.7071 22.2929L20.7071 22.2929L19.2929 23.7071ZM20.7071 23.7071L19.2929 22.2929L19.2929 22.2929L20.7071 23.7071ZM18.9142 20.5L17.5 19.0858L16.0858 20.5L17.5 21.9142L18.9142 20.5ZM20.7071 18.7071L19.2929 17.2929H19.2929L20.7071 18.7071ZM20.7071 17.2929L19.2929 18.7071L19.2929 18.7071L20.7071 17.2929ZM19.2929 17.2929L20.7071 18.7071L20.7071 18.7071L19.2929 17.2929ZM17.5 19.0858L16.0858 20.5L17.5 21.9142L18.9142 20.5L17.5 19.0858ZM24 42C33.9411 42 42 33.9411 42 24H38C38 31.732 31.732 38 24 38V42ZM6 24C6 33.9411 14.0589 42 24 42V38C16.268 38 10 31.732 10 24H6ZM24 6C14.0589 6 6 14.0589 6 24H10C10 16.268 16.268 10 24 10V6ZM42 24C42 14.0589 33.9411 6 24 6V10C31.732 10 38 16.268 38 24H42ZM24 44C35.0457 44 44 35.0457 44 24H40C40 32.8366 32.8366 40 24 40V44ZM4 24C4 35.0457 12.9543 44 24 44V40C15.1634 40 8 32.8366 8 24H4ZM24 4C12.9543 4 4 12.9543 4 24H8C8 15.1634 15.1634 8 24 8V4ZM44 24C44 12.9543 35.0457 4 24 4V8C32.8366 8 40 15.1634 40 24H44ZM28.7071 18.7071C28.3166 19.0976 27.6834 19.0976 27.2929 18.7071L30.1213 15.8787C28.9497 14.7071 27.0502 14.7071 25.8787 15.8787L28.7071 18.7071ZM28.7071 17.2929C29.0976 17.6834 29.0976 18.3166 28.7071 18.7071L25.8787 15.8787C24.7071 17.0503 24.7071 18.9497 25.8787 20.1213L28.7071 17.2929ZM30.5 19.0858L28.7071 17.2929L25.8787 20.1213L27.6716 21.9142L30.5 19.0858ZM28.7071 23.7071L30.5 21.9142L27.6716 19.0858L25.8787 20.8787L28.7071 23.7071ZM28.7071 22.2929C29.0976 22.6834 29.0976 23.3166 28.7071 23.7071L25.8787 20.8787C24.7071 22.0503 24.7071 23.9497 25.8787 25.1213L28.7071 22.2929ZM27.2929 22.2929C27.6834 21.9024 28.3166 21.9024 28.7071 22.2929L25.8787 25.1213C27.0503 26.2929 28.9497 26.2929 30.1213 25.1213L27.2929 22.2929ZM29.0858 20.5L27.2929 22.2929L30.1213 25.1213L31.9142 23.3284L29.0858 20.5ZM33.7071 22.2929L31.9142 20.5L29.0858 23.3284L30.8787 25.1213L33.7071 22.2929ZM32.2929 22.2929C32.6834 21.9024 33.3166 21.9024 33.7071 22.2929L30.8787 25.1213C32.0503 26.2929 33.9497 26.2929 35.1213 25.1213L32.2929 22.2929ZM32.2929 23.7071C31.9024 23.3166 31.9024 22.6834 32.2929 22.2929L35.1213 25.1213C36.2929 23.9497 36.2929 22.0502 35.1213 20.8787L32.2929 23.7071ZM30.5 21.9142L32.2929 23.7071L35.1213 20.8787L33.3284 19.0858L30.5 21.9142ZM32.2929 17.2929L30.5 19.0858L33.3284 21.9142L35.1213 20.1213L32.2929 17.2929ZM32.2929 18.7071C31.9024 18.3166 31.9024 17.6834 32.2929 17.2929L35.1213 20.1213C36.2929 18.9497 36.2929 17.0503 35.1213 15.8787L32.2929 18.7071ZM33.7071 18.7071C33.3166 19.0976 32.6834 19.0976 32.2929 18.7071L35.1213 15.8787C33.9497 14.7071 32.0503 14.7071 30.8787 15.8787L33.7071 18.7071ZM31.9142 20.5L33.7071 18.7071L30.8787 15.8787L29.0858 17.6716L31.9142 20.5ZM27.2929 18.7071L29.0858 20.5L31.9142 17.6716L30.1213 15.8787L27.2929 18.7071ZM15.7071 18.7071C15.3166 19.0976 14.6834 19.0976 14.2929 18.7071L17.1213 15.8787C15.9497 14.7071 14.0503 14.7071 12.8787 15.8787L15.7071 18.7071ZM15.7071 17.2929C16.0976 17.6834 16.0976 18.3166 15.7071 18.7071L12.8787 15.8787C11.7071 17.0503 11.7071 18.9497 12.8787 20.1213L15.7071 17.2929ZM17.5 19.0858L15.7071 17.2929L12.8787 20.1213L14.6716 21.9142L17.5 19.0858ZM15.7071 23.7071L17.5 21.9142L14.6716 19.0858L12.8787 20.8787L15.7071 23.7071ZM15.7071 22.2929C16.0976 22.6834 16.0976 23.3166 15.7071 23.7071L12.8787 20.8787C11.7071 22.0503 11.7071 23.9497 12.8787 25.1213L15.7071 22.2929ZM14.2929 22.2929C14.6834 21.9024 15.3166 21.9024 15.7071 22.2929L12.8787 25.1213C14.0503 26.2929 15.9497 26.2929 17.1213 25.1213L14.2929 22.2929ZM16.0858 20.5L14.2929 22.2929L17.1213 25.1213L18.9142 23.3284L16.0858 20.5ZM20.7071 22.2929L18.9142 20.5L16.0858 23.3284L17.8787 25.1213L20.7071 22.2929ZM19.2929 22.2929C19.6834 21.9024 20.3166 21.9024 20.7071 22.2929L17.8787 25.1213C19.0503 26.2929 20.9498 26.2929 22.1213 25.1213L19.2929 22.2929ZM19.2929 23.7071C18.9024 23.3166 18.9024 22.6834 19.2929 22.2929L22.1213 25.1213C23.2929 23.9497 23.2929 22.0502 22.1213 20.8787L19.2929 23.7071ZM17.5 21.9142L19.2929 23.7071L22.1213 20.8787L20.3284 19.0858L17.5 21.9142ZM19.2929 17.2929L17.5 19.0858L20.3284 21.9142L22.1213 20.1213L19.2929 17.2929ZM19.2929 18.7071C18.9024 18.3166 18.9024 17.6834 19.2929 17.2929L22.1213 20.1213C23.2929 18.9497 23.2929 17.0503 22.1213 15.8787L19.2929 18.7071ZM20.7071 18.7071C20.3166 19.0976 19.6834 19.0976 19.2929 18.7071L22.1213 15.8787C20.9497 14.7071 19.0503 14.7071 17.8787 15.8787L20.7071 18.7071ZM18.9142 20.5L20.7071 18.7071L17.8787 15.8787L16.0858 17.6716L18.9142 20.5ZM14.2929 18.7071L16.0858 20.5L18.9142 17.6716L17.1213 15.8787L14.2929 18.7071ZM29 32C29 32.5015 28.8862 32.7633 28.7868 32.9121C28.6821 33.0688 28.4917 33.251 28.1103 33.4273C27.2668 33.8174 25.8965 34 24 34V38C25.9695 38 28.0992 37.8395 29.7892 37.0579C30.6745 36.6485 31.5093 36.0378 32.113 35.1338C32.7221 34.222 33 33.1554 33 32H29ZM24 28C27.0618 28 29 30.069 29 32H33C33 27.3036 28.6702 24 24 24V28ZM19 32C19 30.069 20.9382 28 24 28V24C19.3298 24 15 27.3036 15 32H19ZM24 34C22.1035 34 20.7332 33.8174 19.8897 33.4273C19.5083 33.251 19.3179 33.0688 19.2132 32.9121C19.1138 32.7633 19 32.5015 19 32H15C15 33.1554 15.2779 34.222 15.887 35.1338C16.4907 36.0378 17.3255 36.6485 18.2108 37.0579C19.9008 37.8395 22.0305 38 24 38V34Z" fill="#333333" mask="url(#path-1-inside-1)"/>
</svg>
