<svg width="48" height="48" viewBox="0 0 48 48" fill="none" xmlns="http://www.w3.org/2000/svg">
<path fill-rule="evenodd" clip-rule="evenodd" d="M32.3262 8.03733C29.8363 6.73592 27.0041 6 24 6C14.0589 6 6 14.0589 6 24C6 33.9411 14.0589 42 24 42C33.9411 42 42 33.9411 42 24C42 21.7396 41.5833 19.5764 40.8226 17.5832C40.3054 18.0242 39.7151 18.3775 39.0733 18.621C39.6733 20.302 40 22.1129 40 24C40 32.8366 32.8366 40 24 40C15.1634 40 8 32.8366 8 24C8 15.1634 15.1634 8 24 8C26.7224 8 29.2859 8.6799 31.5301 9.87917C31.7471 9.24758 32.0195 8.63045 32.3262 8.03733Z" fill="#333333"/>
<path d="M14.2365 20.4298C16.2602 21.1812 18.4845 20.6906 20.3968 18.8752C20.7296 19.8644 19.8456 21.9462 17.664 22.2683C15.4824 22.5904 14.0893 21.3415 14.2365 20.4298Z" fill="#333333"/>
<path fill-rule="evenodd" clip-rule="evenodd" d="M14.8073 22.2328C14.1242 21.7953 13.6238 21.0878 13.7428 20.3501C13.7667 20.2024 13.8554 20.0731 13.9847 19.9978C14.114 19.9225 14.2702 19.909 14.4105 19.9611C16.2288 20.6361 18.2567 20.2174 20.0526 18.5126C20.1764 18.3951 20.3517 18.3488 20.5174 18.39C20.6831 18.4311 20.8163 18.554 20.8708 18.7158C21.1025 19.4046 20.8949 20.3341 20.3905 21.0975C19.8685 21.8877 18.983 22.579 17.7371 22.7629C16.5386 22.9399 15.5211 22.6899 14.8073 22.2328ZM15.3466 21.3907C15.838 21.7054 16.6078 21.9188 17.591 21.7737C18.5267 21.6355 19.174 21.1249 19.5561 20.5463C19.6813 20.3569 19.774 20.1673 19.8391 19.9871C18.3332 21.0698 16.6736 21.4691 15.0664 21.1754C15.1435 21.2474 15.2361 21.3199 15.3466 21.3907Z" fill="#333333"/>
<path d="M33.3251 20.4298C31.3013 21.1812 29.077 20.6906 27.1647 18.8752C26.8319 19.8644 27.7159 21.9462 29.8975 22.2683C32.0791 22.5904 33.4723 21.3415 33.3251 20.4298Z" fill="#333333"/>
<path fill-rule="evenodd" clip-rule="evenodd" d="M32.7542 22.2328C33.4373 21.7953 33.9378 21.0878 33.8187 20.3501C33.7948 20.2024 33.7061 20.0731 33.5768 19.9978C33.4475 19.9225 33.2913 19.909 33.151 19.9611C31.3328 20.6361 29.3048 20.2174 27.5089 18.5126C27.3851 18.3951 27.2098 18.3488 27.0441 18.39C26.8784 18.4311 26.7452 18.554 26.6908 18.7158C26.4591 19.4046 26.6667 20.3341 27.171 21.0975C27.693 21.8877 28.5785 22.579 29.8245 22.7629C31.0229 22.9399 32.0405 22.6899 32.7542 22.2328ZM32.2149 21.3907C31.7235 21.7054 30.9537 21.9188 29.9705 21.7737C29.0348 21.6355 28.3876 21.1249 28.0054 20.5463C27.8802 20.3569 27.7876 20.1673 27.7224 19.9871C29.2283 21.0698 30.8879 21.4691 32.4951 21.1754C32.4181 21.2474 32.3254 21.3199 32.2149 21.3907Z" fill="#333333"/>
<path d="M41 13C41 15.2091 39.2091 17 37 17C34.7909 17 33 15.2091 33 13C33 9.5 37 6 37 6C37 6 41 9.5 41 13Z" fill="#333333"/>
<path fill-rule="evenodd" clip-rule="evenodd" d="M15.6508 27.2407L19.1508 30.2407L17.8492 31.7593L14.3492 28.7593L15.6508 27.2407Z" fill="#333333"/>
<path fill-rule="evenodd" clip-rule="evenodd" d="M24 27C27.2304 27 30.0305 29.4383 31.4065 33C31.7939 34.0028 30.9866 35 29.9116 35H24.433L19.2297 30.494L17.9205 32.0059L21.3778 35L18.0883 35C17.0133 35 16.2061 34.0028 16.5935 33C17.9694 29.4383 20.7695 27 24 27Z" fill="#333333"/>
<path fill-rule="evenodd" clip-rule="evenodd" d="M24.433 35H29.9116C30.9866 35 31.7939 34.0028 31.4065 33C30.0305 29.4383 27.2304 27 24 27C22.5091 27 21.1099 27.5193 19.9 28.4288C19.3774 28.8216 18.89 29.2873 18.4459 29.8153C18.0253 30.3154 17.6434 30.8715 17.307 31.4747C17.0392 31.9548 16.8003 32.4647 16.5935 33C16.539 33.1411 16.5081 33.282 16.4983 33.4201C16.4385 34.2636 17.1645 35 18.0883 35L21.3778 35L17.9205 32.0059L19.2297 30.494L24.433 35ZM21.4613 29.7809L25.1786 33H29.2317C27.9921 30.3863 25.9601 29 24 29C23.1435 29 22.2732 29.2647 21.4613 29.7809Z" fill="#333333"/>
<path d="M17 28C17 29.1046 16.1046 30 15 30C13.8954 30 13 29.1046 13 28C13 26.8954 13.8954 26 15 26C16.1046 26 17 26.8954 17 28Z" fill="#333333"/>
</svg>
