<svg width="48" height="48" viewBox="0 0 48 48" fill="none" xmlns="http://www.w3.org/2000/svg">
<path fill-rule="evenodd" clip-rule="evenodd" d="M24 40C32.8366 40 40 32.8366 40 24C40 15.1634 32.8366 8 24 8C15.1634 8 8 15.1634 8 24C8 32.8366 15.1634 40 24 40ZM24 42C33.9411 42 42 33.9411 42 24C42 14.0589 33.9411 6 24 6C14.0589 6 6 14.0589 6 24C6 33.9411 14.0589 42 24 42Z" fill="#333333"/>
<path fill-rule="evenodd" clip-rule="evenodd" d="M31.7091 17.5165C29.9577 16.5486 28.4126 15.4866 27.6812 14.8061L26.3188 16.2703C27.2245 17.1129 28.9326 18.2671 30.7418 19.2669C32.5433 20.2625 34.5934 21.1882 36.1917 21.4834L36.5549 19.5166C35.2863 19.2823 33.4683 18.4886 31.7091 17.5165Z" fill="#333333"/>
<path fill-rule="evenodd" clip-rule="evenodd" d="M16.6642 17.5165C18.4156 16.5486 19.9607 15.4866 20.6922 14.8061L22.0545 16.2703C21.1488 17.1129 19.4408 18.2671 17.6316 19.2669C15.83 20.2625 13.78 21.1882 12.1816 21.4834L11.8184 19.5166C13.087 19.2823 14.9051 18.4886 16.6642 17.5165Z" fill="#333333"/>
<path d="M21.7766 24.3841C18.897 23.4748 15.8076 23.8652 13.2313 25.6722C12.7082 24.6088 13.8279 22.4615 16.8671 22.2465C19.9064 22.0315 21.9306 23.4299 21.7766 24.3841Z" fill="#333333"/>
<path fill-rule="evenodd" clip-rule="evenodd" d="M21.8879 23.2995C22.1534 23.6221 22.3402 24.0299 22.2702 24.4638C22.247 24.6072 22.1626 24.7334 22.0389 24.8097C21.9153 24.8859 21.7645 24.9046 21.626 24.8609C18.888 23.9963 15.9615 24.368 13.5184 26.0816C13.3989 26.1655 13.2486 26.1929 13.1071 26.1566C12.9657 26.1203 12.8471 26.024 12.7827 25.8929C12.4022 25.1194 12.6614 24.1037 13.333 23.3167C14.026 22.5046 15.1973 21.8634 16.8318 21.7478C18.432 21.6346 19.7901 21.9438 20.7465 22.4314C21.2228 22.6744 21.6173 22.9709 21.8879 23.2995ZM20.2922 23.3223C19.5151 22.926 18.3415 22.6435 16.9024 22.7453C15.4977 22.8447 14.5896 23.3847 14.0937 23.9658C13.8399 24.2632 13.7012 24.5567 13.6426 24.8128C15.8456 23.5132 18.345 23.1329 20.762 23.6092C20.6306 23.5122 20.4742 23.4151 20.2922 23.3223Z" fill="#333333"/>
<path d="M26.2328 24.4419C28.9793 23.5746 31.9259 23.947 34.3832 25.6705C34.8821 24.6562 33.8142 22.6082 30.9154 22.4031C28.0166 22.198 26.0859 23.5318 26.2328 24.4419Z" fill="#333333"/>
<path fill-rule="evenodd" clip-rule="evenodd" d="M26.1088 23.3928C25.8532 23.7033 25.6709 24.0987 25.7392 24.5216C25.7623 24.665 25.8467 24.7913 25.9704 24.8675C26.0941 24.9437 26.2448 24.9624 26.3833 24.9187C28.9883 24.0961 31.772 24.4498 34.0961 26.0799C34.2156 26.1637 34.3659 26.1911 34.5074 26.1549C34.6488 26.1186 34.7674 26.0223 34.8318 25.8912C35.2002 25.1423 34.9479 24.1637 34.3038 23.4088C33.6383 22.6289 32.515 22.015 30.9507 21.9044C29.4207 21.7961 28.121 22.0916 27.2048 22.5589C26.7484 22.7916 26.3694 23.0762 26.1088 23.3928ZM27.6591 23.4497C28.3961 23.0739 29.5112 22.805 30.8801 22.9019C32.2146 22.9963 33.0747 23.509 33.5431 24.0579C33.7659 24.3191 33.8941 24.5758 33.9552 24.8031C31.8925 23.6016 29.5616 23.2393 27.3009 23.66C27.4056 23.5889 27.5249 23.5181 27.6591 23.4497Z" fill="#333333"/>
<path d="M20 31C20 28.7909 21.7909 27 24 27C26.2091 27 28 28.7909 28 31V33C28 35.2091 26.2091 37 24 37C21.7909 37 20 35.2091 20 33V31Z" fill="#333333"/>
<path fill-rule="evenodd" clip-rule="evenodd" d="M12.5649 37.9017C9.74089 38.4426 8 39.1832 8 40C8 41.6568 15.1634 43 24 43C32.8366 43 40 41.6568 40 40C40 39.1832 38.2591 38.4426 35.4351 37.9017C32.3258 40.4623 28.3425 42 24 42C19.6575 42 15.6742 40.4623 12.5649 37.9017Z" fill="#333333"/>
<path fill-rule="evenodd" clip-rule="evenodd" d="M17.6607 22.6978C18.3799 23.1089 18.6297 24.0252 18.2185 24.7444C15.9067 28.7883 14.515 34.0527 16.3393 39.5257C16.6013 40.3116 16.1765 41.1611 15.3906 41.423C14.6047 41.685 13.7552 41.2603 13.4933 40.4743C11.3176 33.9473 13.0258 27.7831 15.614 23.2556C16.0252 22.5364 16.9415 22.2866 17.6607 22.6978Z" fill="#333333"/>
<path fill-rule="evenodd" clip-rule="evenodd" d="M30.2556 22.6978C29.5364 23.1089 29.2866 24.0252 29.6978 24.7444C32.0095 28.7883 33.4013 34.0527 31.577 39.5257C31.315 40.3116 31.7397 41.1611 32.5257 41.423C33.3116 41.685 34.1611 41.2603 34.423 40.4743C36.5987 33.9473 34.8905 27.7831 32.3022 23.2556C31.8911 22.5364 30.9748 22.2866 30.2556 22.6978Z" fill="#333333"/>
</svg>
