<svg width="48" height="48" viewBox="0 0 48 48" fill="none" xmlns="http://www.w3.org/2000/svg">
<path fill-rule="evenodd" clip-rule="evenodd" d="M24 40C32.8366 40 40 32.8366 40 24C40 15.1634 32.8366 8 24 8C15.1634 8 8 15.1634 8 24C8 32.8366 15.1634 40 24 40ZM24 42C33.9411 42 42 33.9411 42 24C42 14.0589 33.9411 6 24 6C14.0589 6 6 14.0589 6 24C6 33.9411 14.0589 42 24 42Z" fill="#333333"/>
<path fill-rule="evenodd" clip-rule="evenodd" d="M36.0001 26.5761C26.6267 24.5277 21.3743 24.4222 12.0001 26.5761C10.5318 30.8415 10.5829 33.2352 12.0001 37.5C19.5001 43.5 29.0001 43.5 36.5001 37C37.5622 32.9229 37.7063 30.6389 36.0001 26.5761ZM18 30H30V32H18V30ZM18 34H30V36H18V34Z" fill="#333333"/>
<path fill-rule="evenodd" clip-rule="evenodd" d="M16 28H32V37.7578C32.9283 37.2303 33.8374 36.6062 34.7199 35.8846C35.1317 34.2151 35.3215 32.9988 35.289 31.8387C35.2598 30.7966 35.0475 29.7077 34.5338 28.3075C30.4172 27.4455 27.1859 27.0117 23.9932 27.0002C20.8231 26.9888 17.6162 27.3935 13.5505 28.2785C13.1021 29.7664 12.9138 30.9227 12.918 32.0306C12.9227 33.2621 13.1656 34.5538 13.7136 36.2991C14.4583 36.8616 15.2219 37.3597 16 37.7929V28ZM31.5597 38C26.6563 40.609 21.2517 40.5626 16.3825 38H31.5597ZM12.0001 37.5C10.5829 33.2352 10.5318 30.8415 12.0001 26.5761C21.3743 24.4222 26.6267 24.5277 36.0001 26.5761C37.7063 30.6389 37.5622 32.9229 36.5001 37C29.0001 43.5 19.5001 43.5 12.0001 37.5ZM18 30V32H30V30H18ZM18 34V36H30V34H18Z" fill="#333333"/>
<path fill-rule="evenodd" clip-rule="evenodd" d="M8.18227 18.2689C8.58602 18.6458 8.60784 19.2786 8.23101 19.6823C6.55267 21.4806 6.23406 22.6631 6.3207 23.3706C6.40431 24.0534 6.91474 24.6597 7.86284 25.1896C8.79554 25.7108 9.96215 26.0448 10.9378 26.2475C11.4176 26.3471 11.8348 26.4117 12.1305 26.4512C12.278 26.4709 12.3946 26.4842 12.4726 26.4925C12.5117 26.4967 12.541 26.4996 12.5597 26.5013L12.5798 26.5032L12.5831 26.5035C13.1332 26.5496 13.5425 27.0328 13.4966 27.583C13.4508 28.1334 12.9674 28.5424 12.417 28.4965L12.5001 27.5C12.417 28.4965 12.4174 28.4966 12.417 28.4965L12.4122 28.4961L12.403 28.4953L12.372 28.4925C12.3457 28.49 12.3085 28.4864 12.2614 28.4813C12.1671 28.4713 12.0326 28.4559 11.8657 28.4336C11.5325 28.3891 11.0669 28.317 10.5311 28.2057C9.47545 27.9864 8.07953 27.6017 6.88721 26.9354C5.71029 26.2778 4.5332 25.2279 4.33553 23.6137C4.1409 22.0244 4.94726 20.2694 6.7689 18.3177C7.14573 17.9139 7.77852 17.8921 8.18227 18.2689Z" fill="#333333"/>
<path fill-rule="evenodd" clip-rule="evenodd" d="M39.6252 18.2689C39.2215 18.6458 39.1996 19.2786 39.5765 19.6823C41.2548 21.4806 41.5734 22.6631 41.4868 23.3706C41.4032 24.0534 40.8927 24.6597 39.9446 25.1896C39.0119 25.7108 37.8453 26.0448 36.8697 26.2475C36.3899 26.3471 35.9727 26.4117 35.677 26.4512C35.5294 26.4709 35.4129 26.4842 35.3348 26.4925C35.2958 26.4967 35.2665 26.4996 35.2477 26.5013L35.2277 26.5032L35.2244 26.5035C34.6742 26.5496 34.265 27.0328 34.3109 27.583C34.3567 28.1334 34.8401 28.5424 35.3904 28.4965L35.3074 27.5C35.3904 28.4965 35.39 28.4966 35.3904 28.4965L35.3953 28.4961L35.4044 28.4953L35.4355 28.4925C35.4617 28.49 35.4989 28.4864 35.5461 28.4813C35.6404 28.4713 35.7748 28.4559 35.9417 28.4336C36.275 28.3891 36.7406 28.317 37.2764 28.2057C38.332 27.9864 39.7279 27.6017 40.9203 26.9354C42.0972 26.2778 43.2743 25.2279 43.4719 23.6137C43.6666 22.0244 42.8602 20.2694 41.0386 18.3177C40.6617 17.9139 40.029 17.8921 39.6252 18.2689Z" fill="#333333"/>
<path d="M17.8101 18.823C20.0134 18.9155 21.1478 21.4033 20.8324 22.2713C19.9116 21.7143 18.884 20.4511 17.8101 20.5038C16.7297 20.5567 15.6024 21.9293 14.4898 22.6438C14.3483 21.6097 15.6068 18.7305 17.8101 18.823Z" fill="#333333"/>
<path fill-rule="evenodd" clip-rule="evenodd" d="M21.2857 21.2489C21.3934 21.6474 21.4323 22.0844 21.3023 22.4421C21.2512 22.5827 21.1398 22.6931 20.9987 22.7429C20.8576 22.7926 20.7016 22.7766 20.5736 22.6991C20.3119 22.5409 20.0523 22.3386 19.8085 22.1417C19.7422 22.0882 19.6772 22.0351 19.6129 21.9827C19.4326 21.8355 19.2585 21.6935 19.0791 21.5592C18.5774 21.1839 18.1791 20.9863 17.8345 21.0032C17.4717 21.0209 17.0342 21.274 16.4719 21.7181C16.3135 21.8432 16.1434 21.9853 15.9668 22.133C15.579 22.4572 15.1593 22.8081 14.7599 23.0645C14.6163 23.1567 14.4355 23.1693 14.2804 23.0978C14.1254 23.0264 14.0175 22.8807 13.9944 22.7115C13.9445 22.3469 14.0202 21.8907 14.1629 21.4451C14.3095 20.987 14.5433 20.4891 14.8578 20.0288C15.4778 19.1216 16.4842 18.2669 17.831 18.3234C19.1318 18.3781 20.0947 19.1404 20.6753 19.9696C20.9666 20.3855 21.1734 20.8333 21.2857 21.2489ZM19.8562 20.5432C19.3976 19.8883 18.6917 19.3605 17.7891 19.3226C16.9326 19.2866 16.2082 19.8252 15.6834 20.593C15.494 20.8703 15.34 21.1652 15.2247 21.4489C15.2354 21.4399 15.2461 21.431 15.2569 21.422C15.4461 21.2634 15.6425 21.0988 15.8521 20.9333C16.4018 20.4992 17.068 20.0395 17.7856 20.0044C18.515 19.9686 19.1674 20.3763 19.6782 20.7586C19.857 20.8924 20.0358 21.0372 20.2051 21.1751C20.1191 20.9685 20.0027 20.7524 19.8562 20.5432Z" fill="#333333"/>
<path d="M30.1055 18.823C27.9022 18.9155 26.7677 21.4033 27.0832 22.2713C28.004 21.7143 29.0315 20.4511 30.1055 20.5038C31.1858 20.5567 32.3131 21.9293 33.4258 22.6438C33.5672 21.6097 32.3088 18.7305 30.1055 18.823Z" fill="#333333"/>
<path fill-rule="evenodd" clip-rule="evenodd" d="M26.6298 21.2489C26.5221 21.6474 26.4832 22.0844 26.6132 22.4421C26.6644 22.5827 26.7758 22.6931 26.9169 22.7429C27.058 22.7926 27.2139 22.7766 27.342 22.6991C27.6036 22.5409 27.8632 22.3386 28.107 22.1417C28.1733 22.0882 28.2384 22.0351 28.3026 21.9827C28.483 21.8355 28.6571 21.6935 28.8365 21.5592C29.3381 21.1839 29.7364 20.9863 30.081 21.0032C30.4438 21.0209 30.8813 21.274 31.4436 21.7181C31.602 21.8432 31.7721 21.9853 31.9487 22.133C32.3365 22.4572 32.7563 22.8081 33.1556 23.0645C33.2993 23.1567 33.4801 23.1693 33.6351 23.0978C33.7901 23.0264 33.898 22.8807 33.9211 22.7115C33.971 22.3469 33.8954 21.8907 33.7527 21.4451C33.606 20.987 33.3723 20.4891 33.0577 20.0288C32.4377 19.1216 31.4313 18.2669 30.0845 18.3234C28.7838 18.3781 27.8208 19.1404 27.2402 19.9696C26.9489 20.3855 26.7421 20.8333 26.6298 21.2489ZM28.0594 20.5432C28.5179 19.8883 29.2238 19.3605 30.1264 19.3226C30.9829 19.2866 31.7074 19.8252 32.2321 20.593C32.4215 20.8703 32.5755 21.1652 32.6908 21.4489C32.6801 21.4399 32.6694 21.431 32.6587 21.422C32.4694 21.2634 32.273 21.0988 32.0634 20.9333C31.5138 20.4992 30.8475 20.0395 30.1299 20.0044C29.4005 19.9686 28.7482 20.3763 28.2373 20.7586C28.0585 20.8924 27.8797 21.0372 27.7105 21.1751C27.7964 20.9685 27.9128 20.7524 28.0594 20.5432Z" fill="#333333"/>
</svg>
