<svg width="48" height="48" viewBox="0 0 48 48" fill="none" xmlns="http://www.w3.org/2000/svg">
<path fill-rule="evenodd" clip-rule="evenodd" d="M24 40C32.8366 40 40 32.8366 40 24C40 15.1634 32.8366 8 24 8C15.1634 8 8 15.1634 8 24C8 32.8366 15.1634 40 24 40ZM24 42C33.9411 42 42 33.9411 42 24C42 14.0589 33.9411 6 24 6C14.0589 6 6 14.0589 6 24C6 33.9411 14.0589 42 24 42Z" fill="#333333"/>
<path fill-rule="evenodd" clip-rule="evenodd" d="M14.2214 16.3725C14.5389 15.9785 15.1008 15.8838 15.53 16.152L19.53 18.652C19.8224 18.8347 20 19.1552 20 19.5C20 19.8448 19.8224 20.1653 19.53 20.348L15.53 22.848C15.0947 23.1201 14.5241 23.0183 14.2096 22.6126C13.8951 22.2069 13.939 21.6289 14.311 21.2752C15.2934 20.3413 15.4846 19.8528 15.4822 19.546C15.4797 19.2159 15.2568 18.6958 14.284 17.6981C13.9307 17.3357 13.9038 16.7665 14.2214 16.3725Z" fill="#333333"/>
<path fill-rule="evenodd" clip-rule="evenodd" d="M33.7786 16.3725C33.4611 15.9785 32.8992 15.8838 32.47 16.152L28.47 18.652C28.1776 18.8347 28 19.1552 28 19.5C28 19.8448 28.1776 20.1653 28.47 20.348L32.47 22.848C32.9053 23.1201 33.4759 23.0183 33.7904 22.6126C34.1049 22.2069 34.0611 21.6289 33.689 21.2752C32.7066 20.3413 32.5154 19.8528 32.5178 19.546C32.5203 19.2159 32.7432 18.6958 33.716 17.6981C34.0693 17.3357 34.0962 16.7665 33.7786 16.3725Z" fill="#333333"/>
<path d="M33.2581 31C31.5382 27.4383 28.0381 25 24 25C19.9619 25 16.4618 27.4383 14.7419 31C14.273 31.9709 15.0582 33 16.1363 33L31.8637 33C32.9418 33 33.727 31.9709 33.2581 31Z" fill="#333333"/>
<path fill-rule="evenodd" clip-rule="evenodd" d="M30.9778 31C29.4525 28.5553 26.8697 27 24 27C21.1303 27 18.5475 28.5553 17.0222 31L30.9778 31ZM24 25C28.0381 25 31.5382 27.4383 33.2581 31C33.727 31.9709 32.9418 33 31.8637 33L16.1363 33C15.0582 33 14.273 31.9709 14.7419 31C16.4618 27.4383 19.9619 25 24 25Z" fill="#333333"/>
<path d="M26 12.5C26 13.3284 25.3284 14 24.5 14C23.6716 14 23 13.3284 23 12.5C23 11.6716 23.6716 11 24.5 11C25.3284 11 26 11.6716 26 12.5Z" fill="#333333"/>
<path d="M35 11.5C35 12.3284 34.3284 13 33.5 13C32.6716 13 32 12.3284 32 11.5C32 10.6716 32.6716 10 33.5 10C34.3284 10 35 10.6716 35 11.5Z" fill="#333333"/>
<path d="M12 28C12 29.1046 11.1046 30 10 30C8.89543 30 8 29.1046 8 28C8 26.8954 8.89543 26 10 26C11.1046 26 12 26.8954 12 28Z" fill="#333333"/>
<path d="M24 39C24 40.1046 23.1046 41 22 41C20.8954 41 20 40.1046 20 39C20 37.8954 20.8954 37 22 37C23.1046 37 24 37.8954 24 39Z" fill="#333333"/>
<path d="M38 27.5C38 28.3284 37.3284 29 36.5 29C35.6716 29 35 28.3284 35 27.5C35 26.6716 35.6716 26 36.5 26C37.3284 26 38 26.6716 38 27.5Z" fill="#333333"/>
<path d="M17 11C17 12.1046 16.1046 13 15 13C13.8954 13 13 12.1046 13 11C13 9.89543 13.8954 9 15 9C16.1046 9 17 9.89543 17 11Z" fill="#333333"/>
</svg>
