<svg width="48" height="48" viewBox="0 0 48 48" fill="none" xmlns="http://www.w3.org/2000/svg">
<path fill-rule="evenodd" clip-rule="evenodd" d="M24 40C32.8366 40 40 32.8366 40 24C40 15.1634 32.8366 8 24 8C15.1634 8 8 15.1634 8 24C8 32.8366 15.1634 40 24 40ZM24 42C33.9411 42 42 33.9411 42 24C42 14.0589 33.9411 6 24 6C14.0589 6 6 14.0589 6 24C6 33.9411 14.0589 42 24 42Z" fill="#333333"/>
<path fill-rule="evenodd" clip-rule="evenodd" d="M20.5 33C20.5 32.4477 20.9477 32 21.5 32H26.5C27.0523 32 27.5 32.4477 27.5 33C27.5 33.5523 27.0523 34 26.5 34H21.5C20.9477 34 20.5 33.5523 20.5 33Z" fill="#333333"/>
<path fill-rule="evenodd" clip-rule="evenodd" d="M18.3749 30.2194C18.806 29.8742 19.4353 29.9438 19.7806 30.3749C20.4269 31.182 20.9754 32.0277 20.9992 32.9968C21.024 34.0053 20.482 34.8562 19.74 35.6726C19.3686 36.0813 18.7361 36.1115 18.3274 35.74C17.9187 35.3686 17.8885 34.7361 18.26 34.3274C18.9106 33.6115 19.005 33.2571 18.9998 33.0459C18.9936 32.7954 18.8459 32.4073 18.2194 31.6251C17.8742 31.194 17.9438 30.5647 18.3749 30.2194Z" fill="#333333"/>
<path fill-rule="evenodd" clip-rule="evenodd" d="M29.6251 30.2194C29.194 29.8742 28.5647 29.9438 28.2194 30.3749C27.5731 31.182 27.0246 32.0277 27.0008 32.9968C26.976 34.0053 27.518 34.8562 28.26 35.6726C28.6314 36.0813 29.2639 36.1115 29.6726 35.74C30.0813 35.3686 30.1115 34.7361 29.74 34.3274C29.0894 33.6115 28.995 33.2571 29.0002 33.0459C29.0064 32.7954 29.1541 32.4073 29.7806 31.6251C30.1258 31.194 30.0562 30.5647 29.6251 30.2194Z" fill="#333333"/>
<path d="M14.2364 23.4299C16.2602 24.1812 18.4845 23.6906 20.3968 21.8753C20.7296 22.8645 19.8456 24.9463 17.664 25.2684C15.4824 25.5904 14.0892 24.3416 14.2364 23.4299Z" fill="#333333"/>
<path fill-rule="evenodd" clip-rule="evenodd" d="M14.8073 25.2328C14.1242 24.7954 13.6237 24.0879 13.7428 23.3502C13.7667 23.2025 13.8554 23.0732 13.9847 22.9979C14.114 22.9225 14.2702 22.909 14.4105 22.9611C16.2287 23.6362 18.2567 23.2174 20.0526 21.5127C20.1764 21.3951 20.3517 21.3489 20.5174 21.39C20.6831 21.4312 20.8163 21.5541 20.8707 21.7159C21.1024 22.4047 20.8948 23.3341 20.3905 24.0976C19.8685 24.8878 18.983 25.5791 17.737 25.763C16.5386 25.9399 15.521 25.69 14.8073 25.2328ZM15.3466 24.3907C15.838 24.7055 16.6078 24.9189 17.591 24.7737C18.5267 24.6356 19.1739 24.1249 19.5561 23.5464C19.6813 23.3569 19.7739 23.1674 19.8391 22.9871C18.3332 24.0699 16.6736 24.4691 15.0663 24.1755C15.1434 24.2474 15.2361 24.3199 15.3466 24.3907Z" fill="#333333"/>
<path d="M33.325 23.4299C31.3013 24.1812 29.077 23.6906 27.1646 21.8753C26.8319 22.8645 27.7159 24.9463 29.8975 25.2684C32.0791 25.5904 33.4722 24.3416 33.325 23.4299Z" fill="#333333"/>
<path fill-rule="evenodd" clip-rule="evenodd" d="M32.7542 25.2328C33.4373 24.7954 33.9377 24.0879 33.8187 23.3502C33.7948 23.2025 33.7061 23.0732 33.5768 22.9979C33.4475 22.9225 33.2913 22.909 33.151 22.9611C31.3327 23.6362 29.3048 23.2174 27.5089 21.5127C27.3851 21.3951 27.2098 21.3489 27.0441 21.39C26.8784 21.4312 26.7452 21.5541 26.6907 21.7159C26.459 22.4047 26.6666 23.3341 27.171 24.0976C27.693 24.8878 28.5785 25.5791 29.8244 25.763C31.0229 25.9399 32.0404 25.69 32.7542 25.2328ZM32.2149 24.3907C31.7235 24.7055 30.9537 24.9189 29.9705 24.7737C29.0348 24.6356 28.3875 24.1249 28.0054 23.5464C27.8802 23.3569 27.7875 23.1674 27.7224 22.9871C29.2283 24.0699 30.8879 24.4691 32.4951 24.1755C32.418 24.2474 32.3254 24.3199 32.2149 24.3907Z" fill="#333333"/>
</svg>
