<svg width="48" height="48" viewBox="0 0 48 48" fill="none" xmlns="http://www.w3.org/2000/svg">
<path fill-rule="evenodd" clip-rule="evenodd" d="M24 40C32.8366 40 40 32.8366 40 24C40 15.1634 32.8366 8 24 8C15.1634 8 8 15.1634 8 24C8 32.8366 15.1634 40 24 40ZM24 42C33.9411 42 42 33.9411 42 24C42 14.0589 33.9411 6 24 6C14.0589 6 6 14.0589 6 24C6 33.9411 14.0589 42 24 42Z" fill="#333333"/>
<path d="M14.2364 21.4299C16.2602 22.1812 18.4845 21.6906 20.3968 19.8753C20.7296 20.8645 19.8456 22.9463 17.664 23.2684C15.4824 23.5904 14.0892 22.3416 14.2364 21.4299Z" fill="#333333"/>
<path fill-rule="evenodd" clip-rule="evenodd" d="M14.8073 23.2328C14.1242 22.7954 13.6237 22.0879 13.7428 21.3502C13.7667 21.2025 13.8554 21.0732 13.9847 20.9979C14.114 20.9225 14.2702 20.909 14.4105 20.9611C16.2287 21.6362 18.2567 21.2174 20.0526 19.5127C20.1764 19.3951 20.3517 19.3489 20.5174 19.39C20.6831 19.4312 20.8163 19.5541 20.8707 19.7159C21.1024 20.4047 20.8948 21.3341 20.3905 22.0976C19.8685 22.8878 18.983 23.5791 17.737 23.763C16.5386 23.9399 15.521 23.69 14.8073 23.2328ZM15.3466 22.3907C15.838 22.7055 16.6078 22.9189 17.591 22.7737C18.5267 22.6356 19.1739 22.1249 19.5561 21.5464C19.6813 21.3569 19.7739 21.1673 19.8391 20.9871C18.3332 22.0699 16.6736 22.4691 15.0663 22.1755C15.1434 22.2474 15.2361 22.3199 15.3466 22.3907Z" fill="#333333"/>
<path d="M33.325 21.4299C31.3013 22.1812 29.077 21.6906 27.1646 19.8753C26.8319 20.8645 27.7159 22.9463 29.8975 23.2684C32.0791 23.5904 33.4722 22.3416 33.325 21.4299Z" fill="#333333"/>
<path fill-rule="evenodd" clip-rule="evenodd" d="M32.7542 23.2328C33.4373 22.7954 33.9377 22.0879 33.8187 21.3502C33.7948 21.2025 33.7061 21.0732 33.5768 20.9979C33.4475 20.9225 33.2913 20.909 33.151 20.9611C31.3327 21.6362 29.3048 21.2174 27.5089 19.5127C27.3851 19.3951 27.2098 19.3489 27.0441 19.39C26.8784 19.4312 26.7452 19.5541 26.6907 19.7159C26.459 20.4047 26.6666 21.3341 27.171 22.0976C27.693 22.8878 28.5785 23.5791 29.8244 23.763C31.0229 23.9399 32.0404 23.69 32.7542 23.2328ZM32.2149 22.3907C31.7235 22.7055 30.9537 22.9189 29.9705 22.7737C29.0348 22.6356 28.3875 22.1249 28.0054 21.5464C27.8802 21.3569 27.7875 21.1673 27.7224 20.9871C29.2283 22.0699 30.8879 22.4691 32.4951 22.1755C32.418 22.2474 32.3254 22.3199 32.2149 22.3907Z" fill="#333333"/>
<path d="M29.433 31.5441C28.3449 30.0258 26.2714 29 23.8924 29C21.4243 29 19.2849 30.1041 18.2337 31.7167C17.7802 32.4124 17.347 34.5193 19.0004 34C23.813 32.3992 24.2808 32.4582 29.0001 34C30.3166 34.4716 30.0701 32.5758 29.674 31.8852C29.6048 31.7645 29.5141 31.6572 29.433 31.5441Z" fill="#333333"/>
<path fill-rule="evenodd" clip-rule="evenodd" d="M18.8346 33.3076C18.8346 33.3076 18.8334 33.3049 18.8319 33.2982C18.8341 33.3041 18.8346 33.3076 18.8346 33.3076ZM18.8338 33.0016C18.8452 32.9116 18.865 32.8107 18.8942 32.7038C18.9541 32.485 19.0303 32.326 19.0714 32.2628C19.9054 30.9834 21.6978 30 23.8924 30C26.005 30 27.7503 30.9127 28.6202 32.1266C28.6917 32.2264 28.729 32.2743 28.7528 32.305C28.7774 32.3366 28.7877 32.3498 28.8066 32.3827C28.8407 32.4423 28.9005 32.5869 28.9438 32.786C28.9553 32.8387 28.9645 32.8899 28.9715 32.9388C26.8487 32.2476 25.4627 31.8295 24.0409 31.8215C22.5707 31.8132 21.1228 32.2422 18.8338 33.0016ZM28.9725 33.3405C28.9725 33.3405 28.9732 33.3362 28.976 33.3292C28.9741 33.3372 28.9725 33.3405 28.9725 33.3405ZM16.9651 32.1762C17.0623 31.8206 17.2104 31.4554 17.396 31.1707C18.6644 29.2247 21.1507 28 23.8924 28C26.5378 28 28.9396 29.1388 30.2458 30.9616C30.2483 30.965 30.2543 30.973 30.2631 30.9845C30.3136 31.0509 30.4552 31.2373 30.5414 31.3877C30.7053 31.6733 30.8249 32.0247 30.898 32.3605C30.9718 32.6991 31.0149 33.0977 30.9737 33.4844C30.9358 33.84 30.8037 34.3839 30.3336 34.7525C29.8109 35.1624 29.1841 35.1245 28.6779 34.9467C26.2836 34.1646 25.1485 33.8278 24.0296 33.8215C22.9145 33.8152 21.7529 34.1383 19.316 34.9489L19.3081 34.9515L19.3001 34.954C18.7402 35.1299 18.0785 35.1698 17.5284 34.7669C17.0011 34.3807 16.8603 33.7906 16.8298 33.3898C16.7976 32.9661 16.8672 32.534 16.9651 32.1762Z" fill="#333333"/>
</svg>
