<svg width="48" height="48" viewBox="0 0 48 48" fill="none" xmlns="http://www.w3.org/2000/svg">
<g clip-path="url(#clip0)">
<path fill-rule="evenodd" clip-rule="evenodd" d="M24 6C14.0589 6 6 14.0589 6 24C6 33.9411 14.0589 42 24 42C33.9411 42 42 33.9411 42 24C42 22.2017 41.7363 20.4649 41.2454 18.8264L39.3293 19.4012C39.7656 20.8577 40 22.4015 40 24C40 32.8366 32.8366 40 24 40C15.1634 40 8 32.8366 8 24C8 15.1634 15.1634 8 24 8V6Z" fill="#333333"/>
<path fill-rule="evenodd" clip-rule="evenodd" d="M18.164 15.3177C17.8879 14.8394 18.0518 14.2278 18.5301 13.9516L21.1986 12.411C21.5266 12.2216 21.9335 12.2338 22.2495 12.4425C22.5656 12.6512 22.7367 13.0206 22.6914 13.3966L22.2395 17.147L23.5095 16.4137C23.9878 16.1376 24.5994 16.3015 24.8756 16.7798C25.1517 17.2581 24.9878 17.8696 24.5095 18.1458L21.5075 19.879C21.1795 20.0684 20.7726 20.0562 20.4565 19.8475C20.1404 19.6388 19.9694 19.2694 20.0147 18.8934L20.4665 15.143L19.5301 15.6837C19.0518 15.9598 18.4402 15.796 18.164 15.3177Z" fill="#333333"/>
<path fill-rule="evenodd" clip-rule="evenodd" d="M25.8172 9.29408C25.6743 8.76062 25.9909 8.21228 26.5244 8.06934L30.3881 7.03406C30.7539 6.93603 31.1438 7.05312 31.3951 7.33652C31.6464 7.61992 31.716 8.02097 31.5749 8.37249L29.5262 13.4767L31.941 12.8296C32.4744 12.6867 33.0228 13.0033 33.1657 13.5367C33.3087 14.0702 32.9921 14.6185 32.4586 14.7615L28.1119 15.9262C27.7461 16.0242 27.3562 15.9071 27.1049 15.6237C26.8536 15.3403 26.784 14.9392 26.9251 14.5877L28.9738 9.48355L27.042 10.0012C26.5085 10.1441 25.9602 9.82755 25.8172 9.29408Z" fill="#333333"/>
<path fill-rule="evenodd" clip-rule="evenodd" d="M35.5556 7C35.5556 6.44772 36.0033 6 36.5556 6H41C41.3635 6 41.6984 6.19728 41.8746 6.51523C42.0509 6.83319 42.0407 7.22173 41.848 7.53L37.8042 14H41C41.5523 14 42 14.4477 42 15C42 15.5523 41.5523 16 41 16H36C35.6365 16 35.3016 15.8027 35.1254 15.4848C34.9491 15.1668 34.9593 14.7783 35.152 14.47L39.1958 8H36.5556C36.0033 8 35.5556 7.55228 35.5556 7Z" fill="#333333"/>
<path d="M13.3858 27.0549C15.5351 27.2569 17.5566 26.2073 18.934 23.9589C19.5114 24.8282 19.1964 27.0679 17.1725 27.9436C15.1486 28.8194 13.4797 27.9736 13.3858 27.0549Z" fill="#333333"/>
<path fill-rule="evenodd" clip-rule="evenodd" d="M14.4039 28.6487C13.6309 28.4029 12.9643 27.849 12.8884 27.1057C12.8732 26.9568 12.9255 26.809 13.0309 26.7028C13.1363 26.5965 13.2837 26.5431 13.4326 26.5571C15.3637 26.7386 17.2142 25.8092 18.5076 23.6977C18.5968 23.5521 18.7541 23.4621 18.9248 23.459C19.0955 23.4558 19.256 23.54 19.3505 23.6822C19.7526 24.2876 19.7926 25.2391 19.503 26.1071C19.2033 27.0055 18.5269 27.9024 17.371 28.4025C16.2592 28.8836 15.2116 28.9055 14.4039 28.6487ZM14.7069 27.6957C15.263 27.8725 16.0618 27.8794 16.9739 27.4847C17.842 27.1091 18.335 26.4484 18.5544 25.7906C18.6263 25.5752 18.6667 25.3681 18.683 25.1772C17.5087 26.6128 16.009 27.428 14.3805 27.5603C14.4735 27.6099 14.5818 27.6559 14.7069 27.6957Z" fill="#333333"/>
<path d="M31.824 22.1144C30.0637 23.364 27.7882 23.4658 25.4712 22.2072C25.4058 23.2488 26.7985 25.0309 28.9891 24.7774C31.1797 24.5238 32.2022 22.957 31.824 22.1144Z" fill="#333333"/>
<path fill-rule="evenodd" clip-rule="evenodd" d="M31.7393 24.0037C32.2859 23.4043 32.5862 22.5914 32.2802 21.9097C32.2189 21.7732 32.0998 21.6713 31.9554 21.6319C31.811 21.5926 31.6566 21.6201 31.5346 21.7067C29.953 22.8293 27.8858 22.9497 25.7099 21.7679C25.5598 21.6864 25.3786 21.6871 25.2292 21.7697C25.0798 21.8523 24.9829 22.0055 24.9722 22.1759C24.9266 22.9012 25.3677 23.7453 26.0525 24.3522C26.7612 24.9803 27.7955 25.4189 29.0466 25.2741C30.25 25.1348 31.1682 24.63 31.7393 24.0037ZM31.0004 23.3299C30.6072 23.761 29.9188 24.1664 28.9316 24.2807C27.9921 24.3894 27.2347 24.0637 26.7158 23.6038C26.5458 23.4532 26.4073 23.294 26.2977 23.1368C28.0325 23.7929 29.7389 23.749 31.2154 23.0494C31.1595 23.1389 31.0888 23.2329 31.0004 23.3299Z" fill="#333333"/>
<path d="M32.4478 31.855C30.1969 28.7708 26.8611 27.1403 23.7407 27.9764C20.6203 28.8125 18.5467 31.8924 18.1395 35.6889C18.0249 36.7578 19.0627 37.512 20.1011 37.2338L31.5215 34.1737C32.5599 33.8955 33.0815 32.7233 32.4478 31.855Z" fill="#333333"/>
<path fill-rule="evenodd" clip-rule="evenodd" d="M30.3471 32.4178C28.4733 30.2141 26.1517 29.4009 24.2584 29.9082C22.3651 30.4155 20.7611 32.2805 20.2402 35.126L30.3471 32.4178ZM23.7407 27.9764C26.8611 27.1403 30.1969 28.7708 32.4478 31.855C33.0815 32.7233 32.5599 33.8955 31.5215 34.1737L20.1011 37.2338C19.0627 37.512 18.0249 36.7578 18.1395 35.6889C18.5467 31.8924 20.6203 28.8125 23.7407 27.9764Z" fill="#333333"/>
</g>
<defs>
<clipPath id="clip0">
<rect width="48" height="48" fill="white"/>
</clipPath>
</defs>
</svg>
