<svg width="48" height="48" viewBox="0 0 48 48" fill="none" xmlns="http://www.w3.org/2000/svg">
<path fill-rule="evenodd" clip-rule="evenodd" d="M34.767 35.8353C31.9246 38.4227 28.1465 40 24 40C20.8342 40 17.8832 39.0806 15.3994 37.4942C15.0971 38.1029 14.6911 38.6479 14.2054 39.1044C17.0242 40.936 20.3879 42 24 42C29.0603 42 33.6328 39.9119 36.9031 36.5503C36.1321 36.4646 35.4089 36.2147 34.767 35.8353ZM41.8146 26.5931C41.9368 25.7464 42 24.8806 42 24C42 14.0589 33.9411 6 24 6C14.0589 6 6 14.0589 6 24C6 25.8967 6.29336 27.7249 6.83719 29.4417C7.32113 28.6605 7.84761 27.9454 8.34656 27.3279C8.11946 26.2544 8 25.1411 8 24C8 15.1634 15.1634 8 24 8C32.7582 8 39.8728 15.0369 39.9983 23.7653C40.631 24.588 41.2816 25.5509 41.8146 26.5931Z" fill="#333333"/>
<path d="M14.2364 20.4299C16.2602 21.1812 18.4845 20.6906 20.3968 18.8753C20.7296 19.8645 19.8456 21.9463 17.664 22.2684C15.4824 22.5904 14.0892 21.3416 14.2364 20.4299Z" fill="#333333"/>
<path fill-rule="evenodd" clip-rule="evenodd" d="M14.8073 22.2328C14.1242 21.7954 13.6237 21.0879 13.7428 20.3502C13.7667 20.2025 13.8554 20.0732 13.9847 19.9979C14.114 19.9225 14.2702 19.909 14.4105 19.9611C16.2287 20.6362 18.2567 20.2174 20.0526 18.5127C20.1764 18.3951 20.3517 18.3489 20.5174 18.39C20.6831 18.4312 20.8163 18.5541 20.8707 18.7159C21.1024 19.4047 20.8948 20.3341 20.3905 21.0976C19.8685 21.8878 18.983 22.5791 17.737 22.763C16.5386 22.9399 15.521 22.69 14.8073 22.2328ZM15.3466 21.3907C15.838 21.7055 16.6078 21.9189 17.591 21.7737C18.5267 21.6356 19.1739 21.1249 19.5561 20.5464C19.6813 20.3569 19.7739 20.1673 19.8391 19.9871C18.3332 21.0699 16.6736 21.4691 15.0663 21.1755C15.1434 21.2474 15.2361 21.3199 15.3466 21.3907Z" fill="#333333"/>
<path d="M33.325 20.4299C31.3013 21.1812 29.077 20.6906 27.1646 18.8753C26.8319 19.8645 27.7159 21.9463 29.8975 22.2684C32.0791 22.5904 33.4722 21.3416 33.325 20.4299Z" fill="#333333"/>
<path fill-rule="evenodd" clip-rule="evenodd" d="M32.7542 22.2328C33.4373 21.7954 33.9377 21.0879 33.8187 20.3502C33.7948 20.2025 33.7061 20.0732 33.5768 19.9979C33.4475 19.9225 33.2913 19.909 33.151 19.9611C31.3327 20.6362 29.3048 20.2174 27.5089 18.5127C27.3851 18.3951 27.2098 18.3489 27.0441 18.39C26.8784 18.4312 26.7452 18.5541 26.6907 18.7159C26.459 19.4047 26.6666 20.3341 27.171 21.0976C27.693 21.8878 28.5785 22.5791 29.8244 22.763C31.0229 22.9399 32.0404 22.69 32.7542 22.2328ZM32.2149 21.3907C31.7235 21.7055 30.9537 21.9189 29.9705 21.7737C29.0348 21.6356 28.3875 21.1249 28.0054 20.5464C27.8802 20.3569 27.7875 20.1673 27.7224 19.9871C29.2283 21.0699 30.8879 21.4691 32.4951 21.1755C32.418 21.2474 32.3254 21.3199 32.2149 21.3907Z" fill="#333333"/>
<path d="M41 30.7273C41 32.5348 39.433 34 37.5 34C35.567 34 34 32.5348 34 30.7273C34 27.8636 37.5 25 37.5 25C37.5 25 41 27.8636 41 30.7273Z" fill="#333333"/>
<path d="M14 34.7273C14 36.5348 12.433 38 10.5 38C8.567 38 7 36.5348 7 34.7273C7 31.8636 10.5 29 10.5 29C10.5 29 14 31.8636 14 34.7273Z" fill="#333333"/>
<path d="M31.4065 33C30.0305 29.4383 27.2304 27 24 27C20.7695 27 17.9694 29.4383 16.5935 33C16.2061 34.0028 17.0133 35 18.0883 35L29.9116 35C30.9866 35 31.7939 34.0028 31.4065 33Z" fill="#333333"/>
<path fill-rule="evenodd" clip-rule="evenodd" d="M29.2317 33C27.9921 30.3863 25.9601 29 24 29C22.0399 29 20.0078 30.3863 18.7682 33L29.2317 33ZM24 27C27.2304 27 30.0305 29.4383 31.4065 33C31.7939 34.0028 30.9866 35 29.9116 35L18.0883 35C17.0133 35 16.2061 34.0028 16.5935 33C17.9694 29.4383 20.7695 27 24 27Z" fill="#333333"/>
</svg>
