<svg width="48" height="48" viewBox="0 0 48 48" fill="none" xmlns="http://www.w3.org/2000/svg">
<path fill-rule="evenodd" clip-rule="evenodd" d="M18.3296 38.9661C12.2919 36.6773 8 30.8399 8 24C8 15.1634 15.1634 8 24 8C32.8366 8 40 15.1634 40 24C40 30.8399 35.7081 36.6773 29.6705 38.9661C29.3143 39.9935 28.6868 40.8941 27.8737 41.5821C35.953 39.8102 42 32.6113 42 24C42 14.0589 33.9411 6 24 6C14.0589 6 6 14.0589 6 24C6 32.6113 12.047 39.8102 20.1263 41.5821C19.3132 40.8941 18.6857 39.9935 18.3296 38.9661ZM30 34.9295C33.2539 33.4606 33.5 31 33.5 31C33.5 31 33.5 29 31.5 29H29C29.5523 29 30 29.4477 30 30V34.9295ZM18 34.8779V30C18 29.4477 18.4477 29 19 29H17C14.5 29 15 31 15 31C15 31 15 33.4037 18 34.8779ZM17.5 26C18.8807 26 20 24.2091 20 22C20 19.7909 18.8807 18 17.5 18C16.1193 18 15 19.7909 15 22C15 24.2091 16.1193 26 17.5 26ZM30.5 26C31.8807 26 33 24.2091 33 22C33 19.7909 31.8807 18 30.5 18C29.1193 18 28 19.7909 28 22C28 24.2091 29.1193 26 30.5 26Z" fill="#333333"/>
<path fill-rule="evenodd" clip-rule="evenodd" d="M15 31C15 31 15 32.1556 16 33.3557C16.4423 33.8864 17.0801 34.4259 18 34.8779V30C18 29.4477 18.4477 29 19 29H17C16.6597 29 16.375 29.0371 16.137 29.1011C14.6269 29.5074 15 31 15 31ZM31.8364 29.0204C33.5 29.2311 33.5 31 33.5 31C33.5 31 33.3668 32.3323 32 33.6214C31.5093 34.0842 30.8596 34.5415 30 34.9295V30C30 29.4477 29.5523 29 29 29H31.5C31.6191 29 31.7311 29.0071 31.8364 29.0204ZM18.3296 38.9661C18.6857 39.9935 19.3132 40.8941 20.1263 41.5821C18.9749 41.3296 17.8647 40.9668 16.8074 40.5055C10.4462 37.7296 6 31.384 6 24C6 14.0589 14.0589 6 24 6C33.9411 6 42 14.0589 42 24C42 26.7138 41.3995 29.2868 40.3245 31.5937C38.4738 35.5655 35.2163 38.7496 31.1926 40.5055C30.1353 40.9668 29.0251 41.3296 27.8737 41.5821C28.6868 40.8941 29.3143 39.9935 29.6705 38.9661C29.6705 38.9659 29.6704 38.9664 29.6705 38.9661C32.5545 37.8728 35.0401 35.9698 36.85 33.5347C36.908 33.4567 36.9652 33.3781 37.0218 33.299C38.6381 31.0394 39.681 28.3418 39.9379 25.4192C39.979 24.9516 40 24.4783 40 24C40 15.1634 32.8366 8 24 8C15.1634 8 8 15.1634 8 24C8 30.8399 12.2919 36.6773 18.3296 38.9661C18.3295 38.9659 18.3296 38.9664 18.3296 38.9661ZM17.5718 23.7684C17.796 23.4097 18 22.7897 18 22C18 21.2103 17.796 20.5903 17.5718 20.2316C17.5459 20.1902 17.5219 20.155 17.5 20.1252C17.4781 20.155 17.4541 20.1902 17.4282 20.2316C17.204 20.5903 17 21.2103 17 22C17 22.7897 17.204 23.4097 17.4282 23.7684C17.4541 23.8098 17.4781 23.845 17.5 23.8748C17.5219 23.845 17.5459 23.8098 17.5718 23.7684ZM17.348 24.0307C17.3478 24.0299 17.3534 24.0259 17.3653 24.021C17.3541 24.029 17.3482 24.0315 17.348 24.0307ZM17.6347 24.021C17.6466 24.0259 17.6522 24.0299 17.652 24.0307C17.6518 24.0315 17.6459 24.029 17.6347 24.021ZM17.652 19.9693C17.6522 19.9701 17.6466 19.9741 17.6347 19.979C17.6459 19.971 17.6519 19.9685 17.652 19.9693ZM17.3653 19.979C17.3534 19.9741 17.3478 19.9701 17.348 19.9693C17.3482 19.9685 17.3541 19.971 17.3653 19.979ZM30.5718 23.7684C30.796 23.4097 31 22.7897 31 22C31 21.2103 30.796 20.5903 30.5718 20.2316C30.5459 20.1902 30.5219 20.155 30.5 20.1252C30.4781 20.155 30.4541 20.1902 30.4282 20.2316C30.204 20.5903 30 21.2103 30 22C30 22.7897 30.204 23.4097 30.4282 23.7684C30.4541 23.8098 30.4781 23.845 30.5 23.8748C30.5219 23.845 30.5459 23.8098 30.5718 23.7684ZM30.348 24.0307C30.3478 24.0299 30.3534 24.0259 30.3653 24.021C30.3541 24.029 30.3482 24.0315 30.348 24.0307ZM30.6347 24.021C30.6466 24.0259 30.6522 24.0299 30.652 24.0307C30.6519 24.0315 30.6459 24.029 30.6347 24.021ZM30.652 19.9693C30.6522 19.9701 30.6466 19.9741 30.6347 19.979C30.6459 19.971 30.6518 19.9685 30.652 19.9693ZM30.3653 19.979C30.3534 19.9741 30.3478 19.9701 30.348 19.9693C30.3481 19.9685 30.3541 19.971 30.3653 19.979ZM20 22C20 24.2091 18.8807 26 17.5 26C16.1193 26 15 24.2091 15 22C15 19.7909 16.1193 18 17.5 18C18.8807 18 20 19.7909 20 22ZM33 22C33 24.2091 31.8807 26 30.5 26C29.1193 26 28 24.2091 28 22C28 19.7909 29.1193 18 30.5 18C31.8807 18 33 19.7909 33 22Z" fill="#333333"/>
<path fill-rule="evenodd" clip-rule="evenodd" d="M20 31V37C20 39.2091 21.7909 41 24 41C26.2091 41 28 39.2091 28 37V31H20ZM19 29C18.4477 29 18 29.4477 18 30V37C18 40.3137 20.6863 43 24 43C27.3137 43 30 40.3137 30 37V30C30 29.4477 29.5523 29 29 29H19Z" fill="#333333"/>
<path fill-rule="evenodd" clip-rule="evenodd" d="M24 30C24.5523 30 25 30.4477 25 31V35C25 35.5523 24.5523 36 24 36C23.4477 36 23 35.5523 23 35V31C23 30.4477 23.4477 30 24 30Z" fill="#333333"/>
</svg>
