<svg width="48" height="48" viewBox="0 0 48 48" fill="none" xmlns="http://www.w3.org/2000/svg">
<path fill-rule="evenodd" clip-rule="evenodd" d="M33.4771 36.8926C37.4331 33.9797 40 29.2896 40 24C40 15.1634 32.8366 8 24 8C15.1634 8 8 15.1634 8 24C8 29.0885 10.3754 33.6221 14.0777 36.5527L12.9485 38.2089C8.71983 34.9152 6 29.7752 6 24C6 14.0589 14.0589 6 24 6C33.9411 6 42 14.0589 42 24C42 29.9991 39.0653 35.3127 34.5531 38.5835L33.4771 36.8926Z" fill="#333333"/>
<path fill-rule="evenodd" clip-rule="evenodd" d="M15.2411 20.3488C15.5703 19.9651 16.1341 19.8875 16.5547 20.1679L19.5547 22.1679C19.8329 22.3534 20 22.6656 20 23C20 23.3344 19.8329 23.6466 19.5547 23.8321L16.5547 25.8321C16.128 26.1165 15.5554 26.0321 15.2289 25.6367C14.9024 25.2413 14.9279 24.663 15.288 24.2978C16.0121 23.5635 16.113 23.2182 16.1117 23.0378C16.1102 22.8359 15.983 22.4636 15.2619 21.6747C14.9208 21.3015 14.9119 20.7325 15.2411 20.3488Z" fill="#333333"/>
<path fill-rule="evenodd" clip-rule="evenodd" d="M32.7589 20.3488C32.4297 19.9651 31.8659 19.8875 31.4453 20.1679L28.4453 22.1679C28.1671 22.3534 28 22.6656 28 23C28 23.3344 28.1671 23.6466 28.4453 23.8321L31.4453 25.8321C31.872 26.1165 32.4446 26.0321 32.7711 25.6367C33.0976 25.2413 33.0721 24.663 32.712 24.2978C31.9879 23.5635 31.887 23.2182 31.8883 23.0378C31.8898 22.8359 32.017 22.4636 32.7381 21.6747C33.0792 21.3015 33.0881 20.7325 32.7589 20.3488Z" fill="#333333"/>
<path fill-rule="evenodd" clip-rule="evenodd" d="M30 36.138C31.2447 35.1684 32 33.8949 32 32.5C32 29.4624 28.4183 27 24 27C19.5817 27 16 29.4624 16 32.5C16 33.8949 16.7553 35.1684 18 36.138V33C18 30.5 30 30.5 30 33V36.138Z" fill="#333333"/>
<path fill-rule="evenodd" clip-rule="evenodd" d="M31.9907 32.7677C31.9969 32.679 32 32.5898 32 32.5C32 29.4624 28.4183 27 24 27C19.5817 27 16 29.4624 16 32.5C16 32.5898 16.0031 32.679 16.0093 32.7677C16.0147 32.8456 16.0225 32.923 16.0326 33C16.1897 34.1982 16.9057 35.2856 18 36.138V33C18 32.9325 18.0088 32.8667 18.0258 32.8029C18.6225 30.5657 29.3775 30.5657 29.9742 32.8029C29.9912 32.8667 30 32.9325 30 33V36.138C31.0943 35.2856 31.8103 34.1982 31.9674 33C31.9775 32.923 31.9853 32.8456 31.9907 32.7677ZM26.004 29.2123C25.3411 29.153 24.6632 29.125 24 29.125C23.3368 29.125 22.6589 29.153 21.996 29.2123C22.6157 29.0765 23.2885 29 24 29C24.7115 29 25.3843 29.0765 26.004 29.2123Z" fill="#333333"/>
<path fill-rule="evenodd" clip-rule="evenodd" d="M18.976 32.1014C18.9756 32.1014 18.9771 32.0987 18.9813 32.0933C18.9784 32.0987 18.9763 32.1014 18.976 32.1014ZM19 32.0727C19.0181 32.0546 19.0484 32.0281 19.0969 31.9934C19.2895 31.8558 19.6317 31.6992 20.1426 31.5573C21.1512 31.2771 22.554 31.125 24 31.125C25.446 31.125 26.8488 31.2771 27.8574 31.5573C28.3683 31.6992 28.7105 31.8558 28.9031 31.9934C28.9516 32.028 28.9819 32.0546 29 32.0727V37.2671L29.8569 37.391C31.6086 37.6444 33.0142 38.0006 33.9546 38.3994C34.4285 38.6004 34.7296 38.7896 34.8963 38.9403C34.9218 38.9633 34.9419 38.9833 34.9577 39.0002C34.9012 39.0626 34.7841 39.1674 34.5482 39.3069C34.0596 39.5956 33.2862 39.8903 32.2427 40.1512C30.1713 40.669 27.2566 41 24 41C20.7434 41 17.8287 40.669 15.7573 40.1512C14.7138 39.8903 13.9404 39.5956 13.4518 39.3069C13.2159 39.1674 13.0988 39.0626 13.0423 39.0002C13.0581 38.9833 13.0782 38.9633 13.1037 38.9403C13.2704 38.7896 13.5715 38.6004 14.0454 38.3994C14.9858 38.0006 16.3914 37.6444 18.1431 37.391L19 37.2671V32.0727ZM29.024 32.1014C29.0237 32.1014 29.0216 32.0987 29.0187 32.0933C29.0229 32.0986 29.0244 32.1014 29.024 32.1014ZM30.0656 30.3659C30.5286 30.6966 31 31.2341 31 32V35.5475C32.4746 35.8031 33.7576 36.1434 34.7355 36.5581C35.3133 36.8032 35.8396 37.097 36.2375 37.4566C36.6333 37.8144 37 38.3318 37 39C37 39.986 36.2248 40.6391 35.5658 41.0286C34.8399 41.4577 33.856 41.8094 32.7278 42.0915C30.4561 42.6594 27.3708 43 24 43C20.6292 43 17.5439 42.6594 15.2722 42.0915C14.144 41.8094 13.1601 41.4577 12.4342 41.0286C11.7752 40.6391 11 39.986 11 39C11 38.3318 11.3667 37.8144 11.7625 37.4566C12.1604 37.097 12.6867 36.8032 13.2645 36.5581C14.2424 36.1434 15.5254 35.8031 17 35.5475V32C17 31.2341 17.4714 30.6966 17.9344 30.3659C18.398 30.0348 18.9933 29.8008 19.6074 29.6302C20.8488 29.2854 22.446 29.125 24 29.125C25.554 29.125 27.1512 29.2854 28.3926 29.6302C29.0067 29.8008 29.602 30.0348 30.0656 30.3659Z" fill="#333333"/>
<path fill-rule="evenodd" clip-rule="evenodd" d="M22 29C22.5523 29 23 29.4477 23 30V37C23 37.5523 22.5523 38 22 38C21.4477 38 21 37.5523 21 37V30C21 29.4477 21.4477 29 22 29Z" fill="#333333"/>
<path fill-rule="evenodd" clip-rule="evenodd" d="M26 29C26.5523 29 27 29.4477 27 30V37C27 37.5523 26.5523 38 26 38C25.4477 38 25 37.5523 25 37V30C25 29.4477 25.4477 29 26 29Z" fill="#333333"/>
</svg>
