<svg width="48" height="48" viewBox="0 0 48 48" fill="none" xmlns="http://www.w3.org/2000/svg">
<path d="M33 22C33 24.2091 31.8807 26 30.5 26C29.1193 26 28 24.2091 28 22C28 19.7909 29.1193 18 30.5 18C31.8807 18 33 19.7909 33 22Z" fill="#333333"/>
<path fill-rule="evenodd" clip-rule="evenodd" d="M24 40C32.8366 40 40 32.8366 40 24C40 15.1634 32.8366 8 24 8C15.1634 8 8 15.1634 8 24C8 32.8366 15.1634 40 24 40ZM24 42C33.9411 42 42 33.9411 42 24C42 14.0589 33.9411 6 24 6C14.0589 6 6 14.0589 6 24C6 33.9411 14.0589 42 24 42Z" fill="#333333"/>
<path d="M15.2365 22.4298C17.2602 23.1812 19.4845 22.6906 21.3969 20.8752C21.7296 21.8644 20.8456 23.9462 18.664 24.2683C16.4824 24.5904 15.0893 23.3415 15.2365 22.4298Z" fill="#333333"/>
<path fill-rule="evenodd" clip-rule="evenodd" d="M15.8073 24.2328C15.1242 23.7953 14.6238 23.0878 14.7428 22.3501C14.7667 22.2024 14.8554 22.0731 14.9847 21.9978C15.114 21.9225 15.2702 21.909 15.4105 21.9611C17.2288 22.6361 19.2567 22.2174 21.0526 20.5126C21.1764 20.3951 21.3517 20.3488 21.5174 20.39C21.6831 20.4311 21.8163 20.554 21.8708 20.7158C22.1025 21.4046 21.8949 22.3341 21.3905 23.0975C20.8685 23.8877 19.983 24.579 18.7371 24.7629C17.5386 24.9399 16.5211 24.6899 15.8073 24.2328ZM16.3466 23.3907C16.838 23.7054 17.6078 23.9188 18.591 23.7737C19.5267 23.6355 20.174 23.1249 20.5561 22.5463C20.6813 22.3569 20.774 22.1673 20.8391 21.9871C19.3332 23.0698 17.6736 23.4691 16.0664 23.1754C16.1435 23.2474 16.2361 23.3199 16.3466 23.3907Z" fill="#333333"/>
<path fill-rule="evenodd" clip-rule="evenodd" d="M24 40C32.8366 40 40 32.8366 40 24C40 15.1634 32.8366 8 24 8C15.1634 8 8 15.1634 8 24C8 32.8366 15.1634 40 24 40ZM24 42C33.9411 42 42 33.9411 42 24C42 14.0589 33.9411 6 24 6C14.0589 6 6 14.0589 6 24C6 33.9411 14.0589 42 24 42Z" fill="#333333"/>
<path d="M15.2365 22.4298C17.2602 23.1812 19.4845 22.6906 21.3969 20.8752C21.7296 21.8644 20.8456 23.9462 18.664 24.2683C16.4824 24.5904 15.0893 23.3415 15.2365 22.4298Z" fill="#333333"/>
<path fill-rule="evenodd" clip-rule="evenodd" d="M15.8073 24.2328C15.1242 23.7953 14.6238 23.0878 14.7428 22.3501C14.7667 22.2024 14.8554 22.0731 14.9847 21.9978C15.114 21.9225 15.2702 21.909 15.4105 21.9611C17.2288 22.6361 19.2567 22.2174 21.0526 20.5126C21.1764 20.3951 21.3517 20.3488 21.5174 20.39C21.6831 20.4311 21.8163 20.554 21.8708 20.7158C22.1025 21.4046 21.8949 22.3341 21.3905 23.0975C20.8685 23.8877 19.983 24.579 18.7371 24.7629C17.5386 24.9399 16.5211 24.6899 15.8073 24.2328ZM16.3466 23.3907C16.838 23.7054 17.6078 23.9188 18.591 23.7737C19.5267 23.6355 20.174 23.1249 20.5561 22.5463C20.6813 22.3569 20.774 22.1673 20.8391 21.9871C19.3332 23.0698 17.6736 23.4691 16.0664 23.1754C16.1435 23.2474 16.2361 23.3199 16.3466 23.3907Z" fill="#333333"/>
<path fill-rule="evenodd" clip-rule="evenodd" d="M16.594 31.3798L16.5922 31.381C16.1263 31.6751 15.5101 31.537 15.2144 31.0718C14.9182 30.6057 15.0559 29.9877 15.522 29.6914L16.0583 30.5353C15.522 29.6914 15.5216 29.6917 15.522 29.6914L15.5237 29.6903L15.5259 29.689L15.5316 29.6854L15.548 29.6752C15.5613 29.6671 15.579 29.6563 15.6011 29.6432C15.6453 29.617 15.7069 29.5813 15.7845 29.5388C15.9395 29.454 16.1595 29.3409 16.4324 29.2199C16.9747 28.9797 17.7448 28.7003 18.6412 28.5583C20.3804 28.2829 22.6239 28.5322 24.4983 30.5532L32.0622 31.472C32.4816 31.5229 32.8237 31.8319 32.917 32.2439C33.0102 32.6559 32.8345 33.0821 32.478 33.3087L31.9416 32.4647C32.478 33.3087 32.4784 33.3084 32.478 33.3087L32.4763 33.3098L32.4741 33.3112L32.4684 33.3147L32.452 33.3249C32.4388 33.333 32.421 33.3438 32.3989 33.3569C32.3547 33.3832 32.2931 33.4188 32.2155 33.4613C32.0605 33.5462 31.8405 33.6593 31.5676 33.7802C31.0253 34.0204 30.2552 34.2998 29.3588 34.4418C27.5357 34.7305 25.1584 34.4426 23.2331 32.1418C21.8743 30.518 20.2808 30.3236 18.9541 30.5337C18.2757 30.6411 17.6761 30.8564 17.2425 31.0485C17.0274 31.1438 16.8579 31.2313 16.7453 31.2929C16.6891 31.3237 16.6475 31.3479 16.6219 31.3631C16.609 31.3707 16.6002 31.3761 16.5957 31.3789L16.594 31.3798Z" fill="#333333"/>
</svg>
