<svg width="48" height="48" viewBox="0 0 48 48" fill="none" xmlns="http://www.w3.org/2000/svg">
<path fill-rule="evenodd" clip-rule="evenodd" d="M24 40C32.8366 40 40 32.8366 40 24C40 15.1634 32.8366 8 24 8C15.1634 8 8 15.1634 8 24C8 32.8366 15.1634 40 24 40ZM24 42C33.9411 42 42 33.9411 42 24C42 14.0589 33.9411 6 24 6C14.0589 6 6 14.0589 6 24C6 33.9411 14.0589 42 24 42Z" fill="#333333"/>
<path fill-rule="evenodd" clip-rule="evenodd" d="M19.0973 32.9185C21.3347 32.3267 22.7264 32.0019 24.1322 32.0082C25.4893 32.0143 26.8177 32.3297 28.8838 32.866C28.8816 32.8622 28.8795 32.8589 28.8776 32.8561C28.8776 32.8561 28.869 32.8436 28.8364 32.8081C28.8196 32.7898 28.8015 32.7707 28.7757 32.7435L28.7742 32.7419C28.7508 32.7173 28.7204 32.6852 28.6895 32.6515C27.8547 31.7378 26.1285 31 23.9868 31C21.7418 31 19.9669 31.8084 19.1807 32.7711C19.1752 32.7777 19.1548 32.8054 19.1273 32.8574C19.1172 32.8764 19.1072 32.8969 19.0973 32.9185ZM17.1603 32.3837C17.2665 32.0737 17.428 31.7553 17.6316 31.506C18.9189 29.9297 21.3636 29 23.9868 29C26.5038 29 28.8425 29.854 30.166 31.3024C30.1697 31.3064 30.1768 31.3138 30.1867 31.3241C30.2491 31.3888 30.4215 31.5677 30.5377 31.7408C30.708 31.9942 30.8332 32.2996 30.9091 32.5953C30.9844 32.8889 31.0312 33.2517 30.9756 33.6165C30.9197 33.9828 30.7353 34.4718 30.2382 34.7705C29.7571 35.0597 29.2163 35.0286 28.7617 34.9008C26.4085 34.2873 25.2612 34.0133 24.1232 34.0082C22.9879 34.0031 21.8147 34.2663 19.4189 34.9023L19.4055 34.9059C18.8851 35.0363 18.2969 35.0649 17.7887 34.7678C17.2392 34.4466 17.0492 33.9073 17.0095 33.4906C16.9711 33.087 17.0546 32.6923 17.1603 32.3837Z" fill="#333333"/>
<path fill-rule="evenodd" clip-rule="evenodd" d="M30.5 23C30.2239 23 30 23.2239 30 23.5C30 23.7761 30.2239 24 30.5 24C30.7761 24 31 23.7761 31 23.5C31 23.2239 30.7761 23 30.5 23ZM28 23.5C28 22.1193 29.1193 21 30.5 21C31.8807 21 33 22.1193 33 23.5C33 24.8807 31.8807 26 30.5 26C29.1193 26 28 24.8807 28 23.5Z" fill="#333333"/>
<path fill-rule="evenodd" clip-rule="evenodd" d="M17.5 23C17.2239 23 17 23.2239 17 23.5C17 23.7761 17.2239 24 17.5 24C17.7761 24 18 23.7761 18 23.5C18 23.2239 17.7761 23 17.5 23ZM15 23.5C15 22.1193 16.1193 21 17.5 21C18.8807 21 20 22.1193 20 23.5C20 24.8807 18.8807 26 17.5 26C16.1193 26 15 24.8807 15 23.5Z" fill="#333333"/>
<path fill-rule="evenodd" clip-rule="evenodd" d="M16.8885 20.3566C15.2494 19.8157 13.6076 19.4657 12.5546 19.3109L12.8454 17.3322C14.0047 17.5026 15.7594 17.8779 17.5153 18.4574C19.2474 19.0291 21.0972 19.8366 22.3528 20.9217L21.0451 22.435C20.0949 21.6138 18.5514 20.9055 16.8885 20.3566Z" fill="#333333"/>
<path fill-rule="evenodd" clip-rule="evenodd" d="M31.061 20.3567C32.7001 19.8158 34.3419 19.4658 35.3949 19.311L35.1041 17.3323C33.9448 17.5027 32.1901 17.878 30.4342 18.4575C28.7021 19.0292 26.8523 19.8367 25.5966 20.9218L26.9044 22.4351C27.8546 21.6139 29.3981 20.9056 31.061 20.3567Z" fill="#333333"/>
</svg>
