<svg width="48" height="48" viewBox="0 0 48 48" fill="none" xmlns="http://www.w3.org/2000/svg">
<path fill-rule="evenodd" clip-rule="evenodd" d="M40 24C40 32.8366 32.8366 40 24 40C16.9695 40 10.9981 35.4655 8.85083 29.1616L7.50001 30C7.35194 30.0888 7.20913 30.1321 7.07231 30.1343C9.58085 37.0552 16.213 42 24 42C33.9411 42 42 33.9411 42 24C42 19.1141 40.0534 14.6829 36.8934 11.4397C36.8705 11.662 36.7455 11.8527 36.5 12L35.3446 12.7172C38.2219 15.6102 40 19.5974 40 24ZM6.78381 18.7298C7.12301 18.2181 7.52647 17.796 8.00001 17.5001L9.9751 16.293C12.6273 11.4768 17.6883 8.17362 23.5347 8.00664L26 6.50003C26.2024 6.36511 26.4366 6.2666 26.6967 6.20065C25.817 6.0685 24.9165 6 24 6C15.8926 6 9.03703 11.3601 6.78381 18.7298Z" fill="#333333"/>
<circle cx="30.5" cy="22.5" r="1.5" stroke="#333333" stroke-width="2"/>
<path fill-rule="evenodd" clip-rule="evenodd" d="M16.1711 24.6179C16.5561 24.8599 17.0117 24.9999 17.5 24.9999C18.8807 24.9999 20 23.8806 20 22.4999C20 22.4152 19.9958 22.3315 19.9876 22.249L16.1711 24.6179Z" fill="#333333"/>
<path d="M26.5214 7.35344L26.5383 7.34315L26.5547 7.3322C26.937 7.07733 27.7576 6.9849 29.0329 7.27921C30.239 7.55754 31.6029 8.12518 32.8232 8.80977C34.0565 9.50164 35.0512 10.2613 35.575 10.8755C35.698 11.0198 35.7817 11.1408 35.8347 11.2361L7.10936 29.0656C7.10478 29.0593 7.10006 29.0527 7.09522 29.0458C7.03132 28.9542 6.95801 28.822 6.88211 28.6423C6.56779 27.8982 6.34215 26.6638 6.31227 25.2294C6.2827 23.8099 6.4471 22.2942 6.83915 21.0112C7.23826 19.705 7.82547 18.7905 8.52612 18.3506L26.5214 7.35344Z" stroke="#333333" stroke-width="2"/>
<path d="M29.4331 31.5441C28.345 30.0258 26.2715 29 23.8925 29C21.4244 29 19.285 30.1041 18.2338 31.7168C17.7803 32.4125 17.3471 34.5193 19.0005 34C23.8131 32.3992 24.2809 32.4582 29.0002 34C30.3167 34.4716 30.0702 32.5758 29.6741 31.8852C29.6049 31.7645 29.5141 31.6572 29.4331 31.5441Z" stroke="#333333" stroke-width="2"/>
</svg>
