<svg width="48" height="48" viewBox="0 0 48 48" fill="none" xmlns="http://www.w3.org/2000/svg">
<path fill-rule="evenodd" clip-rule="evenodd" d="M24 40C32.8366 40 40 32.8366 40 24C40 15.1634 32.8366 8 24 8C15.1634 8 8 15.1634 8 24C8 32.8366 15.1634 40 24 40ZM24 42C33.9411 42 42 33.9411 42 24C42 14.0589 33.9411 6 24 6C14.0589 6 6 14.0589 6 24C6 33.9411 14.0589 42 24 42Z" fill="#333333"/>
<path fill-rule="evenodd" clip-rule="evenodd" d="M28.9027 32.0815C26.6653 32.6733 25.2736 32.9981 23.8678 32.9918C22.5107 32.9857 21.1823 32.6703 19.1162 32.134C19.1184 32.1378 19.1205 32.1411 19.1224 32.1439C19.1224 32.1439 19.131 32.1564 19.1636 32.1919C19.1804 32.2102 19.1985 32.2293 19.2243 32.2565L19.2258 32.2581C19.2492 32.2827 19.2796 32.3148 19.3105 32.3485C20.1453 33.2622 21.8715 34 24.0132 34C26.2582 34 28.0331 33.1916 28.8193 32.2289C28.8248 32.2223 28.8452 32.1946 28.8727 32.1426C28.8828 32.1236 28.8928 32.1031 28.9027 32.0815ZM30.8397 32.6162C30.7335 32.9263 30.572 33.2447 30.3684 33.494C29.0811 35.0703 26.6364 36 24.0132 36C21.4962 36 19.1575 35.146 17.834 33.6976C17.8303 33.6936 17.8232 33.6862 17.8133 33.6759C17.7509 33.6112 17.5785 33.4323 17.4623 33.2592C17.292 33.0058 17.1668 32.7004 17.0909 32.4047C17.0156 32.1111 16.9688 31.7483 17.0244 31.3835C17.0803 31.0172 17.2647 30.5282 17.7618 30.2295C18.2429 29.9403 18.7837 29.9714 19.2383 30.0992C21.5915 30.7127 22.7388 30.9867 23.8768 30.9918C25.0121 30.9969 26.1852 30.7337 28.5811 30.0977L28.5945 30.0941C29.1149 29.9636 29.7031 29.9351 30.2113 30.2322C30.7608 30.5534 30.9508 31.0927 30.9905 31.5094C31.0289 31.913 30.9454 32.3077 30.8397 32.6162Z" fill="#333333"/>
<path d="M14.2363 24.4298C16.2601 25.1812 18.4843 24.6906 20.3967 22.8753C20.7294 23.8644 19.8455 25.9462 17.6639 26.2683C15.4823 26.5904 14.0891 25.3415 14.2363 24.4298Z" fill="#333333"/>
<path fill-rule="evenodd" clip-rule="evenodd" d="M14.8071 26.2328C14.1241 25.7953 13.6236 25.0878 13.7427 24.3501C13.7665 24.2024 13.8553 24.0731 13.9845 23.9978C14.1138 23.9225 14.27 23.909 14.4103 23.9611C16.2286 24.6362 18.2566 24.2174 20.0524 22.5126C20.1763 22.3951 20.3515 22.3488 20.5172 22.39C20.6829 22.4312 20.8161 22.554 20.8706 22.7158C21.1023 23.4046 20.8947 24.3341 20.3903 25.0976C19.8683 25.8878 18.9828 26.579 17.7369 26.763C16.5385 26.9399 15.5209 26.6899 14.8071 26.2328ZM15.3464 25.3907C15.8379 25.7054 16.6077 25.9188 17.5908 25.7737C18.5265 25.6355 19.1738 25.1249 19.556 24.5464C19.6811 24.3569 19.7738 24.1673 19.8389 23.9871C18.3331 25.0699 16.6735 25.4691 15.0662 25.1754C15.1433 25.2474 15.2359 25.3199 15.3464 25.3907Z" fill="#333333"/>
<path d="M33.3249 24.4298C31.3011 25.1812 29.0769 24.6906 27.1645 22.8753C26.8317 23.8644 27.7157 25.9462 29.8973 26.2683C32.0789 26.5904 33.4721 25.3415 33.3249 24.4298Z" fill="#333333"/>
<path fill-rule="evenodd" clip-rule="evenodd" d="M32.7541 26.2328C33.4371 25.7953 33.9376 25.0878 33.8185 24.3501C33.7947 24.2024 33.7059 24.0731 33.5766 23.9978C33.4474 23.9225 33.2911 23.909 33.1509 23.9611C31.3326 24.6362 29.3046 24.2174 27.5087 22.5126C27.3849 22.3951 27.2097 22.3488 27.044 22.39C26.8783 22.4312 26.745 22.554 26.6906 22.7158C26.4589 23.4046 26.6665 24.3341 27.1708 25.0976C27.6929 25.8878 28.5784 26.579 29.8243 26.763C31.0227 26.9399 32.0403 26.6899 32.7541 26.2328ZM32.2147 25.3907C31.7233 25.7054 30.9535 25.9188 29.9703 25.7737C29.0347 25.6355 28.3874 25.1249 28.0052 24.5464C27.88 24.3569 27.7874 24.1673 27.7223 23.9871C29.2281 25.0699 30.8877 25.4691 32.495 25.1754C32.4179 25.2474 32.3253 25.3199 32.2147 25.3907Z" fill="#333333"/>
</svg>
