<svg width="48" height="48" viewBox="0 0 48 48" fill="none" xmlns="http://www.w3.org/2000/svg">
<path fill-rule="evenodd" clip-rule="evenodd" d="M38.3916 31C35.795 36.3285 30.3263 40 24 40C17.6738 40 12.2051 36.3285 9.60851 31H7.41187C10.1429 37.4639 16.5417 42 24 42C31.4584 42 37.8572 37.4639 40.5882 31H38.3916ZM12.381 13C15.2972 9.92077 19.4243 8 24 8C28.5758 8 32.7029 9.92077 35.619 13H38.249C34.9569 8.74194 29.7987 6 24 6C18.2014 6 13.0431 8.74194 9.75114 13H12.381Z" fill="#333333"/>
<path d="M22 17.3999C23.5628 17.3999 24.4365 17.3999 26 17.3999" stroke="#333333" stroke-width="2" stroke-linecap="square"/>
<path d="M34 15H43V20H41L40 16.5L34 15Z" fill="#333333"/>
<path d="M14 15H5V20H7L8 17L14 15Z" fill="#333333"/>
<path d="M19 32.5C22.6068 34.2092 24.8206 34.058 29 32.5" stroke="#333333" stroke-width="2" stroke-linecap="round"/>
<path d="M7 19C7 17.3431 8.34315 16 10 16H18.7007C20.4699 16 21.8549 17.5232 21.6872 19.2844L21.1158 25.2844C20.9691 26.8241 19.676 28 18.1293 28H10C8.34315 28 7 26.6569 7 25V19Z" stroke="#333333" stroke-width="2"/>
<circle cx="32.5" cy="21.5" r="1.5" stroke="#333333" stroke-width="2"/>
<circle cx="15.5" cy="21.5" r="1.5" stroke="#333333" stroke-width="2"/>
<path d="M26.3128 19.2844C26.1451 17.5232 27.5301 16 29.2993 16H38C39.6569 16 41 17.3431 41 19V25C41 26.6569 39.6569 28 38 28H29.8707C28.324 28 27.0309 26.8241 26.8842 25.2844L26.3128 19.2844Z" stroke="#333333" stroke-width="2"/>
</svg>
