<svg width="48" height="48" viewBox="0 0 48 48" fill="none" xmlns="http://www.w3.org/2000/svg">
<path fill-rule="evenodd" clip-rule="evenodd" d="M24 40C26.8198 40 29.4693 39.2705 31.77 37.99L31.5903 40.3261C29.2839 41.4002 26.712 42 24 42C21.2253 42 18.5972 41.3722 16.2501 40.2508L16.0692 37.8993C18.4069 39.236 21.1142 40 24 40ZM12.4269 35.0483C9.68428 32.1762 8 28.2848 8 24C8 15.1634 15.1634 8 24 8C32.8366 8 40 15.1634 40 24C40 28.1619 38.411 31.9526 35.8065 34.7986L36.1388 37.2911C39.7406 33.9997 42 29.2637 42 24C42 14.0589 33.9411 6 24 6C14.0589 6 6 14.0589 6 24C6 29.3788 8.35923 34.2065 12.0993 37.5049L12.4269 35.0483Z" fill="#333333"/>
<path fill-rule="evenodd" clip-rule="evenodd" d="M20 31C20 28.7909 21.7909 27 24 27C26.2091 27 28 28.7909 28 31V33C28 35.2091 26.2091 37 24 37C21.7909 37 20 35.2091 20 33V31ZM24 29C22.8954 29 22 29.8954 22 31V33C22 34.1046 22.8954 35 24 35C25.1046 35 26 34.1046 26 33V31C26 29.8954 25.1046 29 24 29Z" fill="#333333"/>
<path fill-rule="evenodd" clip-rule="evenodd" d="M12 37.9941C10.7384 38.2523 9.6599 38.56 8.85209 38.9181C8.39904 39.1189 7.97523 39.3596 7.64949 39.6581C7.32564 39.9548 7 40.4045 7 41C7 41.5955 7.32564 42.0452 7.64949 42.3419C7.97523 42.6404 8.39904 42.8811 8.85209 43.0819C9.76509 43.4867 11.0239 43.827 12.502 44.1042C15.4747 44.6616 19.5393 45 24 45C28.4607 45 32.5253 44.6616 35.498 44.1042C36.9761 43.827 38.2349 43.4867 39.1479 43.0819C39.601 42.8811 40.0248 42.6404 40.3505 42.3419C40.6744 42.0452 41 41.5955 41 41C41 40.4045 40.6744 39.9548 40.3505 39.6581C40.0248 39.3596 39.601 39.1189 39.1479 38.9181C38.3401 38.56 37.2616 38.2523 36 37.9941V40.0389C36.9971 40.2597 37.7835 40.5009 38.3374 40.7465C38.549 40.8403 38.7071 40.9263 38.8218 41C38.7071 41.0737 38.549 41.1597 38.3374 41.2535C37.6311 41.5666 36.5467 41.8727 35.1294 42.1385C32.3113 42.6669 28.3759 43 24 43C19.6241 43 15.6887 42.6669 12.8706 42.1385C11.4533 41.8727 10.3689 41.5666 9.66262 41.2535C9.45104 41.1597 9.29287 41.0737 9.17822 41C9.29287 40.9263 9.45104 40.8403 9.66262 40.7465C10.2165 40.5009 11.0029 40.2597 12 40.0389V37.9941ZM39.0447 41.1799C39.0447 41.1799 39.0447 41.1797 39.0438 41.1785L39.0427 41.1771L39.0447 41.1799Z" fill="#333333"/>
<path fill-rule="evenodd" clip-rule="evenodd" d="M30.0006 26.4592C29.9945 26.5983 30.0344 26.8953 30.3159 27.3997C31.3883 29.3209 32.161 31.201 32.5032 33.2842C32.8458 35.3697 32.7479 37.6021 32.1535 40.2213C32.0313 40.7599 31.4956 41.0974 30.957 40.9752C30.4184 40.853 30.0809 40.3173 30.2031 39.7787C30.7521 37.3596 30.8226 35.3917 30.5296 33.6084C30.2363 31.8229 29.5694 30.1657 28.5696 28.3745C28.1761 27.6697 27.9751 27.0012 28.0025 26.3723C28.031 25.7162 28.3045 25.1987 28.6783 24.8273C29.0332 24.4747 29.4545 24.2746 29.7924 24.1622C30.1259 24.0512 30.4556 24 30.697 24C31.7937 24 32.5652 24.5568 33.0583 25.1072C33.4634 25.5592 33.7396 26.0803 33.8687 26.324C33.8892 26.3625 33.9059 26.3942 33.9189 26.4174C36.1055 30.3346 37.3955 34.219 36.8909 39.6242C36.8396 40.1741 36.3522 40.5782 35.8023 40.5269C35.2524 40.4756 34.8483 39.9882 34.8996 39.4383C35.3577 34.5309 34.2143 31.0499 32.1726 27.3923C32.1411 27.3359 32.1101 27.2783 32.0786 27.2201C31.9407 26.9644 31.7952 26.6945 31.5688 26.4418C31.3148 26.1583 31.0443 26 30.697 26C30.6971 26 30.6973 26 30.697 26C30.6896 26.0006 30.5758 26.0093 30.4239 26.0599C30.2706 26.1109 30.1553 26.1792 30.088 26.246C30.0396 26.2941 30.0054 26.3473 30.0006 26.4592Z" fill="#333333"/>
<path fill-rule="evenodd" clip-rule="evenodd" d="M17.9995 26.4623C18.0051 26.5833 17.9689 26.8698 17.6674 27.3738C16.4953 29.3338 15.8031 31.2401 15.5804 33.3409C15.359 35.4292 15.6079 37.652 16.2362 40.2362C16.3667 40.7729 16.9075 41.1022 17.4441 40.9717C17.9808 40.8412 18.31 40.3004 18.1796 39.7637C17.5829 37.3096 17.3805 35.3322 17.5693 33.5517C17.7567 31.7838 18.3358 30.1528 19.3839 28.4004C19.8056 27.6953 20.0275 27.0163 19.9973 26.3692C19.9657 25.6912 19.6629 25.1683 19.2695 24.8035C18.8971 24.458 18.4582 24.2644 18.1094 24.156C17.7627 24.0483 17.4236 24 17.1819 24C15.1241 24 14.1408 25.7873 13.8614 26.2951C13.8388 26.3362 13.8209 26.3689 13.8073 26.3916C11.417 30.3884 10.6254 34.292 11.1593 39.6307C11.2142 40.1803 11.7043 40.5812 12.2538 40.5263C12.8034 40.4713 13.2043 39.9813 13.1493 39.4317C12.6519 34.458 13.3839 30.996 15.5237 27.4181C15.5469 27.3794 15.5702 27.3401 15.5936 27.3006C15.9597 26.6827 16.3643 26 17.1819 26C17.1818 26 17.1815 26 17.1819 26C17.1859 26.0001 17.2229 26.0016 17.2877 26.0121C17.3536 26.0227 17.4329 26.0402 17.5162 26.066C17.6937 26.1211 17.8297 26.1958 17.9095 26.2699C17.9684 26.3245 17.9953 26.3723 17.9995 26.4623Z" fill="#333333"/>
<path fill-rule="evenodd" clip-rule="evenodd" d="M31.7091 16.5165C29.9577 15.5486 28.4126 14.4866 27.6812 13.8061L26.3188 15.2703C27.2245 16.1129 28.9326 17.2671 30.7418 18.2669C32.5433 19.2625 34.5934 20.1882 36.1917 20.4834L36.5549 18.5166C35.2863 18.2823 33.4683 17.4886 31.7091 16.5165Z" fill="#333333"/>
<path fill-rule="evenodd" clip-rule="evenodd" d="M16.6642 16.5165C18.4156 15.5486 19.9607 14.4866 20.6922 13.8061L22.0545 15.2703C21.1488 16.1129 19.4408 17.2671 17.6316 18.2669C15.83 19.2625 13.78 20.1882 12.1816 20.4834L11.8184 18.5166C13.087 18.2823 14.9051 17.4886 16.6642 16.5165Z" fill="#333333"/>
<path d="M21.7766 23.384C18.897 22.4748 15.8076 22.8652 13.2313 24.6722C12.7082 23.6088 13.8279 21.4615 16.8671 21.2465C19.9064 21.0315 21.9306 22.4299 21.7766 23.384Z" fill="#333333"/>
<path fill-rule="evenodd" clip-rule="evenodd" d="M21.8879 22.2995C22.1534 22.6221 22.3402 23.0298 22.2702 23.4637C22.247 23.6072 22.1626 23.7334 22.0389 23.8097C21.9153 23.8859 21.7645 23.9046 21.626 23.8608C18.888 22.9962 15.9615 23.368 13.5184 25.0816C13.3989 25.1654 13.2486 25.1928 13.1071 25.1566C12.9657 25.1203 12.8471 25.024 12.7827 24.8929C12.4022 24.1194 12.6614 23.1037 13.333 22.3166C14.026 21.5045 15.1973 20.8634 16.8318 20.7478C18.432 20.6346 19.7901 20.9437 20.7465 21.4314C21.2228 21.6743 21.6173 21.9708 21.8879 22.2995ZM20.2922 22.3223C19.5151 21.926 18.3415 21.6435 16.9024 21.7453C15.4977 21.8446 14.5896 22.3846 14.0937 22.9658C13.8399 23.2632 13.7012 23.5567 13.6426 23.8127C15.8456 22.5132 18.345 22.1329 20.762 22.6091C20.6306 22.5122 20.4742 22.4151 20.2922 22.3223Z" fill="#333333"/>
<path d="M26.2328 23.4418C28.9793 22.5746 31.9259 22.947 34.3832 24.6705C34.8821 23.6562 33.8142 21.6081 30.9154 21.4031C28.0166 21.198 26.0859 22.5318 26.2328 23.4418Z" fill="#333333"/>
<path fill-rule="evenodd" clip-rule="evenodd" d="M26.1088 22.3927C25.8532 22.7032 25.6709 23.0987 25.7392 23.5215C25.7623 23.665 25.8467 23.7912 25.9704 23.8675C26.0941 23.9437 26.2448 23.9624 26.3833 23.9186C28.9883 23.0961 31.772 23.4498 34.0961 25.0799C34.2156 25.1637 34.3659 25.1911 34.5074 25.1548C34.6488 25.1186 34.7674 25.0222 34.8318 24.8912C35.2002 24.1422 34.9479 23.1636 34.3038 22.4088C33.6383 21.6288 32.515 21.015 30.9507 20.9043C29.4207 20.7961 28.121 21.0916 27.2048 21.5589C26.7484 21.7916 26.3694 22.0762 26.1088 22.3927ZM27.6591 22.4497C28.3961 22.0738 29.5112 21.805 30.8801 21.9018C32.2146 21.9962 33.0747 22.5089 33.5431 23.0579C33.7659 23.3191 33.8941 23.5758 33.9552 23.8031C31.8925 22.6016 29.5616 22.2392 27.3009 22.66C27.4056 22.5889 27.5249 22.5181 27.6591 22.4497Z" fill="#333333"/>
</svg>
