<svg width="48" height="48" viewBox="0 0 48 48" fill="none" xmlns="http://www.w3.org/2000/svg">
<path fill-rule="evenodd" clip-rule="evenodd" d="M24 40C32.8366 40 40 32.8366 40 24C40 15.1634 32.8366 8 24 8C15.1634 8 8 15.1634 8 24C8 32.8366 15.1634 40 24 40ZM24 42C33.9411 42 42 33.9411 42 24C42 14.0589 33.9411 6 24 6C14.0589 6 6 14.0589 6 24C6 33.9411 14.0589 42 24 42Z" fill="#333333"/>
<path d="M17.8101 19.489C20.0134 19.5815 21.1478 22.0693 20.8324 22.9373C19.9116 22.3803 18.884 21.1172 17.8101 21.1698C16.7297 21.2227 15.6024 22.5953 14.4898 23.3098C14.3483 22.2758 15.6068 19.3965 17.8101 19.489Z" fill="#333333"/>
<path fill-rule="evenodd" clip-rule="evenodd" d="M21.2857 21.9149C21.3934 22.3134 21.4323 22.7504 21.3023 23.1081C21.2512 23.2488 21.1398 23.3591 20.9987 23.4089C20.8576 23.4586 20.7016 23.4426 20.5736 23.3652C20.3119 23.2069 20.0523 23.0046 19.8085 22.8078C19.7422 22.7542 19.6772 22.7011 19.6129 22.6487C19.4326 22.5016 19.2585 22.3595 19.0791 22.2253C18.5774 21.8499 18.1791 21.6523 17.8345 21.6692C17.4717 21.687 17.0342 21.94 16.4719 22.3841C16.3135 22.5092 16.1434 22.6513 15.9668 22.799C15.579 23.1232 15.1593 23.4741 14.7599 23.7305C14.6163 23.8228 14.4355 23.8353 14.2804 23.7638C14.1254 23.6924 14.0175 23.5467 13.9944 23.3776C13.9445 23.013 14.0202 22.5568 14.1629 22.1111C14.3095 21.6531 14.5433 21.1551 14.8578 20.6948C15.4778 19.7877 16.4842 18.9329 17.831 18.9895C19.1318 19.0441 20.0947 19.8064 20.6753 20.6356C20.9666 21.0515 21.1734 21.4993 21.2857 21.9149ZM19.8562 21.2092C19.3976 20.5543 18.6917 20.0265 17.7891 19.9886C16.9326 19.9526 16.2082 20.4912 15.6834 21.2591C15.494 21.5363 15.34 21.8312 15.2247 22.1149C15.2354 22.1059 15.2461 22.097 15.2569 22.088C15.4461 21.9294 15.6425 21.7648 15.8521 21.5993C16.4018 21.1652 17.068 20.7055 17.7856 20.6704C18.515 20.6346 19.1674 21.0423 19.6782 21.4246C19.857 21.5584 20.0358 21.7032 20.2051 21.8412C20.1191 21.6345 20.0027 21.4184 19.8562 21.2092Z" fill="#333333"/>
<path d="M30.1055 19.489C27.9022 19.5815 26.7677 22.0693 27.0832 22.9373C28.004 22.3803 29.0315 21.1172 30.1055 21.1698C31.1858 21.2227 32.3131 22.5953 33.4258 23.3098C33.5672 22.2758 32.3088 19.3965 30.1055 19.489Z" fill="#333333"/>
<path fill-rule="evenodd" clip-rule="evenodd" d="M26.6298 21.9149C26.5221 22.3134 26.4832 22.7504 26.6132 23.1081C26.6644 23.2488 26.7758 23.3591 26.9169 23.4089C27.058 23.4586 27.2139 23.4426 27.342 23.3652C27.6036 23.2069 27.8632 23.0046 28.107 22.8078C28.1733 22.7542 28.2384 22.7011 28.3026 22.6487C28.483 22.5016 28.6571 22.3595 28.8365 22.2253C29.3381 21.8499 29.7365 21.6523 30.081 21.6692C30.4438 21.687 30.8813 21.94 31.4436 22.3841C31.602 22.5092 31.7721 22.6513 31.9487 22.799C32.3365 23.1232 32.7563 23.4741 33.1556 23.7305C33.2993 23.8228 33.4801 23.8353 33.6351 23.7638C33.7901 23.6924 33.898 23.5467 33.9211 23.3776C33.971 23.013 33.8954 22.5568 33.7527 22.1111C33.606 21.6531 33.3723 21.1551 33.0577 20.6948C32.4377 19.7877 31.4313 18.9329 30.0845 18.9895C28.7838 19.0441 27.8208 19.8064 27.2402 20.6356C26.9489 21.0515 26.7421 21.4993 26.6298 21.9149ZM28.0594 21.2092C28.5179 20.5543 29.2238 20.0265 30.1264 19.9886C30.9829 19.9526 31.7074 20.4912 32.2321 21.2591C32.4215 21.5363 32.5755 21.8312 32.6908 22.1149C32.6801 22.1059 32.6694 22.097 32.6587 22.088C32.4694 21.9294 32.273 21.7648 32.0634 21.5993C31.5138 21.1652 30.8475 20.7055 30.1299 20.6704C29.4005 20.6346 28.7482 21.0423 28.2373 21.4246C28.0585 21.5584 27.8797 21.7032 27.7105 21.8412C27.7964 21.6345 27.9128 21.4184 28.0594 21.2092Z" fill="#333333"/>
<path fill-rule="evenodd" clip-rule="evenodd" d="M28.9027 30.0815C26.6653 30.6733 25.2736 30.9981 23.8678 30.9918C22.5107 30.9857 21.1823 30.6703 19.1162 30.134C19.1184 30.1378 19.1205 30.1411 19.1224 30.1439C19.1224 30.1439 19.131 30.1564 19.1636 30.1919C19.1804 30.2102 19.1985 30.2293 19.2243 30.2565L19.2258 30.2581C19.2492 30.2827 19.2796 30.3148 19.3105 30.3485C20.1453 31.2622 21.8715 32 24.0132 32C26.2582 32 28.0331 31.1916 28.8193 30.2289C28.8248 30.2223 28.8452 30.1946 28.8727 30.1426C28.8828 30.1236 28.8928 30.1031 28.9027 30.0815ZM30.8397 30.6162C30.7335 30.9263 30.572 31.2447 30.3684 31.494C29.0811 33.0703 26.6364 34 24.0132 34C21.4962 34 19.1575 33.146 17.834 31.6976C17.8303 31.6936 17.8232 31.6862 17.8133 31.6759C17.7509 31.6112 17.5785 31.4323 17.4623 31.2592C17.292 31.0058 17.1668 30.7004 17.0909 30.4047C17.0156 30.1111 16.9688 29.7483 17.0244 29.3835C17.0803 29.0172 17.2647 28.5282 17.7618 28.2295C18.2429 27.9403 18.7837 27.9714 19.2383 28.0992C21.5915 28.7127 22.7388 28.9867 23.8768 28.9918C25.0121 28.9969 26.1852 28.7337 28.5811 28.0977L28.5945 28.0941C29.1149 27.9636 29.7031 27.9351 30.2113 28.2322C30.7608 28.5534 30.9508 29.0927 30.9905 29.5094C31.0289 29.913 30.9454 30.3077 30.8397 30.6162Z" fill="#333333"/>
</svg>
