<svg width="48" height="48" viewBox="0 0 48 48" fill="none" xmlns="http://www.w3.org/2000/svg">
<g clip-path="url(#clip0)">
<path fill-rule="evenodd" clip-rule="evenodd" d="M24 5.99976C14.0589 5.99976 6 14.0586 6 23.9998C6 33.9409 14.0589 41.9998 24 41.9998C33.9411 41.9998 42 33.9409 42 23.9998C42 22.2014 41.7363 20.4647 41.2454 18.8261L39.3293 19.401C39.7656 20.8575 40 22.4012 40 23.9998C40 32.8363 32.8366 39.9998 24 39.9998C15.1634 39.9998 8 32.8363 8 23.9998C8 15.1632 15.1634 7.99976 24 7.99976V5.99976Z" fill="#333333"/>
<path fill-rule="evenodd" clip-rule="evenodd" d="M18.164 15.3174C17.8879 14.8391 18.0518 14.2275 18.5301 13.9514L21.1986 12.4107C21.5266 12.2214 21.9335 12.2336 22.2495 12.4423C22.5656 12.651 22.7367 13.0203 22.6914 13.3964L22.2395 17.1467L23.5095 16.4135C23.9878 16.1373 24.5994 16.3012 24.8756 16.7795C25.1517 17.2578 24.9878 17.8694 24.5095 18.1455L21.5075 19.8788C21.1795 20.0682 20.7726 20.056 20.4565 19.8473C20.1404 19.6386 19.9694 19.2692 20.0147 18.8931L20.4665 15.1428L19.5301 15.6835C19.0518 15.9596 18.4402 15.7957 18.164 15.3174Z" fill="#333333"/>
<path fill-rule="evenodd" clip-rule="evenodd" d="M25.8172 9.29384C25.6743 8.76037 25.9909 8.21203 26.5244 8.06909L30.3881 7.03382C30.7539 6.93578 31.1438 7.05287 31.3951 7.33627C31.6464 7.61967 31.716 8.02073 31.5749 8.37224L29.5262 13.4764L31.941 12.8294C32.4744 12.6864 33.0228 13.003 33.1657 13.5365C33.3087 14.0699 32.9921 14.6183 32.4586 14.7612L28.1119 15.9259C27.7461 16.0239 27.3562 15.9069 27.1049 15.6235C26.8536 15.3401 26.784 14.939 26.9251 14.5875L28.9738 9.48331L27.042 10.0009C26.5085 10.1439 25.9602 9.8273 25.8172 9.29384Z" fill="#333333"/>
<path fill-rule="evenodd" clip-rule="evenodd" d="M35.5556 6.99976C35.5556 6.44747 36.0033 5.99976 36.5556 5.99976H41C41.3635 5.99976 41.6984 6.19703 41.8746 6.51499C42.0509 6.83294 42.0407 7.22149 41.848 7.52975L37.8042 13.9998H41C41.5523 13.9998 42 14.4475 42 14.9998C42 15.552 41.5523 15.9998 41 15.9998H36C35.6365 15.9998 35.3016 15.8025 35.1254 15.4845C34.9491 15.1666 34.9593 14.778 35.152 14.4698L39.1958 7.99976H36.5556C36.0033 7.99976 35.5556 7.55204 35.5556 6.99976Z" fill="#333333"/>
<path d="M13.3858 27.0546C15.5351 27.2566 17.5566 26.2071 18.934 23.9586C19.5114 24.828 19.1964 27.0676 17.1725 27.9434C15.1486 28.8191 13.4797 27.9734 13.3858 27.0546Z" fill="#333333"/>
<path fill-rule="evenodd" clip-rule="evenodd" d="M14.4039 28.6484C13.6309 28.4027 12.9643 27.8488 12.8884 27.1054C12.8732 26.9566 12.9255 26.8087 13.0309 26.7025C13.1363 26.5963 13.2837 26.5428 13.4326 26.5568C15.3637 26.7383 17.2142 25.8089 18.5076 23.6974C18.5968 23.5519 18.7541 23.4618 18.9248 23.4587C19.0955 23.4556 19.256 23.5398 19.3505 23.682C19.7526 24.2873 19.7926 25.2389 19.503 26.1068C19.2033 27.0052 18.5269 27.9021 17.371 28.4023C16.2592 28.8833 15.2116 28.9052 14.4039 28.6484ZM14.7069 27.6954C15.263 27.8723 16.0618 27.8792 16.9739 27.4845C17.842 27.1089 18.335 26.4481 18.5544 25.7904C18.6263 25.575 18.6667 25.3679 18.683 25.1769C17.5087 26.6126 16.009 27.4277 14.3805 27.56C14.4735 27.6096 14.5818 27.6557 14.7069 27.6954Z" fill="#333333"/>
<path d="M31.824 22.1141C30.0637 23.3637 27.7882 23.4655 25.4712 22.207C25.4058 23.2486 26.7985 25.0307 28.9891 24.7771C31.1797 24.5236 32.2022 22.9567 31.824 22.1141Z" fill="#333333"/>
<path fill-rule="evenodd" clip-rule="evenodd" d="M31.7393 24.0034C32.2859 23.4041 32.5862 22.5912 32.2802 21.9094C32.2189 21.7729 32.0998 21.671 31.9554 21.6317C31.811 21.5924 31.6566 21.6198 31.5346 21.7064C29.953 22.8291 27.8858 22.9495 25.7099 21.7676C25.5598 21.6861 25.3786 21.6868 25.2292 21.7695C25.0798 21.8521 24.9829 22.0053 24.9722 22.1757C24.9266 22.901 25.3677 23.745 26.0525 24.3519C26.7612 24.9801 27.7955 25.4186 29.0466 25.2738C30.25 25.1345 31.1682 24.6297 31.7393 24.0034ZM31.0004 23.3296C30.6072 23.7608 29.9188 24.1662 28.9316 24.2804C27.9921 24.3892 27.2347 24.0634 26.7158 23.6036C26.5458 23.4529 26.4073 23.2938 26.2977 23.1366C28.0325 23.7927 29.7389 23.7488 31.2154 23.0491C31.1595 23.1386 31.0888 23.2326 31.0004 23.3296Z" fill="#333333"/>
<path fill-rule="evenodd" clip-rule="evenodd" d="M30.3471 32.4176C28.4733 30.2138 26.1517 29.4007 24.2584 29.908C22.3651 30.4153 20.7611 32.2803 20.2402 35.1257L30.3471 32.4176ZM23.7407 27.9761C26.8611 27.14 30.1969 28.7705 32.4478 31.8547C33.0815 32.7231 32.5599 33.8952 31.5215 34.1735L20.1011 37.2336C19.0627 37.5118 18.0249 36.7575 18.1395 35.6886C18.5467 31.8922 20.6203 28.8122 23.7407 27.9761Z" fill="#333333"/>
</g>
<defs>
<clipPath id="clip0">
<rect width="48" height="48" fill="white"/>
</clipPath>
</defs>
</svg>
