<svg width="48" height="48" viewBox="0 0 48 48" fill="none" xmlns="http://www.w3.org/2000/svg">
<path fill-rule="evenodd" clip-rule="evenodd" d="M29.0939 39.1721C35.433 37.0446 40 31.0557 40 24C40 15.1634 32.8366 8 24 8C15.1634 8 8 15.1634 8 24C8 31.0557 12.567 37.0446 18.9061 39.1721C19.9658 40.8702 21.8509 42 24 42C14.0589 42 6 33.9411 6 24C6 14.0589 14.0589 6 24 6C33.9411 6 42 14.0589 42 24C42 33.9411 33.9411 42 24 42C26.1491 42 28.0342 40.8702 29.0939 39.1721ZM30 35.0608C30.9833 34.6847 31.7402 34.2206 32.3211 33.7157C33.7974 32.4327 34 31.0066 34 30.5L34 30.4771C34.0003 30.1862 34.0011 29.3869 33.6734 28.6382C33.497 28.235 33.2115 27.8111 32.7529 27.4913C32.2885 27.1674 31.7176 27 31.0583 27H16.9813C16.2481 27 15.6174 27.1458 15.1127 27.4707C14.5925 27.8056 14.3001 28.2703 14.1502 28.7273C14.007 29.1635 13.9931 29.5909 14.0021 29.9011C14.0067 30.0595 14.0182 30.2041 14.0267 30.3107L14.0276 30.3217C14.0316 30.3727 14.0347 30.4109 14.0369 30.4448C14.0381 30.462 14.0388 30.4752 14.0392 30.4852L14.0396 30.4963C14.0396 30.499 14.0396 30.5001 14.0396 30.5C14.0396 30.8805 14.0535 32.3442 15.4372 33.6803C16.0415 34.2639 16.8702 34.7875 18 35.189V33.0275C17.4697 32.7738 17.0933 32.4993 16.8265 32.2416C16.0385 31.4807 16.0394 30.7071 16.0396 30.5092L16.0396 30.5C16.0396 30.3901 16.0294 30.2634 16.0222 30.1752L16.0203 30.1514C16.0118 30.0445 16.0043 29.9453 16.0013 29.843C15.9951 29.6318 16.0116 29.4693 16.0504 29.3509C16.0825 29.2532 16.1239 29.1983 16.1953 29.1523C16.2822 29.0964 16.5009 29 16.9813 29H31.0583C31.37 29 31.5272 29.0748 31.6088 29.1317C31.6964 29.1928 31.7748 29.2884 31.8412 29.4399C31.9899 29.7799 32 30.2072 32 30.5C32 30.4999 32 30.5043 31.9996 30.513C31.9991 30.5215 31.9984 30.5334 31.9969 30.5484C31.994 30.5786 31.9888 30.6198 31.9793 30.6702C31.9603 30.7712 31.9252 30.9065 31.8611 31.0642C31.7349 31.375 31.4907 31.7877 31.0091 32.2062C30.7544 32.4276 30.425 32.6573 30 32.8754V35.0608Z" fill="#333333"/>
<path fill-rule="evenodd" clip-rule="evenodd" d="M20 33V37C20 39.2091 21.7909 41 24 41C26.2091 41 28 39.2091 28 37V33H20ZM19 31C18.4477 31 18 31.4477 18 32V37C18 40.3137 20.6863 43 24 43C27.3137 43 30 40.3137 30 37V32C30 31.4477 29.5523 31 29 31H19Z" fill="#333333"/>
<path fill-rule="evenodd" clip-rule="evenodd" d="M24 31C24.5523 31 25 31.4477 25 32V36C25 36.5523 24.5523 37 24 37C23.4477 37 23 36.5523 23 36V32C23 31.4477 23.4477 31 24 31Z" fill="#333333"/>
<path fill-rule="evenodd" clip-rule="evenodd" d="M30.5 20C30.2239 20 30 20.2239 30 20.5C30 20.7761 30.2239 21 30.5 21C30.7761 21 31 20.7761 31 20.5C31 20.2239 30.7761 20 30.5 20ZM28 20.5C28 19.1193 29.1193 18 30.5 18C31.8807 18 33 19.1193 33 20.5C33 21.8807 31.8807 23 30.5 23C29.1193 23 28 21.8807 28 20.5Z" fill="#333333"/>
<path fill-rule="evenodd" clip-rule="evenodd" d="M17.5 20C17.2239 20 17 20.2239 17 20.5C17 20.7761 17.2239 21 17.5 21C17.7761 21 18 20.7761 18 20.5C18 20.2239 17.7761 20 17.5 20ZM15 20.5C15 19.1193 16.1193 18 17.5 18C18.8807 18 20 19.1193 20 20.5C20 21.8807 18.8807 23 17.5 23C16.1193 23 15 21.8807 15 20.5Z" fill="#333333"/>
</svg>
