<svg width="48" height="48" viewBox="0 0 48 48" fill="none" xmlns="http://www.w3.org/2000/svg">
<path fill-rule="evenodd" clip-rule="evenodd" d="M33.0389 37.204C37.2426 34.3209 40 29.4824 40 24C40 15.1634 32.8366 8 24 8C15.1634 8 8 15.1634 8 24C8 29.291 10.5683 33.9822 14.5262 36.895L13.3988 38.5485C8.91389 35.2748 6 29.9777 6 24C6 14.0589 14.0589 6 24 6C33.9411 6 42 14.0589 42 24C42 30.1918 38.8736 35.6534 34.1133 38.8924L33.0389 37.204Z" fill="#333333"/>
<path fill-rule="evenodd" clip-rule="evenodd" d="M15.2411 20.3488C15.5703 19.9651 16.1341 19.8875 16.5547 20.1679L19.5547 22.1679C19.8329 22.3534 20 22.6656 20 23C20 23.3344 19.8329 23.6466 19.5547 23.8321L16.5547 25.8321C16.128 26.1165 15.5554 26.0321 15.2289 25.6367C14.9024 25.2413 14.9279 24.663 15.288 24.2978C15.6131 23.9681 16.0451 23.6391 16.3755 23.3874C16.487 23.3025 16.5869 23.2265 16.6672 23.1621C16.7344 23.1083 16.7916 23.0606 16.8399 23.0183C16.7843 22.9697 16.7179 22.9144 16.6389 22.8512C16.5704 22.7963 16.4903 22.7344 16.4025 22.6665C16.061 22.4024 15.6039 22.0489 15.2619 21.6747C14.9208 21.3015 14.9119 20.7325 15.2411 20.3488Z" fill="#333333"/>
<path fill-rule="evenodd" clip-rule="evenodd" d="M32.7589 20.3488C32.4297 19.9651 31.8659 19.8875 31.4453 20.1679L28.4453 22.1679C28.1671 22.3534 28 22.6656 28 23C28 23.3344 28.1671 23.6466 28.4453 23.8321L31.4453 25.8321C31.872 26.1165 32.4446 26.0321 32.7711 25.6367C33.0976 25.2413 33.0721 24.663 32.712 24.2978C32.3869 23.9681 31.9549 23.6391 31.6245 23.3874C31.513 23.3025 31.4131 23.2265 31.3328 23.1621C31.2656 23.1083 31.2084 23.0606 31.1601 23.0183C31.2157 22.9697 31.2821 22.9144 31.3611 22.8512C31.4296 22.7963 31.5097 22.7344 31.5975 22.6665C31.9389 22.4024 32.3961 22.0489 32.7381 21.6747C33.0792 21.3015 33.0881 20.7325 32.7589 20.3488Z" fill="#333333"/>
<path fill-rule="evenodd" clip-rule="evenodd" d="M18.026 32.8022C18.0088 32.8663 18 32.9322 18 33V36.138C16.7553 35.1684 16 33.8949 16 32.5C16 29.4624 19.5817 27 24 27C28.4183 27 32 29.4624 32 32.5C32 33.8949 31.2447 35.1684 30 36.138V33C30 32.9322 29.9912 32.8663 29.974 32.8022C29.9916 32.6987 30 32.5977 30 32.5C30 31.8294 29.6064 31.0033 28.5238 30.259C27.45 29.5208 25.8567 29 24 29C22.1433 29 20.55 29.5208 19.4762 30.259C18.3936 31.0033 18 31.8294 18 32.5C18 32.5977 18.0084 32.6987 18.026 32.8022Z" fill="#333333"/>
<path fill-rule="evenodd" clip-rule="evenodd" d="M16.0095 32.7705C16.0149 32.8474 16.0226 32.9239 16.0326 33C16.1897 34.1982 16.9057 35.2856 18 36.138V33C18 32.9322 18.0088 32.8663 18.026 32.8022C18.026 32.802 18.0259 32.8024 18.026 32.8022C18.0084 32.6987 18 32.5977 18 32.5C18 31.8294 18.3936 31.0033 19.4762 30.259C20.55 29.5208 22.1433 29 24 29C25.8567 29 27.45 29.5208 28.5238 30.259C29.6064 31.0033 30 31.8294 30 32.5C30 32.5977 29.9916 32.6987 29.974 32.8022C29.9741 32.8024 29.974 32.802 29.974 32.8022C29.9912 32.8663 30 32.9322 30 33V36.138C31.0943 35.2856 31.8103 34.1982 31.9674 33C31.9774 32.9239 31.9851 32.8474 31.9905 32.7705C31.9968 32.6809 32 32.5907 32 32.5C32 31.7093 31.7573 30.9576 31.3204 30.2781C30.918 29.6525 30.3509 29.0881 29.6569 28.6109C28.2095 27.6158 26.2096 27 24 27C21.7904 27 19.7905 27.6158 18.3431 28.6109C18.3361 28.6158 18.329 28.6207 18.3219 28.6256C16.8867 29.6197 16 30.9887 16 32.5" fill="#333333"/>
<path fill-rule="evenodd" clip-rule="evenodd" d="M18.976 34.1014C18.9756 34.1014 18.9771 34.0987 18.9813 34.0933C18.9784 34.0987 18.9763 34.1014 18.976 34.1014ZM19 34.0727C19.0181 34.0546 19.0484 34.0281 19.0969 33.9934C19.2895 33.8558 19.6317 33.6992 20.1426 33.5573C21.1512 33.2771 22.554 33.125 24 33.125C25.446 33.125 26.8488 33.2771 27.8574 33.5573C28.3683 33.6992 28.7105 33.8558 28.9031 33.9934C28.9516 34.028 28.9819 34.0546 29 34.0727V38.2212L29.8804 38.3273C31.6397 38.5393 33.0584 38.8382 34.0118 39.1752C34.3389 39.2907 34.5845 39.4017 34.7604 39.5C34.7174 39.524 34.6691 39.5494 34.6151 39.576C34.1175 39.8211 33.3328 40.0697 32.2813 40.2888C30.1949 40.7235 27.2665 41 24 41C20.7335 41 17.8051 40.7235 15.7187 40.2888C14.6672 40.0697 13.8825 39.8211 13.3849 39.576C13.3309 39.5494 13.2826 39.524 13.2396 39.5C13.4155 39.4017 13.6611 39.2907 13.9882 39.1752C14.9416 38.8382 16.3603 38.5393 18.1196 38.3273L19 38.2212V34.0727ZM12.9417 39.7136C12.9414 39.7136 12.9433 39.7108 12.9484 39.7053C12.9445 39.7109 12.942 39.7136 12.9417 39.7136ZM35.0583 39.7136C35.058 39.7136 35.0555 39.7109 35.0516 39.7053C35.0567 39.7108 35.0586 39.7136 35.0583 39.7136ZM29.024 34.1014C29.0237 34.1014 29.0216 34.0987 29.0187 34.0933C29.0229 34.0986 29.0244 34.1014 29.024 34.1014ZM30.0656 32.3659C30.5286 32.6966 31 33.2341 31 34V36.4583C32.4553 36.6698 33.7174 36.9499 34.6783 37.2895C35.2473 37.4906 35.7694 37.7326 36.1686 38.0333C36.5464 38.3179 37 38.8011 37 39.5C37 40.0213 36.7419 40.4273 36.4696 40.7046C36.2006 40.9785 35.8553 41.1946 35.4988 41.3702C34.782 41.7233 33.8094 42.0134 32.6892 42.2467C30.4325 42.7169 27.361 43 24 43C20.639 43 17.5675 42.7169 15.3108 42.2467C14.1906 42.0134 13.218 41.7233 12.5012 41.3702C12.1447 41.1946 11.7994 40.9785 11.5304 40.7046C11.2581 40.4273 11 40.0213 11 39.5C11 38.8011 11.4536 38.3179 11.8314 38.0333C12.2306 37.7326 12.7527 37.4906 13.3217 37.2895C14.2826 36.9499 15.5447 36.6698 17 36.4583V34C17 33.2341 17.4714 32.6966 17.9344 32.3659C18.398 32.0348 18.9933 31.8008 19.6074 31.6302C20.8488 31.2854 22.446 31.125 24 31.125C25.554 31.125 27.1512 31.2854 28.3926 31.6302C29.0067 31.8008 29.602 32.0348 30.0656 32.3659Z" fill="#333333"/>
<path fill-rule="evenodd" clip-rule="evenodd" d="M22 32C22.5523 32 23 32.4477 23 33V38C23 38.5523 22.5523 39 22 39C21.4477 39 21 38.5523 21 38V33C21 32.4477 21.4477 32 22 32Z" fill="#333333"/>
<path fill-rule="evenodd" clip-rule="evenodd" d="M26 32C26.5523 32 27 32.4477 27 33V38C27 38.5523 26.5523 39 26 39C25.4477 39 25 38.5523 25 38V33C25 32.4477 25.4477 32 26 32Z" fill="#333333"/>
</svg>
