<svg width="48" height="48" viewBox="0 0 48 48" fill="none" xmlns="http://www.w3.org/2000/svg">
<path fill-rule="evenodd" clip-rule="evenodd" d="M28.1322 8.73404C27.9991 8.66639 27.7982 8.58021 27.5164 8.48944C26.6231 8.20166 25.3346 8 24 8C22.6654 8 21.3769 8.20166 20.4836 8.48944C20.2018 8.58021 20.0009 8.66639 19.8678 8.73405L18.1615 14.422L17.0044 14.6696C15.4205 15.0085 14.2481 15.4342 13.5249 15.8506C13.4308 15.9048 13.351 15.9545 13.2836 15.9995C13.7038 16.2833 14.3974 16.6097 15.3958 16.9169C17.51 17.5674 20.5525 18 24 18C27.4475 18 30.49 17.5674 32.6042 16.9169C33.6026 16.6097 34.2962 16.2833 34.7164 15.9995C34.649 15.9545 34.5692 15.9048 34.4751 15.8506C33.7519 15.4342 32.5795 15.0085 30.9956 14.6696L29.8385 14.422L28.1322 8.73404ZM35.0629 16.293C35.0626 16.293 35.0599 16.2894 35.0557 16.282C35.0611 16.2892 35.0632 16.2929 35.0629 16.293ZM35.0603 15.7141C35.0664 15.7034 35.0705 15.6982 35.0711 15.6982C35.0717 15.6983 35.0686 15.7036 35.0603 15.7141ZM12.9289 15.6982C12.9295 15.6982 12.9336 15.7034 12.9397 15.7141C12.9314 15.7036 12.9283 15.6983 12.9289 15.6982ZM12.9443 16.282C12.9401 16.2894 12.9374 16.293 12.9371 16.293C12.9368 16.2929 12.9389 16.2892 12.9443 16.282ZM19.6665 8.85822C19.6661 8.85819 19.6711 8.85355 19.6831 8.84439C19.673 8.85367 19.667 8.85825 19.6665 8.85822ZM28.3169 8.84439C28.3289 8.85355 28.3339 8.85819 28.3335 8.85822C28.333 8.85825 28.327 8.85367 28.3169 8.84439ZM31.4142 12.7139L30 8C30 6.89543 27.0125 6 24 6C20.9875 6 18 6.89543 18 8L16.5858 12.7139C13.2098 13.4364 11 14.6388 11 16C11 18.2091 16.8203 20 24 20C31.1797 20 37 18.2091 37 16C37 14.6388 34.7902 13.4364 31.4142 12.7139Z" fill="#333333"/>
<path fill-rule="evenodd" clip-rule="evenodd" d="M16.0015 19.1535C16.0833 23.5009 19.633 27 24 27C28.367 27 31.9168 23.5009 31.9986 19.1535C31.3681 19.3051 30.6909 19.4392 29.9748 19.5535C29.6955 22.6077 27.1271 25 24 25C20.8729 25 18.3045 22.6077 18.0252 19.5535C17.3091 19.4392 16.632 19.3051 16.0015 19.1535Z" fill="#333333"/>
<path fill-rule="evenodd" clip-rule="evenodd" d="M29.8041 11.0194C29.804 11.0194 29.8039 11.0194 30 12C30.1961 12.9806 30.196 12.9806 30.1958 12.9806L30.1922 12.9814L30.1847 12.9828L30.1588 12.9878C30.1367 12.9921 30.1052 12.998 30.0646 13.0054C29.9834 13.0201 29.8658 13.0407 29.7148 13.0652C29.4127 13.1142 28.9763 13.1788 28.4293 13.2432C27.3362 13.3718 25.7965 13.5 24 13.5C22.2035 13.5 20.6638 13.3717 19.5707 13.2431C19.0237 13.1788 18.5873 13.1142 18.2852 13.0652C18.1342 13.0407 18.0166 13.0201 17.9354 13.0054C17.8948 12.998 17.8633 12.9921 17.8412 12.9878L17.8153 12.9828L17.8078 12.9814L17.8042 12.9806C17.804 12.9806 17.8039 12.9806 18 12C18.1961 11.0194 18.196 11.0194 18.1959 11.0194L18.1992 11.02L18.2166 11.0234C18.2329 11.0265 18.2585 11.0313 18.2931 11.0376C18.3623 11.0502 18.4674 11.0686 18.6054 11.091C18.8814 11.1358 19.2888 11.1962 19.8043 11.2568C20.8362 11.3782 22.2965 11.5 24 11.5C25.7035 11.5 27.1638 11.3782 28.1957 11.2568C28.7112 11.1962 29.1186 11.1358 29.3946 11.091C29.5326 11.0686 29.6376 11.0502 29.7069 11.0376C29.7415 11.0313 29.7671 11.0265 29.7834 11.0234L29.8008 11.02L29.8041 11.0194Z" fill="#333333"/>
<path fill-rule="evenodd" clip-rule="evenodd" d="M13.8293 42C13.9399 41.6872 14.0001 41.3506 14.0001 41V40H40.0001V36C40.0001 35.4942 39.7524 34.9085 38.8353 34.2233C37.8956 33.5212 36.4723 32.898 34.7026 32.3916C31.184 31.3846 26.8802 31 24.0001 31C22.334 31 20.1914 31.1287 18.0001 31.4321V29.4139C20.2048 29.1219 22.3329 29 24.0001 29C30.0076 29 42.0001 30.5833 42.0001 36V42H13.8293Z" fill="#333333"/>
<path fill-rule="evenodd" clip-rule="evenodd" d="M18 36V31H20V36H18Z" fill="#333333"/>
<path fill-rule="evenodd" clip-rule="evenodd" d="M33 36V31H35V36H33Z" fill="#333333"/>
<path fill-rule="evenodd" clip-rule="evenodd" d="M28 36V31H30V36H28Z" fill="#333333"/>
<path fill-rule="evenodd" clip-rule="evenodd" d="M17.1974 35C16.733 35.8028 16.0879 36.488 15.3178 37H17.6515C17.7053 37.0183 17.7643 37.0379 17.8284 37.0587C18.164 37.1675 18.639 37.3079 19.2295 37.4468C20.4069 37.7239 22.0634 38 24.0001 38C25.9367 38 27.5932 37.7239 28.7706 37.4468C29.3611 37.3079 29.8361 37.1675 30.1717 37.0587C30.2358 37.0379 30.2948 37.0183 30.3486 37H34.0001V40H14.0001V41C14.0001 41.3506 13.9399 41.6872 13.8293 42H36.0001V36C36.0001 35.4477 35.5523 35 35.0001 35H30.0001C30.0001 35 27.5001 36 24.0001 36C20.5001 36 18.0001 35 18.0001 35H17.1974Z" fill="#333333"/>
<path fill-rule="evenodd" clip-rule="evenodd" d="M7 24C7.55228 24 8 24.4477 8 25V32C8 33.1046 8.89543 34 10 34V25C10 24.4477 10.4477 24 11 24C11.5523 24 12 24.4477 12 25V34C13.1046 34 14 33.1046 14 32V25C14 24.4477 14.4477 24 15 24C15.5523 24 16 24.4477 16 25V32C16 34.2091 14.2091 36 12 36V41C12 41.5523 11.5523 42 11 42C10.4477 42 10 41.5523 10 41V36C7.79086 36 6 34.2091 6 32V25C6 24.4477 6.44772 24 7 24Z" fill="#333333"/>
</svg>
