<svg width="48" height="48" viewBox="0 0 48 48" fill="none" xmlns="http://www.w3.org/2000/svg">
<path fill-rule="evenodd" clip-rule="evenodd" d="M15 26.4371L13.8369 25.9013C12.6932 25.3744 11 23.8541 11 21.5714C11 20.1769 11.6053 19.3326 12.3079 18.7824C12.6793 18.4915 13.0818 18.2843 13.4344 18.1529C13.7375 18.04 13.9284 18.0101 13.9772 18.0025C13.9907 18.0004 13.9933 18 13.9845 18H31C31.5523 18 32 18.4477 32 19C32 19.5523 31.5523 20 31 20H24V39C24 39.5523 23.5523 40 23 40C22.4477 40 22 39.5523 22 39L22 29H17L17 39C17 39.5523 16.5523 40 16 40C15.4477 40 15 39.5523 15 39V26.4371ZM26 22H31C32.6569 22 34 20.6569 34 19C34 17.3431 32.6569 16 31 16H13.9845C12.8712 16 9 17.3636 9 21.5714C9 24.91 11.4371 26.9978 13 27.7178V39C13 40.6569 14.3431 42 16 42C16.9556 42 17.8069 41.5532 18.3562 40.8571C18.7594 40.3463 19 39.7012 19 39L19 31H20L20 39C20 39.7012 20.2406 40.3463 20.6438 40.8571C21.1931 41.5532 22.0444 42 23 42C24.6569 42 26 40.6569 26 39V22Z" fill="#333333"/>
<path d="M15 20C13.8954 20 13 20.8954 13 22C13 23.1046 13.8954 24 15 24V20Z" fill="#333333"/>
<path fill-rule="evenodd" clip-rule="evenodd" d="M19.5 12C18.3954 12 17.5 11.1046 17.5 10C17.5 8.89543 18.3954 8 19.5 8C20.6046 8 21.5 8.89543 21.5 10C21.5 11.1046 20.6046 12 19.5 12ZM19.5 14C17.2909 14 15.5 12.2091 15.5 10C15.5 7.79086 17.2909 6 19.5 6C21.7091 6 23.5 7.79086 23.5 10C23.5 12.2091 21.7091 14 19.5 14Z" fill="#333333"/>
<path fill-rule="evenodd" clip-rule="evenodd" d="M31 6V12C31 12.5523 31.4477 13 32 13H36C36.5523 13 37 12.5523 37 12V6H39V12C39 13.6569 37.6569 15 36 15H32C30.3431 15 29 13.6569 29 12V6H31Z" fill="#333333"/>
<path fill-rule="evenodd" clip-rule="evenodd" d="M34 14C34.5523 14 35 14.4477 35 15V41C35 41.5523 34.5523 42 34 42C33.4477 42 33 41.5523 33 41V15C33 14.4477 33.4477 14 34 14Z" fill="#333333"/>
<path fill-rule="evenodd" clip-rule="evenodd" d="M33 13V6H35V13H33Z" fill="#333333"/>
</svg>
