<svg width="48" height="48" viewBox="0 0 48 48" fill="none" xmlns="http://www.w3.org/2000/svg">
<path fill-rule="evenodd" clip-rule="evenodd" d="M25.7866 30.4948C24.0844 31.7277 23 33.6762 23 35.857C23 36.6148 23.1594 37.7542 23.5643 38.6654C23.9751 39.5899 24.4901 40 25.1111 40C25.8207 40 26.3333 39.4544 26.3333 38.8571C26.3333 38.5831 26.2219 38.309 25.9815 37.7898C25.9744 37.7745 25.9671 37.7589 25.9598 37.743C25.7511 37.2934 25.4444 36.6327 25.4444 35.857C25.4444 34.9942 25.8547 34.116 26.2961 33.4399C26.7496 32.7454 27.3491 32.0919 27.933 31.6899L29.067 33.3374C28.7476 33.5572 28.3193 33.9995 27.9708 34.5333C27.6103 35.0855 27.4444 35.5681 27.4444 35.857C27.4444 36.1513 27.5603 36.4396 27.7963 36.9494C27.8058 36.97 27.8157 36.9911 27.8257 37.0127C28.0307 37.4535 28.3333 38.1042 28.3333 38.8571C28.3333 40.6268 26.8561 42 25.1111 42C23.3185 42 22.278 40.6958 21.7366 39.4775C21.1894 38.2459 21 36.8138 21 35.857C21 32.9901 22.4293 30.457 24.6134 28.875L25.7866 30.4948ZM37 35.857C37 33.6762 35.9156 31.7277 34.2134 30.4948L35.3866 28.875C37.5707 30.457 39 32.9901 39 35.857C39 36.7442 38.7876 38.1712 38.2383 39.4107C37.7062 40.6115 36.6755 42 34.8889 42C33.1439 42 31.6667 40.6268 31.6667 38.8571C31.6667 38.1198 31.9676 37.4656 32.1707 37.024C32.1814 37.0008 32.1918 36.9781 32.2018 36.9561C32.4392 36.4376 32.5556 36.1432 32.5556 35.857C32.5556 35.5681 32.3897 35.0855 32.0292 34.5333C31.6807 33.9995 31.2524 33.5572 30.933 33.3374L32.067 31.6899C32.6509 32.0919 33.2504 32.7453 33.7039 33.4399C34.1453 34.116 34.5556 34.9942 34.5556 35.857C34.5556 36.6219 34.2498 37.2885 34.0423 37.7408C34.0348 37.757 34.0275 37.7729 34.0204 37.7885C33.7778 38.3186 33.6667 38.5955 33.6667 38.8571C33.6667 39.4544 34.1793 40 34.8889 40C35.4479 40 35.9729 39.5864 36.4098 38.6004C36.8296 37.6531 37 36.5087 37 35.857Z" fill="#333333"/>
<path fill-rule="evenodd" clip-rule="evenodd" d="M30 15C31.933 15 33.5 13.433 33.5 11.5C33.5 9.567 31.933 8 30 8C28.067 8 26.5 9.567 26.5 11.5C26.5 13.433 28.067 15 30 15ZM30 17C33.0376 17 35.5 14.5376 35.5 11.5C35.5 8.46243 33.0376 6 30 6C26.9624 6 24.5 8.46243 24.5 11.5C24.5 14.5376 26.9624 17 30 17Z" fill="#333333"/>
<path fill-rule="evenodd" clip-rule="evenodd" d="M35.5 28H24.5V26H35.5V28Z" fill="#333333"/>
<path fill-rule="evenodd" clip-rule="evenodd" d="M39.9642 19.735C39.8179 19.2025 39.2675 18.8894 38.735 19.0358C35.2703 19.9881 32.6237 20.4255 30.004 20.4144C27.3811 20.4033 24.7304 19.9425 21.2532 19.0326C20.7189 18.8928 20.1724 19.2126 20.0326 19.7469C19.8928 20.2812 20.2126 20.8276 20.7468 20.9675C22.3444 21.3855 23.7962 21.7177 25.1721 21.958C25.6508 22.0416 26.0001 22.4572 26.0001 22.9431V28.9404C26.0001 29.0303 26.0669 29.415 26.3541 29.8785C26.6247 30.3153 27.0598 30.7688 27.7275 31.0661C27.947 31.1639 28.1878 31.2834 28.3839 31.3808L28.5106 31.4437C28.7562 31.5651 28.9751 31.6704 29.1902 31.7616C29.6559 31.9589 29.9042 32 30.0001 32C30.0959 32 30.3442 31.9589 30.8099 31.7616C31.0247 31.6706 31.2433 31.5654 31.4884 31.4442M31.4895 31.4437C31.7491 31.3149 32.0079 31.184 32.2727 31.0661C32.9404 30.7688 33.3754 30.3153 33.646 29.8785C33.9333 29.415 34.0001 29.0303 34.0001 28.9404V22.9697C34.0001 22.4835 34.3497 22.0678 34.8287 21.9845C36.2059 21.7449 37.6614 21.405 39.265 20.9643C39.7976 20.8179 40.1106 20.2675 39.9642 19.735M38.2049 17.1073C39.8025 16.6682 41.4536 17.6073 41.8927 19.205C42.3318 20.8026 41.3927 22.4536 39.7951 22.8928C38.4576 23.2604 37.2039 23.5642 36.0001 23.8011V28.9404C36.0001 29.4838 35.7817 30.229 35.3461 30.9319C34.894 31.6616 34.1688 32.4111 33.0863 32.8932C32.9088 32.9722 32.7033 33.074 32.4965 33.1767L32.3758 33.2366C32.1241 33.361 31.8618 33.488 31.5902 33.6031C31.0409 33.8358 30.4976 34 30.0001 34C29.5025 34 28.9592 33.8358 28.41 33.6031C28.1384 33.488 27.876 33.361 27.6243 33.2366L27.5042 33.177C27.2973 33.0743 27.0913 32.9722 26.9139 32.8932C25.8314 32.4111 25.1061 31.6616 24.654 30.9319C24.2185 30.229 24.0001 29.4838 24.0001 28.9404V23.7749C22.8059 23.5416 21.5636 23.2485 20.2405 22.9023C18.6377 22.4829 17.6783 20.8434 18.0977 19.2406C18.5172 17.6377 20.1566 16.6783 21.7595 17.0978C25.1619 17.9881 27.629 18.4044 30.0125 18.4144C32.3863 18.4245 34.8409 18.0319 38.2049 17.1073Z" fill="#333333"/>
<path fill-rule="evenodd" clip-rule="evenodd" d="M11 18C12.6569 18 14 16.6569 14 15C14 13.3431 12.6569 12 11 12C9.34315 12 8 13.3431 8 15C8 16.6569 9.34315 18 11 18ZM11 20C13.7614 20 16 17.7614 16 15C16 12.2386 13.7614 10 11 10C8.23858 10 6 12.2386 6 15C6 17.7614 8.23858 20 11 20Z" fill="#333333"/>
<path fill-rule="evenodd" clip-rule="evenodd" d="M19.793 8.20731L14.4644 13.5357L13.0502 12.1215L18.3788 6.79308L19.793 8.20731Z" fill="#333333"/>
<path fill-rule="evenodd" clip-rule="evenodd" d="M14 7C14 6.44772 14.4477 6 15 6H19.5C20.0523 6 20.5 6.44772 20.5 7V12C20.5 12.5523 20.0523 13 19.5 13C18.9477 13 18.5 12.5523 18.5 12V8H15C14.4477 8 14 7.55228 14 7Z" fill="#333333"/>
</svg>
