<svg width="48" height="48" viewBox="0 0 48 48" fill="none" xmlns="http://www.w3.org/2000/svg">
<path fill-rule="evenodd" clip-rule="evenodd" d="M12 20C14.2091 20 16 18.2091 16 16C16 13.7909 14.2091 12 12 12C9.79086 12 8 13.7909 8 16C8 18.2091 9.79086 20 12 20ZM12 22C15.3137 22 18 19.3137 18 16C18 12.6863 15.3137 10 12 10C8.68629 10 6 12.6863 6 16C6 19.3137 8.68629 22 12 22Z" fill="#333333"/>
<path fill-rule="evenodd" clip-rule="evenodd" d="M21.7071 7.70711L16.7071 12.7071L15.2929 11.2929L20.2929 6.2929L21.7071 7.70711Z" fill="#333333"/>
<path fill-rule="evenodd" clip-rule="evenodd" d="M16 7C16 6.44772 16.4477 6 17 6H21C21.5523 6 22 6.44772 22 7V11C22 11.5523 21.5523 12 21 12C20.4477 12 20 11.5523 20 11V8H17C16.4477 8 16 7.55228 16 7Z" fill="#333333"/>
<path fill-rule="evenodd" clip-rule="evenodd" d="M32.9999 16C35.2092 16 37 14.2092 37 12.0001C37 9.7909 35.2092 8 32.9999 8C30.7909 8 29 9.79088 29 12.0001C29 14.2092 30.7908 16 32.9999 16ZM39 12.0001C39 15.3138 36.3138 18 32.9999 18C29.6862 18 27 15.3138 27 12.0001C27 8.68635 29.6862 6 32.9999 6C36.3138 6 39 8.68635 39 12.0001Z" fill="#333333"/>
<path fill-rule="evenodd" clip-rule="evenodd" d="M41.4317 16.098C41.779 16.2642 42 16.615 42 17H41C42 17 42 16.9999 42 17V34.0414C42 36.2299 41.3134 38.4679 39.8134 40.1734C38.2949 41.8998 36.0121 43 33 43C26.791 43 24 37.8335 24 34.0414V17.0006C24 17.0005 24 17 25 17L24 17.0006C24 16.6213 24.2146 16.274 24.5541 16.1049C24.8936 15.9358 25.2996 15.9733 25.6023 16.2018C28.8107 18.6227 31.0812 19.6601 33.174 19.6549C35.2561 19.6497 37.4061 18.6109 40.3727 16.2212C40.6725 15.9797 41.0844 15.9318 41.4317 16.098ZM26 18.9479V34.0414C26 37.0709 28.209 41 33 41C35.4879 41 37.2051 40.1105 38.3116 38.8525C39.4366 37.5735 40 35.8322 40 34.0414V19.0159C37.6193 20.7051 35.4612 21.6492 33.1789 21.6549C30.864 21.6606 28.5909 20.6997 26 18.9479Z" fill="#333333"/>
<path fill-rule="evenodd" clip-rule="evenodd" d="M24.6616 17.0121C24.9626 16.5491 25.582 16.4177 26.045 16.7187C28.1282 18.0729 31.2756 20.7199 34.2908 23.8427C37.3016 26.9608 40.2626 30.6374 41.9023 34.0688C42.1404 34.5672 41.9295 35.1642 41.4312 35.4023C40.9328 35.6404 40.3358 35.4295 40.0977 34.9312C38.5946 31.7855 35.8055 28.2908 32.852 25.2319C29.903 22.1776 26.8718 19.6416 24.955 18.3955C24.4919 18.0945 24.3606 17.4751 24.6616 17.0121Z" fill="#333333"/>
</svg>
