<svg width="48" height="49" viewBox="0 0 48 49" fill="none" xmlns="http://www.w3.org/2000/svg">
<path fill-rule="evenodd" clip-rule="evenodd" d="M24.0001 16.25C26.2093 16.25 28.0001 14.4592 28.0001 12.2501C28.0001 10.0409 26.2093 8.25 24.0001 8.25C21.791 8.25 20.0001 10.0409 20.0001 12.2501C20.0001 14.4592 21.7909 16.25 24.0001 16.25ZM30.0001 12.2501C30.0001 15.5638 27.3139 18.25 24.0001 18.25C20.6864 18.25 18.0001 15.5638 18.0001 12.2501C18.0001 8.93635 20.6864 6.25 24.0001 6.25C27.3139 6.25 30.0001 8.93635 30.0001 12.2501Z" fill="#333333"/>
<path fill-rule="evenodd" clip-rule="evenodd" d="M32.4318 16.348C32.7791 16.5142 33.0001 16.865 33.0001 17.25H32.0001C33.0001 17.25 33.0001 17.2499 33.0001 17.25V34.2914C33.0001 36.4799 32.3136 38.7179 30.8135 40.4234C29.295 42.1498 27.0122 43.25 24.0001 43.25C17.7911 43.25 15.0001 38.0835 15.0001 34.2914V17.2506C15.0001 17.2505 15.0001 17.25 16.0001 17.25L15.0001 17.2506C15.0001 16.8713 15.2147 16.524 15.5542 16.3549C15.8937 16.1858 16.2997 16.2233 16.6025 16.4518C19.8108 18.8727 22.0813 19.9101 24.1741 19.9049C26.2562 19.8997 28.4062 18.8609 31.3728 16.4712C31.6726 16.2297 32.0845 16.1818 32.4318 16.348ZM17.0001 19.1979L17.0001 34.2914C17.0001 37.3209 19.2091 41.25 24.0001 41.25C26.488 41.25 28.2052 40.3605 29.3117 39.1025C30.4367 37.8235 31.0001 36.0822 31.0001 34.2914V19.2659C28.6194 20.9551 26.4613 21.8992 24.179 21.9049C21.8642 21.9106 19.591 20.9497 17.0001 19.1979Z" fill="#333333"/>
<path fill-rule="evenodd" clip-rule="evenodd" d="M15.1617 17.2621C15.4627 16.7991 16.0821 16.6677 16.5452 16.9687C18.6283 18.3229 21.7757 20.9699 24.7909 24.0927C27.8017 27.2108 30.7627 30.8874 32.4024 34.3188C32.6405 34.8172 32.4296 35.4142 31.9313 35.6523C31.433 35.8904 30.836 35.6795 30.5978 35.1812C29.0947 32.0355 26.3057 28.5408 23.3522 25.4819C20.4031 22.4276 17.3719 19.8916 15.4551 18.6455C14.992 18.3445 14.8607 17.7251 15.1617 17.2621Z" fill="#333333"/>
</svg>
