<svg width="48" height="48" viewBox="0 0 48 48" fill="none" xmlns="http://www.w3.org/2000/svg">
<path fill-rule="evenodd" clip-rule="evenodd" d="M12 16C14.2091 16 16 14.2091 16 12C16 9.79086 14.2091 8 12 8C9.79086 8 8 9.79086 8 12C8 14.2091 9.79086 16 12 16ZM18 12C18 14.973 15.8377 17.441 13 17.917V20H15C15.5523 20 16 20.4477 16 21C16 21.5523 15.5523 22 15 22H13V25C13 25.5523 12.5523 26 12 26C11.4477 26 11 25.5523 11 25V22H9C8.44772 22 8 21.5523 8 21C8 20.4477 8.44772 20 9 20H11V17.917C8.16229 17.441 6 14.973 6 12C6 8.68629 8.68629 6 12 6C15.3137 6 18 8.68629 18 12Z" fill="#333333"/>
<path fill-rule="evenodd" clip-rule="evenodd" d="M32.9999 16C35.2092 16 37 14.2092 37 12.0001C37 9.7909 35.2092 8 32.9999 8C30.7909 8 29 9.79088 29 12.0001C29 14.2092 30.7908 16 32.9999 16ZM39 12.0001C39 15.3138 36.3138 18 32.9999 18C29.6862 18 27 15.3138 27 12.0001C27 8.68635 29.6862 6 32.9999 6C36.3138 6 39 8.68635 39 12.0001Z" fill="#333333"/>
<path fill-rule="evenodd" clip-rule="evenodd" d="M41.4317 16.098C41.779 16.2642 42 16.615 42 17H41C42 17 42 16.9999 42 17V34.0414C42 36.2299 41.3134 38.4679 39.8134 40.1734C38.2949 41.8998 36.0121 43 33 43C26.791 43 24 37.8335 24 34.0414V17.0006C24 17.0005 24 17 25 17L24 17.0006C24 16.6213 24.2146 16.274 24.5541 16.1049C24.8936 15.9358 25.2996 15.9733 25.6023 16.2018C28.8107 18.6227 31.0812 19.6601 33.174 19.6549C35.2561 19.6497 37.4061 18.6109 40.3727 16.2212C40.6725 15.9797 41.0844 15.9318 41.4317 16.098ZM26 18.9479V34.0414C26 37.0709 28.209 41 33 41C35.4879 41 37.2051 40.1105 38.3116 38.8525C39.4366 37.5735 40 35.8322 40 34.0414V19.0159C37.6193 20.7051 35.4612 21.6492 33.1789 21.6549C30.864 21.6606 28.5909 20.6997 26 18.9479Z" fill="#333333"/>
<path fill-rule="evenodd" clip-rule="evenodd" d="M24.6616 17.0121C24.9626 16.5491 25.582 16.4177 26.045 16.7187C28.1336 18.0765 31.2588 20.7545 34.2479 23.9032C37.2343 27.0492 40.1671 30.7509 41.8046 34.1777C42.0427 34.676 41.8318 35.273 41.3335 35.5111C40.8352 35.7492 40.2382 35.5383 40.0001 35.04C38.4947 31.8897 35.7263 28.3656 32.7973 25.2802C29.8709 22.1974 26.8664 19.6381 24.955 18.3955C24.4919 18.0945 24.3606 17.4751 24.6616 17.0121Z" fill="#333333"/>
<path fill-rule="evenodd" clip-rule="evenodd" d="M24.3089 24.0934C24.6462 23.6561 25.2741 23.575 25.7114 23.9123C29.861 27.1128 36.2639 33.5103 39.3439 39.2685C39.6043 39.7555 39.4207 40.3614 38.9337 40.6219C38.4467 40.8824 37.8408 40.6988 37.5803 40.2118C34.6822 34.7937 28.5147 28.6001 24.49 25.4959C24.0527 25.1586 23.9716 24.5307 24.3089 24.0934Z" fill="#333333"/>
<path fill-rule="evenodd" clip-rule="evenodd" d="M24.3089 32.0934C24.6462 31.6561 25.2741 31.575 25.7114 31.9123C28.3836 33.9732 31.9468 37.3238 34.9662 40.9565C35.3193 41.3812 35.2611 42.0117 34.8364 42.3647C34.4117 42.7177 33.7812 42.6596 33.4282 42.2349C30.5002 38.7123 27.0426 35.4648 24.49 33.4959C24.0527 33.1586 23.9716 32.5307 24.3089 32.0934Z" fill="#333333"/>
</svg>
