<svg width="48" height="48" viewBox="0 0 48 48" fill="none" xmlns="http://www.w3.org/2000/svg">
<path fill-rule="evenodd" clip-rule="evenodd" d="M11 14C12.6569 14 14 12.6569 14 11C14 9.34315 12.6569 8 11 8C9.34315 8 8 9.34315 8 11C8 12.6569 9.34315 14 11 14ZM11 16C13.7614 16 16 13.7614 16 11C16 8.23858 13.7614 6 11 6C8.23858 6 6 8.23858 6 11C6 13.7614 8.23858 16 11 16Z" fill="#333333"/>
<path fill-rule="evenodd" clip-rule="evenodd" d="M10 23V15H12V23C12 23.5523 11.5523 24 11 24C10.4477 24 10 23.5523 10 23Z" fill="#333333"/>
<path fill-rule="evenodd" clip-rule="evenodd" d="M14 20L8 20C7.44772 20 7 19.5523 7 19C7 18.4477 7.44771 18 8 18L14 18C14.5523 18 15 18.4477 15 19C15 19.5523 14.5523 20 14 20Z" fill="#333333"/>
<path fill-rule="evenodd" clip-rule="evenodd" d="M25.7866 30.4945C24.0844 31.7274 23 33.6759 23 35.8567C23 36.6145 23.1594 37.7539 23.5643 38.6651C23.9751 39.5896 24.4901 39.9997 25.1111 39.9997C25.8207 39.9997 26.3333 39.4541 26.3333 38.8568C26.3333 38.5828 26.2219 38.3087 25.9815 37.7895C25.9744 37.7742 25.9671 37.7586 25.9598 37.7428C25.7511 37.2931 25.4444 36.6324 25.4444 35.8567C25.4444 34.994 25.8547 34.1157 26.2961 33.4396C26.7496 32.7451 27.3491 32.0916 27.933 31.6896L29.067 33.3371C28.7476 33.5569 28.3193 33.9993 27.9708 34.533C27.6103 35.0852 27.4444 35.5678 27.4444 35.8567C27.4444 36.151 27.5603 36.4394 27.7963 36.9491C27.8058 36.9697 27.8157 36.9908 27.8257 37.0124C28.0307 37.4532 28.3333 38.1039 28.3333 38.8568C28.3333 40.6265 26.8561 41.9997 25.1111 41.9997C23.3185 41.9997 22.278 40.6955 21.7366 39.4772C21.1894 38.2456 21 36.8135 21 35.8567C21 32.9898 22.4293 30.4567 24.6134 28.8748L25.7866 30.4945ZM37 35.8567C37 33.6759 35.9156 31.7274 34.2134 30.4945L35.3866 28.8748C37.5707 30.4567 39 32.9898 39 35.8567C39 36.7439 38.7876 38.1709 38.2383 39.4104C37.7062 40.6112 36.6755 41.9997 34.8889 41.9997C33.1439 41.9997 31.6667 40.6265 31.6667 38.8568C31.6667 38.1195 31.9676 37.4653 32.1707 37.0237C32.1814 37.0005 32.1918 36.9779 32.2018 36.9558C32.4392 36.4373 32.5556 36.1429 32.5556 35.8567C32.5556 35.5678 32.3897 35.0852 32.0292 34.533C31.6807 33.9993 31.2524 33.5569 30.933 33.3371L32.067 31.6896C32.6509 32.0916 33.2504 32.7451 33.7039 33.4396C34.1453 34.1157 34.5556 34.994 34.5556 35.8567C34.5556 36.6216 34.2498 37.2882 34.0423 37.7405C34.0348 37.7567 34.0275 37.7726 34.0204 37.7882C33.7778 38.3183 33.6667 38.5952 33.6667 38.8568C33.6667 39.4541 34.1793 39.9997 34.8889 39.9997C35.4479 39.9997 35.9729 39.5861 36.4098 38.6001C36.8296 37.6528 37 36.5084 37 35.8567Z" fill="#333333"/>
<path fill-rule="evenodd" clip-rule="evenodd" d="M30 15C31.933 15 33.5 13.433 33.5 11.5C33.5 9.567 31.933 8 30 8C28.067 8 26.5 9.567 26.5 11.5C26.5 13.433 28.067 15 30 15ZM30 17C33.0376 17 35.5 14.5376 35.5 11.5C35.5 8.46243 33.0376 6 30 6C26.9624 6 24.5 8.46243 24.5 11.5C24.5 14.5376 26.9624 17 30 17Z" fill="#333333"/>
<path fill-rule="evenodd" clip-rule="evenodd" d="M39.9642 19.735C39.8179 19.2025 39.2675 18.8894 38.735 19.0358C35.2703 19.988 32.6237 20.4255 30.004 20.4144C27.3811 20.4033 24.7304 19.9425 21.2532 19.0326C20.7189 18.8928 20.1724 19.2126 20.0326 19.7469C19.8928 20.2812 20.2126 20.8276 20.7468 20.9674C22.3443 21.3855 23.7962 21.7177 25.1721 21.958C25.6508 22.0416 26.0001 22.4572 26.0001 22.9431V28.9404C26.0001 29.0303 26.0668 29.415 26.3541 29.8785C26.6247 30.3153 27.0598 30.7688 27.7274 31.0661C27.947 31.1639 28.1878 31.2834 28.3839 31.3808L28.3927 31.3852L28.5106 31.4437C28.7562 31.5651 28.9751 31.6704 29.1902 31.7616C29.6559 31.9589 29.9042 32 30.0001 32C30.0959 32 30.3442 31.9589 30.8099 31.7616C31.0247 31.6706 31.2433 31.5654 31.4884 31.4442M31.4895 31.4437L31.607 31.3854L31.6161 31.3809C31.8123 31.2835 32.053 31.1639 32.2727 31.0661C32.9404 30.7688 33.3754 30.3153 33.646 29.8785C33.9333 29.415 34.0001 29.0303 34.0001 28.9404V22.9697C34.0001 22.4835 34.3497 22.0678 34.8287 21.9845C36.2059 21.7449 37.6614 21.405 39.265 20.9643C39.7976 20.8179 40.1106 20.2675 39.9642 19.735M38.2049 17.1073C39.8025 16.6682 41.4536 17.6073 41.8927 19.205C42.3318 20.8026 41.3927 22.4536 39.7951 22.8927C38.4576 23.2604 37.2039 23.5642 36.0001 23.8011V28.9404C36.0001 29.4838 35.7817 30.229 35.3461 30.9319C34.894 31.6616 34.1688 32.4111 33.0862 32.8932C32.9088 32.9722 32.7033 33.074 32.4965 33.1767L32.3758 33.2366C32.1241 33.361 31.8618 33.488 31.5902 33.6031C31.0409 33.8358 30.4976 34 30.0001 34C29.5025 34 28.9592 33.8358 28.4099 33.6031C28.1384 33.488 27.876 33.361 27.6243 33.2366L27.5042 33.177C27.2973 33.0743 27.0913 32.9722 26.9139 32.8932C25.8314 32.4111 25.1061 31.6616 24.654 30.9319C24.2185 30.229 24.0001 29.4838 24.0001 28.9404V23.7749C22.8059 23.5416 21.5636 23.2485 20.2405 22.9023C18.6377 22.4829 17.6783 20.8434 18.0977 19.2406C18.5172 17.6377 20.1566 16.6783 21.7595 17.0977C25.1619 17.9881 27.629 18.4044 30.0125 18.4144C32.3862 18.4245 34.8409 18.0319 38.2049 17.1073Z" fill="#333333"/>
<path fill-rule="evenodd" clip-rule="evenodd" d="M36 29H25V27H36V29Z" fill="#333333"/>
<path fill-rule="evenodd" clip-rule="evenodd" d="M36 25H25V23H36V25Z" fill="#333333"/>
</svg>
