<svg width="48" height="48" viewBox="0 0 48 48" fill="none" xmlns="http://www.w3.org/2000/svg">
<path fill-rule="evenodd" clip-rule="evenodd" d="M12 16C14.2091 16 16 14.2091 16 12C16 9.79086 14.2091 8 12 8C9.79086 8 8 9.79086 8 12C8 14.2091 9.79086 16 12 16ZM18 12C18 14.973 15.8377 17.441 13 17.917V20H15C15.5523 20 16 20.4477 16 21C16 21.5523 15.5523 22 15 22H13V25C13 25.5523 12.5523 26 12 26C11.4477 26 11 25.5523 11 25V22H9C8.44772 22 8 21.5523 8 21C8 20.4477 8.44772 20 9 20H11V17.917C8.16229 17.441 6 14.973 6 12C6 8.68629 8.68629 6 12 6C15.3137 6 18 8.68629 18 12Z" fill="#333333"/>
<path fill-rule="evenodd" clip-rule="evenodd" d="M27.9604 29.7158L28.5092 40.9514C28.5362 41.503 28.1108 41.972 27.5592 41.999C27.0076 42.0259 26.5385 41.6006 26.5116 41.049L25.9628 29.8133L27.9604 29.7158ZM31.9417 30.9359L32.5243 39.0837C32.561 39.6347 32.1441 40.1112 31.593 40.148C31.0419 40.1847 30.5654 39.7678 30.5287 39.2167L29.9461 31.0689L31.9417 30.9359Z" fill="#333333"/>
<path fill-rule="evenodd" clip-rule="evenodd" d="M29.6777 31.7716C29.0789 31.4337 28.4074 31.2593 27.7268 31.2633L27.7209 31.2633L24.5533 31.2633C24.7793 35.6223 24.8967 38.031 24.9576 39.3578C24.9691 39.6083 24.9786 39.8204 24.9865 40H27.4125C28.7706 39.9975 29.8501 39.297 30.9385 38.1412L31.654 37.3813L32.3826 38.1287C32.6097 38.3617 32.8101 38.6448 32.9707 38.8788C33.018 38.9476 33.0625 39.0132 33.1053 39.0763C33.2238 39.251 33.3292 39.4064 33.4437 39.5579C33.7364 39.9452 33.8689 39.9949 33.8746 40H38.8596C39.403 40 40 39.4083 40 38.6847C40 37.9633 39.4061 37.3695 38.7398 37.3695H35.6694L35.4821 37.2899C34.0394 36.6771 33.0396 35.4134 32.2185 34.3652C32.1955 34.3359 32.1727 34.3066 32.1499 34.2775C31.2937 33.1841 30.5911 32.2869 29.6777 31.7716ZM30.6606 30.0298C29.761 29.5222 28.748 29.2578 27.7181 29.2633H22.4465L22.5014 30.3153C22.7634 35.3439 22.8943 38.0257 22.9597 39.4495C22.9924 40.1616 23.0087 40.5574 23.0167 40.774C23.0207 40.8823 23.0226 40.9444 23.0235 40.9781L23.0242 41.0064L23.0243 42H27.4159C29.1133 41.9972 30.4454 41.2814 31.5421 40.3344C31.6386 40.4754 31.743 40.6247 31.8482 40.7639C32.1852 41.2097 32.842 42 33.859 42H38.8596C40.7299 42 42 40.2766 42 38.6847C42 36.9311 40.5817 35.3695 38.7398 35.3695H36.092C35.2782 34.9613 34.6093 34.1739 33.793 33.1319C33.7424 33.0673 33.6911 33.0016 33.6391 32.9349C32.8635 31.9406 31.9329 30.7476 30.6606 30.0298Z" fill="#333333"/>
<path fill-rule="evenodd" clip-rule="evenodd" d="M13.25 37.0002H9.5C8.67157 37.0002 8 37.6718 8 38.5002C8 39.3286 8.67157 40.0002 9.5 40.0002H14C14.4721 40.0002 14.9167 39.7779 15.2 39.4002L18.2 35.4002C18.6971 34.7375 18.5627 33.7973 17.9 33.3002C17.2373 32.8031 16.2971 32.9375 15.8 33.6002L13.25 37.0002ZM12.25 35.0002H9.5C7.567 35.0002 6 36.5672 6 38.5002C6 40.4332 7.567 42.0002 9.5 42.0002H14C15.1017 42.0002 16.139 41.4815 16.8 40.6002L19.8 36.6002C20.9598 35.0538 20.6464 32.86 19.1 31.7002C17.5536 30.5404 15.3598 30.8538 14.2 32.4002L12.25 35.0002Z" fill="#333333"/>
<path fill-rule="evenodd" clip-rule="evenodd" d="M35.5 27C37.9853 27 40 24.9853 40 22.5C40 20.0147 37.9853 18 35.5 18C33.0147 18 31 20.0147 31 22.5C31 24.9853 33.0147 27 35.5 27ZM35.5 29C39.0899 29 42 26.0899 42 22.5C42 18.9101 39.0899 16 35.5 16C31.9101 16 29 18.9101 29 22.5C29 26.0899 31.9101 29 35.5 29Z" fill="#333333"/>
</svg>
