<svg width="48" height="49" viewBox="0 0 48 49" fill="none" xmlns="http://www.w3.org/2000/svg">
<path fill-rule="evenodd" clip-rule="evenodd" d="M19.7871 31.2448C18.0849 32.4777 17.0005 34.4262 17.0005 36.6071C17.0005 37.3648 17.1599 38.5042 17.5648 39.4154C17.9756 40.3399 18.4906 40.75 19.1116 40.75C19.8212 40.75 20.3338 40.2044 20.3338 39.6071C20.3338 39.3331 20.2224 39.059 19.9819 38.5398C19.9748 38.5245 19.9676 38.5089 19.9603 38.4931C19.7516 38.0434 19.4449 37.3827 19.4449 36.6071C19.4449 35.7443 19.8552 34.866 20.2966 34.1899C20.7501 33.4954 21.3495 32.8419 21.9335 32.44L23.0674 34.0875C22.7481 34.3072 22.3198 34.7496 21.9713 35.2833C21.6108 35.8355 21.4449 36.3181 21.4449 36.6071C21.4449 36.9013 21.5607 37.1897 21.7968 37.6994C21.8063 37.72 21.8161 37.7411 21.8262 37.7627C22.0312 38.2036 22.3338 38.8542 22.3338 39.6071C22.3338 41.3768 20.8566 42.75 19.1116 42.75C17.319 42.75 16.2784 41.4459 15.7371 40.2275C15.1898 38.9959 15.0005 37.5638 15.0005 36.6071C15.0005 33.7401 16.4298 31.207 18.6139 29.6251L19.7871 31.2448ZM31.0005 36.6071C31.0005 34.4262 29.916 32.4777 28.2139 31.2448L29.3871 29.6251C31.5712 31.207 33.0005 33.7401 33.0005 36.6071C33.0005 37.4942 32.7881 38.9212 32.2388 40.1608C31.7067 41.3615 30.676 42.75 28.8894 42.75C27.1444 42.75 25.6672 41.3768 25.6672 39.6071C25.6672 38.8698 25.968 38.2156 26.1712 37.774C26.1818 37.7508 26.1922 37.7282 26.2023 37.7062C26.4397 37.1876 26.556 36.8932 26.556 36.6071C26.556 36.3181 26.3902 35.8355 26.0297 35.2833C25.6812 34.7496 25.2529 34.3072 24.9335 34.0875L26.0674 32.44C26.6514 32.8419 27.2509 33.4954 27.7044 34.1899C28.1458 34.866 28.556 35.7443 28.556 36.6071C28.556 37.3719 28.2503 38.0385 28.0428 38.4908C28.0353 38.507 28.028 38.5229 28.0209 38.5385C27.7783 39.0686 27.6672 39.3455 27.6672 39.6071C27.6672 40.2044 28.1798 40.75 28.8894 40.75C29.4484 40.75 29.9734 40.3364 30.4103 39.3504C30.8301 38.4031 31.0005 37.2587 31.0005 36.6071Z" fill="#333333"/>
<path fill-rule="evenodd" clip-rule="evenodd" d="M24.0005 15.75C25.9335 15.75 27.5005 14.183 27.5005 12.25C27.5005 10.317 25.9335 8.75 24.0005 8.75C22.0675 8.75 20.5005 10.317 20.5005 12.25C20.5005 14.183 22.0675 15.75 24.0005 15.75ZM24.0005 17.75C27.0381 17.75 29.5005 15.2876 29.5005 12.25C29.5005 9.21243 27.0381 6.75 24.0005 6.75C20.9629 6.75 18.5005 9.21243 18.5005 12.25C18.5005 15.2876 20.9629 17.75 24.0005 17.75Z" fill="#333333"/>
<path fill-rule="evenodd" clip-rule="evenodd" d="M29.5005 28.75H18.5005V26.75H29.5005V28.75Z" fill="#333333"/>
<path fill-rule="evenodd" clip-rule="evenodd" d="M33.9647 20.485C33.8184 19.9525 33.268 19.6394 32.7355 19.7858C29.2708 20.738 26.6242 21.1755 24.0045 21.1644C21.3816 21.1533 18.7309 20.6925 15.2536 19.7826C14.7193 19.6428 14.1729 19.9626 14.0331 20.4969C13.8932 21.0312 14.213 21.5776 14.7473 21.7174C16.3448 22.1355 17.7967 22.4677 19.1726 22.708C19.6513 22.7916 20.0005 23.2071 20.0005 23.6931V29.6904C20.0005 29.7803 20.0673 30.1649 20.3546 30.6285C20.6252 31.0653 21.0602 31.5188 21.7279 31.8161C21.9475 31.9139 22.1882 32.0334 22.3844 32.1308L22.5111 32.1937C22.7567 32.3151 22.9756 32.4204 23.1907 32.5115C23.6564 32.7089 23.9047 32.75 24.0005 32.75C24.0964 32.75 24.3447 32.7089 24.8104 32.5115C25.0252 32.4206 25.2438 32.3154 25.4889 32.1942M25.49 32.1937L25.6166 32.1309C25.8127 32.0335 26.0535 31.9139 26.2732 31.8161C26.9409 31.5188 27.3759 31.0653 27.6465 30.6285C27.9338 30.1649 28.0005 29.7803 28.0005 29.6904V23.7197C28.0005 23.2335 28.3502 22.8178 28.8291 22.7345C30.2064 22.4948 31.6619 22.155 33.2655 21.7143C33.798 21.5679 34.1111 21.0175 33.9647 20.485M32.2054 17.8573C33.803 17.4182 35.4541 18.3573 35.8932 19.9549C36.3323 21.5526 35.3932 23.2036 33.7956 23.6427C32.4581 24.0104 31.2044 24.3142 30.0005 24.5511V29.6904C30.0005 30.2338 29.7821 30.979 29.3466 31.6819C28.8945 32.4116 28.1692 33.1611 27.0867 33.6431C26.9093 33.7222 26.7038 33.824 26.497 33.9267L26.3763 33.9865C26.1246 34.111 25.8623 34.238 25.5907 34.3531C25.0414 34.5858 24.4981 34.75 24.0005 34.75C23.503 34.75 22.9597 34.5858 22.4104 34.3531C22.1388 34.238 21.8765 34.111 21.6248 33.9865L21.5046 33.927C21.2978 33.8242 21.0918 33.7222 20.9144 33.6431C19.8319 33.1611 19.1066 32.4116 18.6545 31.6819C18.219 30.979 18.0005 30.2338 18.0005 29.6904V24.5248C16.8064 24.2916 15.5641 23.9985 14.241 23.6523C12.6381 23.2329 11.6788 21.5934 12.0982 19.9906C12.5177 18.3877 14.1571 17.4283 15.76 17.8477C19.1624 18.7381 21.6295 19.1544 24.013 19.1644C26.3867 19.1745 28.8414 18.7819 32.2054 17.8573Z" fill="#333333"/>
</svg>
