<svg width="48" height="48" viewBox="0 0 48 48" fill="none" xmlns="http://www.w3.org/2000/svg">
<path fill-rule="evenodd" clip-rule="evenodd" d="M18.5 21C16.6675 21 15 22.6948 15 25.0227C15 27.2207 16.4968 28.8667 18.2038 29.0311L19.144 29.1217L19.0493 31.545L19.0269 31.6395C19.0095 31.7131 19 31.7907 19 31.8718V39.1775C19 39.7034 19.4073 40.1394 19.932 40.1752C20.4567 40.2109 20.9194 39.8341 20.9908 39.3131L22.0212 31.785H26.0932L27.0073 39.2982C27.0712 39.8232 27.5327 40.2076 28.0605 40.1756C28.5883 40.1436 29 39.7063 29 39.1775V30.9586C29 30.8501 28.9831 30.7475 28.9525 30.6523L28.9107 30.5222L28.856 29.1217L29.7962 29.0311C31.5032 28.8667 33 27.2207 33 25.0227C33 22.6948 31.3325 21 29.5 21H18.5ZM13 25.0227C13 21.8026 15.3619 19 18.5 19H29.5C32.6381 19 35 21.8026 35 25.0227C35 27.7101 33.3627 30.0961 30.9969 30.8212C30.999 30.8667 31 30.9125 31 30.9586V39.1775C31 40.7638 29.765 42.076 28.1815 42.172C26.598 42.268 25.2136 41.1146 25.022 39.5398L24.3218 33.785H23.7661L22.9723 39.5843C22.7583 41.1475 21.3702 42.2778 19.7961 42.1705C18.222 42.0633 17 40.7552 17 39.1775L17 31.8718C17 31.671 17.0199 31.474 17.058 31.2828L17.0752 30.8427C14.6706 30.1444 13 27.7374 13 25.0227Z" fill="#333333"/>
<path d="M17 19.5152C17 18.6784 17.6784 18 18.5152 18H29.4848C30.3216 18 31 18.6784 31 19.5152C31 20.3352 30.3352 21 29.5152 21H18.4848C17.6648 21 17 20.3352 17 19.5152Z" fill="#333333"/>
<path fill-rule="evenodd" clip-rule="evenodd" d="M24 8C22.3431 8 21 9.34315 21 11C21 12.6569 22.3431 14 24 14C25.6569 14 27 12.6569 27 11C27 9.34315 25.6569 8 24 8ZM19 11C19 8.23858 21.2386 6 24 6C26.7614 6 29 8.23858 29 11C29 13.7614 26.7614 16 24 16C21.2386 16 19 13.7614 19 11Z" fill="#333333"/>
<path fill-rule="evenodd" clip-rule="evenodd" d="M20.9967 19.884C20.9949 19.6047 20.9929 19.311 20.9929 19H22.9929C22.9929 19.276 22.9947 19.5512 22.9965 19.822C23.0005 20.4244 23.0043 21.0054 22.9877 21.527C22.9636 22.2855 22.8955 23.0354 22.6823 23.693C22.4602 24.3781 22.0678 25.0005 21.3896 25.4278C20.7359 25.8397 19.9267 26 19 26V24C19.7194 24 20.1074 23.8718 20.3234 23.7357C20.5151 23.6149 20.6652 23.4296 20.7798 23.0762C20.9033 22.6954 20.9661 22.176 20.9887 21.4634C21.0041 20.9809 21.0006 20.4634 20.9967 19.884Z" fill="#333333"/>
<path fill-rule="evenodd" clip-rule="evenodd" d="M27.0033 19.884C27.0051 19.6047 27.0071 19.311 27.0071 19H25.0071C25.0071 19.276 25.0053 19.5512 25.0035 19.822C24.9995 20.4244 24.9957 21.0054 25.0123 21.527C25.0364 22.2855 25.1045 23.0354 25.3177 23.693C25.5398 24.3781 25.9322 25.0005 26.6104 25.4278C27.2641 25.8397 28.0733 26 29 26V24C28.2806 24 27.8926 23.8718 27.6766 23.7357C27.4849 23.6149 27.3348 23.4296 27.2202 23.0762C27.0967 22.6954 27.0339 22.176 27.0113 21.4634C26.9959 20.9809 26.9994 20.4634 27.0033 19.884Z" fill="#333333"/>
<path fill-rule="evenodd" clip-rule="evenodd" d="M21.0273 26.2645C20.2349 26.0098 19.158 26 18 26V24C18.0266 24 18.0534 24 18.0804 24C19.1352 23.9997 20.5161 23.9994 21.6393 24.3605C22.2365 24.5524 22.8418 24.8694 23.2971 25.4117C23.7659 25.97 24 26.6771 24 27.5C24 28.2238 23.8814 28.8922 23.5478 29.4551C23.1999 30.0422 22.6838 30.4053 22.1011 30.6238C21.545 30.8324 20.9068 30.9179 20.2499 30.959C19.5936 31 18.8384 31 18.024 31H18V29C18.8431 29 19.5378 28.9996 20.1251 28.9629C20.7182 28.9258 21.1217 28.8551 21.3989 28.7512C21.6495 28.6572 21.7584 28.5516 21.8272 28.4355C21.9103 28.2953 22 28.0262 22 27.5C22 27.0729 21.8869 26.8425 21.7654 26.6977C21.6304 26.5369 21.4024 26.3851 21.0273 26.2645Z" fill="#333333"/>
<path fill-rule="evenodd" clip-rule="evenodd" d="M29 30V24H31V30H29Z" fill="#333333"/>
</svg>
