<svg width="48" height="48" viewBox="0 0 48 48" fill="none" xmlns="http://www.w3.org/2000/svg">
<path fill-rule="evenodd" clip-rule="evenodd" d="M37.2643 26.0759L37.0987 25.7227C36.3843 24.1993 36.1756 22.5852 36.1122 21.1533C36.0803 20.4317 36.0845 19.7185 36.0916 19.0628C36.0925 18.9727 36.0936 18.8839 36.0946 18.7964C36.1011 18.2306 36.107 17.7167 36.0955 17.2218C36.0465 15.2721 35.4329 13.3738 34.3229 11.7487C33.0588 10.18 31.4072 8.94698 29.5194 8.16855L29.4866 8.15502L29.4542 8.14032C26.899 6.97888 24.1142 6.37922 21.2954 6.38467L21.2932 6.38468C17.746 6.38758 14.3526 7.77372 11.8576 10.2266C9.3638 12.6782 7.97141 15.9936 7.97424 19.4413C7.97591 21.4856 8.57077 23.8168 9.60426 25.9735C10.6401 28.1353 12.0435 29.9699 13.521 31.1065L14.3007 31.7063L14.308 40.6218C14.6332 41.0238 15.2647 41.52 16.2116 41.9501C17.3705 42.4764 18.5351 42.6891 19.2091 42.6335L19.2903 42.6268L19.3718 42.6267C21.3281 42.6251 22.2431 42.0716 22.6368 41.735C22.7795 41.613 22.8787 41.4982 22.9452 41.4078L22.9407 35.8724L25.4382 36.5157L25.4394 36.5161L25.4404 36.5163L25.4417 36.5166L25.4538 36.5196C25.4693 36.5234 25.496 36.5298 25.533 36.5384C25.6072 36.5555 25.7227 36.581 25.8735 36.6112C26.1759 36.6716 26.6158 36.7494 27.1462 36.8144C28.2229 36.9464 29.5963 37.0158 30.9224 36.8202C32.2598 36.6229 33.3742 36.1829 34.1402 35.4487C34.8536 34.7649 35.4812 33.62 35.4795 31.5238L35.4781 29.8139L37.1593 29.5479L37.1606 29.5477L37.1687 29.5463C37.1747 29.5452 37.1833 29.5437 37.1943 29.5416C37.2053 29.5396 37.2187 29.537 37.2343 29.5339C37.2975 29.5214 37.3955 29.5007 37.5169 29.4704C37.7658 29.4084 38.0837 29.3137 38.3936 29.1827C38.7153 29.0467 38.9468 28.9055 39.0832 28.7851C39.1107 28.7609 39.13 28.7415 39.1432 28.727C39.1383 28.6733 39.1196 28.5633 39.0496 28.3854C38.9401 28.1072 38.7532 27.7857 38.5139 27.4533C38.28 27.1283 38.0312 26.8414 37.8375 26.6335C37.7421 26.5311 37.6637 26.4517 37.6119 26.4006C37.5988 26.3876 37.5875 26.3765 37.5781 26.3674C37.5691 26.3587 37.5619 26.3517 37.5566 26.3467L37.5484 26.3389L37.5473 26.3379L37.2643 26.0759ZM24.9428 38.4534C24.9428 38.4534 25.7448 38.66 26.9431 38.8044C30.4841 39.2312 37.4857 39.1153 37.4795 31.5221C37.4795 31.5221 40.7819 30.9997 41.1148 29.1118C41.4478 27.224 38.9095 24.8735 38.9095 24.8735C38.0455 23.0311 38.0707 20.8607 38.0944 18.8232C38.101 18.2599 38.1074 17.7067 38.0949 17.1735C38.0359 14.809 37.284 12.5112 35.9294 10.5551C34.4462 8.69319 32.5019 7.23504 30.2818 6.31958C27.4646 5.03907 24.3962 4.37867 21.2915 4.38468C17.2259 4.38801 13.328 5.97637 10.4555 8.80034C7.58291 11.6243 5.97097 15.4526 5.97424 19.443C5.97817 24.2439 8.73162 29.9454 12.3015 32.6917L12.3084 41.1857C13.3225 43.3081 17.1425 44.8107 19.3734 44.6267C24.1117 44.6229 24.9456 41.8866 24.9456 41.8866L24.9428 38.4534Z" fill="#333333"/>
<path fill-rule="evenodd" clip-rule="evenodd" d="M26.0675 21.1982C26.8083 21.1982 27.5318 20.9704 28.1436 20.5444C28.7647 20.9696 29.4978 21.1924 30.2458 21.1836L32.6219 20.3017C33.2914 19.7388 33.7511 18.9584 33.9239 18.0912C34.0967 17.224 33.9722 16.3225 33.5713 15.5377C33.1703 14.7529 32.5172 14.1324 31.7212 13.78C31.5395 12.9404 31.0817 12.1894 30.4238 11.6517L28.1044 10.8238L27.8433 10.8238C27.3274 10.0561 26.5529 9.50852 25.667 9.28511L20.6943 9C19.8677 9.07004 19.0883 9.42165 18.4815 9.99824C18.1947 9.9293 17.9012 9.89356 17.6066 9.89172C16.8933 9.89321 16.1957 10.1052 15.5979 10.5022C15.0001 10.8992 14.5278 11.4641 14.2379 12.1288L12.3485 13.4938C11.8784 14.1434 11.6253 14.9299 11.6266 15.7374C11.6219 16.075 11.6659 16.4115 11.7571 16.7361C11.2614 17.3921 10.9949 18.1982 10.9998 19.0264C10.9986 19.9869 11.3584 20.9114 12.0052 21.6097C12.0574 22.2974 12.293 22.9574 12.6866 23.5183C13.0801 24.0793 13.6166 24.5198 14.2379 24.7922C14.9539 25.2499 15.5601 25.8656 16.012 26.5937C16.464 27.3219 16.7501 28.1442 16.8493 29L21.7277 29L21.7277 25.0052C21.7268 24.2959 21.9208 23.6006 22.2877 22.9981C22.6547 22.3955 23.1799 21.9099 23.8037 21.5964C24.1545 21.4595 24.2408 21.2752 24.3466 21.0494C24.4171 20.899 24.4962 20.7301 24.668 20.5444C24.8172 20.6483 24.9328 20.7404 25.0331 20.8203C25.344 21.068 25.5075 21.1982 26.0675 21.1982ZM28.9091 19.3705C29.2497 19.579 29.6425 19.7045 30.053 19.7292L32.005 19.0048C32.3615 18.6538 32.5878 18.2186 32.6774 17.7689C32.778 17.2642 32.7086 16.7339 32.465 16.2572C32.2191 15.7758 31.8012 15.3638 31.2556 15.1222L30.6379 14.8487L30.4801 14.1197C30.3877 13.6927 30.1659 13.2801 29.8209 12.9483L27.9077 12.2655L27.2097 12.2655L26.8262 11.6948C26.5222 11.2424 26.0533 10.8856 25.4843 10.7181L20.7172 10.4448C20.1731 10.5069 19.6784 10.7447 19.3031 11.1013L18.8257 11.5549L18.2159 11.4083C18.0161 11.3603 17.8109 11.335 17.6043 11.3334C17.1123 11.3353 16.6399 11.4825 16.2446 11.745C15.8489 12.0077 15.5567 12.3679 15.3838 12.7644L15.226 13.1261L13.2292 14.5688C13.011 14.9307 12.9037 15.3331 12.9043 15.7306L12.9044 15.7432L12.9042 15.7557C12.9017 15.9357 12.9251 16.1166 12.9748 16.2936L13.1902 17.0601L12.7283 17.6715C12.4232 18.0752 12.2748 18.5478 12.2776 19.0124L12.2776 19.0183L12.2776 19.0242C12.2769 19.5658 12.4786 20.1181 12.8873 20.5593L13.2369 20.9369L13.2783 21.4817C13.3082 21.8753 13.4437 22.2678 13.6873 22.6151C13.9321 22.964 14.2784 23.2551 14.6995 23.4397L14.7859 23.4776L14.8665 23.5291C14.9599 23.5888 15.0519 23.6509 15.1425 23.7151L15.1386 23.7185C16.8755 24.9176 17.6125 26.6628 17.8627 27.5552L18.2537 27.5552C18.8257 27.5552 19.3031 27.5552 19.5315 27.5552L20.4499 27.5552L20.4499 24.9772C20.4499 23.0239 21.4142 21.8251 21.9408 21.2575C22.362 20.8034 22.9948 20.4206 23.2585 20.286C23.3109 20.1533 23.4896 19.8088 23.7851 19.4925C24.0805 19.1762 24.3873 18.8467 24.5038 18.7216C25.2947 19.233 25.9089 19.7467 25.9089 19.7467C25.9089 19.7467 26.7274 19.6958 27.0993 19.5264C27.3968 19.3908 27.9154 19.0143 28.1375 18.843L28.9091 19.3705Z" fill="#333333" stroke="#333333" stroke-width="0.7"/>
<path d="M14.7815 20.4114L20.897 19.4537L16.9275 15.0578L14.7815 20.4114Z" fill="#333333"/>
<path d="M22.0857 12.4729L20.2751 15.8372L23.7028 17.6141L25.5133 14.2499L22.0857 12.4729Z" fill="#333333"/>
<path d="M33.978 23.9631C33.9787 24.7915 33.3077 25.4637 32.4793 25.4643C31.6508 25.465 30.9787 24.794 30.978 23.9656C30.9774 23.1371 31.6484 22.465 32.4768 22.4643C33.3052 22.4637 33.9774 23.1347 33.978 23.9631Z" fill="#333333"/>
<path fill-rule="evenodd" clip-rule="evenodd" d="M20.985 32.4738L16.985 32.4771L16.9834 30.4771L20.9834 30.4738L20.985 32.4738Z" fill="#333333"/>
<path fill-rule="evenodd" clip-rule="evenodd" d="M20.9882 36.4738L16.9882 36.4771L16.9866 34.4771L20.9866 34.4738L20.9882 36.4738Z" fill="#333333"/>
<path fill-rule="evenodd" clip-rule="evenodd" d="M20.9914 40.4738L16.9914 40.4771L16.9897 38.4771L20.9897 38.4738L20.9914 40.4738Z" fill="#333333"/>
</svg>
