<svg width="48" height="48" viewBox="0 0 48 48" fill="none" xmlns="http://www.w3.org/2000/svg">
<path fill-rule="evenodd" clip-rule="evenodd" d="M30.7307 29.0839C30.9633 29.1391 31.2018 29.1949 31.4448 29.2517C32.3654 29.4671 33.3494 29.6974 34.3107 29.965C35.7125 30.3552 36.9089 30.7855 37.6431 31.2676C39.2959 32.3528 40 33.4539 40 34.5V40H26.9095L30.7307 29.0839ZM24.7906 40L29.0351 27.8744L29.0616 27.8205C29.366 27.201 30.058 26.8629 30.7369 27.0285C31.0783 27.1117 31.454 27.1997 31.8508 27.2925C32.7885 27.512 33.8444 27.7591 34.8471 28.0382C36.2604 28.4317 37.7239 28.928 38.7409 29.5958C40.6135 30.8254 42 32.4531 42 34.5V42H6V34.5C6 32.4531 7.38654 30.8254 9.25912 29.5958C10.2761 28.928 11.7396 28.4317 13.1529 28.0383C14.1555 27.7591 15.2115 27.512 16.1491 27.2926C16.546 27.1997 16.9216 27.1118 17.263 27.0285C17.9419 26.8629 18.634 27.201 18.9384 27.8205L18.9592 27.8627L23.5642 40H24.7906ZM21.4251 40L17.2822 29.0808C17.0455 29.137 16.8026 29.1939 16.5551 29.2518C15.6345 29.4672 14.6506 29.6974 13.6893 29.965C12.2875 30.3552 11.0911 30.7855 10.3569 31.2676C8.70414 32.3528 8 33.4539 8 34.5V40H21.4251Z" fill="#333333"/>
<path d="M21.3106 29.2425C21.1528 28.6114 21.6302 28 22.2808 28H25.7192C26.3698 28 26.8472 28.6114 26.6894 29.2425L26.1894 31.2425C26.0781 31.6877 25.6781 32 25.2192 32H22.7808C22.3219 32 21.9219 31.6877 21.8106 31.2425L21.3106 29.2425Z" fill="#333333"/>
<path d="M22 36L23 29H25L26 36V41H22V36Z" fill="#333333"/>
<path fill-rule="evenodd" clip-rule="evenodd" d="M24 24C28.4204 24 32 20.4204 32 16C32 11.5796 28.4204 8 24 8C19.5796 8 16 11.5796 16 16C16 20.4204 19.5796 24 24 24ZM34 16C34 21.525 29.525 26 24 26C18.475 26 14 21.525 14 16C14 10.475 18.475 6 24 6C29.525 6 34 10.475 34 16Z" fill="#333333"/>
</svg>
