<svg width="48" height="48" viewBox="0 0 48 48" fill="none" xmlns="http://www.w3.org/2000/svg">
<path fill-rule="evenodd" clip-rule="evenodd" d="M18 29.0237C17.9721 28.9707 17.9436 28.9138 17.9141 28.855C17.7025 28.433 17.4413 27.9121 17 28.0126C11.5958 29.2433 6 32.7945 6 36.5698V41.9999H42V36.5698C42 32.7945 36.4042 29.2433 31 28.0126C30.4972 27.8981 29.9775 28.5901 29.7493 29.0237H25.6851C24.7906 29.0238 24.338 29.0237 23.8907 29.0237C23.4326 29.0236 22.98 29.0235 22.0639 29.0237H18ZM25.6851 31.0237C25.6852 31.0237 25.685 31.0237 25.6851 31.0237C24.7785 31.0238 24.3313 31.0237 23.8896 31.0237C23.4375 31.0236 22.9912 31.0235 22.0644 31.0237H16.7927L16.3788 30.2375C14.2693 30.845 12.2172 31.8109 10.6523 32.9527C8.72972 34.3554 8 35.6669 8 36.5698V39.9999H40V36.5698C40 35.6669 39.2703 34.3554 37.3477 32.9527C35.7289 31.7715 33.5886 30.7786 31.4029 30.1759L30.9566 31.0237H25.6851Z" fill="#333333"/>
<path fill-rule="evenodd" clip-rule="evenodd" d="M16 37.0146C16.5384 37.0146 17 36.5742 17 35.9999C17 35.4257 16.5384 34.9852 16 34.9852C15.4616 34.9852 15 35.4257 15 35.9999C15 36.5742 15.4616 37.0146 16 37.0146ZM16 38.9999C17.6569 38.9999 19 37.6568 19 35.9999C19 34.3431 17.6569 32.9999 16 32.9999C14.3431 32.9999 13 34.3431 13 35.9999C13 37.6568 14.3431 38.9999 16 38.9999Z" fill="#333333"/>
<path fill-rule="evenodd" clip-rule="evenodd" d="M30.1056 33.5527C30.275 33.2139 30.6212 32.9999 31 32.9999H35C35.3788 32.9999 35.725 33.2139 35.8944 33.5527L36.8944 35.5527C36.9639 35.6916 37 35.8447 37 35.9999V37.9999C37 38.5522 36.5523 38.9999 36 38.9999H34V36.9999H35V36.236L34.382 34.9999H31.618L31 36.236V36.9999H32V38.9999H30C29.4477 38.9999 29 38.5522 29 37.9999V35.9999C29 35.8447 29.0361 35.6916 29.1056 35.5527L30.1056 33.5527Z" fill="#333333"/>
<path fill-rule="evenodd" clip-rule="evenodd" d="M34.3194 33.4362C34.2047 33.8293 34.0398 34.2802 33.8 34.5999L32.2 33.3999C32.1987 33.4021 32.1987 33.4017 32.2 33.3999C32.205 33.3915 32.2286 33.3517 32.2645 33.2668C32.3062 33.168 32.3525 33.0369 32.3994 32.8762C32.4932 32.5545 32.5775 32.1556 32.6342 31.7398C32.691 31.3228 32.7168 30.9136 32.7038 30.5687C32.6899 30.197 32.6342 30.0044 32.6056 29.9471L34.3944 29.0527C34.6158 29.4955 34.6851 30.032 34.7024 30.4937C34.7207 30.9821 34.684 31.5104 34.6158 32.01C34.5475 32.5109 34.4443 33.0078 34.3194 33.4362Z" fill="#333333"/>
<path fill-rule="evenodd" clip-rule="evenodd" d="M14.3877 33.4362C14.5024 33.8293 14.6673 34.2802 14.9071 34.5999L16.5071 33.3999C16.5084 33.4021 16.5084 33.4017 16.5071 33.3999C16.5021 33.3915 16.4785 33.3517 16.4426 33.2668C16.4009 33.168 16.3546 33.0369 16.3077 32.8762C16.2139 32.5545 16.1296 32.1556 16.0729 31.7398C16.0161 31.3228 15.9903 30.9136 16.0033 30.5687C16.0172 30.197 16.0729 30.0044 16.1015 29.9471L14.3127 29.0527C14.0913 29.4955 14.022 30.032 14.0047 30.4937C13.9864 30.9821 14.0231 31.5104 14.0913 32.01C14.1596 32.5109 14.2628 33.0078 14.3877 33.4362Z" fill="#333333"/>
<path fill-rule="evenodd" clip-rule="evenodd" d="M16.622 9.4441C16.6302 9.40912 16.639 9.37013 16.6492 9.32518C16.664 9.25994 16.6816 9.18217 16.7042 9.08596C16.809 8.63989 16.9815 7.98431 17.3364 7.33819C17.698 6.68004 18.2591 6.01298 19.1388 5.5742C20.0155 5.13692 21.115 4.97307 22.4739 5.15425C23.9737 5.35421 26.9871 5.85032 29.6486 7.20423C32.3262 8.56634 34.8337 10.9086 34.8336 14.8107C34.8336 16.8266 34.0531 18.9896 33.2985 20.3998C32.9353 21.0784 32.5036 21.726 32.0722 22.0754C31.9571 22.1687 31.7857 22.2879 31.5671 22.3581C31.3343 22.4328 30.9739 22.4702 30.6181 22.2628C30.2836 22.0677 30.1396 21.7629 30.078 21.5673C30.0149 21.3669 30 21.1661 30 20.9999C30 19.3438 29.7703 18.1883 29.5558 17.4693C29.5082 17.3096 29.4612 17.1711 29.4174 17.053C29.3908 17.054 29.3636 17.055 29.3358 17.0558C28.8039 17.0712 28.0489 17.044 27.1042 16.8845C25.3874 16.5946 23.0619 15.8706 20.3244 14.1938C20.2645 14.328 20.2044 14.4787 20.1449 14.6468C19.9483 15.2022 19.7872 15.861 19.6478 16.5564C19.5248 17.1696 19.4235 17.7861 19.3283 18.3653C19.3157 18.4419 19.3032 18.5177 19.2908 18.5929C19.1884 19.2135 19.0852 19.8215 18.9648 20.263C18.6858 21.2861 18.3969 21.9127 18.1163 22.3062C17.9726 22.5077 17.8183 22.6663 17.6507 22.7822C17.5663 22.8405 17.4794 22.8873 17.3911 22.9225C17.3471 22.94 17.3035 22.9543 17.2605 22.9657C17.2391 22.9713 17.2179 22.9762 17.1971 22.9804C17.1867 22.9824 17.1763 22.9843 17.1661 22.9861L17.1509 22.9885L17.1433 22.9896L17.1396 22.9902C17.1377 22.9904 17.1358 22.9907 17 21.9999L17.1358 22.9907L16.5829 23.0665L16.2281 22.6357L17 21.9999C16.2281 22.6357 16.2284 22.6361 16.2281 22.6357L16.2268 22.6341L16.2249 22.6318L16.2196 22.6253L16.2029 22.6046C16.1893 22.5875 16.1705 22.5638 16.1471 22.5336C16.1003 22.4733 16.0352 22.3874 15.956 22.2779C15.7979 22.0593 15.5828 21.7455 15.3465 21.3541C14.8766 20.5758 14.3087 19.4678 13.9466 18.1751C13.5843 16.8818 13.4178 15.366 13.7981 13.8024C14.1684 12.2799 15.0408 10.7813 16.622 9.4441ZM16.9294 20.1013C16.5517 19.4454 16.1403 18.5915 15.8725 17.6356C15.574 16.5701 15.4641 15.4154 15.7415 14.275C16.0114 13.1651 16.6648 11.9976 18.0083 10.8921C18.2499 10.7283 18.3602 10.508 18.3899 10.4487L18.3904 10.4476C18.4539 10.3208 18.4927 10.1927 18.5157 10.1109C18.5478 9.99654 18.5829 9.84181 18.6151 9.70033C18.6277 9.64495 18.6398 9.59161 18.6511 9.54351C18.7458 9.14088 18.8693 8.7017 19.0893 8.30119C19.3028 7.91271 19.5957 7.58129 20.0315 7.36392C20.4702 7.14506 21.1477 6.99513 22.2096 7.13671C23.663 7.33048 26.3957 7.79338 28.7418 8.98684C31.0718 10.1721 32.8337 11.9656 32.8336 14.8107C32.8336 16.1212 32.3931 17.6103 31.8637 18.7863C31.7638 18.0202 31.6203 17.3937 31.4723 16.8976C31.3368 16.4431 31.198 16.1 31.0868 15.8608C31.0313 15.7413 30.9827 15.6479 30.945 15.5797C30.9262 15.5456 30.9101 15.5179 30.8972 15.4963L30.8803 15.4686L30.8738 15.4583L30.8711 15.4539L30.8698 15.452L30.8692 15.4511C30.869 15.4506 30.8687 15.4502 30.0281 15.9919L30.8687 15.4502L30.4991 14.8768L29.8369 15.0103L29.823 15.0127C29.8055 15.0155 29.7731 15.0203 29.7264 15.0258C29.633 15.0369 29.4822 15.0507 29.2778 15.0566C28.8692 15.0685 28.2455 15.0489 27.4372 14.9124C25.8246 14.6401 23.4549 13.8986 20.5761 11.9813L19.8764 11.5153L19.2971 12.1246C18.8198 12.6266 18.4957 13.3122 18.2595 13.9795C18.0172 14.6642 17.8342 15.4282 17.6868 16.1632C17.5565 16.8133 17.4492 17.4661 17.3545 18.0421C17.342 18.1186 17.3296 18.1936 17.3175 18.2671C17.2101 18.918 17.123 19.4149 17.0352 19.7368C16.9991 19.8694 16.9637 19.9906 16.9294 20.1013ZM32.0012 21.0335C32.0012 21.0335 32.0011 21.0328 32.0009 21.0313L32.0012 21.0335ZM30.8141 20.5207C30.8087 20.5246 30.8083 20.5254 30.8133 20.5213C30.8136 20.5211 30.8138 20.5209 30.8141 20.5207Z" fill="#333333"/>
<path fill-rule="evenodd" clip-rule="evenodd" d="M18.0908 21.0456L17 22.5L16.5582 22.9417C17.7304 25.9043 20.6205 27.9999 24 27.9999C27.7932 27.9999 30.9699 25.3599 31.7927 21.817L31 21.5L29.8935 21.1311C29.3645 23.904 26.927 25.9999 24 25.9999C21.043 25.9999 18.5856 23.8608 18.0908 21.0456Z" fill="#333333"/>
</svg>
