<svg width="48" height="48" viewBox="0 0 48 48" fill="none" xmlns="http://www.w3.org/2000/svg">
<path fill-rule="evenodd" clip-rule="evenodd" d="M18 29.0237C17.9721 28.9707 17.9436 28.9139 17.9141 28.8551C17.7025 28.433 17.4413 27.9121 17 28.0126C11.5958 29.2434 6 32.7946 6 36.5699V42H42V36.5699C42 32.7946 36.4042 29.2434 31 28.0126C30.4972 27.8981 29.9775 28.5902 29.7493 29.0237H25.6851C24.7906 29.0239 24.338 29.0238 23.8907 29.0237C23.4326 29.0236 22.98 29.0235 22.0639 29.0237H18ZM25.6851 31.0237C25.6852 31.0237 25.685 31.0237 25.6851 31.0237C24.7785 31.0239 24.3313 31.0238 23.8896 31.0237C23.4375 31.0236 22.9912 31.0235 22.0644 31.0237H16.7927L16.3788 30.2375C14.2693 30.8451 12.2172 31.811 10.6523 32.9527C8.72972 34.3554 8 35.6669 8 36.5699V40H40V36.5699C40 35.6669 39.2703 34.3554 37.3477 32.9527C35.7289 31.7716 33.5886 30.7787 31.4029 30.176L30.9566 31.0237H25.6851Z" fill="#333333"/>
<path fill-rule="evenodd" clip-rule="evenodd" d="M16 37.0147C16.5384 37.0147 17 36.5742 17 36C17 35.4258 16.5384 34.9853 16 34.9853C15.4616 34.9853 15 35.4258 15 36C15 36.5742 15.4616 37.0147 16 37.0147ZM16 39C17.6569 39 19 37.6569 19 36C19 34.3431 17.6569 33 16 33C14.3431 33 13 34.3431 13 36C13 37.6569 14.3431 39 16 39Z" fill="#333333"/>
<path fill-rule="evenodd" clip-rule="evenodd" d="M30.1056 33.5528C30.275 33.214 30.6212 33 31 33H35C35.3788 33 35.725 33.214 35.8944 33.5528L36.8944 35.5528C36.9639 35.6916 37 35.8448 37 36V38C37 38.5523 36.5523 39 36 39H34V37H35V36.2361L34.382 35H31.618L31 36.2361V37H32V39H30C29.4477 39 29 38.5523 29 38V36C29 35.8448 29.0361 35.6916 29.1056 35.5528L30.1056 33.5528Z" fill="#333333"/>
<path fill-rule="evenodd" clip-rule="evenodd" d="M34.3194 33.4362C34.2047 33.8293 34.0398 34.2802 33.8 34.6L32.2 33.4C32.1987 33.4022 32.1987 33.4017 32.2 33.4C32.205 33.3916 32.2286 33.3518 32.2645 33.2669C32.3062 33.1681 32.3525 33.037 32.3994 32.8762C32.4932 32.5546 32.5775 32.1557 32.6342 31.7399C32.691 31.3228 32.7168 30.9137 32.7038 30.5687C32.6899 30.1971 32.6342 30.0045 32.6056 29.9472L34.3944 29.0528C34.6158 29.4955 34.6851 30.0321 34.7024 30.4938C34.7207 30.9822 34.684 31.5105 34.6158 32.0101C34.5475 32.5109 34.4443 33.0079 34.3194 33.4362Z" fill="#333333"/>
<path fill-rule="evenodd" clip-rule="evenodd" d="M14.3877 33.4362C14.5024 33.8293 14.6673 34.2802 14.9071 34.6L16.5071 33.4C16.5084 33.4022 16.5084 33.4017 16.5071 33.4C16.5021 33.3916 16.4785 33.3518 16.4426 33.2669C16.4009 33.1681 16.3546 33.037 16.3077 32.8762C16.2139 32.5546 16.1296 32.1557 16.0729 31.7399C16.0161 31.3228 15.9903 30.9137 16.0033 30.5687C16.0172 30.1971 16.0729 30.0045 16.1015 29.9472L14.3127 29.0528C14.0913 29.4955 14.022 30.0321 14.0047 30.4938C13.9864 30.9822 14.0231 31.5105 14.0913 32.0101C14.1596 32.5109 14.2628 33.0079 14.3877 33.4362Z" fill="#333333"/>
<path fill-rule="evenodd" clip-rule="evenodd" d="M18.2373 9.51173C18.2222 9.53706 18.206 9.56171 18.1887 9.58562L18.187 9.58803L18.1792 9.59886L18.146 9.64571C18.1162 9.68791 18.0715 9.75169 18.0142 9.83519C17.8994 10.0022 17.7338 10.2478 17.5345 10.557C17.1352 11.1764 16.6033 12.0461 16.0726 13.0474C14.987 15.0955 14 17.5235 14 19.4633C14 20.3619 14.2502 20.9849 14.5844 21.4355C14.9279 21.8985 15.4026 22.2352 15.9229 22.478C16.17 22.5933 16.42 22.6839 16.6584 22.7549C16.501 22.0348 16.3304 21.1174 16.2294 20.1553C16.1165 19.0809 16.0834 17.8899 16.2854 16.8375C16.4836 15.8047 16.9525 14.6958 18.027 14.1189C19.4559 13.3519 21.8739 12.3263 24.0059 11.6187C25.0692 11.2658 26.1057 10.977 26.9348 10.8455C27.3424 10.7809 27.7595 10.7441 28.1276 10.7819C28.4165 10.8116 29.0127 10.9208 29.3433 11.4612C32.0238 15.3307 32.0629 18.8757 31.384 21.4655C31.1879 22.2135 30.9336 22.8767 30.6716 23.4414C30.8931 23.3572 31.1192 23.2615 31.3442 23.153C32.794 22.4537 34 21.3391 34 19.4633C34 17.2411 33.1899 14.7768 32.3321 12.8092C31.9086 11.8378 31.4846 11.0124 31.1671 10.4309C31.0085 10.1405 30.8771 9.91193 30.7862 9.7575C30.7466 9.69021 30.7147 9.63706 30.6917 9.59906C30.6819 9.58843 30.6703 9.57613 30.657 9.56227C30.5947 9.49704 30.4951 9.39756 30.3588 9.27504C30.0857 9.02966 29.6677 8.69426 29.1071 8.35659C27.9895 7.68332 26.3051 7 24.0547 7C21.8108 7 20.3425 7.67878 19.4494 8.31464C18.9976 8.63628 18.6837 8.95378 18.4879 9.18215C18.3901 9.29623 18.3222 9.38753 18.2818 9.44512C18.2617 9.47388 18.2484 9.49412 18.2418 9.50445L18.2373 9.51173ZM31.4975 9C32.3455 8.47004 32.3456 8.47022 32.3458 8.47043L32.347 8.47236L32.3497 8.47673L32.3589 8.49155L32.3915 8.545C32.4195 8.59101 32.4595 8.65757 32.5098 8.74312C32.6105 8.91417 32.7527 9.16141 32.9225 9.47237C33.2616 10.0936 33.7133 10.9729 34.1654 12.01C35.0589 14.0593 36 16.8267 36 19.4633C36 22.4462 33.9846 24.1 32.213 24.9544C31.3207 25.3847 30.4397 25.6422 29.7889 25.7925C29.4614 25.8681 29.1868 25.9178 28.9912 25.949C28.8932 25.9645 28.8147 25.9755 28.7588 25.9828C28.7309 25.9865 28.7086 25.9892 28.6923 25.9911L28.6724 25.9934L28.666 25.9941L28.6636 25.9943C28.6632 25.9944 28.6619 25.9945 28.5572 25L28.6619 25.9945C28.2539 26.0374 27.8612 25.8269 27.6711 25.4634C27.4815 25.1009 27.5319 24.6596 27.798 24.3492C27.7984 24.3487 27.7987 24.3483 27.7991 24.3479C27.7989 24.3481 27.7992 24.3478 27.7991 24.3479L27.8026 24.3436C27.8079 24.3372 27.8176 24.3255 27.8312 24.3086C27.8583 24.2747 27.9009 24.2201 27.9554 24.1459C28.0646 23.9973 28.2209 23.771 28.3963 23.4754C28.7482 22.8824 29.1706 22.0217 29.4494 20.9583C29.9879 18.904 30.0106 16.0351 27.8129 12.7666C27.687 12.7664 27.5013 12.7807 27.248 12.8208C26.5784 12.927 25.6621 13.1763 24.6359 13.5169C22.5888 14.1963 20.2804 15.1792 18.973 15.8811C18.6794 16.0387 18.4016 16.422 18.2496 17.2144C18.1013 17.9872 18.1142 18.9544 18.2184 19.9464C18.3214 20.9265 18.5066 21.8719 18.6681 22.5771C18.7485 22.9283 18.8222 23.2164 18.8753 23.4153C18.9019 23.5147 18.9233 23.5916 18.9378 23.6428L18.9541 23.6997L18.9579 23.7128L18.9586 23.7153C19.0497 24.0222 18.9884 24.3544 18.7936 24.6084C18.5988 24.8625 18.2941 25.008 17.974 24.9997L18 24C17.974 24.9997 17.9745 24.9997 17.974 24.9997L17.9696 24.9995L17.9634 24.9993L17.9455 24.9987C17.9311 24.9981 17.9121 24.9972 17.8886 24.9959C17.8416 24.9933 17.7767 24.989 17.6966 24.9819C17.5365 24.9676 17.3136 24.9421 17.0484 24.8962C16.5228 24.8054 15.8063 24.6306 15.0771 24.2904C14.3474 23.9498 13.5721 23.4278 12.9781 22.627C12.3748 21.8138 12 20.768 12 19.4633C12 16.9963 13.202 14.1926 14.3055 12.1108C14.8693 11.0471 15.4319 10.1273 15.8536 9.47333C16.0647 9.14588 16.2412 8.88389 16.3658 8.70251C16.4282 8.61179 16.4776 8.54115 16.5119 8.49248L16.5442 8.44695C16.5479 8.44111 16.5519 8.43485 16.5561 8.42817C16.5776 8.39455 16.6068 8.35034 16.6441 8.29707C16.7188 8.19059 16.8262 8.04752 16.9695 7.88035C17.256 7.54622 17.6877 7.11372 18.2894 6.68536C19.5032 5.82122 21.3733 5 24.0547 5C26.7298 5 28.7667 5.81668 30.1391 6.64341C30.8236 7.05574 31.3427 7.47034 31.6956 7.78746C31.8723 7.94619 32.0079 8.08108 32.1024 8.17991C32.1497 8.22935 32.1868 8.26985 32.2136 8.29988C32.227 8.31489 32.2379 8.3273 32.2462 8.33692L32.2568 8.34922L32.2606 8.35376L32.2622 8.35561L32.2629 8.35644C32.2632 8.35682 32.2635 8.3572 31.4975 9ZM27.9798 12.7809C27.979 12.7814 27.9697 12.78 27.9541 12.7753C27.9728 12.7781 27.9806 12.7805 27.9798 12.7809ZM31.4975 9L32.2629 8.35644C32.2928 8.3921 32.3211 8.43095 32.3458 8.47043L31.4975 9Z" fill="#333333"/>
<path fill-rule="evenodd" clip-rule="evenodd" d="M18.4771 22.3486L16.791 23.4727C18.0839 26.1516 20.8261 27.9999 24 27.9999C26.7496 27.9999 29.1753 26.6127 30.6153 24.5H28.5L28.4417 24.0337C27.3441 25.2416 25.7606 25.9999 24 25.9999C21.5198 25.9999 19.3911 24.4951 18.4771 22.3486Z" fill="#333333"/>
</svg>
