<svg width="48" height="48" viewBox="0 0 48 48" fill="none" xmlns="http://www.w3.org/2000/svg">
<path fill-rule="evenodd" clip-rule="evenodd" d="M18 29.0237C17.9721 28.9707 17.9436 28.9139 17.9141 28.8551C17.7025 28.433 17.4413 27.9121 17 28.0126C11.5958 29.2434 6 32.7946 6 36.5699V42H42V36.5699C42 32.7946 36.4042 29.2434 31 28.0126C30.4972 27.8981 29.9775 28.5902 29.7493 29.0237H25.6851C24.7906 29.0239 24.338 29.0238 23.8907 29.0237C23.4326 29.0236 22.98 29.0235 22.0639 29.0237H18ZM25.6851 31.0237C25.6852 31.0237 25.685 31.0237 25.6851 31.0237C24.7785 31.0239 24.3313 31.0238 23.8896 31.0237C23.4375 31.0236 22.9912 31.0235 22.0644 31.0237H16.7927L16.3788 30.2375C14.2693 30.8451 12.2172 31.811 10.6523 32.9527C8.72972 34.3554 8 35.6669 8 36.5699V40H40V36.5699C40 35.6669 39.2703 34.3554 37.3477 32.9527C35.7289 31.7716 33.5886 30.7787 31.4029 30.176L30.9566 31.0237H25.6851Z" fill="#333333"/>
<path fill-rule="evenodd" clip-rule="evenodd" d="M16 37.0147C16.5384 37.0147 17 36.5742 17 36C17 35.4258 16.5384 34.9853 16 34.9853C15.4616 34.9853 15 35.4258 15 36C15 36.5742 15.4616 37.0147 16 37.0147ZM16 39C17.6569 39 19 37.6569 19 36C19 34.3431 17.6569 33 16 33C14.3431 33 13 34.3431 13 36C13 37.6569 14.3431 39 16 39Z" fill="#333333"/>
<path fill-rule="evenodd" clip-rule="evenodd" d="M30.1056 33.5528C30.275 33.214 30.6212 33 31 33H35C35.3788 33 35.725 33.214 35.8944 33.5528L36.8944 35.5528C36.9639 35.6916 37 35.8448 37 36V38C37 38.5523 36.5523 39 36 39H34V37H35V36.2361L34.382 35H31.618L31 36.2361V37H32V39H30C29.4477 39 29 38.5523 29 38V36C29 35.8448 29.0361 35.6916 29.1056 35.5528L30.1056 33.5528Z" fill="#333333"/>
<path fill-rule="evenodd" clip-rule="evenodd" d="M34.3194 33.4362C34.2047 33.8293 34.0398 34.2802 33.8 34.6L32.2 33.4C32.1987 33.4022 32.1987 33.4017 32.2 33.4C32.205 33.3916 32.2286 33.3518 32.2645 33.2669C32.3062 33.1681 32.3525 33.037 32.3994 32.8762C32.4932 32.5546 32.5775 32.1557 32.6342 31.7399C32.691 31.3228 32.7168 30.9137 32.7038 30.5687C32.6899 30.1971 32.6342 30.0045 32.6056 29.9472L34.3944 29.0528C34.6158 29.4955 34.6851 30.0321 34.7024 30.4938C34.7207 30.9822 34.684 31.5105 34.6158 32.0101C34.5475 32.5109 34.4443 33.0079 34.3194 33.4362Z" fill="#333333"/>
<path fill-rule="evenodd" clip-rule="evenodd" d="M14.3877 33.4362C14.5024 33.8293 14.6673 34.2802 14.9071 34.6L16.5071 33.4C16.5084 33.4022 16.5084 33.4017 16.5071 33.4C16.5021 33.3916 16.4785 33.3518 16.4426 33.2669C16.4009 33.1681 16.3546 33.037 16.3077 32.8762C16.2139 32.5546 16.1296 32.1557 16.0729 31.7399C16.0161 31.3228 15.9903 30.9137 16.0033 30.5687C16.0172 30.1971 16.0729 30.0045 16.1015 29.9472L14.3127 29.0528C14.0913 29.4955 14.022 30.0321 14.0047 30.4938C13.9864 30.9822 14.0231 31.5105 14.0913 32.0101C14.1596 32.5109 14.2628 33.0079 14.3877 33.4362Z" fill="#333333"/>
<path fill-rule="evenodd" clip-rule="evenodd" d="M24 24C28.4183 24 32 20.4183 32 16C32 11.5817 28.4183 8 24 8C19.5817 8 16 11.5817 16 16C16 20.4183 19.5817 24 24 24ZM24 26C29.5228 26 34 21.5228 34 16C34 10.4772 29.5228 6 24 6C18.4772 6 14 10.4772 14 16C14 21.5228 18.4772 26 24 26Z" fill="#333333"/>
</svg>
