<svg width="48" height="48" viewBox="0 0 48 48" fill="none" xmlns="http://www.w3.org/2000/svg">
<path fill-rule="evenodd" clip-rule="evenodd" d="M31.4524 34.5529L32.0359 39.5497L39.3738 37.8556L37.7077 33.1087L31.4524 34.5529ZM39.002 30.7573L29.2583 33.0068L30.3085 42.0011L42.001 39.3017L39.002 30.7573Z" fill="#333333"/>
<path fill-rule="evenodd" clip-rule="evenodd" d="M34.6547 29.7084L32.7059 30.1583C31.6297 30.4068 30.9586 31.4807 31.2071 32.5569L37.0533 31.2072C36.8048 30.131 35.7309 29.4599 34.6547 29.7084ZM32.256 28.2095C30.1035 28.7065 28.7614 30.8543 29.2583 33.0068L29.7082 34.9556L39.4519 32.7061L39.002 30.7573C38.5051 28.6048 36.3573 27.2627 34.2048 27.7596L32.256 28.2095Z" fill="#333333"/>
<path fill-rule="evenodd" clip-rule="evenodd" d="M34.0556 36.0045L34.9554 39.902L33.0067 40.3519L32.1069 36.4544L34.0556 36.0045Z" fill="#333333"/>
<path fill-rule="evenodd" clip-rule="evenodd" d="M33.4553 28.959C32.9172 29.0832 32.3803 28.7477 32.256 28.2095L28.4318 11.6452C28.3076 11.1071 28.6431 10.5702 29.1813 10.4459C29.7194 10.3217 30.2564 10.6572 30.3806 11.1953L34.2048 27.7596C34.329 28.2978 33.9935 28.8347 33.4553 28.959Z" fill="#333333"/>
<path fill-rule="evenodd" clip-rule="evenodd" d="M12 26.4371L10.8369 25.9013C9.6932 25.3744 8 23.8541 8 21.5714C8 20.1769 8.60532 19.3326 9.30787 18.7824C9.67929 18.4915 10.0818 18.2843 10.4344 18.1529C10.7375 18.04 10.9284 18.0101 10.9772 18.0025C10.9907 18.0004 10.9933 18 10.9845 18H28C28.5523 18 29 18.4477 29 19C29 19.5523 28.5523 20 28 20H21V39C21 39.5523 20.5523 40 20 40C19.4477 40 19 39.5523 19 39L19 29H14L14 39C14 39.5523 13.5523 40 13 40C12.4477 40 12 39.5523 12 39V26.4371ZM23 22H28C29.6569 22 31 20.6569 31 19C31 17.3431 29.6569 16 28 16H10.9845C9.87118 16 6 17.3636 6 21.5714C6 24.91 8.43707 26.9978 10 27.7178V39C10 40.6569 11.3431 42 13 42C13.9556 42 14.8069 41.5532 15.3562 40.8571C15.7594 40.3463 16 39.7012 16 39L16 31H17L17 39C17 39.7012 17.2406 40.3463 17.6438 40.8571C18.1931 41.5532 19.0444 42 20 42C21.6569 42 23 40.6569 23 39V22Z" fill="#333333"/>
<path d="M12 20C10.8954 20 10 20.8954 10 22C10 23.1046 10.8954 24 12 24V20Z" fill="#333333"/>
<path fill-rule="evenodd" clip-rule="evenodd" d="M16.5 12C15.3954 12 14.5 11.1046 14.5 10C14.5 8.89543 15.3954 8 16.5 8C17.6046 8 18.5 8.89543 18.5 10C18.5 11.1046 17.6046 12 16.5 12ZM16.5 14C14.2909 14 12.5 12.2091 12.5 10C12.5 7.79086 14.2909 6 16.5 6C18.7091 6 20.5 7.79086 20.5 10C20.5 12.2091 18.7091 14 16.5 14Z" fill="#333333"/>
<path d="M14 18H16V26H14V18Z" fill="#333333"/>
<path d="M18 18H20V26H18V18Z" fill="#333333"/>
<path d="M14 21H20V27H14V21Z" fill="#333333"/>
</svg>
