<svg width="48" height="48" viewBox="0 0 48 48" fill="none" xmlns="http://www.w3.org/2000/svg">
<path fill-rule="evenodd" clip-rule="evenodd" d="M24.0001 5.94287L28.6217 7.52742C30.6426 8.22032 32 10.1207 32 12.2572L32 19L30 19L30 12.2572C30 10.9753 29.1856 9.83505 27.973 9.41931L24.0001 8.05716L20.0271 9.41933C18.8145 9.83506 18 10.9753 18 12.2572L18 19L16 19L16 12.2571C16.0001 10.1207 17.3575 8.22033 19.3784 7.52744L24.0001 5.94287Z" fill="#333333"/>
<path fill-rule="evenodd" clip-rule="evenodd" d="M24 25C27.4373 25 30 22.4179 30 19.5C30 16.5821 27.4373 14 24 14C20.5627 14 18 16.5821 18 19.5C18 22.4179 20.5627 25 24 25ZM24 27C28.4183 27 32 23.6421 32 19.5C32 15.3579 28.4183 12 24 12C19.5817 12 16 15.3579 16 19.5C16 23.6421 19.5817 27 24 27Z" fill="#333333"/>
<path fill-rule="evenodd" clip-rule="evenodd" d="M24.8085 32.9545C24.5453 32.9844 24.2753 33 24 33C21.6484 33 19.6759 31.8636 19.1423 30.3325C19.0493 30.0657 19 29.7869 19 29.5C19 29.4773 19.0003 29.4547 19.0009 29.4321C18.8621 29.4539 18.7227 29.4766 18.5829 29.5C18.5109 29.5121 18.4388 29.5244 18.3666 29.5369C17.8931 29.7923 17.4706 30.1301 17.1184 30.531C16.4222 31.3234 16 32.3624 16 33.5C16 35.9853 18.0147 38 20.5 38C22.4709 38 24.1458 36.733 24.7547 34.9691C24.9137 34.5087 25 34.0144 25 33.5C25 33.3086 24.9881 33.12 24.9649 32.9349C24.913 32.942 24.8609 32.9485 24.8085 32.9545ZM22.5789 34.889C22.1305 35.559 21.3667 36 20.5 36C19.1193 36 18 34.8807 18 33.5C18 33.1751 18.0619 32.8644 18.1749 32.5791C18.5127 32.9766 18.903 33.3231 19.3175 33.6134C20.2432 34.2613 21.3685 34.6973 22.5789 34.889Z" fill="#333333"/>
<path fill-rule="evenodd" clip-rule="evenodd" d="M28.6825 33.6134C27.4025 34.5093 25.7407 35 24 35C22.2593 35 20.5975 34.5093 19.3175 33.6134C18.6275 33.1303 18.0049 32.4911 17.5792 31.7208C15.2545 32.1966 12.954 32.8978 11.1531 33.8024C8.74257 35.0131 8 36.1698 8 37V40H40V37C40 36.1698 39.2574 35.0131 36.8469 33.8024C35.046 32.8978 32.7455 32.1966 30.4208 31.7208C29.9951 32.4911 29.3725 33.1303 28.6825 33.6134ZM28.8577 30.3325C28.3241 31.8636 26.3516 33 24 33C21.6484 33 19.6759 31.8636 19.1423 30.3325C19.0493 30.0657 19 29.7869 19 29.5C19 29.4773 19.0003 29.4547 19.0009 29.4321C18.8621 29.4539 18.7227 29.4766 18.5829 29.5C18.063 29.5873 17.5368 29.686 17.0095 29.7963C11.5632 30.9359 6 33.3108 6 37V42H42V37C42 33.3108 36.4368 30.9359 30.9905 29.7963C30.4632 29.686 29.937 29.5873 29.4171 29.5C29.2773 29.4766 29.1379 29.4539 28.9991 29.4321C28.9997 29.4547 29 29.4773 29 29.5C29 29.7869 28.9507 30.0657 28.8577 30.3325Z" fill="#333333"/>
<path fill-rule="evenodd" clip-rule="evenodd" d="M27.5 36C28.8807 36 30 34.8807 30 33.5C30 33.1751 29.9381 32.8644 29.8251 32.5791C29.4873 32.9766 29.097 33.3231 28.6825 33.6134C27.7568 34.2613 26.6315 34.6973 25.4211 34.889C25.8695 35.559 26.6333 36 27.5 36ZM23.2453 34.9691C23.0863 34.5087 23 34.0144 23 33.5C23 33.3086 23.0119 33.12 23.0351 32.9349C23.087 32.942 23.1391 32.9485 23.1915 32.9545C23.4546 32.9845 23.7247 33 24 33C26.3516 33 28.3241 31.8636 28.8577 30.3325C28.9507 30.0657 29 29.7869 29 29.5C29 29.4773 28.9997 29.4547 28.9991 29.4321C29.1379 29.4539 29.2773 29.4766 29.4171 29.5C29.4891 29.5121 29.5612 29.5244 29.6334 29.5369C30.1069 29.7923 30.5294 30.1301 30.8816 30.531C31.5778 31.3234 32 32.3624 32 33.5C32 35.9853 29.9853 38 27.5 38C25.5291 38 23.8542 36.733 23.2453 34.9691Z" fill="#333333"/>
<path fill-rule="evenodd" clip-rule="evenodd" d="M14 42V36H12V42H14Z" fill="#333333"/>
<path fill-rule="evenodd" clip-rule="evenodd" d="M36 42V36H34V42H36Z" fill="#333333"/>
</svg>
