<svg width="48" height="48" viewBox="0 0 48 48" fill="none" xmlns="http://www.w3.org/2000/svg">
<path fill-rule="evenodd" clip-rule="evenodd" d="M21.0001 33.9287V38.0001C21.0001 38.5419 20.5685 38.9852 20.0269 38.9997C19.4852 39.0142 19.0305 38.5947 19.0015 38.0536L18.5133 28.9465L18.4626 28.0001H17.5147H17.4854H16.5376L16.4868 28.9465L15.9986 38.0536C15.9696 38.5947 15.5149 39.0142 14.9733 38.9997C14.4316 38.9852 14 38.5419 14 38.0001V22.2348L12.0336 21.9778C11.884 22.5406 11.7322 23.2585 11.5621 24.1813C11.462 24.7244 10.9405 25.0836 10.3974 24.9835C9.85427 24.8834 9.49512 24.3619 9.59522 23.8188C9.8266 22.5633 10.0437 21.5693 10.2969 20.7977C10.5485 20.0309 10.8666 19.3828 11.3613 18.9055C11.8803 18.4046 12.4917 18.1878 13.1314 18.0897C13.7051 18.0018 14.3852 17.9998 15.1092 18H15.1093L15.207 18.0001H15.2072H16.0001H16.0002H16.0002H16.0003H16.0004H16.0007H16.0022H16.0086H16.0346H16.1447H16.6314H17.8707L20.9063 20.199L20.9063 20.1989L17.8708 18.0001H18.1885H18.8143H18.9501H18.9558H18.9893H18.9974H18.9994H18.9997H18.9999H19H19.0001C19.0124 18.0001 19.0246 18.0003 19.0367 18.0007L19.0439 18.001L19.0511 18.0011C20.0449 18.0219 20.9379 18.3652 21.6827 18.9284L22.7361 17.2048C21.7303 16.4835 20.5098 16.0325 19.0997 16.0017C19.0666 16.0006 19.0334 16.0001 19.0001 16.0001H19H18.9999H18.9997H18.9994H18.9974H18.9893H18.9558H18.9501H18.8143H18.1885H16.6314H16.1447H16.0346H16.0086H16.0022H16.0007H16.0004H16.0003H16.0002H16.0002H16.0001H15.2074H15.2072L15.1098 16L15.1097 16L15.0719 16C14.3923 15.9998 13.568 15.9995 12.8285 16.1128C11.9324 16.2501 10.8836 16.587 9.97245 17.4663C9.13682 18.2727 8.69042 19.2786 8.39657 20.1742C8.09861 21.0823 7.86192 22.1889 7.62834 23.4563C7.32804 25.0857 8.40549 26.6501 10.0349 26.9504L10.2162 25.9669L10.0349 26.9504C10.7334 27.0791 11.4199 26.9547 12 26.6421V38.0001C12 39.6256 13.2947 40.9555 14.9197 40.999C15.9896 41.0276 16.9464 40.4918 17.5001 39.6591C18.0537 40.4918 19.0105 41.0276 20.0804 40.999C21.7054 40.9555 23.0001 39.6256 23.0001 38.0001V36.7858L21.0001 33.9287ZM15.1097 16L17.8708 18.0001H17.8707L15.1097 16Z" fill="#333333"/>
<path fill-rule="evenodd" clip-rule="evenodd" d="M6 29.5C6 28.1193 7.11929 27 8.5 27C9.88071 27 11 28.1193 11 29.5V39C11 39.5523 10.5523 40 10 40C9.44772 40 9 39.5523 9 39V29.5C9 29.2239 8.77614 29 8.5 29C8.22386 29 8 29.2239 8 29.5V30.3034C8 30.8557 7.55228 31.3034 7 31.3034C6.44772 31.3034 6 30.8557 6 30.3034V29.5Z" fill="#333333"/>
<path fill-rule="evenodd" clip-rule="evenodd" d="M17 13C18.1046 13 19 12.1046 19 11C19 9.89543 18.1046 9 17 9C15.8954 9 15 9.89543 15 11C15 12.1046 15.8954 13 17 13ZM17 15C19.2091 15 21 13.2091 21 11C21 8.79086 19.2091 7 17 7C14.7909 7 13 8.79086 13 11C13 13.2091 14.7909 15 17 15Z" fill="#333333"/>
<path fill-rule="evenodd" clip-rule="evenodd" d="M14 23V28H12V23H14Z" fill="#333333"/>
<path fill-rule="evenodd" clip-rule="evenodd" d="M37 29.5C37 28.1193 38.1193 27 39.5 27C40.8807 27 42 28.1193 42 29.5V39C42 39.5523 41.5523 40 41 40C40.4477 40 40 39.5523 40 39V29.5C40 29.2239 39.7761 29 39.5 29C39.2239 29 39 29.2239 39 29.5V30.3034C39 30.8557 38.5523 31.3034 38 31.3034C37.4477 31.3034 37 30.8557 37 30.3034V29.5Z" fill="#333333"/>
<path fill-rule="evenodd" clip-rule="evenodd" d="M29.9999 12.6779C31.1044 12.6779 31.9999 11.8306 31.9999 10.7853C31.9999 9.74001 31.1044 8.89264 29.9999 8.89264C28.8953 8.89264 27.9999 9.74001 27.9999 10.7853C27.9999 11.8306 28.8953 12.6779 29.9999 12.6779ZM29.9999 14.5706C32.209 14.5706 33.9999 12.8758 33.9999 10.7853C33.9999 8.69473 32.209 7 29.9999 7C27.7907 7 25.9999 8.69473 25.9999 10.7853C25.9999 12.8758 27.7907 14.5706 29.9999 14.5706Z" fill="#333333"/>
<path fill-rule="evenodd" clip-rule="evenodd" d="M31.4786 16.4632C31.9089 16.4633 32.6595 16.5083 33.4461 16.8831C34.7769 17.5172 35.5364 18.5555 35.9875 19.4728C36.4189 20.3501 36.2208 19.9153 36.4054 20.7237C36.5807 21.4911 36.5849 21.5106 36.6846 21.9957C36.78 22.4595 36.9667 23.3672 37.4944 25.854C37.8205 27.3913 36.7681 28.8877 35.1437 29.1964C34.8835 29.2458 34.6245 29.2617 34.3716 29.2473L35.3576 33.5875C35.5069 34.4002 35.0737 35.2874 34.1476 35.6C33.2402 35.9062 31.5954 36.336 29.4999 36.336C27.4043 36.336 25.7595 35.9062 24.8521 35.6C23.926 35.2874 23.4928 34.4001 23.6421 33.5875L24.1813 30.6537C23.9286 30.668 23.6697 30.6521 23.4097 30.6027C21.7853 30.294 20.7329 28.7976 21.059 27.2604C21.5866 24.7741 21.7732 23.8665 21.8686 23.4026C21.9684 22.9175 21.9727 22.8974 22.148 22.13C22.3326 21.3216 22.5813 20.3502 23.0127 19.473C23.4638 18.5557 24.2233 17.5174 25.554 16.8833C26.3407 16.5084 27.0911 16.4635 27.5209 16.4634L31.0089 16.4633L31.016 16.4634L31.4786 16.4632ZM31.4783 18.3559L30.9983 18.3561L30.9908 18.3559L27.5216 18.356C27.2369 18.3562 26.8428 18.3882 26.4535 18.5737C25.6605 18.9516 25.1632 19.5858 24.826 20.2716C24.4958 20.9431 24.2842 21.7358 24.1028 22.5299C23.9305 23.2844 23.9281 23.296 23.8342 23.7524L23.8319 23.7636C23.7357 24.2313 23.5484 25.1423 23.0199 27.633C22.9112 28.1454 23.262 28.6442 23.8035 28.7471C24.1604 28.8149 24.5121 28.6945 24.7429 28.4536L27.0605 26.0332L25.6238 33.8504C26.397 34.1021 27.7665 34.4433 29.4999 34.4433C31.2332 34.4433 32.6028 34.1021 33.3759 33.8504L31.9386 26.0296L33.8102 27.0469C34.0409 27.2881 34.3928 27.4086 34.7499 27.3407C35.2914 27.2379 35.6422 26.7391 35.5335 26.2266C35.005 23.7361 34.8177 22.825 34.7215 22.3572L34.7192 22.3462C34.6253 21.8896 34.623 21.8781 34.4506 21.1236C34.2692 20.3295 34.5044 20.9429 34.1742 20.2714C33.837 19.5857 33.3397 18.9514 32.5467 18.5735C32.1574 18.388 31.7631 18.3559 31.4783 18.3559Z" fill="#333333"/>
<path fill-rule="evenodd" clip-rule="evenodd" d="M24.9999 37.2823V39.5805C24.9999 40.286 25.5474 40.8844 26.2853 40.9854C27.0232 41.0863 27.7274 40.659 27.9385 39.9824L28.682 37.5992C27.5072 37.5575 26.3055 37.4524 24.9999 37.2823ZM30.2651 37.617L31.0706 40.0111C31.2949 40.6779 31.9994 41.0906 32.7301 40.9831C33.4609 40.8757 33.9999 40.2803 33.9999 39.5805V37.3694C32.6893 37.518 31.4729 37.6012 30.2651 37.617Z" fill="#333333"/>
<path fill-rule="evenodd" clip-rule="evenodd" d="M27.6626 22.7989L26.3048 29.8657L24.3371 29.5272L25.6949 22.4603L27.6626 22.7989Z" fill="#333333"/>
<path fill-rule="evenodd" clip-rule="evenodd" d="M31.3371 22.7989L32.6949 29.8657L34.2158 28.121L33.3048 22.4603L31.3371 22.7989Z" fill="#333333"/>
</svg>
