<svg width="48" height="48" viewBox="0 0 48 48" fill="none" xmlns="http://www.w3.org/2000/svg">
<path fill-rule="evenodd" clip-rule="evenodd" d="M21 40V33.2004L17.8517 30.7517C15.3356 31.2968 12.8274 32.1101 10.9258 33.118C9.86246 33.6816 9.08395 34.2565 8.59368 34.7989C8.1146 35.329 8 35.7218 8 36V40L21 40ZM6 42V36C6 32.3389 12.52 29.7274 18.3533 28.6081L23 32.2223V40H24V42L6 42Z" fill="#333333"/>
<path fill-rule="evenodd" clip-rule="evenodd" d="M17.0602 29.1583L14.4748 36.268L22.1644 34.9864L21.8356 33.0136L17.5251 33.732L18.9398 29.8417L17.0602 29.1583Z" fill="#333333"/>
<path fill-rule="evenodd" clip-rule="evenodd" d="M22.7004 35.7861C22.3445 35.436 21.7749 35.3995 21.3753 35.7191C20.944 36.0641 20.8741 36.6934 21.2191 37.1247L22 36.5C21.2191 37.1247 21.2197 37.1254 21.2203 37.1262L21.2215 37.1277L21.224 37.1307L21.2291 37.1369L21.2399 37.1498C21.2473 37.1586 21.2554 37.1678 21.2641 37.1773C21.2814 37.1964 21.301 37.2169 21.3232 37.2385C21.3677 37.2817 21.422 37.329 21.4875 37.3781C21.619 37.4768 21.7918 37.5799 22.0154 37.6731C22.4619 37.8591 23.0976 38 24 38C24.9024 38 25.5381 37.8591 25.9846 37.6731C26.2082 37.5799 26.381 37.4768 26.5125 37.3781C26.578 37.329 26.6323 37.2817 26.6768 37.2385C26.699 37.2169 26.7186 37.1964 26.736 37.1773C26.7446 37.1678 26.7527 37.1586 26.7601 37.1498L26.7709 37.1369L26.776 37.1307L26.7785 37.1277L26.7797 37.1262C26.7803 37.1254 26.7809 37.1247 26 36.5L26.7809 37.1247C27.1259 36.6934 27.056 36.0641 26.6247 35.7191C26.2251 35.3995 25.6555 35.436 25.2996 35.7861C25.2848 35.7948 25.2576 35.8093 25.2154 35.8269C25.0619 35.8909 24.6976 36 24 36C23.3024 36 22.9381 35.8909 22.7846 35.8269C22.7424 35.8093 22.7152 35.7948 22.7004 35.7861Z" fill="#333333"/>
<path fill-rule="evenodd" clip-rule="evenodd" d="M34.4334 25.5767C34.7027 25.8411 34.8001 26.2347 34.6853 26.5942C34.6768 26.6208 34.6695 26.6481 34.6635 26.6762L34.1064 29.2761C33.9163 30.1633 34.5926 31 35.5 31C36.4074 31 37.0837 30.1633 36.8936 29.2761L36.3365 26.6762C36.3305 26.6481 36.3232 26.6208 36.3147 26.5942C36.1999 26.2347 36.2973 25.8411 36.5666 25.5767C36.8358 25.3122 37.2311 25.2219 37.5885 25.3431C40.1525 26.2126 42 28.6392 42 31.5C42 33.8025 40.8026 35.824 39 36.978V41C39 41.5523 38.5523 42 38 42H33C32.4477 42 32 41.5523 32 41V36.978C30.1974 35.824 29 33.8025 29 31.5C29 28.6392 30.8475 26.2126 33.4115 25.3431C33.7689 25.2219 34.1642 25.3122 34.4334 25.5767ZM38.7481 28.3854L38.8492 28.857C39.3061 30.9893 37.6807 33 35.5 33C33.3193 33 31.6939 30.9893 32.1508 28.8571L32.2519 28.3854C31.4762 29.1942 31 30.292 31 31.5C31 33.2479 31.9964 34.7649 33.4567 35.5107C33.8038 35.6879 34.0163 36.0507 34.0012 36.4401C34.0004 36.4599 34 36.4799 34 36.5V40H37V36.5C37 36.4799 36.9996 36.4599 36.9988 36.4401C36.9837 36.0507 37.1962 35.6879 37.5433 35.5107C39.0036 34.7649 40 33.2479 40 31.5C40 30.292 39.5238 29.1942 38.7481 28.3854Z" fill="#333333"/>
<path fill-rule="evenodd" clip-rule="evenodd" d="M11 41V31H13V41H11Z" fill="#333333"/>
<path fill-rule="evenodd" clip-rule="evenodd" d="M16.0353 19.244C16.0119 19.4928 16 19.745 16 20C16 24.4183 19.5817 28 24 28C28.4183 28 32 24.4183 32 20C32 19.745 31.9881 19.4928 31.9647 19.244C31.3574 19.3788 30.695 19.4984 29.9869 19.6005C29.9956 19.7326 30 19.8658 30 20C30 23.3137 27.3137 26 24 26C20.6863 26 18 23.3137 18 20C18 19.8658 18.0044 19.7326 18.0131 19.6005C17.305 19.4984 16.6426 19.3788 16.0353 19.244Z" fill="#333333"/>
<path fill-rule="evenodd" clip-rule="evenodd" d="M26 7C26.5523 7 27 7.44772 27 8V11C27 11.5523 26.5523 12 26 12C25.4477 12 25 11.5523 25 11V8C25 7.44772 25.4477 7 26 7Z" fill="#333333"/>
<path fill-rule="evenodd" clip-rule="evenodd" d="M22 7C22.5523 7 23 7.44772 23 8V11C23 11.5523 22.5523 12 22 12C21.4477 12 21 11.5523 21 11V8C21 7.44772 21.4477 7 22 7Z" fill="#333333"/>
<path fill-rule="evenodd" clip-rule="evenodd" d="M17.4825 13.8126C17.3947 13.3499 16.9882 13 16.5 13C15.9477 13 15.5 13.4477 15.5 14C15.5 14.8499 16.1704 15.3715 16.6159 15.6373C17.133 15.9457 17.8108 16.1902 18.5486 16.382C20.0389 16.7696 22.0008 17 24 17C25.9992 17 27.9611 16.7696 29.4514 16.382C30.1892 16.1902 30.867 15.9457 31.3841 15.6373C31.8296 15.3715 32.5 14.8499 32.5 14C32.5 13.4477 32.0523 13 31.5 13C31.0118 13 30.6053 13.3499 30.5175 13.8126C30.4859 13.8381 30.4358 13.8741 30.3595 13.9197C30.0743 14.0898 29.602 14.2763 28.9481 14.4464C27.6549 14.7827 25.8668 15 24 15C22.1332 15 20.3451 14.7827 19.0519 14.4464C18.398 14.2763 17.9257 14.0898 17.6405 13.9197C17.5642 13.8741 17.5141 13.8381 17.4825 13.8126ZM30.5648 13.7674C30.5653 13.7674 30.5626 13.7714 30.5551 13.7791C30.5606 13.7712 30.5643 13.7673 30.5648 13.7674ZM17.4449 13.7791C17.4374 13.7714 17.4347 13.7674 17.4352 13.7674C17.4357 13.7673 17.4394 13.7712 17.4449 13.7791Z" fill="#333333"/>
<path fill-rule="evenodd" clip-rule="evenodd" d="M25 8H23L22.7447 9.03271L21.7439 9.39797C19.6725 10.154 17.9944 11.9462 17.3188 14.2558L17.0772 15.0819L16.3112 15.4743C15.704 15.7854 15.3372 16.0806 15.1439 16.3022C15.0585 16.4001 15.0216 16.4654 15.0064 16.4996C15.0271 16.5476 15.0879 16.6525 15.2549 16.814C15.5681 17.117 16.1261 17.4819 16.9791 17.8309C18.6753 18.5248 21.1565 19 24 19C26.8435 19 29.3247 18.5248 31.0209 17.8309C31.8739 17.4819 32.4319 17.117 32.7451 16.814C32.9121 16.6525 32.9729 16.5476 32.9936 16.4996C32.9784 16.4654 32.9415 16.4001 32.8561 16.3022C32.6628 16.0806 32.296 15.7854 31.6888 15.4743L30.9228 15.0819L30.6812 14.2558C30.0056 11.9462 28.3275 10.154 26.2561 9.39797L25.2553 9.03271L25 8C24.9998 7.99978 25.0002 8.00025 25 8ZM33.0032 16.5284C33.0029 16.5284 33.0019 16.5253 33.0011 16.519C33.0031 16.5254 33.0035 16.5285 33.0032 16.5284ZM33.0011 16.4797C33.0019 16.4729 33.003 16.4695 33.0033 16.4695C33.0036 16.4695 33.0032 16.4729 33.0011 16.4797ZM14.9967 16.4695C14.997 16.4695 14.9981 16.4729 14.9989 16.4797C14.9968 16.4729 14.9964 16.4695 14.9967 16.4695ZM14.9989 16.519C14.9981 16.5253 14.9971 16.5284 14.9968 16.5284C14.9965 16.5285 14.9969 16.5254 14.9989 16.519ZM15.3993 13.6943C16.2445 10.8046 18.3605 8.50375 21.0582 7.51919C21.2734 6.64685 22.0612 6 23 6H25C25.9388 6 26.7266 6.64685 26.9418 7.51919C29.6395 8.50375 31.7555 10.8046 32.6007 13.6943C34.1023 14.4637 35 15.439 35 16.5C35 18.9853 30.0751 21 24 21C17.9249 21 13 18.9853 13 16.5C13 15.439 13.8977 14.4637 15.3993 13.6943Z" fill="#333333"/>
<path d="M25 32L27 30.5V42H25V32Z" fill="#333333"/>
<path d="M23 40H26V42H23V40Z" fill="#333333"/>
</svg>
