<svg width="48" height="49" viewBox="0 0 48 49" fill="none" xmlns="http://www.w3.org/2000/svg">
<path fill-rule="evenodd" clip-rule="evenodd" d="M27 12.25C27 10.0409 28.7909 8.25 31 8.25H35C37.2091 8.25 39 10.0409 39 12.25H37C37 11.1454 36.1046 10.25 35 10.25H31C29.8954 10.25 29 11.1454 29 12.25C29 13.3546 29.8954 14.25 31 14.25H35C37.2091 14.25 39 16.0409 39 18.25C39 20.4591 37.2091 22.25 35 22.25H31C28.7909 22.25 27 20.4591 27 18.25H29C29 19.3546 29.8954 20.25 31 20.25H35C36.1046 20.25 37 19.3546 37 18.25C37 17.1454 36.1046 16.25 35 16.25H31C28.7909 16.25 27 14.4591 27 12.25Z" fill="#333333"/>
<path fill-rule="evenodd" clip-rule="evenodd" d="M32 24.25V6.25H34L34 24.25H32Z" fill="#333333"/>
<path fill-rule="evenodd" clip-rule="evenodd" d="M24 35.25C24 33.5931 25.3431 32.25 27 32.25H39C40.6569 32.25 42 33.5931 42 35.25V39.25H24V35.25ZM27 34.25C26.4477 34.25 26 34.6977 26 35.25V37.25H40V35.25C40 34.6977 39.5523 34.25 39 34.25H27Z" fill="#333333"/>
<path fill-rule="evenodd" clip-rule="evenodd" d="M24 42.25V38.25H26V42.25H24Z" fill="#333333"/>
<path fill-rule="evenodd" clip-rule="evenodd" d="M40 42.25V38.25H42V42.25H40Z" fill="#333333"/>
<path fill-rule="evenodd" clip-rule="evenodd" d="M38 33.25V26.25H40V33.25H38Z" fill="#333333"/>
<path fill-rule="evenodd" clip-rule="evenodd" d="M30 32.25V28.25H32V32.25H30Z" fill="#333333"/>
<path fill-rule="evenodd" clip-rule="evenodd" d="M34 32.25V28.25H36V32.25H34Z" fill="#333333"/>
<path fill-rule="evenodd" clip-rule="evenodd" d="M26 33.25V26.25H28V33.25H26Z" fill="#333333"/>
<path fill-rule="evenodd" clip-rule="evenodd" d="M40 29.25L26 29.25V27.25L40 27.25V29.25Z" fill="#333333"/>
<path fill-rule="evenodd" clip-rule="evenodd" d="M14.9999 12C16.1044 12 16.9999 11.1046 16.9999 10C16.9999 8.89543 16.1044 8 14.9999 8C13.8953 8 12.9999 8.89543 12.9999 10C12.9999 11.1046 13.8953 12 14.9999 12ZM14.9999 14C17.209 14 18.9999 12.2091 18.9999 10C18.9999 7.79086 17.209 6 14.9999 6C12.7907 6 10.9999 7.79086 10.9999 10C10.9999 12.2091 12.7907 14 14.9999 14Z" fill="#333333"/>
<path fill-rule="evenodd" clip-rule="evenodd" d="M16.4786 16C16.9089 16.0001 17.6595 16.0476 18.4461 16.4437C19.7769 17.1138 20.5364 18.211 20.9875 19.1803C21.4189 20.1073 21.6676 21.1337 21.8522 21.988C22.0275 22.799 22.0317 22.8196 22.1314 23.3322C22.2268 23.8223 22.4135 24.7815 22.9412 27.4094C23.2673 29.0338 22.2149 30.6151 20.5905 30.9413C20.3303 30.9935 20.0713 31.0104 19.8184 30.9952L20.3576 34.0956C20.5069 34.9544 20.0737 35.8919 19.1476 36.2222C18.2402 36.5458 16.5954 37 14.4999 37C12.4043 37 10.7595 36.5458 9.85208 36.2222C8.92601 35.8919 8.49279 34.9544 8.64213 34.0956L9.18131 30.9954C8.9286 31.0105 8.66975 30.9937 8.40974 30.9415C6.78531 30.6153 5.73287 29.034 6.05905 27.4096C6.58658 24.7823 6.77323 23.8232 6.86863 23.333C6.96838 22.8204 6.97266 22.7992 7.14796 21.9882C7.33264 21.1339 7.58133 20.1075 8.01272 19.1805C8.46383 18.2111 9.22331 17.1139 10.554 16.4439C11.3407 16.0478 12.0911 16.0003 12.5209 16.0002L16.0089 16.0001L16.016 16.0002L16.4786 16ZM16.4783 18L15.9983 18.0002L15.9908 18.0001L12.5216 18.0002C12.2369 18.0003 11.8428 18.0342 11.4535 18.2302C10.6605 18.6295 10.1632 19.2997 9.82598 20.0243C9.49576 20.7339 9.28421 21.5716 9.10281 22.4108C8.93046 23.2081 8.92808 23.2203 8.83421 23.7027L8.83192 23.7144C8.73573 24.2087 8.54838 25.1714 8.01991 27.8033C7.91118 28.3448 8.26199 28.8719 8.80347 28.9806C9.16042 29.0523 9.51215 28.9251 9.74285 28.6705L12.0605 26.1129L10.6238 34.3734C11.397 34.6394 12.7665 35 14.4999 35C16.2332 35 17.6028 34.6394 18.3759 34.3734L16.9386 26.109L19.257 28.6699C19.4877 28.9248 19.8396 29.0521 20.1967 28.9804C20.7382 28.8717 21.089 28.3446 20.9803 27.8031C20.4518 25.1713 20.2645 24.2085 20.1683 23.7142L20.166 23.7025C20.0721 23.2201 20.0697 23.2079 19.8974 22.4106C19.716 21.5715 19.5044 20.7338 19.1742 20.0242C18.837 19.2996 18.3397 18.6293 17.5467 18.23C17.1574 18.034 16.7631 18.0001 16.4783 18Z" fill="#333333"/>
<path fill-rule="evenodd" clip-rule="evenodd" d="M9.99986 38V40.4285C9.99986 41.1741 10.5474 41.8064 11.2853 41.9131C12.0232 42.0197 12.7274 41.5683 12.9385 40.8533L13.682 38.3349C12.5072 38.2909 11.3055 38.1798 9.99986 38ZM15.2651 38.3537L16.0706 40.8836C16.2949 41.5882 16.9994 42.0243 17.7301 41.9107C18.4609 41.7972 18.9999 41.168 18.9999 40.4285V38.0921C17.6893 38.2491 16.4729 38.3369 15.2651 38.3537Z" fill="#333333"/>
<path fill-rule="evenodd" clip-rule="evenodd" d="M12.6626 22.695L11.3048 30.1628L9.33711 29.805L10.6949 22.3372L12.6626 22.695Z" fill="#333333"/>
<path fill-rule="evenodd" clip-rule="evenodd" d="M16.3371 22.695L17.6949 30.1628L19.6626 29.805L18.3048 22.3372L16.3371 22.695Z" fill="#333333"/>
</svg>
