<svg width="48" height="48" viewBox="0 0 48 48" fill="none" xmlns="http://www.w3.org/2000/svg">
<path fill-rule="evenodd" clip-rule="evenodd" d="M33.5 12C34.6046 12 35.5 11.1046 35.5 10C35.5 8.89543 34.6046 8 33.5 8C32.3954 8 31.5 8.89543 31.5 10C31.5 11.1046 32.3954 12 33.5 12ZM33.5 14C35.7091 14 37.5 12.2091 37.5 10C37.5 7.79086 35.7091 6 33.5 6C31.2909 6 29.5 7.79086 29.5 10C29.5 12.2091 31.2909 14 33.5 14Z" fill="#333333"/>
<path fill-rule="evenodd" clip-rule="evenodd" d="M28.3702 16.8415C29.3616 16.2453 30.4552 16 31.5458 16H35.4542C36.5448 16 37.6384 16.2453 38.6298 16.8415C39.619 17.4364 40.329 18.2739 40.8214 19.1838C41.7505 20.9006 42 23.0478 42 25.1435V25.2321C42 25.2617 41.9987 25.2912 41.9961 25.3206L41.9882 25.4089C41.9882 25.4089 41.988 25.4118 41.9874 25.4224C41.9868 25.4327 41.9862 25.4468 41.9856 25.4657C41.9844 25.5038 41.9833 25.5553 41.9827 25.6231C41.9814 25.7588 41.9819 25.9482 41.9846 26.2059C41.9858 26.3209 41.9873 26.4452 41.989 26.5785L41.989 26.5802C41.994 26.9875 42 27.4743 42 28C42 29.6569 40.6569 31 39 31C38.8299 31 38.6628 30.9858 38.5 30.9584V39.5C38.5 40.8228 37.4696 41.9166 36.1492 41.9955C34.8288 42.0745 33.6754 41.1112 33.5178 39.7979L33.5 39.6495L33.4822 39.7979C33.3246 41.1112 32.1712 42.0745 30.8508 41.9955C29.5304 41.9166 28.5 40.8228 28.5 39.5V30.9584C28.3372 30.9858 28.1701 31 28 31C26.3431 31 25 29.6569 25 28C25 27.4744 25.006 26.9877 25.011 26.5805L25.011 26.5787C25.0127 26.4454 25.0142 26.3209 25.0154 26.2059C25.0181 25.9482 25.0186 25.7588 25.0173 25.6231C25.0167 25.5553 25.0156 25.5038 25.0144 25.4657C25.0138 25.4468 25.0132 25.4327 25.0126 25.4224C25.0121 25.4129 25.0118 25.4087 25.0118 25.4087L25.0039 25.3206C25.0013 25.2912 25 25.2617 25 25.2321V25.1435C25 23.0478 25.2495 20.9006 26.1786 19.1838C26.671 18.2739 27.381 17.4364 28.3702 16.8415ZM29.7022 29.0205C30.1576 29.114 30.5 29.517 30.5 30V39.5C30.5 39.7645 30.7061 39.9833 30.9702 39.9991C31.2342 40.0149 31.4649 39.8222 31.4964 39.5596L32.5071 31.1372C32.5674 30.6346 32.9938 30.2563 33.5 30.2563C34.0062 30.2563 34.4326 30.6346 34.4929 31.1372L35.5036 39.5596C35.5351 39.8222 35.7658 40.0149 36.0298 39.9991C36.2939 39.9833 36.5 39.7645 36.5 39.5V30C36.5 29.517 36.8424 29.114 37.2978 29.0205C37.3577 28.9614 37.4256 28.9094 37.5004 28.8662C37.81 28.6876 38.1913 28.6879 38.5007 28.8668C38.6468 28.9513 38.8162 29 39 29C39.5523 29 40 28.5523 40 28C40 27.4875 39.9941 27.0116 39.9891 26.6031C39.9875 26.4705 39.9859 26.3438 39.9847 26.2267C39.9795 25.7244 39.981 25.4014 39.9961 25.232L40 25.1878V25.1435C40 23.1478 39.7509 21.4078 39.0625 20.1357C38.7089 19.4823 38.2297 18.9347 37.599 18.5554C36.9676 18.1757 36.243 18 35.4542 18H31.5458C30.757 18 30.0324 18.1757 29.401 18.5554C28.7703 18.9347 28.2911 19.4823 27.9375 20.1357C27.2491 21.4078 27 23.1478 27 25.1435V25.1878L27.0039 25.232C27.019 25.4014 27.0205 25.7244 27.0153 26.2267C27.0141 26.3439 27.0125 26.47 27.0109 26.6027C27.0059 27.0111 27 27.4876 27 28C27 28.5523 27.4477 29 28 29C28.1838 29 28.3532 28.9513 28.4993 28.8668C28.8087 28.6879 29.19 28.6876 29.4996 28.8662C29.5744 28.9094 29.6423 28.9614 29.7022 29.0205Z" fill="#333333"/>
<path fill-rule="evenodd" clip-rule="evenodd" d="M30.5 23V34H28.5V23H30.5Z" fill="#333333"/>
<path fill-rule="evenodd" clip-rule="evenodd" d="M38.5 23V34H36.5V23H38.5Z" fill="#333333"/>
<path fill-rule="evenodd" clip-rule="evenodd" d="M14.9999 12C16.1044 12 16.9999 11.1046 16.9999 10C16.9999 8.89543 16.1044 8 14.9999 8C13.8953 8 12.9999 8.89543 12.9999 10C12.9999 11.1046 13.8953 12 14.9999 12ZM14.9999 14C17.209 14 18.9999 12.2091 18.9999 10C18.9999 7.79086 17.209 6 14.9999 6C12.7907 6 10.9999 7.79086 10.9999 10C10.9999 12.2091 12.7907 14 14.9999 14Z" fill="#333333"/>
<path fill-rule="evenodd" clip-rule="evenodd" d="M16.4786 16C16.9089 16.0001 17.6595 16.0476 18.4461 16.4437C19.7769 17.1138 20.5364 18.211 20.9875 19.1803C21.4189 20.1073 21.6676 21.1337 21.8522 21.988C22.0275 22.799 22.0317 22.8196 22.1314 23.3322C22.2268 23.8223 22.4135 24.7815 22.9412 27.4094C23.2673 29.0338 22.2149 30.6151 20.5905 30.9413C20.3303 30.9935 20.0713 31.0104 19.8184 30.9952L20.3576 34.0956C20.5069 34.9544 20.0737 35.8919 19.1476 36.2222C18.2402 36.5458 16.5954 37 14.4999 37C12.4043 37 10.7595 36.5458 9.85208 36.2222C8.92601 35.8919 8.49279 34.9544 8.64213 34.0956L9.18131 30.9954C8.9286 31.0105 8.66975 30.9937 8.40974 30.9415C6.78531 30.6153 5.73287 29.034 6.05905 27.4096C6.58658 24.7823 6.77323 23.8232 6.86863 23.333C6.96838 22.8204 6.97266 22.7992 7.14796 21.9882C7.33264 21.1339 7.58133 20.1075 8.01272 19.1805C8.46383 18.2111 9.22331 17.1139 10.554 16.4439C11.3407 16.0478 12.0911 16.0003 12.5209 16.0002L16.0089 16.0001L16.016 16.0002L16.4786 16ZM16.4783 18L15.9983 18.0002L15.9908 18.0001L12.5216 18.0002C12.2369 18.0003 11.8428 18.0342 11.4535 18.2302C10.6605 18.6295 10.1632 19.2997 9.82598 20.0243C9.49576 20.7339 9.28421 21.5716 9.10281 22.4108C8.93046 23.2081 8.92808 23.2203 8.83421 23.7027L8.83192 23.7144C8.73573 24.2087 8.54838 25.1714 8.01991 27.8033C7.91118 28.3448 8.26199 28.8719 8.80347 28.9806C9.16042 29.0523 9.51215 28.9251 9.74285 28.6705L12.0605 26.1129L10.6238 34.3734C11.397 34.6394 12.7665 35 14.4999 35C16.2332 35 17.6028 34.6394 18.3759 34.3734L16.9386 26.109L19.257 28.6699C19.4877 28.9248 19.8396 29.0521 20.1967 28.9804C20.7382 28.8717 21.089 28.3446 20.9803 27.8031C20.4518 25.1713 20.2645 24.2085 20.1683 23.7142L20.166 23.7025C20.0721 23.2201 20.0697 23.2079 19.8974 22.4106C19.716 21.5715 19.5044 20.7338 19.1742 20.0242C18.837 19.2996 18.3397 18.6293 17.5467 18.23C17.1574 18.034 16.7631 18.0001 16.4783 18Z" fill="#333333"/>
<path fill-rule="evenodd" clip-rule="evenodd" d="M9.99986 38V40.4285C9.99986 41.1741 10.5474 41.8064 11.2853 41.9131C12.0232 42.0197 12.7274 41.5683 12.9385 40.8533L13.682 38.3349C12.5072 38.2909 11.3055 38.1798 9.99986 38ZM15.2651 38.3537L16.0706 40.8836C16.2949 41.5882 16.9994 42.0243 17.7301 41.9107C18.4609 41.7972 18.9999 41.168 18.9999 40.4285V38.0921C17.6893 38.2491 16.4729 38.3369 15.2651 38.3537Z" fill="#333333"/>
<path fill-rule="evenodd" clip-rule="evenodd" d="M12.6626 22.695L11.3048 30.1628L9.33711 29.805L10.6949 22.3372L12.6626 22.695Z" fill="#333333"/>
<path fill-rule="evenodd" clip-rule="evenodd" d="M16.3371 22.695L17.6949 30.1628L19.6626 29.805L18.3048 22.3372L16.3371 22.695Z" fill="#333333"/>
</svg>
