<svg width="48" height="48" viewBox="0 0 48 48" fill="none" xmlns="http://www.w3.org/2000/svg">
<path fill-rule="evenodd" clip-rule="evenodd" d="M17.5 19.0975C14.8734 19.6182 13 22.1549 13 25.0227C13 27.4697 14.3528 29.6594 16.3784 30.5829C16.0709 31.165 15.7588 31.7006 15.4845 32.1484C14.7531 33.3429 15.408 35.0153 16.8887 35.2453C22.3021 36.086 25.8515 36.1087 30.878 35.2517C32.3067 35.0081 32.9535 33.409 32.265 32.2286C32.0063 31.785 31.7068 31.2524 31.4057 30.6763C33.5496 29.8146 35 27.5531 35 25.0227C35 22.1549 33.1266 19.6182 30.5 19.0975V18.9999H17.5V19.0975ZM18.5 21C16.6675 21 15 22.6948 15 25.0227C15 27.1149 16.3628 28.7164 17.9664 28.9988L19.2483 29.2247L18.6997 30.4051C18.2059 31.4677 17.6436 32.4524 17.1901 33.1929C17.1842 33.2026 17.1821 33.2105 17.1817 33.2191C17.1811 33.2298 17.1833 33.2429 17.1887 33.2553C17.1917 33.2623 17.1948 33.2667 17.1968 33.2691C22.4193 34.0801 25.7495 34.0968 30.5368 33.281C30.5374 33.28 30.538 33.2787 30.5387 33.2773C30.5422 33.2695 30.5436 33.2611 30.5433 33.2545C30.5432 33.2528 30.5431 33.2512 30.5428 33.2498C30.5426 33.2487 30.5424 33.2476 30.5421 33.2466C30.5418 33.2457 30.5414 33.2446 30.5409 33.2432C30.5401 33.2414 30.5391 33.2391 30.5374 33.2363C30.1047 32.4943 29.5535 31.4986 29.0571 30.4458L28.4617 29.1833L29.8486 29.0256C31.5329 28.8341 33 27.1975 33 25.0227C33 22.6948 31.3325 21 29.5 21H18.5Z" fill="#333333"/>
<path fill-rule="evenodd" clip-rule="evenodd" d="M19 37.0138V40.3875C19 41.139 19.5561 41.7745 20.3009 41.8743C21.0457 41.974 21.7494 41.5072 21.9471 40.7822L22.8677 37.4067C21.6318 37.347 20.3654 37.2166 19 37.0138ZM26.1304 37.3999L27.0529 40.7822C27.2506 41.5072 27.9543 41.974 28.6991 41.8743C29.4439 41.7745 30 41.139 30 40.3875V37C28.634 37.2016 27.367 37.3354 26.1304 37.3999Z" fill="#333333"/>
<path d="M17 19C17 18.4477 17.4477 18 18 18H30C30.5523 18 31 18.4477 31 19C31 19.5523 30.5523 20 30 20H18C17.4477 20 17 19.5523 17 19Z" fill="#333333"/>
<path fill-rule="evenodd" clip-rule="evenodd" d="M24 8C22.3431 8 21 9.34315 21 11C21 12.6569 22.3431 14 24 14C25.6569 14 27 12.6569 27 11C27 9.34315 25.6569 8 24 8ZM19 11C19 8.23858 21.2386 6 24 6C26.7614 6 29 8.23858 29 11C29 13.7614 26.7614 16 24 16C21.2386 16 19 13.7614 19 11Z" fill="#333333"/>
<path fill-rule="evenodd" clip-rule="evenodd" d="M20.9967 19.884C20.9949 19.6047 20.9929 19.311 20.9929 19H22.9929C22.9929 19.276 22.9947 19.5512 22.9965 19.822C23.0005 20.4244 23.0043 21.0054 22.9877 21.527C22.9636 22.2855 22.8955 23.0354 22.6823 23.693C22.4602 24.3781 22.0678 25.0005 21.3896 25.4278C20.7359 25.8397 19.9267 26 19 26V24C19.7194 24 20.1074 23.8718 20.3234 23.7357C20.5151 23.6149 20.6652 23.4296 20.7798 23.0762C20.9033 22.6954 20.9661 22.176 20.9887 21.4634C21.0041 20.9809 21.0006 20.4634 20.9967 19.884Z" fill="#333333"/>
<path fill-rule="evenodd" clip-rule="evenodd" d="M27.0033 19.884C27.0051 19.6047 27.0071 19.311 27.0071 19H25.0071C25.0071 19.276 25.0053 19.5512 25.0035 19.822C24.9995 20.4244 24.9957 21.0054 25.0123 21.527C25.0364 22.2855 25.1045 23.0354 25.3177 23.693C25.5398 24.3781 25.9322 25.0005 26.6104 25.4278C27.2641 25.8397 28.0733 26 29 26V24C28.2806 24 27.8926 23.8718 27.6766 23.7357C27.4849 23.6149 27.3348 23.4296 27.2202 23.0762C27.0967 22.6954 27.0339 22.176 27.0113 21.4634C26.9959 20.9809 26.9994 20.4634 27.0033 19.884Z" fill="#333333"/>
<path fill-rule="evenodd" clip-rule="evenodd" d="M21.0273 26.2645C20.2349 26.0098 19.158 26 18 26V24C18.0266 24 18.0534 24 18.0804 24C19.1352 23.9997 20.5161 23.9994 21.6393 24.3605C22.2365 24.5524 22.8418 24.8694 23.2971 25.4117C23.7659 25.97 24 26.6771 24 27.5C24 28.2238 23.8814 28.8922 23.5478 29.4551C23.1999 30.0422 22.6838 30.4053 22.1011 30.6238C21.545 30.8324 20.9068 30.9179 20.2499 30.959C19.5936 31 18.8384 31 18.024 31H18V29C18.8431 29 19.5378 28.9996 20.1251 28.9629C20.7182 28.9258 21.1217 28.8551 21.3989 28.7512C21.6495 28.6572 21.7584 28.5516 21.8272 28.4355C21.9103 28.2953 22 28.0262 22 27.5C22 27.0729 21.8869 26.8425 21.7654 26.6977C21.6304 26.5369 21.4024 26.3851 21.0273 26.2645Z" fill="#333333"/>
<path fill-rule="evenodd" clip-rule="evenodd" d="M29 30V24H31V30H29Z" fill="#333333"/>
</svg>
