<svg width="48" height="48" viewBox="0 0 48 48" fill="none" xmlns="http://www.w3.org/2000/svg">
<path fill-rule="evenodd" clip-rule="evenodd" d="M15 28C16.1054 28 17 27.1054 17 26C17 24.8946 16.1054 24 15 24C13.8946 24 13 24.8946 13 26C13 27.1054 13.8946 28 15 28ZM15 30C17.21 30 19 28.21 19 26C19 23.79 17.21 22 15 22C12.79 22 11 23.79 11 26C11 28.21 12.79 30 15 30Z" fill="#333333"/>
<path fill-rule="evenodd" clip-rule="evenodd" d="M8 36.5455V40H22V36.5455C22 36.5156 22 36.347 21.6523 36.0229C21.2888 35.684 20.6902 35.3226 19.8762 34.9932C18.2441 34.3328 16.2492 34 15 34C13.7508 34 11.7559 34.3328 10.1238 34.9932C9.30978 35.3226 8.71117 35.684 8.34765 36.0229C7.99996 36.347 7.99999 36.5156 8 36.5455ZM15 32C11.9962 32 6 33.5227 6 36.5455V42H24V36.5455C24 33.5227 18.0037 32 15 32Z" fill="#333333"/>
<path fill-rule="evenodd" clip-rule="evenodd" d="M33 28C34.1054 28 35 27.1054 35 26C35 24.8946 34.1054 24 33 24C31.8946 24 31 24.8946 31 26C31 27.1054 31.8946 28 33 28ZM33 30C35.21 30 37 28.21 37 26C37 23.79 35.21 22 33 22C30.79 22 29 23.79 29 26C29 28.21 30.79 30 33 30Z" fill="#333333"/>
<path fill-rule="evenodd" clip-rule="evenodd" d="M24 26C25.1054 26 26 25.1054 26 24C26 22.8946 25.1054 22 24 22C22.8946 22 22 22.8946 22 24C22 25.1054 22.8946 26 24 26ZM24 28C26.21 28 28 26.21 28 24C28 21.79 26.21 20 24 20C21.79 20 20 21.79 20 24C20 26.21 21.79 28 24 28Z" fill="#333333"/>
<path fill-rule="evenodd" clip-rule="evenodd" d="M17 16.0714L14.8894 15.9947C13.2769 15.936 12 14.6118 12 12.9983C12 11.3424 13.3424 10 14.9983 10H18.1667C19.7315 10 21 11.2685 21 12.8333C21 14.7478 19.7833 16.0037 18.0761 16.8928C17.7154 17.0807 17.3509 17.2411 17 17.377V16.0714ZM14.8167 17.9933C12.1286 17.8956 10 15.6881 10 12.9983C10 10.2378 12.2378 8 14.9983 8H18.1667C20.836 8 23 10.164 23 12.8333C23 16.8752 19.3696 18.7237 17 19.4998C15.852 19.8757 15 20 15 20V18L14.8167 17.9933Z" fill="#333333"/>
<path fill-rule="evenodd" clip-rule="evenodd" d="M33 14H37C38.6569 14 40 12.6569 40 11C40 9.34315 38.6569 8 37 8H31.2361C29.4489 8 28 9.44886 28 11.2361C28 13.3608 29.4143 14.7736 31.3966 15.7678C31.9392 16.04 32.4885 16.2598 33 16.4351V14ZM35 19C35 19 34.1632 18.8825 33 18.5349C30.3483 17.7424 26 15.7542 26 11.2361C26 8.34429 28.3443 6 31.2361 6H37C39.7614 6 42 8.23858 42 11C42 13.7614 39.7614 16 37 16H35V19Z" fill="#333333"/>
<path fill-rule="evenodd" clip-rule="evenodd" d="M26 36.5455V40H40V36.5455C40 36.5156 40 36.347 39.6523 36.0229C39.2888 35.684 38.6902 35.3226 37.8762 34.9932C36.2441 34.3328 34.2492 34 33 34C31.7508 34 29.7559 34.3328 28.1238 34.9932C27.3098 35.3226 26.7112 35.684 26.3476 36.0229C26 36.347 26 36.5156 26 36.5455ZM33 32C29.9962 32 24 33.5227 24 36.5455V42H42V36.5455C42 33.5227 36.0037 32 33 32Z" fill="#333333"/>
<path fill-rule="evenodd" clip-rule="evenodd" d="M24.0001 32C20.6908 32 18.3718 33.5425 17.7072 34.2071L16.293 32.7929C17.295 31.7909 20.1094 30 24.0001 30C27.8908 30 30.7051 31.7909 31.7072 32.7929L30.293 34.2071C29.6283 33.5425 27.3094 32 24.0001 32Z" fill="#333333"/>
</svg>
