<svg width="48" height="48" viewBox="0 0 48 48" fill="none" xmlns="http://www.w3.org/2000/svg">
<path fill-rule="evenodd" clip-rule="evenodd" d="M24 16C26.7614 16 29 13.7614 29 11C29 8.23858 26.7614 6 24 6C21.2386 6 19 8.23858 19 11C19 13.7614 21.2386 16 24 16ZM24 18C27.866 18 31 14.866 31 11C31 7.13401 27.866 4 24 4C20.134 4 17 7.13401 17 11C17 14.866 20.134 18 24 18Z" fill="#333333"/>
<path fill-rule="evenodd" clip-rule="evenodd" d="M29.935 35.0628L31.229 33.6846L29.771 32.3156L28.477 33.6938L29.935 35.0628Z" fill="#333333"/>
<path fill-rule="evenodd" clip-rule="evenodd" d="M18.2505 37.3202L16.2015 34.602L17.7985 33.3981L19.8476 36.1163L18.2505 37.3202Z" fill="#333333"/>
<path fill-rule="evenodd" clip-rule="evenodd" d="M31.6269 22.8028C31.3278 22.2333 30.699 21.9178 30.0637 22.0187L17.96 23.9397C17.1806 24.0634 16.5053 24.5479 16.1384 25.2467L12.1719 32.8013C11.9028 33.3138 11.9527 33.9355 12.3001 34.3986L17.5497 41.3975C18.0467 42.0603 18.987 42.1945 19.6497 41.6975C20.3124 41.2004 20.4467 40.2602 19.9496 39.5975L17.9703 36.9586L18.0346 36.5426C18.0885 36.1942 18.2032 35.8608 18.3702 35.5566C17.8577 35.0129 17.5529 34.2833 17.5529 33.4986V29.4992C17.5529 27.8424 18.8961 26.4992 20.5529 26.4992C22.2098 26.4992 23.5529 27.8424 23.5529 29.4992V31.2733L28.9758 32.9175L28.8974 33.1762C29.3074 33.5105 29.6331 33.956 29.8225 34.4829L30.0048 34.9901L28.0489 37.5978C27.5518 38.2605 27.6861 39.2007 28.3488 39.6978C29.0115 40.1949 29.9517 40.0606 30.4488 39.3979L35.6984 32.3989C36.0458 31.9358 36.0957 31.3142 35.8266 30.8016L31.6269 22.8028ZM26.7423 34.3302L21.5529 32.7568V29.4992C21.5529 28.9469 21.1052 28.4992 20.5529 28.4992C20.0007 28.4992 19.5529 28.9469 19.5529 29.4992V33.4986C19.5529 33.9159 19.8119 34.287 20.1975 34.4333L21.951 35.0985L20.4215 36.1838C20.3015 36.269 20.2026 36.3796 20.1308 36.5058L21.5495 38.3974C22.7094 39.9437 22.3961 42.1376 20.8497 43.2974C19.3034 44.4573 17.1096 44.144 15.9497 42.5976L10.7001 35.5987C9.88958 34.5181 9.77325 33.0675 10.4012 31.8716L14.3677 24.3169C15.028 23.0592 16.2435 22.1871 17.6465 21.9644L29.7501 20.0434C31.2325 19.8081 32.6999 20.5442 33.3976 21.8731L37.5973 29.8719C38.2253 31.0678 38.1089 32.5184 37.2984 33.599L32.0488 40.5979C30.8889 42.1443 28.6951 42.4576 27.1488 41.2977C25.6024 40.1379 25.2891 37.9441 26.4489 36.3977L27.6755 34.7624C27.5828 34.6778 27.4746 34.6109 27.3564 34.5656L26.7423 34.3302Z" fill="#333333"/>
<path fill-rule="evenodd" clip-rule="evenodd" d="M29.5 27C28.1193 27 27 28.1193 27 29.5C27 30.8807 28.1193 32 29.5 32C30.8807 32 32 30.8807 32 29.5C32 28.1193 30.8807 27 29.5 27ZM25 29.5C25 27.0147 27.0147 25 29.5 25C31.9853 25 34 27.0147 34 29.5C34 31.9853 31.9853 34 29.5 34C27.0147 34 25 31.9853 25 29.5Z" fill="#333333"/>
</svg>
