<svg width="48" height="48" viewBox="0 0 48 48" fill="none" xmlns="http://www.w3.org/2000/svg">
<path fill-rule="evenodd" clip-rule="evenodd" d="M27 12C27 9.79086 28.7909 8 31 8H35C37.2091 8 39 9.79086 39 12H37C37 10.8954 36.1046 10 35 10H31C29.8954 10 29 10.8954 29 12C29 13.1046 29.8954 14 31 14H35C37.2091 14 39 15.7909 39 18C39 20.2091 37.2091 22 35 22H31C28.7909 22 27 20.2091 27 18H29C29 19.1046 29.8954 20 31 20H35C36.1046 20 37 19.1046 37 18C37 16.8954 36.1046 16 35 16H31C28.7909 16 27 14.2091 27 12Z" fill="#333333"/>
<path fill-rule="evenodd" clip-rule="evenodd" d="M32 24V6H34V24H32Z" fill="#333333"/>
<path fill-rule="evenodd" clip-rule="evenodd" d="M24 35C24 33.3431 25.3431 32 27 32H39C40.6569 32 42 33.3431 42 35V39H24V35ZM27 34C26.4477 34 26 34.4477 26 35V37H40V35C40 34.4477 39.5523 34 39 34H27Z" fill="#333333"/>
<path fill-rule="evenodd" clip-rule="evenodd" d="M24 42V38H26V42H24Z" fill="#333333"/>
<path fill-rule="evenodd" clip-rule="evenodd" d="M40 42V38H42V42H40Z" fill="#333333"/>
<path fill-rule="evenodd" clip-rule="evenodd" d="M38 33V26H40V33H38Z" fill="#333333"/>
<path fill-rule="evenodd" clip-rule="evenodd" d="M30 32V28H32V32H30Z" fill="#333333"/>
<path fill-rule="evenodd" clip-rule="evenodd" d="M34 32V28H36V32H34Z" fill="#333333"/>
<path fill-rule="evenodd" clip-rule="evenodd" d="M26 33V26H28V33H26Z" fill="#333333"/>
<path fill-rule="evenodd" clip-rule="evenodd" d="M40 29L26 29V27L40 27V29Z" fill="#333333"/>
<path fill-rule="evenodd" clip-rule="evenodd" d="M14.5 12C15.6046 12 16.5 11.1046 16.5 10C16.5 8.89543 15.6046 8 14.5 8C13.3954 8 12.5 8.89543 12.5 10C12.5 11.1046 13.3954 12 14.5 12ZM14.5 14C16.7091 14 18.5 12.2091 18.5 10C18.5 7.79086 16.7091 6 14.5 6C12.2909 6 10.5 7.79086 10.5 10C10.5 12.2091 12.2909 14 14.5 14Z" fill="#333333"/>
<path fill-rule="evenodd" clip-rule="evenodd" d="M9.37023 16.8415C10.3616 16.2453 11.4552 16 12.5458 16H16.4542C17.5448 16 18.6384 16.2453 19.6298 16.8415C20.619 17.4364 21.329 18.2739 21.8214 19.1838C22.7505 20.9006 23 23.0478 23 25.1435V25.2321C23 25.2617 22.9987 25.2912 22.9961 25.3206L22.9882 25.4089C22.9882 25.4089 22.988 25.4118 22.9874 25.4224C22.9868 25.4327 22.9862 25.4468 22.9856 25.4657C22.9844 25.5038 22.9833 25.5553 22.9827 25.6231C22.9814 25.7588 22.9819 25.9482 22.9846 26.2059C22.9858 26.3209 22.9873 26.4452 22.989 26.5785L22.989 26.5802C22.994 26.9875 23 27.4743 23 28C23 29.6569 21.6569 31 20 31C19.8299 31 19.6628 30.9858 19.5 30.9584V39.5C19.5 40.8228 18.4696 41.9166 17.1492 41.9955C15.8288 42.0745 14.6754 41.1112 14.5178 39.7979L14.5 39.6495L14.4822 39.7979C14.3246 41.1112 13.1712 42.0745 11.8508 41.9955C10.5304 41.9166 9.5 40.8228 9.5 39.5V30.9584C9.33718 30.9858 9.17011 31 9 31C7.34315 31 6 29.6569 6 28C6 27.4744 6.006 26.9877 6.01101 26.5805L6.01104 26.5787C6.01268 26.4454 6.01421 26.3209 6.01541 26.2059C6.01809 25.9482 6.01856 25.7588 6.0173 25.6231C6.01667 25.5553 6.01564 25.5038 6.01439 25.4657C6.01378 25.4468 6.01315 25.4327 6.0126 25.4224C6.01209 25.4129 6.01175 25.4087 6.01175 25.4087L6.00392 25.3206C6.00131 25.2912 6 25.2617 6 25.2321V25.1435C6.00002 23.0478 6.24949 20.9006 7.17857 19.1838C7.67098 18.2739 8.381 17.4364 9.37023 16.8415ZM10.7022 29.0205C11.1576 29.114 11.5 29.517 11.5 30V39.5C11.5 39.7645 11.7061 39.9833 11.9702 39.9991C12.2342 40.0149 12.4649 39.8222 12.4964 39.5596L13.5071 31.1372C13.5674 30.6346 13.9938 30.2563 14.5 30.2563C15.0062 30.2563 15.4326 30.6346 15.4929 31.1372L16.5036 39.5596C16.5351 39.8222 16.7658 40.0149 17.0298 39.9991C17.2939 39.9833 17.5 39.7645 17.5 39.5V30C17.5 29.517 17.8424 29.114 18.2978 29.0205C18.3577 28.9614 18.4256 28.9094 18.5004 28.8662C18.81 28.6876 19.1913 28.6879 19.5007 28.8668C19.6468 28.9513 19.8162 29 20 29C20.5523 29 21 28.5523 21 28C21 27.4875 20.9941 27.0116 20.9891 26.6031C20.9875 26.4705 20.9859 26.3438 20.9847 26.2267C20.9795 25.7244 20.981 25.4014 20.9961 25.232L21 25.1878V25.1435C21 23.1478 20.7509 21.4078 20.0625 20.1357C19.7089 19.4823 19.2297 18.9347 18.599 18.5554C17.9676 18.1757 17.243 18 16.4542 18H12.5458C11.757 18 11.0324 18.1757 10.401 18.5554C9.77026 18.9347 9.29111 19.4823 8.93751 20.1357C8.2491 21.4078 8.00002 23.1478 8 25.1435V25.1878L8.00392 25.232C8.01897 25.4014 8.02053 25.7244 8.0153 26.2267C8.01408 26.3439 8.01253 26.47 8.01089 26.6027C8.00586 27.0111 8 27.4876 8 28C8 28.5523 8.44772 29 9 29C9.1838 29 9.35321 28.9513 9.49928 28.8668C9.80866 28.6879 10.19 28.6876 10.4996 28.8662C10.5744 28.9094 10.6423 28.9614 10.7022 29.0205Z" fill="#333333"/>
<path fill-rule="evenodd" clip-rule="evenodd" d="M11.5 23V34H9.5V23H11.5Z" fill="#333333"/>
<path fill-rule="evenodd" clip-rule="evenodd" d="M19.5 23V34H17.5V23H19.5Z" fill="#333333"/>
</svg>
