<svg width="48" height="48" viewBox="0 0 48 48" fill="none" xmlns="http://www.w3.org/2000/svg">
<path fill-rule="evenodd" clip-rule="evenodd" d="M16.6248 15.8916C17.6644 15.2625 18.8169 15 19.9772 15H28.0845C29.2449 15 30.3974 15.2625 31.437 15.8916C32.4736 16.5189 33.2198 17.4029 33.7398 18.3698C34.7245 20.2008 34.9997 22.5156 34.9998 24.8261V24.9142C34.9998 24.9435 34.9985 24.9729 34.9959 25.0021L34.9881 25.0899C34.9815 25.1648 34.9766 25.4168 34.9828 26.0102C34.9841 26.1389 34.9858 26.2775 34.9876 26.4259L34.9876 26.4281C34.9932 26.8804 34.9998 27.4184 34.9998 28C34.9998 29.6569 33.6566 31 31.9998 31C31.6492 31 31.3127 30.9399 31 30.8294V41C31 42.604 29.7383 43.9242 28.136 43.9969C26.5336 44.0696 25.1576 42.869 25.0123 41.2716L24.1695 32H23.8306L22.9877 41.2716C22.8425 42.869 21.4664 44.0696 19.8641 43.9969C18.2617 43.9242 17 42.604 17 41L17 31.0137C17 31.0091 16.9999 31.0046 16.9999 31V30.8505C16.7049 30.9475 16.3897 31 16.062 31C14.4052 31 13.062 29.6569 13.062 28C13.062 27.4183 13.0686 26.8802 13.0741 26.4278L13.0742 26.4259C13.076 26.2775 13.0777 26.1389 13.079 26.0102C13.0851 25.4168 13.0802 25.1648 13.0736 25.0899L13.0659 25.0021C13.0633 24.9729 13.062 24.9435 13.062 24.9142V24.8261C13.062 22.5156 13.3372 20.2008 14.322 18.3698C14.842 17.4029 15.5882 16.5189 16.6248 15.8916ZM18.9999 30.9863C19 30.9909 19 30.9954 19 31L19 41C19 41.5347 19.4206 41.9747 19.9547 41.999C20.4888 42.0232 20.9475 41.623 20.9959 41.0905L21.9215 30.9095C21.9683 30.3944 22.4002 30 22.9174 30H25.0827C25.5999 30 26.0317 30.3944 26.0786 30.9095L27.0041 41.0905C27.0525 41.623 27.5112 42.0232 28.0453 41.999C28.5794 41.9747 29 41.5347 29 41V30L28.9999 29.9854L28.9999 29.9807V28.0263C28.9999 27.4766 29.4437 27.0299 29.9935 27.0264C30.5432 27.0228 30.9928 27.4637 30.9998 28.0134C31.0069 28.5594 31.4519 29 31.9998 29C32.552 29 32.9998 28.5523 32.9998 28C32.9998 27.4314 32.9933 26.9041 32.9878 26.4505C32.9877 26.4465 32.9877 26.4423 32.9876 26.4383C32.9858 26.2948 32.9842 26.1583 32.9829 26.0309C32.9771 25.4742 32.9787 25.1092 32.9959 24.914L32.9998 24.8701V24.8261C32.9997 22.6145 32.7248 20.7049 31.9784 19.3171C31.5959 18.6059 31.0794 18.0129 30.4015 17.6027C29.7226 17.1918 28.9408 17 28.0845 17H19.9772C19.1209 17 18.3392 17.1918 17.6603 17.6027C16.9824 18.0129 16.4659 18.6059 16.0834 19.3171C15.337 20.7049 15.062 22.6145 15.062 24.8261V24.8701L15.0659 24.914C15.0831 25.1092 15.0847 25.4742 15.0789 26.0309C15.0775 26.1616 15.0758 26.3021 15.074 26.4498C15.0685 26.9034 15.062 27.4314 15.062 28C15.062 28.5523 15.5097 29 16.062 29C16.5273 29 16.9206 28.6814 17.031 28.249C17.1558 27.7606 17.6245 27.4414 18.1246 27.5042C18.6248 27.5671 18.9999 27.9923 18.9999 28.4964V30.9863Z" fill="#333333"/>
<path fill-rule="evenodd" clip-rule="evenodd" d="M24 11C25.3807 11 26.5 9.88071 26.5 8.5C26.5 7.11929 25.3807 6 24 6C22.6193 6 21.5 7.11929 21.5 8.5C21.5 9.88071 22.6193 11 24 11ZM24 13C26.4853 13 28.5 10.9853 28.5 8.5C28.5 6.01472 26.4853 4 24 4C21.5147 4 19.5 6.01472 19.5 8.5C19.5 10.9853 21.5147 13 24 13Z" fill="#333333"/>
<path fill-rule="evenodd" clip-rule="evenodd" d="M19 21.5V34H17V21.5H19Z" fill="#333333"/>
<path fill-rule="evenodd" clip-rule="evenodd" d="M31 21.5V34H29V21.5H31Z" fill="#333333"/>
</svg>
