<svg width="48" height="48" viewBox="0 0 48 48" fill="none" xmlns="http://www.w3.org/2000/svg">
<path fill-rule="evenodd" clip-rule="evenodd" d="M32.5 13C33.8807 13 35 11.8807 35 10.5C35 9.11929 33.8807 8 32.5 8C31.1193 8 30 9.11929 30 10.5C30 11.8807 31.1193 13 32.5 13ZM32.5 15C34.9852 15 37 12.9853 37 10.5C37 8.01472 34.9852 6 32.5 6C30.0147 6 28 8.01472 28 10.5C28 12.9853 30.0147 15 32.5 15Z" fill="#333333"/>
<path fill-rule="evenodd" clip-rule="evenodd" d="M38.5 23V34H36.5V23H38.5Z" fill="#333333"/>
<path fill-rule="evenodd" clip-rule="evenodd" d="M31.5458 16C27.9855 16 25.3175 18.4708 23.7555 20.6332C23.4992 20.9879 23.2538 21.36 23.0223 21.7444L24 21.5L24.487 23.2047C24.7552 22.723 25.0535 22.2518 25.3768 21.8043C26.8048 19.8274 28.9518 18 31.5458 18H35.4542C36.243 18 36.9676 18.1757 37.599 18.5554C38.2297 18.9347 38.7089 19.4823 39.0625 20.1357C39.7509 21.4078 39.9999 23.1478 40 25.1435V25.1878L39.996 25.232C39.981 25.4014 39.9794 25.7244 39.9847 26.2267C39.9859 26.3405 39.9873 26.4627 39.9889 26.5912L39.9891 26.6013L39.9891 26.6035C39.9941 27.0119 40 27.4877 40 28C40 28.5523 39.5523 29 39 29C38.8162 29 38.6468 28.9513 38.5007 28.8668C38.1913 28.6879 37.8099 28.6876 37.5003 28.8662C37.4255 28.9093 37.3576 28.9614 37.2977 29.0205C36.8424 29.114 36.5 29.517 36.5 30V39.5C36.5 39.7645 36.2939 39.9833 36.0298 39.9991C35.7657 40.0149 35.535 39.8222 35.5035 39.5596L34.4928 31.1372C34.4325 30.6346 34.0062 30.2563 33.5 30.2563C32.9938 30.2563 32.5674 30.6346 32.5071 31.1372L31.4964 39.5596C31.4649 39.8222 31.2342 40.0149 30.9701 39.9991C30.706 39.9833 30.5 39.7645 30.5 39.5V30C30.5 29.9849 30.4996 29.9697 30.4989 29.9546L30.1389 22.0341C30.1215 21.6514 29.887 21.3123 29.5351 21.1609C29.1831 21.0095 28.7757 21.0725 28.4859 21.3231C27.9678 21.771 27.4676 22.3253 26.998 22.9754C26.3404 23.8859 25.8481 24.8425 25.5179 25.7034C25.4543 25.8695 25.3955 26.0348 25.3423 26.1981L26.3793 29.8275C26.7685 29.3215 27 28.6878 27 28C27 27.7119 27.1052 27.1499 27.3853 26.4195C27.5942 25.8748 27.8852 25.2763 28.2573 24.6838L28.5 30.0227V39.5C28.5 40.8228 29.5304 41.9166 30.8508 41.9955C32.1712 42.0745 33.3246 41.1112 33.4822 39.7979L33.5 39.6495L33.5178 39.7979C33.6754 41.1112 34.8288 42.0745 36.1492 41.9955C37.4696 41.9166 38.5 40.8228 38.5 39.5V30.9584C38.6628 30.9858 38.8299 31 39 31C40.6568 31 42 29.6569 42 28C42 27.4789 41.9941 26.9959 41.9891 26.5908L41.9889 26.5797L41.9889 26.578L41.9889 26.5767C41.9873 26.4443 41.9857 26.3203 41.9846 26.2059C41.9819 25.9482 41.9814 25.7588 41.9827 25.6231C41.9833 25.5553 41.9843 25.5038 41.9856 25.4657C41.9862 25.4468 41.9868 25.4327 41.9874 25.4224L41.9877 25.4165L41.9882 25.4088L41.996 25.3206C41.9987 25.2912 42 25.2617 42 25.2321V25.1435C41.9999 23.0478 41.7505 20.9006 40.8214 19.1838C40.329 18.2739 39.619 17.4364 38.6297 16.8415C37.6384 16.2453 36.5448 16 35.4542 16H31.5458Z" fill="#333333"/>
<path fill-rule="evenodd" clip-rule="evenodd" d="M15.5 13C16.8807 13 18 11.8807 18 10.5C18 9.11929 16.8807 8 15.5 8C14.1193 8 13 9.11929 13 10.5C13 11.8807 14.1193 13 15.5 13ZM15.5 15C17.9853 15 20 12.9853 20 10.5C20 8.01472 17.9853 6 15.5 6C13.0147 6 11 8.01472 11 10.5C11 12.9853 13.0147 15 15.5 15Z" fill="#333333"/>
<path fill-rule="evenodd" clip-rule="evenodd" d="M9.37023 16.8415C10.3616 16.2453 11.4552 16 12.5458 16H16.4542C20.0145 16 22.6825 18.4708 24.2445 20.6332C25.8285 22.826 27 25.6819 27 28C27 29.6569 25.6569 31 24 31C22.3431 31 21 29.6569 21 28C21 27.7119 20.8947 27.1499 20.6146 26.4195C20.4057 25.8748 20.1148 25.2763 19.7427 24.6838L19.5 30.0227L19.5 39.5C19.5 40.827 18.4632 41.9228 17.1383 41.9962C15.8133 42.0696 14.6618 41.095 14.5153 39.7761L14.5 39.6385L14.4847 39.7761C14.3382 41.095 13.1867 42.0696 11.8617 41.9962C10.5368 41.9228 9.5 40.827 9.5 39.5V30.9584C9.33718 30.9858 9.17011 31 9 31C7.34315 31 6 29.6569 6 28C6 27.4744 6.006 26.9877 6.01101 26.5805L6.01104 26.5787C6.01268 26.4454 6.01421 26.3209 6.01541 26.2059C6.01809 25.9482 6.01856 25.7588 6.0173 25.6231C6.01667 25.5553 6.01564 25.5038 6.01439 25.4657C6.01378 25.4468 6.01315 25.4327 6.0126 25.4224C6.01209 25.4129 6.01175 25.4087 6.01175 25.4087L6.00392 25.3206C6.00131 25.2912 6 25.2617 6 25.2321V25.1435C6.00002 23.0478 6.24949 20.9006 7.17857 19.1838C7.67098 18.2739 8.381 17.4364 9.37023 16.8415ZM10.7022 29.0205C11.1576 29.114 11.5 29.517 11.5 30V39.5C11.5 39.7654 11.7074 39.9846 11.9724 39.9992C12.2373 40.0139 12.4676 39.819 12.4969 39.5552L13.5061 30.4726C13.5624 29.9662 13.9905 29.5831 14.5 29.5831C15.0096 29.5831 15.4376 29.9662 15.4939 30.4726L16.5031 39.5552C16.5324 39.819 16.7627 40.0139 17.0276 39.9992C17.2926 39.9846 17.5 39.7654 17.5 39.5L17.5 30C17.5 29.9849 17.5003 29.9697 17.501 29.9546L17.8611 22.0341C17.8785 21.6514 18.113 21.3123 18.4649 21.1609C18.8168 21.0095 19.2243 21.0725 19.5141 21.3231C20.0321 21.771 20.5323 22.3253 21.0019 22.9754C21.6596 23.8859 22.1519 24.8425 22.482 25.7034C22.8045 26.5443 23 27.3663 23 28C23 28.5523 23.4477 29 24 29C24.5523 29 25 28.5523 25 28C25 26.2408 24.0568 23.7889 22.6232 21.8043C21.1952 19.8274 19.0482 18 16.4542 18H12.5458C11.757 18 11.0324 18.1757 10.401 18.5554C9.77026 18.9347 9.29111 19.4823 8.93751 20.1357C8.2491 21.4078 8.00002 23.1478 8 25.1435V25.1878L8.00392 25.232C8.01897 25.4014 8.02053 25.7244 8.0153 26.2267C8.01408 26.3439 8.01253 26.47 8.01089 26.6027C8.00586 27.0111 8 27.4876 8 28C8 28.5523 8.44772 29 9 29C9.1838 29 9.35321 28.9513 9.49928 28.8668C9.80866 28.6879 10.19 28.6876 10.4996 28.8662C10.5744 28.9094 10.6423 28.9614 10.7022 29.0205Z" fill="#333333"/>
<path fill-rule="evenodd" clip-rule="evenodd" d="M11.5 23V34H9.5V23H11.5Z" fill="#333333"/>
</svg>
