<svg width="48" height="48" viewBox="0 0 48 48" fill="none" xmlns="http://www.w3.org/2000/svg">
<path fill-rule="evenodd" clip-rule="evenodd" d="M15.76 18C13.4738 18 11.5199 19.1532 10.1634 20.7798C8.812 22.4004 8 24.5477 8 26.6899C8 27.2604 8.16901 27.8587 8.36506 28.3779C8.56739 28.9136 8.83077 29.4474 9.08395 29.9116C9.33859 30.3784 9.59186 30.7909 9.78096 31.0862C9.80108 31.1176 9.82051 31.1478 9.83918 31.1766C9.94415 31.3386 10 31.5275 10 31.7205V39C10 39.5523 10.4477 40 11 40C11.5523 40 12 39.5523 12 39V29.5646C12 29.5295 12.0018 29.4944 12.0055 29.4596C12.2726 26.9301 13.1584 24.6558 14.1539 22.8785C14.3492 22.5299 14.7331 22.331 15.1304 22.3726C15.5277 22.4141 15.8622 22.6882 15.9811 23.0696L16.7367 25.4937C16.867 25.9115 17.2538 26.1961 17.6914 26.1961H21C21.5523 26.1961 22 25.7484 22 25.1961C22 24.6438 21.5523 24.1961 21 24.1961H19.1629C18.7253 24.1961 18.3385 23.9115 18.2082 23.4937L16.7147 18.7024C16.5845 18.2846 16.1976 18 15.76 18ZM8.62741 19.499C10.2795 17.5178 12.7603 16 15.76 16C17.0729 16 18.2334 16.8538 18.6241 18.1072L19.8987 22.1961H21C22.6569 22.1961 24 23.5393 24 25.1961C24 26.853 22.6569 28.1961 21 28.1961H17.6914C16.3945 28.1961 15.2464 27.363 14.842 26.1345C14.4412 27.2088 14.1353 28.3835 14 29.6182V39C14 40.6569 12.6569 42 11 42C9.34315 42 8 40.6569 8 39V32.0124C7.80707 31.7057 7.56911 31.311 7.3282 30.8693C7.04946 30.3584 6.74028 29.7365 6.49404 29.0845C6.26553 28.4794 6 27.6162 6 26.6899C6 24.062 6.98763 21.4654 8.62741 19.499Z" fill="#333333"/>
<path fill-rule="evenodd" clip-rule="evenodd" d="M19.5 13C20.8807 13 22 11.8807 22 10.5C22 9.11929 20.8807 8 19.5 8C18.1193 8 17 9.11929 17 10.5C17 11.8807 18.1193 13 19.5 13ZM19.5 15C21.9853 15 24 12.9853 24 10.5C24 8.01472 21.9853 6 19.5 6C17.0147 6 15 8.01472 15 10.5C15 12.9853 17.0147 15 19.5 15Z" fill="#333333"/>
<path fill-rule="evenodd" clip-rule="evenodd" d="M15.6425 8.9855C15.9267 8.51192 16.5409 8.35836 17.0145 8.64251C18.6959 9.65135 19.7154 9.61658 21.7853 9.546C22.4115 9.52464 23.134 9.5 24 9.5C24.5523 9.5 25 9.94772 25 10.5C25 11.0523 24.5523 11.5 24 11.5C23.3197 11.5 22.6973 11.5235 22.1128 11.5456C19.8865 11.6296 18.2111 11.6928 15.9855 10.3575C15.5119 10.0733 15.3584 9.45908 15.6425 8.9855Z" fill="#333333"/>
<path fill-rule="evenodd" clip-rule="evenodd" d="M37.5 16C38.8807 16 40 14.8807 40 13.5C40 12.1193 38.8807 11 37.5 11C36.1193 11 35 12.1193 35 13.5C35 14.8807 36.1193 16 37.5 16ZM37.5 18C39.9853 18 42 15.9853 42 13.5C42 11.0147 39.9853 9 37.5 9C35.0147 9 33 11.0147 33 13.5C33 15.9853 35.0147 18 37.5 18Z" fill="#333333"/>
<path fill-rule="evenodd" clip-rule="evenodd" d="M31.0442 16.0605C32.417 15.7808 33.8029 16.4892 34.3788 17.7696L36.7615 23.0669H39C40.6569 23.0669 42 24.41 42 26.0669C42 27.7237 40.6569 29.0669 39 29.0669H35.0667C35.206 29.1677 35.3405 29.2665 35.4693 29.3621C36.0878 29.8214 36.6379 30.2568 37.0518 30.597C37.2583 30.7667 37.4384 30.9188 37.581 31.0432L37.5901 31.0511C37.5901 31.0512 37.59 31.0511 37.5901 31.0511C37.5927 31.0534 37.5957 31.056 37.5988 31.0587C37.6815 31.1307 37.9129 31.3322 38.0913 31.5387C38.3018 31.7822 38.4919 32.082 38.576 32.2144L38.5813 32.2228C38.7055 32.4186 38.8491 32.6547 38.9989 32.9057C39.3002 33.4103 39.665 34.0392 40.0227 34.66C40.2277 35.0159 40.4277 35.3642 40.6133 35.6874L40.6146 35.6897C41.1129 36.5577 41.4864 37.2076 41.601 37.3874C42.4918 38.7845 42.0813 40.6391 40.6842 41.5298C39.2872 42.4205 37.4326 42.0101 36.5418 40.613C36.3438 40.3024 35.8587 39.4573 35.3582 38.5852L35.3321 38.5398L35.3292 38.5347C35.1614 38.2423 34.9901 37.9439 34.8238 37.6553C34.4679 37.0374 34.1229 36.4431 33.8473 35.9814C33.7252 35.777 33.6241 35.6109 33.5459 35.4862C33.4656 35.4177 33.3637 35.3322 33.2424 35.2325C32.8975 34.9491 32.4248 34.5747 31.8921 34.1791C31.5777 33.9457 31.2568 33.7157 30.9398 33.4982C30.6535 33.4808 30.3805 33.3406 30.2001 33.1L30.0739 32.9318C29.5935 32.6346 29.1711 32.4057 28.8395 32.2667C28.6297 32.1786 28.4847 32.1488 28.3723 32.1372C28.2479 32.1243 28.1325 32.1294 27.9267 32.1418L27.8814 32.1445C27.7746 32.151 27.5406 32.1652 27.2995 32.1566C27.0505 32.1478 26.4759 32.1111 25.8535 31.8045C24.0986 30.9403 24 29.1778 24 28.6669C24 23.78 25.3214 20.6094 27.0587 18.6137C27.9087 17.6374 28.7933 17.0198 29.5198 16.6373C29.881 16.4472 30.2006 16.3163 30.4555 16.2274C30.5831 16.1829 30.6949 16.1488 30.7882 16.1229C30.8349 16.1099 30.877 16.099 30.9143 16.0898M31.4078 31.4192C31.4491 31.4385 31.4893 31.4608 31.5282 31.4861C32.0449 31.8219 32.5766 32.1963 33.0845 32.5735C33.6458 32.9903 34.1443 33.385 34.5122 33.6873C34.6963 33.8386 34.8452 33.9648 34.9513 34.0573L34.9524 34.0582L34.9688 34.0726C35.0376 34.1328 35.0978 34.2022 35.1478 34.2788C35.1635 34.3029 35.1822 34.3318 35.2039 34.3661C35.2998 34.5171 35.4221 34.7177 35.5645 34.9562C35.8487 35.4322 36.2003 36.038 36.5568 36.6569C36.7242 36.9474 36.8964 37.2474 37.0642 37.5398C37.0645 37.5403 37.0648 37.5408 37.0651 37.5413C37.594 38.4629 38.0592 39.2726 38.2282 39.5378C38.5251 40.0035 39.1433 40.1403 39.609 39.8434C40.0747 39.5465 40.2115 38.9283 39.9146 38.4626C39.7709 38.2372 39.3785 37.5537 38.9163 36.7485L38.8821 36.6889L38.8803 36.6858C38.6942 36.3617 38.4944 36.0136 38.2898 35.6584C37.9327 35.0386 37.5745 34.4212 37.2817 33.9309C37.1356 33.6862 37.0027 33.4679 36.8926 33.2944C36.8496 33.2266 36.7975 33.145 36.7392 33.0603C36.6794 32.9735 36.6239 32.8994 36.5781 32.8464C36.5458 32.809 36.4952 32.7577 36.4329 32.6995C36.3733 32.6437 36.3172 32.5948 36.2759 32.5588L36.2664 32.5504C36.142 32.4419 35.9773 32.3027 35.782 32.1422C35.3911 31.8209 34.8668 31.4058 34.2769 30.9678C33.2113 30.1765 31.8523 29.2498 30.6641 28.7005C30.258 28.5127 30.026 28.078 30.0961 27.6361C30.2856 26.4418 30.6043 25.3193 31.0487 24.2335C31.2001 23.8635 31.5573 23.6193 31.9571 23.6124C32.3568 23.6056 32.7222 23.8375 32.8861 24.2021L33.9094 26.4771C34.0709 26.836 34.4279 27.0669 34.8214 27.0669H39C39.5523 27.0669 40 26.6192 40 26.0669C40 25.5146 39.5523 25.0669 39 25.0669H36.1148C35.7213 25.0669 35.3643 24.836 35.2028 24.4771L32.5548 18.59C32.3846 18.2115 32.0021 17.983 31.5986 18.0011C31.4851 18.0467 31.3649 18.0708 31.2443 18.0731C31.2058 18.0849 31.1622 18.0991 31.1141 18.1159C30.9445 18.175 30.717 18.2672 30.4515 18.407C29.9192 18.6873 29.2374 19.1571 28.5672 19.9269C27.2146 21.4807 26 24.1485 26 28.6669C26 29.0362 26.0854 29.6893 26.7371 30.0103C26.9858 30.1328 27.2287 30.1528 27.3703 30.1579C27.5092 30.1628 27.6599 30.1543 27.7679 30.1477L27.807 30.1454C27.807 30.1454 27.807 30.1454 27.807 30.1454C28.2546 30.1185 28.8116 30.0861 29.6132 30.4224C30.1287 30.6386 30.7138 30.969 31.2968 31.3377C31.3357 31.3623 31.3728 31.3895 31.4078 31.4192ZM31.4139 18.0267L31.4152 18.0264L31.4255 18.0241L31.4278 18.0236L31.4301 18.0231C31.43 18.0231 31.4302 18.0231 31.4301 18.0231M30.9143 16.0898C30.9329 16.0853 30.9503 16.0811 30.9665 16.0774L30.9699 16.0766L30.9915 16.0718L31.0016 16.0695L31.0064 16.0685C31.007 16.0684 31.0079 16.0681 31.0091 16.0679C31.0146 16.0666 31.0266 16.0637 31.0442 16.0605" fill="#333333"/>
<path d="M16 32H31V35H16V32Z" fill="#333333"/>
<path d="M16 42V34H18V42H16Z" fill="#333333"/>
<path d="M29 42V34H31V42H29Z" fill="#333333"/>
<path d="M27 10.5C27 11.8807 26.3284 13 25.5 13C24.6716 13 24 11.8807 24 10.5C24 9.11929 24.6716 8 25.5 8C26.3284 8 27 9.11929 27 10.5Z" fill="#333333"/>
</svg>
