<svg width="48" height="48" viewBox="0 0 48 48" fill="none" xmlns="http://www.w3.org/2000/svg">
<path fill-rule="evenodd" clip-rule="evenodd" d="M25.3262 28H14.3262V26H25.3262V28Z" fill="#333333"/>
<path fill-rule="evenodd" clip-rule="evenodd" d="M10.127 17.1247L10.1385 17.1492C11.4517 19.9632 12.9468 21.4372 14.6233 22.1657L15.8261 22.6885V29C15.8261 29.1189 15.8941 29.5184 16.1997 29.9917C16.4839 30.4318 16.9343 30.8718 17.6108 31.1604C17.8014 31.2417 18.0158 31.3437 18.1974 31.4301C18.2333 31.4472 18.2679 31.4636 18.3008 31.4792C18.523 31.5844 18.7289 31.6795 18.9342 31.7628C19.3696 31.9395 19.655 32 19.8261 32C19.9972 32 20.2826 31.9395 20.7181 31.7628C20.9233 31.6795 21.1293 31.5844 21.3514 31.4792C21.3843 31.4636 21.4189 31.4472 21.4548 31.4301C21.6365 31.3437 21.8508 31.2417 22.0414 31.1604C22.7179 30.8718 23.1683 30.4318 23.4525 29.9917C23.7581 29.5184 23.8261 29.1189 23.8261 29V22.6885L25.029 22.1657C26.7054 21.4372 28.2005 19.9632 29.5138 17.1492L29.5252 17.1247L29.5373 17.1005C29.5727 17.0298 29.6591 16.7778 29.6518 16.4969C29.6457 16.2629 29.5817 16.079 29.4119 15.9092C29.2618 15.7591 29.1461 15.6896 29.0733 15.6559C29.0022 15.623 28.9405 15.6094 28.8785 15.6056C28.7407 15.5972 28.5212 15.6351 28.2133 15.7875C28.2229 15.7828 28.2282 15.7801 28.2288 15.7809C28.232 15.7853 28.0854 15.8987 27.6873 16.3739C27.6101 16.4661 27.5243 16.5706 27.4309 16.6842C27.0837 17.1069 26.6326 17.6559 26.1351 18.1676C24.801 19.5399 22.8168 20.995 19.8261 20.995C16.8355 20.995 14.8512 19.5399 13.5171 18.1676C13.0196 17.6559 12.5686 17.1069 12.2213 16.6842C12.128 16.5706 12.0421 16.4661 11.9649 16.3739C11.5668 15.8987 11.4202 15.7853 11.4234 15.7809C11.4239 15.7802 11.4272 15.7817 11.4332 15.7847C11.1284 15.6347 10.9106 15.5972 10.7737 15.6056C10.7118 15.6094 10.65 15.623 10.5789 15.6559C10.5061 15.6896 10.3904 15.7591 10.2403 15.9092C10.0705 16.079 10.0065 16.2629 10.0004 16.4969C9.99313 16.7778 10.0796 17.0298 10.115 17.1005L10.127 17.1247ZM31.3261 17.995C31.6595 17.3283 32.0261 15.695 30.8261 14.495C29.6261 13.295 28.3261 13.5001 27.3261 13.995C26.8645 14.2235 26.4028 14.785 25.8537 15.4528C24.6186 16.9549 22.9412 18.995 19.8261 18.995C16.7111 18.995 15.0336 16.9549 13.7985 15.4528C13.2494 14.785 12.7878 14.2235 12.3261 13.995C11.3261 13.5001 10.0261 13.295 8.8261 14.495C7.6261 15.695 7.99277 17.3283 8.3261 17.995C9.77504 21.0998 11.5693 23.0192 13.8261 24V29C13.8261 30.1218 14.6754 32.0826 16.8261 33C16.9753 33.0636 17.1431 33.1434 17.3253 33.23C18.0285 33.5643 18.945 34 19.8261 34C20.7072 34 21.6238 33.5643 22.3269 33.23C22.5091 33.1434 22.6769 33.0636 22.8261 33C24.9768 32.0826 25.8261 30.1218 25.8261 29V24C28.083 23.0192 29.8772 21.0998 31.3261 17.995Z" fill="#333333"/>
<path fill-rule="evenodd" clip-rule="evenodd" d="M19.8262 15C22.0353 15 23.8262 13.2091 23.8262 11C23.8262 8.79086 22.0353 7 19.8262 7C17.617 7 15.8262 8.79086 15.8262 11C15.8262 13.2091 17.617 15 19.8262 15ZM19.8262 17C23.1399 17 25.8262 14.3137 25.8262 11C25.8262 7.68629 23.1399 5 19.8262 5C16.5125 5 13.8262 7.68629 13.8262 11C13.8262 14.3137 16.5125 17 19.8262 17Z" fill="#333333"/>
<path fill-rule="evenodd" clip-rule="evenodd" d="M15.6354 30.7931C13.9323 32.1014 12.8262 34.1878 12.8262 36.5458C12.8262 37.3618 12.9875 38.5863 13.3989 39.5684C13.8241 40.5831 14.3488 41.0001 14.9373 41.0001C15.5913 41.0001 16.1595 40.4516 16.1595 39.7275C16.1595 39.4073 16.0365 39.0948 15.7986 38.5501C15.7922 38.5353 15.7856 38.5203 15.7789 38.5051C15.5689 38.0248 15.2706 37.3429 15.2706 36.5458C15.2706 35.6643 15.6678 34.7531 16.1081 34.0379C16.5575 33.3078 17.1535 32.618 17.7366 32.1923L18.9157 33.8078C18.5955 34.0415 18.1637 34.5138 17.8112 35.0864C17.4496 35.6738 17.2706 36.2058 17.2706 36.5458C17.2706 36.8871 17.3976 37.2141 17.6315 37.7498C17.6405 37.7705 17.6498 37.7915 17.6592 37.8131C17.8656 38.284 18.1595 38.9548 18.1595 39.7275C18.1595 41.5136 16.7379 43.0001 14.9373 43.0001C13.1121 43.0001 12.0813 41.599 11.5543 40.3412C11.0136 39.0507 10.8262 37.5481 10.8262 36.5458C10.8262 33.5505 12.2339 30.884 14.417 29.207L15.6354 30.7931ZM26.8262 36.5458C26.8262 34.1878 25.7201 32.1014 24.017 30.7931L25.2354 29.207C27.4185 30.884 28.8262 33.5505 28.8262 36.5458C28.8262 37.4722 28.6164 38.97 28.0729 40.2705C27.5548 41.5104 26.5337 43.0001 24.7151 43.0001C22.9145 43.0001 21.4928 41.5136 21.4928 39.7275C21.4928 38.9711 21.7851 38.2968 21.9896 37.8247C21.9997 37.8015 22.0096 37.7788 22.0191 37.7565C22.2542 37.2118 22.3817 36.8784 22.3817 36.5458C22.3817 36.2058 22.2028 35.6738 21.8411 35.0864C21.4886 34.5138 21.0568 34.0415 20.7366 33.8078L21.9157 32.1923C22.4988 32.618 23.0948 33.3078 23.5443 34.0379C23.9846 34.7531 24.3817 35.6643 24.3817 36.5458C24.3817 37.3317 24.0842 38.02 23.8752 38.5032C23.8685 38.5187 23.8619 38.534 23.8554 38.5491C23.6156 39.1048 23.4928 39.4204 23.4928 39.7275C23.4928 40.4516 24.0611 41.0001 24.7151 41.0001C25.2421 41.0001 25.7766 40.5785 26.2276 39.4993C26.6533 38.4806 26.8262 37.2513 26.8262 36.5458Z" fill="#333333"/>
<path fill-rule="evenodd" clip-rule="evenodd" d="M34.1309 39L35.7309 37.8L35.1309 37C35.7309 37.8 35.7305 37.8003 35.7309 37.8L35.7323 37.7989L35.7341 37.7976L35.7384 37.7943L35.7505 37.785C35.7601 37.7777 35.7725 37.7679 35.7877 37.7559C35.8181 37.7317 35.8595 37.6982 35.9106 37.6551C36.0127 37.569 36.1536 37.4449 36.3222 37.2827C36.6591 36.9585 37.1089 36.4799 37.5813 35.8459C38.5263 34.5777 39.5688 32.6775 39.9656 30.1486C40.1718 28.8348 39.4263 27.7651 38.3859 27.2804C38.8458 26.8271 39.1309 26.1968 39.1309 25.5V17.0002C39.1309 17.0004 39.1309 17.0001 39.1309 17.0002L39.1309 11.5C39.1309 10.1193 38.0116 9 36.6309 9C35.2501 9 34.1309 10.1193 34.1309 11.5L34.1309 25.5C34.1309 26.3936 34.5996 27.1776 35.3047 27.6197C34.5909 28.1681 34.1309 29.0303 34.1309 30L34.1309 39ZM36.1309 20.4142V22.5858L37.1309 21.5858V19.4142L36.1309 20.4142ZM37.1309 16.5858L36.1309 17.5858L36.1309 11.5C36.1309 11.2239 36.3547 11 36.6309 11C36.907 11 37.1309 11.2239 37.1309 11.5L37.1309 16.5858ZM37.1309 25.5V24.4142L36.1309 25.4142V25.5C36.1309 25.7761 36.3547 26 36.6309 26C36.907 26 37.1309 25.7761 37.1309 25.5ZM37.9898 29.8386C37.6752 31.8438 36.8832 33.3766 36.1309 34.4398L36.1309 30C36.1309 29.4477 36.5786 29 37.1309 29C37.7343 29 38.0491 29.4606 37.9898 29.8386Z" fill="#333333"/>
</svg>
