<svg width="48" height="48" viewBox="0 0 48 48" fill="none" xmlns="http://www.w3.org/2000/svg">
<path fill-rule="evenodd" clip-rule="evenodd" d="M24 24C28.4183 24 32 20.4183 32 16C32 11.5817 28.4183 8 24 8C19.5817 8 16 11.5817 16 16C16 20.4183 19.5817 24 24 24ZM24 26C29.5228 26 34 21.5228 34 16C34 10.4772 29.5228 6 24 6C18.4772 6 14 10.4772 14 16C14 21.5228 18.4772 26 24 26Z" fill="#333333"/>
<path fill-rule="evenodd" clip-rule="evenodd" d="M13 36V31H15V36H13Z" fill="#333333"/>
<path fill-rule="evenodd" clip-rule="evenodd" d="M27.0957 35.7433C26.21 35.8902 25.1599 36 24 36C20.5 36 18 35 18 35H13C12.4477 35 12 35.4477 12 36V40V42H14H29.5436C28.9124 41.5084 28.4912 40.9181 28.2199 40.4592C28.1295 40.3063 28.0468 40.1525 27.9709 40H14V37H17.6514C17.7053 37.0183 17.7643 37.0379 17.8283 37.0587C18.1639 37.1675 18.639 37.3079 19.2294 37.4468C20.4068 37.7239 22.0634 38 24 38C25.1834 38 26.2622 37.8969 27.191 37.7535C27.1719 37.6709 27.155 37.5936 27.1399 37.5225C27.1053 37.3583 27.0797 37.2205 27.062 37.1184C27.0532 37.0673 27.0462 37.0246 27.041 36.9917L27.0345 36.9496L27.0322 36.9341L27.0313 36.9278L27.0309 36.9251L27.0307 36.9238C27.0306 36.9234 27.0306 36.9229 28 36.7834V36.7832L27.0305 36.9225C26.9726 36.5193 26.998 36.1196 27.0957 35.7433ZM34.5 39.2887L34 39.2168V39.2166L34.5 39.2886V39.2887Z" fill="#333333"/>
<path fill-rule="evenodd" clip-rule="evenodd" d="M36 26.5C36.5523 26.5 37 26.9477 37 27.5V42C37 42.5523 36.5523 43 36 43C35.4477 43 35 42.5523 35 42V27.5C35 26.9477 35.4477 26.5 36 26.5Z" fill="#333333"/>
<path fill-rule="evenodd" clip-rule="evenodd" d="M38.6034 37.0011C38.319 37.0096 38.1457 37.0643 38.0533 37.1199C37.9575 37.1775 37.8185 37.3135 37.6633 37.5762C37.5132 37.8301 37.3843 38.1405 37.2787 38.4612C37.2368 38.5882 37.2 38.7128 37.1678 38.8309C37.2704 38.8573 37.3788 38.8827 37.4907 38.9055C37.8052 38.9695 38.1197 39.0071 38.3965 38.9989C38.6809 38.9904 38.8542 38.9357 38.9467 38.8801C39.0424 38.8225 39.1814 38.6865 39.3366 38.4238C39.4867 38.1699 39.6157 37.8595 39.7213 37.5388C39.7631 37.4118 39.8 37.2872 39.8321 37.1691C39.7296 37.1427 39.6212 37.1173 39.5093 37.0945C39.1948 37.0305 38.8802 36.9929 38.6034 37.0011ZM41 36.4958C41.9898 36.638 41.9898 36.6382 41.9897 36.6384L41.9895 36.6401L41.9891 36.6431L41.9878 36.6519L41.9834 36.6802C41.9797 36.7036 41.9744 36.7362 41.9673 36.7769C41.9533 36.858 41.9322 36.9718 41.9031 37.1094C41.8454 37.3829 41.7544 37.7591 41.6209 38.1644C41.4888 38.5657 41.3066 39.0215 41.0584 39.4415C40.8153 39.8528 40.4687 40.2984 39.9778 40.5938C39.4835 40.8912 38.9307 40.9839 38.4559 40.998C37.9735 41.0123 37.4959 40.9476 37.0915 40.8652C36.683 40.782 36.3209 40.6749 36.0622 40.5894C35.9319 40.5463 35.8255 40.508 35.75 40.4797C35.7122 40.4656 35.6819 40.4539 35.6601 40.4453L35.6337 40.4348L35.6254 40.4315L35.6226 40.4303L35.6214 40.4298C35.6212 40.4297 35.6205 40.4295 36 39.5042C35.0101 39.362 35.0102 39.3618 35.0102 39.3615L35.0104 39.3599L35.0109 39.3569L35.0122 39.3481L35.0166 39.3198C35.0203 39.2964 35.0256 39.2638 35.0326 39.2231C35.0467 39.142 35.0677 39.0282 35.0968 38.8906C35.1545 38.6171 35.2456 38.2409 35.379 37.8356C35.5112 37.4343 35.6933 36.9785 35.9416 36.5585C36.1847 36.1472 36.5312 35.7016 37.0222 35.4062C37.5164 35.1088 38.0692 35.0161 38.544 35.002C39.0264 34.9877 39.5041 35.0524 39.9085 35.1348C40.3169 35.218 40.6791 35.3251 40.9378 35.4106C41.0681 35.4537 41.1744 35.492 41.2499 35.5203C41.2878 35.5344 41.318 35.5461 41.3398 35.5547L41.3662 35.5652L41.3745 35.5685L41.3774 35.5697L41.3785 35.5702C41.3787 35.5703 41.3794 35.5705 41 36.4958ZM36 39.5042L35.0102 39.3615C34.945 39.8152 35.1974 40.2559 35.6214 40.4298L36 39.5042ZM41 36.4958L41.3785 35.5702C41.8026 35.7441 42.0549 36.1848 41.9897 36.6384L41 36.4958Z" fill="#333333"/>
<path fill-rule="evenodd" clip-rule="evenodd" d="M30 36.4958C29.0101 36.638 29.0102 36.6382 29.0102 36.6384L29.0104 36.6401L29.0109 36.6431L29.0122 36.6519L29.0166 36.6802C29.0203 36.7036 29.0256 36.7362 29.0326 36.7769C29.0467 36.858 29.0677 36.9718 29.0968 37.1094C29.1545 37.3829 29.2456 37.7591 29.379 38.1644C29.5112 38.5657 29.6933 39.0215 29.9416 39.4415C30.1847 39.8528 30.5312 40.2984 31.0222 40.5938C31.5164 40.8912 32.0692 40.9839 32.544 40.998C33.0264 41.0123 33.5041 40.9476 33.9085 40.8652C34.3169 40.782 34.6791 40.6749 34.9378 40.5894C35.0681 40.5463 35.1744 40.508 35.2499 40.4797C35.2878 40.4656 35.318 40.4539 35.3398 40.4453L35.3662 40.4348L35.3745 40.4315L35.3774 40.4303L35.3785 40.4298C35.3787 40.4297 35.3794 40.4295 35 39.5042L35.3785 40.4298C35.8026 40.2559 36.055 39.8156 35.9898 39.362L35 39.5042C35.9898 39.362 35.9898 39.3622 35.9898 39.362L35.9895 39.3599L35.9891 39.3569L35.9878 39.3481L35.9834 39.3198C35.9797 39.2964 35.9744 39.2638 35.9673 39.2231C35.9533 39.142 35.9322 39.0282 35.9031 38.8906C35.8454 38.6171 35.7544 38.2409 35.6209 37.8356C35.4888 37.4343 35.3066 36.9785 35.0584 36.5585C34.8153 36.1472 34.4687 35.7016 33.9778 35.4062C33.4835 35.1088 32.9307 35.0161 32.4559 35.002C31.9735 34.9877 31.4959 35.0524 31.0915 35.1348C30.683 35.218 30.3209 35.3251 30.0622 35.4106C29.9319 35.4537 29.8255 35.492 29.75 35.5203C29.7122 35.5344 29.6819 35.5461 29.6601 35.5547L29.6337 35.5652L29.6254 35.5685L29.6226 35.5697L29.6214 35.5702C29.6212 35.5703 29.6205 35.5705 30 36.4958ZM31.1678 37.1691C31.2704 37.1427 31.3788 37.1173 31.4907 37.0945C31.8052 37.0305 32.1197 36.9929 32.3965 37.0011C32.6809 37.0096 32.8542 37.0643 32.9467 37.1199C33.0424 37.1775 33.1814 37.3135 33.3366 37.5762C33.4867 37.8301 33.6157 38.1405 33.7213 38.4612C33.7631 38.5882 33.8 38.7128 33.8321 38.8309C33.7296 38.8573 33.6212 38.8827 33.5093 38.9055C33.1948 38.9695 32.8802 39.0071 32.6034 38.9989C32.319 38.9904 32.1457 38.9357 32.0533 38.8801C31.9575 38.8225 31.8185 38.6865 31.6633 38.4238C31.5132 38.1699 31.3843 37.8595 31.2787 37.5388C31.2368 37.4118 31.2 37.2872 31.1678 37.1691ZM30 36.4958L29.6214 35.5702C29.1974 35.7441 28.945 36.1848 29.0102 36.6384L30 36.4958Z" fill="#333333"/>
<path fill-rule="evenodd" clip-rule="evenodd" d="M38.6034 30.0011C38.319 30.0096 38.1457 30.0643 38.0533 30.1199C37.9575 30.1775 37.8185 30.3135 37.6633 30.5762C37.5132 30.8301 37.3843 31.1405 37.2787 31.4612C37.2368 31.5882 37.2 31.7128 37.1678 31.8309C37.2704 31.8573 37.3788 31.8827 37.4907 31.9055C37.8052 31.9695 38.1197 32.0071 38.3965 31.9989C38.6809 31.9904 38.8542 31.9357 38.9467 31.8801C39.0424 31.8225 39.1814 31.6865 39.3366 31.4238C39.4867 31.1699 39.6157 30.8595 39.7213 30.5388C39.7631 30.4118 39.8 30.2872 39.8321 30.1691C39.7296 30.1427 39.6212 30.1173 39.5093 30.0945C39.1948 30.0305 38.8802 29.9929 38.6034 30.0011ZM41 29.4958C41.9898 29.638 41.9898 29.6382 41.9897 29.6384L41.9895 29.6401L41.9891 29.6431L41.9878 29.6519L41.9834 29.6802C41.9797 29.7036 41.9744 29.7362 41.9673 29.7769C41.9533 29.858 41.9322 29.9718 41.9031 30.1094C41.8454 30.3829 41.7544 30.7591 41.6209 31.1644C41.4888 31.5657 41.3066 32.0215 41.0584 32.4415C40.8153 32.8528 40.4687 33.2984 39.9778 33.5938C39.4835 33.8912 38.9307 33.9839 38.4559 33.998C37.9735 34.0123 37.4959 33.9476 37.0915 33.8652C36.683 33.782 36.3209 33.6749 36.0622 33.5894C35.9319 33.5463 35.8255 33.508 35.75 33.4797C35.7122 33.4656 35.6819 33.4539 35.6601 33.4453L35.6337 33.4348L35.6254 33.4315L35.6226 33.4303L35.6214 33.4298C35.6212 33.4297 35.6205 33.4295 36 32.5042C35.0101 32.362 35.0102 32.3618 35.0102 32.3615L35.0104 32.3599L35.0109 32.3569L35.0122 32.3481L35.0166 32.3198C35.0203 32.2964 35.0256 32.2638 35.0326 32.2231C35.0467 32.142 35.0677 32.0282 35.0968 31.8906C35.1545 31.6171 35.2456 31.2409 35.379 30.8356C35.5112 30.4343 35.6933 29.9785 35.9416 29.5585C36.1847 29.1472 36.5312 28.7016 37.0222 28.4062C37.5164 28.1088 38.0692 28.0161 38.544 28.002C39.0264 27.9877 39.5041 28.0524 39.9085 28.1348C40.3169 28.218 40.6791 28.3251 40.9378 28.4106C41.0681 28.4537 41.1744 28.492 41.2499 28.5203C41.2878 28.5344 41.318 28.5461 41.3398 28.5547L41.3662 28.5652L41.3745 28.5685L41.3774 28.5697L41.3785 28.5702C41.3787 28.5703 41.3794 28.5705 41 29.4958ZM36 32.5042L35.0102 32.3615C34.945 32.8152 35.1974 33.2559 35.6214 33.4298L36 32.5042ZM41 29.4958L41.3785 28.5702C41.8026 28.7441 42.0549 29.1848 41.9897 29.6384L41 29.4958Z" fill="#333333"/>
<path fill-rule="evenodd" clip-rule="evenodd" d="M36 25.6391C36.0804 25.5558 36.1634 25.466 36.246 25.3712C36.4669 25.1176 36.667 24.8481 36.8076 24.5877C36.9522 24.3198 37 24.1242 37 24.0001C37 23.8759 36.9522 23.6803 36.8076 23.4124C36.667 23.152 36.4669 22.8825 36.246 22.6289C36.1634 22.5341 36.0804 22.4443 36 22.361C35.9196 22.4443 35.8366 22.5341 35.754 22.6289C35.5331 22.8825 35.333 23.152 35.1924 23.4124C35.0478 23.6803 35 23.8759 35 24.0001C35 24.1242 35.0478 24.3198 35.1924 24.5877C35.333 24.8481 35.5331 25.1176 35.754 25.3712C35.8366 25.466 35.9196 25.5558 36 25.6391ZM36 21.0001C35.3772 20.2177 35.3771 20.2178 35.3769 20.2179L35.3755 20.219L35.3731 20.2209L35.3661 20.2266L35.3437 20.2448C35.3252 20.26 35.2997 20.2811 35.2681 20.3079C35.205 20.3613 35.1173 20.4373 35.0131 20.5324C34.8062 20.7214 34.5276 20.9919 34.246 21.3152C33.9669 21.6355 33.667 22.0281 33.4326 22.4622C33.2022 22.8888 33 23.4201 33 24.0001C33 24.58 33.2022 25.1113 33.4326 25.5379C33.667 25.972 33.9669 26.3646 34.246 26.6849C34.5276 27.0082 34.8062 27.2787 35.0131 27.4677C35.1173 27.5628 35.205 27.6388 35.2681 27.6922C35.2997 27.719 35.3252 27.7402 35.3437 27.7553L35.3661 27.7735L35.3731 27.7792L35.3755 27.7811L35.3765 27.7819C35.3767 27.782 35.3772 27.7825 36 27.0001L35.3765 27.7819C35.741 28.072 36.2583 28.0726 36.6228 27.7825L36 27.0001C36.6228 27.7825 36.6226 27.7826 36.6228 27.7825L36.6245 27.7811L36.6269 27.7792L36.6339 27.7735L36.6563 27.7553C36.6748 27.7402 36.7003 27.719 36.7319 27.6922C36.795 27.6388 36.8827 27.5628 36.9869 27.4677C37.1938 27.2787 37.4724 27.0082 37.754 26.6849C38.0331 26.3646 38.333 25.972 38.5674 25.5379C38.7978 25.1113 39 24.58 39 24.0001C39 23.4201 38.7978 22.8888 38.5674 22.4622C38.333 22.0281 38.0331 21.6355 37.754 21.3152C37.4724 20.9919 37.1938 20.7214 36.9869 20.5324C36.8827 20.4373 36.795 20.3613 36.7319 20.3079C36.7003 20.2811 36.6748 20.26 36.6563 20.2448L36.6339 20.2266L36.6269 20.2209L36.6245 20.219L36.6235 20.2183C36.6233 20.2181 36.6228 20.2177 36 21.0001ZM36 21.0001L36.6235 20.2183C36.259 19.9281 35.7414 19.9278 35.3769 20.2179L36 21.0001Z" fill="#333333"/>
<path fill-rule="evenodd" clip-rule="evenodd" d="M30 29.4958C29.0101 29.638 29.0102 29.6382 29.0102 29.6384L29.0104 29.6401L29.0109 29.6431L29.0122 29.6519L29.0166 29.6802C29.0203 29.7036 29.0256 29.7362 29.0326 29.7769C29.0467 29.858 29.0677 29.9718 29.0968 30.1094C29.1545 30.3829 29.2456 30.7591 29.379 31.1644C29.5112 31.5657 29.6933 32.0215 29.9416 32.4415C30.1847 32.8528 30.5312 33.2984 31.0222 33.5938C31.5164 33.8912 32.0692 33.9839 32.544 33.998C33.0264 34.0123 33.5041 33.9476 33.9085 33.8652C34.3169 33.782 34.6791 33.6749 34.9378 33.5894C35.0681 33.5463 35.1744 33.508 35.2499 33.4797C35.2878 33.4656 35.318 33.4539 35.3398 33.4453L35.3662 33.4348L35.3745 33.4315L35.3774 33.4303L35.3785 33.4298C35.3787 33.4297 35.3794 33.4295 35 32.5042L35.3785 33.4298C35.8026 33.2559 36.055 32.8156 35.9898 32.362L35 32.5042C35.9898 32.362 35.9898 32.3622 35.9898 32.362L35.9895 32.3599L35.9891 32.3569L35.9878 32.3481L35.9834 32.3198C35.9797 32.2964 35.9744 32.2638 35.9673 32.2231C35.9533 32.142 35.9322 32.0282 35.9031 31.8906C35.8454 31.6171 35.7544 31.2409 35.6209 30.8356C35.4888 30.4343 35.3066 29.9785 35.0584 29.5585C34.8153 29.1472 34.4687 28.7016 33.9778 28.4062C33.4835 28.1088 32.9307 28.0161 32.4559 28.002C31.9735 27.9877 31.4959 28.0524 31.0915 28.1348C30.683 28.218 30.3209 28.3251 30.0622 28.4106C29.9319 28.4537 29.8255 28.492 29.75 28.5203C29.7122 28.5344 29.6819 28.5461 29.6601 28.5547L29.6337 28.5652L29.6254 28.5685L29.6226 28.5697L29.6214 28.5702C29.6212 28.5703 29.6205 28.5705 30 29.4958ZM31.1678 30.1691C31.2704 30.1427 31.3788 30.1173 31.4907 30.0945C31.8052 30.0305 32.1197 29.9929 32.3965 30.0011C32.6809 30.0096 32.8542 30.0643 32.9467 30.1199C33.0424 30.1775 33.1814 30.3135 33.3366 30.5762C33.4867 30.8301 33.6157 31.1405 33.7213 31.4612C33.7631 31.5882 33.8 31.7128 33.8321 31.8309C33.7296 31.8573 33.6212 31.8827 33.5093 31.9055C33.1948 31.9695 32.8802 32.0071 32.6034 31.9989C32.319 31.9904 32.1457 31.9357 32.0533 31.8801C31.9575 31.8225 31.8185 31.6865 31.6633 31.4238C31.5132 31.1699 31.3843 30.8595 31.2787 30.5388C31.2368 30.4118 31.2 30.2872 31.1678 30.1691ZM30 29.4958L29.6214 28.5702C29.1974 28.7441 28.945 29.1848 29.0102 29.6384L30 29.4958Z" fill="#333333"/>
<path fill-rule="evenodd" clip-rule="evenodd" d="M28 29.7833V29.7835L29 29.6397V29.6396L28 29.7833ZM29.5437 28.3832L29.7967 29.0001L29.5437 28.3832L29.5437 28.3832ZM28.1647 33.3643C27.8483 32.8087 27.6296 32.2461 27.4794 31.79C27.4415 31.675 27.4066 31.5623 27.3744 31.4531C27.016 31.7921 26.5323 32.0001 26 32.0001H22C20.9681 32.0001 20.1187 31.2185 20.0114 30.215C20.0039 30.1444 20 30.0727 20 30.0001V28.2063C19.348 28.2698 18.6776 28.3492 18 28.4458C12.26 29.2644 6 31.324 6 35.5385V40.0001V42.0001H8H29.5436C28.9124 41.5085 28.4912 40.9182 28.2199 40.4593C28.1295 40.3064 28.0468 40.1526 27.9709 40.0001H8V35.5385C8 34.4853 8.86717 33.2855 11.4721 32.1695C13.3457 31.3667 15.6907 30.8112 18.0265 30.4631C18.256 32.4541 19.9475 34.0001 22 34.0001H26C26.7977 34.0001 27.5408 33.7666 28.1647 33.3643Z" fill="#333333"/>
</svg>
