<svg width="48" height="48" viewBox="0 0 48 48" fill="none" xmlns="http://www.w3.org/2000/svg">
<path fill-rule="evenodd" clip-rule="evenodd" d="M20.5 12C21.6046 12 22.5 11.1046 22.5 10C22.5 8.89543 21.6046 8 20.5 8C19.3954 8 18.5 8.89543 18.5 10C18.5 11.1046 19.3954 12 20.5 12ZM20.5 14C22.7091 14 24.5 12.2091 24.5 10C24.5 7.79086 22.7091 6 20.5 6C18.2909 6 16.5 7.79086 16.5 10C16.5 12.2091 18.2909 14 20.5 14Z" fill="#333333"/>
<path fill-rule="evenodd" clip-rule="evenodd" d="M25 26.4371L26.1631 25.9013C27.3068 25.3744 29 23.8541 29 21.5714C29 20.1769 28.3947 19.3326 27.6921 18.7824C27.3207 18.4915 26.9182 18.2843 26.5656 18.1529C26.2625 18.04 26.0716 18.0101 26.0228 18.0025C26.0093 18.0004 26.0067 18 26.0155 18H9C8.44772 18 8 18.4477 8 19C8 19.5523 8.44772 20 9 20H16V39C16 39.5523 16.4477 40 17 40C17.5523 40 18 39.5523 18 39L18 29H23L23 39C23 39.5523 23.4477 40 24 40C24.5523 40 25 39.5523 25 39V26.4371ZM14 22H9C7.34315 22 6 20.6569 6 19C6 17.3431 7.34315 16 9 16H26.0155C27.1288 16 31 17.3636 31 21.5714C31 24.91 28.5629 26.9978 27 27.7178V39C27 40.6569 25.6569 42 24 42C23.0444 42 22.1931 41.5532 21.6438 40.8571C21.2406 40.3463 21 39.7012 21 39L21 31H20L20 39C20 39.7012 19.7594 40.3463 19.3562 40.8571C18.8069 41.5532 17.9556 42 17 42C15.3431 42 14 40.6569 14 39V22Z" fill="#333333"/>
<path d="M25 20C26.1046 20 27 20.8954 27 22C27 23.1046 26.1046 24 25 24V20Z" fill="#333333"/>
<path fill-rule="evenodd" clip-rule="evenodd" d="M36 17C36.5523 17 37 17.4477 37 18V40.9999C37 41.5522 36.5523 41.9999 36 41.9999C35.4477 41.9999 35 41.5522 35 40.9999V18C35 17.4477 35.4477 17 36 17Z" fill="#333333"/>
<path fill-rule="evenodd" clip-rule="evenodd" d="M36 16.639C36.0804 16.5557 36.1634 16.466 36.246 16.3712C36.4669 16.1175 36.667 15.8481 36.8076 15.5877C36.9522 15.3198 37 15.1241 37 15C37 14.8759 36.9522 14.6802 36.8076 14.4123C36.667 14.1519 36.4669 13.8825 36.246 13.6288C36.1634 13.534 36.0804 13.4443 36 13.361C35.9196 13.4443 35.8366 13.534 35.754 13.6288C35.5331 13.8825 35.333 14.1519 35.1924 14.4123C35.0478 14.6802 35 14.8759 35 15C35 15.1241 35.0478 15.3198 35.1924 15.5877C35.333 15.8481 35.5331 16.1175 35.754 16.3712C35.8366 16.466 35.9196 16.5557 36 16.639ZM36 12C35.3772 11.2176 35.3771 11.2177 35.3769 11.2179L35.3755 11.2189L35.3731 11.2209L35.3661 11.2265L35.3437 11.2447C35.3252 11.2599 35.2997 11.2811 35.2681 11.3078C35.205 11.3612 35.1173 11.4372 35.0131 11.5324C34.8062 11.7214 34.5276 11.9918 34.246 12.3151C33.9669 12.6355 33.667 13.028 33.4326 13.4621C33.2022 13.8887 33 14.4201 33 15C33 15.5799 33.2022 16.1113 33.4326 16.5379C33.667 16.972 33.9669 17.3645 34.246 17.6849C34.5276 18.0082 34.8062 18.2786 35.0131 18.4676C35.1173 18.5628 35.205 18.6388 35.2681 18.6922C35.2997 18.7189 35.3252 18.7401 35.3437 18.7553L35.3661 18.7735L35.3731 18.7791L35.3755 18.7811L35.3765 18.7818C35.3767 18.7819 35.3772 18.7824 36 18L35.3765 18.7818C35.741 19.0719 36.2583 19.0725 36.6228 18.7824L36 18C36.6228 18.7824 36.6226 18.7825 36.6228 18.7824L36.6245 18.7811L36.6269 18.7791L36.6339 18.7735L36.6563 18.7553C36.6748 18.7401 36.7003 18.7189 36.7319 18.6922C36.795 18.6388 36.8827 18.5628 36.9869 18.4676C37.1938 18.2786 37.4724 18.0082 37.754 17.6849C38.0331 17.3645 38.333 16.972 38.5674 16.5379C38.7978 16.1113 39 15.5799 39 15C39 14.4201 38.7978 13.8887 38.5674 13.4621C38.333 13.028 38.0331 12.6355 37.754 12.3151C37.4724 11.9918 37.1938 11.7214 36.9869 11.5324C36.8827 11.4372 36.795 11.3612 36.7319 11.3078C36.7003 11.2811 36.6748 11.2599 36.6563 11.2447L36.6339 11.2265L36.6269 11.2209L36.6245 11.2189L36.6235 11.2182C36.6233 11.2181 36.6228 11.2176 36 12ZM36 12L36.6235 11.2182C36.259 10.9281 35.7414 10.9277 35.3769 11.2179L36 12Z" fill="#333333"/>
<path fill-rule="evenodd" clip-rule="evenodd" d="M38.8748 36.1348C38.614 36.2088 38.4716 36.2974 38.4054 36.363C38.3381 36.4295 38.2454 36.5749 38.165 36.8416C38.0872 37.0995 38.0407 37.4046 38.0179 37.716C38.0107 37.8132 38.0061 37.9084 38.0033 37.9997C38.0887 37.999 38.1773 37.9966 38.2677 37.992C38.5735 37.9764 38.8725 37.9369 39.1253 37.8652C39.386 37.7912 39.5285 37.7026 39.5947 37.637C39.6619 37.5705 39.7547 37.4251 39.8351 37.1584C39.9129 36.9005 39.9594 36.5954 39.9822 36.284C39.9893 36.1868 39.994 36.0916 39.9967 36.0003C39.9114 36.001 39.8228 36.0034 39.7324 36.008C39.4266 36.0236 39.1276 36.0631 38.8748 36.1348ZM40.9681 35.0521C41.9625 34.9462 41.9625 34.9464 41.9626 34.9466L41.9627 34.9483L41.963 34.9512L41.9639 34.9598L41.9665 34.987C41.9686 35.0096 41.9713 35.0408 41.9743 35.0797C41.9803 35.1574 41.9874 35.2665 41.9926 35.3992C42.0029 35.6626 42.0064 36.028 41.9769 36.4302C41.9477 36.8285 41.8844 37.2902 41.7499 37.7359C41.6182 38.1728 41.3962 38.668 41.0016 39.0585C40.6059 39.4501 40.1092 39.665 39.6709 39.7893C39.2247 39.9158 38.7648 39.9692 38.3696 39.9894C37.9702 40.0097 37.6083 39.9975 37.3477 39.9806C37.2165 39.9721 37.1086 39.9623 37.0316 39.9543C36.9931 39.9503 36.9622 39.9468 36.9398 39.9441L36.9127 39.9408L36.9041 39.9397L36.9011 39.9393L36.9 39.9391C36.8997 39.9391 36.899 39.939 37.0319 38.9479C36.0376 39.0538 36.0375 39.0536 36.0375 39.0534L36.0373 39.0517L36.037 39.0488L36.0362 39.0402L36.0336 39.013C36.0315 38.9904 36.0288 38.9592 36.0258 38.9203C36.0198 38.8426 36.0127 38.7335 36.0075 38.6009C35.9971 38.3374 35.9937 37.972 36.0232 37.5698C36.0524 37.1715 36.1157 36.7098 36.2501 36.2641C36.3819 35.8272 36.6039 35.332 36.9985 34.9415C37.3941 34.5499 37.8909 34.335 38.3292 34.2107C38.7753 34.0842 39.2352 34.0308 39.6305 34.0106C40.0299 33.9903 40.3917 34.0025 40.6524 34.0194C40.7836 34.0279 40.8915 34.0378 40.9685 34.0457C41.007 34.0497 41.0379 34.0532 41.0603 34.0559L41.0874 34.0592L41.0959 34.0603L41.0989 34.0607L41.1001 34.0609C41.1003 34.0609 41.1011 34.061 40.9681 35.0521ZM37.0319 38.9479L36.0375 39.0534C36.0864 39.5117 36.4431 39.8779 36.9 39.9391L37.0319 38.9479ZM40.9681 35.0521L41.1001 34.0609C41.5569 34.1221 41.9137 34.4883 41.9626 34.9466L40.9681 35.0521Z" fill="#333333"/>
<path fill-rule="evenodd" clip-rule="evenodd" d="M38.8748 22.1348C38.614 22.2088 38.4716 22.2974 38.4054 22.363C38.3381 22.4295 38.2454 22.5749 38.165 22.8416C38.0872 23.0995 38.0407 23.4046 38.0179 23.716C38.0107 23.8132 38.0061 23.9084 38.0033 23.9997C38.0887 23.999 38.1773 23.9966 38.2677 23.992C38.5735 23.9764 38.8725 23.9369 39.1253 23.8652C39.386 23.7912 39.5285 23.7026 39.5947 23.637C39.6619 23.5705 39.7547 23.4251 39.8351 23.1584C39.9129 22.9005 39.9594 22.5954 39.9822 22.284C39.9893 22.1868 39.994 22.0916 39.9967 22.0003C39.9114 22.001 39.8228 22.0034 39.7324 22.008C39.4266 22.0236 39.1276 22.0631 38.8748 22.1348ZM40.9681 21.0521C41.9625 20.9462 41.9625 20.9464 41.9626 20.9466L41.9627 20.9483L41.963 20.9512L41.9639 20.9598L41.9665 20.987C41.9686 21.0096 41.9713 21.0408 41.9743 21.0797C41.9803 21.1574 41.9874 21.2665 41.9926 21.3991C42.0029 21.6626 42.0064 22.028 41.9769 22.4302C41.9477 22.8285 41.8844 23.2902 41.7499 23.7359C41.6182 24.1728 41.3962 24.668 41.0016 25.0585C40.6059 25.4501 40.1092 25.665 39.6709 25.7893C39.2247 25.9158 38.7648 25.9692 38.3696 25.9894C37.9702 26.0097 37.6083 25.9975 37.3477 25.9806C37.2165 25.9721 37.1086 25.9622 37.0316 25.9543C36.9931 25.9503 36.9622 25.9468 36.9398 25.9441L36.9127 25.9408L36.9041 25.9397L36.9011 25.9393L36.9 25.9391C36.8997 25.9391 36.899 25.939 37.0319 24.9479C36.0376 25.0538 36.0375 25.0536 36.0375 25.0534L36.0373 25.0517L36.037 25.0488L36.0362 25.0402L36.0336 25.013C36.0315 24.9904 36.0288 24.9592 36.0258 24.9203C36.0198 24.8426 36.0127 24.7335 36.0075 24.6008C35.9971 24.3374 35.9937 23.972 36.0232 23.5698C36.0524 23.1715 36.1157 22.7098 36.2501 22.2641C36.3819 21.8272 36.6039 21.332 36.9985 20.9415C37.3941 20.5499 37.8909 20.335 38.3292 20.2107C38.7753 20.0842 39.2352 20.0308 39.6305 20.0106C40.0299 19.9903 40.3917 20.0025 40.6524 20.0194C40.7836 20.0279 40.8915 20.0377 40.9685 20.0457C41.007 20.0497 41.0379 20.0532 41.0603 20.0559L41.0874 20.0592L41.0959 20.0603L41.0989 20.0607L41.1001 20.0609C41.1003 20.0609 41.1011 20.061 40.9681 21.0521ZM37.0319 24.9479L36.0375 25.0534C36.0864 25.5117 36.4431 25.8779 36.9 25.9391L37.0319 24.9479ZM40.9681 21.0521L41.1001 20.0609C41.5569 20.1221 41.9137 20.4883 41.9626 20.9466L40.9681 21.0521Z" fill="#333333"/>
<path fill-rule="evenodd" clip-rule="evenodd" d="M31.0319 28.0521C30.0376 27.9462 30.0375 27.9464 30.0375 27.9466L30.0373 27.9483L30.037 27.9512L30.0362 27.9598L30.0336 27.987C30.0315 28.0096 30.0288 28.0408 30.0258 28.0797C30.0198 28.1574 30.0127 28.2665 30.0075 28.3992C29.9971 28.6626 29.9937 29.028 30.0232 29.4302C30.0524 29.8285 30.1157 30.2902 30.2501 30.7359C30.3819 31.1728 30.6039 31.668 30.9985 32.0585C31.3941 32.4501 31.8909 32.665 32.3292 32.7893C32.7753 32.9158 33.2352 32.9692 33.6305 32.9894C34.0299 33.0097 34.3917 32.9975 34.6524 32.9806C34.7836 32.9721 34.8915 32.9622 34.9685 32.9543C35.007 32.9503 35.0379 32.9468 35.0603 32.9441L35.0874 32.9408L35.0959 32.9397L35.0989 32.9393L35.1001 32.9391C35.1003 32.9391 35.1011 32.939 34.9681 31.9479L35.1001 32.9391C35.5569 32.8779 35.9137 32.5122 35.9625 32.0538L34.9681 31.9479C35.9625 32.0538 35.9625 32.0541 35.9625 32.0538L35.9627 32.0517L35.963 32.0488L35.9639 32.0402L35.9665 32.013C35.9686 31.9904 35.9713 31.9592 35.9743 31.9203C35.9803 31.8426 35.9874 31.7335 35.9926 31.6008C36.0029 31.3374 36.0064 30.972 35.9769 30.5698C35.9477 30.1715 35.8844 29.7098 35.7499 29.2641C35.6182 28.8272 35.3962 28.332 35.0016 27.9415C34.6059 27.5499 34.1092 27.335 33.6709 27.2107C33.2247 27.0842 32.7648 27.0308 32.3696 27.0106C31.9702 26.9903 31.6083 27.0025 31.3477 27.0194C31.2165 27.0279 31.1086 27.0377 31.0316 27.0457C30.9931 27.0497 30.9622 27.0532 30.9398 27.0559L30.9127 27.0592L30.9041 27.0603L30.9011 27.0607L30.9 27.0609C30.8997 27.0609 30.899 27.061 31.0319 28.0521ZM32.0033 29.0003C32.0061 29.0916 32.0107 29.1868 32.0179 29.284C32.0407 29.5954 32.0872 29.9005 32.1649 30.1584C32.2454 30.4251 32.3381 30.5705 32.4054 30.637C32.4716 30.7026 32.614 30.7912 32.8748 30.8652C33.1276 30.9369 33.4266 30.9764 33.7324 30.992C33.8228 30.9966 33.9114 30.999 33.9967 30.9997C33.994 30.9084 33.9893 30.8132 33.9822 30.716C33.9594 30.4046 33.9129 30.0995 33.8351 29.8416C33.7547 29.5749 33.6619 29.4295 33.5947 29.363C33.5285 29.2974 33.386 29.2088 33.1253 29.1348C32.8725 29.0631 32.5735 29.0236 32.2677 29.008C32.1773 29.0034 32.0887 29.001 32.0033 29.0003ZM31.0319 28.0521L30.9 27.0609C30.4431 27.1221 30.0864 27.4883 30.0375 27.9466L31.0319 28.0521Z" fill="#333333"/>
<path fill-rule="evenodd" clip-rule="evenodd" d="M5 35C5 33.3431 6.34315 32 8 32C9.65685 32 11 33.3431 11 35V41H9V35C9 34.4477 8.55228 34 8 34C7.44772 34 7 34.4477 7 35V41H5V35Z" fill="#333333"/>
<path d="M6 34H10V37H6V34Z" fill="#333333"/>
<path fill-rule="evenodd" clip-rule="evenodd" d="M9 13V33H7V13H9Z" fill="#333333"/>
</svg>
