<svg width="48" height="48" viewBox="0 0 48 48" fill="none" xmlns="http://www.w3.org/2000/svg">
<path fill-rule="evenodd" clip-rule="evenodd" d="M25.0455 36.9861C25.1699 37.0875 25.2 37.1851 25.2 37.25C25.2 37.3149 25.1699 37.4125 25.0455 37.5139C24.9195 37.6167 24.7177 37.7 24.4673 37.7H23.4455C23.0037 37.7 22.6455 38.0582 22.6455 38.5C22.6455 38.9418 23.0037 39.3 23.4455 39.3H24.4673C24.7177 39.3 24.9195 39.3833 25.0455 39.4861C25.1699 39.5875 25.2 39.6851 25.2 39.75C25.2 39.8149 25.1699 39.9125 25.0455 40.0139C24.9195 40.1167 24.7177 40.2 24.4673 40.2H23.4455C23.0303 40.2 22.7931 39.9849 22.734 39.8486C22.5583 39.4432 22.0873 39.2569 21.6819 39.4326C21.2765 39.6083 21.0903 40.0794 21.266 40.4848C21.6277 41.3195 22.526 41.8 23.4455 41.8H24.4673C25.5954 41.8 26.8 41.0269 26.8 39.75C26.8 39.2511 26.6161 38.829 26.3247 38.5C26.6161 38.171 26.8 37.749 26.8 37.25C26.8 35.9731 25.5954 35.2 24.4673 35.2H23.4455C22.526 35.2 21.6277 35.6805 21.266 36.5152C21.0903 36.9206 21.2765 37.3917 21.6819 37.5674C22.0873 37.7431 22.5583 37.5569 22.734 37.1515C22.7931 37.0152 23.0303 36.8 23.4455 36.8H24.4673C24.7177 36.8 24.9195 36.8833 25.0455 36.9861Z" fill="#333333"/>
<path fill-rule="evenodd" clip-rule="evenodd" d="M32.0485 36.9807C32.1672 37.0796 32.2 37.1783 32.2 37.25C32.2 37.3257 32.1623 37.4356 32.0217 37.5404C32.0138 37.5464 32.006 37.5524 31.9983 37.5586L28.4983 40.3769C28.234 40.5897 28.1327 40.946 28.2455 41.266C28.3583 41.586 28.6607 41.8 29 41.8H33C33.4418 41.8 33.8 41.4418 33.8 41C33.8 40.5582 33.4418 40.2 33 40.2H31.2691L32.9915 38.8131C33.4579 38.4597 33.8 37.9085 33.8 37.25C33.8 35.9874 32.6275 35.2 31.5 35.2H30.5C29.585 35.2 28.7018 35.6889 28.3489 36.521C28.1763 36.9277 28.3662 37.3973 28.773 37.5698C29.1797 37.7423 29.6493 37.5525 29.8218 37.1457C29.8808 37.0068 30.1088 36.8 30.5 36.8H31.5C31.7368 36.8 31.9282 36.8804 32.0485 36.9807Z" fill="#333333"/>
<path fill-rule="evenodd" clip-rule="evenodd" d="M35.8685 35.2109C35.4327 35.2835 35.1383 35.6957 35.2109 36.1315L36.0442 41.1315C36.0998 41.4653 36.3594 41.7279 36.6925 41.7875C37.0255 41.8471 37.3601 41.6907 37.5279 41.3969L38.5 39.6958L39.4721 41.3969C39.6399 41.6907 39.9745 41.8471 40.3075 41.7875C40.6406 41.7279 40.9002 41.4653 40.9558 41.1315L41.7891 36.1315C41.8618 35.6957 41.5673 35.2835 41.1315 35.2109C40.6957 35.1383 40.2835 35.4327 40.2109 35.8685L39.7468 38.6528L39.1946 37.6864C39.0522 37.4372 38.7871 37.2833 38.5 37.2833C38.2129 37.2833 37.9478 37.4372 37.8054 37.6864L37.2532 38.6528L36.7891 35.8685C36.7165 35.4327 36.3043 35.1383 35.8685 35.2109Z" fill="#333333"/>
<path fill-rule="evenodd" clip-rule="evenodd" d="M18.0281 15.0044C17.9535 15.7964 17.5409 16.4779 16.8576 17.04L16.1104 17.6548C15.8484 17.8703 15.7732 18.0621 15.7547 18.1842C15.7354 18.3118 15.764 18.454 15.8607 18.5957C16.0509 18.8745 16.5451 19.171 17.3008 18.9696C17.8017 18.8361 18.4636 18.6885 19.0662 19.0152C19.3643 19.1768 19.5594 19.4064 19.6925 19.5945C19.8108 19.7618 19.9231 19.961 20.0212 20.135C20.0278 20.1467 20.0343 20.1583 20.0408 20.1698L20.0629 20.209L21.6986 23.8353L19.8755 24.6576L18.2769 21.1136C18.2049 20.9862 18.1548 20.8986 18.1145 20.8332C18.0451 20.8456 17.9486 20.8668 17.8157 20.9022C16.322 21.3002 14.9233 20.7704 14.2086 19.7228C13.8528 19.2014 13.6759 18.5554 13.7772 17.8854C13.8792 17.2101 14.2504 16.5951 14.8397 16.1103L15.587 15.4955C15.9493 15.1974 16.0223 14.9726 16.037 14.8168C16.0556 14.6194 15.9973 14.3289 15.7688 13.8945C15.5422 13.4638 15.2027 12.991 14.784 12.446C14.6773 12.3072 14.5647 12.1627 14.449 12.0142C14.13 11.6049 13.7867 11.1645 13.4761 10.7249L15.1096 9.57086C15.391 9.96921 15.6899 10.3526 15.9989 10.7492C16.1211 10.906 16.2449 11.0648 16.3699 11.2275C16.7927 11.7777 17.2256 12.3679 17.5388 12.9634C17.8501 13.5551 18.0988 14.254 18.0281 15.0044Z" fill="#333333"/>
<path fill-rule="evenodd" clip-rule="evenodd" d="M22.3136 18.1837C23.9083 17.7343 25.5654 18.6627 26.0149 20.2574L26.4206 21.6971L27.0688 21.6278C28.4247 21.4828 29.7079 22.2706 30.1921 23.5454C30.6843 24.841 30.5115 26.1653 30.1587 27.1841C29.7893 28.2507 29.1351 29.2628 28.2684 30.1152C26.4898 31.8644 23.7749 32.9904 20.4238 32.6858C19.2898 32.5827 18.3119 31.8465 17.8993 30.7853L16.8673 28.1312L15.989 28.3797C14.3947 28.8306 12.7367 27.9038 12.2857 26.3095C11.8347 24.7152 12.7615 23.0572 14.3558 22.6062L17.8584 21.6154C18.6994 21.3775 19.5648 21.523 20.2595 21.9546L20.2399 21.885C19.7904 20.2903 20.7188 18.6332 22.3136 18.1837ZM24.0899 20.8C23.9401 20.2684 23.3877 19.9589 22.8561 20.1087C22.3245 20.2585 22.0151 20.8109 22.1649 21.3425L23.2579 25.2206C23.3831 25.6649 23.7948 25.9628 24.2493 25.949C24.6922 25.9356 25.0911 26.2152 25.2295 26.636C25.368 27.0569 25.213 27.5187 24.8487 27.7708C24.1716 28.2395 23.278 28.6029 22.1601 28.706C21.7158 28.747 21.298 28.4886 21.1363 28.0727L19.607 24.1397C19.4202 23.6593 18.8988 23.3996 18.4028 23.5399L14.9002 24.5307C14.3688 24.681 14.0598 25.2337 14.2102 25.7651C14.3605 26.2966 14.9132 26.6055 15.4446 26.4552L17.1977 25.9593C17.6937 25.819 18.2151 26.0787 18.4019 26.5591L19.7633 30.0605C19.9009 30.4142 20.2268 30.6596 20.6048 30.694C23.3896 30.9471 25.5198 30.0132 26.8661 28.6893C27.5318 28.0345 28.0086 27.281 28.2688 26.5296C28.5241 25.7923 28.596 24.9757 28.3225 24.2556C28.1611 23.8307 27.7334 23.5681 27.2814 23.6164L25.7935 23.7755C25.3086 23.8273 24.857 23.5218 24.7247 23.0524L24.0899 20.8Z" fill="#333333"/>
<path fill-rule="evenodd" clip-rule="evenodd" d="M30.7159 19.6463C31.6054 20.1128 32.7046 19.7698 33.1711 18.8803C33.6376 17.9908 33.2946 16.8916 32.4051 16.4251C31.5156 15.9586 30.4164 16.3015 29.9499 17.1911C29.4834 18.0806 29.8263 19.1798 30.7159 19.6463ZM29.787 21.4175C31.6547 22.397 33.9628 21.6769 34.9423 19.8092C35.9218 17.9414 35.2017 15.6333 33.334 14.6539C31.4662 13.6744 29.1581 14.3945 28.1787 16.2622C27.1992 18.1299 27.9193 20.438 29.787 21.4175Z" fill="#333333"/>
<path fill-rule="evenodd" clip-rule="evenodd" d="M17.7287 39.8326C17.4955 40.3332 16.9006 40.55 16.3999 40.3168C13.1728 38.8137 10.4638 36.3873 8.61564 33.3446C6.76746 30.3018 5.86305 26.7794 6.0168 23.2226C6.17055 19.6659 7.37553 16.2346 9.47939 13.3627C11.5832 10.4908 14.4915 8.30727 17.8363 7.08821C21.1811 5.86914 24.8124 5.66931 28.2708 6.51399C31.7292 7.35867 34.8594 9.20992 37.2657 11.8336C39.672 14.4573 41.2462 17.7357 41.7893 21.2541C42.3324 24.7725 41.82 28.3729 40.3168 31.6001C40.0837 32.1007 39.4888 32.3175 38.9881 32.0843C38.4875 31.8511 38.2707 31.2563 38.5039 30.7556C39.84 27.887 40.2955 24.6866 39.8127 21.5592C39.33 18.4317 37.9307 15.5176 35.7918 13.1854C33.6528 10.8533 30.8704 9.20771 27.7962 8.45688C24.7221 7.70606 21.4944 7.88368 18.5212 8.96729C15.548 10.0509 12.9629 11.9918 11.0928 14.5446C9.2227 17.0974 8.1516 20.1475 8.01493 23.309C7.87827 26.4706 8.68218 29.6016 10.325 32.3063C11.9678 35.011 14.3758 37.1677 17.2444 38.5039C17.745 38.737 17.9619 39.3319 17.7287 39.8326Z" fill="#333333"/>
</svg>
