<svg width="48" height="48" viewBox="0 0 48 48" fill="none" xmlns="http://www.w3.org/2000/svg">
<path fill-rule="evenodd" clip-rule="evenodd" d="M4 12.4771C4 11.0426 5.82019 10.4265 6.69154 11.5659L18.194 26.6076C18.3832 26.855 18.6769 27.0001 18.9883 27.0001H29.2837V29.0001H18.9883C18.0539 29.0001 17.1729 28.5647 16.6053 27.8225L6 13.954V26.5859L11.9497 32.5357C12.8874 33.4733 14.1592 34.0001 15.4853 34.0001H31V36.0001H15.4853C13.6288 36.0001 11.8483 35.2626 10.5355 33.9499L4 27.4143V12.4771Z" fill="#333333"/>
<path fill-rule="evenodd" clip-rule="evenodd" d="M33.5858 24H38C39.6569 24 41 25.3432 41 27V32H38C36.3431 32 35 30.6569 35 29V28H37V29C37 29.5523 37.4477 30 38 30H39V27C39 26.4478 38.5523 26 38 26H34.4142L31.4142 29H29V27H30.5858L33.5858 24Z" fill="#333333"/>
<path fill-rule="evenodd" clip-rule="evenodd" d="M40 25H41C42.6569 25 44 26.3432 44 28V35C44 36.6569 42.6569 38 41 38H39C36.2386 38 34 35.7615 34 33V30.4H36V33C36 34.6569 37.3431 36 39 36H41C41.5523 36 42 35.5523 42 35V28C42 27.4478 41.5523 27 41 27H40V25Z" fill="#333333"/>
<path fill-rule="evenodd" clip-rule="evenodd" d="M32 34C32 35.1046 32.8954 36 34 36L39 36V38L34 38C31.7909 38 30 36.2092 30 34H32Z" fill="#333333"/>
<path fill-rule="evenodd" clip-rule="evenodd" d="M16.6905 19.7767C17.09 20.158 17.1047 20.791 16.7234 21.1905L6.22336 32.1905C5.84202 32.59 5.20902 32.6047 4.80952 32.2234C4.41003 31.842 4.39531 31.2091 4.77664 30.8096L15.2766 19.8096C15.658 19.4101 16.291 19.3953 16.6905 19.7767Z" fill="#333333"/>
<path fill-rule="evenodd" clip-rule="evenodd" d="M29 13.5858L33.4142 18L26.1213 25.2929C24.9497 26.4645 23.0503 26.4645 21.8787 25.2929L21.7071 25.1213C20.5355 23.9498 20.5355 22.0503 21.7071 20.8787L29 13.5858ZM29 16.4142L23.1213 22.2929C22.7308 22.6834 22.7308 23.3166 23.1213 23.7071L23.2929 23.8787C23.6834 24.2692 24.3166 24.2692 24.7071 23.8787L30.5858 18L29 16.4142Z" fill="#333333"/>
<path fill-rule="evenodd" clip-rule="evenodd" d="M34.7071 13.7071L31.2071 17.2071L29.7929 15.7929L33.2929 12.2929L34.7071 13.7071Z" fill="#333333"/>
<path fill-rule="evenodd" clip-rule="evenodd" d="M35.2929 15.7071L31.2929 11.7071L32.7071 10.2929L36.7071 14.2929L35.2929 15.7071Z" fill="#333333"/>
<path fill-rule="evenodd" clip-rule="evenodd" d="M28.2929 22.7071L24.2929 18.7071L25.7071 17.2929L29.7071 21.2929L28.2929 22.7071Z" fill="#333333"/>
<path fill-rule="evenodd" clip-rule="evenodd" d="M33.2929 20.7071L26.2929 13.7071L27.7071 12.2929L34.7071 19.2929L33.2929 20.7071Z" fill="#333333"/>
<path fill-rule="evenodd" clip-rule="evenodd" d="M14.5858 31.0001H17.4142L22.7071 25.7072L21.2929 24.293L14.5858 31.0001Z" fill="#333333"/>
</svg>
