<svg width="48" height="48" viewBox="0 0 48 48" fill="none" xmlns="http://www.w3.org/2000/svg">
<path fill-rule="evenodd" clip-rule="evenodd" d="M12 22H10C8.89543 22 8 22.8954 8 24V30C8 31.1046 8.89543 32 10 32H12C13.1046 32 14 31.1046 14 30V24C14 22.8954 13.1046 22 12 22ZM10 20C7.79086 20 6 21.7909 6 24V30C6 32.2091 7.79086 34 10 34H12C14.2091 34 16 32.2091 16 30V24C16 21.7909 14.2091 20 12 20H10Z" fill="#333333"/>
<path fill-rule="evenodd" clip-rule="evenodd" d="M24 10H30V18H27C25.3431 18 24 16.6569 24 15V10ZM26 12V15C26 15.5523 26.4477 16 27 16H28V12H26Z" fill="#333333"/>
<path fill-rule="evenodd" clip-rule="evenodd" d="M19 12C19 9.79086 20.7909 8 23 8C24.4806 8 25.7733 8.8044 26.4649 10H28.6586C27.8349 7.66962 25.6124 6 23 6C19.6863 6 17 8.68629 17 12C17 15.3137 19.6863 18 23 18C24.777 18 26.3736 17.2275 27.4722 16H25C24.707 16 24.4287 15.937 24.1779 15.8238C23.8055 15.9383 23.41 16 23 16C20.7909 16 19 14.2091 19 12Z" fill="#333333"/>
<path fill-rule="evenodd" clip-rule="evenodd" d="M32 12L19 12V10L32 10V12Z" fill="#333333"/>
<path fill-rule="evenodd" clip-rule="evenodd" d="M36.4412 30.86L32.454 32.8911L31.5462 31.1089L35.5334 29.0779L36.4412 30.86Z" fill="#333333"/>
<path fill-rule="evenodd" clip-rule="evenodd" d="M8 19C8 18.4477 8.44772 18 9 18H13C13.5523 18 14 18.4477 14 19C14 19.5523 13.5523 20 13 20H9C8.44772 20 8 19.5523 8 19Z" fill="#333333"/>
<path fill-rule="evenodd" clip-rule="evenodd" d="M14.4485 38.0788C15.9876 39.2928 18.1716 40 20.6594 40C24.9194 40 28.1204 38.2699 29.0378 35.0294L30.9622 35.5742C29.6966 40.0446 25.3611 42 20.6594 42C17.8124 42 15.1667 41.1925 13.2099 39.6491C11.2332 38.0901 10 35.8061 10 33H12C12 35.1645 12.9292 36.8805 14.4485 38.0788Z" fill="#333333"/>
<path fill-rule="evenodd" clip-rule="evenodd" d="M25.2978 30.7937C24.5171 30.5009 24 29.7547 24 28.921V26C24 25.4477 23.5523 25 23 25C22.4477 25 22 25.4477 22 26V31C22 31.4168 22.2586 31.79 22.6489 31.9363L30.6489 34.9363C31.166 35.1302 31.7424 34.8682 31.9363 34.3511C32.1302 33.834 31.8682 33.2576 31.3511 33.0637L25.2978 30.7937ZM26 28.921V26C26 24.3431 24.6569 23 23 23C21.3431 23 20 24.3431 20 26V31C20 32.2505 20.7757 33.3699 21.9466 33.809L29.9466 36.809C31.498 37.3907 33.2272 36.6047 33.809 35.0534C34.3907 33.502 33.6047 31.7728 32.0534 31.191L26 28.921Z" fill="#333333"/>
<path fill-rule="evenodd" clip-rule="evenodd" d="M40.152 24.47L41.848 25.53L40.3042 28H42V30H36.6958L40.152 24.47Z" fill="#333333"/>
<path fill-rule="evenodd" clip-rule="evenodd" d="M18 22H23C23.5523 22 24 22.4477 24 23V25.1429L25.5 26.0001L26 28.8334V23C26 21.3431 24.6569 20 23 20H18C15.7909 20 14 21.7909 14 24V31C14 34.3137 16.6863 37 20 37C22.3237 37 24.3388 35.6791 25.3356 33.7472L23.5093 32.9211C22.8296 34.1601 21.5129 35 20 35C17.7909 35 16 33.2091 16 31V24C16 22.8954 16.8954 22 18 22Z" fill="#333333"/>
</svg>
