<svg width="48" height="48" viewBox="0 0 48 48" fill="none" xmlns="http://www.w3.org/2000/svg">
<path fill-rule="evenodd" clip-rule="evenodd" d="M31 29C31 27.3431 32.3432 26 34 26C35.6569 26 37 27.3431 37 29V43C37 43.5523 36.5523 44 36 44C35.4477 44 35 43.5523 35 43V29C35 28.4477 34.5523 28 34 28C33.4477 28 33 28.4477 33 29V29.6667C33 30.219 32.5523 30.6667 32 30.6667C31.4477 30.6667 31 30.219 31 29.6667V29Z" fill="#333333"/>
<path fill-rule="evenodd" clip-rule="evenodd" d="M16.5706 17C15.2864 17 14.0737 17.2366 13.4204 18.1274C12.7382 19.0576 13.0027 20.2136 13.4014 21.1439C13.8248 22.1318 14.5714 23.2718 15.4869 24.503C15.7585 24.8682 16.0494 25.2473 16.3572 25.6393L16.5706 25.9112L16.5706 41.1507C16.5706 41.684 16.9891 42.1234 17.5217 42.1495C18.0543 42.1756 18.5137 41.7791 18.5658 41.2484L19.4737 32H23.6675L24.5754 41.2484C24.6275 41.7791 25.0869 42.1756 25.6195 42.1495C26.1521 42.1234 26.5706 41.684 26.5706 41.1507L26.5706 18.9113L27.716 19.0797C29.4578 19.3358 30.4863 20.1723 31.1502 21.0435C31.8878 22.0117 32.2201 23.0581 32.4729 23.854L32.4867 23.8972C32.5339 24.0459 32.5777 24.1836 32.6219 24.3162C32.7966 24.8402 33.3629 25.1233 33.8868 24.9487C34.4108 24.774 34.6939 24.2077 34.5193 23.6838C34.4915 23.6003 34.4601 23.4983 34.4284 23.3954L34.4258 23.3871C34.1867 22.6103 33.7213 21.118 32.741 19.8315C31.5616 18.2835 29.6484 17 26.5706 17H16.5706ZM11.8076 16.9446C13.0827 15.206 15.2273 15 16.5706 15H26.5706C30.3053 15 32.7945 16.6015 34.3319 18.6194C35.5387 20.2033 36.0883 21.9895 36.3313 22.7792L36.3374 22.7988C36.3725 22.9129 36.3971 22.9927 36.4166 23.0513C36.9406 24.6232 36.0911 26.3221 34.5193 26.846C32.9475 27.37 31.2485 26.5205 30.7245 24.9487C30.679 24.8121 30.6347 24.673 30.5916 24.5377L30.6052 24.5715L30.5806 24.503C30.3172 23.6742 30.0722 22.9288 29.5593 22.2556C29.3235 21.9461 29.0199 21.641 28.5706 21.409L28.5706 41.1507C28.5706 42.7505 27.3152 44.0688 25.7173 44.1471C24.1194 44.2253 22.7413 43.0359 22.585 41.4438L21.8542 34H21.287L20.5562 41.4438C20.3999 43.0359 19.0218 44.2253 17.4239 44.1471C15.826 44.0688 14.5706 42.7505 14.5706 41.1507L14.5706 26.6011C14.3315 26.2933 14.1014 25.9915 13.882 25.6964C12.9471 24.4392 12.083 23.1447 11.5631 21.9318C11.1288 20.9184 10.4391 18.8107 11.8076 16.9446ZM30.5819 24.5069L30.5916 24.5377C30.5884 24.5274 30.5851 24.5171 30.5819 24.5069Z" fill="#333333"/>
<path fill-rule="evenodd" clip-rule="evenodd" d="M16.4145 20.2453C16.8313 19.883 17.4629 19.9271 17.8252 20.3439C18.6786 21.3256 19.4 22.3055 20.0933 23.2617C20.1636 23.3587 20.2336 23.4554 20.3033 23.5518C20.927 24.4135 21.5348 25.2533 22.2278 26.1003C23.277 27.3826 23.088 29.2727 21.8057 30.3218C20.5233 31.371 18.6333 31.182 17.5841 29.8997C17.11 29.3204 16.5939 28.741 16.0531 28.1339C15.977 28.0485 15.9004 27.9626 15.8234 27.876C15.4563 27.4634 15.4933 26.8313 15.9059 26.4642C16.3186 26.0972 16.9507 26.1341 17.3177 26.5468C17.3932 26.6316 17.469 26.7166 17.5449 26.8019C18.0827 27.4054 18.6293 28.0188 19.132 28.6332C19.4817 29.0607 20.1117 29.1237 20.5392 28.7739C20.9666 28.4242 21.0296 27.7942 20.6799 27.3667C19.9471 26.4711 19.3043 25.5828 18.6846 24.7265C18.6142 24.6291 18.544 24.5321 18.474 24.4356C17.7832 23.4827 17.1063 22.5654 16.3158 21.6561C15.9535 21.2392 15.9976 20.6076 16.4145 20.2453Z" fill="#333333"/>
<path fill-rule="evenodd" clip-rule="evenodd" d="M21.5706 11C22.9513 11 24.0706 9.88071 24.0706 8.5C24.0706 7.11929 22.9513 6 21.5706 6C20.1899 6 19.0706 7.11929 19.0706 8.5C19.0706 9.88071 20.1899 11 21.5706 11ZM21.5706 13C24.0558 13 26.0706 10.9853 26.0706 8.5C26.0706 6.01472 24.0558 4 21.5706 4C19.0853 4 17.0706 6.01472 17.0706 8.5C17.0706 10.9853 19.0853 13 21.5706 13Z" fill="#333333"/>
<path fill-rule="evenodd" clip-rule="evenodd" d="M27.261 15.7766C27.6605 16.158 27.6753 16.791 27.2939 17.1905L16.7939 28.1905C16.4126 28.59 15.7796 28.6047 15.3801 28.2234C14.9806 27.842 14.9659 27.209 15.3472 26.8095L25.8472 15.8095C26.2285 15.41 26.8615 15.3953 27.261 15.7766Z" fill="#333333"/>
</svg>
