<svg width="48" height="48" viewBox="0 0 48 48" fill="none" xmlns="http://www.w3.org/2000/svg">
<path fill-rule="evenodd" clip-rule="evenodd" d="M24.5978 28.1984C24.8509 28.3871 25 28.6843 25 29V41C25 41.5523 24.5523 42 24 42H17C16.4477 42 16 41.5523 16 41V31.0833C16 30.6409 16.2907 30.2511 16.7147 30.1249L23.7147 28.0415C24.0173 27.9515 24.3447 28.0096 24.5978 28.1984ZM18 31.8291V40H23V30.341L18 31.8291Z" fill="#333333"/>
<path fill-rule="evenodd" clip-rule="evenodd" d="M23.4022 28.1984C23.1491 28.3871 23 28.6843 23 29V41C23 41.5523 23.4477 42 24 42H31C31.5523 42 32 41.5523 32 41V31.0833C32 30.6409 31.7093 30.2511 31.2853 30.1249L24.2853 28.0415C23.9827 27.9515 23.6553 28.0096 23.4022 28.1984ZM30 31.8291V40H25V30.341L30 31.8291Z" fill="#333333"/>
<path fill-rule="evenodd" clip-rule="evenodd" d="M38 27C38 26.6295 37.7951 26.2893 37.4676 26.1161C37.1401 25.9428 36.7437 25.9648 36.4374 26.1733L30.4374 30.2566C30.1638 30.4428 30 30.7524 30 31.0833V41C30 41.5523 30.4477 42 31 42H32.7639C32.2889 41.4692 32 40.7684 32 40V31.6124L36 28.8902V32H38V27Z" fill="#333333"/>
<path fill-rule="evenodd" clip-rule="evenodd" d="M39 36H37C36.4477 36 36 36.4477 36 37V39C36 39.5523 36.4477 40 37 40H40V37C40 36.4477 39.5523 36 39 36ZM37 34C35.3431 34 34 35.3431 34 37V39C34 40.6569 35.3431 42 37 42H42V37C42 35.3431 40.6569 34 39 34H37Z" fill="#333333"/>
<path fill-rule="evenodd" clip-rule="evenodd" d="M11.5547 26.1679C11.2478 25.9634 10.8533 25.9443 10.5281 26.1183C10.203 26.2923 10 26.6312 10 27V32H12V28.8685L16 31.5352V40C16 40.7684 15.7111 41.4692 15.2361 42H17C17.5523 42 18 41.5523 18 41V31C18 30.6656 17.8329 30.3534 17.5547 30.1679L11.5547 26.1679Z" fill="#333333"/>
<path fill-rule="evenodd" clip-rule="evenodd" d="M11 36H9C8.44772 36 8 36.4477 8 37V40H11C11.5523 40 12 39.5523 12 39V37C12 36.4477 11.5523 36 11 36ZM9 34C7.34315 34 6 35.3431 6 37V42H11C12.6569 42 14 40.6569 14 39V37C14 35.3431 12.6569 34 11 34H9Z" fill="#333333"/>
<path fill-rule="evenodd" clip-rule="evenodd" d="M18.9999 12.8284L16.5082 15.3201C18.4382 15.4174 20.9695 15.5 24 15.5C27.0304 15.5 29.5617 15.4174 31.4917 15.3201L28.9999 12.8284V8.61908C28.9049 8.59275 28.804 8.56598 28.6976 8.53908C27.6562 8.27599 26.0709 8 23.9999 8C21.929 8 20.3437 8.27599 19.3023 8.53908C19.1958 8.56598 19.095 8.59275 18.9999 8.61908V12.8284ZM16.9999 7.2V12L13.4712 15.5288C12.8783 16.1217 13.2349 17.1168 14.0713 17.1765C16.0883 17.3204 19.5054 17.5 24 17.5C28.4945 17.5 31.9116 17.3204 33.9286 17.1765C34.765 17.1168 35.1216 16.1217 34.5287 15.5288L30.9999 12V7.2C30.9999 7.2 28.4999 6 23.9999 6C19.4999 6 16.9999 7.2 16.9999 7.2ZM30.1458 9.00843L30.1472 9.00907L30.1483 9.00959C30.1483 9.00959 30.1474 9.0092 30.1458 9.00843Z" fill="#333333"/>
<path fill-rule="evenodd" clip-rule="evenodd" d="M16.1797 17.3059C16.062 17.852 16 18.4187 16 19C16 23.4183 19.5817 27 24 27C28.4183 27 32 23.4183 32 19C32 18.4187 31.938 17.852 31.8203 17.3059C31.2033 17.3381 30.5232 17.369 29.7833 17.3963C29.9245 17.9068 30 18.4446 30 19C30 22.3137 27.3137 25 24 25C20.6863 25 18 22.3137 18 19C18 18.4446 18.0755 17.9068 18.2167 17.3963C17.4768 17.369 16.7967 17.3381 16.1797 17.3059Z" fill="#333333"/>
</svg>
