<svg width="48" height="48" viewBox="0 0 48 48" fill="none" xmlns="http://www.w3.org/2000/svg">
<path fill-rule="evenodd" clip-rule="evenodd" d="M19.1011 14H28.8991V16H19.1011V14ZM16.6264 17.643C16.8501 17.5003 17.1214 17.4523 17.3805 17.5097C18.6864 17.799 20.7735 18 24.0001 18C27.2267 18 29.3138 17.799 30.6196 17.5097C30.8788 17.4523 31.1501 17.5003 31.3738 17.643C31.5975 17.7858 31.7553 18.0116 31.8125 18.2708C31.9355 18.8285 32.0001 19.4073 32.0001 20C32.0001 24.4183 28.4184 28 24.0001 28C19.5818 28 16.0001 24.4183 16.0001 20C16.0001 19.4073 16.0647 18.8285 16.1877 18.2708C16.2448 18.0116 16.4026 17.7858 16.6264 17.643ZM18.0097 19.6565C18.0033 19.7701 18.0001 19.8846 18.0001 20C18.0001 23.3137 20.6864 26 24.0001 26C27.3138 26 30.0001 23.3137 30.0001 20C30.0001 19.8846 29.9968 19.7701 29.9904 19.6565C28.5386 19.8744 26.5885 20 24.0001 20C21.4116 20 19.4616 19.8744 18.0097 19.6565Z" fill="#333333"/>
<path fill-rule="evenodd" clip-rule="evenodd" d="M17.0019 10.3184C17.0175 11.666 17.1294 12.7558 17.2398 13.5179C17.2657 13.6971 17.2916 13.8581 17.3161 14H30.6841C30.7086 13.8582 30.7345 13.6972 30.7604 13.518C30.8708 12.756 30.9827 11.6662 30.9983 10.3184C30.9378 10.2667 30.858 10.2034 30.7566 10.1299C30.396 9.86852 29.8483 9.54016 29.1596 9.2186C27.7775 8.57329 25.9238 8 24.0001 8C22.0764 8 20.2227 8.57329 18.8406 9.2186C18.1519 9.54016 17.6042 9.86852 17.2436 10.1299C17.1422 10.2034 17.0624 10.2667 17.0019 10.3184ZM31.212 16H16.7882C16.787 16.0008 16.7858 16.0016 16.7846 16.0024C16.6446 16.0963 16.4641 16.2269 16.2904 16.3784C16.1119 16.5343 15.9708 16.6862 15.8835 16.8179C15.8573 16.8576 15.8403 16.8885 15.8295 16.9113C15.8407 16.9217 15.8551 16.9341 15.8734 16.9485C16.0224 17.0658 16.3447 17.2395 16.9728 17.4099C18.225 17.7495 20.3995 18 24.0001 18C27.6007 18 29.7752 17.7495 31.0274 17.4099C31.6554 17.2395 31.9778 17.0658 32.1268 16.9485C32.1451 16.9341 32.1595 16.9217 32.1707 16.9113C32.1598 16.8885 32.1429 16.8576 32.1166 16.8179C32.0294 16.6862 31.8883 16.5343 31.7097 16.3784C31.5361 16.2269 31.3556 16.0963 31.2156 16.0024C31.2144 16.0016 31.2132 16.0008 31.212 16ZM15.3818 14.5451C15.3439 14.3398 15.302 14.092 15.2604 13.8047C15.1294 12.9001 15.0001 11.6019 15.0001 10C15.0001 9.68632 15.134 9.45204 15.1964 9.35253C15.2744 9.22832 15.3667 9.12107 15.4495 9.0349C15.6172 8.86022 15.8327 8.68248 16.0697 8.51068C16.5497 8.16273 17.2107 7.77234 17.9944 7.4064C19.5573 6.67671 21.7035 6 24.0001 6C26.2967 6 28.4429 6.67671 30.0057 7.4064C30.7895 7.77234 31.4505 8.16273 31.9305 8.51068C32.1675 8.68248 32.383 8.86022 32.5507 9.0349C32.6335 9.12107 32.7258 9.22832 32.8037 9.35253C32.8662 9.45204 33.0001 9.68632 33.0001 10C33.0001 11.6021 32.8708 12.9003 32.7398 13.8048C32.6981 14.0921 32.6563 14.3398 32.6184 14.5452C32.746 14.6399 32.885 14.7495 33.0248 14.8716C33.2759 15.0907 33.5606 15.3763 33.7839 15.7133C34.0026 16.0434 34.2201 16.5109 34.1856 17.0624C34.1486 17.6557 33.834 18.1501 33.3636 18.5202C32.9169 18.8717 32.3057 19.1355 31.5509 19.3401C30.0375 19.7505 27.6495 20 24.0001 20C20.3507 20 17.9627 19.7505 16.4493 19.3401C15.6945 19.1355 15.0832 18.8717 14.6366 18.5202C14.1661 18.1501 13.8516 17.6557 13.8145 17.0624C13.7801 16.5109 13.9976 16.0434 14.2162 15.7133C14.4395 15.3763 14.7243 15.0907 14.9754 14.8716C15.1152 14.7495 15.2542 14.6399 15.3818 14.5451Z" fill="#333333"/>
<path d="M21.0001 11C21.0001 10.4477 21.4478 10 22.0001 10H26.0001C26.5524 10 27.0001 10.4477 27.0001 11C27.0001 11.5523 26.5524 12 26.0001 12H22.0001C21.4478 12 21.0001 11.5523 21.0001 11Z" fill="#333333"/>
<path fill-rule="evenodd" clip-rule="evenodd" d="M23.0001 36.5V32H25.0001V36.5H23.0001Z" fill="#333333"/>
<path fill-rule="evenodd" clip-rule="evenodd" d="M32.6934 38.6706L26.2589 40.3948L25.7413 38.4629L32.1758 36.7388L32.6934 38.6706Z" fill="#333333"/>
<path fill-rule="evenodd" clip-rule="evenodd" d="M21.7413 40.3948L15.3068 38.6706L15.8244 36.7388L22.2589 38.4629L21.7413 40.3948Z" fill="#333333"/>
<path fill-rule="evenodd" clip-rule="evenodd" d="M31.6118 36.7444C31.183 35.144 32.1327 33.499 33.7331 33.0701L35.665 32.5525C37.2654 32.1237 38.9104 33.0734 39.3392 34.6738L40.1157 37.5716C40.5445 39.172 39.5947 40.817 37.9943 41.2458L36.0625 41.7635C34.4621 42.1923 32.8171 41.2426 32.3883 39.6422L31.6118 36.7444ZM34.2508 35.002C33.7173 35.1449 33.4007 35.6933 33.5436 36.2267L34.3201 39.1245C34.463 39.658 35.0114 39.9746 35.5449 39.8316L37.4767 39.314C38.0102 39.171 38.3268 38.6227 38.1838 38.0892L37.4074 35.1915C37.2644 34.658 36.7161 34.3414 36.1826 34.4844L34.2508 35.002Z" fill="#333333"/>
<path fill-rule="evenodd" clip-rule="evenodd" d="M8.65652 34.673C9.08535 33.0726 10.7304 32.1229 12.3308 32.5517L14.2626 33.0694C15.863 33.4982 16.8128 35.1432 16.3839 36.7436L15.6075 39.6414C15.1786 41.2418 13.5336 42.1915 11.9332 41.7627L10.0014 41.245C8.40099 40.8162 7.45124 39.1712 7.88007 37.5708L8.65652 34.673ZM11.8131 34.4836C11.2797 34.3406 10.7313 34.6572 10.5884 35.1907L9.81192 38.0884C9.66898 38.6219 9.98556 39.1703 10.519 39.3132L12.4509 39.8308C12.9843 39.9738 13.5327 39.6572 13.6756 39.1237L14.4521 36.2259C14.595 35.6925 14.2784 35.1441 13.745 35.0012L11.8131 34.4836Z" fill="#333333"/>
<path fill-rule="evenodd" clip-rule="evenodd" d="M24.0001 40C24.5524 40 25.0001 39.5523 25.0001 39C25.0001 38.4477 24.5524 38 24.0001 38C23.4478 38 23.0001 38.4477 23.0001 39C23.0001 39.5523 23.4478 40 24.0001 40ZM24.0001 42C25.6569 42 27.0001 40.6569 27.0001 39C27.0001 37.3431 25.6569 36 24.0001 36C22.3432 36 21.0001 37.3431 21.0001 39C21.0001 40.6569 22.3432 42 24.0001 42Z" fill="#333333"/>
<path fill-rule="evenodd" clip-rule="evenodd" d="M24.0001 32C19.5818 32 16.0001 35.5817 16.0001 40V41C16.0001 41.5523 15.5524 42 15.0001 42C14.4478 42 14.0001 41.5523 14.0001 41V40C14.0001 34.4772 18.4772 30 24.0001 30C29.5229 30 34.0001 34.4772 34.0001 40V41C34.0001 41.5523 33.5524 42 33.0001 42C32.4478 42 32.0001 41.5523 32.0001 41V40C32.0001 35.5817 28.4184 32 24.0001 32Z" fill="#333333"/>
</svg>
