<svg width="48" height="49" viewBox="0 0 48 49" fill="none" xmlns="http://www.w3.org/2000/svg">
<path fill-rule="evenodd" clip-rule="evenodd" d="M11 20.5C9.34315 20.5 8 21.8431 8 23.5V25.5C8 26.8965 8.95513 28.0725 10.2493 28.4055C10.6911 28.5193 11 28.9177 11 29.374V36.5002C11 37.0386 11.4263 37.4804 11.9644 37.4996C12.5024 37.5188 12.9591 37.1085 12.9975 36.5715L13.5025 29.5003C13.5399 28.977 13.9754 28.5716 14.5 28.5716C15.0246 28.5716 15.4601 28.977 15.4975 29.5003L16.0025 36.5715C16.0409 37.1085 16.4976 37.5188 17.0357 37.4996C17.5737 37.4804 18 37.0386 18 36.5002V29.374C18 28.9177 18.3089 28.5193 18.7507 28.4055C20.0449 28.0725 21 26.8965 21 25.5V23.5C21 21.8431 19.6569 20.5 18 20.5H11ZM6 23.5C6 20.7386 8.23858 18.5 11 18.5H18C20.7614 18.5 23 20.7386 23 23.5V25.5C23 27.5512 21.7655 29.3122 20 30.0836V36.5002C20 38.1155 18.7212 39.4407 17.1069 39.4983C16.0285 39.5368 15.0591 39.0002 14.5 38.1593C13.941 39.0002 12.9715 39.5368 11.8931 39.4983C10.2789 39.4407 9.00001 38.1155 9.00001 36.5002L9.00001 30.0836C7.23448 29.3122 6 27.5512 6 25.5V23.5Z" fill="#333333"/>
<path fill-rule="evenodd" clip-rule="evenodd" d="M11.9453 22.9824C11.995 22.2813 12 21.4625 12 20.5H14C14 21.4524 13.9958 22.3409 13.9403 23.1238C13.8852 23.9015 13.7758 24.644 13.5335 25.2882C13.2837 25.9524 12.8806 26.5419 12.2361 26.9474C11.6063 27.3438 10.8477 27.5 10 27.5V25.5C10.6158 25.5 10.9639 25.385 11.1709 25.2547C11.3634 25.1336 11.5273 24.9411 11.6616 24.5841C11.8034 24.2069 11.8953 23.6888 11.9453 22.9824Z" fill="#333333"/>
<path fill-rule="evenodd" clip-rule="evenodd" d="M17.0547 22.9824C17.005 22.2813 17 21.4625 17 20.5H15C15 21.4524 15.0042 22.3409 15.0597 23.1238C15.1148 23.9015 15.2242 24.644 15.4665 25.2882C15.7163 25.9524 16.1194 26.5419 16.7639 26.9474C17.3937 27.3438 18.1523 27.5 19 27.5V25.5C18.3842 25.5 18.0361 25.385 17.8291 25.2547C17.6366 25.1336 17.4727 24.9411 17.3384 24.5841C17.1966 24.2069 17.1047 23.6888 17.0547 22.9824Z" fill="#333333"/>
<path d="M9 18.5C9 17.9477 9.44772 17.5 10 17.5H19C19.5523 17.5 20 17.9477 20 18.5C20 19.0523 19.5523 19.5 19 19.5H10C9.44772 19.5 9 19.0523 9 18.5Z" fill="#333333"/>
<path fill-rule="evenodd" clip-rule="evenodd" d="M11 22.5V31.5H9V22.5H11ZM20 22.5V31.5H18V22.5H20Z" fill="#333333"/>
<path fill-rule="evenodd" clip-rule="evenodd" d="M30 20.5C28.3431 20.5 27 21.8431 27 23.5V25.5C27 26.8386 27.8774 27.9749 29.0911 28.3601L30.3654 28.7646L27.7556 32.631C29.3502 32.7929 31.7415 33 33.5 33C35.2585 33 37.6498 32.7929 39.2444 32.631L36.6346 28.7646L37.9089 28.3601C39.1226 27.9749 40 26.8386 40 25.5V23.5C40 21.8431 38.6569 20.5 37 20.5H30ZM25 23.5C25 20.7386 27.2386 18.5 30 18.5H37C39.7614 18.5 42 20.7386 42 23.5V25.5C42 27.2723 41.0784 28.8277 39.6895 29.7155L40.9144 31.5303C41.7474 32.7644 40.987 34.4639 39.4772 34.6176C37.8798 34.7802 35.3805 35 33.5 35C31.6195 35 29.1202 34.7802 27.5228 34.6176C26.013 34.4639 25.2526 32.7644 26.0856 31.5303L27.3105 29.7155C25.9216 28.8277 25 27.2723 25 25.5V23.5Z" fill="#333333"/>
<path fill-rule="evenodd" clip-rule="evenodd" d="M33.5 10.5C32.3954 10.5 31.5 11.3954 31.5 12.5C31.5 13.6046 32.3954 14.5 33.5 14.5C34.6046 14.5 35.5 13.6046 35.5 12.5C35.5 11.3954 34.6046 10.5 33.5 10.5ZM29.5 12.5C29.5 10.2909 31.2909 8.5 33.5 8.5C35.7091 8.5 37.5 10.2909 37.5 12.5C37.5 14.7091 35.7091 16.5 33.5 16.5C31.2909 16.5 29.5 14.7091 29.5 12.5Z" fill="#333333"/>
<path fill-rule="evenodd" clip-rule="evenodd" d="M30.9453 22.9824C30.995 22.2813 31 21.4625 31 20.5H33C33 21.4524 32.9958 22.3409 32.9403 23.1238C32.8852 23.9015 32.7758 24.644 32.5335 25.2882C32.2837 25.9524 31.8806 26.5419 31.2361 26.9474C30.6063 27.3438 29.8477 27.5 29 27.5V25.5C29.6158 25.5 29.9639 25.385 30.1709 25.2547C30.3634 25.1336 30.5273 24.9411 30.6616 24.5841C30.8034 24.2069 30.8953 23.6888 30.9453 22.9824Z" fill="#333333"/>
<path fill-rule="evenodd" clip-rule="evenodd" d="M36.0547 22.9824C36.005 22.2813 36 21.4625 36 20.5H34C34 21.4524 34.0042 22.3409 34.0597 23.1238C34.1148 23.9015 34.2242 24.644 34.4665 25.2882C34.7163 25.9524 35.1194 26.5419 35.7639 26.9474C36.3937 27.3438 37.1523 27.5 38 27.5V25.5C37.3842 25.5 37.0361 25.385 36.8291 25.2547C36.6366 25.1336 36.4727 24.9411 36.3384 24.5841C36.1966 24.2069 36.1047 23.6888 36.0547 22.9824Z" fill="#333333"/>
<path d="M28 18.5C28 17.9477 28.4477 17.5 29 17.5H38C38.5523 17.5 39 17.9477 39 18.5C39 19.0523 38.5523 19.5 38 19.5H29C28.4477 19.5 28 19.0523 28 18.5Z" fill="#333333"/>
<path fill-rule="evenodd" clip-rule="evenodd" d="M28.5 36.3172V37.5001C28.5 38.2554 29.0616 38.8929 29.8109 38.9881C30.5602 39.0833 31.2634 38.6066 31.4523 37.8753L31.7704 36.6439C30.7177 36.5882 29.6416 36.4797 28.5 36.3172ZM35.2277 36.6365L35.5477 37.8753C35.7366 38.6066 36.4398 39.0833 37.1891 38.9881C37.9384 38.8929 38.5 38.2554 38.5 37.5001V36.3027C37.3578 36.4651 36.2811 36.5767 35.2277 36.6365Z" fill="#333333"/>
<path fill-rule="evenodd" clip-rule="evenodd" d="M14.5 10.5C13.3954 10.5 12.5 11.3954 12.5 12.5C12.5 13.6046 13.3954 14.5 14.5 14.5C15.6046 14.5 16.5 13.6046 16.5 12.5C16.5 11.3954 15.6046 10.5 14.5 10.5ZM10.5 12.5C10.5 10.2909 12.2909 8.5 14.5 8.5C16.7091 8.5 18.5 10.2909 18.5 12.5C18.5 14.7091 16.7091 16.5 14.5 16.5C12.2909 16.5 10.5 14.7091 10.5 12.5Z" fill="#333333"/>
<path fill-rule="evenodd" clip-rule="evenodd" d="M28 29V23.5H30V29H28Z" fill="#333333"/>
<path fill-rule="evenodd" clip-rule="evenodd" d="M37 29V23.5H39V29H37Z" fill="#333333"/>
</svg>
