<svg width="48" height="48" viewBox="0 0 48 48" fill="none" xmlns="http://www.w3.org/2000/svg">
<path fill-rule="evenodd" clip-rule="evenodd" d="M48 0H0V48H48V0ZM16 4H23.1528C23.0578 4.10615 23 4.24633 23 4.4C23 4.73137 23.2686 5 23.6 5C23.9314 5 24.2 4.73137 24.2 4.4C24.2 4.24633 24.1422 4.10615 24.0472 4H32C34.2091 4 36 5.79086 36 8V40C36 42.2091 34.2091 44 32 44H23.6C23.9314 44 24.2 43.7314 24.2 43.4C24.2 43.0686 23.9314 42.8 23.6 42.8C23.2686 42.8 23 43.0686 23 43.4C23 43.7314 23.2686 44 23.6 44H16C13.7909 44 12 42.2091 12 40V8C12 5.79086 13.7909 4 16 4ZM23.6 39.8C23.9314 39.8 24.2 40.0686 24.2 40.4C24.2 40.7314 23.9314 41 23.6 41C23.2686 41 23 40.7314 23 40.4C23 40.0686 23.2686 39.8 23.6 39.8ZM24.2 37.4C24.2 37.0686 23.9314 36.8 23.6 36.8C23.2686 36.8 23 37.0686 23 37.4C23 37.7314 23.2686 38 23.6 38C23.9314 38 24.2 37.7314 24.2 37.4ZM23.6 33.8C23.9314 33.8 24.2 34.0686 24.2 34.4C24.2 34.7314 23.9314 35 23.6 35C23.2686 35 23 34.7314 23 34.4C23 34.0686 23.2686 33.8 23.6 33.8ZM24.2 31.4C24.2 31.0686 23.9314 30.8 23.6 30.8C23.2686 30.8 23 31.0686 23 31.4C23 31.7314 23.2686 32 23.6 32C23.9314 32 24.2 31.7314 24.2 31.4ZM23.6 27.8C23.9314 27.8 24.2 28.0686 24.2 28.4C24.2 28.7314 23.9314 29 23.6 29C23.2686 29 23 28.7314 23 28.4C23 28.0686 23.2686 27.8 23.6 27.8ZM24.2 25.4C24.2 25.0686 23.9314 24.8 23.6 24.8C23.2686 24.8 23 25.0686 23 25.4C23 25.7314 23.2686 26 23.6 26C23.9314 26 24.2 25.7314 24.2 25.4ZM23.6 21.8C23.9314 21.8 24.2 22.0686 24.2 22.4C24.2 22.7314 23.9314 23 23.6 23C23.2686 23 23 22.7314 23 22.4C23 22.0686 23.2686 21.8 23.6 21.8ZM24.2 19.4C24.2 19.0686 23.9314 18.8 23.6 18.8C23.2686 18.8 23 19.0686 23 19.4C23 19.7314 23.2686 20 23.6 20C23.9314 20 24.2 19.7314 24.2 19.4ZM23.6 15.8C23.9314 15.8 24.2 16.0686 24.2 16.4C24.2 16.7314 23.9314 17 23.6 17C23.2686 17 23 16.7314 23 16.4C23 16.0686 23.2686 15.8 23.6 15.8ZM24.2 13.4C24.2 13.0686 23.9314 12.8 23.6 12.8C23.2686 12.8 23 13.0686 23 13.4C23 13.7314 23.2686 14 23.6 14C23.9314 14 24.2 13.7314 24.2 13.4ZM23.6 9.8C23.9314 9.8 24.2 10.0686 24.2 10.4C24.2 10.7314 23.9314 11 23.6 11C23.2686 11 23 10.7314 23 10.4C23 10.0686 23.2686 9.8 23.6 9.8ZM24.2 7.4C24.2 7.06863 23.9314 6.8 23.6 6.8C23.2686 6.8 23 7.06863 23 7.4C23 7.73137 23.2686 8 23.6 8C23.9314 8 24.2 7.73137 24.2 7.4Z" fill="#333333"/>
<circle cx="17.5" cy="8.5" r="1.5" fill="#333333"/>
<circle cx="17.5" cy="13.5" r="1.5" fill="#333333"/>
<circle cx="17.5" cy="18.5" r="1.5" fill="#333333"/>
<circle cx="17.5" cy="23.5" r="1.5" fill="#333333"/>
<circle cx="17.5" cy="28.5" r="1.5" fill="#333333"/>
<circle cx="17.5" cy="33.5" r="1.5" fill="#333333"/>
<circle cx="17.5" cy="38.5" r="1.5" fill="#333333"/>
<circle cx="29.5" cy="8.5" r="1.5" fill="#333333"/>
<circle cx="29.5" cy="13.5" r="1.5" fill="#333333"/>
<circle cx="29.5" cy="18.5" r="1.5" fill="#333333"/>
<circle cx="29.5" cy="23.5" r="1.5" fill="#333333"/>
<circle cx="29.5" cy="28.5" r="1.5" fill="#333333"/>
<circle cx="29.5" cy="33.5" r="1.5" fill="#333333"/>
<circle cx="29.5" cy="38.5" r="1.5" fill="#333333"/>
</svg>
