<svg width="48" height="48" viewBox="0 0 48 48" fill="none" xmlns="http://www.w3.org/2000/svg">
<path fill-rule="evenodd" clip-rule="evenodd" d="M32 30.8333C32 29.1765 33.3431 27.8333 35 27.8333C36.6568 27.8333 38 29.1765 38 30.8333V43C38 43.5523 37.5523 44 37 44C36.4477 44 36 43.5523 36 43V30.8333C36 30.2811 35.5523 29.8333 35 29.8333C34.4477 29.8333 34 30.2811 34 30.8333V31.0556C34 31.6078 33.5523 32.0556 33 32.0556C32.4477 32.0556 32 31.6078 32 31.0556V30.8333Z" fill="#333333"/>
<path fill-rule="evenodd" clip-rule="evenodd" d="M24 29C25.1046 29 26 29.8954 26 31V42C26 43.1046 25.1046 44 24 44C22.8954 44 22 43.1046 22 42V31C22 29.8954 22.8954 29 24 29Z" fill="#333333"/>
<path d="M29 15.0933C27 17.5766 23.9919 24.5466 23.9919 31.5C23.9919 31.5 21 28 21 26C21 21.152 23.3621 15.0933 29 15.0933Z" fill="#333333"/>
<path fill-rule="evenodd" clip-rule="evenodd" d="M21.179 17.6861C22.7468 15.1192 25.3262 13.0933 29 13.0933C29.9157 13.0933 30.7144 13.7151 30.9389 14.6028L32.689 21.5215L36.7428 23.143C37.7683 23.5533 38.2672 24.7172 37.8569 25.7428C37.4467 26.7683 36.2828 27.2672 35.2572 26.857L30.2572 24.857C29.6627 24.6192 29.2181 24.1112 29.0611 23.4905L28.3045 20.4994C28.0765 21.0523 27.8522 21.6439 27.6378 22.2691C26.6886 25.0373 25.9919 28.2954 25.9919 31.5C25.9919 32.3374 25.4702 33.0862 24.6846 33.3762C23.899 33.6663 23.0159 33.4361 22.4717 32.7996L23.9919 31.5C22.4717 32.7996 22.4719 32.7998 22.4717 32.7996L22.4709 32.7986L22.4666 32.7936L22.4573 32.7826L22.4261 32.7456C22.4 32.7144 22.3634 32.6705 22.3179 32.6151C22.2269 32.5043 22.0995 32.3468 21.9478 32.1524C21.6462 31.7659 21.2403 31.2237 20.8305 30.6073C20.4249 29.9974 19.9904 29.2774 19.6507 28.5394C19.3301 27.8428 19 26.9337 19 26C19 23.2998 19.6492 20.1907 21.179 17.6861Z" fill="#333333"/>
<path fill-rule="evenodd" clip-rule="evenodd" d="M10.117 10.0753C10.3762 9.58766 10.9817 9.40248 11.4694 9.66171L17.047 12.6266C17.3882 12.808 17.5944 13.1697 17.5766 13.5557C17.5588 13.9416 17.3203 14.2828 16.9638 14.4321L15.2539 15.1479L18.38 16.8733C18.8635 17.1402 19.0392 17.7485 18.7723 18.232C18.5054 18.7155 17.8971 18.8912 17.4136 18.6243L12.4769 15.8996C12.1411 15.7143 11.9409 15.3532 11.9616 14.9702C11.9823 14.5872 12.2202 14.2498 12.574 14.1017L14.2449 13.4021L10.5306 11.4277C10.043 11.1685 9.85777 10.563 10.117 10.0753Z" fill="#333333"/>
<path fill-rule="evenodd" clip-rule="evenodd" d="M9.83169 19.9783C9.94247 19.4179 10.4551 19.051 10.9766 19.159L14.6432 19.9181C14.9946 19.9909 15.2755 20.2673 15.3723 20.6357C15.4691 21.004 15.3657 21.4033 15.1041 21.6721L14.3066 22.4913L16.2447 22.9955C16.7604 23.1297 17.069 23.6882 16.9338 24.2429C16.7987 24.7977 16.271 25.1387 15.7553 25.0045L12.1302 24.0614C11.7905 23.9731 11.526 23.6933 11.4394 23.3309C11.3527 22.9685 11.4577 22.5805 11.7134 22.3178L12.4374 21.5741L10.5754 21.1886C10.0539 21.0806 9.72091 20.5388 9.83169 19.9783Z" fill="#333333"/>
<path d="M37 8C37 10.2091 35.2091 12 33 12C30.7908 12 29 10.2091 29 8C29 5.79086 30.7908 4 33 4C35.2091 4 37 5.79086 37 8Z" fill="#333333"/>
</svg>
