<svg width="48" height="48" viewBox="0 0 48 48" fill="none" xmlns="http://www.w3.org/2000/svg">
<path d="M37 10H40V12H37V10Z" fill="#333333"/>
<path fill-rule="evenodd" clip-rule="evenodd" d="M38 13.8671L37.4285 14.4503C37.1614 14.7229 37 15.0906 37 15.5C37 16.3284 37.6716 17 38.5 17C39.3284 17 40 16.3284 40 15.5C40 15.0906 39.8386 14.7229 39.5715 14.4503L39 13.8671V8.5C39 8.22386 38.7761 8 38.5 8C38.2239 8 38 8.22386 38 8.5V13.8671ZM36 8.5C36 7.11929 37.1193 6 38.5 6C39.8807 6 41 7.11929 41 8.5V13.0505C41.6186 13.6818 42 14.5463 42 15.5C42 17.433 40.433 19 38.5 19C36.567 19 35 17.433 35 15.5C35 14.5463 35.3814 13.6818 36 13.0505V8.5Z" fill="#333333"/>
<path fill-rule="evenodd" clip-rule="evenodd" d="M22 15C24.4853 15 26.5 12.9853 26.5 10.5C26.5 8.01472 24.4853 6 22 6C19.5147 6 17.5 8.01472 17.5 10.5C17.5 12.9853 19.5147 15 22 15ZM16 16.0009C15.1697 16.0251 14.438 16.5613 14.1671 17.3509L12.1083 23.3509C11.7566 24.3757 12.285 25.4943 13.3 25.8735L16 26.8823V26.9108C16.1405 26.9569 16.2804 27.0016 16.4191 27.0443C17.215 27.2892 17.8988 27.4455 18.3794 27.4701C18.4807 27.4753 18.5584 27.4737 18.616 27.4695C18.7734 26.8897 18.8249 26.1931 18.6588 25.5702C18.4848 24.9178 18.067 24.3039 17.1286 23.9285L16.2002 23.5571L16.9429 21.7002L17.8714 22.0716C19.433 22.6962 20.2652 23.8323 20.5913 25.0549C20.9041 26.2281 20.7432 27.4329 20.4487 28.3163C20.2692 28.8549 19.8591 29.171 19.4418 29.325C19.0586 29.4664 18.6423 29.4862 18.2769 29.4675C17.5887 29.4322 16.7784 29.2397 16 29.0071L16 40C16 41.0616 16.8294 41.9382 17.8894 41.9969C18.9494 42.0556 19.8705 41.276 19.9878 40.2209L20.9878 31.2209C20.996 31.1471 21 31.0734 21 31H23C23 31.0734 23.004 31.1471 23.0122 31.2209L24.0122 40.2209C24.1295 41.276 25.0506 42.0556 26.1106 41.9969C27.1706 41.9382 28 41.0616 28 40L28 29.017C27.3581 29.2406 26.6759 29.4306 26.0761 29.467C25.7418 29.4872 25.3435 29.4665 24.9687 29.3065C24.5529 29.1289 24.2113 28.7963 24.0513 28.3163C23.79 27.5322 23.4775 26.3522 23.6338 25.1804C23.7142 24.5777 23.9211 23.9553 24.3388 23.3948C24.7588 22.831 25.3537 22.3815 26.1286 22.0716L27.0571 21.7002L27.7999 23.5571L26.8714 23.9285C26.3963 24.1186 26.1162 24.3567 25.9425 24.5897C25.7664 24.8261 25.6609 25.1099 25.6162 25.4447C25.5316 26.0799 25.6764 26.8104 25.8811 27.4733C25.9028 27.4731 25.9274 27.4723 25.9551 27.4706C26.3186 27.4486 26.8611 27.3047 27.5333 27.0603C27.6871 27.0043 27.8431 26.9449 28 26.8831L28.0367 26.8686C28.534 26.6716 29.0403 26.4512 29.5199 26.2407L29.6674 26.1758C30.2322 25.9276 30.7875 25.6835 31.1838 25.5514L31.3148 25.5077C31.9105 24.988 32.163 24.1416 31.8917 23.3509L29.8329 17.3509C29.562 16.5613 28.8303 16.0251 28 16.0009L27.9412 16H16.0588L16 16.0009ZM8.72146 19.0429C9.25903 18.5053 10.0698 18 11 18H12V20H11C10.7873 20 10.4553 20.1375 10.1357 20.4571C9.98704 20.6057 9.87199 20.765 9.79847 20.9067C9.76223 20.9766 9.73981 21.0351 9.72715 21.0794C9.72526 21.086 9.72364 21.0921 9.72227 21.0977C9.73416 21.1178 9.75302 21.1469 9.78214 21.1857C9.89188 21.332 10.0512 21.4941 10.2785 21.7215L10.3006 21.7435C10.4991 21.9419 10.7567 22.1994 10.9607 22.4714C11.1645 22.7432 11.4286 23.1737 11.4286 23.7143C11.4286 24.18 11.191 24.5173 10.9976 24.7158C10.8061 24.9125 10.5764 25.0597 10.3831 25.1685C10.0755 25.3415 9.6847 25.5097 9.34313 25.6568C9.26393 25.6909 9.18736 25.7238 9.1151 25.7554C8.6818 25.945 8.3473 26.1079 8.12489 26.2701C8.09478 26.292 8.07023 26.3114 8.05031 26.3281C8.15968 26.4275 8.32923 26.5289 8.63312 26.6999L8.67053 26.7209C8.92948 26.8662 9.30798 27.0787 9.61251 27.3642C9.9688 27.6982 10.2857 28.187 10.2857 28.8571C10.2857 29.9235 9.58213 30.6213 9.19368 31.0066L9.13568 31.0643C8.64977 31.5502 8.57143 31.6933 8.57143 31.8571C8.57143 31.9737 8.67871 32.2474 9.18292 32.5634C9.66175 32.8636 10.1942 33 10.4286 33H11.4286V35H10.4286C9.7344 35 8.83825 34.7078 8.12065 34.258C7.42843 33.8241 6.57143 33.0263 6.57143 31.8571C6.57143 30.7908 7.27502 30.093 7.66346 29.7077L7.72146 29.65C8.19783 29.1737 8.28248 29.0267 8.28562 28.8668C8.27871 28.8579 8.26611 28.8434 8.24463 28.8233C8.13561 28.7211 7.96517 28.6188 7.6526 28.443L7.61518 28.422C7.35622 28.2766 6.97773 28.0641 6.6732 27.7786C6.31691 27.4446 6 26.9559 6 26.2857C6 25.4739 6.54617 24.946 6.94654 24.654C7.36699 24.3475 7.88962 24.1086 8.31347 23.9231C8.41605 23.8783 8.51293 23.8364 8.60446 23.7969L8.60563 23.7964L8.60666 23.7959C8.85093 23.6905 9.05706 23.6015 9.23129 23.5153C9.13514 23.4077 9.0146 23.286 8.86432 23.1357L8.84228 23.1136C8.64375 22.9152 8.38619 22.6578 8.18214 22.3857C7.97834 22.114 7.71429 21.6834 7.71429 21.1429C7.71429 20.3384 8.20169 19.5627 8.72146 19.0429ZM34 18C34.9052 18 35.593 18.636 35.9786 19.15C36.3853 19.6924 36.7143 20.434 36.7143 21.1429C36.7143 21.603 36.5438 21.9936 36.385 22.276C36.2318 22.5483 36.0371 22.8077 35.8875 23.0072L35.8714 23.0286C35.7055 23.2498 35.5889 23.4079 35.5068 23.5515C35.6325 23.6376 35.7859 23.7259 35.986 23.8412C36.0572 23.8822 36.1343 23.9266 36.2182 23.9755C36.5395 24.1629 36.9576 24.4167 37.2953 24.7451C37.644 25.0841 38 25.5941 38 26.2857C38 27.4368 37.1957 28.0347 36.7952 28.3324L36.7429 28.3714C36.284 28.7155 36.2847 28.7708 36.2856 28.8467L36.2857 28.8571C36.2857 29.1272 36.3923 29.3088 36.7286 29.7571L36.7618 29.8013C37.0722 30.2139 37.5714 30.8773 37.5714 31.8571C37.5714 32.9266 36.9242 33.7189 36.3426 34.1887C36.0399 34.4331 35.714 34.6259 35.4081 34.7609C35.126 34.8854 34.7725 35 34.4286 35H33.4286V33H34.4066C34.4065 32.9997 34.4091 32.999 34.4143 32.9977C34.4349 32.9925 34.497 32.9769 34.6008 32.9311C34.7503 32.8651 34.9243 32.7633 35.0859 32.6328C35.433 32.3525 35.5714 32.0734 35.5714 31.8571C35.5714 31.587 35.4649 31.4055 35.1286 30.9571L35.0954 30.913C34.7849 30.5004 34.2857 29.837 34.2857 28.8571C34.2857 27.706 35.09 27.1081 35.4906 26.8104L35.5429 26.7714C35.9973 26.4306 36.001 26.3731 36.0001 26.2983C35.9916 26.2812 35.9665 26.2426 35.9011 26.179C35.7567 26.0386 35.532 25.8906 35.2104 25.7031C35.1605 25.674 35.1062 25.6428 35.0489 25.61C34.7927 25.463 34.4772 25.282 34.2304 25.0969C33.9692 24.901 33.4286 24.4499 33.4286 23.7143C33.4286 23.2542 33.599 22.8636 33.7579 22.5812C33.9111 22.3088 34.1057 22.0494 34.2554 21.85L34.2714 21.8286C34.4413 21.6021 34.5595 21.4418 34.6418 21.2955C34.6994 21.193 34.7119 21.1437 34.7142 21.1343C34.7105 20.9821 34.6102 20.6588 34.3786 20.35C34.27 20.2052 34.1616 20.1042 34.0748 20.0463C34.0262 20.014 33.9972 20.0032 33.987 20H33V18H34ZM35.3317 23.4112C35.3311 23.4112 35.3348 23.416 35.3446 23.4257C35.3373 23.4161 35.3324 23.4113 35.3317 23.4112ZM36.0035 26.3063C36.0041 26.308 36.0041 26.3088 36.0039 26.3087C36.0035 26.3087 36.0023 26.306 36.0013 26.3007C36.0024 26.3031 36.0031 26.305 36.0035 26.3063Z" fill="#333333"/>
</svg>
