<svg width="48" height="48" viewBox="0 0 48 48" fill="none" xmlns="http://www.w3.org/2000/svg">
<path fill-rule="evenodd" clip-rule="evenodd" d="M18 27H30V33.4609C30.1307 33.4864 30.2628 33.5127 30.3965 33.5397C31.4791 33.7587 32.1793 34.8138 31.9603 35.8965C31.7414 36.9791 30.6862 37.6793 29.6035 37.4603C25.3303 36.5961 22.9766 36.583 18.6707 37.4073L18.5955 37.461L18.9917 41.819C19.0886 42.8845 18.3297 43.8375 17.2696 43.9818C16.2095 44.126 15.2236 43.4104 15.0322 42.3578L14.0322 36.8578C13.9033 36.1487 14.1659 35.425 14.7196 34.9636L17.7196 32.4636C17.8078 32.3901 17.9017 32.3247 18 32.2679V27Z" fill="#333333"/>
<path fill-rule="evenodd" clip-rule="evenodd" d="M33.9676 36.8578C34.0965 36.1487 33.834 35.425 33.2802 34.9636L30.2802 32.4636C29.9208 32.1641 29.4678 32 28.9999 32H27.9999C27.1305 32 26.3606 32.5617 26.0953 33.3897C25.83 34.2176 26.1299 35.1222 26.8374 35.6275L29.4043 37.461L29.0081 41.819C28.9112 42.8845 29.6701 43.8375 30.7302 43.9818C31.7903 44.126 32.7762 43.4104 32.9676 42.3578L33.9676 36.8578Z" fill="#333333"/>
<path d="M28 19C28 21.2092 26.2091 23 24 23C21.7909 23 20 21.2092 20 19C20 16.7909 21.7909 15 24 15C26.2091 15 28 16.7909 28 19Z" fill="#333333"/>
<path fill-rule="evenodd" clip-rule="evenodd" d="M13.3668 4.22607C13.7942 3.87635 14.4242 3.93935 14.774 4.36679L18.774 9.25568C19.0186 9.55473 19.0691 9.96798 18.9037 10.3171C18.7382 10.6663 18.3864 10.8889 18 10.8889H16.4128L17.7674 12.3101C18.1484 12.7099 18.1332 13.3429 17.7334 13.7239C17.3336 14.1049 16.7006 14.0897 16.3196 13.69L13.3544 10.5788C13.0784 10.2892 13.0015 9.86295 13.159 9.49517C13.3166 9.1274 13.6782 8.88892 14.0783 8.88892H15.8898L13.2261 5.63327C12.8763 5.20582 12.9393 4.5758 13.3668 4.22607Z" fill="#333333"/>
<path fill-rule="evenodd" clip-rule="evenodd" d="M34.6332 4.22607C34.2058 3.87635 33.5758 3.93935 33.226 4.36679L29.226 9.25568C28.9814 9.55473 28.9309 9.96798 29.0963 10.3171C29.2618 10.6663 29.6136 10.8889 30 10.8889H31.5872L30.2326 12.3101C29.8516 12.7099 29.8668 13.3429 30.2666 13.7239C30.6664 14.1049 31.2994 14.0897 31.6804 13.69L34.6456 10.5788C34.9216 10.2892 34.9985 9.86295 34.841 9.49517C34.6834 9.1274 34.3218 8.88892 33.9217 8.88892H32.1102L34.7739 5.63327C35.1237 5.20582 35.0607 4.5758 34.6332 4.22607Z" fill="#333333"/>
<path fill-rule="evenodd" clip-rule="evenodd" d="M23.4874 4.21026C24.0173 3.99677 24.6046 4.22561 24.7992 4.72139L26.1671 8.20692C26.2982 8.54098 26.2202 8.92729 25.9646 9.20963C25.709 9.49197 25.3181 9.62364 24.95 9.55138L23.9998 9.36485L24.7478 11.1102C24.9576 11.5996 24.7028 12.181 24.1787 12.4087C23.6546 12.6364 23.0597 12.4242 22.85 11.9348L21.3499 8.43477C21.2066 8.1004 21.277 7.70694 21.532 7.41734C21.787 7.12775 22.1832 6.99134 22.5564 7.0646L23.5749 7.26452L22.8802 5.49451C22.6857 4.99873 22.9575 4.42375 23.4874 4.21026Z" fill="#333333"/>
<path fill-rule="evenodd" clip-rule="evenodd" d="M16.8913 17.0928C17.9446 17.4253 18.5289 18.5488 18.1964 19.6021C18.1523 19.7419 17.8961 20.4502 17.5619 21.3741C17.31 22.0705 17.0138 22.8894 16.7307 23.6795C16.6185 23.9927 16.5072 24.3047 16.3994 24.6083C16.9995 24.4847 17.5859 24.358 18.0621 24.2551L18.1055 24.2457C18.3701 24.1884 18.6041 24.1378 18.7791 24.1012C18.8703 24.082 18.9571 24.0643 19.0287 24.0506C19.0633 24.0441 19.1076 24.0359 19.1533 24.0287C19.1758 24.0251 19.2106 24.0198 19.2516 24.015L19.2531 24.0148C19.2788 24.0117 19.3772 24 19.5 24C19.9897 24 20.3683 24.1896 20.3847 24.1978C20.4902 24.2461 20.5819 24.2973 20.632 24.3258C20.7064 24.368 20.8043 24.4269 20.8856 24.4758C20.9109 24.4911 20.9347 24.5053 20.9556 24.5178C21.1697 24.6459 21.4293 24.7961 21.7396 24.9435C22.3689 25.2424 23.1468 25.5 24 25.5C24.8529 25.5 25.6295 25.2425 26.2581 24.9437C26.5683 24.7963 26.8278 24.646 27.0432 24.5174C27.0632 24.5055 27.0857 24.4919 27.1098 24.4775C27.1924 24.4279 27.2927 24.3676 27.3699 24.3239C27.421 24.295 27.5132 24.2437 27.6203 24.1952L27.6222 24.1943C27.653 24.1793 28.0228 24 28.5 24C28.6179 24 28.7122 24.0108 28.7378 24.0137L28.7389 24.0138C28.7791 24.0184 28.8134 24.0234 28.8357 24.0268C28.8811 24.0337 28.9253 24.0415 28.96 24.0479C29.0319 24.0611 29.1187 24.0784 29.2103 24.097C29.3957 24.1347 29.646 24.1873 29.9291 24.2469L29.9593 24.2533C30.442 24.3549 31.0335 24.4794 31.6367 24.601C31.5172 24.2481 31.3932 23.8838 31.2687 23.5199C30.9353 22.545 30.6016 21.5799 30.3512 20.858C30.226 20.4972 30.1217 20.1975 30.0487 19.9881L29.9347 19.6614L29.9344 19.6604C29.5699 18.6177 30.1196 17.4767 31.1623 17.1122C32.205 16.7477 33.3457 17.2975 33.7102 18.3402L31.8234 18.9997C33.7102 18.3402 33.7102 18.3402 33.7102 18.3402L33.8259 18.6719C33.8994 18.8827 34.0043 19.1841 34.1301 19.5467C34.3817 20.2718 34.7175 21.243 35.0535 22.2256C35.389 23.2065 35.727 24.2056 35.9821 24.9839C36.1091 25.3713 36.2193 25.7155 36.2992 25.9795C36.3385 26.1095 36.3756 26.2366 36.4045 26.3467C36.4186 26.4005 36.4357 26.4689 36.4507 26.5414L36.4516 26.5456C36.4594 26.5824 36.5 26.7734 36.5 27C36.5 27.8657 35.985 28.4265 35.602 28.6849C35.2759 28.9049 34.9649 28.9773 34.841 29.003C34.5651 29.0603 34.3144 29.0569 34.1981 29.0539C33.9185 29.0466 33.5969 29.0082 33.3077 28.9671C32.7028 28.8812 31.9257 28.7365 31.1822 28.5892C30.4465 28.4435 29.707 28.2879 29.142 28.1689L29.1051 28.1611C29.0087 28.1408 28.9183 28.1218 28.8343 28.1042C28.6027 28.2374 28.3123 28.3962 27.9753 28.5563C27.0262 29.0075 25.6471 29.5 24 29.5C22.3532 29.5 20.9731 29.0077 20.0234 28.5566C19.6894 28.3979 19.401 28.2406 19.1701 28.1079C19.0988 28.1233 19.0228 28.1398 18.9425 28.1571L18.9076 28.1647C18.3375 28.288 17.5803 28.4515 16.8261 28.6035C16.0814 28.7536 15.2983 28.9009 14.6859 28.9856C14.3945 29.026 14.0611 29.064 13.7665 29.0664C13.6441 29.0674 13.3725 29.066 13.0736 28.9902C12.9326 28.9544 12.6124 28.8611 12.2889 28.6094C11.9038 28.31 11.5 27.7596 11.5 27C11.5 26.7799 11.5373 26.5975 11.5468 26.551L11.5476 26.5468C11.5634 26.4692 11.5815 26.3969 11.5964 26.3406C11.6267 26.2258 11.6652 26.0969 11.7052 25.9685C11.7864 25.7075 11.8979 25.3722 12.0257 24.9983C12.2824 24.2466 12.6235 23.284 12.9651 22.3306C13.2844 21.439 13.6071 20.5475 13.8658 19.8326C13.8843 19.7816 13.9024 19.7315 13.9202 19.6823C14.054 19.3124 14.1675 18.9987 14.2513 18.7653C14.2933 18.6484 14.3269 18.5545 14.3514 18.485C14.3677 18.4389 14.3766 18.4129 14.3806 18.4013C14.3838 18.3921 14.3839 18.3919 14.382 18.3979C14.7145 17.3445 15.838 16.7602 16.8913 17.0928ZM34.3018 25.0552C34.3018 25.0552 34.2976 25.0551 34.2952 25.055C34.3121 25.0549 34.3154 25.0556 34.3018 25.0552Z" fill="#333333"/>
</svg>
