<svg width="48" height="48" viewBox="0 0 48 48" fill="none" xmlns="http://www.w3.org/2000/svg">
<path fill-rule="evenodd" clip-rule="evenodd" d="M34 17.0001C35.111 17.0086 36 17.9057 36 19C36 20.0995 35.1024 21 33.9839 21C33.4316 21 32.9839 21.4477 32.9839 22V25C32.9839 25.5523 33.4316 26 33.9839 26C34.5362 26 34.9839 25.5523 34.9839 25V22.8749C36.7153 22.4327 38 20.8689 38 19C38 16.8072 36.2315 15.0345 34.0479 15.0005C34.0373 15.0002 34.0267 15 34.016 15H33.9839C33.9733 15 33.9626 15.0002 33.9521 15.0005C31.7684 15.0345 30 16.8072 30 19C30 19.5523 30.4477 20 31 20C31.5523 20 32 19.5523 32 19C32 17.9057 32.889 17.0086 34 17.0001Z" fill="#333333"/>
<path fill-rule="evenodd" clip-rule="evenodd" d="M31.5046 6.2749C31.5464 6.3271 31.5871 6.37986 31.6269 6.43315L33.9584 9.45546L33.9666 9.46626L34.7795 10.5501C35.4525 11.4389 35.9465 12.4205 36.2615 13.4454C35.5899 13.1712 34.8584 13.0146 34.0932 13.001C34.0676 13.0003 34.0419 13 34.0161 13H33.9839C33.9581 13 33.9324 13.0003 33.9068 13.001C30.6491 13.059 28 15.708 28 19C28 20.6515 29.3345 21.9913 30.9839 22V25C30.9839 25.1395 30.9935 25.2769 31.0119 25.4114L26.5721 19.7987L25.439 18.3351L29.9379 12.524L29.9429 12.5178C31.0678 11.1116 31.0975 9.07935 30.032 7.64012L29.932 7.5104L31.5046 6.2749Z" fill="#333333"/>
<path fill-rule="evenodd" clip-rule="evenodd" d="M29.5913 4.67461C28.7899 4.21665 27.8914 4 26.9237 4H21.6761C19.8516 4 18.0073 4.84975 16.8974 6.38697C16.8603 6.43373 16.8241 6.48089 16.7886 6.52844L14.4522 9.55709L13.6409 10.639C13.6404 10.6397 13.6399 10.6403 13.6394 10.641C11.1085 13.9837 11.109 18.6379 13.6409 21.98L13.6468 21.9878L23.424 34.3903L30.0001 42.7749C30.7148 43.6861 32.0516 43.8018 32.9121 43.0268L36.9781 39.3654C37.7571 38.6639 37.8623 37.4799 37.2191 36.6521L29.789 27.0891L24.9969 21.0313L18.481 12.6149L18.476 12.6086C17.9075 11.898 17.6094 10.9479 17.6094 10.0667C17.6094 9.25167 17.8657 8.43472 18.3831 7.73584L18.4982 7.5867L18.5089 7.57171C19.2104 6.58966 20.4332 6 21.6761 6H26.9237C27.5847 6 28.1338 6.14525 28.599 6.4111C29.181 6.74365 29.6704 7.1096 30.0005 7.57171L31.6279 6.40924C31.0533 5.60468 30.276 5.06587 29.5913 4.67461ZM15.717 11.2043C15.8931 12.14 16.2872 13.0717 16.909 13.8515L23.4251 22.2681L28.2204 28.3299L35.6398 37.8792L31.5738 41.5406L24.9963 33.1543L15.2294 20.7648C13.2437 18.1368 13.2456 14.4728 15.2351 11.8467L15.238 11.8429L15.717 11.2043Z" fill="#333333"/>
<path d="M17.5856 7.1325L17.6952 6.99048C17.6577 7.03734 17.6211 7.08469 17.5856 7.1325L15.2523 10.1571L14.438 11.2429C12.1761 14.2286 12.1761 18.3905 14.438 21.3762L24.2094 33.7714L30.7869 42.1577C31.1443 42.6134 31.8127 42.6712 32.243 42.2837L36.3089 38.6223C36.6984 38.2715 36.751 37.6796 36.4294 37.2657L29.0047 27.7095L24.2094 21.6476L17.6952 13.2333C16.9713 12.3286 16.6094 11.1524 16.6094 10.0667C16.6094 9.03719 16.9348 8.00771 17.5856 7.1325Z" fill="#333333"/>
<path fill-rule="evenodd" clip-rule="evenodd" d="M16.8974 6.38697C18.0073 4.84975 19.8516 4 21.6761 4V6C20.4332 6 19.2104 6.58966 18.5089 7.57171L18.4982 7.5867L18.3831 7.73584C17.8657 8.43472 17.6094 9.25167 17.6094 10.0667C17.6094 10.9479 17.9075 11.898 18.476 12.6086L18.481 12.6149L24.9969 21.0313L29.789 27.0891L37.2191 36.6521C37.8623 37.4799 37.7571 38.6639 36.9781 39.3654L32.9121 43.0268C32.0516 43.8018 30.7148 43.6861 30.0001 42.7749L23.424 34.3903L13.6468 21.9878L13.6409 21.98C11.109 18.6379 11.1085 13.9837 13.6394 10.641C13.6399 10.6403 13.6404 10.6397 13.6409 10.639L14.4522 9.55709L16.7886 6.52844C16.8241 6.48089 16.8603 6.43373 16.8974 6.38697ZM15.717 11.2043C15.8931 12.14 16.2872 13.0717 16.909 13.8515L23.4251 22.2681L28.2204 28.3299L35.6398 37.8792L31.5738 41.5406L24.9963 33.1543L15.2294 20.7648C13.2437 18.1368 13.2456 14.4728 15.2351 11.8467L15.238 11.8429L15.717 11.2043Z" fill="#333333"/>
<path fill-rule="evenodd" clip-rule="evenodd" d="M16.5675 29.728L21.4555 35.9317L21.4603 35.9377L22.6207 37.4173L18.3652 42.8431C17.6916 43.702 16.4538 43.8621 15.5838 43.203L11.2054 39.886C10.3155 39.2119 10.1498 37.9399 10.8372 37.0603L16.5675 29.728Z" fill="#333333"/>
<path fill-rule="evenodd" clip-rule="evenodd" d="M21.5857 13.5093C20.5463 13.5093 19.5467 13.8815 18.8547 14.5735L17.4405 13.1593C18.558 12.0418 20.0918 11.5093 21.5857 11.5093H26.8333C28.3713 11.5093 29.8709 12.1606 30.9403 13.1231L29.6024 14.6097C28.8624 13.9437 27.8286 13.5093 26.8333 13.5093H21.5857Z" fill="#333333"/>
<path fill-rule="evenodd" clip-rule="evenodd" d="M34 29C34.5523 29 35 28.5523 35 28C35 27.4477 34.5523 27 34 27C33.4477 27 33 27.4477 33 28C33 28.5523 33.4477 29 34 29Z" fill="#333333"/>
</svg>
