<svg width="48" height="48" viewBox="0 0 48 48" fill="none" xmlns="http://www.w3.org/2000/svg">
<g clip-path="url(#clip0)">
<path fill-rule="evenodd" clip-rule="evenodd" d="M14.8324 13.4187C17.0531 11.4931 19.8859 10.2549 22.9999 10.0352V12C22.9999 12.5523 23.4476 13 23.9999 13C24.5522 13 24.9999 12.5523 24.9999 12V10.0352C28.1137 10.2549 30.9465 11.493 33.167 13.4184L31.7781 14.8074C31.3875 15.1979 31.3875 15.8311 31.7781 16.2216C32.1686 16.6121 32.8017 16.6121 33.1923 16.2216L34.5812 14.8326C36.5068 17.0532 37.7449 19.886 37.9647 23H35.9999C35.4476 23 34.9999 23.4477 34.9999 24C34.9999 24.5523 35.4476 25 35.9999 25H37.9647C37.7449 28.1139 36.5068 30.9466 34.5814 33.1672L33.1923 31.7781C32.8017 31.3876 32.1686 31.3876 31.778 31.7781C31.3875 32.1686 31.3875 32.8018 31.778 33.1923L33.1672 34.5814C30.9466 36.5069 28.1138 37.7451 24.9999 37.9648V36C24.9999 35.4477 24.5522 35 23.9999 35C23.4476 35 22.9999 35.4477 22.9999 36V37.9648C19.886 37.7451 17.0534 36.507 14.8328 34.5816L16.2217 33.1927C16.6122 32.8022 16.6122 32.1691 16.2217 31.7785C15.8312 31.388 15.198 31.388 14.8075 31.7785L13.4186 33.1674C11.493 30.9468 10.2548 28.114 10.035 25H11.9999C12.5522 25 12.9999 24.5523 12.9999 24C12.9999 23.4477 12.5522 23 11.9999 23H10.035C10.2548 19.8861 11.4929 17.0535 13.4183 14.8329L14.8075 16.2221C15.198 16.6126 15.8312 16.6126 16.2217 16.2221C16.6122 15.8316 16.6122 15.1984 16.2217 14.8079L14.8324 13.4187ZM15.9999 21C15.9999 20.4477 15.5522 20 14.9999 20C14.4476 20 13.9999 20.4477 13.9999 21V27C13.9999 27.5523 14.4476 28 14.9999 28C15.5522 28 15.9999 27.5523 15.9999 27V25H17.9999V27C17.9999 27.5523 18.4476 28 18.9999 28C19.5522 28 19.9999 27.5523 19.9999 27V21C19.9999 20.4477 19.5522 20 18.9999 20C18.4476 20 17.9999 20.4477 17.9999 21V23H15.9999V21ZM20.9999 21C20.9999 20.4477 21.4476 20 21.9999 20H24.4999C25.8806 20 26.9999 21.1193 26.9999 22.5C26.9999 23.8807 25.8806 25 24.4999 25H22.9999V27C22.9999 27.5523 22.5522 28 21.9999 28C21.4476 28 20.9999 27.5523 20.9999 27V21ZM22.9999 23H24.4999C24.776 23 24.9999 22.7761 24.9999 22.5C24.9999 22.2239 24.776 22 24.4999 22H22.9999V23ZM31.923 27.3846C31.7677 27.7573 31.4036 28 30.9999 28C30.5962 28 30.2321 27.7573 30.0768 27.3846L27.5768 21.3846C27.3644 20.8748 27.6055 20.2893 28.1153 20.0769C28.6251 19.8645 29.2105 20.1056 29.423 20.6154L30.9999 24.4L32.5768 20.6154C32.7892 20.1056 33.3747 19.8645 33.8845 20.0769C34.3943 20.2893 34.6354 20.8748 34.423 21.3846L31.923 27.3846Z" fill="#333333"/>
<path fill-rule="evenodd" clip-rule="evenodd" d="M20.9999 5C20.9999 4.44772 21.4476 4 21.9999 4H25.9999C26.5522 4 26.9999 4.44772 26.9999 5C26.9999 5.55228 26.5522 6 25.9999 6H24.9999V8C24.9999 8.55228 24.5522 9 23.9999 9C23.4476 9 22.9999 8.55228 22.9999 8V6H21.9999C21.4476 6 20.9999 5.55228 20.9999 5Z" fill="#333333"/>
<path fill-rule="evenodd" clip-rule="evenodd" d="M23.9999 39C24.5522 39 24.9999 39.4477 24.9999 40V42H25.9999C26.5522 42 26.9999 42.4477 26.9999 43C26.9999 43.5523 26.5522 44 25.9999 44H21.9999C21.4476 44 20.9999 43.5523 20.9999 43C20.9999 42.4477 21.4476 42 21.9999 42H22.9999V40C22.9999 39.4477 23.4476 39 23.9999 39Z" fill="#333333"/>
<path fill-rule="evenodd" clip-rule="evenodd" d="M12.6862 39.5567C12.2956 39.9472 11.6625 39.9472 11.272 39.5567L8.44353 36.7283C8.05301 36.3378 8.05301 35.7046 8.44353 35.3141C8.83406 34.9236 9.46722 34.9236 9.85774 35.3141L10.5649 36.0212L11.9791 34.607C12.3696 34.2164 13.0028 34.2164 13.3933 34.607C13.7838 34.9975 13.7838 35.6307 13.3933 36.0212L11.9791 37.4354L12.6862 38.1425C13.0767 38.533 13.0767 39.1662 12.6862 39.5567Z" fill="#333333"/>
<path fill-rule="evenodd" clip-rule="evenodd" d="M34.6065 13.3938C34.216 13.0032 34.216 12.3701 34.6065 11.9796L36.0207 10.5653L35.3136 9.85823C34.9231 9.46771 34.9231 8.83454 35.3136 8.44402C35.7041 8.0535 36.3373 8.0535 36.7278 8.44402L39.5562 11.2724C39.9468 11.663 39.9468 12.2961 39.5562 12.6867C39.1657 13.0772 38.5325 13.0772 38.142 12.6867L37.4349 11.9796L36.0207 13.3938C35.6302 13.7843 34.997 13.7843 34.6065 13.3938Z" fill="#333333"/>
<path fill-rule="evenodd" clip-rule="evenodd" d="M4.99988 27C4.44759 27 3.99988 26.5523 3.99988 26V22C3.99988 21.4477 4.44759 21 4.99988 21C5.55216 21 5.99988 21.4477 5.99988 22V23H7.99988C8.55216 23 8.99988 23.4477 8.99988 24C8.99988 24.5523 8.55216 25 7.99988 25H5.99988V26C5.99988 26.5523 5.55216 27 4.99988 27Z" fill="#333333"/>
<path fill-rule="evenodd" clip-rule="evenodd" d="M38.9999 24C38.9999 23.4477 39.4476 23 39.9999 23H41.9999V22C41.9999 21.4477 42.4476 21 42.9999 21C43.5522 21 43.9999 21.4477 43.9999 22V26C43.9999 26.5523 43.5522 27 42.9999 27C42.4476 27 41.9999 26.5523 41.9999 26V25H39.9999C39.4476 25 38.9999 24.5523 38.9999 24Z" fill="#333333"/>
<path fill-rule="evenodd" clip-rule="evenodd" d="M8.44353 12.6866C8.053 12.2961 8.053 11.6629 8.44353 11.2724L11.272 8.44396C11.6625 8.05343 12.2956 8.05343 12.6862 8.44396C13.0767 8.83448 13.0767 9.46765 12.6862 9.85817L11.9791 10.5653L13.3933 11.9795C13.7838 12.37 13.7838 13.0032 13.3933 13.3937C13.0028 13.7842 12.3696 13.7842 11.9791 13.3937L10.5648 11.9795L9.85774 12.6866C9.46722 13.0771 8.83405 13.0771 8.44353 12.6866Z" fill="#333333"/>
<path fill-rule="evenodd" clip-rule="evenodd" d="M34.6065 34.6069C34.997 34.2164 35.6302 34.2164 36.0207 34.6069L37.4349 36.0211L38.142 35.314C38.5325 34.9235 39.1657 34.9235 39.5562 35.314C39.9467 35.7045 39.9467 36.3377 39.5562 36.7282L36.7278 39.5567C36.3373 39.9472 35.7041 39.9472 35.3136 39.5567C34.9231 39.1661 34.9231 38.533 35.3136 38.1424L36.0207 37.4353L34.6065 36.0211C34.216 35.6306 34.216 34.9974 34.6065 34.6069Z" fill="#333333"/>
</g>
<defs>
<clipPath id="clip0">
<rect width="48" height="48" fill="white"/>
</clipPath>
</defs>
</svg>
