<svg width="48" height="48" viewBox="0 0 48 48" fill="none" xmlns="http://www.w3.org/2000/svg">
<path fill-rule="evenodd" clip-rule="evenodd" d="M24 13C26.4853 13 28.5 10.9853 28.5 8.5C28.5 6.01472 26.4853 4 24 4C21.5147 4 19.5 6.01472 19.5 8.5C19.5 10.9853 21.5147 13 24 13ZM33.4758 25.7317C33.624 26.5467 33.0834 27.3276 32.2683 27.4758C31.4533 27.624 30.6724 27.0834 30.5242 26.2683C30.446 25.8383 30.3661 25.3247 30.2778 24.7575C30.1291 23.8014 29.9566 22.6928 29.7286 21.5746C29.5537 20.7164 29.3683 19.9798 29.1787 19.4632C29.1339 19.3412 29.0939 19.2455 29.0602 19.1725C25.4523 18.2518 22.569 18.2878 18.937 19.2108C18.9038 19.2826 18.8645 19.3763 18.8204 19.4957C18.6312 20.0082 18.446 20.7398 18.2711 21.5934C18.0426 22.7085 17.869 23.8201 17.7196 24.7773C17.6321 25.3372 17.5529 25.8443 17.4758 26.2683C17.3276 27.0834 16.5468 27.624 15.7317 27.4758C14.9166 27.3276 14.376 26.5467 14.5242 25.7317C14.576 25.447 14.6439 25.0156 14.7246 24.5029C14.8852 23.483 15.0966 22.1411 15.3322 20.9912C15.5154 20.097 15.7365 19.1869 16.006 18.4568C16.1392 18.096 16.3079 17.7129 16.528 17.3818C16.719 17.0946 17.1154 16.5895 17.7953 16.4082C22.2083 15.2312 25.7676 15.1762 30.2083 16.3722C30.8892 16.5556 31.2847 17.0638 31.4744 17.351C31.6938 17.683 31.862 18.0672 31.995 18.4296C32.2641 19.1627 32.485 20.0769 32.6682 20.9753C32.9022 22.1233 33.1133 23.4681 33.2739 24.4905C33.3555 25.0102 33.424 25.4468 33.4758 25.7317ZM28.9546 18.982C28.9545 18.9826 28.9594 18.9898 28.9695 19.0018C28.9598 18.9873 28.9547 18.9813 28.9546 18.982ZM19.0424 19.0209C19.0423 19.0203 19.0374 19.0262 19.0279 19.0403C19.0378 19.0286 19.0425 19.0216 19.0424 19.0209ZM22.5 30.5V42.5C22.5 43.3284 21.8284 44 21 44C20.1716 44 19.5 43.3284 19.5 42.5V30.5H22.5ZM28.5 30.5H25.5V42.5C25.5 43.3284 26.1716 44 27 44C27.8284 44 28.5 43.3284 28.5 42.5V30.5Z" fill="#333333"/>
<path d="M20 18H28L27 25L28.5 30.5H19.5L21 25L20 18Z" fill="#333333"/>
</svg>
