<svg width="48" height="48" viewBox="0 0 48 48" fill="none" xmlns="http://www.w3.org/2000/svg">
<path fill-rule="evenodd" clip-rule="evenodd" d="M15 39.2485V14.5C15 13.6716 14.3284 13 13.5 13C12.6716 13 12 13.6716 12 14.5V39.2485L13.5 40.9628L15 39.2485ZM17 40V14.5C17 12.567 15.433 11 13.5 11C11.567 11 10 12.567 10 14.5V40L13.5 44L17 40Z" fill="#333333"/>
<path fill-rule="evenodd" clip-rule="evenodd" d="M27 6H21V42H27V6ZM19 4V44H29V4H19Z" fill="#333333"/>
<path fill-rule="evenodd" clip-rule="evenodd" d="M36 30H33V42H36V30ZM33 28C31.8954 28 31 28.8954 31 30V42C31 43.1046 31.8954 44 33 44H36C37.1046 44 38 43.1046 38 42V30C38 28.8954 37.1046 28 36 28H33Z" fill="#333333"/>
<path fill-rule="evenodd" clip-rule="evenodd" d="M37 37H33V35H37V37Z" fill="#333333"/>
<path fill-rule="evenodd" clip-rule="evenodd" d="M16 19H12V17H16V19Z" fill="#333333"/>
<path fill-rule="evenodd" clip-rule="evenodd" d="M27 10H23V8H27V10Z" fill="#333333"/>
<path fill-rule="evenodd" clip-rule="evenodd" d="M29 35H25V33H29V35Z" fill="#333333"/>
<path fill-rule="evenodd" clip-rule="evenodd" d="M29 15H25V13H29V15Z" fill="#333333"/>
<path fill-rule="evenodd" clip-rule="evenodd" d="M29 20H25V18H29V20Z" fill="#333333"/>
<path fill-rule="evenodd" clip-rule="evenodd" d="M27 25H23V23H27V25Z" fill="#333333"/>
<path fill-rule="evenodd" clip-rule="evenodd" d="M29 30H25V28H29V30Z" fill="#333333"/>
<path fill-rule="evenodd" clip-rule="evenodd" d="M27 40H23V38H27V40Z" fill="#333333"/>
</svg>
