<svg width="48" height="48" viewBox="0 0 48 48" fill="none" xmlns="http://www.w3.org/2000/svg">
<path fill-rule="evenodd" clip-rule="evenodd" d="M30.5319 14.928L33.4892 10.605C30.7398 10.8028 27.4667 11.4493 24.3167 12.3606C22.0673 13.0114 19.5678 12.912 17.2517 12.4846C16.6636 12.3761 16.0826 12.2456 15.515 12.0987L17.4354 14.9257C21.5502 16.3907 26.4163 16.3914 30.5319 14.928ZM16.2808 16.6302C21.0963 18.4906 26.8833 18.4899 31.6981 16.6283C33.6019 18.6233 35.3941 21.1329 36.6864 23.7708C38.0379 26.5295 38.7737 29.2859 38.6536 31.6622C38.5378 33.9552 37.6358 35.9145 35.5763 37.3696C33.4286 38.8869 29.8184 39.9971 24.0388 39.9971C18.254 39.9971 14.6257 38.9058 12.4592 37.4056C10.3839 35.9685 9.47298 34.0366 9.34362 31.7738C9.20926 29.4234 9.92867 26.6809 11.2758 23.9044C12.5607 21.2562 14.3544 18.7072 16.2808 16.6302ZM15.1313 9.91633C15.9311 10.1542 16.7667 10.3614 17.6146 10.5178C19.7643 10.9145 21.9214 10.9715 23.7609 10.4394C25.9066 9.81864 28.1513 9.30397 30.2902 8.96795C28.4501 8.4139 26.2993 8 24.0388 8C20.594 8 17.3809 8.96102 15.1313 9.91633ZM13.1529 8.62149C15.6073 7.41991 19.6323 6 24.0388 6C28.3535 6 32.273 7.36139 34.7142 8.54616C34.7605 8.56864 34.8063 8.59106 34.8515 8.6134C35.5878 8.97698 36.1812 9.32094 36.5998 9.6L32.9059 15C41.4215 23.7055 47.9999 41.9971 24.0388 41.9971C0.0776806 41.9971 6.47839 24.0384 15.0681 15L11.3998 9.6C11.6818 9.41472 12.0414 9.20082 12.469 8.97158C12.6807 8.85811 12.9091 8.74087 13.1529 8.62149Z" fill="#333333"/>
<path fill-rule="evenodd" clip-rule="evenodd" d="M22.9999 24C21.8953 24 20.9999 24.8954 20.9999 26C20.9999 27.1046 21.8953 28 22.9999 28H24.9999C27.209 28 28.9999 29.7909 28.9999 32C28.9999 34.2091 27.209 36 24.9999 36H22.9999C21.2567 36 19.7764 34.8855 19.2277 33.3332C19.0437 32.8125 19.3166 32.2412 19.8373 32.0572C20.3581 31.8731 20.9294 32.146 21.1134 32.6668C21.3885 33.4449 22.1306 34 22.9999 34H24.9999C26.1045 34 26.9999 33.1046 26.9999 32C26.9999 30.8954 26.1045 30 24.9999 30H22.9999C20.7907 30 18.9999 28.2091 18.9999 26C18.9999 23.7909 20.7907 22 22.9999 22H24.9999C26.7431 22 28.2234 23.1145 28.772 24.6668C28.9561 25.1875 28.6831 25.7588 28.1624 25.9428C27.6417 26.1269 27.0704 25.854 26.8863 25.3332C26.6113 24.5551 25.8691 24 24.9999 24H22.9999Z" fill="#333333"/>
<path fill-rule="evenodd" clip-rule="evenodd" d="M22.9999 37V21H24.9999V37H22.9999Z" fill="#333333"/>
</svg>
