<svg width="48" height="48" viewBox="0 0 48 48" fill="none" xmlns="http://www.w3.org/2000/svg">
<path fill-rule="evenodd" clip-rule="evenodd" d="M20.2933 6.29289C20.6838 5.90237 21.317 5.90237 21.7075 6.29289L27.7071 12.2925C28.0976 12.683 28.0976 13.3162 27.7071 13.7067C27.3166 14.0973 26.6834 14.0973 26.2929 13.7067L20.2933 7.70711C19.9027 7.31658 19.9027 6.68342 20.2933 6.29289Z" fill="#333333"/>
<path fill-rule="evenodd" clip-rule="evenodd" d="M27.707 6.29289C28.0975 6.68342 28.0975 7.31658 27.707 7.70711L21.7074 13.7067C21.3168 14.0973 20.6837 14.0973 20.2931 13.7067C19.9026 13.3162 19.9026 12.683 20.2931 12.2925L26.2928 6.29289C26.6833 5.90237 27.3165 5.90237 27.707 6.29289Z" fill="#333333"/>
<path fill-rule="evenodd" clip-rule="evenodd" d="M24 24C24.5523 24 25 24.4477 25 25V40.5C25 40.8235 24.8435 41.127 24.58 41.3146C24.3166 41.5022 23.9786 41.5508 23.6729 41.445L10.6729 36.945C10.2701 36.8056 10 36.4262 10 36V27C10 26.4477 10.4477 26 11 26C11.5523 26 12 26.4477 12 27V35.2879L23 39.0956V25C23 24.4477 23.4477 24 24 24Z" fill="#333333"/>
<path fill-rule="evenodd" clip-rule="evenodd" d="M37 26C36.4477 26 36 26.4477 36 27V35.2879L23.6729 39.555C23.151 39.7357 22.8744 40.3052 23.055 40.8271C23.2357 41.349 23.8052 41.6256 24.3271 41.445L37.3271 36.945C37.7299 36.8056 38 36.4262 38 36V27C38 26.4477 37.5523 26 37 26Z" fill="#333333"/>
<path fill-rule="evenodd" clip-rule="evenodd" d="M23.6729 15.055C23.8848 14.9817 24.1152 14.9817 24.3271 15.055L37.3271 19.555C37.849 19.7357 38.1257 20.3052 37.945 20.8271C37.7643 21.349 37.1948 21.6256 36.6729 21.445L24 17.0582L11.3271 21.445C10.8052 21.6256 10.2357 21.349 10.055 20.8271C9.87437 20.3052 10.151 19.7357 10.6729 19.555L23.6729 15.055Z" fill="#333333"/>
<path fill-rule="evenodd" clip-rule="evenodd" d="M10.2191 19.8753C10.4835 19.5449 10.9272 19.4166 11.3271 19.555L24.3271 24.055C24.6235 24.1576 24.8546 24.3933 24.9513 24.6917C25.048 24.9901 24.9991 25.3165 24.8192 25.5735L21.3192 30.5735C21.0655 30.936 20.6036 31.0886 20.1838 30.9487L6.68378 26.4487C6.3736 26.3453 6.13356 26.0968 6.04096 25.7832C5.94836 25.4697 6.01489 25.1306 6.21914 24.8753L10.2191 19.8753ZM11.3399 21.6759L8.67677 25.0048L20.1086 28.8154L22.4212 25.5117L11.3399 21.6759Z" fill="#333333"/>
<path fill-rule="evenodd" clip-rule="evenodd" d="M37.7809 19.8753C37.5165 19.5449 37.0728 19.4166 36.6729 19.555L23.6729 24.055C23.3765 24.1576 23.1454 24.3933 23.0487 24.6917C22.952 24.9901 23.0009 25.3165 23.1808 25.5735L26.6808 30.5735C26.9346 30.936 27.3964 31.0886 27.8162 30.9487L41.3162 26.4487C41.6264 26.3453 41.8665 26.0968 41.9591 25.7832C42.0517 25.4697 41.9851 25.1306 41.7809 24.8753L37.7809 19.8753ZM36.6601 21.6759L39.3232 25.0048L27.8915 28.8154L25.5789 25.5117L36.6601 21.6759Z" fill="#333333"/>
<path fill-rule="evenodd" clip-rule="evenodd" d="M33.9487 32.1838C34.1233 32.7077 33.8402 33.274 33.3162 33.4487L28.8162 34.9487C28.2923 35.1233 27.726 34.8402 27.5513 34.3162C27.3767 33.7923 27.6598 33.226 28.1838 33.0513L32.6838 31.5513C33.2077 31.3767 33.774 31.6598 33.9487 32.1838Z" fill="#333333"/>
</svg>
