<svg width="48" height="48" viewBox="0 0 48 48" fill="none" xmlns="http://www.w3.org/2000/svg">
<path fill-rule="evenodd" clip-rule="evenodd" d="M6 42L6 6L8 6L8 42H6Z" fill="#333333"/>
<path fill-rule="evenodd" clip-rule="evenodd" d="M17 10V6L19 6V10H17Z" fill="#333333"/>
<path fill-rule="evenodd" clip-rule="evenodd" d="M23 12H13V22H23V12ZM11 10V24H25V10H11Z" fill="#333333"/>
<path fill-rule="evenodd" clip-rule="evenodd" d="M30 25V29H40V25H30ZM28 31H42V23H28V31Z" fill="#333333"/>
<path fill-rule="evenodd" clip-rule="evenodd" d="M11 14H8V20H11V14ZM6 12V22H13V12H6Z" fill="#333333"/>
<path fill-rule="evenodd" clip-rule="evenodd" d="M23 20.6667V12H30C35.5228 12 40 16.4772 40 22V25H30V22.6667C30 21.5621 29.1046 20.6667 28 20.6667H23ZM32 23H38V22C38 17.5817 34.4183 14 30 14H25V18.6667H28C30.2091 18.6667 32 20.4575 32 22.6667V23Z" fill="#333333"/>
<path fill-rule="evenodd" clip-rule="evenodd" d="M35.5 40C36.2571 40 37 39.3401 37 38.3636C37 37.4318 36.4476 36.2765 35.6372 35.1714C35.5915 35.109 35.5457 35.0478 35.5 34.9879C35.4543 35.0478 35.4085 35.109 35.3628 35.1714C34.5524 36.2765 34 37.4318 34 38.3636C34 39.3401 34.7429 40 35.5 40ZM34.1514 33.4769C34.1511 33.4766 34.1516 33.4771 34.1529 33.4783L34.1514 33.4769ZM35.5 42C37.433 42 39 40.3719 39 38.3636C39 35.1818 35.5 32 35.5 32C35.5 32 32 35.1818 32 38.3636C32 40.3719 33.567 42 35.5 42Z" fill="#333333"/>
<path fill-rule="evenodd" clip-rule="evenodd" d="M27 7C27 7.55228 26.5523 8 26 8H10C9.44771 8 9 7.55228 9 7C9 6.44772 9.44771 6 10 6H26C26.5523 6 27 6.44772 27 7Z" fill="#333333"/>
</svg>
