<svg width="48" height="48" viewBox="0 0 48 48" fill="none" xmlns="http://www.w3.org/2000/svg">
<path fill-rule="evenodd" clip-rule="evenodd" d="M23.9897 4C24.542 4 24.9897 4.44772 24.9897 5V7C24.9897 7.55228 24.542 8 23.9897 8C23.4375 8 22.9897 7.55228 22.9897 7V5C22.9897 4.44772 23.4375 4 23.9897 4Z" fill="#333333"/>
<path fill-rule="evenodd" clip-rule="evenodd" d="M39.4504 19.7631C37.5845 12.9693 31.3627 7.97705 23.9758 7.97705C16.5888 7.97705 10.3669 12.9694 8.50109 19.7633C9.39678 19.4731 10.3523 19.3162 11.3437 19.3162C13.6312 19.3162 15.7252 20.151 17.3353 21.5289C19.179 20.1407 21.475 19.3161 23.9607 19.3161C26.4537 19.3161 28.7558 20.1455 30.6022 21.541C32.2142 20.1559 34.3139 19.3161 36.6081 19.3161C37.5994 19.3161 38.5548 19.473 39.4504 19.7631ZM41.7493 20.8821C40.2629 12.4129 32.8709 5.97705 23.9758 5.97705C15.0805 5.97705 7.68842 12.413 6.20215 20.8824C6.17846 21.0174 6.15627 21.153 6.13559 21.289C6.07071 21.7159 6.02079 22.1477 5.98637 22.5839C5.97486 22.7298 5.96509 22.8762 5.95707 23.023C5.94107 23.316 6.29613 23.3662 6.51413 23.1698C6.55518 23.1328 6.59665 23.0963 6.63854 23.0603C6.98812 22.7595 7.36683 22.4917 7.76986 22.2616C7.85942 22.2104 7.95017 22.1612 8.04208 22.1138C9.03151 21.604 10.154 21.3162 11.3437 21.3162C13.5201 21.3162 15.4715 22.2793 16.7949 23.8026C16.9139 23.9396 17.0844 24.023 17.2659 24.023C17.4265 24.023 17.5797 23.9576 17.6953 23.8461C19.3183 22.2796 21.527 21.3161 23.9607 21.3161C26.3894 21.3161 28.5939 22.2756 30.2159 23.8363C30.3382 23.9539 30.5 24.023 30.6697 24.023C30.8614 24.023 31.0414 23.9348 31.1674 23.7904C32.4907 22.2741 34.4375 21.3161 36.6081 21.3161C37.7977 21.3161 38.9201 21.6039 39.9094 22.1136C40.0014 22.1609 40.0922 22.2102 40.1818 22.2614C40.5849 22.4915 40.9637 22.7594 41.3133 23.0602C41.3552 23.0963 41.3967 23.1328 41.4377 23.1697C41.6556 23.366 42.0105 23.3159 41.9945 23.023C41.9865 22.8763 41.9767 22.73 41.9652 22.5842C41.9308 22.1479 41.8808 21.7159 41.8159 21.2889C41.7952 21.1528 41.773 21.0172 41.7493 20.8821Z" fill="#333333"/>
<path fill-rule="evenodd" clip-rule="evenodd" d="M23.9757 20C24.528 20 24.9757 20.4477 24.9757 21V39.5C24.9757 40.8807 26.095 42 27.4757 42C28.8564 42 29.9757 40.8807 29.9757 39.5V38C29.9757 37.4477 30.4234 37 30.9757 37C31.528 37 31.9757 37.4477 31.9757 38V39.5C31.9757 41.9853 29.961 44 27.4757 44C24.9904 44 22.9757 41.9853 22.9757 39.5V21C22.9757 20.4477 23.4234 20 23.9757 20Z" fill="#333333"/>
</svg>
