<svg width="48" height="48" viewBox="0 0 48 48" fill="none" xmlns="http://www.w3.org/2000/svg">
<path fill-rule="evenodd" clip-rule="evenodd" d="M15.8866 18.1535C16.2621 16.8768 17.4338 16 18.7647 16H29.2353C30.5661 16 31.7378 16.8768 32.1134 18.1535L33.8781 24.1535C34.3048 25.6043 33.585 27.1458 32.1987 27.7501L31 28.2726V32C31 32.0029 31 32.0059 31 32.0088V41.2666C31 42.8524 29.6038 43.9395 28.1299 43.9974C26.6598 44.0552 25.1776 43.0907 25.0136 41.5279L24.1191 33H23.8808L22.9863 41.5279C22.8224 43.0907 21.3401 44.0552 19.8701 43.9974C18.3961 43.9395 17 42.8524 17 41.2666L17 31.7333L17 31.7225V28.2726L15.8012 27.7501C14.415 27.1458 13.6952 25.6043 14.1219 24.1535L15.8866 18.1535ZM29 31.9911V27.6176C29 27.2198 29.2358 26.8599 29.6004 26.7009L31.3995 25.9167C31.8616 25.7153 32.1016 25.2014 31.9593 24.7178L30.1946 18.7178C30.0695 18.2923 29.6789 18 29.2353 18H18.7647C18.3211 18 17.9305 18.2923 17.8053 18.7178L16.0406 24.7178C15.8984 25.2014 16.1383 25.7153 16.6004 25.9167L18.3996 26.701C18.7642 26.8599 19 27.2199 19 27.6177V31.7297L19 31.7333L19 41.2666C19 41.5344 19.2861 41.9729 19.9486 41.999C20.615 42.0252 20.9675 41.6023 20.9972 41.3192L21.9857 31.8957C22.0391 31.3866 22.4683 31 22.9802 31H25.0197C25.5316 31 25.9608 31.3866 26.0142 31.8957L27.0027 41.3192C27.0324 41.6023 27.3849 42.0252 28.0513 41.999C28.7139 41.9729 29 41.5344 29 41.2666V32C29 31.997 29 31.994 29 31.9911Z" fill="#333333"/>
<path fill-rule="evenodd" clip-rule="evenodd" d="M10.7215 17.0429C11.259 16.5053 12.0698 16 13 16H14V18H13C12.7873 18 12.4553 18.1375 12.1357 18.4571C11.987 18.6057 11.872 18.765 11.7985 18.9067C11.7622 18.9766 11.7398 19.0351 11.7271 19.0794C11.7253 19.086 11.7236 19.0921 11.7223 19.0977C11.7342 19.1178 11.753 19.1469 11.7821 19.1857C11.8919 19.332 12.0512 19.4941 12.2785 19.7215C12.2858 19.7287 12.2931 19.7361 12.3006 19.7435C12.4991 19.9419 12.7567 20.1994 12.9607 20.4714C13.1645 20.7432 13.4286 21.1737 13.4286 21.7143C13.4286 22.18 13.191 22.5173 12.9976 22.7158C12.8061 22.9125 12.5764 23.0597 12.3831 23.1685C12.0755 23.3415 11.6847 23.5097 11.3431 23.6568C11.2639 23.6909 11.1874 23.7238 11.1151 23.7554C10.6818 23.945 10.3473 24.1079 10.1249 24.2701C10.0948 24.292 10.0702 24.3114 10.0503 24.3281C10.1597 24.4275 10.3292 24.5289 10.6331 24.6999C10.6453 24.7067 10.6578 24.7137 10.6705 24.7209C10.9295 24.8662 11.308 25.0787 11.6125 25.3642C11.9688 25.6982 12.2857 26.187 12.2857 26.8571C12.2857 27.9235 11.5821 28.6213 11.1937 29.0066C11.1734 29.0266 11.1541 29.0459 11.1357 29.0643C10.6689 29.5311 10.5782 29.6815 10.5718 29.8379C10.5808 29.8583 10.6132 29.9182 10.716 30.0184C10.8854 30.1836 11.1474 30.3587 11.4648 30.5253C11.7735 30.6874 12.0897 30.8183 12.3333 30.9097C12.4537 30.9548 12.5532 30.9891 12.621 31.0116C12.6549 31.0229 12.6806 31.0311 12.6969 31.0363L12.7141 31.0416L12.7159 31.0422L12.717 31.0425L13.6737 31.3295L13.0991 33.2452L12.1412 32.9578L12.4174 32.0372C12.1412 32.9578 12.1414 32.9579 12.1412 32.9578L12.1391 32.9572L12.136 32.9563L12.1267 32.9534L12.096 32.9439C12.0705 32.9358 12.0349 32.9244 11.9906 32.9097C11.9022 32.8803 11.7784 32.8376 11.631 32.7823C11.3389 32.6728 10.9408 32.5091 10.5352 32.2961C10.1383 32.0878 9.686 31.8075 9.31976 31.4504C8.96309 31.1026 8.57143 30.5654 8.57143 29.8571C8.57143 28.7908 9.27501 28.093 9.66346 27.7077C9.6837 27.6876 9.70308 27.6684 9.72146 27.65C10.1978 27.1737 10.2825 27.0267 10.2856 26.8668C10.2787 26.8579 10.2661 26.8434 10.2446 26.8233C10.1356 26.7211 9.96517 26.6188 9.6526 26.443C9.64043 26.4362 9.62795 26.4292 9.61517 26.422C9.35622 26.2766 8.97773 26.0641 8.6732 25.7786C8.31691 25.4446 8 24.9559 8 24.2857C8 23.4739 8.54617 22.946 8.94654 22.654C9.36699 22.3475 9.88962 22.1086 10.3135 21.9231C10.4169 21.8779 10.5145 21.8357 10.6067 21.7959C10.851 21.6904 11.057 21.6015 11.2313 21.5153C11.1351 21.4077 11.0146 21.286 10.8643 21.1357C10.8571 21.1284 10.8497 21.1211 10.8423 21.1136C10.6438 20.9152 10.3862 20.6578 10.1821 20.3857C9.97834 20.114 9.71429 19.6834 9.71429 19.1429C9.71429 18.3384 10.2017 17.5627 10.7215 17.0429Z" fill="#333333"/>
<path fill-rule="evenodd" clip-rule="evenodd" d="M37.2785 17.0429C36.741 16.5053 35.9302 16 35 16H34V18H35C35.2127 18 35.5447 18.1375 35.8643 18.4571C36.013 18.6057 36.128 18.765 36.2015 18.9067C36.2378 18.9766 36.2602 19.0351 36.2729 19.0794C36.2747 19.086 36.2764 19.0921 36.2777 19.0977C36.2658 19.1178 36.247 19.1469 36.2179 19.1857C36.1081 19.332 35.9488 19.4941 35.7215 19.7215C35.7142 19.7287 35.7069 19.7361 35.6994 19.7435C35.5009 19.9419 35.2433 20.1994 35.0393 20.4714C34.8355 20.7432 34.5714 21.1737 34.5714 21.7143C34.5714 22.18 34.809 22.5173 35.0024 22.7158C35.1939 22.9125 35.4236 23.0597 35.6169 23.1685C35.9245 23.3415 36.3153 23.5097 36.6569 23.6568C36.7361 23.6909 36.8126 23.7238 36.8849 23.7554C37.3182 23.945 37.6527 24.1079 37.8751 24.2701C37.9052 24.292 37.9298 24.3114 37.9497 24.3281C37.8403 24.4275 37.6708 24.5289 37.3669 24.6999C37.3547 24.7067 37.3422 24.7137 37.3295 24.7209C37.0705 24.8662 36.692 25.0787 36.3875 25.3642C36.0312 25.6982 35.7143 26.187 35.7143 26.8571C35.7143 27.9235 36.4179 28.6213 36.8063 29.0066C36.8266 29.0266 36.8459 29.0459 36.8643 29.0643C37.3311 29.5311 37.4218 29.6815 37.4282 29.8379C37.4192 29.8583 37.3868 29.9182 37.284 30.0184C37.1146 30.1836 36.8526 30.3587 36.5352 30.5253C36.2265 30.6874 35.9103 30.8183 35.6667 30.9097C35.5463 30.9548 35.4468 30.9891 35.379 31.0116C35.3451 31.0229 35.3194 31.0311 35.3031 31.0363L35.2859 31.0416L35.2841 31.0422L35.283 31.0425L34.3263 31.3295L34.9009 33.2452L35.8588 32.9578L35.5826 32.0372C35.8588 32.9578 35.8586 32.9579 35.8588 32.9578L35.8609 32.9572L35.864 32.9563L35.8733 32.9534L35.904 32.9439C35.9295 32.9358 35.9651 32.9244 36.0094 32.9097C36.0978 32.8803 36.2215 32.8376 36.369 32.7823C36.6611 32.6728 37.0592 32.5091 37.4648 32.2961C37.8617 32.0878 38.314 31.8075 38.6802 31.4504C39.0369 31.1026 39.4286 30.5654 39.4286 29.8571C39.4286 28.7908 38.725 28.093 38.3365 27.7077C38.3163 27.6876 38.2969 27.6684 38.2785 27.65C37.8022 27.1737 37.7175 27.0267 37.7144 26.8668C37.7213 26.8579 37.7339 26.8434 37.7554 26.8233C37.8644 26.7211 38.0348 26.6188 38.3474 26.443C38.3596 26.4362 38.3721 26.4292 38.3848 26.422C38.6438 26.2766 39.0223 26.0641 39.3268 25.7786C39.6831 25.4446 40 24.9559 40 24.2857C40 23.4739 39.4538 22.946 39.0535 22.654C38.633 22.3475 38.1104 22.1086 37.6865 21.9231C37.5831 21.8779 37.4855 21.8357 37.3933 21.7959C37.149 21.6904 36.943 21.6015 36.7687 21.5153C36.8649 21.4077 36.9854 21.286 37.1357 21.1357C37.1429 21.1284 37.1503 21.1211 37.1577 21.1136C37.3562 20.9152 37.6138 20.6578 37.8179 20.3857C38.0217 20.114 38.2857 19.6834 38.2857 19.1429C38.2857 18.3384 37.7983 17.5627 37.2785 17.0429Z" fill="#333333"/>
<path fill-rule="evenodd" clip-rule="evenodd" d="M24 12C25.6569 12 27 10.6569 27 9C27 7.34315 25.6569 6 24 6C22.3431 6 21 7.34315 21 9C21 10.6569 22.3431 12 24 12ZM24 14C26.7614 14 29 11.7614 29 9C29 6.23858 26.7614 4 24 4C21.2386 4 19 6.23858 19 9C19 11.7614 21.2386 14 24 14Z" fill="#333333"/>
<path fill-rule="evenodd" clip-rule="evenodd" d="M18.9429 22.7001L19.8714 23.0715C21.1745 23.5928 22.1221 24.2188 22.5388 25.1564C22.9585 26.1007 22.6997 27.0632 22.4487 27.8162C22.3371 28.1509 22.1503 28.4546 21.8733 28.6907C21.5983 28.9252 21.2848 29.05 20.984 29.1073C20.4191 29.2149 19.8267 29.0977 19.3503 28.9615C18.8516 28.819 18.335 28.6109 17.8833 28.424C17.8103 28.3938 17.7392 28.3643 17.6701 28.3356C17.2882 28.1768 16.9646 28.0423 16.6838 27.9487L15.7351 27.6325L16.3675 25.7351L17.3162 26.0513C17.6723 26.17 18.0758 26.338 18.453 26.495C18.5189 26.5224 18.5841 26.5495 18.648 26.576C19.1025 26.7641 19.5234 26.931 19.8997 27.0385C20.2418 27.1362 20.4525 27.1558 20.5631 27.1483C20.8 26.4277 20.7902 26.1464 20.7112 25.9686C20.6279 25.7812 20.3255 25.4072 19.1286 24.9285L18.2001 24.5571L18.9429 22.7001Z" fill="#333333"/>
<path fill-rule="evenodd" clip-rule="evenodd" d="M29.0571 22.7001L28.1286 23.0715C26.8255 23.5928 25.8779 24.2188 25.4612 25.1564C25.0415 26.1007 25.3003 27.0632 25.5513 27.8162C25.6629 28.1509 25.8497 28.4546 26.1267 28.6907C26.4017 28.9252 26.7152 29.05 27.016 29.1073C27.5809 29.2149 28.1733 29.0977 28.6497 28.9615C29.1484 28.819 29.665 28.6109 30.1167 28.424C30.1897 28.3938 30.2608 28.3643 30.3299 28.3356C30.7118 28.1768 31.0354 28.0423 31.3162 27.9487L32.2649 27.6325L31.6325 25.7351L30.6838 26.0513C30.3277 26.17 29.9242 26.338 29.547 26.495C29.4811 26.5224 29.4159 26.5495 29.352 26.576C28.8975 26.7641 28.4766 26.931 28.1003 27.0385C27.7582 27.1362 27.5475 27.1558 27.4369 27.1483C27.2 26.4277 27.2098 26.1464 27.2888 25.9686C27.3721 25.7812 27.6745 25.4072 28.8714 24.9285L29.7999 24.5571L29.0571 22.7001Z" fill="#333333"/>
</svg>
