<svg width="48" height="48" viewBox="0 0 48 48" fill="none" xmlns="http://www.w3.org/2000/svg">
<path d="M37 10H40V12H37V10Z" fill="#333333"/>
<path fill-rule="evenodd" clip-rule="evenodd" d="M38 13.8671L37.4285 14.4503C37.1614 14.7229 37 15.0906 37 15.5C37 16.3284 37.6716 17 38.5 17C39.3284 17 40 16.3284 40 15.5C40 15.0906 39.8386 14.7229 39.5715 14.4503L39 13.8671V8.5C39 8.22386 38.7761 8 38.5 8C38.2239 8 38 8.22386 38 8.5V13.8671ZM36 8.5C36 7.11929 37.1193 6 38.5 6C39.8807 6 41 7.11929 41 8.5V13.0505C41.6186 13.6818 42 14.5463 42 15.5C42 17.433 40.433 19 38.5 19C36.567 19 35 17.433 35 15.5C35 14.5463 35.3814 13.6818 36 13.0505V8.5Z" fill="#333333"/>
<path fill-rule="evenodd" clip-rule="evenodd" d="M14.215 18.8858C14.6706 17.7469 15.7737 17 17.0005 17H26.0005C27.2272 17 28.3303 17.7469 28.7859 18.8858L30.7859 23.8858C31.4013 25.4242 30.653 27.1701 29.1147 27.7854L27.5005 28.4311V34C27.5005 34.0042 27.5005 34.0083 27.5004 34.0125V39.2666C27.5004 40.6926 26.414 41.9283 24.9564 41.9971C23.496 42.066 22.3021 40.9336 22.1777 39.5107L21.7834 35H21.2174L20.8231 39.5107C20.6987 40.9336 19.5048 42.066 18.0444 41.9971C16.5869 41.9283 15.5004 40.6926 15.5004 39.2666V29.7333L15.5005 29.7167V28.5052L13.782 27.7414C12.3082 27.0864 11.616 25.3833 12.215 23.8858L14.215 18.8858ZM25.5005 33.9875V27.7541C25.5005 27.3452 25.7494 26.9775 26.1291 26.8256L28.3719 25.9285C28.8847 25.7234 29.1341 25.1414 28.929 24.6286L26.929 19.6286C26.7771 19.249 26.4094 19 26.0005 19H17.0005C16.5915 19 16.2238 19.249 16.072 19.6286L14.072 24.6286C13.8723 25.1278 14.103 25.6955 14.5943 25.9138L16.9066 26.9415C17.2678 27.102 17.5005 27.4601 17.5005 27.8553V29.7259L17.5004 29.7333V39.2666C17.5004 39.6941 17.8159 39.9841 18.1387 39.9993C18.4587 40.0144 18.7937 39.7594 18.8307 39.3365L19.3048 33.9129C19.3499 33.3964 19.7825 33 20.301 33H22.6998C23.2184 33 23.6509 33.3964 23.696 33.9129L24.1701 39.3365C24.2071 39.7594 24.5422 40.0144 24.8621 39.9993C25.185 39.9841 25.5004 39.6941 25.5004 39.2666V34C25.5004 33.9958 25.5004 33.9917 25.5005 33.9875Z" fill="#333333"/>
<path fill-rule="evenodd" clip-rule="evenodd" d="M21.5005 14C22.8812 14 24.0005 12.8807 24.0005 11.5C24.0005 10.1193 22.8812 9 21.5005 9C20.1198 9 19.0005 10.1193 19.0005 11.5C19.0005 12.8807 20.1198 14 21.5005 14ZM21.5005 16C23.9858 16 26.0005 13.9853 26.0005 11.5C26.0005 9.01472 23.9858 7 21.5005 7C19.0152 7 17.0005 9.01472 17.0005 11.5C17.0005 13.9853 19.0152 16 21.5005 16Z" fill="#333333"/>
<path fill-rule="evenodd" clip-rule="evenodd" d="M16.4438 22.7001L17.3722 23.0715C18.6753 23.5928 19.623 24.2188 20.0397 25.1564C20.4594 26.1007 20.2006 27.0632 19.9495 27.8162C19.81 28.2348 19.556 28.5936 19.1785 28.8358C18.8165 29.0682 18.4219 29.1415 18.0785 29.1489C17.4262 29.1629 16.722 28.9406 16.1522 28.7289L15.2148 28.3806L15.9114 26.5059L16.8488 26.8542C17.4039 27.0604 17.7958 27.1545 18.0354 27.1493C18.046 27.1491 18.0555 27.1487 18.064 27.1481C18.3008 26.4276 18.291 26.1464 18.212 25.9686C18.1287 25.7812 17.8264 25.4072 16.6295 24.9285L15.701 24.5571L16.4438 22.7001Z" fill="#333333"/>
<path fill-rule="evenodd" clip-rule="evenodd" d="M26.5579 22.7001L25.6295 23.0715C24.3264 23.5928 23.3787 24.2188 22.962 25.1564C22.5423 26.1007 22.8012 27.0632 23.0522 27.8162C23.1693 28.1677 23.369 28.4834 23.6661 28.7226C23.9594 28.9589 24.2905 29.0747 24.6013 29.1218C25.1847 29.2101 25.7993 29.0711 26.2949 28.9187L27.2507 28.6247L26.6626 26.7131L25.7068 27.0071C25.5051 27.0691 25.3318 27.1107 25.1864 27.1323C25.0706 27.1496 24.9898 27.1515 24.9377 27.1481C24.7009 26.4276 24.7107 26.1464 24.7897 25.9686C24.873 25.7812 25.1753 25.4072 26.3722 24.9285L27.3007 24.5571L26.5579 22.7001Z" fill="#333333"/>
<path fill-rule="evenodd" clip-rule="evenodd" d="M8.72146 19.0429C9.25903 18.5053 10.0698 18 11 18H12V20H11C10.7873 20 10.4553 20.1375 10.1357 20.4571C9.98704 20.6057 9.87199 20.765 9.79847 20.9067C9.76223 20.9766 9.73981 21.0351 9.72715 21.0794C9.72526 21.086 9.72364 21.0921 9.72227 21.0977C9.73416 21.1178 9.75302 21.1469 9.78214 21.1857C9.89188 21.332 10.0512 21.4941 10.2785 21.7215C10.2858 21.7287 10.2931 21.7361 10.3006 21.7435C10.4991 21.9419 10.7567 22.1994 10.9607 22.4714C11.1645 22.7432 11.4286 23.1737 11.4286 23.7143C11.4286 24.18 11.191 24.5173 10.9976 24.7158C10.8061 24.9125 10.5764 25.0597 10.3831 25.1685C10.0755 25.3415 9.68469 25.5097 9.34312 25.6568C9.26392 25.6909 9.18736 25.7238 9.1151 25.7554C8.6818 25.945 8.3473 26.1079 8.12489 26.2701C8.09478 26.292 8.07023 26.3114 8.05031 26.3281C8.15968 26.4275 8.32923 26.5289 8.63312 26.6999C8.64528 26.7067 8.65776 26.7137 8.67053 26.7209C8.92948 26.8662 9.30798 27.0787 9.61251 27.3642C9.9688 27.6982 10.2857 28.187 10.2857 28.8571C10.2857 29.9235 9.58213 30.6213 9.19368 31.0066C9.17344 31.0266 9.15406 31.0459 9.13568 31.0643C8.64977 31.5502 8.57143 31.6933 8.57143 31.8571C8.57143 31.9737 8.67871 32.2474 9.18292 32.5634C9.66175 32.8636 10.1942 33 10.4286 33H11.4286V35H10.4286C9.7344 35 8.83825 34.7078 8.12065 34.258C7.42843 33.8241 6.57143 33.0263 6.57143 31.8571C6.57143 30.7908 7.27502 30.093 7.66346 29.7077C7.6837 29.6876 7.70308 29.6684 7.72146 29.65C8.19783 29.1737 8.28248 29.0267 8.28562 28.8668C8.27871 28.8579 8.26611 28.8434 8.24463 28.8233C8.13561 28.7211 7.96517 28.6188 7.6526 28.443C7.64043 28.4362 7.62795 28.4292 7.61518 28.422C7.35622 28.2766 6.97773 28.0641 6.6732 27.7786C6.31691 27.4446 6 26.9559 6 26.2857C6 25.4739 6.54617 24.946 6.94654 24.654C7.36699 24.3475 7.88962 24.1086 8.31347 23.9231C8.41687 23.8779 8.51449 23.8357 8.60666 23.7959C8.85096 23.6904 9.05704 23.6015 9.23129 23.5153C9.13514 23.4077 9.0146 23.286 8.86432 23.1357C8.85706 23.1284 8.84971 23.1211 8.84228 23.1136C8.64375 22.9152 8.38619 22.6578 8.18214 22.3857C7.97834 22.114 7.71429 21.6834 7.71429 21.1429C7.71429 20.3384 8.20169 19.5627 8.72146 19.0429Z" fill="#333333"/>
<path fill-rule="evenodd" clip-rule="evenodd" d="M34.9786 19.15C34.593 18.636 33.9052 18 33 18H32V20H32.987C32.9972 20.0032 33.0262 20.014 33.0748 20.0463C33.1616 20.1042 33.27 20.2052 33.3786 20.35C33.6102 20.6588 33.7105 20.9821 33.7142 21.1343C33.7119 21.1437 33.6994 21.193 33.6418 21.2955C33.5595 21.4418 33.4413 21.6021 33.2714 21.8286C33.2661 21.8356 33.2608 21.8427 33.2554 21.85C33.1057 22.0494 32.9111 22.3088 32.7579 22.5812C32.599 22.8636 32.4286 23.2542 32.4286 23.7143C32.4286 24.4499 32.9692 24.901 33.2304 25.0969C33.4772 25.282 33.7927 25.463 34.0489 25.61C34.1062 25.6428 34.1605 25.674 34.2104 25.7031C34.532 25.8906 34.7567 26.0386 34.9011 26.179C34.9665 26.2426 34.9916 26.2812 35.0001 26.2983C35.001 26.3731 34.9973 26.4306 34.5429 26.7714C34.5263 26.7838 34.5089 26.7968 34.4906 26.8104C34.09 27.1081 33.2857 27.706 33.2857 28.8571C33.2857 29.837 33.7849 30.5004 34.0954 30.913C34.1067 30.928 34.1178 30.9428 34.1286 30.9571C34.4649 31.4055 34.5714 31.587 34.5714 31.8571C34.5714 32.0734 34.433 32.3525 34.0859 32.6328C33.9243 32.7633 33.7503 32.8651 33.6008 32.9311C33.471 32.9883 33.4064 32.9985 33.4066 33C33.4066 33 33.4066 33 33.4066 33L32.4286 33V35H33.4286C33.7725 35 34.126 34.8854 34.4081 34.7609C34.714 34.6259 35.0399 34.4331 35.3426 34.1887C35.9242 33.7189 36.5714 32.9266 36.5714 31.8571C36.5714 30.8773 36.0722 30.2139 35.7618 29.8013C35.7504 29.7863 35.7394 29.7715 35.7286 29.7571C35.3923 29.3088 35.2857 29.1272 35.2857 28.8571C35.2857 28.8536 35.2857 28.8501 35.2856 28.8467C35.2847 28.7708 35.284 28.7155 35.7429 28.3714C35.7594 28.359 35.7768 28.3461 35.7952 28.3324C36.1957 28.0347 37 27.4368 37 26.2857C37 25.5941 36.644 25.0841 36.2953 24.7451C35.9576 24.4167 35.5395 24.1629 35.2182 23.9755C35.1343 23.9266 35.0572 23.8822 34.986 23.8412C34.7859 23.7259 34.6325 23.6376 34.5068 23.5515C34.5889 23.4079 34.7055 23.2498 34.8714 23.0286C34.8767 23.0215 34.8821 23.0144 34.8875 23.0072C35.0371 22.8078 35.2318 22.5483 35.385 22.276C35.5438 21.9936 35.7143 21.603 35.7143 21.1429C35.7143 20.434 35.3853 19.6924 34.9786 19.15ZM34.3317 23.4112C34.3311 23.4112 34.3348 23.416 34.3446 23.4257C34.3373 23.4161 34.3324 23.4113 34.3317 23.4112ZM35.0039 26.3087C35.0043 26.3088 35.0038 26.3062 35.0013 26.3007C35.0023 26.306 35.0035 26.3087 35.0039 26.3087Z" fill="#333333"/>
</svg>
