<svg width="48" height="48" viewBox="0 0 48 48" fill="none" xmlns="http://www.w3.org/2000/svg">
<path fill-rule="evenodd" clip-rule="evenodd" d="M37.5 13C38.8807 13 40 11.8807 40 10.5C40 9.11929 38.8807 8 37.5 8C36.1193 8 35 9.11929 35 10.5C35 11.8807 36.1193 13 37.5 13ZM37.5 15C39.9853 15 42 12.9853 42 10.5C42 8.01472 39.9853 6 37.5 6C35.0147 6 33 8.01472 33 10.5C33 12.9853 35.0147 15 37.5 15Z" fill="#333333"/>
<path fill-rule="evenodd" clip-rule="evenodd" d="M31.4714 16.4509C31.0689 16.228 30.5975 16.1493 30.1434 16.2311C30.0941 16.24 30.0443 16.2452 29.9942 16.2466C29.4982 16.2606 28.9109 16.3532 28.2508 16.5911C26.2968 17.2951 23.851 19.2139 21.2293 23.7548C20.6057 24.835 21.0973 25.9805 21.6194 26.7637C22.1741 27.5958 23.0141 28.4143 23.8327 29.1114C24.6637 29.819 25.5295 30.4489 26.1826 30.8992C26.3545 31.0177 26.5125 31.1244 26.6522 31.2174C26.8531 31.351 26.9989 31.5528 27.0627 31.7855L29.3689 40.1973C29.5149 40.73 30.0651 41.0434 30.5977 40.8973C31.1303 40.7513 31.4437 40.2012 31.2977 39.6685L28.7897 30.5206C28.7227 30.2763 28.5656 30.0665 28.3499 29.9337L28.3489 29.933L28.3462 29.9314L28.3314 29.9221L28.2821 29.8912L28.2801 29.89C28.2322 29.8598 28.1609 29.8144 28.0698 29.7556C27.8876 29.6377 27.6272 29.4659 27.3179 29.2527C26.744 28.8569 26.013 28.3258 25.3057 27.7371C24.9267 27.4216 24.8342 26.8769 25.088 26.454L25.8489 25.1858C26.7764 23.6402 27.8569 22.5536 29.563 21.2886C29.8375 21.0851 30.1968 21.0358 30.516 21.1579C30.8351 21.28 31.0698 21.5566 31.1383 21.8914L32.0203 26.2007C32.0819 26.5014 32.2782 26.7573 32.5528 26.8946L36.5528 28.8946C37.0468 29.1415 37.6474 28.9413 37.8944 28.4473C38.1414 27.9534 37.9412 27.3527 37.4472 27.1057L34.3171 25.5407C34.0425 25.4034 33.8462 25.1475 33.7847 24.8468L32.5118 18.628C32.4932 18.5369 32.4873 18.4437 32.4944 18.351C32.5238 17.9681 32.444 17.5763 32.2452 17.2226C32.2214 17.1804 32.2008 17.1365 32.1834 17.0913C32.1142 16.9112 31.9942 16.7548 31.8382 16.6413C31.7535 16.6142 31.672 16.5756 31.5961 16.5261L31.5942 16.5249C31.574 16.5116 31.5544 16.4978 31.5354 16.4834C31.5137 16.4733 31.4923 16.4625 31.4714 16.4509ZM32.6038 14.7728L32.6017 14.7718L32.5958 14.7688L32.5842 14.7631L32.5598 14.751L32.5558 14.7491C32.5376 14.7403 32.518 14.731 32.4972 14.7213C32.4643 14.7061 32.4281 14.69 32.3888 14.6733C31.6195 14.2619 30.7311 14.1111 29.8651 14.2499C29.1794 14.2765 28.4071 14.4089 27.5728 14.7095C25.0092 15.6332 22.2493 17.9882 19.4973 22.7548C18.252 24.9116 19.3704 26.9957 19.9553 27.873C20.6644 28.9368 21.6713 29.8978 22.5361 30.6341C23.4368 31.4011 24.3621 32.0732 25.0472 32.5457C25.1107 32.5894 25.1723 32.6316 25.232 32.6723L27.4401 40.7261C27.8781 42.324 29.5286 43.2642 31.1265 42.8262C32.7244 42.3881 33.6646 40.7376 33.2265 39.1397L30.7185 29.9918C30.5177 29.2591 30.0464 28.63 29.3998 28.2314M32.6038 14.7728C32.6048 14.7733 32.6058 14.7739 32.6068 14.7744C33.252 15.1015 33.7511 15.6473 34.0226 16.3044C34.3713 16.951 34.5245 17.6597 34.4972 18.3543L35.6465 23.9693L38.3416 25.3168C39.8236 26.0578 40.4243 27.8598 39.6833 29.3418C38.9423 30.8237 37.1403 31.4244 35.6584 30.6834L31.6584 28.6834C30.8346 28.2715 30.2456 27.504 30.0609 26.6017L29.5071 23.8957C28.6725 24.6346 28.0897 25.3386 27.5639 26.2149L27.2528 26.7333C27.6797 27.0616 28.0958 27.3597 28.4533 27.6062C28.744 27.8066 28.9879 27.9674 29.1562 28.0763C29.2393 28.1301 29.3036 28.1709 29.3453 28.1973C29.3457 28.1975 29.3461 28.1978 29.3465 28.198" fill="#333333"/>
<path d="M22 42C19 42 17.6421 42 13.5 42C9.35786 42 6 40.8807 6 39.5C6 38.1193 9.35786 37 13.5 37C21.5 37 22 40.6193 22 42Z" fill="#333333"/>
<path fill-rule="evenodd" clip-rule="evenodd" d="M18.1385 29.0463C18.6357 29.2868 18.8437 29.8848 18.6032 30.382L16.4002 34.9355C16.1597 35.4327 15.5616 35.6407 15.0645 35.4002C14.5673 35.1597 14.3593 34.5616 14.5998 34.0645L16.8028 29.5109C17.0434 29.0138 17.6414 28.8057 18.1385 29.0463Z" fill="#333333"/>
<path fill-rule="evenodd" clip-rule="evenodd" d="M21.4334 32.099C21.9311 32.3383 22.1406 32.9358 21.9013 33.4336L20.6777 35.9782C20.4384 36.4759 19.8409 36.6854 19.3431 36.446C18.8454 36.2067 18.6359 35.6092 18.8753 35.1115L20.0988 32.5669C20.3382 32.0691 20.9357 31.8597 21.4334 32.099Z" fill="#333333"/>
</svg>
