<svg width="48" height="48" viewBox="0 0 48 48" fill="none" xmlns="http://www.w3.org/2000/svg">
<path fill-rule="evenodd" clip-rule="evenodd" d="M35.0678 20.1202C34.6441 18.7348 33.2676 17.8228 31.7868 18.0284C30.1457 18.2562 29 19.7713 29.2278 21.4125C29.2352 21.4651 29.2467 21.5171 29.2622 21.568C29.5852 22.6217 30.0273 23.7083 30.432 24.6934C29.0232 24.5956 27.63 24.4999 27.412 24.4999C26.9843 24.4999 26.646 24.593 26.5564 24.6177L26.5553 24.618L26.552 24.6189C26.4163 24.6561 26.2996 24.6967 26.2265 24.723C26.0807 24.7755 25.9232 24.8394 25.8095 24.8856L25.7237 24.9205C25.4907 25.0154 25.259 25.1096 25.0028 25.2025C24.3412 25.4422 23.9425 25.5078 23.811 25.5024C23.6966 25.4977 23.3444 25.4188 22.7733 25.1919C22.5514 25.1037 22.3518 25.0163 22.1537 24.9296L22.0861 24.9C21.9918 24.8587 21.8565 24.7996 21.732 24.7505C21.6713 24.7265 21.5654 24.6857 21.4404 24.6467C21.3634 24.6221 20.9811 24.4999 20.4969 24.4999C20.3152 24.4999 18.8235 24.5955 17.2968 24.6935C17.3166 24.6519 17.3364 24.6105 17.3561 24.5691L17.3567 24.5678C17.5494 24.1638 17.7317 23.7816 17.8798 23.4694C17.9332 23.3567 17.9913 23.2425 18.0575 23.1122C18.0633 23.1009 18.0691 23.0895 18.0749 23.078C18.1458 22.9386 18.2248 22.7822 18.2997 22.6201C18.4485 22.2981 18.603 21.9079 18.6725 21.4697C18.932 19.8333 17.8157 18.2964 16.1793 18.0369C14.6587 17.7958 13.4218 18.757 12.9032 19.9443C12.4978 20.8725 12.05 21.7821 11.5904 22.7157C11.5103 22.8784 11.4298 23.0418 11.3492 23.2061C10.8108 24.3034 10.2679 25.435 9.80587 26.6102C9.76238 26.7209 9.68898 26.9122 9.63173 27.1174L9.63093 27.1203C9.60991 27.1955 9.53126 27.4771 9.51359 27.8315C9.50674 27.969 9.48025 28.508 9.73426 29.1297C9.87861 29.483 10.1633 29.9832 10.7073 30.3936C11.2842 30.8288 11.9373 30.9999 12.5179 30.9999C12.7182 30.9999 14.3758 30.8935 15.9969 30.7894L16.7075 30.7437L17.0001 30.725V31.9924L14.3876 33.6576C13.3366 34.3276 12.8093 35.5775 13.0628 36.7978L14.0628 41.6103C14.3879 43.1746 15.882 44.2097 17.4609 43.9643C19.0397 43.7189 20.1492 42.2791 19.984 40.6899L19.7394 38.3355L20.8391 38H27.3766L28.2655 38.2894L28.0161 40.6899C27.851 42.2791 28.9605 43.7189 30.5393 43.9643C32.1181 44.2097 33.6123 43.1746 33.9373 41.6103L34.9373 36.7978C35.1816 35.6222 34.7015 34.4143 33.7169 33.7272L31.0001 31.8314V30.7473L31.65 30.7924C33.1198 30.8945 34.6371 30.9999 34.859 30.9999C36.01 30.9999 36.9133 30.3664 37.3969 29.608C37.7696 29.0236 37.8375 28.4709 37.8567 28.2785C37.8986 27.8581 37.8411 27.5185 37.8257 27.4273L37.8255 27.4263L37.8251 27.4238M22.0347 27.0505C22.6296 27.2869 23.2518 27.4812 23.7293 27.5007C24.2787 27.5232 24.9932 27.3331 25.684 27.0829C25.9796 26.9758 26.2435 26.8683 26.4723 26.7751L26.5625 26.7384C26.8323 26.6288 27.1143 26.4999 27.412 26.4999C27.412 26.4999 27.4116 26.4999 27.4146 26.5C27.4229 26.5003 27.449 26.5012 27.5015 26.5038C27.5638 26.5069 27.6469 26.5116 27.7492 26.5177C27.9534 26.53 28.2256 26.5476 28.5437 26.5688C29.1794 26.6113 29.9906 26.6676 30.7912 26.7232L31.3115 26.7593L31.8909 26.7994C32.2337 26.8232 32.5648 26.6692 32.7675 26.3916C32.9702 26.1141 33.0162 25.7518 32.8893 25.4324C32.8262 25.2738 32.7621 25.1132 32.6975 24.9516C32.5713 24.6364 32.441 24.3193 32.3103 24.0011C31.9104 23.0276 31.5061 22.0436 31.2018 21.0702C31.1646 20.5496 31.5373 20.0822 32.0618 20.0094C32.5588 19.9404 33.0227 20.25 33.159 20.7177C33.1656 20.7405 33.1731 20.7631 33.1813 20.7854C33.4942 21.63 33.8869 22.4948 34.2638 23.3249C34.4254 23.6807 34.584 24.0301 34.7323 24.3689C35.244 25.5382 35.6658 26.6485 35.8531 27.757L35.8536 27.76C35.8602 27.7993 35.8817 27.9285 35.8666 28.0798C35.8599 28.1462 35.8368 28.3347 35.7106 28.5327C35.5449 28.7925 35.2398 28.9999 34.859 28.9999C34.859 28.9999 34.8601 28.9999 34.856 28.9997C34.8473 28.9994 34.823 28.9985 34.7763 28.9962C34.7168 28.9932 34.6371 28.9887 34.5387 28.9828C34.3423 28.9709 34.0796 28.9539 33.7718 28.9333C33.1565 28.8922 32.368 28.8374 31.5825 28.7829L30.0691 28.678C29.7926 28.6588 29.5205 28.7554 29.3178 28.9445C29.1152 29.1336 29.0001 29.3984 29.0001 29.6756V32.353C29.0001 32.6798 29.1598 32.986 29.4279 33.1731L32.5723 35.3673C32.9005 35.5964 33.0606 35.999 32.9792 36.3909L31.9792 41.2034C31.8708 41.7248 31.3728 42.0699 30.8465 41.9881C30.3202 41.9062 29.9504 41.4263 30.0054 40.8966L30.3384 37.6921C30.3871 37.2231 30.1016 36.7838 29.6533 36.6379L27.8448 36.0491C27.7448 36.0166 27.6404 36 27.5352 36H20.6899C20.591 36 20.4927 36.0146 20.3981 36.0435L18.3678 36.663C17.9102 36.8027 17.6156 37.2469 17.665 37.7228L17.9947 40.8966C18.0498 41.4263 17.68 41.9062 17.1537 41.9881C16.6274 42.0699 16.1294 41.7248 16.021 41.2034L15.021 36.3909C14.9365 35.9841 15.1123 35.5675 15.4626 35.3442L18.5376 33.3841C18.8257 33.2004 19.0001 32.8824 19.0001 32.5408V29.6588C19.0001 29.3825 18.8858 29.1185 18.6843 28.9295C18.4827 28.7404 18.212 28.6432 17.9362 28.6609L16.1018 28.7785C15.2369 28.834 14.3678 28.8898 13.6941 28.9317C13.3571 28.9527 13.0704 28.9701 12.8582 28.9822C12.7519 28.9883 12.6662 28.9929 12.6029 28.996C12.5578 28.9983 12.5329 28.9992 12.5224 28.9996C12.5156 28.9999 12.5147 28.9999 12.5179 28.9999C12.3221 28.9999 12.1039 28.9419 11.9118 28.797C11.7306 28.6603 11.6348 28.4933 11.5857 28.3732C11.4996 28.1624 11.5088 27.9779 11.5111 27.9316C11.5175 27.8025 11.5477 27.6923 11.5572 27.6584L11.5581 27.6552C11.5866 27.553 11.6288 27.4398 11.6672 27.342C12.0969 26.2489 12.6082 25.1806 13.1447 24.0871C13.2229 23.9276 13.3018 23.7674 13.3811 23.6065C13.84 22.6744 14.3107 21.7185 14.736 20.7448C14.9764 20.1943 15.4416 19.9449 15.8661 20.0122C16.4116 20.0987 16.7837 20.611 16.6972 21.1565C16.6694 21.3318 16.6001 21.5302 16.4842 21.7812C16.4267 21.9056 16.3632 22.0317 16.2919 22.172C16.2857 22.1842 16.2794 22.1966 16.273 22.2092C16.2092 22.3347 16.1386 22.4734 16.0727 22.6123C15.9258 22.9222 15.7444 23.3024 15.5513 23.7073C15.29 24.2551 15.014 24.8339 14.759 25.3728C14.6076 25.6928 14.6367 26.0692 14.8356 26.3621C15.0345 26.6551 15.3735 26.821 15.7269 26.7984L17.0683 26.7123C17.9091 26.6583 18.7429 26.6048 19.3857 26.5647C19.7072 26.5447 19.9794 26.5281 20.1803 26.5166C20.2809 26.5108 20.3617 26.5064 20.4211 26.5035C20.4606 26.5015 20.4829 26.5006 20.4931 26.5002C20.501 26.4999 20.5015 26.4999 20.4969 26.4999C21.0202 26.4999 21.5727 26.8669 22.0347 27.0505Z" fill="#333333"/>
<path d="M14 5.00005L17.9217 9.00005H14L17.0435 12.0001M34 5.00005L30 9.00005H33.9217L30.9565 12.0001M24 5L25.2076 8.14432L22.2988 7.64471L23.7989 10.7072" stroke="#333333" stroke-width="2" stroke-linecap="round" stroke-linejoin="round"/>
<path fill-rule="evenodd" clip-rule="evenodd" d="M24 21C25.3807 21 26.5 19.8807 26.5 18.5C26.5 17.1193 25.3807 16 24 16C22.6193 16 21.5 17.1193 21.5 18.5C21.5 19.8807 22.6193 21 24 21ZM24 23C26.4853 23 28.5 20.9853 28.5 18.5C28.5 16.0147 26.4853 14 24 14C21.5147 14 19.5 16.0147 19.5 18.5C19.5 20.9853 21.5147 23 24 23Z" fill="#333333"/>
</svg>
