<svg width="48" height="48" viewBox="0 0 48 48" fill="none" xmlns="http://www.w3.org/2000/svg">
<path fill-rule="evenodd" clip-rule="evenodd" d="M29.5913 4.67461C28.7899 4.21665 27.8914 4 26.9238 4H21.6762C19.8517 4 18.0073 4.84975 16.8975 6.38697C16.8604 6.43373 16.8241 6.48089 16.7887 6.52844L14.4523 9.55709L13.641 10.639C13.6405 10.6397 13.64 10.6403 13.6394 10.641C11.1085 13.9837 11.109 18.6379 13.641 21.98L13.6469 21.9878L23.424 34.3903L30.0001 42.7749C30.7148 43.6861 32.0516 43.8018 32.9122 43.0268L36.9781 39.3654C37.7572 38.6639 37.8623 37.4799 37.2191 36.6521L29.789 27.0891L24.997 21.0313L18.481 12.6149L18.4761 12.6086C17.9076 11.898 17.6095 10.9479 17.6095 10.0667C17.6095 9.25167 17.8658 8.43472 18.3832 7.73584L18.4982 7.5867L18.5089 7.57171C19.2104 6.58966 20.4332 6 21.6762 6H26.9238C27.5847 6 28.1338 6.14525 28.5991 6.4111C29.181 6.74365 29.6704 7.1096 30.0005 7.57171L31.628 6.40924C31.0533 5.60468 30.276 5.06587 29.5913 4.67461ZM15.717 11.2043C15.8932 12.14 16.2873 13.0717 16.9091 13.8515L23.4252 22.2681L28.2204 28.3299L35.6398 37.8792L31.5738 41.5406L24.9963 33.1543L15.2295 20.7648C13.2438 18.1368 13.2457 14.4728 15.2351 11.8467L15.2381 11.8429L15.717 11.2043Z" fill="#333333"/>
<path fill-rule="evenodd" clip-rule="evenodd" d="M12.4131 38.2918L20.2023 28.325L18.6264 27.0935L10.8372 37.0603C10.1498 37.9398 10.3155 39.2119 11.2054 39.886L15.5838 43.203C16.4538 43.8621 17.6916 43.7019 18.3652 42.8431L24.9964 34.3883L23.4227 33.154L16.7915 41.6088L12.4131 38.2918Z" fill="#333333"/>
<path fill-rule="evenodd" clip-rule="evenodd" d="M21.5857 13.5093C20.5463 13.5093 19.5467 13.8815 18.8548 14.5735L17.4405 13.1593C18.5581 12.0418 20.0918 11.5093 21.5857 11.5093H26.8334C28.3714 11.5093 29.8709 12.1606 30.9404 13.1231L29.6025 14.6097C28.8625 13.9437 27.8287 13.5093 26.8334 13.5093H21.5857Z" fill="#333333"/>
<path fill-rule="evenodd" clip-rule="evenodd" d="M31.6269 6.43315C31.5872 6.37986 31.5464 6.3271 31.5047 6.2749L29.932 7.5104L30.0321 7.64012C31.0976 9.07935 31.0679 11.1116 29.9429 12.5178L29.938 12.524L23.4188 20.9446L25.0002 22.1689L31.5099 13.7606C32.1354 12.9765 32.5351 12.0671 32.709 11.1227L33.1809 11.752L33.1839 11.7558C33.9339 12.7458 34.4014 13.8834 34.5864 15.0573C35.4953 15.2374 36.2564 15.828 36.6685 16.6278C36.7608 14.4943 36.1311 12.3352 34.7795 10.5501L33.9585 9.4554L31.6269 6.43315ZM31 24C30.8749 24 30.7516 23.9923 30.6306 23.9774L28.2142 27.0967L29.7953 28.3215L31.6746 25.8955C31.2529 25.3788 31 24.7189 31 24Z" fill="#333333"/>
<path d="M37 20H31C30.4477 20 30 20.4477 30 21C30 21.5523 30.4477 22 31 22H37C37.5523 22 38 21.5523 38 21C38 20.4477 37.5523 20 37 20Z" fill="#333333"/>
<path d="M33 18V24C33 24.5523 33.4477 25 34 25C34.5523 25 35 24.5523 35 24V18C35 17.4477 34.5523 17 34 17C33.4477 17 33 17.4477 33 18Z" fill="#333333"/>
</svg>
