<svg width="48" height="48" viewBox="0 0 48 48" fill="none" xmlns="http://www.w3.org/2000/svg">
<path fill-rule="evenodd" clip-rule="evenodd" d="M27.3175 10.9051C26.7673 11.5737 25.9334 12 25 12C23.3431 12 22 10.6569 22 9C22 7.34315 23.3431 6 25 6C26.4431 6 27.6482 7.01892 27.9351 8.37658L28.5 8L29.9837 8.59349C29.7768 6.02218 27.6246 4 25 4C22.2386 4 20 6.23858 20 9C20 11.7614 22.2386 14 25 14C26.3867 14 27.6416 13.4355 28.5474 12.5237L27.5 12L27.3175 10.9051Z" fill="#333333"/>
<path fill-rule="evenodd" clip-rule="evenodd" d="M29.848 9.47C29.5553 9.00167 28.9383 8.85929 28.47 9.152C28.0017 9.44471 27.8593 10.0617 28.152 10.53L31.2395 15.47C31.4322 15.7782 31.4424 16.1668 31.2661 16.4847C31.0899 16.8027 30.755 17 30.3915 17H19.099C19.0771 17.0021 19.0551 17.0036 19.0328 17.0043C17.1598 17.0658 15.664 17.775 14.6239 18.8756C13.5496 20.0124 13.0139 21.5114 13.0003 22.9908C12.9867 24.4708 13.4955 25.9776 14.5699 27.122C15.6105 28.2302 17.1218 28.9355 19.0316 28.9958C19.5713 29.0128 20 29.4553 20 29.9953V30.9803L20 30.9851L19.9999 31V41C19.9999 41.5329 20.4178 41.9722 20.9501 41.9988C21.4824 42.0253 21.9419 41.6298 21.9949 41.0995L22.8148 32.9005C22.866 32.3893 23.2961 32 23.8099 32H26.1899C26.7037 32 27.1338 32.3893 27.185 32.9005L28.0049 41.0995C28.0579 41.6298 28.5175 42.0253 29.0497 41.9988C29.582 41.9722 29.9999 41.5329 29.9999 41V33C29.9999 32.9955 29.9999 32.9909 30 32.9864V20C30 19.4477 30.4477 19 31 19H34C34.3635 19 34.6984 18.8027 34.8746 18.4848C35.0509 18.1668 35.0407 17.7783 34.848 17.47L29.848 9.47ZM31.9999 33.0135V41C31.9999 42.5988 30.7461 43.9166 29.1493 43.9963C27.5526 44.0759 26.1739 42.8894 26.0148 41.2985L25.2849 34H24.7149L23.985 41.2985C23.8259 42.8894 22.4472 44.0759 20.8505 43.9963C19.2537 43.9166 17.9999 42.5988 17.9999 41L17.9999 31L17.9999 30.9952L18 30.9803V30.917C16.029 30.6592 14.3498 29.8094 13.1119 28.4909C11.6479 26.9316 10.9825 24.9105 11.0003 22.9724C11.0182 21.0356 11.7184 19.0383 13.1703 17.5019C14.5735 16.0171 16.541 15.1102 18.8622 15.0094C18.9072 15.0032 18.9532 15 19 15H28.5872L26.456 11.59C25.5779 10.185 26.005 8.33414 27.41 7.45601C28.815 6.57787 30.6659 7.00499 31.544 8.41L36.544 16.41C37.122 17.3348 37.1526 18.5004 36.6239 19.4543C36.0952 20.4082 35.0906 21 34 21H32V33C32 33.0045 32 33.009 31.9999 33.0135ZM19.6859 19.2809C19.8863 19.4699 20 19.7332 20 20.0087V25.9919C20 26.2667 19.8869 26.5293 19.6874 26.7182C19.4878 26.9071 19.2193 27.0055 18.9449 26.9904C17.588 26.9156 16.6433 26.4084 16.028 25.753C15.343 25.0234 14.9908 24.0307 15.0002 23.0092C15.0096 21.9874 15.3807 20.9867 16.0775 20.2493C16.7008 19.5898 17.6349 19.0878 18.9408 19.0104C19.2158 18.9941 19.4854 19.092 19.6859 19.2809ZM18 21.272C17.7971 21.3773 17.6458 21.5017 17.5311 21.623C17.2103 21.9625 17.0053 22.4656 17.0001 23.0276C16.9949 23.5879 17.1887 24.0673 17.4861 24.384C17.6015 24.5069 17.7649 24.6407 18 24.7521V21.272Z" fill="#333333"/>
<path fill-rule="evenodd" clip-rule="evenodd" d="M19.9541 27.0137C19.6475 27.0203 19.3247 27.027 19 27.027C18.4477 27.027 18 26.5793 18 26.027C18 25.4747 18.4477 25.027 19 25.027C19.3003 25.027 19.6025 25.0208 19.9111 25.0141C19.9242 25.0139 19.9373 25.0136 19.9505 25.0133C20.2429 25.007 20.5424 25.0006 20.8341 25C21.4342 24.9989 22.0681 25.0215 22.6444 25.1434C23.2226 25.2656 23.8414 25.5079 24.3101 26.0232C24.7936 26.5549 25 27.2463 25 28.027C25 28.7577 24.8496 29.4336 24.4293 29.9727C24.0036 30.5188 23.4154 30.7786 22.846 30.9076C22.2909 31.0333 21.6631 31.0551 21.0451 31.054C20.7543 31.0534 20.4474 31.0475 20.1362 31.0414C20.1098 31.0409 20.0833 31.0404 20.0568 31.0399C19.7151 31.0333 19.3644 31.027 19 31.027C18.4477 31.027 18 30.5793 18 30.027C18 29.4747 18.4477 29.027 19 29.027C19.3856 29.027 19.7536 29.0337 20.0955 29.0403C20.1209 29.0408 20.1462 29.0412 20.1713 29.0417C20.4869 29.0479 20.7764 29.0535 21.0487 29.054C21.6494 29.0551 22.0841 29.0295 22.404 28.957C22.7096 28.8878 22.8089 28.7983 22.8519 28.7431C22.9004 28.681 23 28.5033 23 28.027C23 27.6007 22.8939 27.4386 22.8305 27.3689C22.7523 27.2829 22.5899 27.1761 22.2306 27.1001C21.8694 27.0237 21.4095 26.9989 20.8378 27C20.5663 27.0005 20.2846 27.0066 19.9861 27.013C19.9755 27.0132 19.9648 27.0135 19.9541 27.0137Z" fill="#333333"/>
</svg>
