<svg width="48" height="48" viewBox="0 0 48 48" fill="none" xmlns="http://www.w3.org/2000/svg">
<path fill-rule="evenodd" clip-rule="evenodd" d="M24 11C25.3807 11 26.5 9.88071 26.5 8.5C26.5 7.11929 25.3807 6 24 6C22.6193 6 21.5 7.11929 21.5 8.5C21.5 9.88071 22.6193 11 24 11ZM24 13C26.4853 13 28.5 10.9853 28.5 8.5C28.5 6.01472 26.4853 4 24 4C21.5147 4 19.5 6.01472 19.5 8.5C19.5 10.9853 21.5147 13 24 13Z" fill="#333333"/>
<path fill-rule="evenodd" clip-rule="evenodd" d="M16.5999 17C16.2269 17 15.8848 17.2077 15.7127 17.5387L13.1127 22.5387C12.8924 22.9623 13.0024 23.4826 13.3753 23.7809L18.3753 27.7809C18.416 27.8135 18.4581 27.8421 18.501 27.8669C18.8098 28.0457 19 28.3755 19 28.7324V32.9893C19 32.9929 19 32.9964 19 33L19 41C19 41.5347 19.4206 41.9747 19.9547 41.999C20.4888 42.0232 20.9475 41.623 20.9959 41.0905L21.7397 32.9095C21.7865 32.3944 22.2183 32 22.7356 32H25.2645C25.7817 32 26.2136 32.3944 26.2604 32.9095L27.0041 41.0905C27.0525 41.623 27.5112 42.0232 28.0454 41.999C28.5795 41.9747 29 41.5347 29 41V30L29 29.9883L29 29.9845V28.9999C29 28.7339 29.106 28.4789 29.2945 28.2912C29.483 28.1035 29.7386 27.9987 30.0046 27.9999L30.0188 28C30.0195 28 30.0203 28 30.0211 28C31.9367 27.9995 33.4552 27.3519 34.4928 26.2939C35.5208 25.2457 36.0128 23.8585 35.9997 22.4904C35.9866 21.1232 35.469 19.7443 34.4419 18.7038C33.404 17.6523 31.8996 17 30.0188 17H16.5999ZM31 29.9845L31 30L31 41C31 42.604 29.7383 43.9242 28.136 43.9969C26.5336 44.0696 25.1576 42.869 25.0124 41.2716L24.3513 34H23.6488L22.9877 41.2716C22.8425 42.869 21.4664 44.0696 19.8641 43.9969C18.2617 43.9242 17 42.604 17 41L17 33.0107C17 33.0071 17 33.0036 17 33V29.2419L12.1259 25.3426C11.0073 24.4477 10.6774 22.8869 11.3383 21.616L13.9383 16.616C14.4546 15.623 15.4808 15 16.5999 15H30.0183C32.3816 15 34.4163 15.8308 35.8652 17.2988C37.2817 18.7338 37.9818 20.6207 37.9996 22.4712C38.0174 24.3237 37.351 26.2358 35.9207 27.6943C34.6646 28.9751 32.9669 29.7582 31 29.9524V29.9845ZM16.927 19.5387C17.0991 19.2077 17.4411 19 17.8142 19H18C18.5523 19 19 19.4477 19 20V23.6388C19 24.0232 18.7796 24.3736 18.4332 24.5401C18.0867 24.7066 17.6755 24.6598 17.3753 24.4197L15.9078 23.2457C15.5349 22.9474 15.425 22.4271 15.6453 22.0034L16.927 19.5387ZM29 20C29 19.4477 29.4477 19 30 19H30.0183C31.4164 19 32.3916 19.4737 33.0185 20.1088C33.6563 20.7549 33.9913 21.6257 33.9998 22.5096C34.0083 23.3932 33.6907 24.2554 33.0649 24.8936C32.4495 25.521 31.4691 25.9995 30.0212 26C30.0204 26 30.0196 26 30.0188 26L30.0046 26.0001C29.7386 26.0013 29.483 25.8965 29.2945 25.7088C29.106 25.5212 29 25.2661 29 25.0001V20ZM31 23.8649C31.3303 23.7578 31.5246 23.6078 31.6369 23.4932C31.8626 23.2631 32.0037 22.9247 31.9999 22.5288C31.996 22.1305 31.8451 21.767 31.5951 21.5138C31.4769 21.3939 31.2912 21.2527 31 21.1486V23.8649Z" fill="#333333"/>
<path fill-rule="evenodd" clip-rule="evenodd" d="M24 31C25.1046 31 26 30.1046 26 29C26 27.8954 25.1046 27 24 27C22.8955 27 22 27.8954 22 29C22 30.1046 22.8955 31 24 31ZM24 33C26.2092 33 28 31.2091 28 29C28 26.7909 26.2092 25 24 25C21.7909 25 20 26.7909 20 29C20 31.2091 21.7909 33 24 33Z" fill="#333333"/>
<path fill-rule="evenodd" clip-rule="evenodd" d="M18.2475 22.6085L19.0695 23.178C20.1582 23.9323 21.1432 24.7014 21.642 25.6242C21.9114 26.1225 22.0439 26.6695 21.9898 27.2639C21.9373 27.8414 21.7148 28.3968 21.3853 28.9376C20.9657 29.6264 20.3495 30.0455 19.5898 30.08C18.9265 30.1102 18.3156 29.8346 17.8529 29.5658C17.3723 29.2865 16.9012 28.9224 16.5052 28.6126C16.4748 28.5888 16.4448 28.5654 16.4154 28.5423C16.0335 28.2433 15.7348 28.0094 15.4797 27.854L14.6257 27.3337L15.6663 25.6257L16.5203 26.146C16.8822 26.3665 17.2762 26.6755 17.6271 26.9508C17.6644 26.9801 17.7013 27.009 17.7376 27.0374C18.1442 27.3555 18.5132 27.6363 18.8578 27.8366C19.2202 28.0472 19.4195 28.0857 19.499 28.0821C19.5191 28.0812 19.5231 28.0786 19.5304 28.0739C19.5438 28.0652 19.5995 28.0248 19.6773 27.8971C19.9034 27.5259 19.9815 27.2648 19.9981 27.0827C20.0131 26.9174 19.9833 26.7615 19.8826 26.5752C19.6412 26.1287 19.055 25.6011 17.9304 24.822L17.1085 24.2524L18.2475 22.6085Z" fill="#333333"/>
</svg>
