<svg width="48" height="48" viewBox="0 0 48 48" fill="none" xmlns="http://www.w3.org/2000/svg">
<path fill-rule="evenodd" clip-rule="evenodd" d="M16.6248 15.8916C17.6644 15.2625 18.8169 15 19.9772 15H28.0845C29.2449 15 30.3974 15.2625 31.437 15.8916C32.4736 16.519 33.2198 17.4029 33.7398 18.3698C34.7245 20.2008 34.9997 22.5156 34.9998 24.8261V24.9142C34.9998 24.9435 34.9985 24.9729 34.9959 25.0021L34.9881 25.0899C34.9815 25.1648 34.9766 25.4168 34.9828 26.0102C34.9841 26.1389 34.9858 26.2775 34.9876 26.4259L34.9876 26.4282C34.9932 26.8805 34.9998 27.4185 34.9998 28C34.9998 29.6569 33.6566 31 31.9998 31C31.6492 31 31.3127 30.9399 31.0001 30.8294V41C31.0001 42.604 29.7383 43.9242 28.136 43.9969C26.5337 44.0696 25.1576 42.869 25.0124 41.2716L24.3513 34H23.6488L22.9877 41.2716C22.8425 42.869 21.4665 44.0696 19.8641 43.9969C18.2618 43.9242 17.0001 42.604 17.0001 41L17.0001 33.0106C17 33.0071 17 33.0036 17 33V30.8505C16.705 30.9475 16.3897 31 16.062 31C14.4052 31 13.062 29.6569 13.062 28C13.062 27.4184 13.0686 26.8803 13.0741 26.428L13.0742 26.4261C13.076 26.2777 13.0777 26.1389 13.079 26.0102C13.0851 25.4168 13.0802 25.1648 13.0736 25.0899L13.0659 25.0021C13.0633 24.9729 13.062 24.9435 13.062 24.9142V24.8261C13.062 22.5156 13.3372 20.2008 14.322 18.3698C14.842 17.4029 15.5882 16.519 16.6248 15.8916ZM19 32.9894C19 32.9929 19.0001 32.9965 19.0001 33V41C19.0001 41.5347 19.4206 41.9747 19.9547 41.999C20.4889 42.0232 20.9475 41.623 20.9959 41.0905L21.7397 32.9095C21.7865 32.3944 22.2184 32 22.7356 32H25.2645C25.7817 32 26.2136 32.3944 26.2604 32.9095L27.0042 41.0905C27.0526 41.623 27.5113 42.0232 28.0454 41.999C28.5795 41.9747 29.0001 41.5347 29.0001 41V30L29 29.9886L29 29.985V28.0316C29 27.4824 29.443 27.0359 29.9922 27.0317C30.5415 27.0274 30.9914 27.4669 30.9999 28.0161C31.0083 28.5608 31.4528 29 31.9998 29C32.552 29 32.9998 28.5523 32.9998 28C32.9998 27.4314 32.9933 26.9041 32.9878 26.4505C32.9877 26.4465 32.9877 26.4423 32.9876 26.4383C32.9858 26.2948 32.9842 26.1583 32.9829 26.0309C32.9771 25.4742 32.9787 25.1092 32.9959 24.914L32.9998 24.8701V24.8261C32.9997 22.6146 32.7248 20.7049 31.9784 19.3171C31.5959 18.6059 31.0794 18.0129 30.4015 17.6027C29.7226 17.1918 28.9408 17 28.0845 17H19.9772C19.1209 17 18.3392 17.1918 17.6603 17.6027C16.9824 18.0129 16.4659 18.6059 16.0834 19.3171C15.337 20.7049 15.062 22.6146 15.062 24.8261V24.8701L15.0659 24.914C15.0831 25.1092 15.0847 25.4742 15.0789 26.0309C15.0775 26.1617 15.0758 26.3021 15.074 26.4498C15.0685 26.9034 15.062 27.4314 15.062 28C15.062 28.5523 15.5097 29 16.062 29C16.5273 29 16.9207 28.6813 17.0311 28.2488C17.1557 27.7604 17.6245 27.4411 18.1246 27.5039C18.6248 27.5667 19 27.992 19 28.4961V32.9894Z" fill="#333333"/>
<path fill-rule="evenodd" clip-rule="evenodd" d="M19.0001 26.5V34H17.0001V26.5H19.0001Z" fill="#333333"/>
<path fill-rule="evenodd" clip-rule="evenodd" d="M31.0001 21.5V34H29.0001V21.5H31.0001Z" fill="#333333"/>
<path d="M21.0001 22.9394C21.0001 24.0774 20.1046 25 19.0001 25C17.8955 25 17.0001 24.0774 17.0001 22.9394C17.0001 21.1364 19.0001 19 19.0001 19C19.0001 19 21.0001 21.1364 21.0001 22.9394Z" fill="#333333"/>
<path fill-rule="evenodd" clip-rule="evenodd" d="M17.7789 20.6459C18.3405 19.7045 19.0001 19 19.0001 19C19.0001 19 19.6596 19.7045 20.2212 20.6459C20.6376 21.3437 21.0001 22.1718 21.0001 22.9394C21.0001 24.0774 20.1046 25 19.0001 25C17.8955 25 17.0001 24.0774 17.0001 22.9394C17.0001 22.1718 17.3626 21.3437 17.7789 20.6459Z" fill="#333333"/>
<path d="M33.0001 7.28283C33.0001 8.2312 32.3285 9 31.5001 9C30.6716 9 30.0001 8.2312 30.0001 7.28283C30.0001 5.7803 31.5001 4 31.5001 4C31.5001 4 33.0001 5.7803 33.0001 7.28283Z" fill="#333333"/>
<path d="M38.0001 12.9394C38.0001 14.0774 37.1046 15 36.0001 15C34.8955 15 34.0001 14.0774 34.0001 12.9394C34.0001 11.1364 36.0001 9 36.0001 9C36.0001 9 38.0001 11.1364 38.0001 12.9394Z" fill="#333333"/>
<path fill-rule="evenodd" clip-rule="evenodd" d="M34.7789 10.6459C35.3405 9.70453 36.0001 9 36.0001 9C36.0001 9 36.6596 9.70453 37.2212 10.6459C37.6376 11.3437 38.0001 12.1718 38.0001 12.9394C38.0001 14.0774 37.1046 15 36.0001 15C34.8955 15 34.0001 14.0774 34.0001 12.9394C34.0001 12.1718 34.3626 11.3437 34.7789 10.6459Z" fill="#333333"/>
<path fill-rule="evenodd" clip-rule="evenodd" d="M24.0001 11C25.3808 11 26.5001 9.88071 26.5001 8.5C26.5001 7.11929 25.3808 6 24.0001 6C22.6193 6 21.5001 7.11929 21.5001 8.5C21.5001 9.88071 22.6193 11 24.0001 11ZM24.0001 13C26.4853 13 28.5001 10.9853 28.5001 8.5C28.5001 6.01472 26.4853 4 24.0001 4C21.5148 4 19.5001 6.01472 19.5001 8.5C19.5001 10.9853 21.5148 13 24.0001 13Z" fill="#333333"/>
</svg>
