<svg width="48" height="48" viewBox="0 0 48 48" fill="none" xmlns="http://www.w3.org/2000/svg">
<path d="M42 39.5C42 40.8807 38.6422 42 34.5 42C30.3579 42 27 40.8807 27 39.5C27 38.1193 30.3579 37 34.5 37C38.6422 37 42 38.1193 42 39.5Z" fill="#333333"/>
<path d="M30.1172 18.0534C30.1172 18.6352 29.6432 19.1068 29.0586 19.1068C28.474 19.1068 28 18.6352 28 18.0534C28 17.4716 28.474 17 29.0586 17C29.6432 17 30.1172 17.4716 30.1172 18.0534Z" fill="#333333"/>
<path d="M33.1757 23.5801C33.1757 24.4528 32.4648 25.1602 31.5879 25.1602C30.7109 25.1602 30 24.4528 30 23.5801C30 22.7074 30.7109 22 31.5879 22C32.4648 22 33.1757 22.7074 33.1757 23.5801Z" fill="#333333"/>
<path d="M37.1172 29.0534C37.1172 29.6352 36.6432 30.1068 36.0586 30.1068C35.474 30.1068 35 29.6352 35 29.0534C35 28.4716 35.474 28 36.0586 28C36.6432 28 37.1172 28.4716 37.1172 29.0534Z" fill="#333333"/>
<path d="M32.1172 32.0534C32.1172 32.6352 31.6432 33.1068 31.0586 33.1068C30.474 33.1068 30 32.6352 30 32.0534C30 31.4716 30.474 31 31.0586 31C31.6432 31 32.1172 31.4716 32.1172 32.0534Z" fill="#333333"/>
<path d="M38.1757 36.5801C38.1757 37.4528 37.4648 38.1602 36.5879 38.1602C35.7109 38.1602 35 37.4528 35 36.5801C35 35.7074 35.7109 35 36.5879 35C37.4648 35 38.1757 35.7074 38.1757 36.5801Z" fill="#333333"/>
<path fill-rule="evenodd" clip-rule="evenodd" d="M26.5 13C27.8808 13 29 11.8807 29 10.5C29 9.11929 27.8808 8 26.5 8C25.1193 8 24 9.11929 24 10.5C24 11.8807 25.1193 13 26.5 13ZM26.5 15C28.9853 15 31 12.9853 31 10.5C31 8.01472 28.9853 6 26.5 6C24.0148 6 22 8.01472 22 10.5C22 12.9853 24.0148 15 26.5 15Z" fill="#333333"/>
<path fill-rule="evenodd" clip-rule="evenodd" d="M17.9135 13.0052C17.2939 12.9764 16.4512 13.0588 15.4521 13.4518C13.4519 14.2387 10.9391 16.2219 8.31225 20.7717C8.01271 21.2906 7.96397 21.8646 8.02047 22.3823C8.07682 22.8987 8.24422 23.4265 8.45764 23.9292C8.88444 24.9346 9.56622 26.0025 10.2537 26.953C10.9477 27.9126 11.679 28.7953 12.2338 29.4354C12.4058 29.6339 12.5616 29.8099 12.695 29.9585C12.847 30.1278 12.9366 30.3439 12.9492 30.5711L13.4177 39.0549C13.4482 39.6064 13.9199 40.0287 14.4714 39.9982C15.0228 39.9678 15.4451 39.4961 15.4147 38.9446L14.9067 29.7468C14.8936 29.5097 14.7965 29.285 14.6329 29.1129L14.6315 29.1114L14.6303 29.1101L14.6194 29.0985L14.6168 29.0959L14.572 29.0481C14.5306 29.0037 14.4691 28.9373 14.3907 28.8516C14.234 28.68 14.0102 28.4312 13.7451 28.1254C13.2133 27.5119 12.5224 26.6771 11.8742 25.7809C11.604 25.4073 11.3498 25.0346 11.121 24.6719C10.9011 24.3233 10.9176 23.8755 11.1626 23.544C12.2992 22.0061 13.6903 20.5479 15.4054 19.213C15.7212 18.9672 16.1533 18.9334 16.5035 19.1271C16.8538 19.3208 17.0548 19.7047 17.0145 20.1029L16.7081 23.1283C16.6795 23.4116 16.773 23.6938 16.9652 23.904L21.3451 28.6919C21.7178 29.0994 22.3504 29.1276 22.7579 28.7548C23.1654 28.382 23.1935 27.7495 22.8208 27.342L19.0452 23.2147C18.853 23.0045 18.7595 22.7223 18.7882 22.439L19.6189 14.2348C19.6613 13.8156 19.4366 13.4178 19.0627 13.2354C19.012 13.2197 18.9624 13.2 18.9144 13.1761C18.9024 13.1721 18.8893 13.1678 18.8751 13.1633C18.8183 13.1454 18.7438 13.1242 18.6527 13.1032C18.4704 13.0611 18.2214 13.0196 17.9135 13.0052ZM18.9847 13.2014L18.9872 13.2024L18.9897 13.2033M19.7525 11.3544C20.986 11.8551 21.743 13.1099 21.6087 14.4363L20.8231 22.1951L24.2965 25.9921C25.4148 27.2146 25.3303 29.1122 24.1078 30.2305C22.8853 31.3488 20.9877 31.2644 19.8694 30.0418L15.4895 25.2539C14.9128 24.6234 14.6322 23.7769 14.7183 22.9268L14.769 22.4264C14.1936 22.9956 13.6703 23.5818 13.1934 24.1817C13.29 24.3223 13.3907 24.4649 13.4948 24.6088C14.0971 25.4417 14.7476 26.2285 15.2563 26.8154C15.5084 27.1062 15.7204 27.3418 15.8671 27.5024C15.9401 27.5823 15.9966 27.6432 16.0335 27.6828L16.0734 27.7253L16.0759 27.728L16.0819 27.7343C16.5727 28.2506 16.8643 28.9252 16.9036 29.6365L17.4116 38.8343C17.503 40.4887 16.236 41.9038 14.5816 41.9952C12.9273 42.0866 11.5121 40.8195 11.4208 39.1652L10.9715 31.03C10.8929 30.941 10.8097 30.8459 10.7225 30.7453C10.1447 30.0787 9.373 29.1481 8.63311 28.1251C7.91251 27.1287 7.12981 25.9196 6.61665 24.7107C6.35965 24.1053 6.11734 23.3788 6.03227 22.5993C5.9472 21.8197 5.99947 20.7776 6.5802 19.7717C9.3478 14.9781 12.1631 12.5965 14.72 11.5907C15.995 11.0891 17.1202 10.9662 18.0064 11.0074C18.4441 11.0277 18.8127 11.0876 19.1025 11.1545C19.2474 11.1879 19.3726 11.2231 19.4772 11.2561C19.5029 11.2642 19.5273 11.2722 19.5505 11.28C19.6196 11.2973 19.6873 11.322 19.7525 11.3544Z" fill="#333333"/>
</svg>
