<svg width="48" height="48" viewBox="0 0 48 48" fill="none" xmlns="http://www.w3.org/2000/svg">
<path fill-rule="evenodd" clip-rule="evenodd" d="M0 0H48V48H0V0ZM21.1198 23.2178C21.1198 27.6361 17.762 31.2178 13.6198 31.2178L21.0563 23.2178H21.1198ZM21.055 23.2178L13.6198 31.2178C9.47771 31.2178 6.11984 27.6361 6.11984 23.2178L7.32811 23.2178L13.183 14.9233C13.3178 14.7324 13.5152 14.5947 13.7409 14.5342L21.0293 12.5787C21.1867 11.4589 21.9624 10.5375 23 10.1707V6H25V10.1707C25.5419 10.3622 26.0123 10.705 26.3606 11.1484L34.2359 9.0355L31.6721 11.7941L26.9996 13.0477C26.9796 14.3332 26.151 15.4225 25 15.8293V18.973L23 21.125V15.8293C22.3381 15.5953 21.7828 15.1357 21.4266 14.5429L15.5857 16.1099L20.1849 23.2178L21.055 23.2178ZM23 21.1268L21.0563 23.2178H21.055L23 21.125V21.1268ZM25 18.9753V18.973L31.6721 11.7941L31.6764 11.7929L25 18.9753ZM31.6764 11.7929L32.1392 11.6687L28.474 17L27 17C27 21.4183 30.3579 25 34.5 25C38.6421 25 42 21.4183 42 17L40.0543 17L35.36 9.48914C35.288 9.36793 35.1922 9.26522 35.0805 9.18568C35.0257 9.14672 34.9672 9.11331 34.9058 9.08601C34.7185 9.0027 34.5046 8.97621 34.2909 9.02208C34.2742 9.02566 34.2575 9.02968 34.2409 9.03416L31.6764 11.7929ZM25 18.9753V38H28V40H34V42H14V40H20V38H23V21.1268L25 18.9753ZM34.4602 11.8231L37.6958 17L30.901 17L34.4602 11.8231ZM17.8028 23.2178L13.964 17.2851L9.77618 23.2178L17.8028 23.2178Z" fill="#333333"/>
</svg>
