<svg width="48" height="48" viewBox="0 0 48 48" fill="none" xmlns="http://www.w3.org/2000/svg">
<path fill-rule="evenodd" clip-rule="evenodd" d="M24.0697 14C15.9763 14 9.91091 18.5478 6.69497 22.1883C5.76834 23.2372 5.76834 24.7628 6.69497 25.8117C9.91091 29.4522 15.9763 34 24.0697 34C32.163 34 38.2284 29.4522 41.4443 25.8117C42.371 24.7628 42.371 23.2372 41.4443 22.1883C38.2284 18.5478 32.163 14 24.0697 14ZM5.19605 20.8642C8.63609 16.97 15.2037 12 24.0697 12C32.9356 12 39.5032 16.97 42.9433 20.8642C44.538 22.6695 44.538 25.3305 42.9433 27.1358C39.5032 31.03 32.9356 36 24.0697 36C15.2037 36 8.63609 31.03 5.19606 27.1358C3.60132 25.3305 3.60131 22.6695 5.19605 20.8642Z" fill="#333333"/>
<path fill-rule="evenodd" clip-rule="evenodd" d="M28.0698 24C28.0698 26.2091 26.279 28 24.0698 28C21.8607 28 20.0698 26.2091 20.0698 24C20.0698 21.7909 21.8607 20 24.0698 20C24.435 20 24.7888 20.0489 25.1249 20.1406C25.3336 19.4415 25.7903 18.8493 26.3929 18.4663C25.6784 18.166 24.8935 18 24.0698 18C20.7561 18 18.0698 20.6863 18.0698 24C18.0698 27.3137 20.7561 30 24.0698 30C27.3835 30 30.0698 27.3137 30.0698 24C30.0698 23.7352 30.0527 23.4743 30.0194 23.2186C29.5024 23.6895 28.8201 23.9829 28.0698 24C28.0698 23.9997 28.0698 24.0003 28.0698 24Z" fill="#333333"/>
<path fill-rule="evenodd" clip-rule="evenodd" d="M24 14C18.4772 14 14 18.4772 14 24C14 29.5228 18.4772 34 24 34C29.5228 34 34 29.5228 34 24C34 18.4772 29.5228 14 24 14ZM12 24C12 17.3726 17.3726 12 24 12C30.6274 12 36 17.3726 36 24C36 30.6274 30.6274 36 24 36C17.3726 36 12 30.6274 12 24Z" fill="#333333"/>
<path fill-rule="evenodd" clip-rule="evenodd" d="M28 22C28.5523 22 29 21.5523 29 21C29 20.4477 28.5523 20 28 20C27.4477 20 27 20.4477 27 21C27 21.5523 27.4477 22 28 22ZM28 24C29.6569 24 31 22.6569 31 21C31 19.3431 29.6569 18 28 18C26.3431 18 25 19.3431 25 21C25 22.6569 26.3431 24 28 24Z" fill="#333333"/>
</svg>
