<svg width="48" height="48" viewBox="0 0 48 48" fill="none" xmlns="http://www.w3.org/2000/svg">
<path fill-rule="evenodd" clip-rule="evenodd" d="M20 4C20.5523 4 21 4.44772 21 5V13.3431C21 14.6692 20.4732 15.941 19.5355 16.8787L19.0317 17.3826C18.1384 18.2758 18.1384 19.7242 19.0317 20.6174C19.7279 21.3136 20.7914 21.4862 21.6721 21.0459L21.9145 20.9247C23.2273 20.2683 24.7727 20.2683 26.0855 20.9247L26.3279 21.0459C27.2086 21.4862 28.2721 21.3136 28.9683 20.6174C29.8616 19.7242 29.8616 18.2758 28.9683 17.3826L28.4645 16.8787C27.5268 15.941 27 14.6692 27 13.3431V5C27 4.44772 27.4477 4 28 4C28.5523 4 29 4.44772 29 5V13.3431C29 14.1388 29.3161 14.9019 29.8787 15.4645L30.3826 15.9683C32.0569 17.6427 32.0569 20.3573 30.3826 22.0317C29.0776 23.3366 27.0841 23.6601 25.4335 22.8348L25.1911 22.7136C24.4413 22.3387 23.5587 22.3387 22.8089 22.7136L22.5665 22.8348C20.9159 23.6601 18.9224 23.3366 17.6174 22.0317C15.9431 20.3573 15.9431 17.6427 17.6174 15.9683L18.1213 15.4645C18.6839 14.9019 19 14.1388 19 13.3431V5C19 4.44772 19.4477 4 20 4Z" fill="#333333"/>
<path fill-rule="evenodd" clip-rule="evenodd" d="M20 44C20.5523 44 21 43.5523 21 43V34.6569C21 33.3308 20.4732 32.059 19.5355 31.1213L19.0317 30.6174C18.1384 29.7242 18.1384 28.2758 19.0317 27.3826C19.7279 26.6864 20.7914 26.5138 21.6721 26.9541L21.9145 27.0753C23.2273 27.7317 24.7727 27.7317 26.0855 27.0753L26.3279 26.9541C27.2086 26.5138 28.2721 26.6864 28.9683 27.3826C29.8616 28.2758 29.8616 29.7242 28.9683 30.6174L28.4645 31.1213C27.5268 32.059 27 33.3308 27 34.6569V43C27 43.5523 27.4477 44 28 44C28.5523 44 29 43.5523 29 43V34.6569C29 33.8612 29.3161 33.0981 29.8787 32.5355L30.3826 32.0317C32.0569 30.3573 32.0569 27.6427 30.3826 25.9683C29.0776 24.6634 27.0841 24.3399 25.4335 25.1652L25.1911 25.2864C24.4413 25.6613 23.5587 25.6613 22.8089 25.2864L22.5665 25.1652C20.9159 24.3399 18.9224 24.6634 17.6174 25.9683C15.9431 27.6427 15.9431 30.3573 17.6174 32.0317L18.1213 32.5355C18.6839 33.0981 19 33.8612 19 34.6569V43C19 43.5523 19.4477 44 20 44Z" fill="#333333"/>
<path fill-rule="evenodd" clip-rule="evenodd" d="M20 6.44604C11.984 8.26496 6 15.4337 6 24C6 32.5664 11.984 39.7351 20 41.554V39.4959C13.0991 37.7198 8 31.4554 8 24C8 16.5447 13.0991 10.2803 20 8.50408V6.44604ZM28 39.4959C34.9009 37.7198 40 31.4554 40 24C40 16.5447 34.9009 10.2803 28 8.50408V6.44604C36.016 8.26496 42 15.4337 42 24C42 32.5664 36.016 39.7351 28 41.554V39.4959Z" fill="#333333"/>
</svg>
