<svg width="48" height="48" viewBox="0 0 48 48" fill="none" xmlns="http://www.w3.org/2000/svg">
<path fill-rule="evenodd" clip-rule="evenodd" d="M7.41083 36.0479H7.41312C8.15654 36.0479 8.47288 35.8312 8.69292 35.6058C9.0088 35.2823 9.27146 34.7786 9.62554 33.9325C9.66196 33.8455 9.70048 33.7514 9.74132 33.6517C10.028 32.9519 10.4285 31.9744 11.0098 31.2027C11.8003 30.1533 12.9882 29.3613 14.6885 29.3613C16.3914 29.3613 17.41 28.8293 18.7767 28.0931L18.8238 28.0677C20.2473 27.3006 22.0183 26.3464 24.762 26.3464C25.2963 26.3464 25.7756 26.1567 26.3463 25.6952C26.9555 25.2025 27.5199 24.5286 28.2639 23.6402C28.2876 23.6119 28.3115 23.5834 28.3356 23.5546C28.3552 23.5312 28.375 23.5076 28.3949 23.4838C29.7796 21.8299 31.8714 19.3314 35.3952 19.3314C36.0515 19.3314 36.8904 19.0217 37.8539 18.2858C38.7994 17.5638 39.709 16.547 40.46 15.4488C41.1912 14.3795 41.7061 13.3297 41.9573 12.5402C41.9212 12.542 41.8838 12.5441 41.8452 12.5466C41.0754 12.5959 40.0902 12.7664 38.9423 13.0002C38.5224 13.0857 38.0671 13.1827 37.601 13.2821C36.8723 13.4374 36.1171 13.5983 35.4295 13.7297C34.2867 13.948 33.0791 14.1374 32.0374 14.1374C30.9609 14.1374 30.1563 13.9642 29.4246 13.632C29.0948 13.4822 28.8138 13.3147 28.6079 13.1912C28.5882 13.1793 28.5689 13.1678 28.5502 13.1565C28.3581 13.0412 28.2163 12.956 28.0486 12.8693C27.4427 12.556 26.1681 12.0479 22.1192 12.0479C17.867 12.0479 15.091 12.1915 13.0187 12.9314C11.1431 13.6011 9.7236 14.8111 8.40801 17.4423C7.08823 20.0818 6.05609 25.1293 6.00219 29.5721C5.97531 31.7877 6.19706 33.6425 6.62867 34.8677C6.8432 35.4767 7.06443 35.7986 7.21331 35.9452C7.31753 36.0479 7.35819 36.0479 7.41083 36.0479ZM7.41312 38.0479C2.37634 38.0479 3.61914 22.5479 6.61916 16.5479C9.61919 10.5479 13.7245 10.0479 22.1192 10.0479C27.2615 10.0479 28.5655 10.8319 29.5758 11.4395C30.2149 11.8238 30.7364 12.1374 32.0374 12.1374C33.3805 12.1374 35.2609 11.7362 37.1413 11.335C39.9619 10.7332 42.7825 10.1315 43.7898 10.8837C45.4687 12.1374 40.432 21.3314 35.3952 21.3314C32.8027 21.3314 31.2481 23.1899 29.7392 24.9937C28.3166 26.6944 26.9347 28.3464 24.762 28.3464C22.5235 28.3464 21.1244 29.1001 19.7252 29.8538C18.3261 30.6076 16.927 31.3613 14.6885 31.3613C12.8526 31.3613 12.2458 32.8297 11.6009 34.3903C10.8697 36.1599 10.0895 38.0479 7.41312 38.0479Z" fill="#333333"/>
<path fill-rule="evenodd" clip-rule="evenodd" d="M21.3967 15.502C21.8102 13.779 22.7961 11.633 25.0891 10.1999L26.1491 11.8958C24.4422 12.9627 23.678 14.5667 23.3415 15.9687C23.1735 16.6688 23.1171 17.3017 23.103 17.7583C23.096 17.9856 23.0996 18.1665 23.1046 18.2868C23.1071 18.3469 23.1099 18.3916 23.1119 18.4191L23.1142 18.4491C23.1142 18.4487 23.1142 18.4484 22.1191 18.5479C21.1241 18.6474 21.124 18.6469 21.124 18.6465L21.1237 18.6431L21.1231 18.6371L21.1215 18.6195C21.1203 18.6054 21.1188 18.5865 21.1171 18.563C21.1137 18.5161 21.1097 18.451 21.1063 18.3695C21.0996 18.2065 21.0953 17.9773 21.104 17.6968C21.1212 17.1377 21.1898 16.3644 21.3967 15.502Z" fill="#333333"/>
<path d="M10.5179 26.1135C13.3851 28.2158 19.1192 25.1135 19.1192 25.1135V22.9597H12.9072C10.5179 22.9597 7.65081 24.0112 10.5179 26.1135Z" fill="#333333"/>
<path fill-rule="evenodd" clip-rule="evenodd" d="M19.2165 20.4828C19.8591 19.9205 20.7098 19.5479 21.5 19.5479V21.5479C21.2902 21.5479 20.8909 21.6752 20.5335 21.9879C20.195 22.2841 20 22.6526 20 23.0479V39.5479H18V23.0479C18 21.9431 18.555 21.0616 19.2165 20.4828Z" fill="#333333"/>
</svg>
