<svg width="48" height="48" viewBox="0 0 48 48" fill="none" xmlns="http://www.w3.org/2000/svg">
<path fill-rule="evenodd" clip-rule="evenodd" d="M12.2161 10.7392C12.5598 9.83969 13.398 8.75847 15.2242 7.63526C18.5772 5.57304 21.7795 5.61185 24.6814 6.96673C27.6756 8.36466 30.4424 11.2231 32.5127 14.9205C34.574 18.6017 35.8523 22.9547 35.9953 27.1305C36.1385 31.3094 35.1457 35.1629 32.8505 38.0454C32.2959 38.7418 30.9937 40.2137 29.2367 41.1533C27.562 42.0489 25.5403 42.4442 23.1895 41.2196C20.361 39.7461 19.5755 38.3937 19.3682 37.4022C19.1334 36.2796 19.4795 34.9731 20.2271 33.2186C20.4013 32.81 20.5856 32.4014 20.7787 31.9735L20.7971 31.9326C20.9934 31.4975 21.199 31.041 21.3908 30.5855C21.5733 30.152 21.7544 29.6943 21.9132 29.2209C21.1877 29.1344 20.5639 28.8733 20.0466 28.5473C19.7659 29.3969 19.3694 30.2756 18.965 31.172C17.1929 35.1001 15.2678 39.3674 22.2548 43.0073C28.3581 46.1868 33.1542 40.8476 34.3954 39.2888C45.1103 25.8323 30.0226 -3.8031 14.2065 5.92443C7.1374 10.2723 9.96535 16.0046 15.4444 20.6982C15.7064 20.5776 15.9703 20.4638 16.2363 20.3573C16.3894 20.2773 16.5517 20.2102 16.7223 20.1576C16.7893 20.137 16.8561 20.1178 16.9228 20.1001C17.1526 20.02 17.3839 19.9453 17.6167 19.8763C15.0571 17.84 13.1465 15.6977 12.3665 13.7347C11.909 12.5834 11.8837 11.6094 12.2161 10.7392Z" fill="#333333"/>
<path fill-rule="evenodd" clip-rule="evenodd" d="M24.0539 22.5673C24.1177 22.0122 23.7311 21.5025 23.1904 21.4289C20.6611 21.0846 18.5665 21.4141 16.5373 22.4394C14.5486 23.4442 12.6729 25.0935 10.5316 27.2747C10.1475 27.6659 10.149 28.3078 10.5349 28.7085C10.9209 29.1092 11.5451 29.1168 11.9292 28.7256C14.0445 26.571 15.7355 25.1166 17.4271 24.262C19.0782 23.4278 20.7776 23.1422 22.9593 23.4391C23.5 23.5127 23.9901 23.1224 24.0539 22.5673Z" fill="#333333"/>
<path fill-rule="evenodd" clip-rule="evenodd" d="M23.5273 26.112C23.471 25.5542 22.9863 25.1426 22.4447 25.1925C22.2638 25.2092 22.1055 25.1587 21.8727 24.942C21.6356 24.7211 21.4244 24.4276 21.1386 24.0304C21.0916 23.9651 21.0426 23.897 20.9911 23.8259C20.6704 23.3833 20.2364 22.803 19.6533 22.4161C19.0018 21.9838 18.2168 21.8223 17.3131 22.1009C16.7936 22.261 16.5048 22.8258 16.6679 23.3624C16.8311 23.899 17.3844 24.2042 17.9039 24.0441C18.2446 23.9391 18.43 24.0018 18.6013 24.1155C18.841 24.2745 19.0823 24.5618 19.416 25.0224C19.4555 25.0769 19.4969 25.1348 19.5401 25.1953C19.814 25.5785 20.1611 26.0641 20.5608 26.4363C21.067 26.9077 21.7531 27.2948 22.6487 27.2123C23.1902 27.1624 23.5836 26.6698 23.5273 26.112Z" fill="#333333"/>
<path fill-rule="evenodd" clip-rule="evenodd" d="M26.3895 23.1518C25.2082 19.0756 22.3614 15.2776 18.3407 11.7519L19.6593 10.2481C23.8401 13.9143 26.984 18.0182 28.3105 22.5951C29.6474 27.2084 29.1038 32.1859 26.1229 37.4899L24.3794 36.5101C27.1287 31.618 27.5603 27.1915 26.3895 23.1518Z" fill="#333333"/>
</svg>
