<svg width="48" height="48" viewBox="0 0 48 48" fill="none" xmlns="http://www.w3.org/2000/svg">
<path fill-rule="evenodd" clip-rule="evenodd" d="M10.8034 22.874C6.32904 25.5355 4.29161 30.3908 6.25181 33.786C8.23323 37.2179 13.549 37.8584 18.1249 35.2165C22.5586 32.6566 24.6709 27.9545 22.9955 24.5429C21.7367 24.8397 20.394 25 19.0001 25C18.9211 25 18.8423 24.9995 18.7636 24.9984C18.9612 25.1841 19.1359 25.4005 19.2802 25.6504C19.9239 26.7654 19.6897 28.0595 19.1126 29.1193C18.5258 30.1968 17.5099 31.2027 16.2331 31.9399C14.9563 32.677 13.5773 33.0539 12.3507 33.0233C11.1443 32.9932 9.90645 32.5489 9.26273 31.434C8.70025 30.4597 8.80992 29.3401 9.22847 28.3775L11.0626 29.175C10.8035 29.7708 10.8506 30.1842 10.9948 30.434C11.1583 30.7172 11.5787 31.0034 12.4006 31.0239C13.2024 31.0439 14.2219 30.7916 15.2331 30.2078C16.2443 29.624 16.9725 28.8672 17.3561 28.1628C17.7493 27.4408 17.7116 26.9336 17.5481 26.6504C17.4039 26.4006 17.0695 26.1532 16.4239 26.0796L16.5658 24.8337C14.4092 24.5352 12.441 23.8473 10.8034 22.874Z" fill="#333333"/>
<path d="M41.0435 22.6739C40.5622 24.4702 38.2305 25.4061 35.8355 24.7644C33.4405 24.1226 31.8892 22.1463 32.3705 20.35C32.8518 18.5538 35.1835 17.6179 37.5784 18.2596C39.9734 18.9013 41.5248 20.8777 41.0435 22.6739Z" fill="#333333"/>
<path fill-rule="evenodd" clip-rule="evenodd" d="M38.4121 22.7773C38.9151 22.5754 39.0704 22.31 39.1116 22.1563C39.1528 22.0026 39.151 21.6951 38.8163 21.2687C38.4812 20.8418 37.8807 20.4112 37.0608 20.1915C36.2409 19.9718 35.5055 20.0445 35.0018 20.2466C34.4989 20.4485 34.3435 20.7139 34.3023 20.8677C34.2611 21.0214 34.263 21.3289 34.5976 21.7552C34.9327 22.1822 35.5332 22.6128 36.3531 22.8325C37.173 23.0522 37.9084 22.9795 38.4121 22.7773ZM35.8355 24.7644C38.2305 25.4061 40.5622 24.4702 41.0435 22.6739C41.5248 20.8777 39.9734 18.9013 37.5784 18.2596C35.1835 17.6179 32.8518 18.5538 32.3705 20.35C31.8892 22.1463 33.4405 24.1226 35.8355 24.7644Z" fill="#333333"/>
<path fill-rule="evenodd" clip-rule="evenodd" d="M30.6528 41.11C35.9838 42.5385 41.1739 40.4552 42.2452 36.457C43.3165 32.4588 39.8634 28.0596 34.5324 26.6311C29.2014 25.2027 24.0113 27.286 22.94 31.2842C21.8687 35.2824 25.3218 39.6816 30.6528 41.11ZM36.5966 34.369C36.5027 34.7196 36.1393 35.1301 35.3073 35.3754C34.4947 35.615 33.3894 35.6355 32.2048 35.3181C31.0202 35.0007 30.0732 34.4303 29.4893 33.8165C28.8914 33.1881 28.7819 32.6508 28.8759 32.3002C28.9587 31.9912 29.2428 31.6425 29.8826 31.3905L29.1495 29.5297C28.1377 29.9283 27.2433 30.6656 26.944 31.7826C26.6015 33.0609 27.1773 34.2879 28.0402 35.195C28.917 36.1166 30.2063 36.8531 31.6872 37.2499C33.168 37.6467 34.6528 37.6535 35.873 37.2938C37.0739 36.9396 38.186 36.1649 38.5285 34.8866C38.8278 33.7696 38.4219 32.6839 37.7449 31.8328L36.1797 33.0778C36.6077 33.616 36.6794 34.06 36.5966 34.369Z" fill="#333333"/>
<path fill-rule="evenodd" clip-rule="evenodd" d="M27.0125 20.6027C28.9891 19.1582 30.0001 17.3301 30.0001 15.5C30.0001 13.6699 28.9891 11.8418 27.0125 10.3973C25.0373 8.95388 22.211 8 19.0001 8C15.7892 8 12.9629 8.95388 10.9878 10.3973C9.0111 11.8418 8.00012 13.6699 8.00012 15.5C8.00012 17.3301 9.0111 19.1582 10.9878 20.6027C12.9629 22.0461 15.7892 23 19.0001 23C22.211 23 25.0373 22.0461 27.0125 20.6027ZM19.0001 25C26.1798 25 32.0001 20.7467 32.0001 15.5C32.0001 10.2533 26.1798 6 19.0001 6C11.8204 6 6.00012 10.2533 6.00012 15.5C6.00012 20.7467 11.8204 25 19.0001 25Z" fill="#333333"/>
<path fill-rule="evenodd" clip-rule="evenodd" d="M23.4859 16.0402C24.6299 15.441 25.0001 14.7874 25.0001 14.3333C25.0001 13.9367 24.7263 13.3911 23.8645 12.8445L24.9357 11.1555C26.073 11.8769 27.0001 12.9571 27.0001 14.3333C27.0001 15.9043 25.8033 17.0841 24.4139 17.8119C22.977 18.5645 21.0613 19 19.0001 19C16.9389 19 15.0232 18.5645 13.5864 17.8119C12.1969 17.0841 11.0001 15.9043 11.0001 14.3333C11.0001 12.9571 11.9273 11.8769 13.0645 11.1555L14.1358 12.8445C13.274 13.3911 13.0001 13.9367 13.0001 14.3333C13.0001 14.7874 13.3703 15.441 14.5144 16.0402C15.611 16.6147 17.1954 17 19.0001 17C20.8049 17 22.3892 16.6147 23.4859 16.0402Z" fill="#333333"/>
</svg>
