<svg width="48" height="48" viewBox="0 0 48 48" fill="none" xmlns="http://www.w3.org/2000/svg">
<path fill-rule="evenodd" clip-rule="evenodd" d="M17.6566 24.1496C17.7242 24.1176 17.7919 24.0865 17.8598 24.0564C17.8745 24.0526 17.8892 24.0485 17.9038 24.044C18.2106 23.9494 18.5132 23.9927 18.8996 24.205C19.3177 24.4347 19.7508 24.8174 20.2628 25.3092C20.338 25.3815 20.4157 25.4569 20.4953 25.5343C20.9162 25.9429 21.3937 26.4064 21.8772 26.7621C22.4591 27.1901 23.2154 27.5916 24.102 27.5099C24.6436 27.4599 25.037 26.9673 24.9807 26.4096C24.9243 25.8518 24.4397 25.4401 23.8981 25.4901C23.7082 25.5076 23.4384 25.4343 23.0089 25.1184C22.647 24.8521 22.2892 24.5057 21.8668 24.0966C21.78 24.0125 21.6904 23.9258 21.5976 23.8366C21.427 23.6727 21.2451 23.5005 21.0529 23.3299C21.6505 23.3107 22.2816 23.3468 22.9592 23.439C23.5 23.5126 23.9901 23.1223 24.0539 22.5672C24.1177 22.012 23.7311 21.5023 23.1903 21.4287C20.661 21.0844 18.5665 21.414 16.5373 22.4392C16.3011 22.5586 16.0665 22.687 15.8328 22.8244C9.49141 17.9487 5.55995 11.6268 13.2056 6.92443C29.0216 -2.8031 44.1093 26.8323 33.3945 40.2888C32.1533 41.8477 27.3571 47.1868 21.2538 44.0073C14.2668 40.3674 16.1919 36.1001 17.9641 32.172C19.3271 29.1506 20.5997 26.3298 17.6566 24.1496ZM19.3408 11.752C23.3615 15.2777 26.2083 19.0757 27.3896 23.1519C28.5604 27.1916 28.1288 31.6181 25.3795 36.5102L27.123 37.49C30.1039 32.186 30.6476 27.2084 29.3106 22.5951C27.9841 18.0183 24.8402 13.9144 20.6594 10.2482L19.3408 11.752Z" fill="#333333"/>
<path fill-rule="evenodd" clip-rule="evenodd" d="M16.0781 22.6837C16.2306 22.5984 16.3836 22.5169 16.5373 22.4392C16.6445 22.3851 16.752 22.3328 16.8596 22.2825C17.9213 21.7865 19.006 21.4791 20.1661 21.3573C21.1143 21.2577 22.1129 21.2821 23.1903 21.4287C23.7311 21.5023 24.1177 22.012 24.0539 22.5672C24.0272 22.7993 23.926 23.0026 23.7777 23.1552C23.5713 23.3676 23.2739 23.4818 22.9592 23.439C22.8214 23.4203 22.6855 23.4038 22.5514 23.3897C22.3872 23.3724 22.2257 23.3586 22.0667 23.3482C21.7229 23.3258 21.3909 23.3196 21.0687 23.3294C21.0634 23.3296 21.0581 23.3297 21.0529 23.3299C21.2451 23.5005 21.427 23.6727 21.5976 23.8366C21.6115 23.8499 21.6253 23.8632 21.6391 23.8765C21.7172 23.9517 21.793 24.0251 21.8668 24.0966C21.871 24.1006 21.8752 24.1047 21.8794 24.1087C22.1989 24.4182 22.4816 24.6915 22.7575 24.9209C22.8417 24.9909 22.9252 25.0568 23.0089 25.1184C23.026 25.1309 23.0428 25.1431 23.0594 25.1549C23.1352 25.2089 23.2059 25.2551 23.2718 25.2943C23.3618 25.3479 23.4431 25.3886 23.5169 25.4187C23.6743 25.4831 23.7974 25.4993 23.8981 25.4901C24.4397 25.4401 24.9243 25.8518 24.9807 26.4096C25.037 26.9673 24.6436 27.4599 24.102 27.5099C23.3837 27.5761 22.751 27.3252 22.2272 26.9999C22.1045 26.9237 21.9877 26.8434 21.8772 26.7621C21.8605 26.7498 21.8439 26.7374 21.8272 26.7249C21.6664 26.6041 21.5064 26.4719 21.3491 26.3344C21.0504 26.0732 20.7616 25.7927 20.4953 25.5343M20.4845 25.5238C20.4086 25.4501 20.3346 25.3783 20.2628 25.3092C20.2488 25.2959 20.235 25.2826 20.2212 25.2694C20.0503 25.1058 19.8881 24.9548 19.7323 24.8179C19.6337 24.7314 19.5377 24.6506 19.4436 24.5758C19.2564 24.427 19.0766 24.3023 18.8996 24.205C18.5132 23.9927 18.2106 23.9494 17.9038 24.044C17.8892 24.0485 17.8745 24.0526 17.8598 24.0564C17.7919 24.0865 17.7242 24.1176 17.6566 24.1496C17.7563 24.2235 17.8512 24.2981 17.9414 24.3734C17.9708 24.398 17.9997 24.4226 18.0282 24.4473C18.0282 24.4473 18.0281 24.4473 18.0282 24.4473C18.031 24.4498 18.0339 24.4523 18.0367 24.4548C18.2115 24.6074 18.3675 24.7629 18.5062 24.9211C18.8965 25.3664 19.1489 25.8335 19.2926 26.3192C19.3281 26.4394 19.357 26.5608 19.3797 26.6833C19.4172 26.8855 19.4377 27.0907 19.4432 27.2986C19.4832 28.8046 18.7382 30.456 17.9641 32.172C16.1919 36.1001 14.2668 40.3674 21.2538 44.0073C27.3571 47.1868 32.1533 41.8477 33.3945 40.2888C44.1093 26.8323 29.0216 -2.8031 13.2056 6.92443C5.56794 11.6219 9.4832 17.9355 15.8129 22.8091C15.8196 22.8142 15.8262 22.8193 15.8328 22.8244C15.9144 22.7764 15.9962 22.7295 16.0781 22.6837M16.0624 20.4476C18.3561 19.3874 20.7389 19.0766 23.4601 19.447C23.4762 19.4492 23.4922 19.4515 23.5082 19.4539C22.1797 17.3528 20.3364 15.2851 18.0222 13.2557L16.5184 11.9371L20.4743 7.42585L21.978 8.74447C26.3189 12.551 29.76 16.9608 31.2315 22.0384C32.7348 27.2255 32.0788 32.7541 28.8665 38.4699L27.8867 40.2134L22.6561 37.2738L23.636 35.5303C24.9858 33.1285 25.7038 30.9005 25.9246 28.8161C25.4831 29.1915 24.9238 29.4426 24.2856 29.5014C23.063 29.6141 22.0468 29.2148 21.3104 28.7824C21.0369 30.228 20.3919 31.6557 19.8574 32.8388C19.8338 32.8912 19.8103 32.9431 19.7871 32.9945C18.8441 35.0848 18.1988 36.6326 18.3171 38.0289C18.4098 39.1226 19.0466 40.6023 22.1778 42.2336C24.5088 43.4479 26.5214 43.0613 28.2043 42.1613C29.9665 41.2189 31.2731 39.7422 31.8299 39.043C34.1354 36.1475 35.1289 32.2814 34.9856 28.0992C34.8424 23.9198 33.5633 19.5673 31.504 15.8897C29.4351 12.1948 26.6741 9.34547 23.6931 7.9537C20.8097 6.60748 17.6144 6.5608 14.2533 8.62801C12.5655 9.66613 11.7125 10.6742 11.3181 11.5379C10.9392 12.3673 10.8981 13.2468 11.1923 14.2433C11.7556 16.1519 13.5068 18.3192 16.0624 20.4476ZM22.1331 11.6011C25.576 14.9166 28.145 18.5733 29.3106 22.5951C29.4777 23.1718 29.6154 23.7541 29.7227 24.3421C30.3769 27.9279 29.8977 31.7229 28.0383 35.7102C27.7649 36.2964 27.4617 36.8868 27.1279 37.4813C27.1263 37.4842 27.1246 37.4871 27.123 37.49L25.3795 36.5102C25.3902 36.491 25.4009 36.4719 25.4116 36.4528C28.1323 31.5833 28.5557 27.1756 27.3896 23.1519C27.3158 22.8971 27.2354 22.6434 27.1487 22.3909C25.8479 18.6021 23.1103 15.0574 19.3408 11.752L20.6594 10.2482C20.6609 10.2495 20.6625 10.2509 20.664 10.2522C21.1693 10.6954 21.6594 11.1451 22.1331 11.6011Z" fill="#333333"/>
<path fill-rule="evenodd" clip-rule="evenodd" d="M15.8328 22.8244C16.3633 23.2322 16.9115 23.6295 17.4703 24.0153C17.5345 24.0596 17.5969 24.1042 17.6575 24.1491C17.5805 24.1855 17.5037 24.2231 17.427 24.2618C15.7354 25.1165 14.0444 26.5708 11.9291 28.7255C11.545 29.1167 10.9208 29.109 10.5349 28.7083C10.1489 28.3077 10.1474 27.6657 10.5315 27.2745C12.4189 25.3521 14.0989 23.8433 15.8328 22.8244Z" fill="#333333"/>
</svg>
