<svg width="48" height="48" viewBox="0 0 48 48" fill="none" xmlns="http://www.w3.org/2000/svg">
<path fill-rule="evenodd" clip-rule="evenodd" d="M48 0H0V48H48V0ZM40 24C40 32.8366 32.8366 40 24 40C15.1634 40 8 32.8366 8 24C8 15.1634 15.1634 8 24 8C32.8366 8 40 15.1634 40 24ZM42 24C42 33.9411 33.9411 42 24 42C14.0589 42 6 33.9411 6 24C6 14.0589 14.0589 6 24 6C33.9411 6 42 14.0589 42 24ZM29.4278 32.9771C28.3486 31.796 26.3162 31.0001 23.9868 31.0001C21.5527 31.0001 19.4429 31.8692 18.4061 33.1387C17.9589 33.6863 17.5317 35.3448 19.1623 34.9359C23.9085 33.6759 24.3699 33.7223 29.0241 34.9359C30.3013 35.3011 30.0868 33.8629 29.7077 33.2985C29.6485 33.2104 29.5751 33.1332 29.5018 33.0561L29.5017 33.0559C29.4769 33.0298 29.452 33.0036 29.4278 32.9771ZM20 24C20 26.2091 18.8807 28 17.5 28C16.1193 28 15 26.2091 15 24C15 22.3859 15.5975 20.9952 16.4579 20.363L16.439 20.3567C14.7999 19.8158 13.1581 19.4658 12.1051 19.311L12.3959 17.3323C13.5552 17.5027 15.3099 17.878 17.0658 18.4575C18.7979 19.0292 20.6477 19.8367 21.9034 20.9218L20.5956 22.4351C20.2987 22.1785 19.9439 21.9329 19.5455 21.6998C19.8319 22.3504 20 23.1438 20 24ZM33 24C33 26.2091 31.8807 28 30.5 28C29.1193 28 28 26.2091 28 24C28 22.9751 28.2409 22.0402 28.6371 21.3324C27.9572 21.6703 27.362 22.0396 26.9044 22.4351L25.5966 20.9218C26.8523 19.8367 28.7021 19.0292 30.4342 18.4575C32.1901 17.878 33.9448 17.5027 35.1041 17.3323L35.3949 19.311C34.41 19.4558 32.91 19.7713 31.3789 20.2542C32.326 20.8234 33 22.2857 33 24Z" fill="#333333"/>
</svg>
