<svg width="48" height="48" viewBox="0 0 48 48" fill="none" xmlns="http://www.w3.org/2000/svg">
<path fill-rule="evenodd" clip-rule="evenodd" d="M48 0H0V48H48V0ZM40 24C40 32.8366 32.8366 40 24 40C15.1634 40 8 32.8366 8 24C8 15.1634 15.1634 8 24 8C32.8366 8 40 15.1634 40 24ZM42 24C42 33.9411 33.9411 42 24 42C14.0589 42 6 33.9411 6 24C6 14.0589 14.0589 6 24 6C33.9411 6 42 14.0589 42 24ZM14.8073 26.2328C14.1242 25.7953 13.6237 25.0878 13.7428 24.3501C13.7667 24.2024 13.8554 24.0731 13.9847 23.9978C14.114 23.9225 14.2702 23.909 14.4105 23.9611C16.2287 24.6362 18.2567 24.2174 20.0526 22.5126C20.1764 22.3951 20.3517 22.3488 20.5173 22.39C20.683 22.4312 20.8163 22.554 20.8707 22.7158C21.1024 23.4046 20.8948 24.3341 20.3905 25.0976C19.8685 25.8878 18.983 26.579 17.737 26.763C16.5386 26.9399 15.521 26.6899 14.8073 26.2328ZM32.7542 26.2328C33.4373 25.7953 33.9377 25.0878 33.8186 24.3501C33.7948 24.2024 33.7061 24.0731 33.5768 23.9978C33.4475 23.9225 33.2913 23.909 33.151 23.9611C31.3327 24.6362 29.3048 24.2174 27.5089 22.5126C27.3851 22.3951 27.2098 22.3488 27.0441 22.39C26.8784 22.4312 26.7452 22.554 26.6907 22.7158C26.459 23.4046 26.6666 24.3341 27.171 25.0976C27.693 25.8878 28.5785 26.579 29.8244 26.763C31.0229 26.9399 32.0404 26.6899 32.7542 26.2328ZM30.3149 33.5543C30.6485 33.2071 30.9197 32.8276 31.0869 32.4337C31.2482 32.054 31.3536 31.5581 31.1841 31.0603C30.9954 30.5062 30.5448 30.1732 30.0487 30.0445C29.5915 29.9259 29.0876 29.9705 28.5945 30.0941L28.5811 30.0977C26.1852 30.7337 25.0121 30.997 23.8768 30.9918C22.7389 30.9867 21.5916 30.7128 19.2387 30.0993C18.7916 29.9729 18.3043 29.9186 17.8505 30.0547C17.3335 30.2098 16.9353 30.5965 16.7985 31.1374C16.6786 31.6112 16.7899 32.077 16.9496 32.4429C17.1161 32.8245 17.3774 33.1982 17.703 33.5454C18.9764 34.9037 21.2759 36 24.0132 36C26.7572 36 29.0224 34.8995 30.3149 33.5543Z" fill="#333333"/>
</svg>
