<svg width="48" height="48" viewBox="0 0 48 48" fill="none" xmlns="http://www.w3.org/2000/svg">
<path fill-rule="evenodd" clip-rule="evenodd" d="M48 0H0V48H48V0ZM24.2539 39.998C24.1694 39.9993 24.0848 40 24 40C15.1634 40 8 32.8366 8 24C8 15.1634 15.1634 8 24 8C32.8366 8 40 15.1634 40 24L40 24.0357C40.6974 24.1131 41.3725 24.3167 41.9892 24.6301C41.9964 24.421 42 24.2109 42 24C42 14.0589 33.9411 6 24 6C14.0589 6 6 14.0589 6 24C6 33.9411 14.0589 42 24 42C24.3319 42 24.6618 41.991 24.9893 41.9733C24.6338 41.3263 24.4026 40.6491 24.2539 39.998ZM30 30C30 32.7614 27.7614 35 25 35C22.2386 35 20 32.7614 20 30C20 27.2386 22.2386 25 25 25C27.7614 25 30 27.2386 30 30ZM41.9881 29.245C41.8505 27.8721 40.5606 26.8729 39.1069 27.0131C36.8039 27.2353 34.75 29.9433 34.75 29.9433C34.75 29.9433 37.3021 32.2068 39.6051 31.9846C41.0588 31.8444 42.1256 30.6178 41.9881 29.245ZM27.8157 41.8459C28.666 43.0572 30.2844 43.3642 31.4305 42.5316C32.5765 41.6989 32.8162 40.042 31.9659 38.8307C30.6187 36.9115 27.1963 36.5 27.1963 36.5C27.1963 36.5 26.4685 39.9268 27.8157 41.8459ZM41.5634 39.3074C42.5427 37.6211 41.9162 35.4293 40.1642 34.4119C37.3885 32.8 32.8396 34.2414 32.8396 34.2414C32.8396 34.2414 33.8422 38.9066 36.618 40.5186C38.37 41.536 40.5841 40.9938 41.5634 39.3074ZM17.2411 18.3488C17.5703 17.9651 18.1341 17.8875 18.5547 18.1679L21.5547 20.1679C21.8329 20.3534 22 20.6656 22 21C22 21.3344 21.8329 21.6466 21.5547 21.8321L18.5547 23.8321C18.128 24.1165 17.5554 24.0321 17.2289 23.6367C16.9024 23.2413 16.9279 22.663 17.288 22.2978C18.0121 21.5635 18.113 21.2182 18.1117 21.0378C18.1102 20.836 17.983 20.4636 17.2619 19.6747C16.9208 19.3015 16.9119 18.7325 17.2411 18.3488ZM33.4453 18.1679C33.8659 17.8875 34.4297 17.9651 34.7589 18.3488C35.0881 18.7325 35.0792 19.3015 34.7381 19.6747C34.017 20.4636 33.8898 20.836 33.8883 21.0378C33.887 21.2182 33.9879 21.5635 34.712 22.2978C35.0721 22.663 35.0976 23.2413 34.7711 23.6367C34.4446 24.0321 33.872 24.1165 33.4453 23.8321L30.4453 21.8321C30.1671 21.6466 30 21.3344 30 21C30 20.6656 30.1671 20.3534 30.4453 20.1679L33.4453 18.1679Z" fill="#333333"/>
</svg>
