<svg width="48" height="48" viewBox="0 0 48 48" fill="none" xmlns="http://www.w3.org/2000/svg">
<path fill-rule="evenodd" clip-rule="evenodd" d="M48 0H0V48H48V0ZM24 40C30.3263 40 35.795 36.3285 38.3916 31H40.5882C37.8572 37.4639 31.4584 42 24 42C16.5417 42 10.1429 37.4639 7.41187 31H9.60851C12.2051 36.3285 17.6738 40 24 40ZM24 8C19.4243 8 15.2972 9.92077 12.381 13H9.75114C13.0431 8.74194 18.2014 6 24 6C29.7987 6 34.9569 8.74194 38.249 13H35.619C32.7029 9.92077 28.5758 8 24 8ZM22.6568 18.4C22.7044 18.7167 22.7146 19.0447 22.6827 19.3792L22.1113 25.3792C21.9157 27.4322 20.1915 29 18.1293 29H10C7.79086 29 6 27.2091 6 25V20H5V15H10H14H18.7007C19.9243 15 21.01 15.5464 21.7405 16.4H22H22.0091H22.0183H22.0274H22.0365H22.0456H22.0547H22.0637H22.0728H22.0818H22.0908H22.0998H22.1088H22.1177H22.1267H22.1356H22.1445H22.1534H22.1623H22.1712H22.1801H22.1889H22.1978H22.2066H22.2154H22.2242H22.2329H22.2417H22.2504H22.2592H22.2679H22.2766H22.2853H22.294H22.3026H22.3113H22.3199H22.3285H22.3371H22.3457H22.3543H22.3629H22.3715H22.38H22.3885H22.397H22.4055H22.414H22.4225H22.431H22.4394H22.4479H22.4563H22.4647H22.4731H22.4815H22.4899H22.4982H22.5066H22.5149H22.5233H22.5316H22.5399H22.5482H22.5564H22.5647H22.573H22.5812H22.5895H22.5977H22.6059H22.6141H22.6223H22.6304H22.6386H22.6468H22.6549H22.663H22.6712H22.6793H22.6874H22.6954H22.7035H22.7116H22.7196H22.7277H22.7357H22.7437H22.7518H22.7598H22.7678H22.7757H22.7837H22.7917H22.7996H22.8076H22.8155H22.8234H22.8313H22.8392H22.8471H22.855H22.8629H22.8707H22.8786H22.8864H22.8943H22.9021H22.9099H22.9177H22.9255H22.9333H22.9411H22.9489H22.9566H22.9644H22.9721H22.9799H22.9876H22.9953H23.003H23.0108H23.0184H23.0261H23.0338H23.0415H23.0491H23.0568H23.0645H23.0721H23.0797H23.0873H23.095H23.1026H23.1102H23.1178H23.1253H23.1329H23.1405H23.1481H23.1556H23.1632H23.1707H23.1782H23.1858H23.1933H23.2008H23.2083H23.2158H23.2233H23.2308H23.2383H23.2458H23.2532H23.2607H23.2681H23.2756H23.283H23.2905H23.2979H23.3053H23.3128H23.3202H23.3276H23.335H23.3424H23.3498H23.3571H23.3645H23.3719H23.3793H23.3866H23.394H23.4014H23.4087H23.416H23.4234H23.4307H23.438H23.4454H23.4527H23.46H23.4673H23.4746H23.4819H23.4892H23.4965H23.5038H23.5111H23.5184H23.5256H23.5329H23.5402H23.5474H23.5547H23.5619H23.5692H23.5764H23.5837H23.5909H23.5982H23.6054H23.6126H23.6199H23.6271H23.6343H23.6415H23.6487H23.6559H23.6632H23.6704H23.6776H23.6848H23.692H23.6992H23.7063H23.7135H23.7207H23.7279H23.7351H23.7423H23.7494H23.7566H23.7638H23.771H23.7781H23.7853H23.7925H23.7996H23.8068H23.814H23.8211H23.8283H23.8354H23.8426H23.8497H23.8569H23.864H23.8712H23.8783H23.8855H23.8926H23.8998H23.9069H23.9141H23.9212H23.9283H23.9355H23.9426H23.9498H23.9569H23.9641H23.9712H23.9783H23.9855H23.9926H23.9998H24.0069H24.014H24.0212H24.0283H24.0354H24.0426H24.0497H24.0569H24.064H24.0712H24.0783H24.0854H24.0926H24.0997H24.1069H24.114H24.1212H24.1283H24.1355H24.1426H24.1498H24.1569H24.1641H24.1712H24.1784H24.1856H24.1927H24.1999H24.207H24.2142H24.2214H24.2285H24.2357H24.2429H24.2501H24.2572H24.2644H24.2716H24.2788H24.286H24.2932H24.3004H24.3076H24.3148H24.322H24.3292H24.3364H24.3436H24.3508H24.358H24.3652H24.3724H24.3797H24.3869H24.3941H24.4014H24.4086H24.4158H24.4231H24.4303H24.4376H24.4448H24.4521H24.4594H24.4666H24.4739H24.4812H24.4885H24.4957H24.503H24.5103H24.5176H24.5249H24.5322H24.5395H24.5469H24.5542H24.5615H24.5688H24.5762H24.5835H24.5909H24.5982H24.6056H24.6129H24.6203H24.6277H24.635H24.6424H24.6498H24.6572H24.6646H24.672H24.6794H24.6868H24.6942H24.7017H24.7091H24.7165H24.724H24.7314H24.7389H24.7464H24.7538H24.7613H24.7688H24.7763H24.7838H24.7913H24.7988H24.8063H24.8138H24.8214H24.8289H24.8364H24.844H24.8515H24.8591H24.8667H24.8743H24.8819H24.8894H24.897H24.9047H24.9123H24.9199H24.9275H24.9352H24.9428H24.9505H24.9581H24.9658H24.9735H24.9812H24.9889H24.9966H25.0043H25.012H25.0198H25.0275H25.0353H25.043H25.0508H25.0586H25.0663H25.0741H25.0819H25.0897H25.0976H25.1054H25.1132H25.1211H25.1289H25.1368H25.1447H25.1526H25.1605H25.1684H25.1763H25.1842H25.1921H25.2001H25.208H25.216H25.224H25.232H25.24H25.248H25.256H25.264H25.272H25.2801H25.2881H25.2962H25.3043H25.3124H25.3205H25.3286H25.3367H25.3448H25.353H25.3611H25.3693H25.3775H25.3857H25.3939H25.4021H25.4103H25.4186H25.4268H25.4351H25.4433H25.4516H25.4599H25.4682H25.4765H25.4849H25.4932H25.5016H25.5099H25.5183H25.5267H25.5351H25.5435H25.552H25.5604H25.5689H25.5773H25.5858H25.5943H25.6028H25.6113H25.6199H25.6284H25.637H25.6455H25.6541H25.6627H25.6713H25.68H25.6886H25.6972H25.7059H25.7146H25.7233H25.732H25.7407H25.7495H25.7582H25.767H25.7757H25.7845H25.7933H25.8022H25.811H25.8199H25.8287H25.8376H25.8465H25.8554H25.8643H25.8733H25.8822H25.8912H25.9002H25.9092H25.9182H25.9272H25.9363H25.9453H25.9544H25.9635H25.9726H25.9817H25.9908H26H26.2595C26.99 15.5464 28.0757 15 29.2993 15H34H38H43V20H42V25C42 27.2091 40.2091 29 38 29H29.8707C27.8085 29 26.0843 27.4322 25.8887 25.3792L25.3173 19.3792C25.2854 19.0447 25.2956 18.7167 25.3432 18.4H25.3367H25.3286H25.3205H25.3124H25.3043H25.2962H25.2881H25.2801H25.272H25.264H25.256H25.248H25.24H25.232H25.224H25.216H25.208H25.2001H25.1921H25.1842H25.1763H25.1684H25.1605H25.1526H25.1447H25.1368H25.1289H25.1211H25.1132H25.1054H25.0976H25.0897H25.0819H25.0741H25.0663H25.0586H25.0508H25.043H25.0353H25.0275H25.0198H25.012H25.0043H24.9966H24.9889H24.9812H24.9735H24.9658H24.9581H24.9505H24.9428H24.9352H24.9275H24.9199H24.9123H24.9047H24.897H24.8894H24.8819H24.8743H24.8667H24.8591H24.8515H24.844H24.8364H24.8289H24.8214H24.8138H24.8063H24.7988H24.7913H24.7838H24.7763H24.7688H24.7613H24.7538H24.7464H24.7389H24.7314H24.724H24.7165H24.7091H24.7017H24.6942H24.6868H24.6794H24.672H24.6646H24.6572H24.6498H24.6424H24.635H24.6277H24.6203H24.6129H24.6056H24.5982H24.5909H24.5835H24.5762H24.5688H24.5615H24.5542H24.5469H24.5395H24.5322H24.5249H24.5176H24.5103H24.503H24.4957H24.4885H24.4812H24.4739H24.4666H24.4594H24.4521H24.4448H24.4376H24.4303H24.4231H24.4158H24.4086H24.4014H24.3941H24.3869H24.3797H24.3724H24.3652H24.358H24.3508H24.3436H24.3364H24.3292H24.322H24.3148H24.3076H24.3004H24.2932H24.286H24.2788H24.2716H24.2644H24.2572H24.2501H24.2429H24.2357H24.2285H24.2214H24.2142H24.207H24.1999H24.1927H24.1856H24.1784H24.1712H24.1641H24.1569H24.1498H24.1426H24.1355H24.1283H24.1212H24.114H24.1069H24.0997H24.0926H24.0854H24.0783H24.0712H24.064H24.0569H24.0497H24.0426H24.0354H24.0283H24.0212H24.014H24.0069H23.9998H23.9926H23.9855H23.9783H23.9712H23.9641H23.9569H23.9498H23.9426H23.9355H23.9283H23.9212H23.9141H23.9069H23.8998H23.8926H23.8855H23.8783H23.8712H23.864H23.8569H23.8497H23.8426H23.8354H23.8283H23.8211H23.814H23.8068H23.7996H23.7925H23.7853H23.7781H23.771H23.7638H23.7566H23.7494H23.7423H23.7351H23.7279H23.7207H23.7135H23.7063H23.6992H23.692H23.6848H23.6776H23.6704H23.6632H23.6559H23.6487H23.6415H23.6343H23.6271H23.6199H23.6126H23.6054H23.5982H23.5909H23.5837H23.5764H23.5692H23.5619H23.5547H23.5474H23.5402H23.5329H23.5256H23.5184H23.5111H23.5038H23.4965H23.4892H23.4819H23.4746H23.4673H23.46H23.4527H23.4454H23.438H23.4307H23.4234H23.416H23.4087H23.4014H23.394H23.3866H23.3793H23.3719H23.3645H23.3571H23.3498H23.3424H23.335H23.3276H23.3202H23.3128H23.3053H23.2979H23.2905H23.283H23.2756H23.2681H23.2607H23.2532H23.2458H23.2383H23.2308H23.2233H23.2158H23.2083H23.2008H23.1933H23.1858H23.1782H23.1707H23.1632H23.1556H23.1481H23.1405H23.1329H23.1253H23.1178H23.1102H23.1026H23.095H23.0873H23.0797H23.0721H23.0645H23.0568H23.0491H23.0415H23.0338H23.0261H23.0184H23.0108H23.003H22.9953H22.9876H22.9799H22.9721H22.9644H22.9566H22.9489H22.9411H22.9333H22.9255H22.9177H22.9099H22.9021H22.8943H22.8864H22.8786H22.8707H22.8629H22.855H22.8471H22.8392H22.8313H22.8234H22.8155H22.8076H22.7996H22.7917H22.7837H22.7757H22.7678H22.7598H22.7518H22.7437H22.7357H22.7277H22.7196H22.7116H22.7035H22.6954H22.6874H22.6793H22.6712H22.663H22.6568ZM17 21.5C17 22.8807 16.1046 24 15 24C13.8954 24 13 22.8807 13 21.5C13 20.1193 13.8954 19 15 19C16.1046 19 17 20.1193 17 21.5ZM33 24C34.1046 24 35 22.8807 35 21.5C35 20.1193 34.1046 19 33 19C31.8954 19 31 20.1193 31 21.5C31 22.8807 31.8954 24 33 24ZM29.937 32.1507C30.1299 32.6682 29.8668 33.2441 29.3493 33.437C27.2297 34.2271 25.5005 34.704 23.7976 34.7251C22.0708 34.7465 20.4618 34.2993 18.5718 33.4037C18.0727 33.1672 17.8598 32.5708 18.0963 32.0718C18.3328 31.5727 18.9292 31.3598 19.4282 31.5963C21.145 32.4099 22.4463 32.7417 23.7729 32.7253C25.1234 32.7086 26.5908 32.3309 28.6507 31.563C29.1682 31.3701 29.7441 31.6332 29.937 32.1507ZM8 19C8 17.8954 8.89543 17 10 17H18.7007C19.8802 17 20.8035 18.0154 20.6917 19.1896L20.1203 25.1896C20.0225 26.2161 19.1604 27 18.1293 27H10C8.89543 27 8 26.1046 8 25V19ZM29.2993 17C28.1198 17 27.1965 18.0154 27.3083 19.1896L27.8797 25.1896C27.9775 26.2161 28.8396 27 29.8707 27H38C39.1046 27 40 26.1046 40 25V19C40 17.8954 39.1046 17 38 17H29.2993Z" fill="#333333"/>
</svg>
