<svg width="48" height="48" viewBox="0 0 48 48" fill="none" xmlns="http://www.w3.org/2000/svg">
<path fill-rule="evenodd" clip-rule="evenodd" d="M48 0H0V48H48V0ZM40 24C40 32.8366 32.8366 40 24 40C15.1634 40 8 32.8366 8 24C8 15.1634 15.1634 8 24 8C32.8366 8 40 15.1634 40 24ZM42 24C42 33.9411 33.9411 42 24 42C14.0589 42 6 33.9411 6 24C6 14.0589 14.0589 6 24 6C33.9411 6 42 14.0589 42 24ZM14 31.5C14 29.0147 16.0147 27 18.5 27H29.5C31.9853 27 34 29.0147 34 31.5C34 33.9853 31.9853 36 29.5 36H18.5C16.0147 36 14 33.9853 14 31.5ZM20 21C20 23.2091 18.8807 25 17.5 25C16.1193 25 15 23.2091 15 21C15 18.7909 16.1193 17 17.5 17C18.8807 17 20 18.7909 20 21ZM33 21C33 23.2091 31.8807 25 30.5 25C29.1193 25 28 23.2091 28 21C28 18.7909 29.1193 17 30.5 17C31.8807 17 33 18.7909 33 21Z" fill="#333333"/>
<rect x="17" y="32" width="14" height="2" rx="1" fill="#333333"/>
<rect x="17" y="29" width="14" height="2" rx="1" fill="#333333"/>
</svg>
