<svg width="48" height="48" viewBox="0 0 48 48" fill="none" xmlns="http://www.w3.org/2000/svg">
<path fill-rule="evenodd" clip-rule="evenodd" d="M0 0H48V48H0V0ZM24 40C32.8366 40 40 32.8366 40 24C40 15.1634 32.8366 8 24 8C15.1634 8 8 15.1634 8 24C8 32.8366 15.1634 40 24 40ZM24 42C33.9411 42 42 33.9411 42 24C42 14.0589 33.9411 6 24 6C14.0589 6 6 14.0589 6 24C6 33.9411 14.0589 42 24 42ZM21.2857 21.9149C21.3934 22.3134 21.4323 22.7504 21.3023 23.1081C21.2512 23.2487 21.1398 23.3591 20.9986 23.4088C20.8575 23.4586 20.7016 23.4426 20.5735 23.3651C20.3119 23.2069 20.0523 23.0046 19.8085 22.8077C19.7422 22.7542 19.6772 22.7011 19.6129 22.6487C19.4325 22.5015 19.2584 22.3595 19.079 22.2252C18.5774 21.8499 18.1791 21.6523 17.8345 21.6692C17.4717 21.6869 17.0342 21.94 16.4719 22.3841C16.3135 22.5092 16.1435 22.6513 15.9669 22.7989L15.9668 22.799L15.9667 22.799C15.579 23.1232 15.1592 23.4741 14.7599 23.7305C14.6163 23.8227 14.4355 23.8353 14.2804 23.7638C14.1254 23.6923 14.0175 23.5467 13.9944 23.3775C13.9445 23.0129 14.0201 22.5567 14.1628 22.1111C14.3095 21.653 14.5432 21.1551 14.8578 20.6948C15.4778 19.7876 16.4842 18.9329 17.831 18.9894C19.1317 19.044 20.0947 19.8064 20.6753 20.6356C20.9666 21.0515 21.1734 21.4993 21.2857 21.9149ZM26.6299 21.9149C26.5222 22.3134 26.4833 22.7504 26.6133 23.1081C26.6644 23.2487 26.7758 23.3591 26.9169 23.4088C27.058 23.4586 27.214 23.4426 27.342 23.3651C27.6037 23.2069 27.8633 23.0046 28.1071 22.8077C28.1734 22.7542 28.2384 22.7011 28.3026 22.6487C28.483 22.5015 28.6571 22.3595 28.8365 22.2252C29.3381 21.8499 29.7365 21.6523 30.081 21.6692C30.4438 21.6869 30.8814 21.94 31.4437 22.3841C31.602 22.5091 31.7719 22.6511 31.9484 22.7987L31.9486 22.7989L31.9488 22.799L31.9489 22.7991C32.3367 23.1232 32.7564 23.4741 33.1557 23.7305C33.2993 23.8227 33.4801 23.8353 33.6352 23.7638C33.7902 23.6923 33.8981 23.5467 33.9212 23.3775C33.9711 23.0129 33.8954 22.5567 33.7527 22.1111C33.6061 21.653 33.3723 21.1551 33.0578 20.6948C32.4378 19.7876 31.4314 18.9329 30.0845 18.9894C28.7838 19.044 27.8209 19.8064 27.2403 20.6356C26.949 21.0515 26.7422 21.4993 26.6299 21.9149ZM30.3149 31.5543C30.6485 31.2071 30.9197 30.8276 31.0869 30.4337C31.2482 30.054 31.3536 29.5581 31.1841 29.0603C30.9954 28.5062 30.5448 28.1732 30.0487 28.0445C29.5915 27.9259 29.0876 27.9705 28.5945 28.0941L28.5811 28.0977C26.1852 28.7337 25.0121 28.997 23.8768 28.9918C22.7389 28.9867 21.5916 28.7128 19.2387 28.0993C18.7916 27.9729 18.3043 27.9186 17.8505 28.0547C17.3335 28.2098 16.9353 28.5965 16.7985 29.1374C16.6786 29.6112 16.7899 30.077 16.9496 30.4429C17.1161 30.8245 17.3774 31.1982 17.703 31.5454C18.9764 32.9037 21.2759 34 24.0132 34C26.7572 34 29.0224 32.8995 30.3149 31.5543Z" fill="#333333"/>
</svg>
