<svg width="48" height="48" viewBox="0 0 48 48" fill="none" xmlns="http://www.w3.org/2000/svg">
<path fill-rule="evenodd" clip-rule="evenodd" d="M48 0H0V48H48V0ZM40 24C40 32.8366 32.8366 40 24 40C15.1634 40 8 32.8366 8 24C8 15.1634 15.1634 8 24 8C32.8366 8 40 15.1634 40 24ZM42 24C42 33.9411 33.9411 42 24 42C14.0589 42 6 33.9411 6 24C6 14.0589 14.0589 6 24 6C33.9411 6 42 14.0589 42 24ZM33.2581 31C31.5382 27.4383 28.0381 25 24 25C19.9619 25 16.4618 27.4383 14.7419 31C14.273 31.9709 15.0582 33 16.1363 33H31.8637C32.9418 33 33.727 31.9709 33.2581 31ZM13.6311 20.3549C13.512 21.0926 14.0125 21.8001 14.6956 22.2376C15.4093 22.6947 16.4269 22.9446 17.6253 22.7677C18.8712 22.5838 19.7568 21.8925 20.2788 21.1023C20.7831 20.3389 20.9907 19.4094 20.759 18.7206C20.7046 18.5588 20.5713 18.4359 20.4056 18.3948C20.2399 18.3536 20.0647 18.3998 19.9409 18.5174C18.145 20.2222 16.117 20.6409 14.2987 19.9658C14.1585 19.9138 14.0022 19.9272 13.873 20.0026C13.7437 20.0779 13.6549 20.2072 13.6311 20.3549ZM33.7069 20.3549C33.826 21.0926 33.3255 21.8001 32.6425 22.2376C31.9287 22.6947 30.9111 22.9446 29.7127 22.7677C28.4668 22.5838 27.5813 21.8925 27.0593 21.1023C26.5549 20.3389 26.3473 19.4094 26.579 18.7206C26.6335 18.5588 26.7667 18.4359 26.9324 18.3948C27.0981 18.3536 27.2733 18.3998 27.3972 18.5174C29.1931 20.2222 31.221 20.6409 33.0393 19.9658C33.1796 19.9138 33.3358 19.9272 33.4651 20.0026C33.5943 20.0779 33.6831 20.2072 33.7069 20.3549Z" fill="#333333"/>
</svg>
