<svg width="48" height="48" viewBox="0 0 48 48" fill="none" xmlns="http://www.w3.org/2000/svg">
<path fill-rule="evenodd" clip-rule="evenodd" d="M48 0H0V48H48V0ZM24 40C28.1465 40 31.9246 38.4227 34.767 35.8353C35.4089 36.2147 36.1321 36.4646 36.9031 36.5503C33.6328 39.9119 29.0603 42 24 42C20.3879 42 17.0242 40.936 14.2054 39.1044C14.6911 38.6479 15.0971 38.1029 15.3994 37.4942C17.8832 39.0806 20.8342 40 24 40ZM42 24C42 24.8806 41.9368 25.7464 41.8146 26.5931C41.2816 25.5509 40.631 24.588 39.9983 23.7653C39.8728 15.0369 32.7582 8 24 8C15.1634 8 8 15.1634 8 24C8 25.1411 8.11946 26.2544 8.34656 27.3279C7.84761 27.9454 7.32113 28.6605 6.83719 29.4417C6.29336 27.7249 6 25.8967 6 24C6 14.0589 14.0589 6 24 6C33.9411 6 42 14.0589 42 24ZM41 30.7273C41 32.5348 39.433 34 37.5 34C35.567 34 34 32.5348 34 30.7273C34 27.8636 37.5 25 37.5 25C37.5 25 41 27.8636 41 30.7273ZM10.5 38C12.433 38 14 36.5348 14 34.7273C14 31.8636 10.5 29 10.5 29C10.5 29 7 31.8636 7 34.7273C7 36.5348 8.567 38 10.5 38ZM31.4065 33C30.0305 29.4383 27.2304 27 24 27C20.7695 27 17.9694 29.4383 16.5935 33C16.2061 34.0028 17.0133 35 18.0883 35L29.9116 35C30.9866 35 31.7939 34.0028 31.4065 33ZM13.6311 20.3549C13.512 21.0926 14.0125 21.8001 14.6956 22.2376C15.4093 22.6947 16.4269 22.9446 17.6253 22.7677C18.8712 22.5838 19.7568 21.8925 20.2788 21.1023C20.7831 20.3389 20.9907 19.4094 20.759 18.7206C20.7046 18.5588 20.5713 18.4359 20.4056 18.3948C20.2399 18.3536 20.0647 18.3998 19.9409 18.5174C18.145 20.2222 16.117 20.6409 14.2987 19.9658C14.1585 19.9138 14.0022 19.9272 13.873 20.0026C13.7437 20.0779 13.6549 20.2072 13.6311 20.3549ZM33.7069 20.3549C33.826 21.0926 33.3255 21.8001 32.6425 22.2376C31.9287 22.6947 30.9111 22.9446 29.7127 22.7677C28.4668 22.5838 27.5813 21.8925 27.0593 21.1023C26.5549 20.3389 26.3473 19.4094 26.579 18.7206C26.6335 18.5588 26.7667 18.4359 26.9324 18.3948C27.0981 18.3536 27.2733 18.3998 27.3972 18.5174C29.1931 20.2222 31.221 20.6409 33.0393 19.9658C33.1796 19.9138 33.3358 19.9272 33.4651 20.0026C33.5943 20.0779 33.6831 20.2072 33.7069 20.3549Z" fill="#333333"/>
</svg>
