<svg width="48" height="48" viewBox="0 0 48 48" fill="none" xmlns="http://www.w3.org/2000/svg">
<path d="M6.90912 14.7689L15.0909 17.109V37.0002L6.90912 34.6601V14.7689Z" fill="#333333"/>
<path fill-rule="evenodd" clip-rule="evenodd" d="M6 32.8396V13.1221H8V32.8396C8 33.5246 8.58477 34.3096 10.1955 34.9774C11.7307 35.6139 13.8455 35.9741 16.0114 35.9988C18.179 36.0235 20.2859 35.711 21.8105 35.0905C23.3821 34.4509 24 33.6481 24 32.8396H26C26 34.9065 24.3679 36.209 22.5645 36.9429C20.7141 37.696 18.321 38.0253 15.9886 37.9986C13.6545 37.972 11.2693 37.5877 9.42952 36.8249C7.66523 36.0935 6 34.8246 6 32.8396ZM24 20V13.1221H26V20H24Z" fill="#333333"/>
<path fill-rule="evenodd" clip-rule="evenodd" d="M22.1766 14.7467C23.7737 13.9482 24 13.2151 24 13C24 12.7849 23.7737 12.0518 22.1766 11.2533C20.6992 10.5146 18.5183 10 16 10C13.4817 10 11.3008 10.5146 9.82336 11.2533C8.22632 12.0518 8 12.7849 8 13C8 13.2151 8.22632 13.9482 9.82336 14.7467C11.3008 15.4854 13.4817 16 16 16C18.5183 16 20.6992 15.4854 22.1766 14.7467ZM16 18C21.5228 18 26 15.7614 26 13C26 10.2386 21.5228 8 16 8C10.4772 8 6 10.2386 6 13C6 15.7614 10.4772 18 16 18Z" fill="#333333"/>
<path fill-rule="evenodd" clip-rule="evenodd" d="M39.356 31.5168C38.9558 35.3206 37.865 38.3118 34.8998 40.0594C31.5327 42.0438 26.6951 42.6429 22.7287 42.1435C20.7381 41.8929 18.8728 41.3549 17.4738 40.4998C16.072 39.643 15 38.3674 15 36.6607H17C17 37.4095 17.4462 38.1389 18.5169 38.7934C19.5904 39.4496 21.1519 39.9292 22.9785 40.1592C26.6466 40.621 31.0049 40.0334 33.8843 38.3364C36.027 37.0735 36.9902 34.8886 37.367 31.3076C37.6332 28.7779 37.5925 25.7353 37.5437 22.0842C37.5226 20.5058 37.5 18.8136 37.5 17H39.5C39.5 18.7197 39.5219 20.3597 39.5426 21.9138C39.5922 25.6347 39.6352 28.8635 39.356 31.5168Z" fill="#333333"/>
<path fill-rule="evenodd" clip-rule="evenodd" d="M25 33C28.866 33 32 29.866 32 26C32 22.134 28.866 19 25 19C21.134 19 18 22.134 18 26C18 29.866 21.134 33 25 33ZM25 21.5L23.5 26.5L25 28.5L26.5 26.5L25 21.5Z" fill="#333333"/>
<path fill-rule="evenodd" clip-rule="evenodd" d="M21.2942 26.8923L22.9274 21.4485C21.2004 22.2362 20 23.9779 20 26C20 28.5387 21.892 30.6355 24.3429 30.9572L21.2942 26.8923ZM25.6571 30.9572C28.108 30.6355 30 28.5387 30 26C30 23.9779 28.7996 22.2362 27.0726 21.4485L28.7058 26.8923L25.6571 30.9572ZM26.3788 19.1358C29.5845 19.7761 32 22.606 32 26C32 29.866 28.866 33 25 33C21.134 33 18 29.866 18 26C18 22.606 20.4155 19.7761 23.6212 19.1358C24.067 19.0467 24.528 19 25 19C25.472 19 25.933 19.0467 26.3788 19.1358ZM25 28.5L23.5 26.5L25 21.5L26.5 26.5L25 28.5Z" fill="#333333"/>
<path d="M35 9.5C35 7.567 36.567 6 38.5 6C40.433 6 42 7.567 42 9.5V15.5C42 17.433 40.433 19 38.5 19C36.567 19 35 17.433 35 15.5V9.5Z" fill="#333333"/>
<path fill-rule="evenodd" clip-rule="evenodd" d="M40 15.5V9.5C40 8.67157 39.3284 8 38.5 8C37.6716 8 37 8.67157 37 9.5V15.5C37 16.3284 37.6716 17 38.5 17C39.3284 17 40 16.3284 40 15.5ZM38.5 6C36.567 6 35 7.567 35 9.5V15.5C35 17.433 36.567 19 38.5 19C40.433 19 42 17.433 42 15.5V9.5C42 7.567 40.433 6 38.5 6Z" fill="#333333"/>
</svg>
