<svg width="48" height="48" viewBox="0 0 48 48" fill="none" xmlns="http://www.w3.org/2000/svg">
<path fill-rule="evenodd" clip-rule="evenodd" d="M33.5413 25.015L34 24.5527C34 24.5527 28.3999 10.7237 15.1636 24.0659L6 33.3026V41.9999L16.6909 42L23.4852 35.1514C22.6623 33.861 22.3429 32.495 22.4572 31.162C22.6165 29.3037 23.6067 27.639 24.9803 26.4328C27.1664 24.513 30.5329 23.6059 33.5413 25.015ZM32.0009 26.5678C29.986 25.9493 27.8305 26.5915 26.3 27.9356C25.2369 28.8691 24.557 30.0829 24.4499 31.3328C24.3866 32.0708 24.5185 32.8687 24.9428 33.6821L32.0009 26.5678Z" fill="#333333"/>
<path fill-rule="evenodd" clip-rule="evenodd" d="M33.1041 9.11164C33.1041 9.11164 33.1012 9.11677 33.0921 9.12679C33.099 9.11662 33.1041 9.11164 33.1041 9.11164ZM32.5603 9.5C32.2332 9.32063 31.7757 9.12313 31.1718 8.93098C29.4259 8.37548 26.89 8 24 8C21.11 8 18.5741 8.37548 16.8282 8.93098C16.2243 9.12313 15.7668 9.32063 15.4397 9.5C15.7668 9.67937 16.2243 9.87687 16.8282 10.069C18.5741 10.6245 21.11 11 24 11C26.89 11 29.4259 10.6245 31.1718 10.069C31.7757 9.87687 32.2332 9.67938 32.5603 9.5ZM14.8959 9.11164C14.8959 9.11164 14.901 9.11662 14.9079 9.1268C14.8988 9.11676 14.8959 9.11164 14.8959 9.11164ZM14.8959 9.88836C14.8959 9.88836 14.8988 9.88324 14.9079 9.8732C14.901 9.88338 14.8959 9.88836 14.8959 9.88836ZM33.0921 9.87321C33.1012 9.88324 33.1041 9.88836 33.1041 9.88836C33.1041 9.88836 33.099 9.88339 33.0921 9.87321ZM24 13C30.0751 13 35 11.433 35 9.5C35 7.567 30.0751 6 24 6C17.9249 6 13 7.567 13 9.5C13 11.433 17.9249 13 24 13Z" fill="#333333"/>
<path fill-rule="evenodd" clip-rule="evenodd" d="M15 9.19995C15 12.8692 18.8097 16.2 24 16.2C29.1903 16.2 33 12.8692 33 9.19995H35C35 14.3672 29.8554 18.2 24 18.2C18.1446 18.2 13 14.3672 13 9.19995H15Z" fill="#333333"/>
</svg>
