<svg width="48" height="48" viewBox="0 0 48 48" fill="none" xmlns="http://www.w3.org/2000/svg">
<path fill-rule="evenodd" clip-rule="evenodd" d="M24 23C26.7254 23 29.1962 22.4548 31 21.5707V40.9999H17V21.5707C18.8037 22.4548 21.2745 23 24 23ZM28 28.9999C24.7953 29.6107 23.031 29.6291 20 28.9999V35.1647C23.0938 36.0653 24.8815 36.1654 28 35.1647V28.9999Z" fill="#333333"/>
<path fill-rule="evenodd" clip-rule="evenodd" d="M19.0908 15.8614L20.1111 19H27.8889L29.0163 15.9076C30.2439 16.448 31 17.1861 31 18C31 19.6568 27.866 21 24 21C20.134 21 17 19.6568 17 18C17 17.1627 17.8002 16.4056 19.0908 15.8614Z" fill="#333333"/>
<path fill-rule="evenodd" clip-rule="evenodd" d="M29.0667 6.07044C27.3791 5.68513 25.4822 5.73251 23.9872 7.0926C21.84 9.0459 19.6278 9.07065 17.982 8.56638C17.9019 8.54182 17.8231 8.51607 17.7459 8.48931L20.8375 18H27.1891L31.2602 6.83385C31.2301 6.81974 31.1991 6.80542 31.1674 6.79091C30.6367 6.5484 29.9001 6.26073 29.0667 6.07044ZM32.5 6.35289L33.0205 5.49905C33.4274 5.74709 33.6027 6.24775 33.4395 6.69543L28.8284 19.3425C28.6844 19.7373 28.3091 20 27.8889 20H20.1111C19.6779 20 19.294 19.7211 19.1601 19.3091L15.049 6.66203C14.9083 6.22929 15.0775 5.75614 15.4607 5.51076C15.8428 5.26609 16.3415 5.30938 16.6757 5.61576L16.6774 5.61726M16.6757 5.61576L16.6774 5.61726L16.6954 5.63304C16.7139 5.64907 16.745 5.67535 16.7878 5.70955C16.8735 5.77813 17.0047 5.87741 17.1745 5.98924C17.5174 6.21504 17.9994 6.47994 18.5679 6.65414C19.6579 6.98811 21.1028 7.01286 22.6413 5.61318C24.832 3.62029 27.528 3.66767 29.5118 4.12061C30.5141 4.34944 31.3829 4.69045 31.9986 4.97185C32.308 5.11321 32.5572 5.24125 32.7317 5.33555C32.8191 5.38274 32.888 5.42163 32.9367 5.44969C32.9611 5.46372 32.9804 5.47506 32.9944 5.48338L33.0115 5.49358L33.017 5.49692L33.019 5.49814L33.0205 5.49905C33.0209 5.49926 33.0205 5.49905 32.5 6.35289" fill="#333333"/>
<path d="M31 40.9999C31 42.6568 27.866 44 24 44C20.134 44 17 42.6568 17 40.9999C17 39.3431 20.134 38 24 38C27.866 38 31 39.3431 31 40.9999Z" fill="#333333"/>
<path fill-rule="evenodd" clip-rule="evenodd" d="M27.8846 8.57687C28.3944 8.78929 28.6355 9.37476 28.423 9.88457L25.923 15.8846C25.7106 16.3944 25.1252 16.6354 24.6154 16.423C24.1056 16.2106 23.8645 15.6251 24.0769 15.1153L26.5769 9.11533C26.7893 8.60553 27.3748 8.36446 27.8846 8.57687Z" fill="#333333"/>
</svg>
