<svg width="48" height="48" viewBox="0 0 48 48" fill="none" xmlns="http://www.w3.org/2000/svg">
<path fill-rule="evenodd" clip-rule="evenodd" d="M14 29L14 18H16L16 29H14Z" fill="#333333"/>
<path d="M14.1878 10.5263C14.5488 9.82456 15.4512 9.82456 15.8122 10.5263L19.873 18.4211C20.2339 19.1228 19.7827 20 19.0608 20H10.9392C10.2173 20 9.76608 19.1228 10.127 18.4211L14.1878 10.5263Z" fill="#333333"/>
<path fill-rule="evenodd" clip-rule="evenodd" d="M15 13.3199L12.5927 18H17.4073L15 13.3199ZM15.8122 10.5263C15.4512 9.82456 14.5488 9.82456 14.1878 10.5263L10.127 18.4211C9.76608 19.1228 10.2173 20 10.9392 20H19.0608C19.7827 20 20.2339 19.1228 19.873 18.4211L15.8122 10.5263Z" fill="#333333"/>
<path fill-rule="evenodd" clip-rule="evenodd" d="M25 29.7546V9.35714C25 6.39847 27.2386 4 30 4C32.7614 4 35 6.39847 35 9.35714V29.7546C36.8289 31.2208 38 33.4736 38 36C38 40.4183 34.4183 44 30 44C25.5817 44 22 40.4183 22 36C22 33.4736 23.1711 31.2208 25 29.7546ZM28.9824 21.4212C30.1778 21.7313 31.5429 22.0854 33 22.061V19.976H31C30.4477 19.976 30 19.5282 30 18.976C30 18.4237 30.4477 17.976 31 17.976H33V15.976H31C30.4477 15.976 30 15.5282 30 14.976C30 14.4237 30.4477 13.976 31 13.976H33V11.976H31C30.4477 11.976 30 11.5282 30 10.976C30 10.4237 30.4477 9.97595 31 9.97595H33V9.35714C33 7.58194 31.6569 6.14286 30 6.14286C28.3431 6.14286 27 7.58194 27 9.35714V20.9986C27.5858 21.0589 28.2524 21.2319 28.9824 21.4212Z" fill="#333333"/>
</svg>
