<svg width="48" height="48" viewBox="0 0 48 48" fill="none" xmlns="http://www.w3.org/2000/svg">
<path d="M29 12C29 13.6569 26.7614 15 24 15C21.2386 15 19 13.6569 19 12C19 10.3431 21.2386 9 24 9C26.7614 9 29 10.3431 29 12Z" fill="#333333"/>
<path fill-rule="evenodd" clip-rule="evenodd" d="M25 6V11H23V6L25 6Z" fill="#333333"/>
<path fill-rule="evenodd" clip-rule="evenodd" d="M20.3162 12.5513C20.8401 12.726 21.1233 13.2923 20.9487 13.8162L19.9487 16.8162C19.774 17.3402 19.2077 17.6233 18.6837 17.4487C18.1598 17.274 17.8766 16.7077 18.0513 16.1838L19.0513 13.1838C19.2259 12.6598 19.7923 12.3767 20.3162 12.5513Z" fill="#333333"/>
<path fill-rule="evenodd" clip-rule="evenodd" d="M17.2227 18.578C17.634 18.9466 17.6686 19.5788 17.3 19.9901L15.1893 22.3449C14.8207 22.7562 14.1885 22.7907 13.7772 22.4221C13.3659 22.0535 13.3314 21.4213 13.7 21.01L15.8106 18.6552C16.1793 18.2439 16.8115 18.2094 17.2227 18.578Z" fill="#333333"/>
<path fill-rule="evenodd" clip-rule="evenodd" d="M11.8944 23.0528C12.1414 23.5468 11.9412 24.1474 11.4472 24.3944L9.99997 25.118V27.5C9.99997 28.0523 9.55226 28.5 8.99997 28.5C8.44769 28.5 7.99997 28.0523 7.99997 27.5V23.882L10.5528 22.6056C11.0467 22.3586 11.6474 22.5588 11.8944 23.0528Z" fill="#333333"/>
<path fill-rule="evenodd" clip-rule="evenodd" d="M6.10555 41.9472C5.85856 41.4532 6.05878 40.8526 6.55276 40.6056L7.99998 39.882L7.99998 37.5C7.99998 36.9477 8.44769 36.5 8.99998 36.5C9.55226 36.5 9.99998 36.9477 9.99998 37.5V41.118L7.44719 42.3944C6.95321 42.6414 6.35254 42.4412 6.10555 41.9472Z" fill="#333333"/>
<path fill-rule="evenodd" clip-rule="evenodd" d="M8.99997 30C9.55226 30 9.99997 30.4477 9.99997 31V34C9.99997 34.5523 9.55226 35 8.99997 35C8.44769 35 7.99997 34.5523 7.99997 34V31C7.99997 30.4477 8.44769 30 8.99997 30Z" fill="#333333"/>
<path fill-rule="evenodd" clip-rule="evenodd" d="M27.6838 12.5513C27.1598 12.726 26.8766 13.2923 27.0513 13.8162L28.0513 16.8162C28.2259 17.3402 28.7923 17.6233 29.3162 17.4487C29.8401 17.274 30.1233 16.7077 29.9487 16.1838L28.9487 13.1838C28.774 12.6598 28.2077 12.3767 27.6838 12.5513Z" fill="#333333"/>
<path fill-rule="evenodd" clip-rule="evenodd" d="M30.7772 18.578C30.3659 18.9466 30.3314 19.5788 30.7 19.9901L32.8106 22.3449C33.1793 22.7562 33.8115 22.7907 34.2228 22.4221C34.634 22.0535 34.6686 21.4213 34.3 21.01L32.1893 18.6552C31.8207 18.2439 31.1885 18.2094 30.7772 18.578Z" fill="#333333"/>
<path fill-rule="evenodd" clip-rule="evenodd" d="M36.1056 23.0528C35.8586 23.5468 36.0588 24.1474 36.5528 24.3944L38 25.118V27.5C38 28.0523 38.4477 28.5 39 28.5C39.5523 28.5 40 28.0523 40 27.5V23.882L37.4472 22.6056C36.9532 22.3586 36.3525 22.5588 36.1056 23.0528Z" fill="#333333"/>
<path fill-rule="evenodd" clip-rule="evenodd" d="M41.8944 41.9472C42.1414 41.4532 41.9412 40.8526 41.4472 40.6056L40 39.882V37.5C40 36.9477 39.5523 36.5 39 36.5C38.4477 36.5 38 36.9477 38 37.5V41.118L40.5528 42.3944C41.0467 42.6414 41.6474 42.4412 41.8944 41.9472Z" fill="#333333"/>
<path fill-rule="evenodd" clip-rule="evenodd" d="M39 30C38.4477 30 38 30.4477 38 31V34C38 34.5523 38.4477 35 39 35C39.5523 35 40 34.5523 40 34V31C40 30.4477 39.5523 30 39 30Z" fill="#333333"/>
<path fill-rule="evenodd" clip-rule="evenodd" d="M16 42L16 27H18L18 42H16Z" fill="#333333"/>
<path fill-rule="evenodd" clip-rule="evenodd" d="M31 38H17V36H33V42H31V38Z" fill="#333333"/>
<path fill-rule="evenodd" clip-rule="evenodd" d="M18.5 33.5C18.5 32.6716 19.1715 32 20 32H32C32.8284 32 33.5 32.6716 33.5 33.5C33.5 34.3284 32.8284 35 32 35H20C19.1715 35 18.5 34.3284 18.5 33.5Z" fill="#333333"/>
</svg>
