<svg width="48" height="48" viewBox="0 0 48 48" fill="none" xmlns="http://www.w3.org/2000/svg">
<path fill-rule="evenodd" clip-rule="evenodd" d="M13 17H25C25.8885 17 26.6868 17.3863 27.2361 18H29.584C28.8124 16.2341 27.0503 15 25 15H13C10.2386 15 8 17.2386 8 20V37C8 39.7614 10.2386 42 13 42H25C27.0503 42 28.8124 40.7659 29.584 39H27.2361C26.6868 39.6137 25.8885 40 25 40H13C11.3431 40 10 38.6569 10 37V20C10 18.3431 11.3431 17 13 17Z" fill="#333333"/>
<path fill-rule="evenodd" clip-rule="evenodd" d="M24 8H14V15H24V8ZM14 6C12.8954 6 12 6.89543 12 8V17H26V8C26 6.89543 25.1046 6 24 6H14Z" fill="#333333"/>
<path fill-rule="evenodd" clip-rule="evenodd" d="M40 25.9984C40.006 28.7934 39.0674 31.5067 37.3397 33.6892C35.612 35.8717 33.1987 37.3926 30.4992 38C27.8 37.3922 25.3871 35.8713 23.6597 33.6888C21.9323 31.5063 20.994 28.7932 21 25.9984V22.3997C21 21.7632 21.2502 21.1529 21.6955 20.7028C22.1408 20.2528 22.7447 20 23.3744 20H37.6256C38.2553 20 38.8592 20.2528 39.3045 20.7028C39.7498 21.1529 40 21.7632 40 22.3997V25.9984ZM31 24C31.5523 24 32 24.4477 32 25V27H34C34.5523 27 35 27.4477 35 28C35 28.5523 34.5523 29 34 29H32V31C32 31.5523 31.5523 32 31 32C30.4477 32 30 31.5523 30 31V29H28C27.4477 29 27 28.5523 27 28C27 27.4477 27.4477 27 28 27H30V25C30 24.4477 30.4477 24 31 24Z" fill="#333333"/>
<path fill-rule="evenodd" clip-rule="evenodd" d="M9 24C9 23.4477 9.44772 23 10 23H18C18.5523 23 19 23.4477 19 24C19 24.5523 18.5523 25 18 25H10C9.44772 25 9 24.5523 9 24Z" fill="#333333"/>
<path fill-rule="evenodd" clip-rule="evenodd" d="M9 35C9 34.4477 9.44772 34 10 34H20C20.5523 34 21 34.4477 21 35C21 35.5523 20.5523 36 20 36H10C9.44772 36 9 35.5523 9 35Z" fill="#333333"/>
</svg>
