<svg width="48" height="48" viewBox="0 0 48 48" fill="none" xmlns="http://www.w3.org/2000/svg">
<path d="M27.1623 39.9459L30 39V27H18V39L20.8377 39.9459C22.8904 40.6301 25.1096 40.6301 27.1623 39.9459Z" fill="#333333"/>
<path fill-rule="evenodd" clip-rule="evenodd" d="M17 26H31V39.7207L27.4785 40.8945C25.2206 41.6472 22.7794 41.6472 20.5215 40.8945L17 39.7207V26ZM19 28V38.2792L21.1539 38.9972C23.0014 39.613 24.9986 39.613 26.8461 38.9972L29 38.2792V28H19Z" fill="#333333"/>
<path fill-rule="evenodd" clip-rule="evenodd" d="M19.4279 7.02681C16.3825 7.31488 14 9.87915 14 12.9999V24.9999C14 26.1045 14.8954 26.9999 16 26.9999L18 27H30L32 26.9999C33.1046 26.9999 34 26.1045 34 24.9999V12.9999C34 9.87915 31.6175 7.31488 28.5721 7.02681C27.7945 8.77836 26.0399 9.99996 24 9.99996C21.9601 9.99996 20.2055 8.77836 19.4279 7.02681ZM19 23V25H29V23H19Z" fill="#333333"/>
<path fill-rule="evenodd" clip-rule="evenodd" d="M20.0499 5.9635L20.3418 6.62104C20.9649 8.02442 22.3696 8.99996 24 8.99996C25.6304 8.99996 27.0351 8.02442 27.6582 6.62104L27.9501 5.9635L28.6663 6.03125C32.2203 6.36744 35 9.35845 35 12.9999V24.9999C35 26.6567 33.6569 27.9999 32 27.9999H16C14.3431 27.9999 13 26.6567 13 24.9999V12.9999C13 9.35845 15.7797 6.36744 19.3337 6.03125L20.0499 5.9635ZM18.878 8.12609C16.6572 8.63504 15 10.6244 15 12.9999V24.9999C15 25.5522 15.4477 25.9999 16 25.9999H32C32.5523 25.9999 33 25.5522 33 24.9999V12.9999C33 10.6244 31.3428 8.63504 29.122 8.12609C28.0686 9.84843 26.1697 11 24 11C21.8303 11 19.9313 9.84843 18.878 8.12609Z" fill="#333333"/>
</svg>
