<svg width="48" height="48" viewBox="0 0 48 48" fill="none" xmlns="http://www.w3.org/2000/svg">
<path fill-rule="evenodd" clip-rule="evenodd" d="M18 8C18 5.79086 19.7909 4 22 4H26C28.2091 4 30 5.79086 30 8V14.4167H31C33.2091 14.4167 35 16.2075 35 18.4167V29H13V18.4167C13 16.2075 14.7909 14.4167 17 14.4167H18V8ZM17.4001 23.7917H22.8999V14.4167H25.0999V23.7917H30.6001V25.875H17.4001V23.7917ZM28 7H20V9C20 10.1046 20.8954 11 22 11H26C27.1046 11 28 10.1046 28 9V7Z" fill="#333333"/>
<path d="M18 29H22V41C22 42.1046 21.1046 43 20 43C18.8954 43 18 42.1046 18 41V29Z" fill="#333333"/>
<path fill-rule="evenodd" clip-rule="evenodd" d="M17 28H23V41C23 42.6569 21.6569 44 20 44C18.3431 44 17 42.6569 17 41V28ZM19 30V41C19 41.5523 19.4477 42 20 42C20.5523 42 21 41.5523 21 41V30H19Z" fill="#333333"/>
<path d="M26 29H30V41C30 42.1046 29.1046 43 28 43C26.8954 43 26 42.1046 26 41V29Z" fill="#333333"/>
<path fill-rule="evenodd" clip-rule="evenodd" d="M25 28H31V41C31 42.6569 29.6569 44 28 44C26.3431 44 25 42.6569 25 41V28ZM27 30V41C27 41.5523 27.4477 42 28 42C28.5523 42 29 41.5523 29 41V30H27Z" fill="#333333"/>
<path fill-rule="evenodd" clip-rule="evenodd" d="M13 28H19V31C19 32.6569 17.6569 34 16 34C14.3431 34 13 32.6569 13 31V28ZM15 30V31C15 31.5523 15.4477 32 16 32C16.5523 32 17 31.5523 17 31V30H15Z" fill="#333333"/>
<path fill-rule="evenodd" clip-rule="evenodd" d="M29 28H35V31C35 32.6569 33.6569 34 32 34C30.3431 34 29 32.6569 29 31V28ZM31 30V31C31 31.5523 31.4477 32 32 32C32.5523 32 33 31.5523 33 31V30H31Z" fill="#333333"/>
</svg>
