<svg width="48" height="48" viewBox="0 0 48 48" fill="none" xmlns="http://www.w3.org/2000/svg">
<path fill-rule="evenodd" clip-rule="evenodd" d="M7 23C7 26.9422 8.34188 30.5711 10.5938 33.4546L9.33125 36.4435C8.21731 39.0806 10.1533 42 13.016 42H34.9841C37.8468 42 39.7828 39.0806 38.6688 36.4435L37.4063 33.4546C39.6581 30.571 41 26.9422 41 23C41 13.6112 33.3888 6 24 6C14.6112 6 7 13.6112 7 23ZM17.743 22.8096C16.978 22.8096 16.2484 23.0275 15.6264 23.4155C15.5605 22.9884 15.5263 22.5508 15.5263 22.1053C15.5263 17.3963 19.3437 13.5789 24.0526 13.5789C28.7616 13.5789 32.5789 17.3963 32.5789 22.1053C32.5789 22.5722 32.5414 23.0304 32.4692 23.4769C31.8269 23.0506 31.0615 22.8096 30.2571 22.8096H29.7224C29.489 23.5483 29.1165 24.2252 28.6357 24.8096H30.2571C31.0609 24.8096 31.7867 25.2908 32.0995 26.0313L36.8265 37.2218C37.3834 38.5403 36.4155 40 34.9841 40H13.016C11.5846 40 10.6167 38.5403 11.1736 37.2218L15.9006 26.0313C16.2134 25.2908 16.9392 24.8096 17.743 24.8096H19.3644C18.8836 24.2252 18.5111 23.5483 18.2777 22.8096H17.743ZM19.8157 11.6694C21.1861 11.113 22.6528 10.832 24.1318 10.8424C25.6109 10.8528 27.0734 11.1544 28.4359 11.73L29.2143 9.8877C27.6098 9.20986 25.8876 8.85468 24.1459 8.84243C22.4042 8.83019 20.6771 9.16111 19.0633 9.81632L19.8157 11.6694ZM24 25C26.2091 25 28 23.2091 28 21C28 18.7909 26.2091 17 24 17C21.7909 17 20 18.7909 20 21C20 23.2091 21.7909 25 24 25Z" fill="#333333"/>
<path d="M20 27H28L31 42H17L20 27Z" fill="#333333"/>
<path fill-rule="evenodd" clip-rule="evenodd" d="M16.1211 29.3932C16.5975 27.964 17.935 27 19.4415 27H21.5V30H19.4415C19.2263 30 19.0352 30.1377 18.9672 30.3419L16.423 37.9743C16.1611 38.7603 15.3116 39.185 14.5257 38.923C13.7397 38.6611 13.315 37.8116 13.577 37.0257L16.1211 29.3932Z" fill="#333333"/>
<path fill-rule="evenodd" clip-rule="evenodd" d="M31.8789 29.3932C31.4025 27.964 30.065 27 28.5585 27H26.5V30H28.5585C28.7737 30 28.9648 30.1377 29.0328 30.3419L31.577 37.9743C31.8389 38.7603 32.6884 39.185 33.4743 38.923C34.2603 38.6611 34.685 37.8116 34.423 37.0257L31.8789 29.3932Z" fill="#333333"/>
<path d="M18 29H30V32H18V29Z" fill="#333333"/>
</svg>
