<svg width="48" height="48" viewBox="0 0 48 48" fill="none" xmlns="http://www.w3.org/2000/svg">
<path fill-rule="evenodd" clip-rule="evenodd" d="M7 6C6.63577 6 6.27483 6.015 5.91778 6.04446C5.39914 6.08725 5 6.52067 5 7.04107V43C5 43.5523 5.44772 44 6 44H9C9.55228 44 10 43.5523 10 43V38.5165L14.0968 40.2723C14.6205 40.4968 15.2573 40.7333 15.9222 40.8209C16.4885 40.8955 17.1187 40.8671 17.7279 40.6005C16.6009 40.3626 12.2995 39.3807 11 38C10.2868 37.2423 11.5584 36.0043 13.0887 34.5144C14.7772 32.8703 16.7809 30.9196 16.7809 28.9688C16.7809 25.25 19.281 21 19.281 21C21.0185 23.0447 22.2177 25.0268 22.8898 26.9531C23.2218 26.3405 23.2409 25.5586 22.7956 24.8906L20 20.6972V19C20 11.8203 14.1797 6 7 6ZM17 21.5C17 22.3284 16.3284 23 15.5 23C14.6716 23 14 22.3284 14 21.5C14 20.6716 14.6716 20 15.5 20C16.3284 20 17 20.6716 17 21.5Z" fill="#333333"/>
<path d="M25 23C25 22.4477 25.4477 22 26 22H41C41.5523 22 42 22.4477 42 23C42 23.5523 41.5523 24 41 24H26C25.4477 24 25 23.5523 25 23Z" fill="#333333"/>
<path fill-rule="evenodd" clip-rule="evenodd" d="M19.1322 19.2807L20.043 20.3524C23.2147 24.0847 24.7678 27.7575 24.5076 31.377C24.2474 34.9979 22.1896 38.3275 18.6577 41.4097L18.2899 41.7307L17.8106 41.6381L18.0002 40.6562C17.8106 41.6381 17.8107 41.6381 17.8106 41.6381L17.8048 41.637L17.7911 41.6343L17.741 41.6243C17.6978 41.6156 17.6352 41.6029 17.5556 41.5862C17.3966 41.5528 17.1692 41.5036 16.8923 41.4397C16.3397 41.312 15.5842 41.1243 14.7775 40.8843C13.9742 40.6453 13.1009 40.3489 12.3196 40.0009C11.5641 39.6642 10.7879 39.2337 10.2718 38.6854C9.83275 38.2189 9.72447 37.641 9.83953 37.0991C9.94022 36.625 10.2048 36.1948 10.4695 35.8407C10.9455 35.204 11.6744 34.4949 12.3838 33.8048C12.4661 33.7248 12.5481 33.645 12.6294 33.5656C13.4498 32.7648 14.2568 31.9541 14.861 31.1322C15.4742 30.2983 15.7809 29.5811 15.7809 28.9688C15.7809 26.9154 16.4634 24.78 17.1054 23.2111C17.431 22.4155 17.7563 21.7416 18.0007 21.2655C18.1231 21.027 18.2257 20.8372 18.2987 20.7055C18.3351 20.6396 18.3642 20.5882 18.3847 20.5524L18.4088 20.5105L18.4157 20.4987L18.4185 20.4938C18.4186 20.4936 18.419 20.493 19.281 21L18.4185 20.4938L19.1322 19.2807ZM19.4621 22.8233C19.3032 23.1585 19.1298 23.545 18.9564 23.9686C18.3484 25.4543 17.7809 27.3034 17.7809 28.9688C17.7809 30.2158 17.1775 31.358 16.4723 32.317C15.7583 33.2881 14.8387 34.2039 14.0264 34.9968C13.9499 35.0715 13.8746 35.1449 13.8007 35.2169C13.0537 35.9447 12.4464 36.5366 12.0713 37.0382C11.942 37.2112 11.8708 37.335 11.8331 37.4154C12.0908 37.6424 12.5278 37.9041 13.1336 38.174C13.8056 38.4734 14.5885 38.7414 15.3478 38.9673C16.1036 39.1922 16.8169 39.3696 17.3424 39.491C17.4797 39.5227 17.6038 39.5505 17.7121 39.5742C20.7699 36.8012 22.3118 34.0297 22.5128 31.2336C22.6982 28.6542 21.756 25.8665 19.4621 22.8233Z" fill="#333333"/>
<path fill-rule="evenodd" clip-rule="evenodd" d="M37.3782 8.59892C36.4842 8.25506 35.1136 8 33.5 8C31.8864 8 30.5158 8.25506 29.6218 8.59892C29.3269 8.71232 29.1266 8.81908 29 8.90036V22H38V8.90036C37.8734 8.81908 37.6731 8.71232 37.3782 8.59892ZM33.5 6C37.0899 6 40 7.11929 40 8.5V24H27V8.5C27 7.11929 29.9101 6 33.5 6Z" fill="#333333"/>
<path fill-rule="evenodd" clip-rule="evenodd" d="M37 21H30V19H37V21Z" fill="#333333"/>
<path fill-rule="evenodd" clip-rule="evenodd" d="M37 18H30V16H37V18Z" fill="#333333"/>
<path fill-rule="evenodd" clip-rule="evenodd" d="M37 15H30V13H37V15Z" fill="#333333"/>
<path fill-rule="evenodd" clip-rule="evenodd" d="M34.9609 31.4979C35.2425 31.8843 35.6888 32.2627 36.4366 32.579C37.5634 33.0554 38.4188 33.6557 38.8959 34.4259C39.4102 35.2564 39.4012 36.1469 39.0604 36.9411C38.7401 37.6872 38.1385 38.3369 37.4615 38.8759C36.7726 39.4244 35.9383 39.9117 35.0567 40.3138C33.3123 41.1094 31.2414 41.6341 29.5385 41.5583C28.6903 41.5206 27.8228 41.329 27.1425 40.8354C26.4101 40.3039 26 39.4969 26 38.5C26 37.9796 26.0297 37.4082 26.058 36.8644C26.0717 36.6006 26.085 36.3433 26.0945 36.1014C26.1254 35.315 26.1203 34.6267 26.0161 34.0539C25.913 33.4864 25.7304 33.1339 25.4873 32.9152C25.2544 32.7056 24.8337 32.5 24 32.5V30.5C25.1663 30.5 26.1206 30.7944 26.8252 31.4286C27.5196 32.0536 27.837 32.8886 27.9839 33.6961C28.1297 34.4983 28.1246 35.3725 28.093 36.1798C28.0812 36.4803 28.0662 36.7668 28.0517 37.0435C28.025 37.5525 28 38.0289 28 38.5C28 38.8934 28.1325 39.0827 28.3171 39.2166C28.5538 39.3884 28.9777 39.5314 29.6274 39.5603C30.92 39.6178 32.67 39.2042 34.2267 38.4941C34.9957 38.1434 35.6821 37.7362 36.2158 37.3112C36.7614 36.8768 37.0843 36.4742 37.2225 36.1523C37.34 35.8784 37.3233 35.6852 37.1956 35.4791C37.0306 35.2127 36.6097 34.8236 35.6577 34.421C34.6319 33.9873 33.8731 33.4011 33.3444 32.6755C32.8185 31.9536 32.5667 31.1572 32.4537 30.3741C32.3422 29.6018 32.3616 28.8099 32.4006 28.0817C32.4125 27.8584 32.426 27.644 32.4391 27.4358C32.4707 26.9333 32.5 26.467 32.5 26H34.5C34.5 26.534 34.4646 27.0977 34.4315 27.6242C34.4193 27.8185 34.4074 28.0077 34.3977 28.1885C34.3601 28.8931 34.3512 29.521 34.4331 30.0883C34.5135 30.6449 34.6768 31.1078 34.9609 31.4979Z" fill="#333333"/>
<path d="M31 24H36V26H31V24Z" fill="#333333"/>
</svg>
