<svg width="48" height="48" viewBox="0 0 48 48" fill="none" xmlns="http://www.w3.org/2000/svg">
<rect width="48" height="48" fill="white"/>
<path fill-rule="evenodd" clip-rule="evenodd" d="M20 40C24.4183 40 28 36.4183 28 32C28 27.5817 24.4183 24 20 24C15.5817 24 12 27.5817 12 32C12 36.4183 15.5817 40 20 40ZM20 42C25.5228 42 30 37.5228 30 32C30 26.4772 25.5228 22 20 22C14.4772 22 10 26.4772 10 32C10 37.5228 14.4772 42 20 42Z" fill="#333333"/>
<path fill-rule="evenodd" clip-rule="evenodd" d="M34.9055 39.1674C36.1367 41.027 39.2385 39.4773 38.3387 37.4031C37.439 35.3289 34.1005 27.4613 34.1005 27.4613C34.1005 27.4613 33.84 26.6745 32.7035 26.6745C31.6796 26.6745 26.4284 26.1908 25.3973 26.0949C26.9968 27.5576 28 29.6617 28 32C28 32.0438 27.9996 32.0875 27.9989 32.1312L30.6199 31.9434C30.6199 31.9434 33.6743 37.3077 34.9055 39.1674ZM17.5217 24.3913C17.6348 21.3254 18.1984 17.6952 19.4204 15.9697C21.4804 13.0611 21.8829 12.8465 24.1559 13.0611C26.429 13.2757 30.2647 20.8572 30.2647 20.8572C30.2647 20.8572 35.0949 22.0016 36.9418 22.6453C38.7886 23.289 37.6284 25.8162 36.4445 25.7685C35.2607 25.7208 28.773 25.0771 27.897 24.5765C27.0209 24.0758 25.5529 21.6678 25.5529 21.6678L25.2313 25.9472C23.8287 24.734 22.0001 24 20 24C19.135 24 18.302 24.1373 17.5217 24.3913ZM25.9938 32.2748L24.6295 32.3726C24.6295 32.3726 19.2218 32.8971 17.8577 29.1063C17.6798 28.6119 17.5607 27.6864 17.5178 26.5359C18.2743 26.1917 19.1147 26 20 26C23.3137 26 26 28.6863 26 32C26 32.0921 25.9979 32.1837 25.9938 32.2748Z" fill="#333333"/>
<path d="M30.5 9.5C30.5 11.433 28.933 13 27 13C25.067 13 23.5 11.433 23.5 9.5C23.5 7.567 25.067 6 27 6C28.933 6 30.5 7.567 30.5 9.5Z" fill="#333333"/>
<path fill-rule="evenodd" clip-rule="evenodd" d="M15.1 13.2L18.5 15.75V23H16.5V16.75L13.9 14.8L15.1 13.2Z" fill="#333333"/>
</svg>
