<svg width="48" height="48" viewBox="0 0 48 48" fill="none" xmlns="http://www.w3.org/2000/svg">
<path fill-rule="evenodd" clip-rule="evenodd" d="M18.868 6L23 6C23.5523 6 24 5.55229 24 5C24 4.44772 23.5523 4 23 4H19.868L18.868 6ZM17.632 4H15.868L14.868 6H16.632L17.632 4ZM11 4H13.632L12.632 6H11C10.4477 6 10 5.55228 10 5C10 4.44772 10.4477 4 11 4Z" fill="#333333"/>
<path fill-rule="evenodd" clip-rule="evenodd" d="M24 5C23.4477 5 23 5.44772 23 6V15.257L25 16.257V6C25 5.44772 24.5523 5 24 5ZM25 18.493L23 17.493V19.257L25 20.257V18.493ZM23 23.257V21.493L25 22.493V24.257L23 23.257ZM23 25.493V37C23 37.5523 23.4477 38 24 38C24.5523 38 25 37.5523 25 37V26.493L23 25.493Z" fill="#333333"/>
<path fill-rule="evenodd" clip-rule="evenodd" d="M29.132 6L25 6C24.4477 6 24 5.55229 24 5C24 4.44772 24.4477 4 25 4H28.132L29.132 6ZM30.368 4H32.132L33.132 6H31.368L30.368 4ZM37 4H34.368L35.368 6H37C37.5523 6 38 5.55229 38 5C38 4.44772 37.5523 4 37 4Z" fill="#333333"/>
<path fill-rule="evenodd" clip-rule="evenodd" d="M24 42C25.1046 42 26 41.1046 26 40C26 38.8954 25.1046 38 24 38C22.8954 38 22 38.8954 22 40C22 41.1046 22.8954 42 24 42ZM24 44C26.2091 44 28 42.2091 28 40C28 37.7909 26.2091 36 24 36C21.7909 36 20 37.7909 20 40C20 42.2091 21.7909 44 24 44Z" fill="#333333"/>
</svg>
