<svg width="48" height="48" viewBox="0 0 48 48" fill="none" xmlns="http://www.w3.org/2000/svg">
<mask id="path-1-inside-1" fill="white">
<path fill-rule="evenodd" clip-rule="evenodd" d="M7.02838 33.8986C5.46629 32.3365 5.46629 29.8038 7.02838 28.2417L28.2416 7.02851C29.8037 5.46641 32.3363 5.46641 33.8984 7.02851L40.9695 14.0996C42.5316 15.6617 42.5316 18.1943 40.9695 19.7564L19.7563 40.9696C18.1942 42.5317 15.6615 42.5317 14.0995 40.9696L7.02838 33.8986ZM16.928 24.7062C17.4162 25.1943 17.4162 25.9858 16.928 26.4739C16.4399 26.9621 15.6484 26.9621 15.1603 26.4739C14.6721 25.9858 14.6721 25.1943 15.1603 24.7062C15.6484 24.218 16.4399 24.218 16.928 24.7062ZM19.4029 23.9991C19.891 23.5109 19.891 22.7195 19.4029 22.2313C18.9147 21.7431 18.1233 21.7431 17.6351 22.2313C17.147 22.7195 17.147 23.5109 17.6351 23.9991C18.1233 24.4872 18.9147 24.4872 19.4029 23.9991ZM21.8777 19.7564C22.3659 20.2446 22.3659 21.0361 21.8777 21.5242C21.3896 22.0124 20.5981 22.0124 20.11 21.5242C19.6218 21.0361 19.6218 20.2446 20.11 19.7564C20.5981 19.2683 21.3896 19.2683 21.8777 19.7564ZM24.3526 19.0493C24.8407 18.5611 24.8407 17.7697 24.3526 17.2815C23.8644 16.7934 23.073 16.7934 22.5848 17.2815C22.0967 17.7697 22.0967 18.5611 22.5848 19.0493C23.073 19.5374 23.8644 19.5374 24.3526 19.0493ZM26.8274 14.8067C27.3156 15.2948 27.3156 16.0863 26.8274 16.5744C26.3393 17.0626 25.5478 17.0626 25.0597 16.5744C24.5715 16.0863 24.5715 15.2948 25.0597 14.8067C25.5478 14.3185 26.3393 14.3185 26.8274 14.8067ZM29.3023 14.0996C29.7904 13.6114 29.7904 12.82 29.3023 12.3318C28.8141 11.8437 28.0227 11.8437 27.5345 12.3318C27.0464 12.82 27.0464 13.6114 27.5345 14.0996C28.0227 14.5877 28.8141 14.5877 29.3023 14.0996ZM32.4842 15.5138C32.9723 16.0019 32.9723 16.7934 32.4842 17.2815C31.996 17.7697 31.2046 17.7697 30.7164 17.2815C30.2283 16.7934 30.2283 16.0019 30.7164 15.5138C31.2046 15.0256 31.996 15.0256 32.4842 15.5138ZM14.4532 28.9488C14.9413 28.4607 14.9413 27.6692 14.4532 27.1811C13.965 26.6929 13.1736 26.6929 12.6854 27.1811C12.1972 27.6692 12.1972 28.4607 12.6854 28.9488C13.1736 29.437 13.965 29.437 14.4532 28.9488ZM11.6246 30.0095L11.0943 32.3076L9.32652 30.5398L11.6246 30.0095ZM23.2918 32.8379C23.7799 32.3498 23.7799 31.5583 23.2918 31.0702C22.8036 30.582 22.0122 30.582 21.524 31.0702C21.0359 31.5583 21.0359 32.3498 21.524 32.8379C22.0122 33.3261 22.8036 33.3261 23.2918 32.8379ZM25.7669 28.5953C26.255 29.0834 26.255 29.8749 25.7669 30.363C25.2787 30.8512 24.4873 30.8512 23.9991 30.363C23.511 29.8749 23.511 29.0834 23.9991 28.5953C24.4873 28.1071 25.2787 28.1071 25.7669 28.5953ZM28.2417 27.8882C28.7299 27.4 28.7299 26.6086 28.2417 26.1204C27.7536 25.6322 26.9621 25.6322 26.474 26.1204C25.9858 26.6086 25.9858 27.4 26.474 27.8882C26.9621 28.3763 27.7536 28.3763 28.2417 27.8882ZM30.7166 23.6455C31.2048 24.1337 31.2048 24.9252 30.7166 25.4133C30.2284 25.9015 29.437 25.9015 28.9488 25.4133C28.4607 24.9252 28.4607 24.1337 28.9488 23.6455C29.437 23.1574 30.2284 23.1574 30.7166 23.6455ZM33.1915 22.9384C33.6796 22.4502 33.6796 21.6588 33.1915 21.1706C32.7033 20.6825 31.9118 20.6825 31.4237 21.1706C30.9355 21.6588 30.9355 22.4502 31.4237 22.9384C31.9118 23.4265 32.7033 23.4265 33.1915 22.9384ZM35.6663 18.6958C36.1545 19.1839 36.1545 19.9754 35.6663 20.4635C35.1781 20.9517 34.3867 20.9517 33.8985 20.4635C33.4104 19.9754 33.4104 19.1839 33.8985 18.6958C34.3867 18.2076 35.1781 18.2076 35.6663 18.6958ZM31.7772 11.6247C32.2654 11.1365 32.2654 10.3451 31.7772 9.85691C31.289 9.36876 30.4976 9.36876 30.0094 9.85691C29.5213 10.3451 29.5213 11.1365 30.0094 11.6247C30.4976 12.1128 31.289 12.1128 31.7772 11.6247ZM38.1412 16.2209C38.6293 16.709 38.6293 17.5005 38.1412 17.9886C37.653 18.4768 36.8615 18.4768 36.3734 17.9886C35.8852 17.5005 35.8852 16.709 36.3734 16.2209C36.8615 15.7327 37.653 15.7327 38.1412 16.2209ZM34.9592 14.8067C35.4473 14.3185 35.4473 13.527 34.9592 13.0389C34.471 12.5507 33.6796 12.5507 33.1914 13.0389C32.7033 13.527 32.7033 14.3185 33.1914 14.8067C33.6796 15.2948 34.471 15.2948 34.9592 14.8067ZM20.8169 33.545C21.3051 34.0332 21.3051 34.8246 20.8169 35.3128C20.3288 35.8009 19.5373 35.8009 19.0492 35.3128C18.561 34.8246 18.561 34.0332 19.0492 33.545C19.5373 33.0569 20.3288 33.0569 20.8169 33.545ZM18.3421 37.7876C18.8302 37.2995 18.8302 36.508 18.3421 36.0199C17.8539 35.5317 17.0625 35.5317 16.5743 36.0199C16.0862 36.508 16.0862 37.2995 16.5743 37.7876C17.0625 38.2758 17.8539 38.2758 18.3421 37.7876ZM15.1602 32.8379C15.6484 33.3261 15.6484 34.1175 15.1602 34.6057C14.672 35.0938 13.8806 35.0938 13.3924 34.6057C12.9043 34.1175 12.9043 33.3261 13.3924 32.8379C13.8806 32.3498 14.672 32.3498 15.1602 32.8379ZM17.6351 32.1308C18.1232 31.6426 18.1232 30.8512 17.6351 30.363C17.1469 29.8749 16.3554 29.8749 15.8673 30.363C15.3791 30.8512 15.3791 31.6426 15.8673 32.1308C16.3554 32.6189 17.1469 32.6189 17.6351 32.1308Z"/>
</mask>
<path fill-rule="evenodd" clip-rule="evenodd" d="M7.02838 33.8986C5.46629 32.3365 5.46629 29.8038 7.02838 28.2417L28.2416 7.02851C29.8037 5.46641 32.3363 5.46641 33.8984 7.02851L40.9695 14.0996C42.5316 15.6617 42.5316 18.1943 40.9695 19.7564L19.7563 40.9696C18.1942 42.5317 15.6615 42.5317 14.0995 40.9696L7.02838 33.8986ZM16.928 24.7062C17.4162 25.1943 17.4162 25.9858 16.928 26.4739C16.4399 26.9621 15.6484 26.9621 15.1603 26.4739C14.6721 25.9858 14.6721 25.1943 15.1603 24.7062C15.6484 24.218 16.4399 24.218 16.928 24.7062ZM19.4029 23.9991C19.891 23.5109 19.891 22.7195 19.4029 22.2313C18.9147 21.7431 18.1233 21.7431 17.6351 22.2313C17.147 22.7195 17.147 23.5109 17.6351 23.9991C18.1233 24.4872 18.9147 24.4872 19.4029 23.9991ZM21.8777 19.7564C22.3659 20.2446 22.3659 21.0361 21.8777 21.5242C21.3896 22.0124 20.5981 22.0124 20.11 21.5242C19.6218 21.0361 19.6218 20.2446 20.11 19.7564C20.5981 19.2683 21.3896 19.2683 21.8777 19.7564ZM24.3526 19.0493C24.8407 18.5611 24.8407 17.7697 24.3526 17.2815C23.8644 16.7934 23.073 16.7934 22.5848 17.2815C22.0967 17.7697 22.0967 18.5611 22.5848 19.0493C23.073 19.5374 23.8644 19.5374 24.3526 19.0493ZM26.8274 14.8067C27.3156 15.2948 27.3156 16.0863 26.8274 16.5744C26.3393 17.0626 25.5478 17.0626 25.0597 16.5744C24.5715 16.0863 24.5715 15.2948 25.0597 14.8067C25.5478 14.3185 26.3393 14.3185 26.8274 14.8067ZM29.3023 14.0996C29.7904 13.6114 29.7904 12.82 29.3023 12.3318C28.8141 11.8437 28.0227 11.8437 27.5345 12.3318C27.0464 12.82 27.0464 13.6114 27.5345 14.0996C28.0227 14.5877 28.8141 14.5877 29.3023 14.0996ZM32.4842 15.5138C32.9723 16.0019 32.9723 16.7934 32.4842 17.2815C31.996 17.7697 31.2046 17.7697 30.7164 17.2815C30.2283 16.7934 30.2283 16.0019 30.7164 15.5138C31.2046 15.0256 31.996 15.0256 32.4842 15.5138ZM14.4532 28.9488C14.9413 28.4607 14.9413 27.6692 14.4532 27.1811C13.965 26.6929 13.1736 26.6929 12.6854 27.1811C12.1972 27.6692 12.1972 28.4607 12.6854 28.9488C13.1736 29.437 13.965 29.437 14.4532 28.9488ZM11.6246 30.0095L11.0943 32.3076L9.32652 30.5398L11.6246 30.0095ZM23.2918 32.8379C23.7799 32.3498 23.7799 31.5583 23.2918 31.0702C22.8036 30.582 22.0122 30.582 21.524 31.0702C21.0359 31.5583 21.0359 32.3498 21.524 32.8379C22.0122 33.3261 22.8036 33.3261 23.2918 32.8379ZM25.7669 28.5953C26.255 29.0834 26.255 29.8749 25.7669 30.363C25.2787 30.8512 24.4873 30.8512 23.9991 30.363C23.511 29.8749 23.511 29.0834 23.9991 28.5953C24.4873 28.1071 25.2787 28.1071 25.7669 28.5953ZM28.2417 27.8882C28.7299 27.4 28.7299 26.6086 28.2417 26.1204C27.7536 25.6322 26.9621 25.6322 26.474 26.1204C25.9858 26.6086 25.9858 27.4 26.474 27.8882C26.9621 28.3763 27.7536 28.3763 28.2417 27.8882ZM30.7166 23.6455C31.2048 24.1337 31.2048 24.9252 30.7166 25.4133C30.2284 25.9015 29.437 25.9015 28.9488 25.4133C28.4607 24.9252 28.4607 24.1337 28.9488 23.6455C29.437 23.1574 30.2284 23.1574 30.7166 23.6455ZM33.1915 22.9384C33.6796 22.4502 33.6796 21.6588 33.1915 21.1706C32.7033 20.6825 31.9118 20.6825 31.4237 21.1706C30.9355 21.6588 30.9355 22.4502 31.4237 22.9384C31.9118 23.4265 32.7033 23.4265 33.1915 22.9384ZM35.6663 18.6958C36.1545 19.1839 36.1545 19.9754 35.6663 20.4635C35.1781 20.9517 34.3867 20.9517 33.8985 20.4635C33.4104 19.9754 33.4104 19.1839 33.8985 18.6958C34.3867 18.2076 35.1781 18.2076 35.6663 18.6958ZM31.7772 11.6247C32.2654 11.1365 32.2654 10.3451 31.7772 9.85691C31.289 9.36876 30.4976 9.36876 30.0094 9.85691C29.5213 10.3451 29.5213 11.1365 30.0094 11.6247C30.4976 12.1128 31.289 12.1128 31.7772 11.6247ZM38.1412 16.2209C38.6293 16.709 38.6293 17.5005 38.1412 17.9886C37.653 18.4768 36.8615 18.4768 36.3734 17.9886C35.8852 17.5005 35.8852 16.709 36.3734 16.2209C36.8615 15.7327 37.653 15.7327 38.1412 16.2209ZM34.9592 14.8067C35.4473 14.3185 35.4473 13.527 34.9592 13.0389C34.471 12.5507 33.6796 12.5507 33.1914 13.0389C32.7033 13.527 32.7033 14.3185 33.1914 14.8067C33.6796 15.2948 34.471 15.2948 34.9592 14.8067ZM20.8169 33.545C21.3051 34.0332 21.3051 34.8246 20.8169 35.3128C20.3288 35.8009 19.5373 35.8009 19.0492 35.3128C18.561 34.8246 18.561 34.0332 19.0492 33.545C19.5373 33.0569 20.3288 33.0569 20.8169 33.545ZM18.3421 37.7876C18.8302 37.2995 18.8302 36.508 18.3421 36.0199C17.8539 35.5317 17.0625 35.5317 16.5743 36.0199C16.0862 36.508 16.0862 37.2995 16.5743 37.7876C17.0625 38.2758 17.8539 38.2758 18.3421 37.7876ZM15.1602 32.8379C15.6484 33.3261 15.6484 34.1175 15.1602 34.6057C14.672 35.0938 13.8806 35.0938 13.3924 34.6057C12.9043 34.1175 12.9043 33.3261 13.3924 32.8379C13.8806 32.3498 14.672 32.3498 15.1602 32.8379ZM17.6351 32.1308C18.1232 31.6426 18.1232 30.8512 17.6351 30.363C17.1469 29.8749 16.3554 29.8749 15.8673 30.363C15.3791 30.8512 15.3791 31.6426 15.8673 32.1308C16.3554 32.6189 17.1469 32.6189 17.6351 32.1308Z" fill="#333333"/>
<path d="M7.02838 28.2417L8.4426 29.6559H8.4426L7.02838 28.2417ZM7.02838 33.8986L8.4426 32.4843H8.4426L7.02838 33.8986ZM28.2416 7.02851L26.8274 5.61429V5.61429L28.2416 7.02851ZM33.8984 7.02851L35.3127 5.61429V5.61429L33.8984 7.02851ZM40.9695 14.0996L42.3837 12.6854V12.6854L40.9695 14.0996ZM40.9695 19.7564L42.3837 21.1706V21.1706L40.9695 19.7564ZM19.7563 40.9696L21.1705 42.3838V42.3838L19.7563 40.9696ZM14.0995 40.9696L15.5137 39.5554L15.5137 39.5554L14.0995 40.9696ZM19.4029 22.2313L17.9887 23.6455L17.9887 23.6455L19.4029 22.2313ZM17.6351 22.2313L19.0493 23.6455L19.0493 23.6455L17.6351 22.2313ZM21.8777 21.5242L20.4635 20.11L20.4635 20.11L21.8777 21.5242ZM21.8777 19.7564L20.4635 21.1707L20.4635 21.1707L21.8777 19.7564ZM29.3023 14.0996L27.8881 12.6854V12.6854L29.3023 14.0996ZM27.5345 14.0996L28.9487 12.6854V12.6854L27.5345 14.0996ZM11.0943 32.3076L9.68007 33.7218L12.2317 36.2734L13.0431 32.7573L11.0943 32.3076ZM11.6246 30.0095L13.5734 30.4592L14.2929 27.3412L11.1749 28.0607L11.6246 30.0095ZM9.32652 30.5398L8.8768 28.591L5.36071 29.4025L7.9123 31.954L9.32652 30.5398ZM21.524 31.0702L22.9382 32.4844V32.4844L21.524 31.0702ZM21.524 32.8379L22.9382 31.4237V31.4237L21.524 32.8379ZM38.1412 17.9886L36.7269 16.5744L36.7269 16.5744L38.1412 17.9886ZM38.1412 16.2209L36.7269 17.6351L36.7269 17.6351L38.1412 16.2209ZM34.9592 13.0389L33.545 14.4531L34.9592 13.0389ZM18.3421 37.7876L16.9279 36.3734L16.9279 36.3734L18.3421 37.7876ZM16.5743 37.7876L17.9885 36.3734L17.9885 36.3734L16.5743 37.7876ZM13.3924 34.6057L14.8066 33.1915L14.8066 33.1915L13.3924 34.6057ZM13.3924 32.8379L14.8066 34.2521L14.8066 34.2521L13.3924 32.8379ZM5.61417 26.8275C3.27103 29.1706 3.27102 32.9696 5.61417 35.3128L8.4426 32.4843C7.66155 31.7033 7.66155 30.437 8.4426 29.6559L5.61417 26.8275ZM26.8274 5.61429L5.61417 26.8275L8.4426 29.6559L29.6558 8.44272L26.8274 5.61429ZM35.3127 5.61429C32.9695 3.27115 29.1705 3.27115 26.8274 5.61429L29.6558 8.44272C30.4368 7.66167 31.7032 7.66167 32.4842 8.44272L35.3127 5.61429ZM42.3837 12.6854L35.3127 5.61429L32.4842 8.44272L39.5553 15.5138L42.3837 12.6854ZM42.3837 21.1706C44.7269 18.8275 44.7269 15.0285 42.3837 12.6854L39.5553 15.5138C40.3363 16.2948 40.3363 17.5612 39.5553 18.3422L42.3837 21.1706ZM21.1705 42.3838L42.3837 21.1706L39.5553 18.3422L18.3421 39.5554L21.1705 42.3838ZM12.6852 42.3838C15.0284 44.727 18.8274 44.727 21.1705 42.3838L18.3421 39.5554C17.561 40.3365 16.2947 40.3365 15.5137 39.5554L12.6852 42.3838ZM5.61417 35.3128L12.6852 42.3838L15.5137 39.5554L8.4426 32.4843L5.61417 35.3128ZM18.3422 27.8881C19.6114 26.6189 19.6114 24.5611 18.3422 23.2919L15.5138 26.1204C15.2209 25.8275 15.2209 25.3526 15.5138 25.0597L18.3422 27.8881ZM13.746 27.8881C15.0152 29.1573 17.073 29.1573 18.3422 27.8881L15.5138 25.0597C15.8067 24.7668 16.2816 24.7668 16.5745 25.0597L13.746 27.8881ZM13.746 23.2919C12.4768 24.5611 12.4768 26.6189 13.746 27.8881L16.5745 25.0597C16.8674 25.3526 16.8674 25.8275 16.5745 26.1204L13.746 23.2919ZM18.3422 23.2919C17.073 22.0227 15.0152 22.0227 13.746 23.2919L16.5745 26.1204C16.2816 26.4133 15.8067 26.4133 15.5138 26.1204L18.3422 23.2919ZM17.9887 23.6455C17.6958 23.3526 17.6958 22.8777 17.9887 22.5848L20.8171 25.4133C22.0863 24.1441 22.0863 22.0863 20.8171 20.8171L17.9887 23.6455ZM19.0493 23.6455C18.7564 23.9384 18.2816 23.9384 17.9887 23.6455L20.8171 20.8171C19.5479 19.5479 17.4901 19.5479 16.2209 20.8171L19.0493 23.6455ZM19.0493 22.5848C19.3422 22.8777 19.3422 23.3526 19.0493 23.6455L16.2209 20.8171C14.9517 22.0863 14.9517 24.1441 16.2209 25.4133L19.0493 22.5848ZM17.9887 22.5848C18.2816 22.292 18.7564 22.292 19.0493 22.5848L16.2209 25.4133C17.4901 26.6825 19.5479 26.6825 20.8171 25.4133L17.9887 22.5848ZM23.2919 22.9384C24.5611 21.6692 24.5611 19.6114 23.2919 18.3422L20.4635 21.1707C20.1706 20.8778 20.1706 20.4029 20.4635 20.11L23.2919 22.9384ZM18.6958 22.9384C19.965 24.2076 22.0227 24.2076 23.2919 22.9384L20.4635 20.11C20.7564 19.8171 21.2313 19.8171 21.5242 20.11L18.6958 22.9384ZM18.6958 18.3422C17.4265 19.6114 17.4265 21.6692 18.6958 22.9384L21.5242 20.11C21.8171 20.4029 21.8171 20.8778 21.5242 21.1707L18.6958 18.3422ZM23.2919 18.3422C22.0227 17.073 19.965 17.073 18.6958 18.3422L21.5242 21.1707C21.2313 21.4635 20.7564 21.4636 20.4635 21.1707L23.2919 18.3422ZM22.9384 18.6957C22.6455 18.4028 22.6455 17.928 22.9384 17.6351L25.7668 20.4635C27.036 19.1943 27.036 17.1365 25.7668 15.8673L22.9384 18.6957ZM23.999 18.6957C23.7061 18.9886 23.2313 18.9886 22.9384 18.6957L25.7668 15.8673C24.4976 14.5981 22.4398 14.5981 21.1706 15.8673L23.999 18.6957ZM23.999 17.6351C24.2919 17.928 24.2919 18.4028 23.999 18.6957L21.1706 15.8673C19.9014 17.1365 19.9014 19.1943 21.1706 20.4635L23.999 17.6351ZM22.9384 17.6351C23.2313 17.3422 23.7061 17.3422 23.999 17.6351L21.1706 20.4635C22.4398 21.7327 24.4976 21.7327 25.7668 20.4635L22.9384 17.6351ZM28.2416 17.9887C29.5109 16.7195 29.5109 14.6617 28.2416 13.3925L25.4132 16.2209C25.1203 15.928 25.1203 15.4531 25.4132 15.1602L28.2416 17.9887ZM23.6455 17.9887C24.9147 19.2579 26.9724 19.2579 28.2416 17.9887L25.4132 15.1602C25.7061 14.8673 26.181 14.8673 26.4739 15.1602L23.6455 17.9887ZM23.6455 13.3925C22.3763 14.6617 22.3763 16.7195 23.6455 17.9887L26.4739 15.1602C26.7668 15.4531 26.7668 15.928 26.4739 16.2209L23.6455 13.3925ZM28.2416 13.3925C26.9724 12.1233 24.9147 12.1233 23.6455 13.3925L26.4739 16.2209C26.181 16.5138 25.7061 16.5138 25.4132 16.2209L28.2416 13.3925ZM27.8881 13.746C27.5952 13.4531 27.5952 12.9783 27.8881 12.6854L30.7165 15.5138C31.9857 14.2446 31.9857 12.1868 30.7165 10.9176L27.8881 13.746ZM28.9487 13.746C28.6558 14.0389 28.181 14.0389 27.8881 13.746L30.7165 10.9176C29.4473 9.6484 27.3895 9.6484 26.1203 10.9176L28.9487 13.746ZM28.9487 12.6854C29.2416 12.9783 29.2416 13.4531 28.9487 13.746L26.1203 10.9176C24.8511 12.1868 24.8511 14.2446 26.1203 15.5138L28.9487 12.6854ZM27.8881 12.6854C28.181 12.3925 28.6558 12.3925 28.9487 12.6854L26.1203 15.5138C27.3895 16.783 29.4473 16.783 30.7165 15.5138L27.8881 12.6854ZM33.8984 18.6957C35.1676 17.4265 35.1676 15.3688 33.8984 14.0996L31.07 16.928C30.7771 16.6351 30.7771 16.1602 31.07 15.8673L33.8984 18.6957ZM29.3022 18.6957C30.5714 19.965 32.6292 19.965 33.8984 18.6957L31.07 15.8673C31.3629 15.5744 31.8377 15.5744 32.1306 15.8673L29.3022 18.6957ZM29.3022 14.0996C28.033 15.3688 28.033 17.4265 29.3022 18.6957L32.1306 15.8673C32.4235 16.1602 32.4235 16.6351 32.1306 16.928L29.3022 14.0996ZM33.8984 14.0996C32.6292 12.8303 30.5714 12.8303 29.3022 14.0996L32.1306 16.928C31.8377 17.2209 31.3629 17.2209 31.07 16.928L33.8984 14.0996ZM13.039 28.5953C12.7461 28.3024 12.7461 27.8275 13.039 27.5346L15.8674 30.363C17.1366 29.0938 17.1366 27.0361 15.8674 25.7669L13.039 28.5953ZM14.0996 28.5953C13.8067 28.8882 13.3318 28.8882 13.039 28.5953L15.8674 25.7669C14.5982 24.4976 12.5404 24.4976 11.2712 25.7669L14.0996 28.5953ZM14.0996 27.5346C14.3925 27.8275 14.3925 28.3024 14.0996 28.5953L11.2712 25.7669C10.002 27.0361 10.002 29.0938 11.2712 30.363L14.0996 27.5346ZM13.039 27.5346C13.3318 27.2417 13.8067 27.2417 14.0996 27.5346L11.2712 30.363C12.5404 31.6322 14.5982 31.6322 15.8674 30.363L13.039 27.5346ZM13.0431 32.7573L13.5734 30.4592L9.67583 29.5598L9.1455 31.8579L13.0431 32.7573ZM7.9123 31.954L9.68007 33.7218L12.5085 30.8934L10.7407 29.1256L7.9123 31.954ZM11.1749 28.0607L8.8768 28.591L9.77623 32.4886L12.0743 31.9583L11.1749 28.0607ZM21.8776 32.4844C21.5847 32.1915 21.5847 31.7166 21.8776 31.4237L24.706 34.2521C25.9752 32.9829 25.9752 30.9252 24.706 29.656L21.8776 32.4844ZM22.9382 32.4844C22.6453 32.7773 22.1705 32.7773 21.8776 32.4844L24.706 29.656C23.4368 28.3867 21.379 28.3867 20.1098 29.656L22.9382 32.4844ZM22.9382 31.4237C23.2311 31.7166 23.2311 32.1915 22.9382 32.4844L20.1098 29.656C18.8406 30.9252 18.8406 32.9829 20.1098 34.2521L22.9382 31.4237ZM21.8776 31.4237C22.1705 31.1308 22.6453 31.1308 22.9382 31.4237L20.1098 34.2521C21.379 35.5213 23.4368 35.5213 24.706 34.2521L21.8776 31.4237ZM27.1811 31.7772C28.4503 30.508 28.4503 28.4502 27.1811 27.181L24.3527 30.0095C24.0598 29.7166 24.0598 29.2417 24.3527 28.9488L27.1811 31.7772ZM22.5849 31.7772C23.8541 33.0464 25.9119 33.0464 27.1811 31.7772L24.3527 28.9488C24.6456 28.6559 25.1204 28.6559 25.4133 28.9488L22.5849 31.7772ZM22.5849 27.181C21.3157 28.4502 21.3157 30.508 22.5849 31.7772L25.4133 28.9488C25.7062 29.2417 25.7062 29.7166 25.4133 30.0095L22.5849 27.181ZM27.1811 27.181C25.9119 25.9118 23.8541 25.9118 22.5849 27.181L25.4133 30.0095C25.1204 30.3024 24.6456 30.3024 24.3527 30.0095L27.1811 27.181ZM26.8275 27.5346C26.5346 27.2417 26.5346 26.7668 26.8275 26.4739L29.656 29.3024C30.9252 28.0332 30.9252 25.9754 29.656 24.7062L26.8275 27.5346ZM27.8882 27.5346C27.5953 27.8275 27.1204 27.8275 26.8275 27.5346L29.656 24.7062C28.3868 23.437 26.329 23.437 25.0598 24.7062L27.8882 27.5346ZM27.8882 26.4739C28.1811 26.7668 28.1811 27.2417 27.8882 27.5346L25.0598 24.7062C23.7906 25.9754 23.7906 28.0332 25.0598 29.3024L27.8882 26.4739ZM26.8275 26.4739C27.1204 26.1811 27.5953 26.1811 27.8882 26.4739L25.0598 29.3024C26.329 30.5716 28.3868 30.5716 29.656 29.3024L26.8275 26.4739ZM32.1308 26.8275C33.4 25.5583 33.4 23.5005 32.1308 22.2313L29.3024 25.0598C29.0095 24.7669 29.0095 24.292 29.3024 23.9991L32.1308 26.8275ZM27.5346 26.8275C28.8038 28.0967 30.8616 28.0967 32.1308 26.8275L29.3024 23.9991C29.5953 23.7062 30.0702 23.7062 30.363 23.9991L27.5346 26.8275ZM27.5346 22.2313C26.2654 23.5005 26.2654 25.5583 27.5346 26.8275L30.363 23.9991C30.6559 24.292 30.6559 24.7669 30.363 25.0598L27.5346 22.2313ZM32.1308 22.2313C30.8616 20.9621 28.8038 20.9621 27.5346 22.2313L30.363 25.0598C30.0702 25.3526 29.5953 25.3526 29.3024 25.0598L32.1308 22.2313ZM31.7772 22.5848C31.4843 22.2919 31.4843 21.8171 31.7772 21.5242L34.6057 24.3526C35.8749 23.0834 35.8749 21.0256 34.6057 19.7564L31.7772 22.5848ZM32.8379 22.5848C32.545 22.8777 32.0701 22.8777 31.7772 22.5848L34.6057 19.7564C33.3365 18.4872 31.2787 18.4872 30.0095 19.7564L32.8379 22.5848ZM32.8379 21.5242C33.1308 21.8171 33.1308 22.2919 32.8379 22.5848L30.0095 19.7564C28.7403 21.0256 28.7403 23.0834 30.0095 24.3526L32.8379 21.5242ZM31.7772 21.5242C32.0701 21.2313 32.545 21.2313 32.8379 21.5242L30.0095 24.3526C31.2787 25.6218 33.3365 25.6218 34.6057 24.3526L31.7772 21.5242ZM37.0805 21.8778C38.3497 20.6086 38.3497 18.5508 37.0805 17.2816L34.2521 20.11C33.9592 19.8171 33.9592 19.3422 34.2521 19.0493L37.0805 21.8778ZM32.4843 21.8778C33.7535 23.147 35.8113 23.147 37.0805 21.8778L34.2521 19.0493C34.545 18.7564 35.0199 18.7564 35.3127 19.0493L32.4843 21.8778ZM32.4843 17.2816C31.2151 18.5508 31.2151 20.6086 32.4843 21.8778L35.3127 19.0493C35.6056 19.3422 35.6056 19.8171 35.3127 20.11L32.4843 17.2816ZM37.0805 17.2816C35.8113 16.0124 33.7535 16.0124 32.4843 17.2816L35.3127 20.11C35.0199 20.4029 34.545 20.4029 34.2521 20.11L37.0805 17.2816ZM30.363 11.2711C30.0701 10.9782 30.0701 10.5034 30.363 10.2105L33.1914 13.0389C34.4606 11.7697 34.4606 9.7119 33.1914 8.4427L30.363 11.2711ZM31.4236 11.2711C31.1308 11.564 30.6559 11.564 30.363 11.2711L33.1914 8.4427C31.9222 7.17349 29.8644 7.17349 28.5952 8.4427L31.4236 11.2711ZM31.4236 10.2105C31.7165 10.5034 31.7165 10.9782 31.4236 11.2711L28.5952 8.4427C27.326 9.7119 27.326 11.7697 28.5952 13.0389L31.4236 10.2105ZM30.363 10.2105C30.6559 9.91757 31.1308 9.91757 31.4236 10.2105L28.5952 13.0389C29.8644 14.3081 31.9222 14.3081 33.1914 13.0389L30.363 10.2105ZM39.5554 19.4029C40.8246 18.1336 40.8246 16.0759 39.5554 14.8067L36.7269 17.6351C36.4341 17.3422 36.4341 16.8673 36.7269 16.5744L39.5554 19.4029ZM34.9592 19.4029C36.2284 20.6721 38.2862 20.6721 39.5554 19.4029L36.7269 16.5744C37.0198 16.2815 37.4947 16.2815 37.7876 16.5744L34.9592 19.4029ZM34.9592 14.8067C33.69 16.0759 33.69 18.1336 34.9592 19.4029L37.7876 16.5744C38.0805 16.8673 38.0805 17.3422 37.7876 17.6351L34.9592 14.8067ZM39.5554 14.8067C38.2862 13.5375 36.2284 13.5375 34.9592 14.8067L37.7876 17.6351C37.4947 17.928 37.0198 17.928 36.7269 17.6351L39.5554 14.8067ZM33.545 14.4531C33.2521 14.1602 33.2521 13.6853 33.545 13.3924L36.3734 16.2209C37.6426 14.9517 37.6426 12.8939 36.3734 11.6247L33.545 14.4531ZM34.6056 14.4531C34.3127 14.746 33.8379 14.746 33.545 14.4531L36.3734 11.6247C35.1042 10.3555 33.0464 10.3555 31.7772 11.6247L34.6056 14.4531ZM34.6056 13.3924C34.8985 13.6853 34.8985 14.1602 34.6056 14.4531L31.7772 11.6247C30.508 12.8939 30.508 14.9517 31.7772 16.2209L34.6056 13.3924ZM33.545 13.3924C33.8379 13.0996 34.3127 13.0996 34.6056 13.3924L31.7772 16.2209C33.0464 17.4901 35.1042 17.4901 36.3734 16.2209L33.545 13.3924ZM22.2312 36.727C23.5004 35.4578 23.5004 33.4 22.2312 32.1308L19.4027 34.9592C19.1098 34.6663 19.1098 34.1915 19.4027 33.8986L22.2312 36.727ZM17.635 36.727C18.9042 37.9962 20.9619 37.9962 22.2312 36.727L19.4027 33.8986C19.6956 33.6057 20.1705 33.6057 20.4634 33.8986L17.635 36.727ZM17.635 32.1308C16.3658 33.4 16.3658 35.4578 17.635 36.727L20.4634 33.8986C20.7563 34.1915 20.7563 34.6663 20.4634 34.9592L17.635 32.1308ZM22.2312 32.1308C20.9619 30.8616 18.9042 30.8616 17.635 32.1308L20.4634 34.9592C20.1705 35.2521 19.6956 35.2521 19.4027 34.9592L22.2312 32.1308ZM16.9279 37.4341C16.635 37.1412 16.635 36.6663 16.9279 36.3734L19.7563 39.2019C21.0255 37.9326 21.0255 35.8749 19.7563 34.6057L16.9279 37.4341ZM17.9885 37.4341C17.6956 37.727 17.2208 37.727 16.9279 37.4341L19.7563 34.6057C18.4871 33.3365 16.4293 33.3365 15.1601 34.6057L17.9885 37.4341ZM17.9885 36.3734C18.2814 36.6663 18.2814 37.1412 17.9885 37.4341L15.1601 34.6057C13.8909 35.8749 13.8909 37.9326 15.1601 39.2019L17.9885 36.3734ZM16.9279 36.3734C17.2208 36.0805 17.6956 36.0805 17.9885 36.3734L15.1601 39.2018C16.4293 40.4711 18.4871 40.4711 19.7563 39.2018L16.9279 36.3734ZM16.5744 36.0199C17.8436 34.7507 17.8436 32.6929 16.5744 31.4237L13.746 34.2521C13.4531 33.9592 13.4531 33.4844 13.746 33.1915L16.5744 36.0199ZM11.9782 36.0199C13.2474 37.2891 15.3052 37.2891 16.5744 36.0199L13.746 33.1915C14.0389 32.8986 14.5138 32.8986 14.8066 33.1915L11.9782 36.0199ZM11.9782 31.4237C10.709 32.6929 10.709 34.7507 11.9782 36.0199L14.8066 33.1915C15.0995 33.4844 15.0995 33.9592 14.8066 34.2521L11.9782 31.4237ZM16.5744 31.4237C15.3052 30.1545 13.2474 30.1545 11.9782 31.4237L14.8066 34.2521C14.5138 34.545 14.0389 34.545 13.746 34.2521L16.5744 31.4237ZM16.2208 31.7772C15.9279 31.4843 15.9279 31.0095 16.2208 30.7166L19.0493 33.545C20.3185 32.2758 20.3185 30.218 19.0493 28.9488L16.2208 31.7772ZM17.2815 31.7772C16.9886 32.0701 16.5137 32.0701 16.2208 31.7772L19.0493 28.9488C17.7801 27.6796 15.7223 27.6796 14.4531 28.9488L17.2815 31.7772ZM17.2815 30.7166C17.5744 31.0095 17.5744 31.4843 17.2815 31.7772L14.4531 28.9488C13.1839 30.218 13.1839 32.2758 14.4531 33.545L17.2815 30.7166ZM16.2208 30.7166C16.5137 30.4237 16.9886 30.4237 17.2815 30.7166L14.4531 33.545C15.7223 34.8142 17.7801 34.8142 19.0493 33.545L16.2208 30.7166Z" fill="#333333" mask="url(#path-1-inside-1)"/>
</svg>
