<svg width="48" height="48" viewBox="0 0 48 48" fill="none" xmlns="http://www.w3.org/2000/svg">
<path fill-rule="evenodd" clip-rule="evenodd" d="M23 6L25 4V11H23V6ZM23 19H19V17H20V12C20 11.4477 20.4477 11 21 11H23V19ZM25 19H29V17H28V12C28 11.4477 27.5523 11 27 11H25V19Z" fill="#333333"/>
<path fill-rule="evenodd" clip-rule="evenodd" d="M12 23C12 20.7909 13.7909 19 16 19H22V20C22 20.5523 22.4477 21 23 21V24H25V21C25.5523 21 26 20.5523 26 20V19H32C34.2091 19 36 20.7909 36 23V40C36 42.2091 34.2091 44 32 44H16C13.7909 44 12 42.2091 12 40V23ZM29 31C29 33.7614 26.7614 36 24 36C21.2386 36 19 33.7614 19 31C19 28.2386 21.2386 26 24 26C26.7614 26 29 28.2386 29 31ZM23 40V38H25V40H23Z" fill="#333333"/>
</svg>
