<?xml version="1.0" encoding="utf-8"?>
<!-- Generator: Adobe Illustrator 25.3.1, SVG Export Plug-In . SVG Version: 6.00 Build 0)  -->
<svg version="1.1" id="Layer_1" xmlns="http://www.w3.org/2000/svg" xmlns:xlink="http://www.w3.org/1999/xlink" x="0px" y="0px"
	 viewBox="0 0 24 24" style="enable-background:new 0 0 24 24;" xml:space="preserve">
<style type="text/css">
	.st0{fill:none;}
	.st1{fill:#6666FF;}
</style>
<path class="st0" d="M0,0h24v24H0V0z"/>
<path class="st1" d="M6,7V4c0-0.6,0.4-1,1-1h6.4l2,2H21c0.6,0,1,0.4,1,1v10c0,0.6-0.4,1-1,1h-3v3c0,0.6-0.4,1-1,1H3
	c-0.6,0-1-0.4-1-1V8c0-0.6,0.4-1,1-1H6z M6,9H4v10h12v-2H6V9z M8,5v10h12V7h-5.4l-2-2H8z"/>
</svg>
