<svg width="48" height="48" viewBox="0 0 48 48" fill="none" xmlns="http://www.w3.org/2000/svg">
<path fill-rule="evenodd" clip-rule="evenodd" d="M44 24C44 35.0457 35.0457 44 24 44C12.9543 44 4 35.0457 4 24C4 12.9543 12.9543 4 24 4C35.0457 4 44 12.9543 44 24ZM17.3914 20.7754C14.3197 23.1492 10.8729 23.8355 9.69277 22.3084C8.51263 20.7813 10.0461 17.619 13.1178 15.2452C16.1895 12.8714 19.6363 12.185 20.8165 13.7122C21.9966 15.2393 20.4632 18.4016 17.3914 20.7754ZM14.5693 19.3904C14.5693 19.9427 14.1216 20.3904 13.5693 20.3904C13.017 20.3904 12.5693 19.9427 12.5693 19.3904C12.5693 18.8381 13.017 18.3904 13.5693 18.3904C14.1216 18.3904 14.5693 18.8381 14.5693 19.3904ZM15.8631 17.4842C16.1393 17.4842 16.3631 17.2603 16.3631 16.9842C16.3631 16.708 16.1393 16.4842 15.8631 16.4842C15.587 16.4842 15.3631 16.708 15.3631 16.9842C15.3631 17.2603 15.587 17.4842 15.8631 17.4842ZM16.1371 18.3904C16.1371 18.6666 15.9133 18.8904 15.6371 18.8904C15.361 18.8904 15.1371 18.6666 15.1371 18.3904C15.1371 18.1143 15.361 17.8904 15.6371 17.8904C15.9133 17.8904 16.1371 18.1143 16.1371 18.3904ZM17.6477 16.7768C18.0343 16.7768 18.3477 16.4634 18.3477 16.0768C18.3477 15.6902 18.0343 15.3768 17.6477 15.3768C17.2611 15.3768 16.9477 15.6902 16.9477 16.0768C16.9477 16.4634 17.2611 16.7768 17.6477 16.7768ZM35.5516 34.4015C36.5382 32.7676 34.6736 29.8343 31.387 27.8498C28.1004 25.8654 24.6363 25.5813 23.6498 27.2152C22.6632 28.8491 24.5277 31.7824 27.8143 33.7669C31.1009 35.7513 34.565 36.0355 35.5516 34.4015ZM31.4185 32.8983C31.9707 32.8983 32.4185 32.4506 32.4185 31.8983C32.4185 31.346 31.9707 30.8983 31.4185 30.8983C30.8662 30.8983 30.4185 31.346 30.4185 31.8983C30.4185 32.4506 30.8662 32.8983 31.4185 32.8983ZM30.4185 30.7128C30.4185 30.963 30.2156 31.1659 29.9653 31.1659C29.7151 31.1659 29.5122 30.963 29.5122 30.7128C29.5122 30.4625 29.7151 30.2597 29.9653 30.2597C30.2156 30.2597 30.4185 30.4625 30.4185 30.7128ZM26.8269 29.486C27.0738 29.486 27.274 29.2858 27.274 29.0388C27.274 28.7919 27.0738 28.5917 26.8269 28.5917C26.5799 28.5917 26.3797 28.7919 26.3797 29.0388C26.3797 29.2858 26.5799 29.486 26.8269 29.486ZM29.0845 29.9439C29.0845 30.3681 28.7405 30.712 28.3163 30.712C27.892 30.712 27.5481 30.3681 27.5481 29.9439C27.5481 29.5196 27.892 29.1757 28.3163 29.1757C28.7405 29.1757 29.0845 29.5196 29.0845 29.9439ZM32.2184 23.8543C33.9676 23.0361 34.0513 19.5206 32.4055 16.0023C30.7597 12.484 28.0075 10.2951 26.2584 11.1134C24.5093 11.9316 24.4255 15.447 26.0713 18.9654C27.7171 22.4837 30.4693 24.6726 32.2184 23.8543ZM29.3007 18.0763C29.853 18.0763 30.3007 17.6286 30.3007 17.0763C30.3007 16.524 29.853 16.0763 29.3007 16.0763C28.7484 16.0763 28.3007 16.524 28.3007 17.0763C28.3007 17.6286 28.7484 18.0763 29.3007 18.0763ZM28.3007 15.0959C28.3007 15.372 28.0768 15.5959 27.8007 15.5959C27.5245 15.5959 27.3007 15.372 27.3007 15.0959C27.3007 14.8197 27.5245 14.5959 27.8007 14.5959C28.0768 14.5959 28.3007 14.8197 28.3007 15.0959ZM30.1768 20.2498C30.5634 20.2498 30.8768 19.9364 30.8768 19.5498C30.8768 19.1632 30.5634 18.8498 30.1768 18.8498C29.7902 18.8498 29.4768 19.1632 29.4768 19.5498C29.4768 19.9364 29.7902 20.2498 30.1768 20.2498ZM20.6033 38.9651C22.3678 38.0782 22.3518 34.482 20.5677 30.9329C18.7836 27.3839 15.907 25.2258 14.1425 26.1128C12.3781 26.9998 12.394 30.5959 14.1781 34.145C15.9622 37.694 18.8389 39.8521 20.6033 38.9651ZM17.4575 34.0196C18.0097 34.0196 18.4575 33.5719 18.4575 33.0196C18.4575 32.4673 18.0097 32.0196 17.4575 32.0196C16.9052 32.0196 16.4575 32.4673 16.4575 33.0196C16.4575 33.5719 16.9052 34.0196 17.4575 34.0196ZM17.826 30.67C17.826 30.9202 17.6232 31.1231 17.3729 31.1231C17.1227 31.1231 16.9198 30.9202 16.9198 30.67C16.9198 30.4197 17.1227 30.2168 17.3729 30.2168C17.6232 30.2168 17.826 30.4197 17.826 30.67ZM15.6675 30.127C15.9437 30.127 16.1675 29.9031 16.1675 29.627C16.1675 29.3509 15.9437 29.127 15.6675 29.127C15.3914 29.127 15.1675 29.3509 15.1675 29.627C15.1675 29.9031 15.3914 30.127 15.6675 30.127ZM19.5675 35.1356C19.5675 35.5222 19.2541 35.8356 18.8675 35.8356C18.4809 35.8356 18.1675 35.5222 18.1675 35.1356C18.1675 34.749 18.4809 34.4356 18.8675 34.4356C19.2541 34.4356 19.5675 34.749 19.5675 35.1356Z" fill="#333333"/>
</svg>
