<svg width="48" height="48" viewBox="0 0 48 48" fill="none" xmlns="http://www.w3.org/2000/svg">
<path fill-rule="evenodd" clip-rule="evenodd" d="M10 7C10 6.44772 10.4477 6 11 6H17C17.5523 6 18 6.44772 18 7V10.3333C18 10.8856 17.5523 11.3333 17 11.3333H15V13H18.5C19.3284 13 20 13.6716 20 14.5C20 15.3223 19.3383 15.9901 18.5183 15.9999C18.5299 16.0542 18.547 16.1073 18.5693 16.1585L21.8323 23.6167C21.9429 23.8695 22 24.1424 22 24.4184V41C22 41.5523 21.5523 42 21 42H7C6.44772 42 6 41.5523 6 41V24.4184C6 24.1424 6.05709 23.8695 6.16769 23.6167L9.43066 16.1585C9.45304 16.1073 9.47011 16.0542 9.48172 15.9999C8.66172 15.9901 8 15.3223 8 14.5C8 13.6716 8.67157 13 9.5 13H13V11.3333H11C10.4477 11.3333 10 10.8856 10 10.3333V7ZM15.3333 8.66667C15.3333 9.40305 14.7364 10 14 10C13.2636 10 12.6667 9.40305 12.6667 8.66667C12.6667 7.93029 13.2636 7.33333 14 7.33333C14.7364 7.33333 15.3333 7.93029 15.3333 8.66667ZM18 30C18 27.7909 16.2091 26 14 26C13.2582 26 12.5635 26.2019 11.968 26.5538L17.4462 32.032C17.7981 31.4365 18 30.7418 18 30ZM10 30C10 29.2582 10.2019 28.5636 10.5538 27.9681L16.0319 33.4462C15.4364 33.7981 14.7418 34 14 34C11.7909 34 10 32.2091 10 30ZM20 30C20 26.6863 17.3137 24 14 24C10.6863 24 8 26.6863 8 30C8 33.3137 10.6863 36 14 36C17.3137 36 20 33.3137 20 30ZM37 42C41.375 42 42 41.1046 42 40C42 39.6121 41.2421 38.9985 40.0644 38.5532L41.1936 37.5102C41.7138 37.0296 41.8271 36.2507 41.4652 35.6419L40.5367 34.0798L41.7466 31.9286C42.0173 31.4472 41.8466 30.8375 41.3652 30.5668C40.8839 30.296 40.2742 30.4668 40.0034 30.9481L38.5808 33.4773C38.3616 33.8672 38.3673 34.3444 38.5958 34.7288L39.5391 36.3157L37.6862 38.0272C37.6261 38.0225 37.5656 38.0183 37.5048 38.0148L37.6425 35.7203C37.6766 35.1532 37.3873 34.6155 36.8952 34.3314L35.604 33.5859L36.6767 31.4862C36.928 30.9944 36.733 30.392 36.2412 30.1407C35.7494 29.8894 35.147 30.0844 34.8957 30.5763L33.6069 33.099C33.2436 33.8101 33.5011 34.6812 34.1926 35.0805L35.6276 35.9089L35.4943 38.1307C35.3471 38.1563 35.203 38.1851 35.0621 38.2169C35.0692 37.9756 34.9896 37.731 34.8193 37.5339L32.5939 34.957C32.309 34.6271 31.8946 34.4375 31.4587 34.4375H30.5218L28.8711 31.509C28.6 31.0278 27.9901 30.8576 27.509 31.1288C27.0279 31.4 26.8577 32.0099 27.1288 32.491L28.9946 35.8012C29.2162 36.1943 29.6324 36.4375 30.0836 36.4375H31.2298L33.2964 38.8303C32.8891 39.0321 32.5623 39.2491 32.3386 39.4546C32.0712 38.5956 30.8303 38.1387 29.4975 38.4294C28.5302 38.6404 27.7708 39.1893 27.4709 39.8156C27.4573 39.8241 27.4439 39.833 27.4306 39.8422C27.14 40.0435 26.8317 40.0393 26.6173 39.9005C26.4035 39.7621 26 39.2996 26 38C26 37.4477 25.5523 37 25 37C24.4477 37 24 37.4477 24 38C24 39.6674 24.5283 40.9306 25.5304 41.5794C26.4326 42.1635 27.4892 42.0951 28.3082 41.6475C28.8326 41.8643 29.516 41.9214 30.2254 41.7666C31.0586 41.5849 31.7375 41.1525 32.1014 40.6359C32.4034 41.4287 33.5054 42 37 42ZM40 9.77143H34V10.4667C34.6156 10.8043 35 11.4513 35 12.1558V19.8442C35 20.5487 34.6156 21.1957 34 21.5333V22.2285H40V21.5333C39.3844 21.1957 39 20.5487 39 19.8442V12.1558C39 11.4513 39.3844 10.8043 40 10.4667V9.77143ZM32 21.4891V22.2285V23V25.9999H32.7143H41.2857H42V23V22.2285V21.4891C42 20.7847 41.6156 20.1377 41 19.8001V12.1999C41.6156 11.8623 42 11.2153 42 10.5109V9.77143V9V6H32V9V9.77143V10.5109C32 11.2153 32.3844 11.8623 33 12.1999V19.8001C32.3844 20.1377 32 20.7847 32 21.4891Z" fill="#333333"/>
</svg>
