<svg width="48" height="48" viewBox="0 0 48 48" fill="none" xmlns="http://www.w3.org/2000/svg">
<path fill-rule="evenodd" clip-rule="evenodd" d="M29.5914 4.67461C28.79 4.21665 27.8915 4 26.9239 4H21.6762C19.8518 4 18.0074 4.84975 16.8975 6.38697C16.8605 6.43373 16.8242 6.48089 16.7887 6.52844L14.4524 9.55709L13.6411 10.639C13.6405 10.6397 13.64 10.6403 13.6395 10.641C11.1086 13.9837 11.1091 18.6379 13.6411 21.98L13.6469 21.9878L23.4241 34.3903L30.0002 42.7749C30.7149 43.6861 32.0517 43.8018 32.9123 43.0268L36.9782 39.3654C37.7572 38.6639 37.8624 37.4799 37.2192 36.6521L29.7891 27.0891L24.9971 21.0313L18.4811 12.6149L18.4762 12.6086C17.9077 11.898 17.6096 10.9479 17.6096 10.0667C17.6096 9.25167 17.8658 8.43472 18.3833 7.73584L18.4983 7.5867L18.509 7.57171C19.2105 6.58966 20.4333 6 21.6762 6H26.9239C27.5848 6 28.1339 6.14525 28.5991 6.4111C29.1811 6.74365 29.6705 7.1096 30.0006 7.57171L31.6281 6.40924C31.0534 5.60468 30.2761 5.06587 29.5914 4.67461ZM15.7171 11.2043C15.8933 12.14 16.2873 13.0717 16.9092 13.8515L23.4252 22.2681L28.2205 28.3299L35.6399 37.8792L31.5739 41.5406L24.9964 33.1543L15.2296 20.7648C13.2439 18.1368 13.2458 14.4728 15.2352 11.8467L15.2381 11.8429L15.7171 11.2043Z" fill="#333333"/>
<path d="M17.5857 7.1325L17.6953 6.99048C17.6578 7.03734 17.6213 7.08469 17.5857 7.1325L15.2524 10.1571L14.4381 11.2429C12.1762 14.2286 12.1762 18.3905 14.4381 21.3762L24.2096 33.7714L30.7871 42.1577C31.1444 42.6134 31.8128 42.6712 32.2431 42.2837L36.3091 38.6223C36.6986 38.2715 36.7511 37.6796 36.4296 37.2657L29.0048 27.7095L24.2096 21.6476L17.6953 13.2333C16.9715 12.3286 16.6096 11.1524 16.6096 10.0667C16.6096 9.03719 16.935 8.00771 17.5857 7.1325Z" fill="#333333"/>
<path fill-rule="evenodd" clip-rule="evenodd" d="M16.8975 6.38697C18.0074 4.84975 19.8518 4 21.6762 4V6C20.4333 6 19.2105 6.58966 18.509 7.57171L18.4983 7.5867L18.3833 7.73584C17.8658 8.43472 17.6096 9.25167 17.6096 10.0667C17.6096 10.9479 17.9077 11.898 18.4762 12.6086L18.4811 12.6149L24.9971 21.0313L29.7891 27.0891L37.2192 36.6521C37.8624 37.4799 37.7572 38.6639 36.9782 39.3654L32.9123 43.0268C32.0517 43.8018 30.7149 43.6861 30.0002 42.7749L23.4241 34.3903L13.6469 21.9878L13.6411 21.98C11.1091 18.6379 11.1086 13.9837 13.6395 10.641C13.64 10.6403 13.6405 10.6397 13.6411 10.639L14.4524 9.55709L16.7887 6.52844C16.8242 6.48089 16.8605 6.43373 16.8975 6.38697ZM15.7171 11.2043C15.8933 12.14 16.2873 13.0717 16.9092 13.8515L23.4252 22.2681L28.2205 28.3299L35.6399 37.8792L31.5739 41.5406L24.9964 33.1543L15.2296 20.7648C13.2439 18.1368 13.2458 14.4728 15.2352 11.8467L15.2381 11.8429L15.7171 11.2043Z" fill="#333333"/>
<path fill-rule="evenodd" clip-rule="evenodd" d="M31.627 6.43321C31.5872 6.37992 31.5465 6.32716 31.5047 6.27496L29.9321 7.51046L30.0321 7.64018C31.0976 9.07941 31.0679 11.1117 29.943 12.5178L29.938 12.524L25.7552 17.9268L26.9659 19.4906L31.7593 25.5501L31.8509 25.6681L34.7781 21.8893C37.3101 18.5471 37.3105 13.8929 34.7796 10.5502L33.9586 9.45547L31.627 6.43321Z" fill="#333333"/>
<path fill-rule="evenodd" clip-rule="evenodd" d="M16.5676 29.7279L21.4556 35.9316L21.4604 35.9377L22.6208 37.4172L18.3653 42.843C17.6917 43.7019 16.4539 43.862 15.5839 43.2029L11.2055 39.8859C10.3157 39.2118 10.1499 37.9398 10.8373 37.0602L16.5676 29.7279Z" fill="#333333"/>
<path fill-rule="evenodd" clip-rule="evenodd" d="M21.5858 13.5093C20.5464 13.5093 19.5468 13.8815 18.8548 14.5735L17.4406 13.1593C18.5581 12.0418 20.0919 11.5093 21.5858 11.5093H26.8334C28.3714 11.5093 29.871 12.1606 30.9405 13.1231L29.6025 14.6097C28.8625 13.9437 27.8287 13.5093 26.8334 13.5093H21.5858Z" fill="#333333"/>
</svg>
